  0
SECTION
  2
HEADER
  9
$ACADVER
  1
AC1027
  9
$ACADMAINTVER
 70
     8
  9
$DWGCODEPAGE
  3
ANSI_1252
  9
$REQUIREDVERSIONS
160
                 0
  9
$COMMENTS
  1
File was created by SpaceClaim
  9
$INSBASE
 10
0.0
 20
0.0
 30
0.0
  9
$EXTMIN
 10
-57.57774129448482
 20
169.4206294960475
 30
53.99154082107761
  9
$EXTMAX
 10
3.849913151470836
 20
204.6569378727624
 30
55.12866546113502
  9
$LIMMIN
 10
0.0
 20
0.0
  9
$LIMMAX
 10
420.0
 20
297.0
  9
$ORTHOMODE
 70
     0
  9
$REGENMODE
 70
     1
  9
$FILLMODE
 70
     1
  9
$QTEXTMODE
 70
     0
  9
$MIRRTEXT
 70
     1
  9
$LTSCALE
 40
1.0
  9
$ATTMODE
 70
     1
  9
$TEXTSIZE
 40
2.5
  9
$TRACEWID
 40
1.0
  9
$TEXTSTYLE
  7
Standard
  9
$CLAYER
  8
0
  9
$CELTYPE
  6
ByLayer
  9
$CECOLOR
 62
   256
  9
$CELTSCALE
 40
1.0
  9
$DISPSILH
 70
     0
  9
$DIMSCALE
 40
1.0
  9
$DIMASZ
 40
2.5
  9
$DIMEXO
 40
0.625
  9
$DIMDLI
 40
3.75
  9
$DIMRND
 40
0.0
  9
$DIMDLE
 40
0.0
  9
$DIMEXE
 40
1.25
  9
$DIMTP
 40
0.0
  9
$DIMTM
 40
0.0
  9
$DIMTXT
 40
2.5
  9
$DIMCEN
 40
2.5
  9
$DIMTSZ
 40
0.0
  9
$DIMTOL
 70
     0
  9
$DIMLIM
 70
     0
  9
$DIMTIH
 70
     1
  9
$DIMTOH
 70
     0
  9
$DIMSE1
 70
     0
  9
$DIMSE2
 70
     0
  9
$DIMTAD
 70
     1
  9
$DIMZIN
 70
     8
  9
$DIMBLK
  1

  9
$DIMASO
 70
     1
  9
$DIMSHO
 70
     1
  9
$DIMPOST
  1
mm
  9
$DIMAPOST
  1

  9
$DIMALT
 70
     0
  9
$DIMALTD
 70
     3
  9
$DIMALTF
 40
0.0393700787401575
  9
$DIMLFAC
 40
1.0
  9
$DIMTOFL
 70
     1
  9
$DIMTVP
 40
0.0
  9
$DIMTIX
 70
     0
  9
$DIMSOXD
 70
     0
  9
$DIMSAH
 70
     0
  9
$DIMBLK1
  1

  9
$DIMBLK2
  1

  9
$DIMSTYLE
  2
ISO-25
  9
$DIMCLRD
 70
     0
  9
$DIMCLRE
 70
     0
  9
$DIMCLRT
 70
     0
  9
$DIMTFAC
 40
1.0
  9
$DIMGAP
 40
0.625
  9
$DIMJUST
 70
     0
  9
$DIMSD1
 70
     0
  9
$DIMSD2
 70
     0
  9
$DIMTOLJ
 70
     0
  9
$DIMTZIN
 70
     8
  9
$DIMALTZ
 70
     0
  9
$DIMALTTZ
 70
     8
  9
$DIMUPT
 70
     0
  9
$DIMDEC
 70
     3
  9
$DIMTDEC
 70
     3
  9
$DIMALTU
 70
     2
  9
$DIMALTTD
 70
     3
  9
$DIMTXSTY
  7
Standard
  9
$DIMAUNIT
 70
     0
  9
$DIMADEC
 70
     1
  9
$DIMALTRND
 40
0.0
  9
$DIMAZIN
 70
     0
  9
$DIMDSEP
 70
    46
  9
$DIMATFIT
 70
     3
  9
$DIMFRAC
 70
     0
  9
$DIMLDRBLK
  1

  9
$DIMLUNIT
 70
     2
  9
$DIMLWD
 70
    -2
  9
$DIMLWE
 70
    -2
  9
$DIMTMOVE
 70
     0
  9
$DIMFXL
 40
1.0
  9
$DIMFXLON
 70
     0
  9
$DIMJOGANG
 40
0.7853981633974483
  9
$DIMTFILL
 70
     0
  9
$DIMTFILLCLR
 70
     0
  9
$DIMARCSYM
 70
     0
  9
$DIMLTYPE
  6

  9
$DIMLTEX1
  6

  9
$DIMLTEX2
  6

  9
$DIMTXTDIRECTION
 70
     0
  9
$LUNITS
 70
     2
  9
$LUPREC
 70
     4
  9
$SKETCHINC
 40
1.0
  9
$FILLETRAD
 40
10.0
  9
$AUNITS
 70
     0
  9
$AUPREC
 70
     0
  9
$MENU
  1
.
  9
$ELEVATION
 40
0.0
  9
$PELEVATION
 40
0.0
  9
$THICKNESS
 40
0.0
  9
$LIMCHECK
 70
     0
  9
$CHAMFERA
 40
0.0
  9
$CHAMFERB
 40
0.0
  9
$CHAMFERC
 40
0.0
  9
$CHAMFERD
 40
0.0
  9
$SKPOLY
 70
     0
  9
$TDCREATE
 40
2457944.78347897
  9
$TDUCREATE
 40
2457944.950145637
  9
$TDUPDATE
 40
2457944.783479074
  9
$TDUUPDATE
 40
2457944.950145741
  9
$TDINDWG
 40
0.0000000116
  9
$TDUSRTIMER
 40
0.0000000116
  9
$USRTIMER
 70
     1
  9
$ANGBASE
 50
0.0
  9
$ANGDIR
 70
     0
  9
$PDMODE
 70
     0
  9
$PDSIZE
 40
0.0
  9
$PLINEWID
 40
0.0
  9
$SPLFRAME
 70
     0
  9
$SPLINETYPE
 70
     6
  9
$SPLINESEGS
 70
     8
  9
$HANDSEED
  5
E8
  9
$SURFTAB1
 70
     6
  9
$SURFTAB2
 70
     6
  9
$SURFTYPE
 70
     6
  9
$SURFU
 70
     6
  9
$SURFV
 70
     6
  9
$UCSBASE
  2

  9
$UCSNAME
  2

  9
$UCSORG
 10
0.0
 20
0.0
 30
0.0
  9
$UCSXDIR
 10
1.0
 20
0.0
 30
0.0
  9
$UCSYDIR
 10
0.0
 20
1.0
 30
0.0
  9
$UCSORTHOREF
  2

  9
$UCSORTHOVIEW
 70
     0
  9
$UCSORGTOP
 10
0.0
 20
0.0
 30
0.0
  9
$UCSORGBOTTOM
 10
0.0
 20
0.0
 30
0.0
  9
$UCSORGLEFT
 10
0.0
 20
0.0
 30
0.0
  9
$UCSORGRIGHT
 10
0.0
 20
0.0
 30
0.0
  9
$UCSORGFRONT
 10
0.0
 20
0.0
 30
0.0
  9
$UCSORGBACK
 10
0.0
 20
0.0
 30
0.0
  9
$PUCSBASE
  2

  9
$PUCSNAME
  2

  9
$PUCSORG
 10
0.0
 20
0.0
 30
0.0
  9
$PUCSXDIR
 10
1.0
 20
0.0
 30
0.0
  9
$PUCSYDIR
 10
0.0
 20
1.0
 30
0.0
  9
$PUCSORTHOREF
  2

  9
$PUCSORTHOVIEW
 70
     0
  9
$PUCSORGTOP
 10
0.0
 20
0.0
 30
0.0
  9
$PUCSORGBOTTOM
 10
0.0
 20
0.0
 30
0.0
  9
$PUCSORGLEFT
 10
0.0
 20
0.0
 30
0.0
  9
$PUCSORGRIGHT
 10
0.0
 20
0.0
 30
0.0
  9
$PUCSORGFRONT
 10
0.0
 20
0.0
 30
0.0
  9
$PUCSORGBACK
 10
0.0
 20
0.0
 30
0.0
  9
$USERI1
 70
     0
  9
$USERI2
 70
     0
  9
$USERI3
 70
     0
  9
$USERI4
 70
     0
  9
$USERI5
 70
     0
  9
$USERR1
 40
0.0
  9
$USERR2
 40
0.0
  9
$USERR3
 40
0.0
  9
$USERR4
 40
0.0
  9
$USERR5
 40
0.0
  9
$WORLDVIEW
 70
     1
  9
$SHADEDGE
 70
     3
  9
$SHADEDIF
 70
    70
  9
$TILEMODE
 70
     1
  9
$MAXACTVP
 70
    64
  9
$PINSBASE
 10
0.0
 20
0.0
 30
0.0
  9
$PLIMCHECK
 70
     0
  9
$PEXTMIN
 10
1.000000000000000E+20
 20
1.000000000000000E+20
 30
1.000000000000000E+20
  9
$PEXTMAX
 10
-1.000000000000000E+20
 20
-1.000000000000000E+20
 30
-1.000000000000000E+20
  9
$PLIMMIN
 10
0.0
 20
0.0
  9
$PLIMMAX
 10
420.0
 20
297.0
  9
$UNITMODE
 70
     0
  9
$VISRETAIN
 70
     1
  9
$PLINEGEN
 70
     0
  9
$PSLTSCALE
 70
     1
  9
$TREEDEPTH
 70
  3020
  9
$CMLSTYLE
  2
Standard
  9
$CMLJUST
 70
     0
  9
$CMLSCALE
 40
20.0
  9
$PROXYGRAPHICS
 70
     1
  9
$MEASUREMENT
 70
     1
  9
$CELWEIGHT
370
    -1
  9
$ENDCAPS
280
     0
  9
$JOINSTYLE
280
     0
  9
$LWDISPLAY
290
     0
  9
$INSUNITS
 70
     4
  9
$HYPERLINKBASE
  1

  9
$STYLESHEET
  1

  9
$XEDIT
290
     1
  9
$CEPSNTYPE
380
     0
  9
$PSTYLEMODE
290
     1
  9
$FINGERPRINTGUID
  2
{CE0B4D3D-62F0-4CC6-946B-1342DB0DC366}
  9
$VERSIONGUID
  2
{FAEB1C32-E019-11D5-929B-00C0DF256EC4}
  9
$EXTNAMES
290
     1
  9
$PSVPSCALE
 40
0.0
  9
$OLESTARTUP
290
     0
  9
$SORTENTS
280
   127
  9
$INDEXCTL
280
     0
  9
$HIDETEXT
280
     1
  9
$XCLIPFRAME
280
     2
  9
$HALOGAP
280
     0
  9
$OBSCOLOR
 70
   257
  9
$OBSLTYPE
280
     0
  9
$INTERSECTIONDISPLAY
280
     0
  9
$INTERSECTIONCOLOR
 70
   257
  9
$DIMASSOC
280
     2
  9
$PROJECTNAME
  1

  9
$CAMERADISPLAY
290
     0
  9
$LENSLENGTH
 40
50.0
  9
$CAMERAHEIGHT
 40
0.0
  9
$STEPSPERSEC
 40
2.0
  9
$STEPSIZE
 40
6.0
  9
$3DDWFPREC
 40
2.0
  9
$PSOLWIDTH
 40
5.0
  9
$PSOLHEIGHT
 40
80.0
  9
$LOFTANG1
 40
1.570796326794897
  9
$LOFTANG2
 40
1.570796326794897
  9
$LOFTMAG1
 40
0.0
  9
$LOFTMAG2
 40
0.0
  9
$LOFTPARAM
 70
     7
  9
$LOFTNORMALS
280
     1
  9
$LATITUDE
 40
37.795
  9
$LONGITUDE
 40
-122.394
  9
$NORTHDIRECTION
 40
0.0
  9
$TIMEZONE
 70
 -8000
  9
$LIGHTGLYPHDISPLAY
280
     1
  9
$TILEMODELIGHTSYNCH
280
     1
  9
$CMATERIAL
347
44
  9
$SOLIDHIST
280
     1
  9
$SHOWHIST
280
     1
  9
$DWFFRAME
280
     2
  9
$DGNFRAME
280
     2
  9
$REALWORLDSCALE
290
     1
  9
$INTERFERECOLOR
 62
   256
  9
$CSHADOW
280
     0
  9
$SHADOWPLANELOCATION
 40
0.0
  0
ENDSEC
  0
SECTION
  2
CLASSES
  0
CLASS
  1
ACDBDICTIONARYWDFLT
  2
AcDbDictionaryWithDefault
  3
ObjectDBX Classes
 90
        0
 91
        4
280
     0
281
     0
  0
CLASS
  1
VISUALSTYLE
  2
AcDbVisualStyle
  3
ObjectDBX Classes
 90
     4095
 91
        4
280
     0
281
     0
  0
CLASS
  1
MATERIAL
  2
AcDbMaterial
  3
ObjectDBX Classes
 90
     1153
 91
        4
280
     0
281
     0
  0
CLASS
  1
SCALE
  2
AcDbScale
  3
ObjectDBX Classes
 90
     1153
 91
        4
280
     0
281
     0
  0
CLASS
  1
SUN
  2
AcDbSun
  3
SCENEOE
 90
     1153
 91
        4
280
     0
281
     0
  0
CLASS
  1
DICTIONARYVAR
  2
AcDbDictionaryVar
  3
ObjectDBX Classes
 90
        0
 91
        4
280
     0
281
     0
  0
ENDSEC
  0
SECTION
  2
TABLES
  0
TABLE
  2
VPORT
  5
8
330
0
100
AcDbSymbolTable
 70
     1
  0
VPORT
  5
29
330
8
100
AcDbSymbolTableRecord
100
AcDbViewportTableRecord
  2
*Active
 70
     0
 10
0.0
 20
0.0
 11
1.0
 21
1.0
 12
-26.86391407150699
 22
187.038783684405
 13
0.0
 23
0.0
 14
10.0
 24
10.0
 15
10.0
 25
10.0
 16
0.0
 26
0.0
 36
1.0
 17
0.0
 27
0.0
 37
0.0
 40
35.23630837671485
 41
1.743305620703127
 42
50.0
 43
0.0
 44
0.0
 50
0.0
 51
0.0
 71
     0
 72
   100
 73
     1
 74
     3
 75
     0
 76
     0
 77
     0
 78
     0
281
     0
 65
     1
110
0.0
120
0.0
130
0.0
111
1.0
121
0.0
131
0.0
112
0.0
122
1.0
132
0.0
 79
     0
146
0.0
 60
     3
 61
     5
292
     1
282
     1
141
0.0
142
0.0
 63
   250
361
69
  0
ENDTAB
  0
TABLE
  2
LTYPE
  5
5
330
0
100
AcDbSymbolTable
 70
     2
  0
LTYPE
  5
14
330
5
100
AcDbSymbolTableRecord
100
AcDbLinetypeTableRecord
  2
ByBlock
 70
     0
  3

 72
    65
 73
     0
 40
0.0
  0
LTYPE
  5
15
330
5
100
AcDbSymbolTableRecord
100
AcDbLinetypeTableRecord
  2
ByLayer
 70
     0
  3

 72
    65
 73
     0
 40
0.0
  0
LTYPE
  5
16
330
5
100
AcDbSymbolTableRecord
100
AcDbLinetypeTableRecord
  2
Continuous
 70
     0
  3
Solid line
 72
    65
 73
     0
 40
0.0
  0
LTYPE
  5
9E
330
5
100
AcDbSymbolTableRecord
100
AcDbLinetypeTableRecord
  2
HIDDEN
 70
     0
  3
- - - - - - - - - - - - - - - - - - - - -
 72
    65
 73
     2
 40
9.524999999999999
 49
6.35
 74
     0
 49
-3.175
 74
     0
  0
ENDTAB
  0
TABLE
  2
LAYER
  5
2
330
0
100
AcDbSymbolTable
 70
     2
  0
LAYER
  5
10
330
2
100
AcDbSymbolTableRecord
100
AcDbLayerTableRecord
  2
0
 70
     0
 62
   253
420
  9416591
  6
Continuous
370
    70
390
F
347
46
348
0
  0
LAYER
  5
9D
330
2
100
AcDbSymbolTableRecord
100
AcDbLayerTableRecord
  2
Hidden
 70
     0
 62
    98
420
   346117
  6
HIDDEN
370
    70
390
F
347
46
348
0
  0
ENDTAB
  0
TABLE
  2
STYLE
  5
3
330
0
100
AcDbSymbolTable
 70
     1
  0
STYLE
  5
11
330
3
100
AcDbSymbolTableRecord
100
AcDbTextStyleTableRecord
  2
Standard
 70
     0
 40
0.0
 41
1.0
 50
0.0
 71
     0
 42
2.5
  3
txt
  4

  0
ENDTAB
  0
TABLE
  2
VIEW
  5
6
330
0
100
AcDbSymbolTable
 70
     0
  0
ENDTAB
  0
TABLE
  2
UCS
  5
7
330
0
100
AcDbSymbolTable
 70
     0
  0
ENDTAB
  0
TABLE
  2
APPID
  5
9
330
0
100
AcDbSymbolTable
 70
     1
  0
APPID
  5
12
330
9
100
AcDbSymbolTableRecord
100
AcDbRegAppTableRecord
  2
ACAD
 70
     0
  0
ENDTAB
  0
TABLE
  2
DIMSTYLE
  5
A
330
0
100
AcDbSymbolTable
 70
     1
100
AcDbDimStyleTable
  0
DIMSTYLE
105
27
330
A
100
AcDbSymbolTableRecord
100
AcDbDimStyleTableRecord
  2
ISO-25
 70
     0
 41
2.5
 42
0.625
 43
3.75
 44
1.25
 73
     0
 74
     0
 77
     1
 78
     8
140
2.5
141
2.5
143
0.03937007874016
147
0.625
171
     3
172
     1
178
     0
271
     2
272
     2
274
     3
278
    44
283
     0
284
     8
340
11
  0
ENDTAB
  0
TABLE
  2
BLOCK_RECORD
  5
1
330
0
100
AcDbSymbolTable
 70
     1
  0
BLOCK_RECORD
  5
1F
330
1
100
AcDbSymbolTableRecord
100
AcDbBlockTableRecord
  2
*Model_Space
340
22
 70
     0
280
     1
281
     0
  0
BLOCK_RECORD
  5
1B
330
1
100
AcDbSymbolTableRecord
100
AcDbBlockTableRecord
  2
*Paper_Space
340
1E
 70
     0
280
     1
281
     0
  0
BLOCK_RECORD
  5
23
330
1
100
AcDbSymbolTableRecord
100
AcDbBlockTableRecord
  2
*Paper_Space0
340
26
 70
     0
280
     1
281
     0
  0
ENDTAB
  0
ENDSEC
  0
SECTION
  2
BLOCKS
  0
BLOCK
  5
20
330
1F
100
AcDbEntity
  8
0
100
AcDbBlockBegin
  2
*Model_Space
 70
     0
 10
0.0
 20
0.0
 30
0.0
  3
*Model_Space
  1
*Model_Space
  0
ENDBLK
  5
21
330
1F
100
AcDbEntity
  8
0
100
AcDbBlockEnd
  0
BLOCK
  5
1C
330
1B
100
AcDbEntity
 67
     1
  8
0
100
AcDbBlockBegin
  2
*Paper_Space
 70
     0
 10
0.0
 20
0.0
 30
0.0
  3
*Paper_Space
  1
*Paper_Space
  0
ENDBLK
  5
1D
330
1B
100
AcDbEntity
 67
     1
  8
0
100
AcDbBlockEnd
  0
BLOCK
  5
24
330
23
100
AcDbEntity
  8
0
100
AcDbBlockBegin
  2
*Paper_Space0
 70
     0
 10
0.0
 20
0.0
 30
0.0
  3
*Paper_Space0
  1
*Paper_Space0
  0
ENDBLK
  5
25
330
23
100
AcDbEntity
  8
0
100
AcDbBlockEnd
  0
ENDSEC
  0
SECTION
  2
ENTITIES
  0
ELLIPSE
  5
6A
330
1F
100
AcDbEntity
  8
0
 62
    98
420
   346117
370
    -3
100
AcDbEllipse
 10
-11.45352995521703
 20
196.9610143390706
 30
0.0
 11
-3.316983739137342
 21
-0.4976131773762315
 31
1.396425461201591E-16
210
4.117262709087145E-17
220
6.176708539711936E-18
230
1.0
 40
0.2763133796977341
 41
6.283152673008645
 42
9.424745326598444
  0
ELLIPSE
  5
6B
330
1F
100
AcDbEntity
  8
0
 62
    98
420
   346117
370
    -3
100
AcDbEllipse
 10
-12.4516150820962
 20
203.6140377850915
 30
0.0000000000000069
 11
-3.316983739137342
 21
-0.4976131773762315
 31
1.396425461201591E-16
210
4.117262709087145E-17
220
6.176708539711936E-18
230
1.0
 40
0.2763133796977341
 41
0.0
 42
6.283185307179586
  0
SPLINE
  5
6C
330
1F
100
AcDbEntity
  8
0
 62
    98
420
   346117
370
    -3
100
AcDbSpline
210
0.0
220
0.0
230
1.0
 70
     8
 71
     3
 72
    14
 73
    10
 74
     0
 42
0.000000001
 43
0.00000001
 40
-0.5000000000000001
 40
-0.5000000000000001
 40
-0.5000000000000001
 40
-0.5000000000000001
 40
-0.4239550010522307
 40
-0.4239550010522307
 40
-0.4239550010522307
 40
-0.2093980341140242
 40
-0.2093980341140242
 40
-0.2093980341140242
 40
0.0
 40
0.0
 40
0.0
 40
0.0
 10
-30.00230568546869
 20
195.373849434707
 30
-0.0000000000000416
 10
-29.91122400121568
 20
195.4087188612111
 30
-0.0000000000000347
 10
-29.81549231060229
 20
195.4416009719027
 30
-0.0000000000000347
 10
-29.7157552867955
 20
195.4718319368612
 30
-0.0000000000000208
 10
-29.43435251717845
 20
195.5571270152867
 30
-0.0000000000000347
 10
-29.12170905971338
 20
195.6214027742365
 30
-0.0000000000000347
 10
-28.80187954883264
 20
195.6704326319118
 30
-0.0000000000000347
 10
-28.48974020520849
 20
195.7182835870991
 30
-0.0000000000000278
 10
-28.17117414182477
 20
195.7520431827273
 30
-0.0000000000000278
 10
-27.86664646406404
 20
195.7884038477177
 30
-0.0000000000000347
  0
SPLINE
  5
6D
330
1F
100
AcDbEntity
  8
0
 62
    98
420
   346117
370
    -3
100
AcDbSpline
210
0.0
220
0.0
230
1.0
 70
     8
 71
     3
 72
    14
 73
    10
 74
     0
 42
0.000000001
 43
0.00000001
 40
-1.0
 40
-1.0
 40
-1.0
 40
-1.0
 40
-0.9214235960108965
 40
-0.9214235960108965
 40
-0.9214235960108965
 40
-0.8083756956165903
 40
-0.8083756956165903
 40
-0.8083756956165903
 40
-0.8058983654636873
 40
-0.8058983654636873
 40
-0.8058983654636873
 40
-0.8058983654636873
 10
-31.00690414014582
 20
194.579717634594
 30
-0.0000000000000347
 10
-30.99923530534482
 20
194.6130090561398
 30
-0.0000000000000278
 10
-30.98469961964047
 20
194.6501284153175
 30
-0.0000000000000278
 10
-30.96295897170877
 20
194.6898172198542
 30
-0.0000000000000278
 10
-30.9316806937892
 20
194.7469175170713
 30
-0.0000000000000208
 10
-30.88544141092562
 20
194.8093175483091
 30
-0.0000000000000278
 10
-30.82397729408145
 20
194.8733857272397
 30
-0.0000000000000347
 10
-30.82263037026023
 20
194.874789716442
 30
-0.0000000000000347
 10
-30.82127608884517
 20
194.87619446757
 30
-0.0000000000000278
 10
-30.81991470957538
 20
194.8776000980198
 30
-0.0000000000000347
  0
SPLINE
  5
6E
330
1F
100
AcDbEntity
  8
0
 62
    98
420
   346117
370
    -3
100
AcDbSpline
210
0.0
220
0.0
230
1.0
 70
     8
 71
     3
 72
    11
 73
     7
 74
     0
 42
0.000000001
 43
0.00000001
 40
-0.8058983654636873
 40
-0.8058983654636873
 40
-0.8058983654636873
 40
-0.8058983654636873
 40
-0.6478845998329266
 40
-0.6478845998329266
 40
-0.6478845998329266
 40
-0.5000000000000001
 40
-0.5000000000000001
 40
-0.5000000000000001
 40
-0.5000000000000001
 10
-30.81991470957538
 20
194.8776000980198
 30
-0.0000000000000347
 10
-30.73306448453527
 20
194.9672470004302
 30
-0.0000000000000278
 10
-30.61632330159331
 20
195.0598634367202
 30
-0.0000000000000347
 10
-30.47239017282679
 20
195.1471304164503
 30
-0.0000000000000278
 10
-30.33768359795738
 20
195.2288033157987
 30
-0.0000000000000278
 10
-30.17899427140255
 20
195.3053905132166
 30
-0.0000000000000416
 10
-30.00230568546869
 20
195.373849434707
 30
-0.0000000000000416
  0
LINE
  5
6F
330
1F
100
AcDbEntity
  8
0
 62
    98
420
   346117
370
    -3
100
AcDbLine
 10
-30.01336384275428
 20
193.5712693759056
 30
0.0000000000000139
 11
-27.86664646406404
 21
195.7884038477178
 31
0.0000000000000052
  0
SPLINE
  5
70
330
1F
100
AcDbEntity
  8
0
 62
    98
420
   346117
370
    -3
100
AcDbSpline
210
0.0
220
0.0
230
1.0
 70
     8
 71
     3
 72
    11
 73
     7
 74
     0
 42
0.000000001
 43
0.00000001
 40
-0.5000000000000001
 40
-0.5000000000000001
 40
-0.5000000000000001
 40
-0.5000000000000001
 40
-0.4239550010522275
 40
-0.4239550010522275
 40
-0.4239550010522275
 40
-0.3518643770773014
 40
-0.3518643770773014
 40
-0.3518643770773014
 40
-0.3518643770773014
 10
-17.00936101908362
 20
196.9252095991692
 30
-0.0000000000000278
 10
-16.92987292812783
 20
196.9103784117098
 30
-0.0000000000000347
 10
-16.85536635889674
 20
196.8924186568363
 30
-0.0000000000000278
 10
-16.78670910145839
 20
196.8710884889956
 30
-0.0000000000000278
 10
-16.72162205303148
 20
196.8508674997075
 30
-0.0000000000000278
 10
-16.66182783541451
 20
196.8276605067998
 30
-0.0000000000000278
 10
-16.60758356362461
 20
196.8022570144644
 30
-0.0000000000000347
  0
SPLINE
  5
71
330
1F
100
AcDbEntity
  8
0
 62
    98
420
   346117
370
    -3
100
AcDbSpline
210
0.0
220
0.0
230
1.0
 70
     8
 71
     3
 72
    11
 73
     7
 74
     0
 42
0.000000001
 43
0.00000001
 40
-0.3518643770773014
 40
-0.3518643770773014
 40
-0.3518643770773014
 40
-0.3518643770773014
 40
-0.2093980341140215
 40
-0.2093980341140215
 40
-0.2093980341140215
 40
0.0
 40
0.0
 40
0.0
 40
0.0
 10
-16.60758356362461
 20
196.8022570144644
 30
-0.0000000000000347
 10
-16.50075235339415
 20
196.751553481378
 30
-0.0000000000000347
 10
-16.41595420587955
 20
196.6917827735489
 30
-0.0000000000000347
 10
-16.35624841679896
 20
196.6275711295744
 30
-0.0000000000000208
 10
-16.2684924275691
 20
196.5331924030919
 30
-0.0000000000000278
 10
-16.23487710826801
 20
196.4297786588163
 30
-0.0000000000000278
 10
-16.25531376418187
 20
196.341060444815
 30
-0.0000000000000347
  0
SPLINE
  5
72
330
1F
100
AcDbEntity
  8
0
 62
    98
420
   346117
370
    -3
100
AcDbSpline
210
0.0
220
0.0
230
1.0
 70
     8
 71
     3
 72
    17
 73
    13
 74
     0
 42
0.000000001
 43
0.00000001
 40
-1.0
 40
-1.0
 40
-1.0
 40
-1.0
 40
-0.9214235960109003
 40
-0.9214235960109003
 40
-0.9214235960109003
 40
-0.8083756956165981
 40
-0.8083756956165981
 40
-0.8083756956165981
 40
-0.6478845998329303
 40
-0.6478845998329303
 40
-0.6478845998329303
 40
-0.5000000000000001
 40
-0.5000000000000001
 40
-0.5000000000000001
 40
-0.5000000000000001
 10
-19.00059661406503
 20
196.8470119543936
 30
-0.0000000000000278
 10
-18.88632290593385
 20
196.8606562577592
 30
-0.0000000000000347
 10
-18.77188679380456
 20
196.8749930394929
 30
-0.0000000000000278
 10
-18.65800888337033
 20
196.8888129646776
 30
-0.0000000000000278
 10
-18.4941726930852
 20
196.908695695961
 30
-0.0000000000000347
 10
-18.33147725777402
 20
196.9274701140181
 30
-0.0000000000000416
 10
-18.17242381196421
 20
196.9419890399433
 30
-0.0000000000000278
 10
-17.94661986764371
 20
196.9626011727048
 30
-0.0000000000000278
 10
-17.72816141745749
 20
196.9744063312079
 30
-0.0000000000000347
 10
-17.52510284080799
 20
196.9715166010566
 30
-0.0000000000000278
 10
-17.3379944146126
 20
196.968853857775
 30
-0.0000000000000347
 10
-17.16415644701996
 20
196.9533018509425
 30
-0.0000000000000278
 10
-17.00936101908362
 20
196.9252095991692
 30
-0.0000000000000278
  0
ELLIPSE
  5
73
330
1F
100
AcDbEntity
  8
0
 62
    98
420
   346117
370
    -3
100
AcDbEllipse
 10
-26.07970432895907
 20
173.8417692971629
 30
-0.0000000000000069
 11
29.27455333551193
 21
4.391762108952225
 31
-1.232436902257608E-15
210
-4.117262709087146E-17
220
-6.176708539711938E-18
230
-1.0
 40
0.2763133796977341
 41
6.223512424530413
 42
6.391622941849959
  0
LINE
  5
74
330
1F
100
AcDbEntity
  8
0
 62
    98
420
   346117
370
    -3
100
AcDbLine
 10
2.085974036100658
 20
180.180741897298
 30
0.0
 11
3.154233568065294
 21
177.3323072674463
 31
-0.0000000000000005
  0
ELLIPSE
  5
75
330
1F
100
AcDbEntity
  8
0
 62
    98
420
   346117
370
    -3
100
AcDbEllipse
 10
-26.07970432895907
 20
173.8417692971629
 30
-0.0000000000000069
 11
26.80998671860868
 21
4.02202836240948
 31
-1.128680482409550E-15
210
-4.117262709087144E-17
220
-6.176708539711935E-18
230
-1.0
 40
0.2763133796977341
 41
3.250030288260165
 42
3.275025798259422
  0
LINE
  5
76
330
1F
100
AcDbEntity
  8
0
 62
    98
420
   346117
370
    -3
100
AcDbLine
 10
-52.84900877243845
 20
170.8564898487328
 30
0.0000000000000069
 11
-52.85249494233838
 21
170.6450927996171
 31
0.0000000000000086
  0
ELLIPSE
  5
77
330
1F
100
AcDbEntity
  8
0
 62
    98
420
   346117
370
    -3
100
AcDbEllipse
 10
-29.22963585860401
 20
194.8385437763255
 30
-0.0000000000000069
 11
26.64713393527605
 21
3.997597223359099
 31
-1.121824501465477E-15
210
-4.117262709087145E-17
220
-6.176708539711937E-18
230
-1.0
 40
0.2763133796977341
 41
5.620891598889879
 42
11.56607871804571
  0
ELLIPSE
  5
78
330
1F
100
AcDbEntity
  8
0
 62
    98
420
   346117
370
    -3
100
AcDbEllipse
 10
-26.86391407150699
 20
179.0691448618936
 30
0.0
 11
30.68747328116687
 21
4.603728051154421
 31
-1.291919780134642E-15
210
-4.117262709087146E-17
220
-6.176708539711937E-18
230
-1.0
 40
0.2763133796977341
 41
6.212296440337442
 42
9.495704599898911
  0
ELLIPSE
  5
79
330
1F
100
AcDbEntity
  8
0
 62
    98
420
   346117
370
    -3
100
AcDbEllipse
 10
-36.71290029036007
 20
197.8148662409207
 30
0.0
 11
-3.316983739137342
 21
-0.4976131773762315
 31
1.396425461201591E-16
210
4.117262709087145E-17
220
6.176708539711936E-18
230
1.0
 40
0.2763133796977341
 41
0.0
 42
6.283185307179586
  0
ELLIPSE
  5
7A
330
1F
100
AcDbEntity
  8
0
 62
    98
420
   346117
370
    -3
100
AcDbEllipse
 10
-36.14256593214341
 20
194.0131385574801
 30
0.0
 11
3.316983739137342
 21
0.4976131773762315
 31
-1.396425461201591E-16
210
-4.117262709087145E-17
220
-6.176708539711936E-18
230
-1.0
 40
0.2763133796977341
 41
0.0000326341709413
 42
3.141625287760737
  0
SPLINE
  5
7B
330
1F
100
AcDbEntity
  8
0
 62
    98
420
   346117
370
    -3
100
AcDbSpline
210
0.0
220
0.0
230
1.0
 70
     8
 71
     3
 72
     8
 73
     4
 74
     0
 42
0.000000001
 43
0.00000001
 40
0.0
 40
0.0
 40
0.0
 40
0.0
 40
0.0765017363079246
 40
0.0765017363079246
 40
0.0765017363079246
 40
0.0765017363079246
 10
-31.47131779063798
 20
194.1543130294721
 30
-0.0000000000000347
 10
-31.47892096622187
 20
194.1213066432324
 30
-0.0000000000000347
 10
-31.47066183099747
 20
194.0906457858334
 30
-0.0000000000000208
 10
-31.453711458638
 20
194.0613054881767
 30
-0.0000000000000347
  0
SPLINE
  5
7C
330
1F
100
AcDbEntity
  8
0
 62
    98
420
   346117
370
    -3
100
AcDbSpline
210
0.0
220
0.0
230
1.0
 70
     8
 71
     3
 72
    23
 73
    19
 74
     0
 42
0.000000001
 43
0.00000001
 40
0.0765017363079246
 40
0.0765017363079246
 40
0.0765017363079246
 40
0.0765017363079246
 40
0.2093980341140169
 40
0.2093980341140169
 40
0.2093980341140169
 40
0.4239550010522323
 40
0.4239550010522323
 40
0.4239550010522323
 40
0.6478845998329326
 40
0.6478845998329326
 40
0.6478845998329326
 40
0.8083756956166082
 40
0.8083756956166082
 40
0.8083756956166082
 40
0.9214235960109046
 40
0.9214235960109046
 40
0.9214235960109046
 40
1.0
 40
1.0
 40
1.0
 40
1.0
 10
-31.453711458638
 20
194.0613054881767
 30
-0.0000000000000347
 10
-31.4242658297971
 20
194.0103364889973
 30
-0.0000000000000278
 10
-31.36859222477978
 20
193.9633526082679
 30
-0.0000000000000278
 10
-31.3242838142047
 20
193.914980614594
 30
-0.0000000000000278
 10
-31.25274925425246
 20
193.8368855252743
 30
-0.0000000000000347
 10
-31.1255071439148
 20
193.7667820268278
 30
-0.0000000000000278
 10
-30.93994417521093
 20
193.7135962268854
 30
-0.0000000000000278
 10
-30.74627513838875
 20
193.6580870769758
 30
-0.0000000000000347
 10
-30.5287660079598
 20
193.6173869407528
 30
-0.0000000000000278
 10
-30.22619772785091
 20
193.588330310505
 30
-0.0000000000000347
 10
-30.00934602495649
 20
193.5675053259847
 30
-0.0000000000000208
 10
-29.76587567553259
 20
193.5557747619779
 30
-0.0000000000000347
 10
-29.53975212132037
 20
193.5627551788704
 30
-0.0000000000000347
 10
-29.38047354634046
 20
193.5676720963462
 30
-0.0000000000000278
 10
-29.16752559246546
 20
193.5738620485513
 30
-0.0000000000000347
 10
-28.95253596802331
 20
193.5839051204932
 30
-0.0000000000000278
 10
-28.8031027496733
 20
193.5908857762634
 30
-0.0000000000000347
 10
-28.65694309887395
 20
193.600287248546
 30
-0.0000000000000347
 10
-28.54057530115853
 20
193.6141815866224
 30
-0.0000000000000278
  0
LINE
  5
7D
330
1F
100
AcDbEntity
  8
0
 62
    98
420
   346117
370
    -3
100
AcDbLine
 10
-31.2739705721645
 20
195.0110232874947
 30
0.0
 11
-31.47131779063797
 21
194.1543130294722
 31
0.0000000000000011
  0
SPLINE
  5
7E
330
1F
100
AcDbEntity
  8
0
 62
    98
420
   346117
370
    -3
100
AcDbSpline
210
0.0
220
0.0
230
1.0
 70
     8
 71
     3
 72
    23
 73
    19
 74
     0
 42
0.000000001
 43
0.00000001
 40
0.0
 40
0.0
 40
0.0
 40
0.0
 40
0.2093980341140242
 40
0.2093980341140242
 40
0.2093980341140242
 40
0.4239550010522307
 40
0.4239550010522307
 40
0.4239550010522307
 40
0.6478845998329266
 40
0.6478845998329266
 40
0.6478845998329266
 40
0.8083756956165903
 40
0.8083756956165903
 40
0.8083756956165903
 40
0.9214235960108965
 40
0.9214235960108965
 40
0.9214235960108965
 40
1.0
 40
1.0
 40
1.0
 40
1.0
 10
-27.92157043620091
 20
196.3013632032525
 30
-0.0000000000000278
 10
-28.23167864730165
 20
196.2643362214768
 30
-0.0000000000000278
 10
-28.53776721745111
 20
196.1943462572041
 30
-0.0000000000000347
 10
-28.84223603557866
 20
196.1325386162598
 30
-0.0000000000000208
 10
-29.15420604246581
 20
196.0692082223967
 30
-0.0000000000000278
 10
-29.46516322443121
 20
195.990305759581
 30
-0.0000000000000347
 10
-29.74474171889179
 20
195.8992946067015
 30
-0.0000000000000347
 10
-30.03653322296493
 20
195.8043077543066
 30
-0.0000000000000347
 10
-30.28751153419845
 20
195.7082424811268
 30
-0.0000000000000278
 10
-30.53892443433038
 20
195.5881263777761
 30
-0.0000000000000278
 10
-30.71911290452828
 20
195.5020387629499
 30
-0.0000000000000347
 10
-30.88011201134775
 20
195.4110978578279
 30
-0.0000000000000278
 10
-30.96626366273573
 20
195.3354030868332
 30
-0.0000000000000208
 10
-31.02694779762408
 20
195.2820846463926
 30
-0.0000000000000208
 10
-31.10944016145892
 20
195.2106122022937
 30
-0.0000000000000347
 10
-31.17927260093565
 20
195.1403151350505
 30
-0.0000000000000347
 10
-31.22781115810238
 20
195.0914536282406
 30
-0.0000000000000278
 10
-31.26616120436302
 20
195.044924781298
 30
-0.0000000000000347
 10
-31.2739705721645
 20
195.0110232874946
 30
-0.0000000000000278
  0
LINE
  5
7F
330
1F
100
AcDbEntity
  8
0
 62
    98
420
   346117
370
    -3
100
AcDbLine
 10
-19.05552058620189
 20
197.3599713099283
 30
-0.0000000000000069
 11
-27.92157043620091
 21
196.3013632032525
 31
-0.0000000000000081
  0
SPLINE
  5
80
330
1F
100
AcDbEntity
  8
0
 62
    98
420
   346117
370
    -3
100
AcDbSpline
210
0.0
220
0.0
230
1.0
 70
     8
 71
     3
 72
    23
 73
    19
 74
     0
 42
0.000000001
 43
0.00000001
 40
-0.0000000000000155
 40
-0.0000000000000155
 40
-0.0000000000000155
 40
-0.0000000000000155
 40
0.2093980341140167
 40
0.2093980341140167
 40
0.2093980341140167
 40
0.4239550010522208
 40
0.4239550010522208
 40
0.4239550010522208
 40
0.6478845998329206
 40
0.6478845998329206
 40
0.6478845998329206
 40
0.8083756956165615
 40
0.8083756956165615
 40
0.8083756956165615
 40
0.9214235960108823
 40
0.9214235960108823
 40
0.9214235960108823
 40
1.0
 40
1.0
 40
1.0
 40
1.0
 10
-16.12477809672246
 20
196.8198398670786
 30
-0.0000000000000347
 10
-16.10396693481779
 20
196.910183860893
 30
-0.0000000000000278
 10
-16.20199753187577
 20
196.9829549565028
 30
-0.0000000000000347
 10
-16.27181207315572
 20
197.0591722819566
 30
-0.0000000000000208
 10
-16.34334663310796
 20
197.1372673712763
 30
-0.0000000000000347
 10
-16.47058874344562
 20
197.2073708697229
 30
-0.0000000000000347
 10
-16.65615171214949
 20
197.2605566696653
 30
-0.0000000000000208
 10
-16.84982074897167
 20
197.3160658195749
 30
-0.0000000000000347
 10
-17.06732987940059
 20
197.3567659557979
 30
-0.0000000000000278
 10
-17.36989815950946
 20
197.3858225860456
 30
-0.0000000000000347
 10
-17.58674986240382
 20
197.4066475705659
 30
-0.0000000000000278
 10
-17.83022021182767
 20
197.4183781345728
 30
-0.0000000000000347
 10
-18.05634376603984
 20
197.4113977176804
 30
-0.0000000000000347
 10
-18.2156223410198
 20
197.4064808002045
 30
-0.0000000000000278
 10
-18.42857029489478
 20
197.4002908479994
 30
-0.0000000000000347
 10
-18.64355991933699
 20
197.3902477760575
 30
-0.0000000000000278
 10
-18.79299313768704
 20
197.3832671202873
 30
-0.0000000000000278
 10
-18.93915278848644
 20
197.3738656480047
 30
-0.0000000000000347
 10
-19.05552058620189
 20
197.3599713099283
 30
-0.0000000000000278
  0
LINE
  5
81
330
1F
100
AcDbEntity
  8
0
 62
    98
420
   346117
370
    -3
100
AcDbLine
 10
-16.12477809672248
 20
196.8198398670786
 30
0.0
 11
-16.32212531519595
 21
195.9631296090561
 31
0.0000000000000014
  0
SPLINE
  5
82
330
1F
100
AcDbEntity
  8
0
 62
    98
420
   346117
370
    -3
100
AcDbSpline
210
0.0
220
0.0
230
1.0
 70
     8
 71
     3
 72
    35
 73
    31
 74
     0
 42
0.000000001
 43
0.00000001
 40
0.0
 40
0.0
 40
0.0
 40
0.0
 40
0.125
 40
0.125
 40
0.125
 40
0.2014766406301153
 40
0.2014766406301153
 40
0.2014766406301153
 40
0.2551554890866498
 40
0.2551554890866498
 40
0.2551554890866498
 40
0.4413666168149873
 40
0.4413666168149873
 40
0.4413666168149873
 40
0.5041513776913592
 40
0.5041513776913592
 40
0.5041513776913592
 40
0.5586952542048204
 40
0.5586952542048204
 40
0.5586952542048204
 40
0.7793476271024102
 40
0.7793476271024102
 40
0.7793476271024102
 40
0.8074574671451992
 40
0.8074574671451992
 40
0.8074574671451992
 40
0.8281800335761859
 40
0.8281800335761859
 40
0.8281800335761859
 40
0.997924804687502
 40
0.997924804687502
 40
0.997924804687502
 40
0.997924804687502
 10
-19.67452545115952
 20
194.6727896932982
 30
-0.0000000000000278
 10
-19.48940658625898
 20
194.6948929224022
 30
-0.0000000000000347
 10
-19.30572011402183
 20
194.7287424579214
 30
-0.0000000000000347
 10
-19.12295552547366
 20
194.7655857915114
 30
-0.0000000000000278
 10
-19.01113775140717
 20
194.7881270265721
 30
-0.0000000000000347
 10
-18.89966505251028
 20
194.8117888860558
 30
-0.0000000000000208
 10
-18.78842051660537
 20
194.8345669491565
 30
-0.0000000000000347
 10
-18.71033813046423
 20
194.8505548401941
 30
-0.0000000000000347
 10
-18.63226708481053
 20
194.8654895100459
 30
-0.0000000000000208
 10
-18.55465543175138
 20
194.882436818137
 30
-0.0000000000000347
 10
-18.28542176045332
 20
194.9412267780998
 30
-0.0000000000000347
 10
-18.02199421096895
 20
195.0173388360228
 30
-0.0000000000000347
 10
-17.78392264833095
 20
195.0971342722623
 30
-0.0000000000000278
 10
-17.70365211716539
 20
195.1240388801901
 30
-0.0000000000000347
 10
-17.62626414195421
 20
195.1513622272568
 30
-0.0000000000000278
 10
-17.55250808114275
 20
195.1785815328841
 30
-0.0000000000000347
 10
-17.48843295499963
 20
195.202228137955
 30
-0.0000000000000347
 10
-17.42844994870037
 20
195.2251343550898
 30
-0.0000000000000278
 10
-17.36580511784973
 20
195.250448885563
 30
-0.0000000000000416
 10
-17.11238105889879
 20
195.352856553935
 30
-0.0000000000000347
 10
-16.83676305813037
 20
195.4855516074829
 30
-0.0000000000000278
 10
-16.68359540569827
 20
195.596299647381
 30
-0.0000000000000208
 10
-16.66408272993115
 20
195.6104083090995
 30
-0.0000000000000208
 10
-16.6465573364851
 20
195.6241607863495
 30
-0.0000000000000347
 10
-16.63131828004528
 20
195.6374490835672
 30
-0.0000000000000278
 10
-16.62008405178432
 20
195.6472452126604
 30
-0.0000000000000278
 10
-16.61027200029143
 20
195.6567169800186
 30
-0.0000000000000278
 10
-16.59865228099729
 20
195.6672398834064
 30
-0.0000000000000278
 10
-16.50347166721903
 20
195.7534361483785
 30
-0.0000000000000347
 10
-16.34313192512299
 20
195.8857563074683
 30
-0.0000000000000347
 10
-16.32280757908575
 20
195.9604173709701
 30
-0.0000000000000278
  0
SPLINE
  5
83
330
1F
100
AcDbEntity
  8
0
 62
    98
420
   346117
370
    -3
100
AcDbSpline
210
-3.656466654941250E-10
220
9.197847253580340E-11
230
-1.0
 70
     8
 71
     3
 72
     8
 73
     4
 74
     0
 42
0.000000001
 43
0.00000001
 40
0.997924804687502
 40
0.997924804687502
 40
0.997924804687502
 40
0.997924804687502
 40
1.000000000000002
 40
1.000000000000002
 40
1.000000000000002
 40
1.000000000000002
 10
-16.32280757908575
 20
195.9604173709701
 30
-0.0000000000000278
 10
-16.32255910611455
 20
195.9613301312749
 30
-0.0000000000000347
 10
-16.32233155985251
 20
195.9622342738479
 30
-0.0000000000000347
 10
-16.32212531519593
 20
195.963129609056
 30
-0.0000000000000278
  0
LINE
  5
84
330
1F
100
AcDbEntity
  8
0
 62
    98
420
   346117
370
    -3
100
AcDbLine
 10
-28.54057530115853
 20
193.6141815866224
 30
-0.0000000000000069
 11
-19.67452545115952
 21
194.6727896932982
 31
-0.0000000000000051
  0
LINE
  5
85
330
1F
100
AcDbEntity
  8
0
 62
    98
420
   346117
370
    -3
100
AcDbLine
 10
-24.21899632934913
 20
199.9135128806179
 30
0.0
 11
-34.05047861089675
 21
198.7396319505566
 31
-0.0000000000000015
  0
LINE
  5
86
330
1F
100
AcDbEntity
  8
0
 62
    98
420
   346117
370
    -3
100
AcDbLine
 10
-24.55036938339496
 20
198.474978824606
 30
0.0
 11
-24.21899632934913
 21
199.9135128806179
 31
0.0000000000000038
  0
LINE
  5
87
330
1F
100
AcDbEntity
  8
0
 62
    98
420
   346117
370
    -3
100
AcDbLine
 10
-33.26421690467588
 20
197.4345437060998
 30
-0.0000000000000069
 11
-24.55036938339495
 21
198.474978824606
 31
-0.000000000000008
  0
LINE
  5
88
330
1F
100
AcDbEntity
  8
0
 62
    98
420
   346117
370
    -3
100
AcDbLine
 10
0.6930862844215547
 20
177.0384457947133
 30
-0.0000000000000069
 11
0.1591274747701161
 21
178.690037531365
 31
-0.0000000000000041
  0
LINE
  5
89
330
1F
100
AcDbEntity
  8
0
 62
    98
420
   346117
370
    -3
100
AcDbLine
 10
-55.31364222598345
 20
170.3512313268795
 30
0.0000000000000069
 11
-55.22013015634825
 21
171.8189648711393
 31
-0.0000000000000017
  0
LINE
  5
8A
330
1F
100
AcDbEntity
  8
0
 62
    98
420
   346117
370
    -3
100
AcDbLine
 10
-52.852494942338
 20
170.6450927996063
 30
0.0000000000000069
 11
-55.31364222598344
 21
170.3512313268795
 31
0.0000000000000063
  0
LINE
  5
8B
330
1F
100
AcDbEntity
  8
0
 62
    98
420
   346117
370
    -3
100
AcDbLine
 10
3.154233568065292
 20
177.3323072674463
 30
0.0000000000000069
 11
0.6930862844198469
 21
177.0384457947195
 31
0.0000000000000063
  0
LINE
  5
8C
330
1F
100
AcDbEntity
  8
0
 62
    98
420
   346117
370
    -3
100
AcDbLine
 10
-16.25531376418185
 20
196.3410604448151
 30
-0.0000000000000069
 11
-16.35680886774131
 21
195.9004568374725
 31
0.0000000000000013
  0
LINE
  5
8D
330
1F
100
AcDbEntity
  8
0
 62
    98
420
   346117
370
    -3
100
AcDbLine
 10
-19.00059661406505
 20
196.8470119543936
 30
0.0
 11
-16.56384350765414
 21
195.6987088756301
 31
0.0000000000000124
  0
LINE
  5
8E
330
1F
100
AcDbEntity
  8
0
 62
    98
420
   346117
370
    -3
100
AcDbLine
 10
-27.86664646406404
 20
195.7884038477178
 30
0.0
 11
-19.00059661406504
 21
196.8470119543937
 31
-0.000000000000001
  0
LINE
  5
8F
330
1F
100
AcDbEntity
  8
0
 62
    98
420
   346117
370
    -3
100
AcDbLine
 10
-31.1840663154698
 20
193.8106333064357
 30
0.0
 11
-31.00690414014583
 21
194.5797176345941
 31
-0.0000000000000004
  0
LINE
  5
90
330
1F
100
AcDbEntity
  8
0
 62
    98
420
   346117
370
    -3
100
AcDbLine
 10
-31.3529731816094
 20
193.9631894259608
 30
-0.0000000000000069
 11
-31.47131779063798
 21
194.1543130294721
 31
-0.0000000000000032
  0
LINE
  5
91
330
1F
100
AcDbEntity
  8
0
 62
    98
420
   346117
370
    -3
100
AcDbLine
 10
-16.32289147872969
 20
195.9603194703316
 30
-0.0000000000000069
 11
-16.32212531519594
 21
195.9631296090561
 31
-0.0000000000000016
  0
LINE
  5
92
330
1F
100
AcDbEntity
  8
0
 62
    98
420
   346117
370
    -3
100
AcDbLine
 10
-16.25531376418186
 20
196.3410604448151
 30
-0.0000000000000069
 11
-16.12477809672246
 21
196.8198398670786
 31
-0.0000000000000016
  0
LINE
  5
93
330
1F
100
AcDbEntity
  8
0
 62
    98
420
   346117
370
    -3
100
AcDbLine
 10
-19.00059661406504
 20
196.8470119543936
 30
0.0000000000000069
 11
-19.0555205862019
 21
197.3599713099283
 31
0.0000000000000054
  0
LINE
  5
94
330
1F
100
AcDbEntity
  8
0
 62
    98
420
   346117
370
    -3
100
AcDbLine
 10
-27.86664646406404
 20
195.7884038477178
 30
0.0
 11
-27.92157043620091
 21
196.3013632032525
 31
-0.0000000000000089
  0
LINE
  5
95
330
1F
100
AcDbEntity
  8
0
 62
    98
420
   346117
370
    -3
100
AcDbLine
 10
-31.00690414014583
 20
194.5797176345941
 30
0.0
 11
-31.2739705721645
 21
195.0110232874947
 31
-0.0000000000000037
  0
LINE
  5
96
330
1F
100
AcDbEntity
  8
0
 62
    98
420
   346117
370
    -3
100
AcDbLine
 10
-15.76859846429048
 20
203.1164222284087
 30
0.0
 11
-14.77051343939505
 21
196.4633994621897
 31
0.0000000000000101
  0
LINE
  5
97
330
1F
100
AcDbEntity
  8
0
 62
    98
420
   346117
370
    -3
100
AcDbLine
 10
-8.136545961120369
 20
197.4586258169421
 30
0.0
 11
-9.134630986015805
 21
204.1116485831611
 31
0.0000000000000052
  0
LINE
  5
98
330
1F
100
AcDbEntity
  8
0
 62
    98
420
   346117
370
    -3
100
AcDbLine
 10
3.070506473934874
 20
178.7077665344171
 30
0.0
 11
2.397811508502667
 21
180.4858036993764
 31
-0.0000000000000071
  0
LINE
  5
99
330
1F
100
AcDbEntity
  8
0
 62
    98
420
   346117
370
    -3
100
AcDbLine
 10
3.656501593118588
 20
184.2616248346322
 30
0.0
 11
-2.727562435571299
 21
199.3473722435971
 31
0.0000000000000009
  0
LINE
  5
9A
330
1F
100
AcDbEntity
  8
0
 62
    98
420
   346117
370
    -3
100
AcDbLine
 10
-55.88810844645869
 20
191.3722384418484
 30
0.0
 11
-57.56444455274257
 21
175.0772716220509
 31
0.0000000000000073
  0
LINE
  5
9B
330
1F
100
AcDbEntity
  8
0
 62
    98
420
   346117
370
    -3
100
AcDbLine
 10
-32.82558193804673
 20
194.5107500353517
 30
0.0
 11
-33.39591745207901
 21
198.3124854232136
 31
-0.0000000000000038
  0
LINE
  5
9C
330
1F
100
AcDbEntity
  8
0
 62
    98
420
   346117
370
    -3
100
AcDbLine
 10
-40.0298849303537
 20
197.317259068461
 30
0.0
 11
-39.45954941632142
 21
193.5155236805992
 31
0.0000000000000053
  0
ELLIPSE
  5
9F
330
1F
100
AcDbEntity
  8
Hidden
370
    -3
100
AcDbEllipse
 10
-11.45352995521703
 20
196.9610143390706
 30
0.0
 11
-3.316983739137342
 21
-0.4976131773762315
 31
1.396425461201591E-16
210
4.117262709087145E-17
220
6.176708539711936E-18
230
1.0
 40
0.2763133796977341
 41
3.141560019418851
 42
6.283152673008647
  0
ELLIPSE
  5
A0
330
1F
100
AcDbEntity
  8
Hidden
370
    -3
100
AcDbEllipse
 10
-29.39774202646838
 20
190.3516506152575
 30
-0.0000000000000069
 11
-5.583859873298148
 21
0.04815962800415937
 31
-5.928329602088579E-15
210
-1.061611282976371E-15
220
9.156176127851467E-18
230
1.0
 40
0.2631581256589751
 41
5.165579408940983
 42
6.22501667787146
  0
LINE
  5
A1
330
1F
100
AcDbEntity
  8
Hidden
370
    -3
100
AcDbLine
 10
-31.8311633522765
 20
191.6938420091676
 30
0.0
 11
-30.01336384275428
 21
193.5712693759056
 31
0.0000000000000097
  0
ELLIPSE
  5
A2
330
1F
100
AcDbEntity
  8
Hidden
370
    -3
100
AcDbEllipse
 10
-16.07657358836501
 20
191.9422007630182
 30
-0.0000000000000069
 11
5.950944606792912
 21
1.67004768015496
 31
1.586863511854639E-15
210
-2.321906740164674E-16
220
-1.228166566775503E-16
230
1.0
 40
0.2147943758269134
 41
6.166375855630266
 42
7.225813124560727
  0
LINE
  5
A3
330
1F
100
AcDbEntity
  8
Hidden
370
    -3
100
AcDbLine
 10
-10.1243752211796
 20
193.4518979826365
 30
0.0000000000000069
 11
-16.25531376418185
 21
196.3410604448151
 31
-0.0000000000000038
  0
SPLINE
  5
A4
330
1F
100
AcDbEntity
  8
Hidden
370
    -3
100
AcDbSpline
210
0.0
220
0.0
230
1.0
 70
     8
 71
     3
 72
    14
 73
    10
 74
     0
 42
0.000000001
 43
0.00000001
 40
-0.5000000000000004
 40
-0.5000000000000004
 40
-0.5000000000000004
 40
-0.5000000000000004
 40
-0.4239550010522319
 40
-0.4239550010522319
 40
-0.4239550010522319
 40
-0.2093980341140203
 40
-0.2093980341140203
 40
-0.2093980341140203
 40
0.0
 40
0.0
 40
0.0
 40
0.0
 10
-17.48366148520716
 20
194.8662088295815
 30
-0.0000000000000278
 10
-17.57470107273929
 20
194.831058795278
 30
-0.0000000000000278
 10
-17.67004477634185
 20
194.7955904455871
 30
-0.0000000000000278
 10
-17.76895481308911
 20
194.7598469605554
 30
-0.0000000000000208
 10
-18.04802428219137
 20
194.6589985965299
 30
-0.0000000000000347
 10
-18.35491437967272
 20
194.5563721620372
 30
-0.0000000000000347
 10
-18.6689374372299
 20
194.4686377198935
 30
-0.0000000000000347
 10
-18.97540994127999
 20
194.3830128158359
 30
-0.0000000000000278
 10
-19.28839098097639
 20
194.3120246386593
 30
-0.0000000000000347
 10
-19.59291865873712
 20
194.2756639736688
 30
-0.0000000000000278
  0
SPLINE
  5
A5
330
1F
100
AcDbEntity
  8
Hidden
370
    -3
100
AcDbSpline
210
-1.978799763904885E-10
220
5.047017852798259E-11
230
-1.0
 70
     8
 71
     3
 72
     8
 73
     4
 74
     0
 42
0.000000001
 43
0.00000001
 40
-1.0
 40
-1.0
 40
-1.0
 40
-1.0
 40
-0.9932983085372542
 40
-0.9932983085372542
 40
-0.9932983085372542
 40
-0.9932983085372542
 10
-16.45266098265534
 20
195.4843501867925
 30
-0.0000000000000278
 10
-16.4533150487885
 20
195.4815107995945
 30
-0.0000000000000416
 10
-16.45402488049898
 20
195.4786823275337
 30
-0.0000000000000208
 10
-16.45479025081791
 20
195.4758644147954
 30
-0.0000000000000347
  0
SPLINE
  5
A6
330
1F
100
AcDbEntity
  8
Hidden
370
    -3
100
AcDbSpline
210
0.0
220
0.0
230
1.0
 70
     8
 71
     3
 72
    17
 73
    13
 74
     0
 42
0.000000001
 43
0.00000001
 40
-0.9932983085372542
 40
-0.9932983085372542
 40
-0.9932983085372542
 40
-0.9932983085372542
 40
-0.9214235960108961
 40
-0.9214235960108961
 40
-0.9214235960108961
 40
-0.8083756956165892
 40
-0.8083756956165892
 40
-0.8083756956165892
 40
-0.6478845998329277
 40
-0.6478845998329277
 40
-0.6478845998329277
 40
-0.5000000000000004
 40
-0.5000000000000004
 40
-0.5000000000000004
 40
-0.5000000000000004
 10
-16.45479025081791
 20
195.4758644147954
 30
-0.0000000000000347
 10
-16.46300159960527
 20
195.4456409359822
 30
-0.0000000000000278
 10
-16.47762894158595
 20
195.4166149506322
 30
-0.0000000000000347
 10
-16.49869324403098
 20
195.3881627197279
 30
-0.0000000000000208
 10
-16.53182416144239
 20
195.3434117238324
 30
-0.0000000000000278
 10
-16.58091858733821
 20
195.300043469568
 30
-0.0000000000000347
 10
-16.64540418188001
 20
195.256115819158
 30
-0.0000000000000278
 10
-16.73695266437438
 20
195.193752902864
 30
-0.0000000000000208
 10
-16.85966230971313
 20
195.1300698876426
 30
-0.0000000000000347
 10
-17.00899640481102
 20
195.0623945876402
 30
-0.0000000000000278
 10
-17.14660038082683
 20
195.0000351488779
 30
-0.0000000000000278
 10
-17.30687178614481
 20
194.9339937524355
 30
-0.0000000000000278
 10
-17.48366148520716
 20
194.8662088295815
 30
-0.0000000000000278
  0
ELLIPSE
  5
A7
330
1F
100
AcDbEntity
  8
Hidden
370
    -3
100
AcDbEllipse
 10
-16.57290093997456
 20
189.7875783834878
 30
0.0000000000000069
 11
5.583859873298151
 21
-0.04815962800419785
 31
-5.075890051461467E-15
210
9.084825402672005E-16
220
-6.334868847425143E-17
230
1.0
 40
0.2631581256589736
 41
5.165579408940982
 42
6.225016677871468
  0
LINE
  5
A8
330
1F
100
AcDbEntity
  8
Hidden
370
    -3
100
AcDbLine
 10
-14.13947961416644
 20
188.4453869895777
 30
0.0
 11
-19.59291865873713
 21
194.2756639736689
 31
-0.0000000000000027
  0
SPLINE
  5
A9
330
1F
100
AcDbEntity
  8
Hidden
370
    -3
100
AcDbSpline
210
0.0
220
0.0
230
1.0
 70
     8
 71
     3
 72
    14
 73
    10
 74
     0
 42
0.000000001
 43
0.00000001
 40
-0.4999999999999994
 40
-0.4999999999999994
 40
-0.4999999999999994
 40
-0.4999999999999994
 40
-0.4239550010522323
 40
-0.4239550010522323
 40
-0.4239550010522323
 40
-0.2093980341140169
 40
-0.2093980341140169
 40
-0.2093980341140169
 40
-0.1186300034607266
 40
-0.1186300034607266
 40
-0.1186300034607266
 40
-0.1186300034607266
 10
-30.47660615159224
 20
193.3148486651193
 30
-0.0000000000000347
 10
-30.55605214582713
 20
193.3293992447793
 30
-0.0000000000000208
 10
-30.6301707280474
 20
193.3447727606535
 30
-0.0000000000000347
 10
-30.69800099842619
 20
193.360590408421
 30
-0.0000000000000347
 10
-30.88938054054531
 20
193.4052190700824
 30
-0.0000000000000208
 10
-31.03045699179241
 20
193.4534998744811
 30
-0.0000000000000278
 10
-31.11456856926355
 20
193.5114992222308
 30
-0.0000000000000278
 10
-31.15015185677524
 20
193.5360357667651
 30
-0.0000000000000278
 10
-31.17557762955826
 20
193.5623724401522
 30
-0.0000000000000347
 10
-31.1914540165001
 20
193.591638982731
 30
-0.0000000000000347
  0
SPLINE
  5
AA
330
1F
100
AcDbEntity
  8
Hidden
370
    -3
100
AcDbSpline
210
0.0
220
0.0
230
1.0
 70
     8
 71
     3
 72
     8
 73
     4
 74
     0
 42
0.000000001
 43
0.00000001
 40
-0.1186300034607266
 40
-0.1186300034607266
 40
-0.1186300034607266
 40
-0.1186300034607266
 40
0.0
 40
0.0
 40
0.0
 40
0.0
 10
-31.1914540165001
 20
193.591638982731
 30
-0.0000000000000347
 10
-31.21185156315719
 20
193.6297166325483
 30
-0.0000000000000208
 10
-31.21582931144987
 20
193.672745958987
 30
-0.0000000000000347
 10
-31.20425135861929
 20
193.7230073765715
 30
-0.0000000000000278
  0
SPLINE
  5
AB
330
1F
100
AcDbEntity
  8
Hidden
370
    -3
100
AcDbSpline
210
0.0
220
0.0
230
1.0
 70
     8
 71
     3
 72
    17
 73
    13
 74
     0
 42
0.000000001
 43
0.00000001
 40
-1.0
 40
-1.0
 40
-1.0
 40
-1.0
 40
-0.9214235960109046
 40
-0.9214235960109046
 40
-0.9214235960109046
 40
-0.8083756956166082
 40
-0.8083756956166082
 40
-0.8083756956166082
 40
-0.6478845998329326
 40
-0.6478845998329326
 40
-0.6478845998329326
 40
-0.4999999999999994
 40
-0.4999999999999994
 40
-0.4999999999999994
 40
-0.4999999999999994
 10
-28.45896850873613
 20
193.217055866993
 30
-0.0000000000000278
 10
-28.5732422168673
 20
193.2034115636274
 30
-0.0000000000000208
 10
-28.68847770452822
 20
193.1944032493869
 30
-0.0000000000000347
 10
-28.80364333236939
 20
193.1891669749045
 30
-0.0000000000000347
 10
-28.96933216214637
 20
193.1816335449425
 30
-0.0000000000000278
 10
-29.13488274048977
 20
193.1818909038588
 30
-0.0000000000000347
 10
-29.29695766399718
 20
193.1875125064542
 30
-0.0000000000000208
 10
-29.5270511197981
 20
193.195493346058
 30
-0.0000000000000208
 10
-29.75008076863831
 20
193.2141588267843
 30
-0.0000000000000278
 10
-29.95628373682982
 20
193.2380084030339
 30
-0.0000000000000208
 10
-30.14628956417159
 20
193.2599846069014
 30
-0.0000000000000347
 10
-30.32170961052741
 20
193.2860824147095
 30
-0.0000000000000278
 10
-30.47660615159224
 20
193.3148486651193
 30
-0.0000000000000347
  0
ELLIPSE
  5
AC
330
1F
100
AcDbEntity
  8
Hidden
370
    -3
100
AcDbEllipse
 10
-29.89406937807793
 20
188.1970282357271
 30
0.0
 11
-5.950944606792914
 21
-1.670047680154945
 31
1.972857339062524E-15
210
3.223158297786931E-16
220
3.279768045421629E-17
230
1.0
 40
0.2147943758269079
 41
6.166375855630235
 42
7.22581312456072
  0
LINE
  5
AD
330
1F
100
AcDbEntity
  8
Hidden
370
    -3
100
AcDbLine
 10
-35.84626774526333
 20
186.6873310161088
 30
0.0
 11
-31.20425135861931
 21
193.7230073765716
 31
0.0000000000000068
  0
ELLIPSE
  5
AE
330
1F
100
AcDbEntity
  8
Hidden
370
    -3
100
AcDbEllipse
 10
-26.07970432895907
 20
173.8417692971629
 30
-0.0000000000000069
 11
29.27455333551193
 21
4.391762108952225
 31
-1.232436902257608E-15
210
-4.117262709087146E-17
220
-6.176708539711938E-18
230
-1.0
 40
0.2763133796977341
 41
3.250030288260165
 42
6.223512424530414
  0
ELLIPSE
  5
AF
330
1F
100
AcDbEntity
  8
Hidden
370
    -3
100
AcDbEllipse
 10
-26.86391407150699
 20
179.0691448618936
 30
0.0
 11
28.14716916512409
 21
4.222632181503061
 31
-1.184974867954882E-15
210
-4.117262709087145E-17
220
-6.176708539711937E-18
230
-1.0
 40
0.2763133796977341
 41
3.250030288260167
 42
6.391622941849961
  0
LINE
  5
B0
330
1F
100
AcDbEntity
  8
Hidden
370
    -3
100
AcDbLine
 10
1.244203784969533
 20
182.4252596965365
 30
0.0
 11
2.085974036100659
 21
180.180741897298
 31
0.0000000000000035
  0
ELLIPSE
  5
B1
330
1F
100
AcDbEntity
  8
Hidden
370
    -3
100
AcDbEllipse
 10
-28.41690939814527
 20
189.4210818274228
 30
0.0000000000000069
 11
25.5389070517194
 21
3.831341267903674
 31
-1.075168974676881E-15
210
-4.117262709087146E-17
220
-6.176708539711937E-18
230
-1.0
 40
0.2763133796977342
 41
0.0
 42
6.283185307179586
  0
ELLIPSE
  5
B2
330
1F
100
AcDbEntity
  8
Hidden
370
    -3
100
AcDbEllipse
 10
-26.86391407150699
 20
179.0691448618936
 30
0.0
 11
-28.14716916512409
 21
-4.222632181503061
 31
1.184974867954882E-15
210
4.117262709087145E-17
220
6.176708539711937E-18
230
1.0
 40
0.2763133796977341
 41
6.174747672509214
 42
9.316340326099006
  0
LINE
  5
B3
330
1F
100
AcDbEntity
  8
Hidden
370
    -3
100
AcDbLine
 10
-54.49382952178469
 20
180.5616478671799
 30
-0.0000000000000069
 11
-54.97203192798753
 21
175.7130300272388
 31
-0.0000000000000037
  0
ELLIPSE
  5
B4
330
1F
100
AcDbEntity
  8
Hidden
370
    -3
100
AcDbEllipse
 10
-27.57008765614166
 20
183.7763479741426
 30
0.0
 11
26.96114769120449
 21
4.044705498562171
 31
-1.135044246825461E-15
210
-4.117262709087145E-17
220
-6.176708539711937E-18
230
-1.0
 40
0.2763133796977341
 41
3.250030288260167
 42
6.391622941849959
  0
ELLIPSE
  5
B5
330
1F
100
AcDbEntity
  8
Hidden
370
    -3
100
AcDbEllipse
 10
-27.28738733248286
 20
181.8919276668481
 30
-0.0000000000000069
 11
-25.46503718200567
 21
-3.820259326154337
 31
1.072059108153667E-15
210
4.117262709087145E-17
220
6.176708539711937E-18
230
1.0
 40
0.2763133796977341
 41
3.03315501891942
 42
6.174747672509215
  0
LINE
  5
B6
330
1F
100
AcDbEntity
  8
Hidden
370
    -3
100
AcDbLine
 10
-0.6463457905255127
 20
186.9910480810576
 30
0.0000000000000069
 11
-1.85768027628078
 21
184.92823972185
 31
0.0000000000000077
  0
ELLIPSE
  5
B7
330
1F
100
AcDbEntity
  8
Hidden
370
    -3
100
AcDbEllipse
 10
-26.07970432895907
 20
173.8417692971629
 30
-0.0000000000000069
 11
26.80998671860868
 21
4.02202836240948
 31
-1.128680482409550E-15
210
-4.117262709087144E-17
220
-6.176708539711935E-18
230
-1.0
 40
0.2763133796977341
 41
3.275025798259422
 42
6.39162294184996
  0
LINE
  5
B8
330
1F
100
AcDbEntity
  8
Hidden
370
    -3
100
AcDbLine
 10
-52.71709438871626
 20
178.8556156118393
 30
0.0
 11
-52.84900877243852
 21
170.8564898487623
 31
0.000000000000004
  0
ELLIPSE
  5
B9
330
1F
100
AcDbEntity
  8
Hidden
370
    -3
100
AcDbEllipse
 10
-29.22963585860401
 20
194.8385437763255
 30
-0.0000000000000069
 11
26.64713393527605
 21
3.997597223359099
 31
-1.121824501465477E-15
210
-4.117262709087145E-17
220
-6.176708539711937E-18
230
-1.0
 40
0.2763133796977341
 41
5.282893410866119
 42
5.620891598889879
  0
ELLIPSE
  5
BA
330
1F
100
AcDbEntity
  8
Hidden
370
    -3
100
AcDbEllipse
 10
-26.86391407150699
 20
179.0691448618936
 30
0.0
 11
30.68747328116687
 21
4.603728051154421
 31
-1.291919780134642E-15
210
-4.117262709087146E-17
220
-6.176708539711937E-18
230
-1.0
 40
0.2763133796977341
 41
3.212519292719326
 42
6.212296440337441
  0
ELLIPSE
  5
BB
330
1F
100
AcDbEntity
  8
Hidden
370
    -3
100
AcDbEllipse
 10
-36.14256593214341
 20
194.0131385574801
 30
0.0
 11
3.316983739137342
 21
0.4976131773762315
 31
-1.396425461201591E-16
210
-4.117262709087145E-17
220
-6.176708539711936E-18
230
-1.0
 40
0.2763133796977341
 41
3.141625287760736
 42
6.283217941350527
  0
LINE
  5
BC
330
1F
100
AcDbEntity
  8
Hidden
370
    -3
100
AcDbLine
 10
-36.06973359827379
 20
198.4985325054544
 30
0.0
 11
-36.4011066523196
 21
197.0599984494426
 31
-0.0000000000000016
  0
LINE
  5
BD
330
1F
100
AcDbEntity
  8
Hidden
370
    -3
100
AcDbLine
 10
-34.05047861089675
 20
198.7396319505566
 30
-0.0000000000000069
 11
-36.06973359827379
 21
198.4985325054544
 31
-0.0000000000000079
  0
LINE
  5
BE
330
1F
100
AcDbEntity
  8
Hidden
370
    -3
100
AcDbLine
 10
-36.4011066523196
 20
197.0599984494426
 30
0.0
 11
-33.26421690467588
 21
197.4345437060999
 31
-0.0000000000000001
  0
LINE
  5
BF
330
1F
100
AcDbEntity
  8
Hidden
370
    -3
100
AcDbLine
 10
-24.21899632934913
 20
199.9135128806179
 30
0.0
 11
-23.40626986889038
 21
194.4960509317152
 31
0.0000000000000012
  0
LINE
  5
C0
330
1F
100
AcDbEntity
  8
Hidden
370
    -3
100
AcDbLine
 10
-36.06973359827379
 20
198.4985325054544
 30
0.0
 11
-35.25700713781504
 21
193.0810705565517
 31
0.0000000000000012
  0
LINE
  5
C1
330
1F
100
AcDbEntity
  8
Hidden
370
    -3
100
AcDbLine
 10
-23.40626986889037
 20
194.4960509317152
 30
0.0
 11
-35.25700713781503
 21
193.0810705565517
 31
-0.0000000000000013
  0
LINE
  5
C2
330
1F
100
AcDbEntity
  8
Hidden
370
    -3
100
AcDbLine
 10
-36.4011066523196
 20
197.0599984494426
 30
0.0
 11
-35.58838019186086
 21
191.6425365005399
 31
0.00000000000001
  0
LINE
  5
C3
330
1F
100
AcDbEntity
  8
Hidden
370
    -3
100
AcDbLine
 10
-35.25700713781503
 20
193.0810705565517
 30
0.0
 11
-35.58838019186086
 21
191.6425365005399
 31
0.0000000000000071
  0
LINE
  5
C4
330
1F
100
AcDbEntity
  8
Hidden
370
    -3
100
AcDbLine
 10
-24.55036938339496
 20
198.474978824606
 30
0.0
 11
-23.73764292293621
 21
193.0575168757033
 31
0.0000000000000106
  0
LINE
  5
C5
330
1F
100
AcDbEntity
  8
Hidden
370
    -3
100
AcDbLine
 10
-35.58838019186086
 20
191.6425365005399
 30
0.0
 11
-23.73764292293621
 21
193.0575168757033
 31
-0.0000000000000006
  0
LINE
  5
C6
330
1F
100
AcDbEntity
  8
Hidden
370
    -3
100
AcDbLine
 10
-23.73764292293621
 20
193.0575168757033
 30
0.0
 11
-23.40626986889037
 21
194.4960509317151
 31
-0.000000000000005
  0
LINE
  5
C7
330
1F
100
AcDbEntity
  8
Hidden
370
    -3
100
AcDbLine
 10
-12.8696580710628
 20
193.9578494922151
 30
0.0000000000000069
 11
-31.8311633522765
 21
191.6938420091676
 31
0.0000000000000049
  0
LINE
  5
C8
330
1F
100
AcDbEntity
  8
Hidden
370
    -3
100
AcDbLine
 10
-34.97142102835831
 20
190.4851557960439
 30
0.0
 11
-35.84626774526333
 21
186.6873310161088
 31
-0.0000000000000023
  0
LINE
  5
C9
330
1F
100
AcDbEntity
  8
Hidden
370
    -3
100
AcDbLine
 10
-33.10098489538014
 20
186.1813795065302
 30
0.0000000000000069
 11
-14.13947961416642
 21
188.4453869895776
 31
0.0000000000000031
  0
LINE
  5
CA
330
1F
100
AcDbEntity
  8
Hidden
370
    -3
100
AcDbLine
 10
-10.99922193808463
 20
189.6540732027014
 30
0.0000000000000069
 11
-10.12437522117959
 21
193.4518979826365
 31
0.0000000000000118
  0
LINE
  5
CB
330
1F
100
AcDbEntity
  8
Hidden
370
    -3
100
AcDbLine
 10
0.1591274747804738
 20
178.6900375313358
 30
0.0
 11
-1.857680276241722
 21
184.9282397218567
 31
-0.0000000000000116
  0
LINE
  5
CC
330
1F
100
AcDbEntity
  8
Hidden
370
    -3
100
AcDbLine
 10
-52.71709438873931
 20
178.8556156118357
 30
0.0000000000000139
 11
-54.49382952180209
 21
180.5616478672083
 31
0.0000000000000088
  0
LINE
  5
CD
330
1F
100
AcDbEntity
  8
Hidden
370
    -3
100
AcDbLine
 10
-55.22013015634825
 20
171.8189648711392
 30
-0.0000000000000069
 11
-54.97203192798351
 21
175.7130300272507
 31
0.0000000000000009
  0
LINE
  5
CE
330
1F
100
AcDbEntity
  8
Hidden
370
    -3
100
AcDbLine
 10
1.244203784958764
 20
182.4252596965655
 30
-0.0000000000000069
 11
-0.6463457905146568
 21
186.9910480811199
 31
-0.0000000000000111
  0
LINE
  5
CF
330
1F
100
AcDbEntity
  8
Hidden
370
    -3
100
AcDbLine
 10
-28.45896850873613
 20
193.2170558669931
 30
0.0000000000000069
 11
-33.10098489538015
 21
186.1813795065302
 31
0.0000000000000065
  0
LINE
  5
D0
330
1F
100
AcDbEntity
  8
Hidden
370
    -3
100
AcDbLine
 10
-19.59291865873713
 20
194.2756639736689
 30
0.0
 11
-28.45896850873613
 21
193.217055866993
 31
0.0000000000000066
  0
LINE
  5
D1
330
1F
100
AcDbEntity
  8
Hidden
370
    -3
100
AcDbLine
 10
-16.45266098265533
 20
195.4843501867926
 30
0.0
 11
-10.99922193808464
 21
189.6540732027014
 31
0.0000000000000035
  0
LINE
  5
D2
330
1F
100
AcDbEntity
  8
Hidden
370
    -3
100
AcDbLine
 10
-16.35680886774131
 20
195.9004568374725
 30
0.0000000000000139
 11
-16.45266098265533
 21
195.4843501867926
 31
0.0000000000000077
  0
LINE
  5
D3
330
1F
100
AcDbEntity
  8
Hidden
370
    -3
100
AcDbLine
 10
-16.56384350765414
 20
195.6987088756301
 30
0.0000000000000069
 11
-12.8696580710628
 21
193.9578494922151
 31
-0.0000000000000027
  0
LINE
  5
D4
330
1F
100
AcDbEntity
  8
Hidden
370
    -3
100
AcDbLine
 10
-31.00690414014583
 20
194.5797176345941
 30
0.0
 11
-34.97142102835831
 21
190.4851557960439
 31
0.0000000000000052
  0
LINE
  5
D5
330
1F
100
AcDbEntity
  8
Hidden
370
    -3
100
AcDbLine
 10
-31.20425135861932
 20
193.7230073765716
 30
-0.0000000000000069
 11
-31.1840663154698
 21
193.8106333064356
 31
-0.000000000000002
  0
LINE
  5
D6
330
1F
100
AcDbEntity
  8
Hidden
370
    -3
100
AcDbLine
 10
-28.54057530115854
 20
193.6141815866224
 30
-0.0000000000000069
 11
-28.45896850873613
 21
193.217055866993
 31
0.0000000000000032
  0
LINE
  5
D7
330
1F
100
AcDbEntity
  8
Hidden
370
    -3
100
AcDbLine
 10
-31.2042513586193
 20
193.7230073765716
 30
0.0
 11
-31.35297318160941
 21
193.9631894259608
 31
-0.0000000000000089
  0
LINE
  5
D8
330
1F
100
AcDbEntity
  8
Hidden
370
    -3
100
AcDbLine
 10
-19.59291865873713
 20
194.2756639736689
 30
0.0
 11
-19.67452545115953
 21
194.6727896932982
 31
-0.0000000000000014
  0
LINE
  5
D9
330
1F
100
AcDbEntity
  8
Hidden
370
    -3
100
AcDbLine
 10
-16.45266098265533
 20
195.4843501867926
 30
0.0
 11
-16.32289147872969
 21
195.9603194703316
 31
-0.0000000000000039
  0
LINE
  5
DA
330
1F
100
AcDbEntity
  8
Hidden
370
    -3
100
AcDbLine
 10
-10.38681225446169
 20
193.8707614857444
 30
0.0000000000000069
 11
-16.60749471883328
 21
196.8022151513024
 31
-0.0000000000000009
  0
LINE
  5
DB
330
1F
100
AcDbEntity
  8
Hidden
370
    -3
100
AcDbLine
 10
2.397811508502667
 20
180.4858036993764
 30
-0.0000000000000069
 11
1.163699893357644
 21
183.7477521755714
 31
-0.0000000000000042
  0
LINE
  5
DC
330
1F
100
AcDbEntity
  8
Hidden
370
    -3
100
AcDbLine
 10
-53.96755144241934
 20
186.0903300640529
 30
-0.0000000000000069
 11
-55.02401689525258
 21
175.398225015803
 31
-0.0000000000000063
  0
LINE
  5
DD
330
1F
100
AcDbEntity
  8
Hidden
370
    -3
100
AcDbLine
 10
-0.7521672598876129
 20
188.3298906561956
 30
-0.0000000000000069
 11
-3.013674729682606
 21
193.7344196538017
 31
-0.0000000000000063
  0
LINE
  5
DE
330
1F
100
AcDbEntity
  8
Hidden
370
    -3
100
AcDbLine
 10
0.650395332519621
 20
178.2014916554645
 30
0.0
 11
-1.898229293750058
 21
186.032939311708
 31
0.0000000000000014
  0
LINE
  5
DF
330
1F
100
AcDbEntity
  8
Hidden
370
    -3
100
AcDbLine
 10
-30.82006273028856
 20
194.8774472935759
 30
-0.0000000000000139
 11
-34.81124224781397
 21
190.7553482323127
 31
-0.000000000000011
  0
SPLINE
  5
E0
330
1F
100
AcDbEntity
  8
Hidden
370
    -3
100
AcDbSpline
210
0.0
220
0.0
230
1.0
 70
     8
 71
     3
 72
    10
 73
     6
 74
     0
 42
0.000000001
 43
0.00000001
 40
0.0
 40
0.0
 40
0.0
 40
0.0
 40
0.0002735065280179
 40
0.0002735065280179
 40
0.0005279125319277
 40
0.0005279125319277
 40
0.0005279125319277
 40
0.0005279125319277
 10
-31.19146977425712
 20
193.5916682138896
 30
-0.0000000000000278
 10
-31.23436254649035
 20
193.6712547760787
 30
-0.0000000000000278
 10
-31.2755900773616
 20
193.746502022604
 30
-0.0000000000000278
 10
-31.36035654843457
 20
193.8983035328283
 30
-0.0000000000000347
 10
-31.40369390804779
 20
193.9746880820311
 30
-0.0000000000000278
 10
-31.45372118456908
 20
194.0613223228286
 30
-0.0000000000000278
  0
SPLINE
  5
E1
330
1F
100
AcDbEntity
  8
Hidden
370
    -3
100
AcDbSpline
210
-1.673634885634910E-10
220
4.558651048538767E-11
230
1.0
 70
     8
 71
     3
 72
    10
 73
     6
 74
     0
 42
0.000000001
 43
0.00000001
 40
0.0
 40
0.0
 40
0.0
 40
0.0
 40
0.0002423998792688
 40
0.0002423998792688
 40
0.0005698473736901
 40
0.0005698473736901
 40
0.0005698473736901
 40
0.0005698473736901
 10
-16.32281430822429
 20
195.9603926681989
 30
-0.0000000000000278
 10
-16.34319064502511
 20
195.8856344024672
 30
-0.0000000000000347
 10
-16.36732945348813
 20
195.7970650466339
 30
-0.0000000000000347
 10
-16.41693461109205
 20
195.6149974367797
 30
-0.0000000000000347
 10
-16.43840684088504
 20
195.5361409419213
 30
-0.0000000000000278
 10
-16.45479414297392
 20
195.4758500846903
 30
-0.0000000000000278
  0
ENDSEC
  0
SECTION
  2
OBJECTS
  0
DICTIONARY
  5
C
330
0
100
AcDbDictionary
281
     1
  3
ACAD_DETAILVIEWSTYLE
350
E6
  3
ACAD_GROUP
350
D
  3
ACAD_LAYOUT
350
1A
  3
ACAD_MATERIAL
350
43
  3
ACAD_MLEADERSTYLE
350
E5
  3
ACAD_MLINESTYLE
350
17
  3
ACAD_PLOTSETTINGS
350
19
  3
ACAD_PLOTSTYLENAME
350
E
  3
ACAD_SCALELIST
350
47
  3
ACAD_SECTIONVIEWSTYLE
350
E7
  3
ACAD_TABLESTYLE
350
E4
  3
ACAD_VISUALSTYLE
350
2A
  3
AcDbVariableDictionary
350
E2
  0
SUN
  5
69
330
29
100
AcDbSun
 90
        1
290
     0
 63
     7
421
 16777215
 40
1.0
291
     1
 91
  2455826
 92
 54000000
292
     0
 70
     2
 71
   256
280
     1
  0
DICTIONARY
  5
E6
102
{ACAD_REACTORS
330
C
102
}
330
C
100
AcDbDictionary
281
     1
  0
DICTIONARY
  5
D
102
{ACAD_REACTORS
330
C
102
}
330
C
100
AcDbDictionary
281
     1
  0
DICTIONARY
  5
1A
102
{ACAD_REACTORS
330
C
102
}
330
C
100
AcDbDictionary
281
     1
  3
Layout1
350
1E
  3
Layout2
350
26
  3
Model
350
22
  0
DICTIONARY
  5
43
102
{ACAD_REACTORS
330
C
102
}
330
C
100
AcDbDictionary
281
     1
  3
ByBlock
350
45
  3
ByLayer
350
44
  3
Global
350
46
  0
DICTIONARY
  5
E5
102
{ACAD_REACTORS
330
C
102
}
330
C
100
AcDbDictionary
281
     1
  0
DICTIONARY
  5
17
102
{ACAD_REACTORS
330
C
102
}
330
C
100
AcDbDictionary
281
     1
  3
Standard
350
18
  0
DICTIONARY
  5
19
102
{ACAD_REACTORS
330
C
102
}
330
C
100
AcDbDictionary
281
     1
  0
ACDBDICTIONARYWDFLT
  5
E
102
{ACAD_REACTORS
330
C
102
}
330
C
100
AcDbDictionary
281
     1
  3
Normal
350
F
100
AcDbDictionaryWithDefault
340
F
  0
DICTIONARY
  5
47
102
{ACAD_REACTORS
330
C
102
}
330
C
100
AcDbDictionary
281
     1
  3
A0
350
48
  3
A1
350
49
  3
A2
350
4A
  3
A3
350
4B
  3
A4
350
4C
  3
A5
350
4D
  3
A6
350
4E
  3
A7
350
4F
  3
A8
350
50
  3
A9
350
51
  3
B0
350
52
  3
B1
350
53
  3
B2
350
54
  3
B3
350
55
  3
B4
350
56
  3
B5
350
57
  3
B6
350
58
  3
B7
350
59
  3
B8
350
5A
  3
B9
350
5B
  3
C0
350
5C
  3
C1
350
5D
  3
C2
350
5E
  3
C3
350
5F
  3
C4
350
60
  3
C5
350
61
  3
C6
350
62
  3
C7
350
63
  3
C8
350
64
  3
C9
350
65
  3
D0
350
66
  3
D1
350
67
  3
D2
350
68
  0
DICTIONARY
  5
E7
102
{ACAD_REACTORS
330
C
102
}
330
C
100
AcDbDictionary
281
     1
  0
DICTIONARY
  5
E4
102
{ACAD_REACTORS
330
C
102
}
330
C
100
AcDbDictionary
281
     1
  0
DICTIONARY
  5
2A
102
{ACAD_REACTORS
330
C
102
}
330
C
100
AcDbDictionary
281
     1
  3
2dWireframe
350
2F
  3
Basic
350
32
  3
Brighten
350
36
  3
ColorChange
350
3A
  3
Conceptual
350
34
  3
Dim
350
35
  3
EdgeColorOff
350
3D
  3
Facepattern
350
39
  3
Flat
350
2B
  3
FlatWithEdges
350
2C
  3
Gouraud
350
2D
  3
GouraudWithEdges
350
2E
  3
Hidden
350
31
  3
JitterOff
350
3B
  3
Linepattern
350
38
  3
OverhangOff
350
3C
  3
Realistic
350
33
  3
Shaded
350
42
  3
Shaded with edges
350
41
  3
Shades of Gray
350
3E
  3
Sketchy
350
3F
  3
Thicken
350
37
  3
Wireframe
350
30
  3
X-Ray
350
40
  0
DICTIONARY
  5
E2
102
{ACAD_REACTORS
330
C
102
}
330
C
100
AcDbDictionary
281
     1
  3
CANNOSCALE
350
E3
  0
LAYOUT
  5
1E
102
{ACAD_REACTORS
330
1A
102
}
330
1A
100
AcDbPlotSettings
  1

  2
none_device
  4

  6

 40
0.0
 41
0.0
 42
0.0
 43
0.0
 44
0.0
 45
0.0
 46
0.0
 47
0.0
 48
0.0
 49
0.0
140
0.0
141
0.0
142
1.0
143
1.0
 70
   688
 72
     1
 73
     0
 74
     5
  7

 75
    16
 76
     0
 77
     2
 78
   300
147
1.0
148
0.0
149
0.0
100
AcDbLayout
  1
Layout1
 70
     1
 71
     1
 10
0.0
 20
0.0
 11
420.0
 21
297.0
 12
0.0
 22
0.0
 32
0.0
 14
1.000000000000000E+20
 24
1.000000000000000E+20
 34
1.000000000000000E+20
 15
-1.000000000000000E+20
 25
-1.000000000000000E+20
 35
-1.000000000000000E+20
146
0.0
 13
0.0
 23
0.0
 33
0.0
 16
1.0
 26
0.0
 36
0.0
 17
0.0
 27
1.0
 37
0.0
 76
     0
330
1B
  0
LAYOUT
  5
26
102
{ACAD_REACTORS
330
1A
102
}
330
1A
100
AcDbPlotSettings
  1

  2
none_device
  4

  6

 40
0.0
 41
0.0
 42
0.0
 43
0.0
 44
0.0
 45
0.0
 46
0.0
 47
0.0
 48
0.0
 49
0.0
140
0.0
141
0.0
142
1.0
143
1.0
 70
   688
 72
     1
 73
     0
 74
     5
  7

 75
    16
 76
     0
 77
     2
 78
   300
147
1.0
148
0.0
149
0.0
100
AcDbLayout
  1
Layout2
 70
     1
 71
     2
 10
0.0
 20
0.0
 11
0.0
 21
0.0
 12
0.0
 22
0.0
 32
0.0
 14
0.0
 24
0.0
 34
0.0
 15
0.0
 25
0.0
 35
0.0
146
0.0
 13
0.0
 23
0.0
 33
0.0
 16
1.0
 26
0.0
 36
0.0
 17
0.0
 27
1.0
 37
0.0
 76
     0
330
23
  0
LAYOUT
  5
22
102
{ACAD_REACTORS
330
1A
102
}
330
1A
100
AcDbPlotSettings
  1

  2
none_device
  4
Letter_(8.50_x_11.00_Inches)
  6

 40
6.35
 41
6.35
 42
6.35000508
 43
6.35000508
 44
215.9
 45
279.4
 46
0.0
 47
0.0
 48
0.0
 49
0.0
140
0.0
141
0.0
142
1.0
143
1.0
 70
  1712
 72
     1
 73
     0
 74
     0
  7

 75
     0
 76
     0
 77
     2
 78
   300
147
1.0
148
0.0
149
0.0
100
AcDbLayout
  1
Model
 70
     1
 71
     0
 10
0.0
 20
0.0
 11
420.0
 21
297.0
 12
0.0
 22
0.0
 32
0.0
 14
-57.57774129448482
 24
169.4206294960475
 34
53.99154082107761
 15
3.849913151470836
 25
204.6569378727624
 35
55.12866546113502
146
0.0
 13
0.0
 23
0.0
 33
0.0
 16
1.0
 26
0.0
 36
0.0
 17
0.0
 27
1.0
 37
0.0
 76
     0
330
1F
331
29
  0
MATERIAL
  5
45
102
{ACAD_REACTORS
330
43
102
}
330
43
100
AcDbMaterial
  1
ByBlock
 72
     1
 94
      127
  0
MATERIAL
  5
44
102
{ACAD_REACTORS
330
43
102
}
330
43
100
AcDbMaterial
  1
ByLayer
 72
     1
 94
      127
  0
MATERIAL
  5
46
102
{ACAD_REACTORS
330
43
102
}
330
43
100
AcDbMaterial
  1
Global
 72
     1
 94
      127
  0
MLINESTYLE
  5
18
102
{ACAD_REACTORS
330
17
102
}
330
17
100
AcDbMlineStyle
  2
Standard
 70
     0
  3

 62
   256
 51
90.0
 52
90.0
 71
     2
 49
0.5
 62
   256
  6
BYLAYER
 49
-0.5
 62
   256
  6
BYLAYER
  0
ACDBPLACEHOLDER
  5
F
102
{ACAD_REACTORS
330
E
102
}
330
E
  0
SCALE
  5
48
102
{ACAD_REACTORS
330
47
102
}
330
47
100
AcDbScale
 70
     0
300
1:1
140
1.0
141
1.0
290
     1
  0
SCALE
  5
49
102
{ACAD_REACTORS
330
47
102
}
330
47
100
AcDbScale
 70
     0
300
1:2
140
1.0
141
2.0
290
     0
  0
SCALE
  5
4A
102
{ACAD_REACTORS
330
47
102
}
330
47
100
AcDbScale
 70
     0
300
1:4
140
1.0
141
4.0
290
     0
  0
SCALE
  5
4B
102
{ACAD_REACTORS
330
47
102
}
330
47
100
AcDbScale
 70
     0
300
1:5
140
1.0
141
5.0
290
     0
  0
SCALE
  5
4C
102
{ACAD_REACTORS
330
47
102
}
330
47
100
AcDbScale
 70
     0
300
1:8
140
1.0
141
8.0
290
     0
  0
SCALE
  5
4D
102
{ACAD_REACTORS
330
47
102
}
330
47
100
AcDbScale
 70
     0
300
1:10
140
1.0
141
10.0
290
     0
  0
SCALE
  5
4E
102
{ACAD_REACTORS
330
47
102
}
330
47
100
AcDbScale
 70
     0
300
1:16
140
1.0
141
16.0
290
     0
  0
SCALE
  5
4F
102
{ACAD_REACTORS
330
47
102
}
330
47
100
AcDbScale
 70
     0
300
1:20
140
1.0
141
20.0
290
     0
  0
SCALE
  5
50
102
{ACAD_REACTORS
330
47
102
}
330
47
100
AcDbScale
 70
     0
300
1:30
140
1.0
141
30.0
290
     0
  0
SCALE
  5
51
102
{ACAD_REACTORS
330
47
102
}
330
47
100
AcDbScale
 70
     0
300
1:40
140
1.0
141
40.0
290
     0
  0
SCALE
  5
52
102
{ACAD_REACTORS
330
47
102
}
330
47
100
AcDbScale
 70
     0
300
1:50
140
1.0
141
50.0
290
     0
  0
SCALE
  5
53
102
{ACAD_REACTORS
330
47
102
}
330
47
100
AcDbScale
 70
     0
300
1:100
140
1.0
141
100.0
290
     0
  0
SCALE
  5
54
102
{ACAD_REACTORS
330
47
102
}
330
47
100
AcDbScale
 70
     0
300
2:1
140
2.0
141
1.0
290
     0
  0
SCALE
  5
55
102
{ACAD_REACTORS
330
47
102
}
330
47
100
AcDbScale
 70
     0
300
4:1
140
4.0
141
1.0
290
     0
  0
SCALE
  5
56
102
{ACAD_REACTORS
330
47
102
}
330
47
100
AcDbScale
 70
     0
300
8:1
140
8.0
141
1.0
290
     0
  0
SCALE
  5
57
102
{ACAD_REACTORS
330
47
102
}
330
47
100
AcDbScale
 70
     0
300
10:1
140
10.0
141
1.0
290
     0
  0
SCALE
  5
58
102
{ACAD_REACTORS
330
47
102
}
330
47
100
AcDbScale
 70
     0
300
100:1
140
100.0
141
1.0
290
     0
  0
SCALE
  5
59
102
{ACAD_REACTORS
330
47
102
}
330
47
100
AcDbScale
 70
     0
300
1/128" = 1'-0"
140
0.0078125
141
12.0
290
     0
  0
SCALE
  5
5A
102
{ACAD_REACTORS
330
47
102
}
330
47
100
AcDbScale
 70
     0
300
1/64" = 1'-0"
140
0.015625
141
12.0
290
     0
  0
SCALE
  5
5B
102
{ACAD_REACTORS
330
47
102
}
330
47
100
AcDbScale
 70
     0
300
1/32" = 1'-0"
140
0.03125
141
12.0
290
     0
  0
SCALE
  5
5C
102
{ACAD_REACTORS
330
47
102
}
330
47
100
AcDbScale
 70
     0
300
1/16" = 1'-0"
140
0.0625
141
12.0
290
     0
  0
SCALE
  5
5D
102
{ACAD_REACTORS
330
47
102
}
330
47
100
AcDbScale
 70
     0
300
3/32" = 1'-0"
140
0.09375
141
12.0
290
     0
  0
SCALE
  5
5E
102
{ACAD_REACTORS
330
47
102
}
330
47
100
AcDbScale
 70
     0
300
1/8" = 1'-0"
140
0.125
141
12.0
290
     0
  0
SCALE
  5
5F
102
{ACAD_REACTORS
330
47
102
}
330
47
100
AcDbScale
 70
     0
300
3/16" = 1'-0"
140
0.1875
141
12.0
290
     0
  0
SCALE
  5
60
102
{ACAD_REACTORS
330
47
102
}
330
47
100
AcDbScale
 70
     0
300
1/4" = 1'-0"
140
0.25
141
12.0
290
     0
  0
SCALE
  5
61
102
{ACAD_REACTORS
330
47
102
}
330
47
100
AcDbScale
 70
     0
300
3/8" = 1'-0"
140
0.375
141
12.0
290
     0
  0
SCALE
  5
62
102
{ACAD_REACTORS
330
47
102
}
330
47
100
AcDbScale
 70
     0
300
1/2" = 1'-0"
140
0.5
141
12.0
290
     0
  0
SCALE
  5
63
102
{ACAD_REACTORS
330
47
102
}
330
47
100
AcDbScale
 70
     0
300
3/4" = 1'-0"
140
0.75
141
12.0
290
     0
  0
SCALE
  5
64
102
{ACAD_REACTORS
330
47
102
}
330
47
100
AcDbScale
 70
     0
300
1" = 1'-0"
140
1.0
141
12.0
290
     0
  0
SCALE
  5
65
102
{ACAD_REACTORS
330
47
102
}
330
47
100
AcDbScale
 70
     0
300
1-1/2" = 1'-0"
140
1.5
141
12.0
290
     0
  0
SCALE
  5
66
102
{ACAD_REACTORS
330
47
102
}
330
47
100
AcDbScale
 70
     0
300
3" = 1'-0"
140
3.0
141
12.0
290
     0
  0
SCALE
  5
67
102
{ACAD_REACTORS
330
47
102
}
330
47
100
AcDbScale
 70
     0
300
6" = 1'-0"
140
6.0
141
12.0
290
     0
  0
SCALE
  5
68
102
{ACAD_REACTORS
330
47
102
}
330
47
100
AcDbScale
 70
     0
300
1'-0" = 1'-0"
140
12.0
141
12.0
290
     0
  0
VISUALSTYLE
  5
2F
102
{ACAD_REACTORS
330
2A
102
}
330
2A
100
AcDbVisualStyle
  2
2dWireframe
 70
     4
177
     3
291
     0
 70
    58
 90
        0
176
     1
 90
        2
176
     1
 90
        0
176
     1
 90
        0
176
     1
 40
0.6
176
     1
 40
30.0
176
     1
 62
     7
420
 16777215
176
     1
 90
        1
176
     1
 90
        4
176
     1
 62
     7
176
     1
 62
   257
176
     1
 90
        1
176
     1
 90
        1
176
     1
 40
1.0
176
     1
 90
        0
176
     1
 62
   257
176
     1
 40
1.0
176
     1
 90
        1
176
     1
 90
        6
176
     1
 90
        2
176
     1
 62
     7
176
     1
 90
        5
176
     1
 90
        0
176
     1
 90
        0
176
     1
290
     0
176
     1
 90
        1
176
     1
 40
0.0
176
     1
 90
        0
176
     1
290
     1
176
     1
290
     1
176
     1
290
     0
176
     1
290
     0
176
     1
290
     0
176
     1
290
     0
176
     1
290
     0
176
     1
290
     0
176
     1
290
     0
176
     1
 90
       50
176
     1
 40
0.0
176
     1
 40
1.0
176
     1
 90
        0
176
     1
 62
    18
420
        0
176
     1
 90
       50
176
     1
 90
        3
176
     1
 62
     5
420
      255
176
     1
290
     0
176
     1
 90
       50
176
     1
 90
       50
176
     1
 90
       50
176
     1
290
     0
176
     1
 90
       50
176
     1
 62
   256
176
     0
 40
1.0
176
     0
 90
        2
176
     1
  1
strokes_ogs.tif
176
     1
290
     0
176
     1
 40
1.0
176
     1
 40
1.0
176
     1
  0
VISUALSTYLE
  5
32
102
{ACAD_REACTORS
330
2A
102
}
330
2A
100
AcDbVisualStyle
  2
Basic
 70
     7
177
     3
291
     1
 70
    58
 90
        1
176
     1
 90
        0
176
     1
 90
        1
176
     1
 90
        0
176
     1
 40
0.6
176
     1
 40
30.0
176
     1
 62
     7
420
 16777215
176
     1
 90
        0
176
     1
 90
        4
176
     1
 62
     7
176
     1
 62
   257
176
     1
 90
        1
176
     1
 90
        1
176
     1
 40
1.0
176
     1
 90
        8
176
     1
 62
     7
176
     1
 40
1.0
176
     1
 90
        1
176
     1
 90
        6
176
     1
 90
        2
176
     1
 62
     7
176
     1
 90
        5
176
     1
 90
        0
176
     1
 90
        0
176
     1
290
     0
176
     1
 90
        1
176
     1
 40
0.0
176
     1
 90
        0
176
     1
290
     0
176
     1
290
     1
176
     1
290
     1
176
     1
290
     0
176
     1
290
     0
176
     1
290
     0
176
     1
290
     0
176
     1
290
     0
176
     1
290
     0
176
     1
 90
       50
176
     1
 40
0.0
176
     1
 40
1.0
176
     1
 90
        0
176
     1
 62
    18
420
        0
176
     1
 90
       50
176
     1
 90
        3
176
     1
 62
     5
420
      255
176
     1
290
     0
176
     1
 90
       50
176
     1
 90
       50
176
     1
 90
       50
176
     1
290
     0
176
     1
 90
       50
176
     1
 62
   256
176
     0
 40
1.0
176
     0
 90
        2
176
     1
  1
strokes_ogs.tif
176
     1
290
     0
176
     1
 40
1.0
176
     1
 40
1.0
176
     1
  0
VISUALSTYLE
  5
36
102
{ACAD_REACTORS
330
2A
102
}
330
2A
100
AcDbVisualStyle
  2
Brighten
 70
    12
177
     3
291
     1
 70
    58
 90
        2
176
     1
 90
        2
176
     1
 90
        0
176
     1
 90
        0
176
     1
 40
0.6
176
     1
 40
30.0
176
     1
 62
     7
420
 16777215
176
     1
 90
        1
176
     1
 90
        4
176
     1
 62
     7
176
     1
 62
   257
176
     1
 90
        1
176
     1
 90
        1
176
     1
 40
1.0
176
     1
 90
        8
176
     1
 62
     7
176
     1
 40
1.0
176
     1
 90
        1
176
     1
 90
        6
176
     1
 90
        2
176
     1
 62
     7
176
     1
 90
        5
176
     1
 90
        0
176
     1
 90
        0
176
     1
290
     0
176
     1
 90
        1
176
     1
 40
50.0
176
     1
 90
        0
176
     1
290
     0
176
     1
290
     1
176
     1
290
     1
176
     1
290
     0
176
     1
290
     0
176
     1
290
     0
176
     1
290
     0
176
     1
290
     0
176
     1
290
     0
176
     1
 90
       50
176
     1
 40
0.0
176
     1
 40
1.0
176
     1
 90
        0
176
     1
 62
    18
420
        0
176
     1
 90
       50
176
     1
 90
        3
176
     1
 62
     5
420
      255
176
     1
290
     0
176
     1
 90
       50
176
     1
 90
       50
176
     1
 90
       50
176
     1
290
     0
176
     1
 90
       50
176
     1
 62
   256
176
     0
 40
1.0
176
     0
 90
        2
176
     1
  1
strokes_ogs.tif
176
     1
290
     0
176
     1
 40
1.0
176
     1
 40
1.0
176
     1
  0
VISUALSTYLE
  5
3A
102
{ACAD_REACTORS
330
2A
102
}
330
2A
100
AcDbVisualStyle
  2
ColorChange
 70
    16
177
     3
291
     1
 70
    58
 90
        2
176
     1
 90
        2
176
     1
 90
        3
176
     1
 90
        0
176
     1
 40
0.6
176
     1
 40
30.0
176
     1
 62
     8
420
  8421504
176
     1
 90
        1
176
     1
 90
        4
176
     1
 62
     7
176
     1
 62
   257
176
     1
 90
        1
176
     1
 90
        1
176
     1
 40
1.0
176
     1
 90
        8
176
     1
 62
     8
420
  8421504
176
     1
 40
1.0
176
     1
 90
        1
176
     1
 90
        6
176
     1
 90
        2
176
     1
 62
     7
176
     1
 90
        5
176
     1
 90
        0
176
     1
 90
        0
176
     1
290
     0
176
     1
 90
        1
176
     1
 40
0.0
176
     1
 90
        0
176
     1
290
     0
176
     1
290
     1
176
     1
290
     1
176
     1
290
     0
176
     1
290
     0
176
     1
290
     0
176
     1
290
     0
176
     1
290
     0
176
     1
290
     0
176
     1
 90
       50
176
     1
 40
0.0
176
     1
 40
1.0
176
     1
 90
        0
176
     1
 62
    18
420
        0
176
     1
 90
       50
176
     1
 90
        3
176
     1
 62
     5
420
      255
176
     1
290
     0
176
     1
 90
       50
176
     1
 90
       50
176
     1
 90
       50
176
     1
290
     0
176
     1
 90
       50
176
     1
 62
   256
176
     0
 40
1.0
176
     0
 90
        2
176
     1
  1
strokes_ogs.tif
176
     1
290
     0
176
     1
 40
1.0
176
     1
 40
1.0
176
     1
  0
VISUALSTYLE
  5
34
102
{ACAD_REACTORS
330
2A
102
}
330
2A
100
AcDbVisualStyle
  2
Conceptual
 70
     9
177
     3
291
     0
 70
    58
 90
        3
176
     1
 90
        2
176
     1
 90
        0
176
     1
 90
        0
176
     1
 40
0.6
176
     1
 40
30.0
176
     1
 62
     7
420
 16777215
176
     1
 90
        2
176
     1
 90
        2
176
     1
 62
     7
176
     1
 62
   257
176
     1
 90
        1
176
     1
 90
        1
176
     1
 40
179.0
176
     1
 90
        8
176
     1
 62
     7
176
     1
 40
1.0
176
     1
 90
        1
176
     1
 90
        6
176
     1
 90
        2
176
     1
 62
     7
176
     1
 90
        3
176
     1
 90
        0
176
     1
 90
        0
176
     1
290
     0
176
     1
 90
        1
176
     1
 40
0.0
176
     1
 90
        0
176
     1
290
     0
176
     1
290
     1
176
     1
290
     1
176
     1
290
     0
176
     1
290
     0
176
     1
290
     0
176
     1
290
     0
176
     1
290
     0
176
     1
290
     0
176
     1
 90
       50
176
     1
 40
0.0
176
     1
 40
1.0
176
     1
 90
        0
176
     1
 62
    18
420
        0
176
     1
 90
       50
176
     1
 90
        3
176
     1
 62
     5
420
      255
176
     1
290
     0
176
     1
 90
       50
176
     1
 90
       50
176
     1
 90
       50
176
     1
290
     0
176
     1
 90
       50
176
     1
 62
   256
176
     0
 40
1.0
176
     0
 90
        2
176
     1
  1
strokes_ogs.tif
176
     1
290
     0
176
     1
 40
1.0
176
     1
 40
1.0
176
     1
  0
VISUALSTYLE
  5
35
102
{ACAD_REACTORS
330
2A
102
}
330
2A
100
AcDbVisualStyle
  2
Dim
 70
    11
177
     3
291
     1
 70
    58
 90
        2
176
     1
 90
        2
176
     1
 90
        0
176
     1
 90
        0
176
     1
 40
0.6
176
     1
 40
30.0
176
     1
 62
     7
420
 16777215
176
     1
 90
        1
176
     1
 90
        4
176
     1
 62
     7
176
     1
 62
   257
176
     1
 90
        1
176
     1
 90
        1
176
     1
 40
1.0
176
     1
 90
        8
176
     1
 62
     7
176
     1
 40
1.0
176
     1
 90
        1
176
     1
 90
        6
176
     1
 90
        2
176
     1
 62
     7
176
     1
 90
        5
176
     1
 90
        0
176
     1
 90
        0
176
     1
290
     0
176
     1
 90
        1
176
     1
 40
-50.0
176
     1
 90
        0
176
     1
290
     0
176
     1
290
     1
176
     1
290
     1
176
     1
290
     0
176
     1
290
     0
176
     1
290
     0
176
     1
290
     0
176
     1
290
     0
176
     1
290
     0
176
     1
 90
       50
176
     1
 40
0.0
176
     1
 40
1.0
176
     1
 90
        0
176
     1
 62
    18
420
        0
176
     1
 90
       50
176
     1
 90
        3
176
     1
 62
     5
420
      255
176
     1
290
     0
176
     1
 90
       50
176
     1
 90
       50
176
     1
 90
       50
176
     1
290
     0
176
     1
 90
       50
176
     1
 62
   256
176
     0
 40
1.0
176
     0
 90
        2
176
     1
  1
strokes_ogs.tif
176
     1
290
     0
176
     1
 40
1.0
176
     1
 40
1.0
176
     1
  0
VISUALSTYLE
  5
3D
102
{ACAD_REACTORS
330
2A
102
}
330
2A
100
AcDbVisualStyle
  2
EdgeColorOff
 70
    22
177
     3
291
     1
 70
    58
 90
        2
176
     0
 90
        2
176
     0
 90
        0
176
     0
 90
        0
176
     0
 40
0.6
176
     0
 40
30.0
176
     0
 62
     7
420
 16777215
176
     0
 90
        1
176
     0
 90
        4
176
     0
 62
     7
176
     0
 62
   257
176
     0
 90
        1
176
     0
 90
        1
176
     0
 40
1.0
176
     0
 90
        8
176
     2
 62
     7
176
     0
 40
1.0
176
     0
 90
        1
176
     0
 90
        6
176
     0
 90
        2
176
     0
 62
     7
176
     0
 90
        5
176
     0
 90
        0
176
     0
 90
        0
176
     0
290
     0
176
     0
 90
        1
176
     0
 40
0.0
176
     0
 90
        0
176
     0
290
     0
176
     0
290
     1
176
     0
290
     1
176
     0
290
     0
176
     0
290
     0
176
     0
290
     0
176
     0
290
     0
176
     0
290
     0
176
     0
290
     0
176
     0
 90
       50
176
     0
 40
0.0
176
     0
 40
1.0
176
     0
 90
        0
176
     0
 62
    18
420
        0
176
     0
 90
       50
176
     0
 90
        3
176
     0
 62
     5
420
      255
176
     0
290
     0
176
     0
 90
       50
176
     0
 90
       50
176
     0
 90
       50
176
     0
290
     0
176
     0
 90
       50
176
     0
 62
   256
176
     0
 40
1.0
176
     0
 90
        2
176
     0
  1
strokes_ogs.tif
176
     0
290
     0
176
     0
 40
1.0
176
     0
 40
1.0
176
     0
  0
VISUALSTYLE
  5
39
102
{ACAD_REACTORS
330
2A
102
}
330
2A
100
AcDbVisualStyle
  2
Facepattern
 70
    15
177
     3
291
     1
 70
    58
 90
        2
176
     1
 90
        2
176
     1
 90
        0
176
     1
 90
        0
176
     1
 40
0.6
176
     1
 40
30.0
176
     1
 62
     7
420
 16777215
176
     1
 90
        1
176
     1
 90
        4
176
     1
 62
     7
176
     1
 62
   257
176
     1
 90
        1
176
     1
 90
        1
176
     1
 40
1.0
176
     1
 90
        8
176
     1
 62
     7
176
     1
 40
1.0
176
     1
 90
        1
176
     1
 90
        6
176
     1
 90
        2
176
     1
 62
     7
176
     1
 90
        5
176
     1
 90
        0
176
     1
 90
        0
176
     1
290
     0
176
     1
 90
        1
176
     1
 40
0.0
176
     1
 90
        0
176
     1
290
     0
176
     1
290
     1
176
     1
290
     1
176
     1
290
     0
176
     1
290
     0
176
     1
290
     0
176
     1
290
     0
176
     1
290
     0
176
     1
290
     0
176
     1
 90
       50
176
     1
 40
0.0
176
     1
 40
1.0
176
     1
 90
        0
176
     1
 62
    18
420
        0
176
     1
 90
       50
176
     1
 90
        3
176
     1
 62
     5
420
      255
176
     1
290
     0
176
     1
 90
       50
176
     1
 90
       50
176
     1
 90
       50
176
     1
290
     0
176
     1
 90
       50
176
     1
 62
   256
176
     0
 40
1.0
176
     0
 90
        2
176
     1
  1
strokes_ogs.tif
176
     1
290
     0
176
     1
 40
1.0
176
     1
 40
1.0
176
     1
  0
VISUALSTYLE
  5
2B
102
{ACAD_REACTORS
330
2A
102
}
330
2A
100
AcDbVisualStyle
  2
Flat
 70
     0
177
     3
291
     1
 70
    58
 90
        2
176
     1
 90
        1
176
     1
 90
        1
176
     1
 90
        2
176
     1
 40
0.6
176
     1
 40
30.0
176
     1
 62
     7
420
 16777215
176
     1
 90
        0
176
     1
 90
        0
176
     1
 62
     7
176
     1
 62
   257
176
     1
 90
        1
176
     1
 90
        1
176
     1
 40
1.0
176
     1
 90
        8
176
     1
 62
     7
176
     1
 40
1.0
176
     1
 90
        1
176
     1
 90
        6
176
     1
 90
        2
176
     1
 62
     7
176
     1
 90
        5
176
     1
 90
        0
176
     1
 90
        0
176
     1
290
     0
176
     1
 90
       13
176
     1
 40
0.0
176
     1
 90
        0
176
     1
290
     0
176
     1
290
     1
176
     1
290
     1
176
     1
290
     0
176
     1
290
     0
176
     1
290
     0
176
     1
290
     0
176
     1
290
     0
176
     1
290
     0
176
     1
 90
       50
176
     1
 40
0.0
176
     1
 40
1.0
176
     1
 90
        0
176
     1
 62
    18
420
        0
176
     1
 90
       50
176
     1
 90
        3
176
     1
 62
     5
420
      255
176
     1
290
     0
176
     1
 90
       50
176
     1
 90
       50
176
     1
 90
       50
176
     1
290
     0
176
     1
 90
       50
176
     1
 62
   256
176
     0
 40
1.0
176
     0
 90
        2
176
     1
  1
strokes_ogs.tif
176
     1
290
     0
176
     1
 40
1.0
176
     1
 40
1.0
176
     1
  0
VISUALSTYLE
  5
2C
102
{ACAD_REACTORS
330
2A
102
}
330
2A
100
AcDbVisualStyle
  2
FlatWithEdges
 70
     1
177
     3
291
     1
 70
    58
 90
        2
176
     1
 90
        1
176
     1
 90
        1
176
     1
 90
        2
176
     1
 40
0.6
176
     1
 40
30.0
176
     1
 62
     7
420
 16777215
176
     1
 90
        1
176
     1
 90
        0
176
     1
 62
     7
176
     1
 62
   257
176
     1
 90
        1
176
     1
 90
        1
176
     1
 40
1.0
176
     1
 90
        0
176
     1
 62
   257
176
     1
 40
1.0
176
     1
 90
        1
176
     1
 90
        6
176
     1
 90
        2
176
     1
 62
     7
176
     1
 90
        5
176
     1
 90
        0
176
     1
 90
        0
176
     1
290
     0
176
     1
 90
       13
176
     1
 40
0.0
176
     1
 90
        0
176
     1
290
     0
176
     1
290
     1
176
     1
290
     1
176
     1
290
     0
176
     1
290
     0
176
     1
290
     0
176
     1
290
     0
176
     1
290
     0
176
     1
290
     0
176
     1
 90
       50
176
     1
 40
0.0
176
     1
 40
1.0
176
     1
 90
        0
176
     1
 62
    18
420
        0
176
     1
 90
       50
176
     1
 90
        3
176
     1
 62
     5
420
      255
176
     1
290
     0
176
     1
 90
       50
176
     1
 90
       50
176
     1
 90
       50
176
     1
290
     0
176
     1
 90
       50
176
     1
 62
   256
176
     0
 40
1.0
176
     0
 90
        2
176
     1
  1
strokes_ogs.tif
176
     1
290
     0
176
     1
 40
1.0
176
     1
 40
1.0
176
     1
  0
VISUALSTYLE
  5
2D
102
{ACAD_REACTORS
330
2A
102
}
330
2A
100
AcDbVisualStyle
  2
Gouraud
 70
     2
177
     3
291
     1
 70
    58
 90
        2
176
     1
 90
        2
176
     1
 90
        1
176
     1
 90
        2
176
     1
 40
0.6
176
     1
 40
30.0
176
     1
 62
     7
420
 16777215
176
     1
 90
        0
176
     1
 90
        0
176
     1
 62
     7
176
     1
 62
   257
176
     1
 90
        1
176
     1
 90
        1
176
     1
 40
1.0
176
     1
 90
        0
176
     1
 62
     7
176
     1
 40
1.0
176
     1
 90
        1
176
     1
 90
        6
176
     1
 90
        2
176
     1
 62
     7
176
     1
 90
        5
176
     1
 90
        0
176
     1
 90
        0
176
     1
290
     0
176
     1
 90
       13
176
     1
 40
0.0
176
     1
 90
        0
176
     1
290
     0
176
     1
290
     1
176
     1
290
     1
176
     1
290
     0
176
     1
290
     0
176
     1
290
     0
176
     1
290
     0
176
     1
290
     0
176
     1
290
     0
176
     1
 90
       50
176
     1
 40
0.0
176
     1
 40
1.0
176
     1
 90
        0
176
     1
 62
    18
420
        0
176
     1
 90
       50
176
     1
 90
        3
176
     1
 62
     5
420
      255
176
     1
290
     0
176
     1
 90
       50
176
     1
 90
       50
176
     1
 90
       50
176
     1
290
     0
176
     1
 90
       50
176
     1
 62
   256
176
     0
 40
1.0
176
     0
 90
        2
176
     1
  1
strokes_ogs.tif
176
     1
290
     0
176
     1
 40
1.0
176
     1
 40
1.0
176
     1
  0
VISUALSTYLE
  5
2E
102
{ACAD_REACTORS
330
2A
102
}
330
2A
100
AcDbVisualStyle
  2
GouraudWithEdges
 70
     3
177
     3
291
     1
 70
    58
 90
        2
176
     1
 90
        2
176
     1
 90
        1
176
     1
 90
        2
176
     1
 40
0.6
176
     1
 40
30.0
176
     1
 62
     7
420
 16777215
176
     1
 90
        1
176
     1
 90
        0
176
     1
 62
     7
176
     1
 62
   257
176
     1
 90
        1
176
     1
 90
        1
176
     1
 40
1.0
176
     1
 90
        0
176
     1
 62
   257
176
     1
 40
1.0
176
     1
 90
        1
176
     1
 90
        6
176
     1
 90
        2
176
     1
 62
     7
176
     1
 90
        5
176
     1
 90
        0
176
     1
 90
        0
176
     1
290
     0
176
     1
 90
       13
176
     1
 40
0.0
176
     1
 90
        0
176
     1
290
     0
176
     1
290
     1
176
     1
290
     1
176
     1
290
     0
176
     1
290
     0
176
     1
290
     0
176
     1
290
     0
176
     1
290
     0
176
     1
290
     0
176
     1
 90
       50
176
     1
 40
0.0
176
     1
 40
1.0
176
     1
 90
        0
176
     1
 62
    18
420
        0
176
     1
 90
       50
176
     1
 90
        3
176
     1
 62
     5
420
      255
176
     1
290
     0
176
     1
 90
       50
176
     1
 90
       50
176
     1
 90
       50
176
     1
290
     0
176
     1
 90
       50
176
     1
 62
   256
176
     0
 40
1.0
176
     0
 90
        2
176
     1
  1
strokes_ogs.tif
176
     1
290
     0
176
     1
 40
1.0
176
     1
 40
1.0
176
     1
  0
VISUALSTYLE
  5
31
102
{ACAD_REACTORS
330
2A
102
}
330
2A
100
AcDbVisualStyle
  2
Hidden
 70
     6
177
     3
291
     0
 70
    58
 90
        1
176
     1
 90
        2
176
     1
 90
        2
176
     1
 90
        0
176
     1
 40
0.6
176
     1
 40
30.0
176
     1
 62
     7
420
 16777215
176
     1
 90
        2
176
     1
 90
        2
176
     1
 62
     7
176
     1
 62
   257
176
     1
 90
        2
176
     1
 90
        1
176
     1
 40
40.0
176
     1
 90
        0
176
     1
 62
   257
176
     1
 40
1.0
176
     1
 90
        1
176
     1
 90
        6
176
     1
 90
        2
176
     1
 62
     7
176
     1
 90
        3
176
     1
 90
        0
176
     1
 90
        0
176
     1
290
     0
176
     1
 90
        1
176
     1
 40
0.0
176
     1
 90
        0
176
     1
290
     0
176
     1
290
     1
176
     1
290
     1
176
     1
290
     0
176
     1
290
     0
176
     1
290
     0
176
     1
290
     0
176
     1
290
     0
176
     1
290
     0
176
     1
 90
       50
176
     1
 40
0.0
176
     1
 40
1.0
176
     1
 90
        0
176
     1
 62
    18
420
        0
176
     1
 90
       50
176
     1
 90
        3
176
     1
 62
     5
420
      255
176
     1
290
     0
176
     1
 90
       50
176
     1
 90
       50
176
     1
 90
       50
176
     1
290
     0
176
     1
 90
       50
176
     1
 62
   256
176
     0
 40
1.0
176
     0
 90
        2
176
     1
  1
strokes_ogs.tif
176
     1
290
     0
176
     1
 40
1.0
176
     1
 40
1.0
176
     1
  0
VISUALSTYLE
  5
3B
102
{ACAD_REACTORS
330
2A
102
}
330
2A
100
AcDbVisualStyle
  2
JitterOff
 70
    20
177
     3
291
     1
 70
    58
 90
        2
176
     0
 90
        2
176
     0
 90
        0
176
     0
 90
        0
176
     0
 40
0.6
176
     0
 40
30.0
176
     0
 62
     7
420
 16777215
176
     0
 90
        1
176
     0
 90
        4
176
     0
 62
     7
176
     0
 62
   257
176
     0
 90
        1
176
     0
 90
        1
176
     0
 40
1.0
176
     0
 90
       10
176
     2
 62
     7
176
     0
 40
1.0
176
     0
 90
        1
176
     0
 90
        6
176
     0
 90
        2
176
     0
 62
     7
176
     0
 90
        5
176
     0
 90
        0
176
     0
 90
        0
176
     0
290
     0
176
     0
 90
        1
176
     0
 40
0.0
176
     0
 90
        0
176
     0
290
     0
176
     0
290
     1
176
     0
290
     1
176
     0
290
     0
176
     0
290
     0
176
     0
290
     0
176
     0
290
     0
176
     0
290
     0
176
     0
290
     0
176
     0
 90
       50
176
     0
 40
0.0
176
     0
 40
1.0
176
     0
 90
        0
176
     0
 62
    18
420
        0
176
     0
 90
       50
176
     0
 90
        3
176
     0
 62
     5
420
      255
176
     0
290
     0
176
     0
 90
       50
176
     0
 90
       50
176
     0
 90
       50
176
     0
290
     0
176
     0
 90
       50
176
     0
 62
   256
176
     0
 40
1.0
176
     0
 90
        2
176
     0
  1
strokes_ogs.tif
176
     0
290
     0
176
     0
 40
1.0
176
     0
 40
1.0
176
     0
  0
VISUALSTYLE
  5
38
102
{ACAD_REACTORS
330
2A
102
}
330
2A
100
AcDbVisualStyle
  2
Linepattern
 70
    14
177
     3
291
     1
 70
    58
 90
        2
176
     1
 90
        2
176
     1
 90
        0
176
     1
 90
        0
176
     1
 40
0.6
176
     1
 40
30.0
176
     1
 62
     7
420
 16777215
176
     1
 90
        1
176
     1
 90
        4
176
     1
 62
     7
176
     1
 62
   257
176
     1
 90
        7
176
     1
 90
        7
176
     1
 40
1.0
176
     1
 90
        8
176
     1
 62
     7
176
     1
 40
1.0
176
     1
 90
        1
176
     1
 90
        6
176
     1
 90
        2
176
     1
 62
     7
176
     1
 90
        5
176
     1
 90
        0
176
     1
 90
        0
176
     1
290
     0
176
     1
 90
        1
176
     1
 40
0.0
176
     1
 90
        0
176
     1
290
     0
176
     1
290
     1
176
     1
290
     1
176
     1
290
     0
176
     1
290
     0
176
     1
290
     0
176
     1
290
     0
176
     1
290
     0
176
     1
290
     0
176
     1
 90
       50
176
     1
 40
0.0
176
     1
 40
1.0
176
     1
 90
        0
176
     1
 62
    18
420
        0
176
     1
 90
       50
176
     1
 90
        3
176
     1
 62
     5
420
      255
176
     1
290
     0
176
     1
 90
       50
176
     1
 90
       50
176
     1
 90
       50
176
     1
290
     0
176
     1
 90
       50
176
     1
 62
   256
176
     0
 40
1.0
176
     0
 90
        2
176
     1
  1
strokes_ogs.tif
176
     1
290
     0
176
     1
 40
1.0
176
     1
 40
1.0
176
     1
  0
VISUALSTYLE
  5
3C
102
{ACAD_REACTORS
330
2A
102
}
330
2A
100
AcDbVisualStyle
  2
OverhangOff
 70
    21
177
     3
291
     1
 70
    58
 90
        2
176
     0
 90
        2
176
     0
 90
        0
176
     0
 90
        0
176
     0
 40
0.6
176
     0
 40
30.0
176
     0
 62
     7
420
 16777215
176
     0
 90
        1
176
     0
 90
        4
176
     0
 62
     7
176
     0
 62
   257
176
     0
 90
        1
176
     0
 90
        1
176
     0
 40
1.0
176
     0
 90
        9
176
     2
 62
     7
176
     0
 40
1.0
176
     0
 90
        1
176
     0
 90
        6
176
     0
 90
        2
176
     0
 62
     7
176
     0
 90
        5
176
     0
 90
        0
176
     0
 90
        0
176
     0
290
     0
176
     0
 90
        1
176
     0
 40
0.0
176
     0
 90
        0
176
     0
290
     0
176
     0
290
     1
176
     0
290
     1
176
     0
290
     0
176
     0
290
     0
176
     0
290
     0
176
     0
290
     0
176
     0
290
     0
176
     0
290
     0
176
     0
 90
       50
176
     0
 40
0.0
176
     0
 40
1.0
176
     0
 90
        0
176
     0
 62
    18
420
        0
176
     0
 90
       50
176
     0
 90
        3
176
     0
 62
     5
420
      255
176
     0
290
     0
176
     0
 90
       50
176
     0
 90
       50
176
     0
 90
       50
176
     0
290
     0
176
     0
 90
       50
176
     0
 62
   256
176
     0
 40
1.0
176
     0
 90
        2
176
     0
  1
strokes_ogs.tif
176
     0
290
     0
176
     0
 40
1.0
176
     0
 40
1.0
176
     0
  0
VISUALSTYLE
  5
33
102
{ACAD_REACTORS
330
2A
102
}
330
2A
100
AcDbVisualStyle
  2
Realistic
 70
     8
177
     3
291
     0
 70
    58
 90
        2
176
     1
 90
        3
176
     1
 90
        0
176
     1
 90
        2
176
     1
 40
0.6
176
     1
 40
30.0
176
     1
 62
     7
420
 16777215
176
     1
 90
        0
176
     1
 90
        0
176
     1
 62
     7
176
     1
 62
   257
176
     1
 90
        1
176
     1
 90
        1
176
     1
 40
1.0
176
     1
 90
        8
176
     1
 62
   257
176
     1
 40
1.0
176
     1
 90
        1
176
     1
 90
        6
176
     1
 90
        2
176
     1
 62
     7
176
     1
 90
        3
176
     1
 90
        0
176
     1
 90
        0
176
     1
290
     0
176
     1
 90
       13
176
     1
 40
0.0
176
     1
 90
        0
176
     1
290
     0
176
     1
290
     1
176
     1
290
     1
176
     1
290
     0
176
     1
290
     0
176
     1
290
     0
176
     1
290
     0
176
     1
290
     0
176
     1
290
     0
176
     1
 90
       50
176
     1
 40
0.0
176
     1
 40
1.0
176
     1
 90
        0
176
     1
 62
    18
420
        0
176
     1
 90
       50
176
     1
 90
        3
176
     1
 62
     5
420
      255
176
     1
290
     0
176
     1
 90
       50
176
     1
 90
       50
176
     1
 90
       50
176
     1
290
     0
176
     1
 90
       50
176
     1
 62
   256
176
     0
 40
1.0
176
     0
 90
        2
176
     1
  1
strokes_ogs.tif
176
     1
290
     0
176
     1
 40
1.0
176
     1
 40
1.0
176
     1
  0
VISUALSTYLE
  5
42
102
{ACAD_REACTORS
330
2A
102
}
330
2A
100
AcDbVisualStyle
  2
Shaded
 70
    27
177
     3
291
     0
 70
    58
 90
        2
176
     1
 90
        2
176
     1
 90
        1
176
     1
 90
        2
176
     1
 40
0.6
176
     1
 40
30.0
176
     1
 62
     7
420
 16777215
176
     1
 90
        0
176
     1
 90
        4
176
     1
 62
     7
176
     1
 62
   257
176
     1
 90
        1
176
     1
 90
        1
176
     1
 40
1.0
176
     1
 90
        8
176
     1
 62
   257
176
     1
 40
1.0
176
     1
 90
        1
176
     1
 90
        6
176
     1
 90
        2
176
     1
 62
     8
420
  7895160
176
     1
 90
        3
176
     1
 90
        0
176
     1
 90
        0
176
     1
290
     0
176
     1
 90
        5
176
     1
 40
0.0
176
     1
 90
        0
176
     1
290
     0
176
     1
290
     1
176
     1
290
     1
176
     1
290
     0
176
     1
290
     0
176
     1
290
     0
176
     1
290
     0
176
     1
290
     0
176
     1
290
     0
176
     1
 90
       50
176
     1
 40
0.0
176
     1
 40
1.0
176
     1
 90
        0
176
     1
 62
    18
420
        0
176
     1
 90
       50
176
     1
 90
        3
176
     1
 62
     5
420
      255
176
     1
290
     0
176
     1
 90
       50
176
     1
 90
       50
176
     1
 90
       50
176
     1
290
     0
176
     1
 90
       50
176
     1
 62
   256
176
     0
 40
1.0
176
     0
 90
        2
176
     1
  1
strokes_ogs.tif
176
     1
290
     0
176
     1
 40
1.0
176
     1
 40
1.0
176
     1
  0
VISUALSTYLE
  5
41
102
{ACAD_REACTORS
330
2A
102
}
330
2A
100
AcDbVisualStyle
  2
Shaded with edges
 70
    26
177
     3
291
     0
 70
    58
 90
        2
176
     1
 90
        2
176
     1
 90
        1
176
     1
 90
        2
176
     1
 40
0.6
176
     1
 40
30.0
176
     1
 62
     7
420
 16777215
176
     1
 90
        1
176
     1
 90
       10
176
     1
 62
     7
176
     1
 62
   257
176
     1
 90
        2
176
     1
 90
        1
176
     1
 40
1.0
176
     1
 90
        8
176
     1
 62
   257
176
     1
 40
1.0
176
     1
 90
        1
176
     1
 90
        6
176
     1
 90
        2
176
     1
 62
     7
176
     1
 90
        3
176
     1
 90
        0
176
     1
 90
        0
176
     1
290
     0
176
     1
 90
        5
176
     1
 40
0.0
176
     1
 90
        0
176
     1
290
     0
176
     1
290
     1
176
     1
290
     1
176
     1
290
     0
176
     1
290
     0
176
     1
290
     0
176
     1
290
     0
176
     1
290
     0
176
     1
290
     0
176
     1
 90
       50
176
     1
 40
0.0
176
     1
 40
1.0
176
     1
 90
        0
176
     1
 62
    18
420
        0
176
     1
 90
       50
176
     1
 90
        3
176
     1
 62
     5
420
      255
176
     1
290
     0
176
     1
 90
       50
176
     1
 90
       50
176
     1
 90
       50
176
     1
290
     0
176
     1
 90
       50
176
     1
 62
   256
176
     0
 40
1.0
176
     0
 90
        2
176
     1
  1
strokes_ogs.tif
176
     1
290
     0
176
     1
 40
1.0
176
     1
 40
1.0
176
     1
  0
VISUALSTYLE
  5
3E
102
{ACAD_REACTORS
330
2A
102
}
330
2A
100
AcDbVisualStyle
  2
Shades of Gray
 70
    23
177
     3
291
     0
 70
    58
 90
        2
176
     1
 90
        2
176
     1
 90
        3
176
     1
 90
        0
176
     1
 40
0.6
176
     1
 40
30.0
176
     1
 62
     7
420
 16777215
176
     1
 90
        2
176
     1
 90
        2
176
     1
 62
     7
176
     1
 62
     7
176
     1
 90
        1
176
     1
 90
        1
176
     1
 40
40.0
176
     1
 90
        8
176
     1
 62
     7
176
     1
 40
1.0
176
     1
 90
        1
176
     1
 90
        6
176
     1
 90
        2
176
     1
 62
     7
176
     1
 90
        3
176
     1
 90
        0
176
     1
 90
        0
176
     1
290
     0
176
     1
 90
        1
176
     1
 40
0.0
176
     1
 90
        0
176
     1
290
     0
176
     1
290
     1
176
     1
290
     1
176
     1
290
     0
176
     1
290
     0
176
     1
290
     0
176
     1
290
     0
176
     1
290
     0
176
     1
290
     0
176
     1
 90
       50
176
     1
 40
0.0
176
     1
 40
1.0
176
     1
 90
        0
176
     1
 62
    18
420
        0
176
     1
 90
       50
176
     1
 90
        3
176
     1
 62
     5
420
      255
176
     1
290
     0
176
     1
 90
       50
176
     1
 90
       50
176
     1
 90
       50
176
     1
290
     0
176
     1
 90
       50
176
     1
 62
   256
176
     0
 40
1.0
176
     0
 90
        2
176
     1
  1
strokes_ogs.tif
176
     1
290
     0
176
     1
 40
1.0
176
     1
 40
1.0
176
     1
  0
VISUALSTYLE
  5
3F
102
{ACAD_REACTORS
330
2A
102
}
330
2A
100
AcDbVisualStyle
  2
Sketchy
 70
    24
177
     3
291
     0
 70
    58
 90
        1
176
     1
 90
        2
176
     1
 90
        2
176
     1
 90
        0
176
     1
 40
0.6
176
     1
 40
30.0
176
     1
 62
     7
420
 16777215
176
     1
 90
        2
176
     1
 90
        2
176
     1
 62
     7
176
     1
 62
     7
176
     1
 90
        1
176
     1
 90
        1
176
     1
 40
40.0
176
     1
 90
       11
176
     1
 62
     7
176
     1
 40
1.0
176
     1
 90
        1
176
     1
 90
        6
176
     1
 90
        2
176
     1
 62
     7
176
     1
 90
        6
176
     1
 90
        0
176
     1
 90
        0
176
     1
290
     0
176
     1
 90
        1
176
     1
 40
0.0
176
     1
 90
        0
176
     1
290
     0
176
     1
290
     1
176
     1
290
     1
176
     1
290
     0
176
     1
290
     0
176
     1
290
     0
176
     1
290
     0
176
     1
290
     0
176
     1
290
     0
176
     1
 90
       50
176
     1
 40
0.0
176
     1
 40
1.0
176
     1
 90
        0
176
     1
 62
    18
420
        0
176
     1
 90
       50
176
     1
 90
        3
176
     1
 62
     5
420
      255
176
     1
290
     0
176
     1
 90
       50
176
     1
 90
       50
176
     1
 90
       50
176
     1
290
     0
176
     1
 90
       50
176
     1
 62
   256
176
     0
 40
1.0
176
     0
 90
        2
176
     1
  1
strokes_ogs.tif
176
     1
290
     0
176
     1
 40
1.0
176
     1
 40
1.0
176
     1
  0
VISUALSTYLE
  5
37
102
{ACAD_REACTORS
330
2A
102
}
330
2A
100
AcDbVisualStyle
  2
Thicken
 70
    13
177
     3
291
     1
 70
    58
 90
        2
176
     1
 90
        2
176
     1
 90
        0
176
     1
 90
        0
176
     1
 40
0.6
176
     1
 40
30.0
176
     1
 62
     7
420
 16777215
176
     1
 90
        1
176
     1
 90
        4
176
     1
 62
     7
176
     1
 62
   257
176
     1
 90
        1
176
     1
 90
        1
176
     1
 40
1.0
176
     1
 90
       12
176
     1
 62
     7
176
     1
 40
1.0
176
     1
 90
        1
176
     1
 90
        6
176
     1
 90
        2
176
     1
 62
     7
176
     1
 90
        5
176
     1
 90
        0
176
     1
 90
        0
176
     1
290
     0
176
     1
 90
        1
176
     1
 40
0.0
176
     1
 90
        0
176
     1
290
     0
176
     1
290
     1
176
     1
290
     1
176
     1
290
     0
176
     1
290
     0
176
     1
290
     0
176
     1
290
     0
176
     1
290
     0
176
     1
290
     0
176
     1
 90
       50
176
     1
 40
0.0
176
     1
 40
1.0
176
     1
 90
        0
176
     1
 62
    18
420
        0
176
     1
 90
       50
176
     1
 90
        3
176
     1
 62
     5
420
      255
176
     1
290
     0
176
     1
 90
       50
176
     1
 90
       50
176
     1
 90
       50
176
     1
290
     0
176
     1
 90
       50
176
     1
 62
   256
176
     0
 40
1.0
176
     0
 90
        2
176
     1
  1
strokes_ogs.tif
176
     1
290
     0
176
     1
 40
1.0
176
     1
 40
1.0
176
     1
  0
VISUALSTYLE
  5
30
102
{ACAD_REACTORS
330
2A
102
}
330
2A
100
AcDbVisualStyle
  2
Wireframe
 70
     5
177
     3
291
     0
 70
    58
 90
        0
176
     1
 90
        2
176
     1
 90
        0
176
     1
 90
        0
176
     1
 40
0.6
176
     1
 40
30.0
176
     1
 62
     7
420
 16777215
176
     1
 90
        1
176
     1
 90
        4
176
     1
 62
     7
176
     1
 62
   257
176
     1
 90
        1
176
     1
 90
        1
176
     1
 40
1.0
176
     1
 90
        0
176
     1
 62
   257
176
     1
 40
1.0
176
     1
 90
        1
176
     1
 90
        6
176
     1
 90
        2
176
     1
 62
     7
176
     1
 90
        3
176
     1
 90
        0
176
     1
 90
        0
176
     1
290
     0
176
     1
 90
        1
176
     1
 40
0.0
176
     1
 90
        0
176
     1
290
     0
176
     1
290
     1
176
     1
290
     1
176
     1
290
     0
176
     1
290
     0
176
     1
290
     0
176
     1
290
     0
176
     1
290
     0
176
     1
290
     0
176
     1
 90
       50
176
     1
 40
0.0
176
     1
 40
1.0
176
     1
 90
        0
176
     1
 62
    18
420
        0
176
     1
 90
       50
176
     1
 90
        3
176
     1
 62
     5
420
      255
176
     1
290
     0
176
     1
 90
       50
176
     1
 90
       50
176
     1
 90
       50
176
     1
290
     0
176
     1
 90
       50
176
     1
 62
   256
176
     0
 40
1.0
176
     0
 90
        2
176
     1
  1
strokes_ogs.tif
176
     1
290
     0
176
     1
 40
1.0
176
     1
 40
1.0
176
     1
  0
VISUALSTYLE
  5
40
102
{ACAD_REACTORS
330
2A
102
}
330
2A
100
AcDbVisualStyle
  2
X-Ray
 70
    25
177
     3
291
     0
 70
    58
 90
        2
176
     1
 90
        2
176
     1
 90
        1
176
     1
 90
        1
176
     1
 40
0.5
176
     1
 40
30.0
176
     1
 62
     7
420
 16777215
176
     1
 90
        1
176
     1
 90
        0
176
     1
 62
     7
176
     1
 62
   257
176
     1
 90
        1
176
     1
 90
        1
176
     1
 40
1.0
176
     1
 90
        8
176
     1
 62
     7
176
     1
 40
1.0
176
     1
 90
        1
176
     1
 90
        6
176
     1
 90
        2
176
     1
 62
     7
176
     1
 90
        3
176
     1
 90
        0
176
     1
 90
        0
176
     1
290
     0
176
     1
 90
       13
176
     1
 40
0.0
176
     1
 90
        0
176
     1
290
     0
176
     1
290
     1
176
     1
290
     1
176
     1
290
     0
176
     1
290
     0
176
     1
290
     0
176
     1
290
     0
176
     1
290
     0
176
     1
290
     0
176
     1
 90
       50
176
     1
 40
0.0
176
     1
 40
1.0
176
     1
 90
        0
176
     1
 62
    18
420
        0
176
     1
 90
       50
176
     1
 90
        3
176
     1
 62
     5
420
      255
176
     1
290
     0
176
     1
 90
       50
176
     1
 90
       50
176
     1
 90
       50
176
     1
290
     0
176
     1
 90
       50
176
     1
 62
   256
176
     0
 40
1.0
176
     0
 90
        2
176
     1
  1
strokes_ogs.tif
176
     1
290
     0
176
     1
 40
1.0
176
     1
 40
1.0
176
     1
  0
DICTIONARYVAR
  5
E3
102
{ACAD_REACTORS
330
E2
102
}
330
E2
100
DictionaryVariables
280
     0
  1
1:1
  0
ENDSEC
  0
EOF
