  0
SECTION
  2
HEADER
  9
$ACADVER
  1
AC1027
  9
$ACADMAINTVER
 70
     8
  9
$DWGCODEPAGE
  3
ANSI_1252
  9
$REQUIREDVERSIONS
160
                 0
  9
$COMMENTS
  1
File was created by SpaceClaim
  9
$INSBASE
 10
0.0
 20
0.0
 30
0.0
  9
$EXTMIN
 10
-27.30046309965369
 20
7.306238981072314
 30
-108.1044266411082
  9
$EXTMAX
 10
81.62573518869488
 20
139.3064166783153
 30
-51.7952590786243
  9
$LIMMIN
 10
0.0
 20
0.0
  9
$LIMMAX
 10
420.0
 20
297.0
  9
$ORTHOMODE
 70
     0
  9
$REGENMODE
 70
     1
  9
$FILLMODE
 70
     1
  9
$QTEXTMODE
 70
     0
  9
$MIRRTEXT
 70
     1
  9
$LTSCALE
 40
1.0
  9
$ATTMODE
 70
     1
  9
$TEXTSIZE
 40
2.5
  9
$TRACEWID
 40
1.0
  9
$TEXTSTYLE
  7
Standard
  9
$CLAYER
  8
0
  9
$CELTYPE
  6
ByLayer
  9
$CECOLOR
 62
   256
  9
$CELTSCALE
 40
1.0
  9
$DISPSILH
 70
     0
  9
$DIMSCALE
 40
1.0
  9
$DIMASZ
 40
2.5
  9
$DIMEXO
 40
0.625
  9
$DIMDLI
 40
3.75
  9
$DIMRND
 40
0.0
  9
$DIMDLE
 40
0.0
  9
$DIMEXE
 40
1.25
  9
$DIMTP
 40
0.0
  9
$DIMTM
 40
0.0
  9
$DIMTXT
 40
2.5
  9
$DIMCEN
 40
2.5
  9
$DIMTSZ
 40
0.0
  9
$DIMTOL
 70
     0
  9
$DIMLIM
 70
     0
  9
$DIMTIH
 70
     1
  9
$DIMTOH
 70
     0
  9
$DIMSE1
 70
     0
  9
$DIMSE2
 70
     0
  9
$DIMTAD
 70
     1
  9
$DIMZIN
 70
     8
  9
$DIMBLK
  1

  9
$DIMASO
 70
     1
  9
$DIMSHO
 70
     1
  9
$DIMPOST
  1
mm
  9
$DIMAPOST
  1

  9
$DIMALT
 70
     0
  9
$DIMALTD
 70
     3
  9
$DIMALTF
 40
0.0393700787401575
  9
$DIMLFAC
 40
1.0
  9
$DIMTOFL
 70
     1
  9
$DIMTVP
 40
0.0
  9
$DIMTIX
 70
     0
  9
$DIMSOXD
 70
     0
  9
$DIMSAH
 70
     0
  9
$DIMBLK1
  1

  9
$DIMBLK2
  1

  9
$DIMSTYLE
  2
ISO-25
  9
$DIMCLRD
 70
     0
  9
$DIMCLRE
 70
     0
  9
$DIMCLRT
 70
     0
  9
$DIMTFAC
 40
1.0
  9
$DIMGAP
 40
0.625
  9
$DIMJUST
 70
     0
  9
$DIMSD1
 70
     0
  9
$DIMSD2
 70
     0
  9
$DIMTOLJ
 70
     0
  9
$DIMTZIN
 70
     8
  9
$DIMALTZ
 70
     0
  9
$DIMALTTZ
 70
     8
  9
$DIMUPT
 70
     0
  9
$DIMDEC
 70
     3
  9
$DIMTDEC
 70
     3
  9
$DIMALTU
 70
     2
  9
$DIMALTTD
 70
     3
  9
$DIMTXSTY
  7
Standard
  9
$DIMAUNIT
 70
     0
  9
$DIMADEC
 70
     1
  9
$DIMALTRND
 40
0.0
  9
$DIMAZIN
 70
     0
  9
$DIMDSEP
 70
    46
  9
$DIMATFIT
 70
     3
  9
$DIMFRAC
 70
     0
  9
$DIMLDRBLK
  1

  9
$DIMLUNIT
 70
     2
  9
$DIMLWD
 70
    -2
  9
$DIMLWE
 70
    -2
  9
$DIMTMOVE
 70
     0
  9
$DIMFXL
 40
1.0
  9
$DIMFXLON
 70
     0
  9
$DIMJOGANG
 40
0.7853981633974483
  9
$DIMTFILL
 70
     0
  9
$DIMTFILLCLR
 70
     0
  9
$DIMARCSYM
 70
     0
  9
$DIMLTYPE
  6

  9
$DIMLTEX1
  6

  9
$DIMLTEX2
  6

  9
$DIMTXTDIRECTION
 70
     0
  9
$LUNITS
 70
     2
  9
$LUPREC
 70
     4
  9
$SKETCHINC
 40
1.0
  9
$FILLETRAD
 40
10.0
  9
$AUNITS
 70
     0
  9
$AUPREC
 70
     0
  9
$MENU
  1
.
  9
$ELEVATION
 40
0.0
  9
$PELEVATION
 40
0.0
  9
$THICKNESS
 40
0.0
  9
$LIMCHECK
 70
     0
  9
$CHAMFERA
 40
0.0
  9
$CHAMFERB
 40
0.0
  9
$CHAMFERC
 40
0.0
  9
$CHAMFERD
 40
0.0
  9
$SKPOLY
 70
     0
  9
$TDCREATE
 40
2457944.783408947
  9
$TDUCREATE
 40
2457944.950075613
  9
$TDUPDATE
 40
2457944.783409178
  9
$TDUUPDATE
 40
2457944.950075845
  9
$TDINDWG
 40
0.0000000116
  9
$TDUSRTIMER
 40
0.0000000116
  9
$USRTIMER
 70
     1
  9
$ANGBASE
 50
0.0
  9
$ANGDIR
 70
     0
  9
$PDMODE
 70
     0
  9
$PDSIZE
 40
0.0
  9
$PLINEWID
 40
0.0
  9
$SPLFRAME
 70
     0
  9
$SPLINETYPE
 70
     6
  9
$SPLINESEGS
 70
     8
  9
$HANDSEED
  5
17D
  9
$SURFTAB1
 70
     6
  9
$SURFTAB2
 70
     6
  9
$SURFTYPE
 70
     6
  9
$SURFU
 70
     6
  9
$SURFV
 70
     6
  9
$UCSBASE
  2

  9
$UCSNAME
  2

  9
$UCSORG
 10
0.0
 20
0.0
 30
0.0
  9
$UCSXDIR
 10
1.0
 20
0.0
 30
0.0
  9
$UCSYDIR
 10
0.0
 20
1.0
 30
0.0
  9
$UCSORTHOREF
  2

  9
$UCSORTHOVIEW
 70
     0
  9
$UCSORGTOP
 10
0.0
 20
0.0
 30
0.0
  9
$UCSORGBOTTOM
 10
0.0
 20
0.0
 30
0.0
  9
$UCSORGLEFT
 10
0.0
 20
0.0
 30
0.0
  9
$UCSORGRIGHT
 10
0.0
 20
0.0
 30
0.0
  9
$UCSORGFRONT
 10
0.0
 20
0.0
 30
0.0
  9
$UCSORGBACK
 10
0.0
 20
0.0
 30
0.0
  9
$PUCSBASE
  2

  9
$PUCSNAME
  2

  9
$PUCSORG
 10
0.0
 20
0.0
 30
0.0
  9
$PUCSXDIR
 10
1.0
 20
0.0
 30
0.0
  9
$PUCSYDIR
 10
0.0
 20
1.0
 30
0.0
  9
$PUCSORTHOREF
  2

  9
$PUCSORTHOVIEW
 70
     0
  9
$PUCSORGTOP
 10
0.0
 20
0.0
 30
0.0
  9
$PUCSORGBOTTOM
 10
0.0
 20
0.0
 30
0.0
  9
$PUCSORGLEFT
 10
0.0
 20
0.0
 30
0.0
  9
$PUCSORGRIGHT
 10
0.0
 20
0.0
 30
0.0
  9
$PUCSORGFRONT
 10
0.0
 20
0.0
 30
0.0
  9
$PUCSORGBACK
 10
0.0
 20
0.0
 30
0.0
  9
$USERI1
 70
     0
  9
$USERI2
 70
     0
  9
$USERI3
 70
     0
  9
$USERI4
 70
     0
  9
$USERI5
 70
     0
  9
$USERR1
 40
0.0
  9
$USERR2
 40
0.0
  9
$USERR3
 40
0.0
  9
$USERR4
 40
0.0
  9
$USERR5
 40
0.0
  9
$WORLDVIEW
 70
     1
  9
$SHADEDGE
 70
     3
  9
$SHADEDIF
 70
    70
  9
$TILEMODE
 70
     1
  9
$MAXACTVP
 70
    64
  9
$PINSBASE
 10
0.0
 20
0.0
 30
0.0
  9
$PLIMCHECK
 70
     0
  9
$PEXTMIN
 10
1.000000000000000E+20
 20
1.000000000000000E+20
 30
1.000000000000000E+20
  9
$PEXTMAX
 10
-1.000000000000000E+20
 20
-1.000000000000000E+20
 30
-1.000000000000000E+20
  9
$PLIMMIN
 10
0.0
 20
0.0
  9
$PLIMMAX
 10
420.0
 20
297.0
  9
$UNITMODE
 70
     0
  9
$VISRETAIN
 70
     1
  9
$PLINEGEN
 70
     0
  9
$PSLTSCALE
 70
     1
  9
$TREEDEPTH
 70
  3020
  9
$CMLSTYLE
  2
Standard
  9
$CMLJUST
 70
     0
  9
$CMLSCALE
 40
20.0
  9
$PROXYGRAPHICS
 70
     1
  9
$MEASUREMENT
 70
     1
  9
$CELWEIGHT
370
    -1
  9
$ENDCAPS
280
     0
  9
$JOINSTYLE
280
     0
  9
$LWDISPLAY
290
     0
  9
$INSUNITS
 70
     4
  9
$HYPERLINKBASE
  1

  9
$STYLESHEET
  1

  9
$XEDIT
290
     1
  9
$CEPSNTYPE
380
     0
  9
$PSTYLEMODE
290
     1
  9
$FINGERPRINTGUID
  2
{084F3D7E-D59D-4F8A-BFD7-6E3A80FF9C8D}
  9
$VERSIONGUID
  2
{FAEB1C32-E019-11D5-929B-00C0DF256EC4}
  9
$EXTNAMES
290
     1
  9
$PSVPSCALE
 40
0.0
  9
$OLESTARTUP
290
     0
  9
$SORTENTS
280
   127
  9
$INDEXCTL
280
     0
  9
$HIDETEXT
280
     1
  9
$XCLIPFRAME
280
     2
  9
$HALOGAP
280
     0
  9
$OBSCOLOR
 70
   257
  9
$OBSLTYPE
280
     0
  9
$INTERSECTIONDISPLAY
280
     0
  9
$INTERSECTIONCOLOR
 70
   257
  9
$DIMASSOC
280
     2
  9
$PROJECTNAME
  1

  9
$CAMERADISPLAY
290
     0
  9
$LENSLENGTH
 40
50.0
  9
$CAMERAHEIGHT
 40
0.0
  9
$STEPSPERSEC
 40
2.0
  9
$STEPSIZE
 40
6.0
  9
$3DDWFPREC
 40
2.0
  9
$PSOLWIDTH
 40
5.0
  9
$PSOLHEIGHT
 40
80.0
  9
$LOFTANG1
 40
1.570796326794897
  9
$LOFTANG2
 40
1.570796326794897
  9
$LOFTMAG1
 40
0.0
  9
$LOFTMAG2
 40
0.0
  9
$LOFTPARAM
 70
     7
  9
$LOFTNORMALS
280
     1
  9
$LATITUDE
 40
37.795
  9
$LONGITUDE
 40
-122.394
  9
$NORTHDIRECTION
 40
0.0
  9
$TIMEZONE
 70
 -8000
  9
$LIGHTGLYPHDISPLAY
280
     1
  9
$TILEMODELIGHTSYNCH
280
     1
  9
$CMATERIAL
347
44
  9
$SOLIDHIST
280
     1
  9
$SHOWHIST
280
     1
  9
$DWFFRAME
280
     2
  9
$DGNFRAME
280
     2
  9
$REALWORLDSCALE
290
     1
  9
$INTERFERECOLOR
 62
   256
  9
$CSHADOW
280
     0
  9
$SHADOWPLANELOCATION
 40
0.0
  0
ENDSEC
  0
SECTION
  2
CLASSES
  0
CLASS
  1
ACDBDICTIONARYWDFLT
  2
AcDbDictionaryWithDefault
  3
ObjectDBX Classes
 90
        0
 91
        4
280
     0
281
     0
  0
CLASS
  1
VISUALSTYLE
  2
AcDbVisualStyle
  3
ObjectDBX Classes
 90
     4095
 91
        4
280
     0
281
     0
  0
CLASS
  1
MATERIAL
  2
AcDbMaterial
  3
ObjectDBX Classes
 90
     1153
 91
        4
280
     0
281
     0
  0
CLASS
  1
SCALE
  2
AcDbScale
  3
ObjectDBX Classes
 90
     1153
 91
        4
280
     0
281
     0
  0
CLASS
  1
SUN
  2
AcDbSun
  3
SCENEOE
 90
     1153
 91
        4
280
     0
281
     0
  0
CLASS
  1
DICTIONARYVAR
  2
AcDbDictionaryVar
  3
ObjectDBX Classes
 90
        0
 91
        4
280
     0
281
     0
  0
ENDSEC
  0
SECTION
  2
TABLES
  0
TABLE
  2
VPORT
  5
8
330
0
100
AcDbSymbolTable
 70
     1
  0
VPORT
  5
29
330
8
100
AcDbSymbolTableRecord
100
AcDbViewportTableRecord
  2
*Active
 70
     0
 10
0.0
 20
0.0
 11
1.0
 21
1.0
 12
27.1626360445206
 22
73.30632782969379
 13
0.0
 23
0.0
 14
10.0
 24
10.0
 15
10.0
 25
10.0
 16
0.0
 26
0.0
 36
1.0
 17
0.0
 27
0.0
 37
0.0
 40
132.0001776972429
 41
0.8251973610079744
 42
50.0
 43
0.0
 44
0.0
 50
0.0
 51
0.0
 71
     0
 72
   100
 73
     1
 74
     3
 75
     0
 76
     0
 77
     0
 78
     0
281
     0
 65
     1
110
0.0
120
0.0
130
0.0
111
1.0
121
0.0
131
0.0
112
0.0
122
1.0
132
0.0
 79
     0
146
0.0
 60
     3
 61
     5
292
     1
282
     1
141
0.0
142
0.0
 63
   250
361
69
  0
ENDTAB
  0
TABLE
  2
LTYPE
  5
5
330
0
100
AcDbSymbolTable
 70
     2
  0
LTYPE
  5
14
330
5
100
AcDbSymbolTableRecord
100
AcDbLinetypeTableRecord
  2
ByBlock
 70
     0
  3

 72
    65
 73
     0
 40
0.0
  0
LTYPE
  5
15
330
5
100
AcDbSymbolTableRecord
100
AcDbLinetypeTableRecord
  2
ByLayer
 70
     0
  3

 72
    65
 73
     0
 40
0.0
  0
LTYPE
  5
16
330
5
100
AcDbSymbolTableRecord
100
AcDbLinetypeTableRecord
  2
Continuous
 70
     0
  3
Solid line
 72
    65
 73
     0
 40
0.0
  0
LTYPE
  5
E1
330
5
100
AcDbSymbolTableRecord
100
AcDbLinetypeTableRecord
  2
HIDDEN
 70
     0
  3
- - - - - - - - - - - - - - - - - - - - -
 72
    65
 73
     2
 40
9.524999999999999
 49
6.35
 74
     0
 49
-3.175
 74
     0
  0
ENDTAB
  0
TABLE
  2
LAYER
  5
2
330
0
100
AcDbSymbolTable
 70
     2
  0
LAYER
  5
10
330
2
100
AcDbSymbolTableRecord
100
AcDbLayerTableRecord
  2
0
 70
     0
 62
   253
420
  9416591
  6
Continuous
370
    70
390
F
347
46
348
0
  0
LAYER
  5
E0
330
2
100
AcDbSymbolTableRecord
100
AcDbLayerTableRecord
  2
Hidden
 70
     0
 62
    98
420
   346117
  6
HIDDEN
370
    70
390
F
347
46
348
0
  0
ENDTAB
  0
TABLE
  2
STYLE
  5
3
330
0
100
AcDbSymbolTable
 70
     1
  0
STYLE
  5
11
330
3
100
AcDbSymbolTableRecord
100
AcDbTextStyleTableRecord
  2
Standard
 70
     0
 40
0.0
 41
1.0
 50
0.0
 71
     0
 42
2.5
  3
txt
  4

  0
ENDTAB
  0
TABLE
  2
VIEW
  5
6
330
0
100
AcDbSymbolTable
 70
     0
  0
ENDTAB
  0
TABLE
  2
UCS
  5
7
330
0
100
AcDbSymbolTable
 70
     0
  0
ENDTAB
  0
TABLE
  2
APPID
  5
9
330
0
100
AcDbSymbolTable
 70
     1
  0
APPID
  5
12
330
9
100
AcDbSymbolTableRecord
100
AcDbRegAppTableRecord
  2
ACAD
 70
     0
  0
ENDTAB
  0
TABLE
  2
DIMSTYLE
  5
A
330
0
100
AcDbSymbolTable
 70
     1
100
AcDbDimStyleTable
  0
DIMSTYLE
105
27
330
A
100
AcDbSymbolTableRecord
100
AcDbDimStyleTableRecord
  2
ISO-25
 70
     0
 41
2.5
 42
0.625
 43
3.75
 44
1.25
 73
     0
 74
     0
 77
     1
 78
     8
140
2.5
141
2.5
143
0.03937007874016
147
0.625
171
     3
172
     1
178
     0
271
     2
272
     2
274
     3
278
    44
283
     0
284
     8
340
11
  0
ENDTAB
  0
TABLE
  2
BLOCK_RECORD
  5
1
330
0
100
AcDbSymbolTable
 70
     1
  0
BLOCK_RECORD
  5
1F
330
1
100
AcDbSymbolTableRecord
100
AcDbBlockTableRecord
  2
*Model_Space
340
22
 70
     0
280
     1
281
     0
  0
BLOCK_RECORD
  5
1B
330
1
100
AcDbSymbolTableRecord
100
AcDbBlockTableRecord
  2
*Paper_Space
340
1E
 70
     0
280
     1
281
     0
  0
BLOCK_RECORD
  5
23
330
1
100
AcDbSymbolTableRecord
100
AcDbBlockTableRecord
  2
*Paper_Space0
340
26
 70
     0
280
     1
281
     0
  0
ENDTAB
  0
ENDSEC
  0
SECTION
  2
BLOCKS
  0
BLOCK
  5
20
330
1F
100
AcDbEntity
  8
0
100
AcDbBlockBegin
  2
*Model_Space
 70
     0
 10
0.0
 20
0.0
 30
0.0
  3
*Model_Space
  1
*Model_Space
  0
ENDBLK
  5
21
330
1F
100
AcDbEntity
  8
0
100
AcDbBlockEnd
  0
BLOCK
  5
1C
330
1B
100
AcDbEntity
 67
     1
  8
0
100
AcDbBlockBegin
  2
*Paper_Space
 70
     0
 10
0.0
 20
0.0
 30
0.0
  3
*Paper_Space
  1
*Paper_Space
  0
ENDBLK
  5
1D
330
1B
100
AcDbEntity
 67
     1
  8
0
100
AcDbBlockEnd
  0
BLOCK
  5
24
330
23
100
AcDbEntity
  8
0
100
AcDbBlockBegin
  2
*Paper_Space0
 70
     0
 10
0.0
 20
0.0
 30
0.0
  3
*Paper_Space0
  1
*Paper_Space0
  0
ENDBLK
  5
25
330
23
100
AcDbEntity
  8
0
100
AcDbBlockEnd
  0
ENDSEC
  0
SECTION
  2
ENTITIES
  0
ELLIPSE
  5
6A
330
1F
100
AcDbEntity
  8
0
 62
    98
420
   346117
370
    -3
100
AcDbEllipse
 10
14.53552940969336
 20
37.89445376848419
 30
0.0
 11
4.201511985837938
 21
-1.611613177179976
 31
0.0
210
1.988055617882790E-17
220
5.182905938795382E-17
230
1.0
 40
0.6596151656783831
 41
0.0
 42
6.283185307179586
  0
ELLIPSE
  5
6B
330
1F
100
AcDbEntity
  8
0
 62
    98
420
   346117
370
    -3
100
AcDbEllipse
 10
16.49513411529646
 20
43.00318753579092
 30
0.0000000000000035
 11
-4.201511985837938
 21
1.611613177179976
 31
0.0
210
-1.988055617882790E-17
220
-5.182905938795382E-17
230
-1.0
 40
0.6596151656783831
 41
4.314103228034842
 42
5.11044054067081
  0
ELLIPSE
  5
6C
330
1F
100
AcDbEntity
  8
0
 62
    98
420
   346117
370
    -3
100
AcDbEllipse
 10
37.99172249676572
 20
99.04527940885922
 30
0.0000000000000069
 11
34.59247024495183
 21
-13.26895676268124
 31
0.0
210
1.988055617882790E-17
220
5.182905938795381E-17
230
1.0
 40
0.659615165678383
 41
3.342630655626381
 42
4.340042169179797
  0
LINE
  5
6D
330
1F
100
AcDbEntity
  8
0
 62
    98
420
   346117
370
    -3
100
AcDbLine
 10
2.348213010980635
 20
107.4906061009236
 30
0.0000000000000069
 11
-13.29099010525528
 21
73.57767675238752
 31
0.0000000000000007
  0
SPLINE
  5
6E
330
1F
100
AcDbEntity
  8
0
 62
    98
420
   346117
370
    -3
100
AcDbSpline
210
0.0
220
0.0
230
1.0
 70
     8
 71
     3
 72
     8
 73
     4
 74
     0
 42
0.000000001
 43
0.00000001
 40
0.2209607817297295
 40
0.2209607817297295
 40
0.2209607817297295
 40
0.2209607817297295
 40
0.2228052033116064
 40
0.2228052033116064
 40
0.2228052033116064
 40
0.2228052033116064
 10
-13.88548168377511
 20
72.32918970205003
 30
0.0000000000000069
 10
-13.68549036643695
 20
72.73689064785106
 30
0.0000000000000139
 10
-13.48640106471872
 20
73.15393661595218
 30
0.0000000000000139
 10
-13.29099010525526
 20
73.5776767523875
 30
0.0000000000000069
  0
ELLIPSE
  5
6F
330
1F
100
AcDbEntity
  8
0
 62
    98
420
   346117
370
    -3
100
AcDbEllipse
 10
14.36286964494342
 20
30.30741201290279
 30
0.0
 11
-1.400503995279314
 21
0.537204392393326
 31
0.0
210
-1.988055617882790E-17
220
-5.182905938795382E-17
230
-1.0
 40
0.659615165678383
 41
2.296750371266161
 42
7.1273659020918
  0
ELLIPSE
  5
70
330
1F
100
AcDbEntity
  8
0
 62
    98
420
   346117
370
    -3
100
AcDbEllipse
 10
25.31538735439798
 20
32.10045810572965
 30
0.0000000000000035
 11
-1.400503995279313
 21
0.5372043923933256
 31
0.0
210
-1.988055617882790E-17
220
-5.182905938795382E-17
230
-1.0
 40
0.6596151656783831
 41
2.296750371266162
 42
7.127365902091711
  0
ELLIPSE
  5
71
330
1F
100
AcDbEntity
  8
0
 62
    98
420
   346117
370
    -3
100
AcDbEllipse
 10
25.89181193675093
 20
40.74012340046068
 30
0.0000000000000035
 11
-1.400503995279313
 21
0.5372043923933253
 31
0.0
210
-1.988055617882790E-17
220
-5.182905938795381E-17
230
-1.0
 40
0.6596151656783831
 41
2.296750371266152
 42
7.127365902091872
  0
ELLIPSE
  5
72
330
1F
100
AcDbEntity
  8
0
 62
    98
420
   346117
370
    -3
100
AcDbEllipse
 10
15.47969205668202
 20
47.04676386368724
 30
0.0000000000000035
 11
-1.400503995279313
 21
0.5372043923933253
 31
0.0
210
-1.988055617882790E-17
220
-5.182905938795381E-17
230
-1.0
 40
0.6596151656783831
 41
2.296750371266164
 42
7.1273659020918
  0
ELLIPSE
  5
73
330
1F
100
AcDbEntity
  8
0
 62
    98
420
   346117
370
    -3
100
AcDbEllipse
 10
4.563200876638368
 20
45.79369686282115
 30
0.0
 11
-1.400503995279313
 21
0.5372043923933253
 31
0.0
210
-1.988055617882790E-17
220
-5.182905938795381E-17
230
-1.0
 40
0.6596151656783831
 41
2.296750371266153
 42
7.127365902091713
  0
ELLIPSE
  5
74
330
1F
100
AcDbEntity
  8
0
 62
    98
420
   346117
370
    -3
100
AcDbEllipse
 10
3.986776406063609
 20
37.15403139144852
 30
0.0
 11
-1.400503995279313
 21
0.5372043923933256
 31
0.0
210
-1.988055617882790E-17
220
-5.182905938795382E-17
230
-1.0
 40
0.6596151656783831
 41
2.296750371266163
 42
7.127365902091711
  0
ELLIPSE
  5
75
330
1F
100
AcDbEntity
  8
0
 62
    98
420
   346117
370
    -3
100
AcDbEllipse
 10
50.70291145085655
 20
132.1836363676391
 30
0.0000000000000139
 11
-26.58442647526599
 21
10.19723665188265
 31
0.0
210
-1.988055617882790E-17
220
-5.182905938795382E-17
230
-1.0
 40
0.6596151656783831
 41
2.940554651553206
 42
6.082147305143
  0
LINE
  5
76
330
1F
100
AcDbEntity
  8
0
 62
    98
420
   346117
370
    -3
100
AcDbLine
 10
23.31075788288236
 20
138.6738975405183
 30
0.0
 11
14.41366389562125
 21
127.21789730698
 31
0.000000000000004
  0
ELLIPSE
  5
77
330
1F
100
AcDbEntity
  8
0
 62
    98
420
   346117
370
    -3
100
AcDbEllipse
 10
45.93348435877488
 20
119.7496321185391
 30
0.0
 11
-30.59037864755452
 21
11.73383712565837
 31
0.0
210
-1.988055617882790E-17
220
-5.182905938795382E-17
230
-1.0
 40
0.6596151656783832
 41
5.136406765589751
 42
6.082147305142999
  0
SPLINE
  5
78
330
1F
100
AcDbEntity
  8
0
 62
    98
420
   346117
370
    -3
100
AcDbSpline
210
0.0
220
0.0
230
1.0
 70
     8
 71
     3
 72
    18
 73
    14
 74
     0
 42
0.000000001
 43
0.00000001
 40
0.2722859669857202
 40
0.2722859669857202
 40
0.2722859669857202
 40
0.2722859669857202
 40
0.2728912606664281
 40
0.2728912606664281
 40
0.276521178633399
 40
0.276521178633399
 40
0.2801510966003699
 40
0.2801510966003699
 40
0.2837810145673407
 40
0.2837810145673407
 40
0.2879800484331972
 40
0.2879800484331972
 40
0.288429941777875
 40
0.288429941777875
 40
0.288429941777875
 40
0.288429941777875
 10
-14.55356844896123
 20
71.87974285937706
 30
0.0
 10
-14.68025851728011
 20
71.79098457374594
 30
0.0000000000000104
 10
-14.80564347486722
 20
71.70221804838448
 30
0.0000000000000104
 10
-15.67267650665747
 20
71.08195528279607
 30
0.0
 10
-16.36184397128425
 20
70.55467914661942
 30
0.0000000000000208
 10
-17.57754738872067
 20
69.56323658150976
 30
0.0000000000000035
 10
-18.10473222712811
 20
69.09877513598215
 30
0.0000000000000069
 10
-18.97362080373042
 20
68.27876644638376
 30
0.0000000000000035
 10
-19.31544180152705
 20
67.92351878250916
 30
0.0000000000000035
 10
-19.8639607915223
 20
67.30345104896344
 30
0.0000000000000173
 10
-20.07499325386972
 20
67.01993105705414
 30
0.0000000000000104
 10
-20.17544746258668
 20
66.83332304344944
 30
0.0000000000000139
 10
-20.18381177822597
 20
66.81660033549927
 30
0.0000000000000104
 10
-20.19102910412271
 20
66.8009996634713
 30
0.0000000000000104
  0
SPLINE
  5
79
330
1F
100
AcDbEntity
  8
0
 62
    98
420
   346117
370
    -3
100
AcDbSpline
210
0.0
220
0.0
230
1.0
 70
     8
 71
     3
 72
    10
 73
     6
 74
     0
 42
0.000000001
 43
0.00000001
 40
0.302192994616654
 40
0.302192994616654
 40
0.302192994616654
 40
0.302192994616654
 40
0.3063771331838153
 40
0.3063771331838153
 40
0.3111098168120692
 40
0.3111098168120692
 40
0.3111098168120692
 40
0.3111098168120692
 10
-18.22620315482478
 20
68.9776806953834
 30
0.0000000000000035
 10
-17.83536169378416
 20
69.57262648175491
 30
0.0000000000000139
 10
-17.40985351485515
 20
70.27962923477381
 30
0.0000000000000173
 10
-16.47803078992768
 20
71.98326017810676
 30
0.0000000000000069
 10
-15.96858372685613
 20
73.00588519170623
 30
0.0000000000000139
 10
-15.47011944685542
 20
74.09399681905815
 30
0.0000000000000139
  0
SPLINE
  5
7A
330
1F
100
AcDbEntity
  8
0
 62
    98
420
   346117
370
    -3
100
AcDbSpline
210
0.0
220
0.0
230
1.0
 70
     8
 71
     3
 72
    10
 73
     6
 74
     0
 42
0.000000001
 43
0.00000001
 40
0.1708536124291446
 40
0.1708536124291446
 40
0.1708536124291446
 40
0.1708536124291446
 40
0.1709056268002651
 40
0.1709056268002651
 40
0.1721402660827842
 40
0.1721402660827842
 40
0.1721402660827842
 40
0.1721402660827842
 10
60.79520031804149
 20
47.51156145570874
 30
0.0000000000000139
 10
60.79099915786367
 20
47.51158091241316
 30
0.0000000000000069
 10
60.7867958171321
 20
47.51161904887025
 30
0.0000000000000139
 10
60.68275937984304
 20
47.51304723833594
 30
0.0000000000000139
 10
60.57798682773338
 20
47.52608758048331
 30
0.0000000000000139
 10
60.46877676188344
 20
47.55015127758116
 30
0.0000000000000139
  0
SPLINE
  5
7B
330
1F
100
AcDbEntity
  8
0
 62
    98
420
   346117
370
    -3
100
AcDbSpline
210
0.0
220
0.0
230
1.0
 70
     8
 71
     3
 72
    18
 73
    14
 74
     0
 42
0.000000001
 43
0.00000001
 40
0.1721402660827842
 40
0.1721402660827842
 40
0.1721402660827842
 40
0.1721402660827842
 40
0.1751046606661217
 40
0.1751046606661217
 40
0.1793036945319782
 40
0.1793036945319782
 40
0.182933612498949
 40
0.182933612498949
 40
0.1865635304659199
 40
0.1865635304659199
 40
0.1901934484328908
 40
0.1901934484328908
 40
0.1907987421135986
 40
0.1907987421135986
 40
0.1907987421135986
 40
0.1907987421135986
 10
60.46877676188346
 20
47.55015127758118
 30
0.0000000000000069
 10
60.20601097095767
 20
47.61183573071875
 30
0.0000000000000069
 10
59.91689257827229
 20
47.74254254277675
 30
0.0000000000000139
 10
59.16562955393735
 20
48.24476114396045
 30
0.0000000000000139
 10
58.6791667586176
 20
48.69354475334588
 30
0.0000000000000139
 10
57.76963262619458
 20
49.65908169379215
 30
0.0000000000000069
 10
57.29983228332248
 20
50.20663386053656
 30
0.0
 10
56.26769417386645
 20
51.47706933598495
 30
0.0000000000000139
 10
55.70510684942985
 20
52.1997399777424
 30
0.0000000000000208
 10
54.50490655283649
 20
53.76360362079584
 30
0.0000000000000208
 10
53.86646519167935
 20
54.60544166220478
 30
0.0000000000000139
 10
53.09657180798582
 20
55.61355563967071
 30
0.0000000000000139
 10
52.98596121225592
 20
55.75823864391962
 30
0.0000000000000069
 10
52.87487359082688
 20
55.90333566552193
 30
0.0000000000000139
  0
SPLINE
  5
7C
330
1F
100
AcDbEntity
  8
0
 62
    98
420
   346117
370
    -3
100
AcDbSpline
210
0.0
220
0.0
230
1.0
 70
     8
 71
     3
 72
    14
 73
    10
 74
     0
 42
0.000000001
 43
0.00000001
 40
0.1519748922872497
 40
0.1519748922872497
 40
0.1519748922872497
 40
0.1519748922872497
 40
0.1567075759155035
 40
0.1567075759155035
 40
0.1614402595437574
 40
0.1614402595437574
 40
0.1661729431720113
 40
0.1661729431720113
 40
0.1708536124291446
 40
0.1708536124291446
 40
0.1708536124291446
 40
0.1708536124291446
 10
64.99859002803274
 20
55.02784565133229
 30
0.0000000000000139
 10
64.64878882504772
 20
53.90450998822861
 30
0.0000000000000139
 10
64.29483410483473
 20
52.8450428215275
 30
0.0000000000000139
 10
63.59761234258802
 20
50.96743962172015
 30
0.0
 10
63.25416098073587
 20
50.14920407507967
 30
0.0000000000000069
 10
62.57098944639358
 20
48.82819252087845
 30
0.0000000000000069
 10
62.23013118709349
 20
48.32448712575186
 30
0.0000000000000069
 10
61.53155865309254
 20
47.66706477284392
 30
0.0000000000000139
 10
61.17323133152528
 20
47.50989564539226
 30
0.0000000000000139
 10
60.79520031804149
 20
47.51156145570874
 30
0.0000000000000139
  0
ELLIPSE
  5
7D
330
1F
100
AcDbEntity
  8
0
 62
    98
420
   346117
370
    -3
100
AcDbEllipse
 10
13.9591049391186
 20
29.25478829711156
 30
-0.0000000000000035
 11
2.801007990558627
 21
-1.074408784786651
 31
0.0
210
1.988055617882790E-17
220
5.182905938795382E-17
230
1.0
 40
0.6596151656783831
 41
0.0
 42
6.283185307179586
  0
ELLIPSE
  5
7E
330
1F
100
AcDbEntity
  8
0
 62
    98
420
   346117
370
    -3
100
AcDbEllipse
 10
24.91162264857316
 20
31.04783438993843
 30
0.0
 11
2.801007990558627
 21
-1.074408784786651
 31
0.0
210
1.988055617882791E-17
220
5.182905938795382E-17
230
1.0
 40
0.6596151656783831
 41
0.0
 42
6.283185307179586
  0
ELLIPSE
  5
7F
330
1F
100
AcDbEntity
  8
0
 62
    98
420
   346117
370
    -3
100
AcDbEllipse
 10
25.48804723092611
 20
39.68749968466943
 30
0.0
 11
2.801007990558627
 21
-1.074408784786651
 31
0.0
210
1.988055617882790E-17
220
5.182905938795382E-17
230
1.0
 40
0.6596151656783831
 41
0.0
 42
6.283185307179586
  0
ELLIPSE
  5
80
330
1F
100
AcDbEntity
  8
0
 62
    98
420
   346117
370
    -3
100
AcDbEllipse
 10
15.0759273508572
 20
45.99414014789602
 30
0.0
 11
2.801007990558625
 21
-1.074408784786651
 31
0.0
210
1.988055617882790E-17
220
5.182905938795381E-17
230
1.0
 40
0.6596151656783831
 41
0.0
 42
6.283185307179586
  0
ELLIPSE
  5
81
330
1F
100
AcDbEntity
  8
0
 62
    98
420
   346117
370
    -3
100
AcDbEllipse
 10
4.159436170813558
 20
44.74107314702995
 30
0.0
 11
2.801007990558627
 21
-1.074408784786651
 31
0.0
210
1.988055617882790E-17
220
5.182905938795382E-17
230
1.0
 40
0.6596151656783831
 41
0.0
 42
6.283185307179586
  0
ELLIPSE
  5
82
330
1F
100
AcDbEntity
  8
0
 62
    98
420
   346117
370
    -3
100
AcDbEllipse
 10
3.583011700238801
 20
36.1014076756573
 30
0.0000000000000035
 11
2.801007990558627
 21
-1.074408784786651
 31
0.0
210
1.988055617882791E-17
220
5.182905938795382E-17
230
1.0
 40
0.6596151656783831
 41
0.0
 42
6.283185307179586
  0
LINE
  5
83
330
1F
100
AcDbEntity
  8
0
 62
    98
420
   346117
370
    -3
100
AcDbLine
 10
80.76461265269492
 20
125.0608560569639
 30
0.0
 11
80.2911814357889
 21
113.947395284803
 31
0.0000000000000056
  0
ELLIPSE
  5
84
330
1F
100
AcDbEntity
  8
0
 62
    98
420
   346117
370
    -3
100
AcDbEllipse
 10
18.03482352684174
 20
47.01719263867479
 30
0.0000000000000069
 11
-40.19253171974743
 21
15.41702462401773
 31
0.0
210
-1.988055617882790E-17
220
-5.182905938795382E-17
230
-1.0
 40
0.6596151656783832
 41
0.4186092384042536
 42
2.320907411112366
  0
ELLIPSE
  5
85
330
1F
100
AcDbEntity
  8
0
 62
    98
420
   346117
370
    -3
100
AcDbEllipse
 10
14.73716948186338
 20
38.42013399500726
 30
0.0
 11
40.75342150639644
 21
-15.63217035587714
 31
0.0
210
1.988055617882790E-17
220
5.182905938795382E-17
230
1.0
 40
0.659615165678383
 41
5.293897969125151
 42
10.4142838381001
  0
ELLIPSE
  5
86
330
1F
100
AcDbEntity
  8
0
 62
    98
420
   346117
370
    -3
100
AcDbEllipse
 10
38.56761342198784
 20
100.5466400697902
 30
0.0
 11
-36.70016048052219
 21
14.07742318346222
 31
0.0
210
-1.988055617882790E-17
220
-5.182905938795382E-17
230
-1.0
 40
0.6596151656783831
 41
2.940554651553206
 42
3.098487047689501
  0
LINE
  5
87
330
1F
100
AcDbEntity
  8
0
 62
    98
420
   346117
370
    -3
100
AcDbLine
 10
76.38285208387754
 20
91.58674669660999
 30
0.0
 11
64.99859002803116
 21
55.02784565132944
 31
0.0000000000000064
  0
ELLIPSE
  5
88
330
1F
100
AcDbEntity
  8
0
 62
    98
420
   346117
370
    -3
100
AcDbEllipse
 10
14.53552940969336
 20
37.89445376848419
 30
0.0
 11
-40.08746596785065
 21
15.37672357268242
 31
0.0
210
-1.988055617882790E-17
220
-5.182905938795381E-17
230
-1.0
 40
0.6596151656783831
 41
0.0
 42
6.283185307179586
  0
ELLIPSE
  5
89
330
1F
100
AcDbEntity
  8
0
 62
    98
420
   346117
370
    -3
100
AcDbEllipse
 10
62.21886229698216
 20
90.40229281127633
 30
0.0000000000000208
 11
-1.496672597925048
 21
0.0998555687996376
 31
-4.163336342344350E-17
210
-2.769400630903223E-17
220
1.847699193639979E-18
230
1.0
 40
0.7364660860994853
 41
0.0
 42
6.283185307179586
  0
ELLIPSE
  5
8A
330
1F
100
AcDbEntity
  8
0
 62
    98
420
   346117
370
    -3
100
AcDbEllipse
 10
19.88921479789526
 20
100.4318243317987
 30
0.0000000000000069
 11
-1.49667259792505
 21
0.09985556879963772
 31
-4.163336342344356E-17
210
-2.769400630903223E-17
220
1.847699193639979E-18
230
1.0
 40
0.7364660860994855
 41
0.0
 42
6.283185307179586
  0
SPLINE
  5
8B
330
1F
100
AcDbEntity
  8
0
 62
    98
420
   346117
370
    -3
100
AcDbSpline
210
0.0
220
0.0
230
1.0
 70
     8
 71
     3
 72
    12
 73
     8
 74
     0
 42
0.000000001
 43
0.00000001
 40
-0.0065191489001602
 40
-0.0065191489001602
 40
-0.0065191489001602
 40
-0.0065191489001602
 40
-0.0063229322858523
 40
-0.0063229322858523
 40
-0.005331702098521
 40
-0.005331702098521
 40
-0.0050080350526086
 40
-0.0050080350526086
 40
-0.0050080350526086
 40
-0.0050080350526086
 10
15.48986976080053
 20
95.88066055631923
 30
0.0000000000000139
 10
15.4680062823932
 20
95.9395876045753
 30
0.0000000000000208
 10
15.44761047469349
 20
95.99857253383504
 30
0.0000000000000139
 10
15.33339554356823
 20
96.35509648483193
 30
0.0000000000000208
 10
15.277851043157
 20
96.64772277599978
 30
0.0000000000000069
 10
15.26200496469693
 20
97.0064927551239
 30
0.0000000000000278
 10
15.26276803019438
 20
97.09204833070166
 30
0.0000000000000208
 10
15.26822813045726
 20
97.17431650864152
 30
0.0
  0
SPLINE
  5
8C
330
1F
100
AcDbEntity
  8
0
 62
    98
420
   346117
370
    -3
100
AcDbSpline
210
0.0
220
0.0
230
1.0
 70
     8
 71
     3
 72
    12
 73
     8
 74
     0
 42
0.000000001
 43
0.00000001
 40
-0.0086339695123782
 40
-0.0086339695123782
 40
-0.0086339695123782
 40
-0.0086339695123782
 40
-0.008211464161937
 40
-0.008211464161937
 40
-0.0074431850749216
 40
-0.0074431850749216
 40
-0.0065191489001602
 40
-0.0065191489001602
 40
-0.0065191489001602
 40
-0.0065191489001602
 10
16.6280009817205
 20
94.1772476670541
 30
0.0000000000000139
 10
16.52996479958405
 20
94.2656962471537
 30
0.0000000000000208
 10
16.43524297941944
 20
94.36096696384843
 30
0.0000000000000208
 10
16.17978904917638
 20
94.64532285773889
 30
0.0000000000000208
 10
16.02722354993651
 20
94.84879211339128
 30
0.0000000000000069
 10
15.72850779173686
 20
95.32699321829567
 30
0.0000000000000208
 10
15.59286000553932
 20
95.6031671108023
 30
0.0000000000000069
 10
15.48986976080053
 20
95.88066055631923
 30
0.0000000000000139
  0
ELLIPSE
  5
8D
330
1F
100
AcDbEntity
  8
0
 62
    98
420
   346117
370
    -3
100
AcDbEllipse
 10
17.42678697047338
 20
99.48421384046436
 30
-0.0000000000000069
 11
1.995563463900059
 21
-0.1331407583995152
 31
5.551115123125783E-17
210
2.769400630903223E-17
220
-1.847699193639964E-18
230
-1.0
 40
0.7364660860994856
 41
1.794521675215504
 42
3.365318002010364
  0
ELLIPSE
  5
8E
330
1F
100
AcDbEntity
  8
0
 62
    98
420
   346117
370
    -3
100
AcDbEllipse
 10
18.5034928526729
 20
102.2912104159077
 30
0.0
 11
1.995563463900059
 21
-0.1331407583995156
 31
0.0
210
0.0
220
0.0
230
-1.0
 40
0.7364660860994852
 41
3.3653180020104
 42
4.936114328805282
  0
SPLINE
  5
8F
330
1F
100
AcDbEntity
  8
0
 62
    98
420
   346117
370
    -3
100
AcDbSpline
210
0.0
220
0.0
230
1.0
 70
     8
 71
     3
 72
    14
 73
    10
 74
     0
 42
0.000000001
 43
0.00000001
 40
-0.0100405224671354
 40
-0.0100405224671354
 40
-0.0100405224671354
 40
-0.0100405224671354
 40
-0.0098587150524864
 40
-0.0098587150524864
 40
-0.0088350747720458
 40
-0.0088350747720458
 40
-0.0081332534366642
 40
-0.0081332534366642
 40
-0.0079063744575844
 40
-0.0079063744575844
 40
-0.0079063744575844
 40
-0.0079063744575844
 10
64.38333948001537
 20
84.21398801451437
 30
0.0000000000000069
 10
64.34302162398755
 20
84.17436942528775
 30
0.0
 10
64.3019310690707
 20
84.135229553984
 30
0.0000000000000069
 10
64.02479314616566
 20
83.87944189807678
 30
0.0000000000000139
 10
63.76992347174584
 20
83.68276461462816
 30
0.0000000000000069
 10
63.32966860045511
 20
83.4061093905879
 30
0.0
 10
63.14924594198654
 20
83.30988102549044
 30
0.0000000000000069
 10
62.91471364407082
 20
83.20776938389129
 30
0.0000000000000208
 10
62.85764692498172
 20
83.18477020588739
 30
0.0000000000000069
 10
62.80098697513213
 20
83.16382731552338
 30
0.0000000000000139
  0
SPLINE
  5
90
330
1F
100
AcDbEntity
  8
0
 62
    98
420
   346117
370
    -3
100
AcDbSpline
210
0.0
220
0.0
230
1.0
 70
     8
 71
     3
 72
    12
 73
     8
 74
     0
 42
0.000000001
 43
0.00000001
 40
-0.0121595512761479
 40
-0.0121595512761479
 40
-0.0121595512761479
 40
-0.0121595512761479
 40
-0.0119025313320431
 40
-0.0119025313320431
 40
-0.0110156421063949
 40
-0.0110156421063949
 40
-0.0100405224671354
 40
-0.0100405224671354
 40
-0.0100405224671354
 40
-0.0100405224671354
 10
65.36624708550073
 20
85.65272650950747
 30
0.0000000000000139
 10
65.34830941205306
 20
85.5989486039735
 30
0.0000000000000208
 10
65.32723145211983
 20
85.5437780398097
 30
0.0000000000000139
 10
65.21984742381599
 20
85.29287143441753
 30
0.0000000000000139
 10
65.10170400184903
 20
85.08734726154728
 30
0.0000000000000139
 10
64.79352735644022
 20
84.65280518358901
 30
0.0000000000000208
 10
64.59957205563934
 20
84.42649066769509
 30
0.0000000000000139
 10
64.38333948001537
 20
84.21398801451437
 30
0.0000000000000069
  0
ELLIPSE
  5
91
330
1F
100
AcDbEntity
  8
0
 62
    98
420
   346117
370
    -3
100
AcDbEllipse
 10
63.60458424220452
 20
88.54290672716735
 30
0.0000000000000139
 11
1.995563463900059
 21
-0.1331407583995156
 31
0.0
210
0.0
220
0.0
230
-1.0
 40
0.7364660860994852
 41
0.223725348420607
 42
1.794521675215488
  0
LINE
  5
92
330
1F
100
AcDbEntity
  8
0
 62
    98
420
   346117
370
    -3
100
AcDbLine
 10
63.06623130110478
 20
87.1394084394457
 30
-0.0000000000000069
 11
62.80098697513215
 21
83.16382731552336
 31
0.0000000000000028
  0
SPLINE
  5
93
330
1F
100
AcDbEntity
  8
0
 62
    98
420
   346117
370
    -3
100
AcDbSpline
210
0.0
220
0.0
230
1.0
 70
     8
 71
     3
 72
    10
 73
     6
 74
     0
 42
0.000000001
 43
0.00000001
 40
-0.0128880432475062
 40
-0.0128880432475062
 40
-0.0128880432475062
 40
-0.0128880432475062
 40
-0.0128746543731157
 40
-0.0128746543731157
 40
-0.0122875554060788
 40
-0.0122875554060788
 40
-0.0122875554060788
 40
-0.0122875554060788
 10
66.55551771104062
 20
89.39813505510557
 30
0.0000000000000069
 10
66.55535466032799
 20
89.39569030330291
 30
0.0000000000000069
 10
66.55518277605377
 20
89.39323977043287
 30
0.0000000000000139
 10
66.54707919552708
 20
89.28307451259133
 30
0.0000000000000139
 10
66.52234584467455
 20
89.16558271784358
 30
-0.0000000000000069
 10
66.48170335469857
 20
89.04052837646387
 30
0.0000000000000139
  0
ELLIPSE
  5
94
330
1F
100
AcDbEntity
  8
0
 62
    98
420
   346117
370
    -3
100
AcDbEllipse
 10
64.68129012440404
 20
91.34990330261056
 30
0.0
 11
1.995563463900059
 21
-0.1331407583995152
 31
5.551115123125783E-17
210
2.769400630903223E-17
220
-1.847699193639964E-18
230
-1.0
 40
0.7364660860994856
 41
4.9361143288053
 42
6.506910655600153
  0
LINE
  5
95
330
1F
100
AcDbEntity
  8
0
 62
    98
420
   346117
370
    -3
100
AcDbLine
 10
66.60536501072617
 20
90.89401550622317
 30
0.0
 11
66.4817033549994
 21
89.04052837711077
 31
-0.0000000000000055
  0
ELLIPSE
  5
96
330
1F
100
AcDbEntity
  8
0
 62
    98
420
   346117
370
    -3
100
AcDbEllipse
 10
35.30853041224002
 20
48.66949710332774
 30
0.0
 11
-1.484534234996072
 21
0.5694366559369249
 31
0.0
210
-1.988055617882790E-17
220
-5.182905938795381E-17
230
-1.0
 40
0.659615165678383
 41
2.940554651553214
 42
4.511350978348105
  0
ELLIPSE
  5
97
330
1F
100
AcDbEntity
  8
0
 62
    98
420
   346117
370
    -3
100
AcDbEllipse
 10
-2.163739194321498
 20
62.66185130858465
 30
0.0000000000000035
 11
-1.484534234996072
 21
0.5694366559369249
 31
0.0
210
-1.988055617882790E-17
220
-5.182905938795381E-17
230
-1.0
 40
0.659615165678383
 41
4.511350978348114
 42
6.082147305143003
  0
ELLIPSE
  5
98
330
1F
100
AcDbEntity
  8
0
 62
    98
420
   346117
370
    -3
100
AcDbEllipse
 10
-3.961838017594669
 20
57.9741670275944
 30
0.0
 11
-1.484534234996072
 21
0.5694366559369249
 31
0.0
210
-1.988055617882790E-17
220
-5.182905938795381E-17
230
-1.0
 40
0.659615165678383
 41
4.511350978348114
 42
6.082147305143014
  0
LINE
  5
99
330
1F
100
AcDbEntity
  8
0
 62
    98
420
   346117
370
    -3
100
AcDbLine
 10
-4.033440744798892
 20
56.90095858232233
 30
0.0
 11
-2.235341921525706
 21
61.58864286331258
 31
0.0000000000000053
  0
ELLIPSE
  5
9A
330
1F
100
AcDbEntity
  8
0
 62
    98
420
   346117
370
    -3
100
AcDbEllipse
 10
-3.654711854366555
 20
62.57748878656011
 30
-0.0000000000000035
 11
-1.484534234996072
 21
0.5694366559369249
 31
0.0
210
-1.988055617882790E-17
220
-5.182905938795381E-17
230
-1.0
 40
0.659615165678383
 41
6.082147305143009
 42
7.257471612022111
  0
LINE
  5
9B
330
1F
100
AcDbEntity
  8
0
 62
    98
420
   346117
370
    -3
100
AcDbLine
 10
-5.184351388992656
 20
62.93991958468811
 30
-0.0000000000000035
 11
-5.03520022062717
 21
63.32876005240247
 31
-0.0000000000000045
  0
ELLIPSE
  5
9C
330
1F
100
AcDbEntity
  8
0
 62
    98
420
   346117
370
    -3
100
AcDbEllipse
 10
-3.816217736696483
 20
62.15643930024362
 30
0.0000000000000035
 11
2.044735833107797
 21
-0.7843184128942553
 31
0.0
210
1.988055617882790E-17
220
5.182905938795381E-17
230
1.0
 40
0.6596151656783831
 41
1.771834328831473
 42
3.342630655626368
  0
ELLIPSE
  5
9D
330
1F
100
AcDbEntity
  8
0
 62
    98
420
   346117
370
    -3
100
AcDbEllipse
 10
35.4541506931382
 20
52.85176937597698
 30
0.0
 11
2.044735833107798
 21
-0.7843184128942554
 31
0.0
210
1.988055617882790E-17
220
5.182905938795381E-17
230
1.0
 40
0.6596151656783832
 41
0.2010380020365776
 42
1.771834328831478
  0
ELLIPSE
  5
9E
330
1F
100
AcDbEntity
  8
0
 62
    98
420
   346117
370
    -3
100
AcDbEllipse
 10
35.61565657546813
 20
53.27281886229346
 30
0.0000000000000035
 11
-1.484534234996072
 21
0.5694366559369249
 31
0.0
210
-1.988055617882790E-17
220
-5.182905938795381E-17
230
-1.0
 40
0.659615165678383
 41
2.177877173918122
 42
2.940554651553214
  0
LINE
  5
9F
330
1F
100
AcDbEntity
  8
0
 62
    98
420
   346117
370
    -3
100
AcDbLine
 10
37.56101269366094
 20
52.35257223893279
 30
0.0
 11
37.14529611009423
 21
52.9103880641655
 31
0.0000000000000037
  0
ELLIPSE
  5
A0
330
1F
100
AcDbEntity
  8
0
 62
    98
420
   346117
370
    -3
100
AcDbEllipse
 10
35.14702452991008
 20
48.24844761701124
 30
0.0
 11
2.044735833107797
 21
-0.7843184128942553
 31
0.0
210
1.988055617882790E-17
220
5.182905938795381E-17
230
1.0
 40
0.6596151656783831
 41
4.913426982421266
 42
6.484223309216161
  0
LINE
  5
A1
330
1F
100
AcDbEntity
  8
0
 62
    98
420
   346117
370
    -3
100
AcDbLine
 10
35.04840190564769
 20
46.77025485276859
 30
-0.0000000000000035
 11
35.23692768503582
 21
47.59628865805568
 31
-0.0000000000000052
  0
ELLIPSE
  5
A2
330
1F
100
AcDbEntity
  8
0
 62
    98
420
   346117
370
    -3
100
AcDbEllipse
 10
-4.123343899924602
 20
57.55311754127791
 30
0.0000000000000035
 11
2.044735833107798
 21
-0.7843184128942554
 31
0.0
210
1.988055617882790E-17
220
5.182905938795381E-17
230
1.0
 40
0.6596151656783832
 41
3.34263065562637
 42
4.913426982421273
  0
LINE
  5
A3
330
1F
100
AcDbEntity
  8
0
 62
    98
420
   346117
370
    -3
100
AcDbLine
 10
-5.491477552220777
 20
58.33659782572236
 30
0.0
 11
-6.230205900447335
 21
58.0523146783221
 31
0.0000000000000014
  0
LINE
  5
A4
330
1F
100
AcDbEntity
  8
0
 62
    98
420
   346117
370
    -3
100
AcDbLine
 10
-4.221966524187007
 20
56.07492477703524
 30
-0.0000000000000035
 11
-4.033440744798893
 21
56.90095858232232
 31
-0.0000000000000006
  0
LINE
  5
A5
330
1F
100
AcDbEntity
  8
0
 62
    98
420
   346117
370
    -3
100
AcDbLine
 10
-4.221966524187007
 20
56.07492477703524
 30
-0.0000000000000035
 11
35.04840190564769
 21
46.77025485276859
 31
-0.000000000000004
  0
LINE
  5
A6
330
1F
100
AcDbEntity
  8
0
 62
    98
420
   346117
370
    -3
100
AcDbLine
 10
35.23692768503582
 20
47.59628865805568
 30
-0.0000000000000035
 11
-4.033440744798895
 21
56.90095858232233
 31
0.000000000000001
  0
LINE
  5
A7
330
1F
100
AcDbEntity
  8
0
 62
    98
420
   346117
370
    -3
100
AcDbLine
 10
37.25388653043283
 20
47.74925047996706
 30
0.0
 11
36.83816994686612
 21
48.30706630519976
 31
0.0000000000000002
  0
LINE
  5
A8
330
1F
100
AcDbEntity
  8
0
 62
    98
420
   346117
370
    -3
100
AcDbLine
 10
37.25388653043283
 20
47.74925047996706
 30
0.0
 11
37.56101269366094
 21
52.35257223893279
 31
0.0
  0
LINE
  5
A9
330
1F
100
AcDbEntity
  8
0
 62
    98
420
   346117
370
    -3
100
AcDbLine
 10
37.14529611009422
 20
52.91038806416549
 30
0.0000000000000069
 11
36.83816994686612
 21
48.30706630519976
 31
0.0000000000000028
  0
LINE
  5
AA
330
1F
100
AcDbEntity
  8
0
 62
    98
420
   346117
370
    -3
100
AcDbLine
 10
35.5527733174006
 20
54.32996214021964
 30
-0.0000000000000069
 11
-3.71759511243408
 21
63.63463206448629
 31
-0.0000000000000086
  0
LINE
  5
AB
330
1F
100
AcDbEntity
  8
0
 62
    98
420
   346117
370
    -3
100
AcDbLine
 10
-5.923079737219212
 20
62.65563643728783
 30
0.0000000000000035
 11
-5.18435138899266
 21
62.9399195846881
 31
0.0000000000000015
  0
LINE
  5
AC
330
1F
100
AcDbEntity
  8
0
 62
    98
420
   346117
370
    -3
100
AcDbLine
 10
-5.923079737219229
 20
62.65563643728783
 30
0.0000000000000035
 11
-6.230205900447346
 21
58.05231467832208
 31
0.0000000000000017
  0
LINE
  5
AD
330
1F
100
AcDbEntity
  8
0
 62
    98
420
   346117
370
    -3
100
AcDbLine
 10
-5.49147755222076
 20
58.33659782572239
 30
0.0
 11
-5.184351388992657
 21
62.9399195846881
 31
-0.000000000000001
  0
LINE
  5
AE
330
1F
100
AcDbEntity
  8
0
 62
    98
420
   346117
370
    -3
100
AcDbLine
 10
-3.693378728947587
 20
63.02428210671263
 30
0.0000000000000035
 11
-5.491477552220777
 21
58.33659782572236
 31
-0.0000000000000032
  0
LINE
  5
AF
330
1F
100
AcDbEntity
  8
0
 62
    98
420
   346117
370
    -3
100
AcDbLine
 10
-3.653667316054378
 20
63.61949160996438
 30
0.0000000000000035
 11
-3.693378728947589
 21
63.02428210671263
 31
0.0000000000000037
  0
ELLIPSE
  5
B0
330
1F
100
AcDbEntity
  8
0
 62
    98
420
   346117
370
    -3
100
AcDbEllipse
 10
37.1066292355132
 20
53.357181384318
 30
0.0000000000000069
 11
-1.484534234996072
 21
0.5694366559369249
 31
0.0
210
-1.988055617882790E-17
220
-5.182905938795381E-17
230
-1.0
 40
0.659615165678383
 41
4.467001638914778
 42
4.511350978348114
  0
LINE
  5
B1
330
1F
100
AcDbEntity
  8
0
 62
    98
420
   346117
370
    -3
100
AcDbLine
 10
37.03502650830899
 20
52.28397293904595
 30
-0.0000000000000035
 11
35.23692768503582
 21
47.59628865805568
 31
-0.0000000000000068
  0
LINE
  5
B2
330
1F
100
AcDbEntity
  8
0
 62
    98
420
   346117
370
    -3
100
AcDbLine
 10
-2.235341921525703
 20
61.58864286331259
 30
0.0000000000000069
 11
37.03502650830898
 21
52.28397293904595
 31
-0.0000000000000003
  0
LINE
  5
B3
330
1F
100
AcDbEntity
  8
0
 62
    98
420
   346117
370
    -3
100
AcDbLine
 10
65.36624708551575
 20
85.65272650954081
 30
0.0
 11
65.52865912852667
 21
88.08701893077996
 31
-0.0000000000000045
  0
LINE
  5
B4
330
1F
100
AcDbEntity
  8
0
 62
    98
420
   346117
370
    -3
100
AcDbLine
 10
16.62800098172049
 20
94.17724766705413
 30
0.0
 11
16.88843402937363
 21
98.08071555274275
 31
0.0000000000000015
  0
LINE
  5
B5
330
1F
100
AcDbEntity
  8
0
 62
    98
420
   346117
370
    -3
100
AcDbLine
 10
59.44741840653739
 20
94.12106497949435
 30
0.0000000000000069
 11
65.21964306550379
 21
92.75340159033223
 31
0.0000000000000026
  0
LINE
  5
B6
330
1F
100
AcDbEntity
  8
0
 62
    98
420
   346117
370
    -3
100
AcDbLine
 10
22.66065868834003
 20
96.71305216358061
 30
0.0000000000000139
 11
16.88843402937363
 21
98.08071555274276
 31
0.0000000000000064
  0
ELLIPSE
  5
B7
330
1F
100
AcDbEntity
  8
0
 62
    98
420
   346117
370
    -3
100
AcDbEllipse
 10
40.98615528827703
 20
106.8518333899675
 30
0.0000000000000069
 11
-33.69838202082832
 21
12.92600299546224
 31
0.0
210
-1.988055617882790E-17
220
-5.182905938795381E-17
230
-1.0
 40
0.6596151656783831
 41
5.09512177759555
 42
5.241018759911898
  0
LINE
  5
B8
330
1F
100
AcDbEntity
  8
0
 62
    98
420
   346117
370
    -3
100
AcDbLine
 10
16.57941796635075
 20
102.747098212295
 30
0.0000000000000069
 11
15.50271208415125
 21
99.94010163685176
 31
-0.0000000000000054
  0
SPLINE
  5
B9
330
1F
100
AcDbEntity
  8
0
 62
    98
420
   346117
370
    -3
100
AcDbSpline
210
0.0
220
0.0
230
1.0
 70
     8
 71
     3
 72
     8
 73
     4
 74
     0
 42
0.000000001
 43
0.00000001
 40
0.1719901442626698
 40
0.1719901442626698
 40
0.1719901442626698
 40
0.1719901442626698
 40
0.1757647390903588
 40
0.1757647390903588
 40
0.1757647390903588
 40
0.1757647390903588
 10
66.48170335469854
 20
89.04052837646381
 30
0.0000000000000069
 10
66.11253006042655
 20
87.90513122692067
 30
0.0000000000000139
 10
65.74011459185436
 20
86.77407155875841
 30
0.0000000000000069
 10
65.3662503495699
 20
85.6527362923199
 30
0.0000000000000139
  0
LINE
  5
BA
330
1F
100
AcDbEntity
  8
0
 62
    98
420
   346117
370
    -3
100
AcDbLine
 10
65.52865912852667
 20
88.08701893077996
 30
0.0
 11
66.60536501072616
 21
90.89401550622317
 31
0.0000000000000015
  0
ELLIPSE
  5
BB
330
1F
100
AcDbEntity
  8
0
 62
    98
420
   346117
370
    -3
100
AcDbEllipse
 10
152.3842714582434
 20
67.58011327404643
 30
0.0000000000000069
 11
159.6450771120047
 21
-10.65126067196132
 31
8.881784197001252E-15
210
5.538801261806445E-17
220
-3.695398387279965E-18
230
-1.0
 40
0.7364660860994854
 41
3.41431491401334
 42
3.606753671559338
  0
ELLIPSE
  5
BC
330
1F
100
AcDbEntity
  8
0
 62
    98
420
   346117
370
    -3
100
AcDbEllipse
 10
-79.46777722703612
 20
122.5148355732774
 30
0.0
 11
159.6450771120047
 21
-10.65126067196132
 31
8.881784197001252E-15
210
5.538801261806445E-17
220
-3.695398387279965E-18
230
-1.0
 40
0.7364660860994854
 41
6.265474986051214
 42
6.457913743597319
  0
ELLIPSE
  5
BD
330
1F
100
AcDbEntity
  8
0
 62
    98
420
   346117
370
    -3
100
AcDbEllipse
 10
40.98615528827701
 20
106.8518333899674
 30
0.0000000000000069
 11
-33.69838202082832
 21
12.92600299546224
 31
0.0
210
-1.988055617882790E-17
220
-5.182905938795381E-17
230
-1.0
 40
0.6596151656783831
 41
3.786134796251757
 42
3.991146785756341
  0
LINE
  5
BE
330
1F
100
AcDbEntity
  8
0
 62
    98
420
   346117
370
    -3
100
AcDbLine
 10
63.06623130110476
 20
87.13940843944566
 30
0.0
 11
57.2940066421384
 21
88.50707182860782
 31
-0.0000000000000068
  0
LINE
  5
BF
330
1F
100
AcDbEntity
  8
0
 62
    98
420
   346117
370
    -3
100
AcDbLine
 10
56.83475717852643
 20
81.6236691695237
 30
0.0
 11
57.29400664213838
 21
88.50707182860782
 31
0.0000000000000038
  0
SPLINE
  5
C0
330
1F
100
AcDbEntity
  8
0
 62
    98
420
   346117
370
    -3
100
AcDbSpline
210
0.0
220
0.0
230
1.0
 70
     8
 71
     3
 72
    10
 73
     6
 74
     0
 42
0.000000001
 43
0.00000001
 40
0.2294959571271559
 40
0.2294959571271559
 40
0.2294959571271559
 40
0.2294959571271559
 40
0.2365291112914656
 40
0.2365291112914656
 40
0.2398996908120029
 40
0.2398996908120029
 40
0.2398996908120029
 40
0.2398996908120029
 10
56.83475717852643
 20
81.62366916952367
 30
0.0000000000000069
 10
56.13834017883184
 20
79.61124440242912
 30
0.0000000000000069
 10
55.4456675409515
 20
77.64850032681252
 30
0.0000000000000139
 10
54.43664409545018
 20
74.84457316775107
 30
0.0000000000000139
 10
54.11216061982297
 20
73.95148712112099
 30
0.0000000000000139
 10
53.79083510972048
 20
73.07535139788848
 30
0.0000000000000208
  0
LINE
  5
C1
330
1F
100
AcDbEntity
  8
0
 62
    98
420
   346117
370
    -3
100
AcDbLine
 10
57.29400664213839
 20
88.50707182860783
 30
0.0000000000000069
 11
47.15460895186434
 21
62.07343283379183
 31
-0.0000000000000009
  0
SPLINE
  5
C2
330
1F
100
AcDbEntity
  8
0
 62
    98
420
   346117
370
    -3
100
AcDbSpline
210
0.0
220
0.0
230
1.0
 70
    12
 71
     2
 72
     6
 73
     3
 74
     0
 42
0.000000001
 43
0.00000001
 40
13.49674604579118
 40
13.49674604579118
 40
13.49674604579118
 40
13.57243399273091
 40
13.57243399273091
 40
13.57243399273091
 10
53.79083510972048
 20
73.07535139788853
 30
0.0000000000000139
 41
8.400131870979472
 10
51.47192628664839
 20
66.75254541163369
 30
0.0
 41
8.334168465349844
 10
49.08116217465267
 20
60.2357934818014
 30
0.0000000000000208
 41
8.267232511243238
  0
LINE
  5
C3
330
1F
100
AcDbEntity
  8
0
 62
    98
420
   346117
370
    -3
100
AcDbLine
 10
64.01938075882705
 20
106.0402741879704
 30
0.0000000000000139
 11
59.44741840653739
 21
94.12106497949435
 31
0.0000000000000096
  0
SPLINE
  5
C4
330
1F
100
AcDbEntity
  8
0
 62
    98
420
   346117
370
    -3
100
AcDbSpline
210
0.0
220
0.0
230
1.0
 70
     8
 71
     3
 72
    10
 73
     6
 74
     0
 42
0.000000001
 43
0.00000001
 40
0.2121409936494075
 40
0.2121409936494075
 40
0.2121409936494075
 40
0.2121409936494075
 40
0.2139356633109725
 40
0.2139356633109725
 40
0.2158383113531984
 40
0.2158383113531984
 40
0.2158383113531984
 40
0.2158383113531984
 10
61.95782865491978
 20
97.15556078203794
 30
0.0000000000000139
 10
61.78583560606223
 20
96.60883328467716
 30
0.0000000000000139
 10
61.61300668089901
 20
96.06213143817602
 30
0.0000000000000069
 10
61.2554576875163
 20
94.93665215759289
 30
0.0
 10
61.07064602026109
 20
94.3579500128322
 30
0.0000000000000069
 10
60.88515535171098
 20
93.78007116873214
 30
0.0000000000000139
  0
SPLINE
  5
C5
330
1F
100
AcDbEntity
  8
0
 62
    98
420
   346117
370
    -3
100
AcDbSpline
210
0.0
220
0.0
230
1.0
 70
    12
 71
     2
 72
     6
 73
     3
 74
     0
 42
0.000000001
 43
0.00000001
 40
2.316478734646923
 40
2.316478734646923
 40
2.316478734646923
 40
2.350721697894974
 40
2.350721697894974
 40
2.350721697894974
 10
63.82292424284648
 20
103.0957104777386
 30
0.0000000000000069
 41
7.897683633998037
 10
62.92395270146618
 20
100.2266533966346
 30
0.0000000000000069
 41
7.775669034759181
 10
61.95782865491977
 20
97.15556078203791
 30
0.0000000000000139
 41
7.648539850347547
  0
LINE
  5
C6
330
1F
100
AcDbEntity
  8
0
 62
    98
420
   346117
370
    -3
100
AcDbLine
 10
64.01938075882705
 20
106.0402741879704
 30
0.0000000000000139
 11
63.82292424284648
 21
103.0957104777387
 31
0.0000000000000131
  0
ELLIPSE
  5
C7
330
1F
100
AcDbEntity
  8
0
 62
    98
420
   346117
370
    -3
100
AcDbEllipse
 10
37.99172249676572
 20
99.04527940885922
 30
0.0000000000000069
 11
34.59247024495183
 21
-13.26895676268124
 31
0.0
210
1.988055617882790E-17
220
5.182905938795381E-17
230
1.0
 40
0.659615165678383
 41
5.418887274009091
 42
6.178978018959697
  0
ELLIPSE
  5
C8
330
1F
100
AcDbEntity
  8
0
 62
    98
420
   346117
370
    -3
100
AcDbEllipse
 10
-82.28510669171145
 20
121.3031453239636
 30
-0.0000000000000069
 11
-159.6450771120047
 21
10.65126067196132
 31
-8.881784197001252E-15
210
-5.538801261806445E-17
220
3.695398387279965E-18
230
1.0
 40
0.7364660860994854
 41
2.968837652550168
 42
3.155443708430949
  0
ELLIPSE
  5
C9
330
1F
100
AcDbEntity
  8
0
 62
    98
420
   346117
370
    -3
100
AcDbEllipse
 10
45.93348435877488
 20
119.7496321185391
 30
0.0
 11
-30.59037864755452
 21
11.73383712565837
 31
0.0
210
-1.988055617882790E-17
220
-5.182905938795382E-17
230
-1.0
 40
0.6596151656783832
 41
2.940554651553206
 42
3.931907079690112
  0
LINE
  5
CA
330
1F
100
AcDbEntity
  8
0
 62
    98
420
   346117
370
    -3
100
AcDbLine
 10
19.04184579377264
 20
103.6947087036293
 30
0.0
 11
24.81407045273905
 21
102.3270453144672
 31
0.0000000000000075
  0
LINE
  5
CB
330
1F
100
AcDbEntity
  8
0
 62
    98
420
   346117
370
    -3
100
AcDbLine
 10
24.81407045273904
 20
102.3270453144672
 30
0.0000000000000069
 11
29.38603280502868
 21
114.2462545229431
 31
0.0000000000000076
  0
LINE
  5
CC
330
1F
100
AcDbEntity
  8
0
 62
    98
420
   346117
370
    -3
100
AcDbLine
 10
8.23598922079535
 20
59.10761277043309
 30
0.0000000000000035
 11
8.831916653001045
 21
60.66120905802554
 31
-0.0000000000000006
  0
LINE
  5
CD
330
1F
100
AcDbEntity
  8
0
 62
    98
420
   346117
370
    -3
100
AcDbLine
 10
15.107957526274
 20
77.0229894939523
 30
0.0
 11
22.66065868834003
 21
96.7130521635806
 31
0.000000000000007
  0
ELLIPSE
  5
CE
330
1F
100
AcDbEntity
  8
0
 62
    98
420
   346117
370
    -3
100
AcDbEllipse
 10
153.8800466392784
 20
65.34648163019588
 30
0.0
 11
-159.6450771120047
 21
10.65126067196132
 31
-8.881784197001252E-15
210
-5.538801261806445E-17
220
3.695398387279965E-18
230
1.0
 40
0.7364660860994854
 41
5.821883555497217
 42
6.008489611377997
  0
LINE
  5
CF
330
1F
100
AcDbEntity
  8
0
 62
    98
420
   346117
370
    -3
100
AcDbLine
 10
-15.47011944685331
 20
74.0939968190625
 30
0.0
 11
0.7523747600928412
 21
109.5065334429597
 31
0.0000000000000065
  0
LINE
  5
D0
330
1F
100
AcDbEntity
  8
0
 62
    98
420
   346117
370
    -3
100
AcDbLine
 10
29.38603280502869
 20
114.2462545229431
 30
0.0000000000000069
 11
64.01938075882707
 21
106.0402741879704
 31
0.000000000000004
  0
LINE
  5
D1
330
1F
100
AcDbEntity
  8
0
 62
    98
420
   346117
370
    -3
100
AcDbLine
 10
13.22027600166046
 20
129.8390882211889
 30
0.0000000000000069
 11
20.64121024900628
 21
139.3064166782928
 31
0.0000000000000156
  0
LINE
  5
D2
330
1F
100
AcDbEntity
  8
0
 62
    98
420
   346117
370
    -3
100
AcDbLine
 10
80.76461265269475
 20
125.060856056963
 30
0.0
 11
78.09506501883075
 21
125.69337519476
 31
0.0000000000000017
  0
LINE
  5
D3
330
1F
100
AcDbEntity
  8
0
 62
    98
420
   346117
370
    -3
100
AcDbLine
 10
23.31075788288236
 20
138.6738975405183
 30
0.0
 11
20.64121024901837
 21
139.3064166783153
 31
-0.0000000000000075
  0
LINE
  5
D4
330
1F
100
AcDbEntity
  8
0
 62
    98
420
   346117
370
    -3
100
AcDbLine
 10
77.45330482192853
 20
112.2813669300983
 30
0.0
 11
78.09506501883074
 21
125.69337519476
 31
0.0000000000000037
  0
LINE
  5
D5
330
1F
100
AcDbEntity
  8
0
 62
    98
420
   346117
370
    -3
100
AcDbLine
 10
62.8194606864326
 20
55.54416571800294
 30
0.0
 11
73.63523198255079
 21
90.5999527167948
 31
0.000000000000002
  0
LINE
  5
D6
330
1F
100
AcDbEntity
  8
0
 62
    98
420
   346117
370
    -3
100
AcDbLine
 10
64.99859002803277
 20
55.02784565133229
 30
0.0
 11
62.8194606864326
 21
55.54416571800294
 31
0.0000000000000003
  0
SPLINE
  5
D7
330
1F
100
AcDbEntity
  8
0
 62
    98
420
   346117
370
    -3
100
AcDbSpline
210
0.0
220
0.0
230
1.0
 70
     8
 71
     3
 72
    12
 73
     8
 74
     0
 42
0.000000001
 43
0.00000001
 40
0.0718089396999994
 40
0.0718089396999994
 40
0.0718089396999994
 40
0.0718089396999994
 40
0.0785505261956645
 40
0.0785505261956645
 40
0.0852921126913295
 40
0.0852921126913295
 40
0.0878567920754215
 40
0.0878567920754215
 40
0.0878567920754215
 40
0.0878567920754215
 10
62.81946068643261
 20
55.54416571800294
 30
0.0000000000000208
 10
62.32549849580642
 20
53.94314875250336
 30
0.0000000000000208
 10
61.80924926569943
 20
52.42520227146824
 30
0.0000000000000139
 10
60.81340555537651
 20
50.02946639808381
 30
0.0000000000000069
 10
60.3280963161758
 20
49.15283779963499
 30
0.0
 10
59.67101181090037
 20
48.45058753208624
 30
0.0000000000000139
 10
59.48004742986542
 20
48.29601903936199
 30
0.0000000000000139
 10
59.27787255015808
 20
48.19031764292218
 30
0.0000000000000139
  0
LINE
  5
D8
330
1F
100
AcDbEntity
  8
0
 62
    98
420
   346117
370
    -3
100
AcDbLine
 10
-13.29099010525528
 20
73.57767675238752
 30
0.0000000000000069
 11
-15.47011944685542
 21
74.09399681905819
 31
0.0000000000000078
  0
LINE
  5
D9
330
1F
100
AcDbEntity
  8
0
 62
    98
420
   346117
370
    -3
100
AcDbLine
 10
55.89657614623124
 20
23.95928581985729
 30
-0.0000000000000035
 11
75.6333795298134
 21
87.52403831968834
 31
-0.0000000000000072
  0
LINE
  5
DA
330
1F
100
AcDbEntity
  8
0
 62
    98
420
   346117
370
    -3
100
AcDbLine
 10
-20.19110210067646
 20
66.80084125138211
 30
0.0
 11
-25.53475719078838
 21
55.1946625726778
 31
0.0000000000000057
  0
LINE
  5
DB
330
1F
100
AcDbEntity
  8
0
 62
    98
420
   346117
370
    -3
100
AcDbLine
 10
-16.26473058945254
 20
24.54370146450288
 30
-0.0000000000000017
 11
-15.95976588319316
 21
24.24477755842663
 31
-0.0000000000000002
  0
LINE
  5
DC
330
1F
100
AcDbEntity
  8
0
 62
    98
420
   346117
370
    -3
100
AcDbLine
 10
28.0796940728257
 20
7.352150537461461
 30
0.0
 11
28.50633827748323
 21
7.370444875494933
 31
0.0000000000000004
  0
LINE
  5
DD
330
1F
100
AcDbEntity
  8
0
 62
    98
420
   346117
370
    -3
100
AcDbLine
 10
15.43122347817464
 20
99.61735417321384
 30
0.0000000000000069
 11
15.26828275878389
 21
97.17513775273908
 31
0.0000000000000053
  0
LINE
  5
DE
330
1F
100
AcDbEntity
  8
0
 62
    98
420
   346117
370
    -3
100
AcDbLine
 10
66.55551620761581
 20
89.39811251834654
 30
0.0000000000000069
 11
66.67685355990542
 21
91.21676211856091
 31
0.0000000000000071
  0
SPLINE
  5
DF
330
1F
100
AcDbEntity
  8
0
 62
    98
420
   346117
370
    -3
100
AcDbSpline
210
0.0
220
0.0
230
1.0
 70
     8
 71
     3
 72
    10
 73
     6
 74
     0
 42
0.000000001
 43
0.00000001
 40
0.0000001176754594
 40
0.0000001176754594
 40
0.0000001176754594
 40
0.0000001176754594
 40
0.0157459867808344
 40
0.0157459867808344
 40
0.028608253805058
 40
0.028608253805058
 40
0.028608253805058
 40
0.028608253805058
 10
75.63341070156203
 20
87.52413871222532
 30
0.0
 10
76.99301371988696
 20
91.90291879280801
 30
0.0000000000000069
 10
78.06775909895735
 20
96.35461897032793
 30
0.0000000000000139
 10
79.4897079520096
 20
104.5098086924647
 30
0.0
 10
79.93220005199568
 20
108.190454980676
 30
0.0000000000000139
 10
80.17726460965899
 20
111.8630462021727
 30
0.0000000000000278
  0
SPLINE
  5
E2
330
1F
100
AcDbEntity
  8
Hidden
370
    -3
100
AcDbSpline
210
0.0
220
0.0
230
1.0
 70
     8
 71
     3
 72
     8
 73
     4
 74
     0
 42
0.000000001
 43
0.00000001
 40
0.0000439660605278
 40
0.0000439660605278
 40
0.0000439660605278
 40
0.0000439660605278
 40
0.000375351668196
 40
0.000375351668196
 40
0.000375351668196
 40
0.000375351668196
 10
-6.635796997826794
 20
28.50120763349822
 30
0.0000000000000121
 10
-6.665803716777037
 20
28.41858641112903
 30
0.0000000000000191
 10
-6.684493640624104
 20
28.32561457957858
 30
0.0000000000000121
 10
-6.69157502064015
 20
28.22674586287252
 30
0.0000000000000156
  0
SPLINE
  5
E3
330
1F
100
AcDbEntity
  8
Hidden
370
    -3
100
AcDbSpline
210
0.0
220
0.0
230
1.0
 70
     8
 71
     3
 72
    24
 73
    20
 74
     0
 42
0.000000001
 43
0.00000001
 40
0.000375351668196
 40
0.000375351668196
 40
0.000375351668196
 40
0.000375351668196
 40
0.0005982731691709
 40
0.0005982731691709
 40
0.0011965463383418
 40
0.0011965463383418
 40
0.0018569802622805
 40
0.0018569802622805
 40
0.0025174141862192
 40
0.0025174141862192
 40
0.0031599292567322
 40
0.0031599292567322
 40
0.0038024443272452
 40
0.0038024443272452
 40
0.0043847972301196
 40
0.0043847972301196
 40
0.0049671501329941
 40
0.0049671501329941
 40
0.0050054939603351
 40
0.0050054939603351
 40
0.0050054939603351
 40
0.0050054939603351
 10
-6.691575059069801
 20
28.22674528195453
 30
0.0000000000000104
 10
-6.695714658146553
 20
28.15997001892818
 30
0.0000000000000121
 10
-6.694805440541185
 20
28.09061322351849
 30
0.0000000000000139
 10
-6.670737541367558
 20
27.82983640030858
 30
0.0000000000000104
 10
-6.613010560009185
 20
27.62966233065398
 30
0.0000000000000121
 10
-6.448226594466619
 20
27.25132350634357
 30
0.0000000000000173
 10
-6.324288703505838
 20
27.04757911475771
 30
0.0000000000000069
 10
-6.028074762025848
 20
26.68146758664829
 30
0.0000000000000104
 10
-5.85576165303991
 20
26.51912671909484
 30
0.0000000000000139
 10
-5.517449953570734
 20
26.2705111092878
 30
0.0000000000000087
 10
-5.325562910167807
 20
26.16343686571255
 30
0.0000000000000173
 10
-4.93801793251998
 20
26.02554869095972
 30
0.0000000000000173
 10
-4.742390057597935
 20
25.99486019094661
 30
0.0000000000000173
 10
-4.413447127639508
 20
26.01472528019577
 30
0.0000000000000121
 10
-4.256897467477735
 20
26.05983002201061
 30
0.0000000000000173
 10
-4.002342465807039
 20
26.22789355943049
 30
0.0000000000000139
 10
-3.904510405667293
 20
26.35095319581376
 30
0.0000000000000156
 10
-3.84338563793892
 20
26.50090080978467
 30
0.0000000000000173
 10
-3.839757867394735
 20
26.51030549594189
 30
0.0000000000000121
 10
-3.836254851401894
 20
26.51982966945721
 30
0.0000000000000139
  0
SPLINE
  5
E4
330
1F
100
AcDbEntity
  8
Hidden
370
    -3
100
AcDbSpline
210
0.0
220
0.0
230
1.0
 70
     8
 71
     3
 72
     8
 73
     4
 74
     0
 42
0.000000001
 43
0.00000001
 40
0.0
 40
0.0
 40
0.0
 40
0.0
 40
0.0000439660605278
 40
0.0000439660605278
 40
0.0000439660605278
 40
0.0000439660605278
 10
-6.623219208093952
 20
28.53350754566511
 30
0.0000000000000156
 10
-6.627599977476291
 20
28.52292240825659
 30
0.0000000000000121
 10
-6.631782890776265
 20
28.51214489586994
 30
0.0000000000000156
 10
-6.635796997826794
 20
28.50120763349822
 30
0.0000000000000121
  0
SPLINE
  5
E5
330
1F
100
AcDbEntity
  8
Hidden
370
    -3
100
AcDbSpline
210
0.0
220
0.0
230
1.0
 70
     8
 71
     3
 72
     8
 73
     4
 74
     0
 42
0.000000001
 43
0.00000001
 40
0.0050054939603351
 40
0.0050054939603351
 40
0.0050054939603351
 40
0.0050054939603351
 40
0.0053335126164632
 40
0.0053335126164632
 40
0.0053335126164632
 40
0.0053335126164632
 10
-3.836254851401894
 20
26.51982966945721
 30
0.0000000000000139
 10
-3.806519950957608
 20
26.60144636029397
 30
0.0000000000000087
 10
-3.7877564639168
 20
26.69292205968404
 30
0.0000000000000069
 10
-3.780770626762526
 20
26.78988512508469
 30
0.0000000000000121
  0
SPLINE
  5
E6
330
1F
100
AcDbEntity
  8
Hidden
370
    -3
100
AcDbSpline
210
0.0
220
0.0
230
1.0
 70
     8
 71
     3
 72
    22
 73
    18
 74
     0
 42
0.000000001
 43
0.00000001
 40
0.0053335126164632
 40
0.0053335126164632
 40
0.0053335126164632
 40
0.0053335126164632
 40
0.0055305197089211
 40
0.0055305197089211
 40
0.0060938892848482
 40
0.0060938892848482
 40
0.0067679203416858
 40
0.0067679203416858
 40
0.0074419513985233
 40
0.0074419513985233
 40
0.0081226098805817
 40
0.0081226098805817
 40
0.0088032683626401
 40
0.0088032683626401
 40
0.0093605402042855
 40
0.0093605402042855
 40
0.009917812045931
 40
0.009917812045931
 40
0.009917812045931
 40
0.009917812045931
 10
-3.780770604622169
 20
26.78988545718051
 30
0.0000000000000139
 10
-3.77711171214303
 20
26.84830722384919
 30
0.0000000000000121
 10
-3.777486812943997
 20
26.90863427965594
 30
0.0000000000000121
 10
-3.796753313539889
 20
27.14571877352784
 30
0.0000000000000087
 10
-3.848532152441394
 20
27.33036897241841
 30
0.0000000000000139
 10
-4.006706462126846
 20
27.69769050392634
 30
0.0000000000000104
 10
-4.134038970937727
 20
27.90299705678634
 30
0.0000000000000173
 10
-4.439199024153389
 20
28.27266779607252
 30
0.0000000000000121
 10
-4.616908662356701
 20
28.43712977102212
 30
0.0000000000000156
 10
-4.968654833625575
 20
28.69561799062705
 30
0.0000000000000173
 10
-5.169885252659418
 20
28.80902427691571
 30
0.0000000000000104
 10
-5.571843439767703
 20
28.95755321620103
 30
0.0000000000000069
 10
-5.772613914140522
 20
28.99266024065479
 30
0.0000000000000104
 10
-6.092818177706331
 20
28.97558609063997
 30
0.0000000000000191
 10
-6.237683846219354
 20
28.93628443356924
 30
0.0000000000000139
 10
-6.475215843862556
 20
28.78254323360113
 30
0.0000000000000121
 10
-6.567692754456405
 20
28.66767464972016
 30
0.0000000000000104
 10
-6.623219208093952
 20
28.53350754566511
 30
0.0000000000000156
  0
ELLIPSE
  5
E7
330
1F
100
AcDbEntity
  8
Hidden
370
    -3
100
AcDbEllipse
 10
-4.636799316256782
 20
36.4919510889202
 30
0.0000000000000035
 11
1.496672597925044
 21
-0.09985556879963728
 31
4.163336342344336E-17
210
2.769400630903222E-17
220
-1.847699193639979E-18
230
-1.0
 40
0.7364660860994855
 41
0.0
 42
6.283185307179586
  0
ELLIPSE
  5
E8
330
1F
100
AcDbEntity
  8
Hidden
370
    -3
100
AcDbEllipse
 10
37.69284818283012
 20
26.4624195683979
 30
0.0
 11
1.496672597925043
 21
-0.0998555687996372
 31
4.163336342344333E-17
210
2.769400630903222E-17
220
-1.847699193639979E-18
230
-1.0
 40
0.7364660860994856
 41
0.0
 42
6.283185307179586
  0
SPLINE
  5
E9
330
1F
100
AcDbEntity
  8
Hidden
370
    -3
100
AcDbSpline
210
0.0
220
0.0
230
1.0
 70
     8
 71
     3
 72
    10
 73
     6
 74
     0
 42
0.000000001
 43
0.00000001
 40
0.0049171406526202
 40
0.0049171406526202
 40
0.0049171406526202
 40
0.0049171406526202
 40
0.0049608821884829
 40
0.0049608821884829
 40
0.0052457827125247
 40
0.0052457827125247
 40
0.0052457827125247
 40
0.0052457827125247
 10
38.57617279848871
 20
17.73103799799312
 30
0.0000000000000104
 10
38.58014250336346
 20
17.7419240066375
 30
0.0000000000000087
 10
38.58391446062111
 20
17.75273865131459
 30
0.0000000000000104
 10
38.61049447287656
 20
17.83333032248756
 30
0.0000000000000173
 10
38.62457037030271
 20
17.90261029303239
 30
0.0000000000000052
 10
38.62950324477624
 20
17.96881638952491
 30
0.0000000000000104
  0
SPLINE
  5
EA
330
1F
100
AcDbEntity
  8
Hidden
370
    -3
100
AcDbSpline
210
0.0
220
0.0
230
1.0
 70
     8
 71
     3
 72
    22
 73
    18
 74
     0
 42
0.000000001
 43
0.00000001
 40
0.0052457827125247
 40
0.0052457827125247
 40
0.0052457827125247
 40
0.0052457827125247
 40
0.0055181979502137
 40
0.0055181979502137
 40
0.0060755137119446
 40
0.0060755137119446
 40
0.0067544955082616
 40
0.0067544955082616
 40
0.0074334773045785
 40
0.0074334773045785
 40
0.008105981138263
 40
0.008105981138263
 40
0.0087784849719474
 40
0.0087784849719474
 40
0.0093418985190862
 40
0.0093418985190862
 40
0.0098671916256356
 40
0.0098671916256356
 40
0.0098671916256356
 40
0.0098671916256356
 10
38.62950324477624
 20
17.96881638952491
 30
0.0000000000000104
 10
38.63333889931376
 20
18.0317205777964
 30
0.0000000000000121
 10
38.62885393740265
 20
18.09183195629124
 30
0.0000000000000139
 10
38.58680886915813
 20
18.2586190675132
 30
0.0000000000000139
 10
38.51988513271791
 20
18.34854694508289
 30
0.0000000000000156
 10
38.32983816917012
 20
18.48733000173904
 30
0.0000000000000139
 10
38.18313726799958
 20
18.53517143342617
 30
0.0000000000000104
 10
37.84107656295692
 20
18.56428811784573
 30
0.0000000000000191
 10
37.64567008818694
 20
18.54560323648974
 30
0.0000000000000139
 10
37.26649542202987
 20
18.46164383077419
 30
0.0000000000000156
 10
37.05382687703539
 20
18.39039127400685
 30
0.0000000000000087
 10
36.63481948673079
 20
18.19372574448541
 30
0.0000000000000104
 10
36.42853220749629
 20
18.06817473867079
 30
0.0000000000000173
 10
36.10365342735057
 20
17.81621110870137
 30
0.0000000000000139
 10
35.95794541952424
 20
17.67855414223116
 30
0.0000000000000173
 10
35.73411287148492
 20
17.39894727334815
 30
0.0000000000000139
 10
35.65225490049742
 20
17.25782492672089
 30
0.0000000000000121
 10
35.60415286058637
 20
17.12725433952105
 30
0.0000000000000069
  0
SPLINE
  5
EB
330
1F
100
AcDbEntity
  8
Hidden
370
    -3
100
AcDbSpline
210
0.0
220
0.0
230
1.0
 70
     8
 71
     3
 72
     8
 73
     4
 74
     0
 42
0.000000001
 43
0.00000001
 40
0.0098671916256356
 40
0.0098671916256356
 40
0.0098671916256356
 40
0.0098671916256356
 40
0.0099053120662251
 40
0.0099053120662251
 40
0.0099053120662251
 40
0.0099053120662251
 10
35.60415286058637
 20
17.12725433952105
 30
0.0000000000000069
 10
35.60068981526972
 20
17.11778209302699
 30
0.0000000000000139
 10
35.59737884030956
 20
17.10836241024696
 30
0.0000000000000121
 10
35.59424869375341
 20
17.09900472170642
 30
0.0000000000000173
  0
SPLINE
  5
EC
330
1F
100
AcDbEntity
  8
Hidden
370
    -3
100
AcDbSpline
210
0.0
220
0.0
230
1.0
 70
     8
 71
     3
 72
     8
 73
     4
 74
     0
 42
0.000000001
 43
0.00000001
 40
0.0
 40
0.0
 40
0.0
 40
0.0
 40
0.0002897274708811
 40
0.0002897274708811
 40
0.0002897274708811
 40
0.0002897274708811
 10
35.59424869375341
 20
17.09900472170642
 30
0.0000000000000173
 10
35.57045858453176
 20
17.02788331302845
 30
0.0000000000000121
 10
35.55586944116213
 20
16.95652805636263
 30
0.0000000000000173
 10
35.55069677561747
 20
16.88758546898818
 30
0.0000000000000121
  0
SPLINE
  5
ED
330
1F
100
AcDbEntity
  8
Hidden
370
    -3
100
AcDbSpline
210
0.0
220
0.0
230
1.0
 70
     8
 71
     3
 72
    22
 73
    18
 74
     0
 42
0.000000001
 43
0.00000001
 40
0.0002897274708811
 40
0.0002897274708811
 40
0.0002897274708811
 40
0.0002897274708811
 40
0.000582070113209
 40
0.000582070113209
 40
0.0011641402264179
 40
0.0011641402264179
 40
0.0018055189808945
 40
0.0018055189808945
 40
0.002446897735371
 40
0.002446897735371
 40
0.0031060416962952
 40
0.0031060416962952
 40
0.0037651856572194
 40
0.0037651856572194
 40
0.0043630339228511
 40
0.0043630339228511
 40
0.0049171406526202
 40
0.0049171406526202
 40
0.0049171406526202
 40
0.0049171406526202
 10
35.55069677561747
 20
16.88758546898818
 30
0.0000000000000121
 10
35.54644220270882
 20
16.81832690939402
 30
0.0000000000000156
 10
35.55178357545181
 20
16.75152753567712
 30
0.0000000000000156
 10
35.60003612940671
 20
16.56813928379065
 30
0.0000000000000104
 10
35.67471866388839
 20
16.46781054198791
 30
0.0000000000000139
 10
35.876228616334
 20
16.32136181254022
 30
0.0000000000000156
 10
36.02129304361926
 20
16.27070940428028
 30
0.0000000000000121
 10
36.3537819245313
 20
16.23669897772702
 30
0.0000000000000139
 10
36.54108414611423
 20
16.25325227192423
 30
0.0000000000000156
 10
36.90596058689536
 20
16.33404566837677
 30
0.0000000000000156
 10
37.11243769318552
 20
16.40597861154997
 30
0.0000000000000156
 10
37.51794792074985
 20
16.60454455987003
 30
0.0000000000000087
 10
37.71701684035288
 20
16.73113445065461
 30
0.0000000000000139
 10
38.04507404843014
 20
16.99178225613518
 30
0.0000000000000069
 10
38.19986854902218
 20
17.14125443624019
 30
0.0000000000000173
 10
38.43795259862097
 20
17.44236324457803
 30
0.0000000000000104
 10
38.52545296695529
 20
17.5930328639229
 30
0.0000000000000121
 10
38.57617279848871
 20
17.73103799799312
 30
0.0000000000000104
  0
ELLIPSE
  5
EE
330
1F
100
AcDbEntity
  8
Hidden
370
    -3
100
AcDbEllipse
 10
16.49513411529646
 20
43.00318753579092
 30
0.0000000000000035
 11
-4.201511985837938
 21
1.611613177179976
 31
0.0
210
-1.988055617882790E-17
220
-5.182905938795382E-17
230
-1.0
 40
0.6596151656783831
 41
5.11044054067081
 42
10.59728853521443
  0
ELLIPSE
  5
EF
330
1F
100
AcDbEntity
  8
Hidden
370
    -3
100
AcDbEllipse
 10
18.03482352684174
 20
47.01719263867479
 30
0.0000000000000069
 11
-38.12383822367748
 21
14.62351654667544
 31
0.0
210
-1.988055617882790E-17
220
-5.182905938795382E-17
230
-1.0
 40
0.6596151656783831
 41
0.4578788841958676
 42
2.281637765320752
  0
ELLIPSE
  5
F0
330
1F
100
AcDbEntity
  8
Hidden
370
    -3
100
AcDbEllipse
 10
16.49513411529646
 20
43.00318753579092
 30
0.0000000000000035
 11
-38.39628585661424
 21
14.72802182877683
 31
0.0
210
-1.988055617882790E-17
220
-5.182905938795382E-17
230
-1.0
 40
0.6596151656783831
 41
5.19766761703157
 42
10.11198589107493
  0
SPLINE
  5
F1
330
1F
100
AcDbEntity
  8
Hidden
370
    -3
100
AcDbSpline
210
0.0
220
0.0
230
1.0
 70
    12
 71
     2
 72
     6
 73
     3
 74
     0
 42
0.000000001
 43
0.00000001
 40
12.5382832300015
 40
12.5382832300015
 40
12.5382832300015
 40
12.58222450677411
 40
12.58222450677411
 40
12.58222450677411
 10
-7.866332310623807
 20
33.34471250290662
 30
0.0000000000000139
 41
7.17192294067952
 10
-8.928468856181349
 20
30.43124135880526
 30
0.0000000000000087
 41
7.150606250574814
 10
-10.00820079743153
 20
27.47047441591103
 30
0.0000000000000087
 41
7.129064345279332
  0
ELLIPSE
  5
F2
330
1F
100
AcDbEntity
  8
Hidden
370
    -3
100
AcDbEllipse
 10
18.613552938524
 20
48.52595329797557
 30
0.0000000000000035
 11
38.0214322078009
 21
-14.58423571511636
 31
1.611597103546718E-15
210
-3.694997868652219E-17
220
1.417324828500807E-17
230
1.0
 40
0.6596151656783831
 41
4.219007231795755
 42
4.453939836580393
  0
SPLINE
  5
F3
330
1F
100
AcDbEntity
  8
Hidden
370
    -3
100
AcDbSpline
210
0.0
220
0.0
230
1.0
 70
    12
 71
     2
 72
     6
 73
     3
 74
     0
 42
0.000000001
 43
0.00000001
 40
2.953844532512804
 40
2.953844532512804
 40
2.953844532512804
 40
3.249049350174998
 40
3.249049350174998
 40
3.249049350174998
 10
-0.4045016465432589
 20
28.0068540655046
 30
0.0000000000000017
 41
7.860209204961349
 10
9.966229989537524
 20
56.25476121987324
 30
0.0000000000000173
 41
8.129464016045048
 10
19.16049088432083
 20
81.32635273709784
 30
0.0000000000000069
 41
8.384018362490306
  0
ELLIPSE
  5
F4
330
1F
100
AcDbEntity
  8
Hidden
370
    -3
100
AcDbEllipse
 10
37.99172249676572
 20
99.04527940885922
 30
0.0000000000000069
 11
34.59247024495183
 21
-13.26895676268124
 31
0.0
210
1.988055617882790E-17
220
5.182905938795381E-17
230
1.0
 40
0.659615165678383
 41
4.340042169179798
 42
4.404261119151521
  0
SPLINE
  5
F5
330
1F
100
AcDbEntity
  8
Hidden
370
    -3
100
AcDbSpline
210
0.0
220
0.0
230
1.0
 70
     8
 71
     3
 72
    14
 73
    10
 74
     0
 42
0.000000001
 43
0.00000001
 40
0.2041148354555522
 40
0.2041148354555522
 40
0.2041148354555522
 40
0.2041148354555522
 40
0.2059912258032938
 40
0.2059912258032938
 40
0.2093220303202764
 40
0.2093220303202764
 40
0.2160636168159414
 40
0.2160636168159414
 40
0.2209607817297295
 40
0.2209607817297295
 40
0.2209607817297295
 40
0.2209607817297295
 10
-17.94447726000103
 20
66.16803806113299
 30
0.0000000000000104
 10
-17.89845850238618
 20
66.19519271584537
 30
0.0000000000000035
 10
-17.83430367159298
 20
66.24503029585897
 30
0.0000000000000139
 10
-17.61353233036607
 20
66.44636090186063
 30
0.0000000000000139
 10
-17.42411365021602
 20
66.64677748765214
 30
0.0000000000000104
 10
-16.77422002675608
 20
67.42136016527472
 30
0.0000000000000069
 10
-16.15591291334243
 20
68.26647642071124
 30
0.0000000000000104
 10
-14.95840621441094
 20
70.25443029410553
 30
0.0000000000000069
 10
-14.41773142289253
 20
71.25335652187673
 30
0.0000000000000069
 10
-13.88548168377511
 20
72.32918970205003
 30
0.0000000000000069
  0
SPLINE
  5
F6
330
1F
100
AcDbEntity
  8
Hidden
370
    -3
100
AcDbSpline
210
0.0
220
0.0
230
1.0
 70
     8
 71
     3
 72
    18
 73
    14
 74
     0
 42
0.000000001
 43
0.00000001
 40
0.1839266110488602
 40
0.1839266110488602
 40
0.1839266110488602
 40
0.1839266110488602
 40
0.1851795520502277
 40
0.1851795520502277
 40
0.1887859721176005
 40
0.1887859721176005
 40
0.1923923921849733
 40
0.1923923921849733
 40
0.1959988122523462
 40
0.1959988122523462
 40
0.1993296167693287
 40
0.1993296167693287
 40
0.2009336146345815
 40
0.2009336146345815
 40
0.2009336146345815
 40
0.2009336146345815
 10
-11.89802679027082
 20
71.25054227908709
 30
0.0000000000000139
 10
-12.17083765202108
 20
71.07841023246938
 30
0.0000000000000104
 10
-12.43869322523018
 20
70.90541243659311
 30
0.0000000000000139
 10
-13.45225486634449
 20
70.23545142014129
 30
0.0000000000000173
 10
-14.14945442654709
 20
69.74036521472505
 30
0.0000000000000139
 10
-15.37807948641874
 20
68.80844212471627
 30
0.0000000000000139
 10
-15.91017737349031
 20
68.37135461903787
 30
0.0000000000000069
 10
-16.78552438266207
 20
67.60155862367273
 30
0.0000000000000104
 10
-17.12889700950646
 20
67.26916992547454
 30
0.0000000000000139
 10
-17.61846224829331
 20
66.75612195997418
 30
0.0000000000000104
 10
-17.79489440414775
 20
66.54729118310287
 30
0.0000000000000035
 10
-17.95272389822291
 20
66.327300337229
 30
0.0000000000000208
 10
-17.98786606519121
 20
66.26983770000474
 30
0.0000000000000173
 10
-18.00760419415645
 20
66.2275588886086
 30
0.0000000000000104
  0
SPLINE
  5
F7
330
1F
100
AcDbEntity
  8
Hidden
370
    -3
100
AcDbSpline
210
0.0
220
0.0
230
1.0
 70
     8
 71
     3
 72
    10
 73
     6
 74
     0
 42
0.000000001
 43
0.00000001
 40
0.2009336146345815
 40
0.2009336146345815
 40
0.2009336146345815
 40
0.2009336146345815
 40
0.2026604212863113
 40
0.2026604212863113
 40
0.2028560141585065
 40
0.2028560141585065
 40
0.2028560141585065
 40
0.2028560141585065
 10
-18.00760419415645
 20
66.2275588886086
 30
0.0000000000000104
 10
-18.02838941361006
 20
66.18244991133388
 30
0.0000000000000104
 10
-18.03128596352321
 20
66.15496999523496
 30
0.0000000000000104
 10
-18.01508425552991
 20
66.14607869602365
 30
0.0000000000000139
 10
-18.01321298730756
 20
66.14542449022228
 30
0.0000000000000173
 10
-18.0111296040174
 20
66.14500961856629
 30
0.0000000000000069
  0
SPLINE
  5
F8
330
1F
100
AcDbEntity
  8
Hidden
370
    -3
100
AcDbSpline
210
0.0
220
0.0
230
1.0
 70
     8
 71
     3
 72
     8
 73
     4
 74
     0
 42
0.000000001
 43
0.00000001
 40
0.2028560141585065
 40
0.2028560141585065
 40
0.2028560141585065
 40
0.2028560141585065
 40
0.2041148354555522
 40
0.2041148354555522
 40
0.2041148354555522
 40
0.2041148354555522
 10
-18.0111296040174
 20
66.14500961856629
 30
0.0000000000000069
 10
-17.99767006549336
 20
66.14241394496403
 30
0.0000000000000104
 10
-17.97511649707545
 20
66.15018078552818
 30
0.0000000000000104
 10
-17.94447727145471
 20
66.16803805441516
 30
0.0000000000000069
  0
ELLIPSE
  5
F9
330
1F
100
AcDbEntity
  8
Hidden
370
    -3
100
AcDbEllipse
 10
15.9187096447217
 20
34.36352206441831
 30
0.0
 11
1.400503995279313
 21
-0.5372043923933256
 31
0.0
210
1.988055617882791E-17
220
5.182905938795382E-17
230
1.0
 40
0.6596151656783831
 41
0.0
 42
6.283185307179586
  0
ELLIPSE
  5
FA
330
1F
100
AcDbEntity
  8
Hidden
370
    -3
100
AcDbEllipse
 10
14.36286964494342
 20
30.30741201290279
 30
0.0
 11
-1.400503995279314
 21
0.537204392393326
 31
0.0
210
-1.988055617882790E-17
220
-5.182905938795382E-17
230
-1.0
 40
0.659615165678383
 41
0.8441805949122085
 42
2.296750371266161
  0
ELLIPSE
  5
FB
330
1F
100
AcDbEntity
  8
Hidden
370
    -3
100
AcDbEllipse
 10
26.87122735417627
 20
36.15656815724519
 30
0.0
 11
1.400503995279313
 21
-0.5372043923933254
 31
0.0
210
1.988055617882790E-17
220
5.182905938795381E-17
230
1.0
 40
0.659615165678383
 41
0.0
 42
6.283185307179586
  0
ELLIPSE
  5
FC
330
1F
100
AcDbEntity
  8
Hidden
370
    -3
100
AcDbEllipse
 10
25.31538735439798
 20
32.10045810572965
 30
0.0000000000000035
 11
-1.400503995279313
 21
0.5372043923933256
 31
0.0
210
-1.988055617882790E-17
220
-5.182905938795382E-17
230
-1.0
 40
0.6596151656783831
 41
0.8441805949122088
 42
2.296750371266176
  0
ELLIPSE
  5
FD
330
1F
100
AcDbEntity
  8
Hidden
370
    -3
100
AcDbEllipse
 10
27.44765193652922
 20
44.79623345197619
 30
0.0000000000000035
 11
1.400503995279313
 21
-0.5372043923933254
 31
0.0
210
1.988055617882790E-17
220
5.182905938795381E-17
230
1.0
 40
0.659615165678383
 41
0.0
 42
6.283185307179586
  0
ELLIPSE
  5
FE
330
1F
100
AcDbEntity
  8
Hidden
370
    -3
100
AcDbEllipse
 10
25.89181193675093
 20
40.74012340046068
 30
0.0000000000000035
 11
-1.400503995279313
 21
0.5372043923933253
 31
0.0
210
-1.988055617882790E-17
220
-5.182905938795381E-17
230
-1.0
 40
0.6596151656783831
 41
0.8441805949122101
 42
2.296750371266136
  0
ELLIPSE
  5
FF
330
1F
100
AcDbEntity
  8
Hidden
370
    -3
100
AcDbEllipse
 10
17.0355320564603
 20
51.10287391520277
 30
-0.0000000000000035
 11
1.400503995279313
 21
-0.5372043923933254
 31
0.0
210
1.988055617882790E-17
220
5.182905938795381E-17
230
1.0
 40
0.659615165678383
 41
0.0
 42
6.283185307179586
  0
ELLIPSE
  5
100
330
1F
100
AcDbEntity
  8
Hidden
370
    -3
100
AcDbEllipse
 10
15.47969205668202
 20
47.04676386368724
 30
0.0000000000000035
 11
-1.400503995279313
 21
0.5372043923933253
 31
0.0
210
-1.988055617882790E-17
220
-5.182905938795381E-17
230
-1.0
 40
0.6596151656783831
 41
0.8441805949122079
 42
2.296750371266165
  0
ELLIPSE
  5
101
330
1F
100
AcDbEntity
  8
Hidden
370
    -3
100
AcDbEllipse
 10
6.119040876416652
 20
49.84980691433669
 30
0.0000000000000069
 11
1.400503995279313
 21
-0.5372043923933254
 31
0.0
210
1.988055617882790E-17
220
5.182905938795381E-17
230
1.0
 40
0.659615165678383
 41
0.0
 42
6.283185307179586
  0
ELLIPSE
  5
102
330
1F
100
AcDbEntity
  8
Hidden
370
    -3
100
AcDbEllipse
 10
4.563200876638368
 20
45.79369686282115
 30
0.0
 11
-1.400503995279313
 21
0.5372043923933253
 31
0.0
210
-1.988055617882790E-17
220
-5.182905938795381E-17
230
-1.0
 40
0.6596151656783831
 41
0.8441805949122035
 42
2.296750371266166
  0
ELLIPSE
  5
103
330
1F
100
AcDbEntity
  8
Hidden
370
    -3
100
AcDbEllipse
 10
5.542616405841904
 20
41.21014144296406
 30
0.0000000000000035
 11
1.400503995279313
 21
-0.5372043923933254
 31
0.0
210
1.988055617882790E-17
220
5.182905938795381E-17
230
1.0
 40
0.659615165678383
 41
0.0
 42
6.283185307179586
  0
ELLIPSE
  5
104
330
1F
100
AcDbEntity
  8
Hidden
370
    -3
100
AcDbEllipse
 10
3.986776406063609
 20
37.15403139144852
 30
0.0
 11
-1.400503995279313
 21
0.5372043923933256
 31
0.0
210
-1.988055617882790E-17
220
-5.182905938795382E-17
230
-1.0
 40
0.6596151656783831
 41
0.8441805949122096
 42
2.296750371266177
  0
ELLIPSE
  5
105
330
1F
100
AcDbEntity
  8
Hidden
370
    -3
100
AcDbEllipse
 10
47.71152940496567
 20
124.38503574933
 30
0.0
 11
29.0969574718665
 21
-11.16099162291291
 31
1.233319463806549E-15
210
-3.694997868652218E-17
220
1.417324828500807E-17
230
1.0
 40
0.6596151656783832
 41
4.295295865949479
 42
5.52684113257776
  0
ELLIPSE
  5
106
330
1F
100
AcDbEntity
  8
Hidden
370
    -3
100
AcDbEllipse
 10
45.93348435877488
 20
119.7496321185391
 30
0.0
 11
-30.59037864755452
 21
11.73383712565837
 31
0.0
210
-1.988055617882790E-17
220
-5.182905938795382E-17
230
-1.0
 40
0.6596151656783832
 41
5.095178260782828
 42
5.136406765589751
  0
SPLINE
  5
107
330
1F
100
AcDbEntity
  8
Hidden
370
    -3
100
AcDbSpline
210
0.0
220
0.0
230
1.0
 70
    12
 71
     2
 72
     6
 73
     3
 74
     0
 42
0.000000001
 43
0.00000001
 40
0.6523897946044888
 40
0.6523897946044888
 40
0.6523897946044888
 40
0.6868861489741085
 40
0.6868861489741085
 40
0.6868861489741085
 10
27.32803386416305
 20
105.4147972530912
 30
0.0000000000000208
 41
7.632841934202801
 10
28.29449863624465
 20
108.4884940043012
 30
0.0000000000000278
 41
7.759433904596606
 10
29.19339985446558
 20
111.3589998406953
 30
-0.0000000000000069
 41
7.880868249655338
  0
SPLINE
  5
108
330
1F
100
AcDbEntity
  8
Hidden
370
    -3
100
AcDbSpline
210
0.0
220
0.0
230
1.0
 70
     8
 71
     3
 72
     8
 73
     4
 74
     0
 42
0.000000001
 43
0.00000001
 40
0.288429941777875
 40
0.288429941777875
 40
0.288429941777875
 40
0.288429941777875
 40
0.2909444430173204
 40
0.2909444430173204
 40
0.2909444430173204
 40
0.2909444430173204
 10
-20.19102910412271
 20
66.8009996634713
 30
0.0000000000000104
 10
-20.23039599145941
 20
66.71504993807251
 30
0.0000000000000069
 10
-20.22915482703193
 20
66.67026934573207
 30
0.0000000000000173
 10
-20.19749673023731
 20
66.66311300336105
 30
0.0000000000000035
  0
SPLINE
  5
109
330
1F
100
AcDbEntity
  8
Hidden
370
    -3
100
AcDbSpline
210
0.0
220
0.0
230
1.0
 70
     8
 71
     3
 72
    10
 73
     6
 74
     0
 42
0.000000001
 43
0.00000001
 40
0.2909444430173204
 40
0.2909444430173204
 40
0.2909444430173204
 40
0.2909444430173204
 40
0.2921790822990537
 40
0.2921790822990537
 40
0.2922310966701742
 40
0.2922310966701742
 40
0.2922310966701742
 40
0.2922310966701742
 10
-20.19749669112854
 20
66.66311299684892
 30
0.0000000000000208
 10
-20.18095575348451
 20
66.66100620224789
 30
0.0000000000000139
 10
-20.15758887130798
 20
66.6672540134575
 30
0.0000000000000104
 10
-20.12660226541525
 20
66.68313415584062
 30
0.0000000000000069
 10
-20.12533697974801
 20
66.68379215832202
 30
0.0000000000000104
 10
-20.12405974780293
 20
66.68446549336305
 30
0.0000000000000104
  0
SPLINE
  5
10A
330
1F
100
AcDbEntity
  8
Hidden
370
    -3
100
AcDbSpline
210
0.0
220
0.0
230
1.0
 70
     8
 71
     3
 72
    12
 73
     8
 74
     0
 42
0.000000001
 43
0.00000001
 40
0.2922310966701742
 40
0.2922310966701742
 40
0.2922310966701742
 40
0.2922310966701742
 40
0.2969117659273076
 40
0.2969117659273076
 40
0.3016444495555615
 40
0.3016444495555615
 40
0.302192994616654
 40
0.302192994616654
 40
0.302192994616654
 40
0.302192994616654
 10
-20.12405974780293
 20
66.68446549336305
 30
0.0000000000000104
 10
-20.00906564339411
 20
66.7451233055309
 30
0.0000000000000173
 10
-19.79212175892193
 20
66.93579164033729
 30
0.0000000000000035
 10
-19.19277062758907
 20
67.61672338310234
 30
0.0000000000000069
 10
-18.80946596423185
 20
68.11037158256168
 30
0.0000000000000104
 10
-18.32809943932348
 20
68.82369509638778
 30
0.0000000000000104
 10
-18.27745407190477
 20
68.89975735749488
 30
0.0000000000000104
 10
-18.22620315482478
 20
68.9776806953834
 30
0.0000000000000035
  0
LINE
  5
10B
330
1F
100
AcDbEntity
  8
Hidden
370
    -3
100
AcDbLine
 10
-14.55356844896122
 20
71.87974285937707
 30
0.0
 11
-11.89802679027084
 21
71.25054227908711
 31
0.0000000000000037
  0
SPLINE
  5
10C
330
1F
100
AcDbEntity
  8
Hidden
370
    -3
100
AcDbSpline
210
0.0
220
0.0
230
1.0
 70
     8
 71
     3
 72
     8
 73
     4
 74
     0
 42
0.000000001
 43
0.00000001
 40
0.0904993075560536
 40
0.0904993075560536
 40
0.0904993075560536
 40
0.0904993075560536
 40
0.0917583344780312
 40
0.0917583344780312
 40
0.0917583344780312
 40
0.0917583344780312
 10
58.61561784320941
 20
48.02798888948809
 30
0.0000000000000069
 10
58.50418624988828
 20
48.02924107406366
 30
0.0000000000000069
 10
58.38969416435638
 20
48.04329015531536
 30
0.0000000000000069
 10
58.27195862463134
 20
48.07059383252687
 30
0.0000000000000139
  0
SPLINE
  5
10D
330
1F
100
AcDbEntity
  8
Hidden
370
    -3
100
AcDbSpline
210
0.0
220
0.0
230
1.0
 70
     8
 71
     3
 72
    20
 73
    16
 74
     0
 42
0.000000001
 43
0.00000001
 40
0.0917583344780312
 40
0.0917583344780312
 40
0.0917583344780312
 40
0.0917583344780312
 40
0.0919537217252945
 40
0.0919537217252945
 40
0.0952845262422771
 40
0.0952845262422771
 40
0.0986153307592596
 40
0.0986153307592596
 40
0.1022217508266325
 40
0.1022217508266325
 40
0.1058281708940053
 40
0.1058281708940053
 40
0.1094345909613781
 40
0.1094345909613781
 40
0.1106875319627206
 40
0.1106875319627206
 40
0.1106875319627206
 40
0.1106875319627206
 10
58.27195861486523
 20
48.07059383479662
 30
0.0000000000000069
 10
58.25368555165783
 20
48.07484537408016
 30
0.0000000000000069
 10
58.23533588615966
 20
48.07940404666504
 30
0.0000000000000139
 10
57.9027530267931
 20
48.16747340142293
 30
0.0000000000000069
 10
57.56498074879645
 20
48.34416795217749
 30
0.0000000000000139
 10
56.8441884204955
 20
48.86240415755461
 30
0.0000000000000069
 10
56.4608825951948
 20
49.20385852231077
 30
0.0000000000000069
 10
55.63367035974989
 20
50.02890202672051
 30
0.0000000000000069
 10
55.15330489179578
 20
50.5564661557232
 30
0.0000000000000069
 10
54.09490998726508
 20
51.78444044034651
 30
0.0000000000000139
 10
53.51661750967257
 20
52.4846223921273
 30
0.0000000000000069
 10
52.28000337640842
 20
54.00065604421238
 30
0.0000000000000208
 10
51.62080260487642
 20
54.8171259767639
 30
0.0000000000000069
 10
50.7009710552569
 20
55.94518265650344
 30
0.0000000000000139
 10
50.46104044432956
 20
56.23849464918439
 30
0.0000000000000139
 10
50.21933193213648
 20
56.53253624581188
 30
0.0000000000000278
  0
SPLINE
  5
10E
330
1F
100
AcDbEntity
  8
Hidden
370
    -3
100
AcDbSpline
210
0.0
220
0.0
230
1.0
 70
     8
 71
     3
 72
    10
 73
     6
 74
     0
 42
0.000000001
 43
0.00000001
 40
0.0878567920754215
 40
0.0878567920754215
 40
0.0878567920754215
 40
0.0878567920754215
 40
0.088622917208312
 40
0.088622917208312
 40
0.0904993075560536
 40
0.0904993075560536
 40
0.0904993075560536
 40
0.0904993075560536
 10
59.27787255015808
 20
48.19031764292218
 30
0.0000000000000139
 10
59.21749975849295
 20
48.15890367679481
 30
0.0000000000000139
 10
59.15611172687371
 20
48.13173721297886
 30
0.0000000000000208
 10
58.94080622381814
 20
48.0540357995264
 30
0.0
 10
58.78162093006893
 20
48.02671461357556
 30
0.0
 10
58.61561784320941
 20
48.02798888948809
 30
0.0000000000000069
  0
LINE
  5
10F
330
1F
100
AcDbEntity
  8
Hidden
370
    -3
100
AcDbLine
 10
50.21933193213648
 20
56.53253624581188
 30
0.0
 11
52.87487359082688
 21
55.90333566552191
 31
0.0000000000000052
  0
ELLIPSE
  5
110
330
1F
100
AcDbEntity
  8
Hidden
370
    -3
100
AcDbEllipse
 10
46.75572871872505
 20
121.8932417529946
 30
0.0
 11
32.54657487441331
 21
-12.48419357518939
 31
0.0
210
1.988055617882790E-17
220
5.182905938795381E-17
230
1.0
 40
0.659615165678383
 41
3.342630655626381
 42
6.484223309216175
  0
ELLIPSE
  5
111
330
1F
100
AcDbEntity
  8
Hidden
370
    -3
100
AcDbEllipse
 10
50.70291145085655
 20
132.1836363676391
 30
0.0000000000000139
 11
-29.17525572929188
 21
11.19102521649596
 31
0.0
210
-1.988055617882790E-17
220
-5.182905938795382E-17
230
-1.0
 40
0.6596151656783832
 41
2.940554651553206
 42
6.082147305142998
  0
ELLIPSE
  5
112
330
1F
100
AcDbEntity
  8
Hidden
370
    -3
100
AcDbEllipse
 10
14.73716948186338
 20
38.42013399500726
 30
0.0
 11
40.75342150639644
 21
-15.63217035587714
 31
0.0
210
1.988055617882790E-17
220
5.182905938795382E-17
230
1.0
 40
0.659615165678383
 41
4.131098530920511
 42
5.29389796912515
  0
ELLIPSE
  5
113
330
1F
100
AcDbEntity
  8
Hidden
370
    -3
100
AcDbEllipse
 10
38.56761342198784
 20
100.5466400697902
 30
0.0
 11
-36.70016048052219
 21
14.07742318346222
 31
0.0
210
-1.988055617882790E-17
220
-5.182905938795382E-17
230
-1.0
 40
0.6596151656783831
 41
3.098487047689501
 42
6.082147305142998
  0
ELLIPSE
  5
114
330
1F
100
AcDbEntity
  8
Hidden
370
    -3
100
AcDbEllipse
 10
61.87300761463739
 20
85.21849352845274
 30
0.0
 11
1.496672597925048
 21
-0.0998555687996376
 31
4.163336342344350E-17
210
2.769400630903223E-17
220
-1.847699193639979E-18
230
-1.0
 40
0.7364660860994853
 41
0.0
 42
6.283185307179586
  0
ELLIPSE
  5
115
330
1F
100
AcDbEntity
  8
Hidden
370
    -3
100
AcDbEllipse
 10
19.54336011555049
 20
95.24802504897505
 30
-0.0000000000000069
 11
1.49667259792505
 21
-0.09985556879963772
 31
4.163336342344356E-17
210
2.769400630903223E-17
220
-1.847699193639979E-18
230
-1.0
 40
0.7364660860994855
 41
0.0
 42
6.283185307179586
  0
SPLINE
  5
116
330
1F
100
AcDbEntity
  8
Hidden
370
    -3
100
AcDbSpline
210
0.0
220
0.0
230
1.0
 70
     8
 71
     3
 72
    10
 73
     6
 74
     0
 42
0.000000001
 43
0.00000001
 40
-0.0050080350526086
 40
-0.0050080350526086
 40
-0.0050080350526086
 40
-0.0050080350526086
 40
-0.0045630191195299
 40
-0.0045630191195299
 40
-0.0044128755170355
 40
-0.0044128755170355
 40
-0.0044128755170355
 40
-0.0044128755170355
 10
15.26822813045726
 20
97.17431650864152
 30
0.0
 10
15.27572289014824
 20
97.28742516399214
 30
0.0000000000000208
 10
15.29209227122757
 20
97.39431803579487
 30
0.0000000000000139
 10
15.32594421159054
 20
97.5271120220859
 30
0.0000000000000139
 10
15.33547771838342
 20
97.5596524296295
 30
-0.0000000000000069
 10
15.34599691737056
 20
97.59119612664801
 30
0.0000000000000139
  0
LINE
  5
117
330
1F
100
AcDbEntity
  8
Hidden
370
    -3
100
AcDbLine
 10
15.50271208415125
 20
99.94010163685176
 30
-0.0000000000000069
 11
15.34599691738775
 21
97.59119612668624
 31
0.0000000000000091
  0
SPLINE
  5
118
330
1F
100
AcDbEntity
  8
Hidden
370
    -3
100
AcDbSpline
210
0.0
220
0.0
230
1.0
 70
     8
 71
     3
 72
    14
 73
    10
 74
     0
 42
0.000000001
 43
0.00000001
 40
-0.0024216693432259
 40
-0.0024216693432259
 40
-0.0024216693432259
 40
-0.0024216693432259
 40
-0.0022320429441406
 40
-0.0022320429441406
 40
-0.0013384656142063
 40
-0.0013384656142063
 40
-0.000648188968947
 40
-0.000648188968947
 40
-0.0003126356282304
 40
-0.0003126356282304
 40
-0.0003126356282304
 40
-0.0003126356282304
 10
17.39283720332224
 20
101.6454816736109
 30
0.0
 10
17.43291699477984
 20
101.6429496313342
 30
0.0000000000000069
 10
17.47378210795705
 20
101.6383418657038
 30
0.0
 10
17.71128140226121
 20
101.6002501249486
 30
0.0
 10
17.92128864599083
 20
101.5233616671255
 30
0.0000000000000139
 10
18.30307949543626
 20
101.3138816297277
 30
0.0000000000000069
 10
18.46751051391325
 20
101.2008169678802
 30
0.0000000000000069
 10
18.70303877637335
 20
101.0088770841247
 30
0.0000000000000069
 10
18.77900301544362
 20
100.9420244673096
 30
0.0000000000000139
 10
18.85348857279076
 20
100.8715402548708
 30
0.0000000000000069
  0
SPLINE
  5
119
330
1F
100
AcDbEntity
  8
Hidden
370
    -3
100
AcDbSpline
210
0.0
220
0.0
230
1.0
 70
     8
 71
     3
 72
    12
 73
     8
 74
     0
 42
0.000000001
 43
0.00000001
 40
-0.0045167888273711
 40
-0.0045167888273711
 40
-0.0045167888273711
 40
-0.0045167888273711
 40
-0.0038693554915197
 40
-0.0038693554915197
 40
-0.0031325932795281
 40
-0.0031325932795281
 40
-0.0024216693432259
 40
-0.0024216693432259
 40
-0.0024216693432259
 40
-0.0024216693432259
 10
16.46165970108279
 20
100.9820933105061
 30
0.0000000000000069
 10
16.50586064808637
 20
101.1182582720458
 30
0.0000000000000139
 10
16.56767903499048
 20
101.2382396668132
 30
0.0000000000000208
 10
16.73841213259864
 20
101.4509011581822
 30
0.0000000000000208
 10
16.84987232535029
 20
101.5340215240292
 30
0.0000000000000069
 10
17.10331035665322
 20
101.6352738125691
 30
0.0000000000000139
 10
17.24256644523827
 20
101.6549707015151
 30
0.0000000000000069
 10
17.39283720332224
 20
101.6454816736109
 30
0.0
  0
LINE
  5
11A
330
1F
100
AcDbEntity
  8
Hidden
370
    -3
100
AcDbLine
 10
19.04184579377264
 20
103.6947087036293
 30
0.0
 11
18.85348857278883
 21
100.8715402548727
 31
0.0000000000000069
  0
SPLINE
  5
11B
330
1F
100
AcDbEntity
  8
Hidden
370
    -3
100
AcDbSpline
210
0.0
220
0.0
230
1.0
 70
     8
 71
     3
 72
    10
 73
     6
 74
     0
 42
0.000000001
 43
0.00000001
 40
-0.0143833022451685
 40
-0.0143833022451685
 40
-0.0143833022451685
 40
-0.0143833022451685
 40
-0.013598429130345
 40
-0.013598429130345
 40
-0.0128880432475062
 40
-0.0128880432475062
 40
-0.0128880432475062
 40
-0.0128880432475062
 10
66.28598571030756
 20
89.97399513653224
 30
0.0000000000000208
 10
66.38767467125145
 20
89.92006507602137
 30
0.0000000000000208
 10
66.46222860128395
 20
89.84015786833224
 30
0.0000000000000069
 10
66.54805668446149
 20
89.64122735451349
 30
0.0000000000000208
 10
66.56417077559402
 20
89.5278473996102
 30
0.0000000000000069
 10
66.55551771104062
 20
89.39813505510557
 30
0.0000000000000069
  0
SPLINE
  5
11C
330
1F
100
AcDbEntity
  8
Hidden
370
    -3
100
AcDbSpline
210
0.0
220
0.0
230
1.0
 70
     8
 71
     3
 72
    14
 73
    10
 74
     0
 42
0.000000001
 43
0.00000001
 40
-0.0164869413251826
 40
-0.0164869413251826
 40
-0.0164869413251826
 40
-0.0164869413251826
 40
-0.016039153087046
 40
-0.016039153087046
 40
-0.0153292682654042
 40
-0.0153292682654042
 40
-0.0144160052714944
 40
-0.0144160052714944
 40
-0.0143833022451685
 40
-0.0143833022451685
 40
-0.0143833022451685
 40
-0.0143833022451685
 10
65.02617155092103
 20
89.85357819704677
 30
0.0000000000000139
 10
65.13516216139485
 20
89.8978359702724
 30
0.0000000000000208
 10
65.24189768474686
 20
89.93542356891251
 30
0.0000000000000139
 10
65.50911653383804
 20
90.01396527158221
 30
0.0000000000000139
 10
65.66607769628442
 20
90.04447755634831
 30
0.0000000000000139
 10
65.99581773123842
 20
90.06521354125768
 30
0.0000000000000208
 10
66.15218401980252
 20
90.0408309346617
 30
0.0000000000000069
 10
66.2774646299819
 20
89.97844412311345
 30
0.0000000000000208
 10
66.28174877262816
 20
89.9762421411282
 30
0.0000000000000139
 10
66.28598571030756
 20
89.97399513653224
 30
0.0000000000000208
  0
ELLIPSE
  5
11D
330
1F
100
AcDbEntity
  8
Hidden
370
    -3
100
AcDbEllipse
 10
37.41375539874131
 20
57.96050314328374
 30
-0.0000000000000069
 11
-1.484534234996072
 21
0.5694366559369249
 31
0.0
210
-1.988055617882790E-17
220
-5.182905938795381E-17
230
-1.0
 40
0.659615165678383
 41
1.369758324758321
 42
2.940554651553208
  0
ELLIPSE
  5
11E
330
1F
100
AcDbEntity
  8
Hidden
370
    -3
100
AcDbEllipse
 10
35.61565657546813
 20
53.27281886229346
 30
0.0000000000000035
 11
-1.484534234996072
 21
0.5694366559369249
 31
0.0
210
-1.988055617882790E-17
220
-5.182905938795381E-17
230
-1.0
 40
0.659615165678383
 41
1.369758324758321
 42
2.177877173918123
  0
LINE
  5
11F
330
1F
100
AcDbEntity
  8
Hidden
370
    -3
100
AcDbLine
 10
35.68725930267234
 20
54.34602730756555
 30
0.0
 11
37.48535812594552
 21
59.0337115885558
 31
0.0
  0
ELLIPSE
  5
120
330
1F
100
AcDbEntity
  8
Hidden
370
    -3
100
AcDbEllipse
 10
37.1066292355132
 20
53.357181384318
 30
0.0000000000000069
 11
-1.484534234996072
 21
0.5694366559369249
 31
0.0
210
-1.988055617882790E-17
220
-5.182905938795381E-17
230
-1.0
 40
0.659615165678383
 41
2.940554651553214
 42
4.467001638914772
  0
LINE
  5
121
330
1F
100
AcDbEntity
  8
Hidden
370
    -3
100
AcDbLine
 10
36.83816994686612
 20
48.30706630519976
 30
0.0
 11
38.6362687701393
 21
52.99475058619003
 31
-0.0000000000000014
  0
ELLIPSE
  5
122
330
1F
100
AcDbEntity
  8
Hidden
370
    -3
100
AcDbEllipse
 10
-1.85661303109338
 20
67.26517306755038
 30
0.0000000000000035
 11
-1.484534234996072
 21
0.5694366559369249
 31
0.0
210
-1.988055617882790E-17
220
-5.182905938795381E-17
230
-1.0
 40
0.659615165678383
 41
6.08214730514301
 42
7.652943631937903
  0
LINE
  5
123
330
1F
100
AcDbEntity
  8
Hidden
370
    -3
100
AcDbLine
 10
-5.035200220627175
 20
63.32876005240247
 30
-0.0000000000000035
 11
-3.386252565719473
 21
67.62760386567837
 31
-0.0000000000000014
  0
ELLIPSE
  5
124
330
1F
100
AcDbEntity
  8
Hidden
370
    -3
100
AcDbEllipse
 10
-3.654711854366555
 20
62.57748878656011
 30
-0.0000000000000035
 11
-1.484534234996072
 21
0.5694366559369249
 31
0.0
210
-1.988055617882790E-17
220
-5.182905938795381E-17
230
-1.0
 40
0.659615165678383
 41
0.9742863048425284
 42
1.369758324758312
  0
LINE
  5
125
330
1F
100
AcDbEntity
  8
Hidden
370
    -3
100
AcDbLine
 10
-3.717595112434082
 20
63.63463206448629
 30
-0.0000000000000069
 11
-3.583109127162353
 21
63.65069723183218
 31
-0.0000000000000019
  0
LINE
  5
126
330
1F
100
AcDbEntity
  8
Hidden
370
    -3
100
AcDbLine
 10
35.5527733174006
 20
54.32996214021964
 30
-0.0000000000000069
 11
35.68725930267235
 21
54.34602730756555
 31
-0.0000000000000049
  0
LINE
  5
127
330
1F
100
AcDbEntity
  8
Hidden
370
    -3
100
AcDbLine
 10
-3.583109127162353
 20
63.65069723183218
 30
0.0
 11
35.68725930267234
 21
54.34602730756554
 31
-0.0000000000000022
  0
LINE
  5
128
330
1F
100
AcDbEntity
  8
Hidden
370
    -3
100
AcDbLine
 10
-1.785010303889169
 20
68.33838151282242
 30
0.0
 11
-3.583109127162352
 21
63.65069723183218
 31
0.0
  0
LINE
  5
129
330
1F
100
AcDbEntity
  8
Hidden
370
    -3
100
AcDbLine
 10
37.48535812594552
 20
59.0337115885558
 30
0.0
 11
-1.785010303889167
 21
68.33838151282244
 31
0.0000000000000022
  0
LINE
  5
12A
330
1F
100
AcDbEntity
  8
Hidden
370
    -3
100
AcDbLine
 10
-3.386252565719471
 20
67.62760386567837
 30
0.0000000000000035
 11
-3.653667316054377
 21
63.6194916099644
 31
0.0000000000000064
  0
LINE
  5
12B
330
1F
100
AcDbEntity
  8
Hidden
370
    -3
100
AcDbLine
 10
38.9433949333674
 20
57.59807234515576
 30
0.0
 11
37.14529611009422
 21
52.9103880641655
 31
0.0000000000000042
  0
LINE
  5
12C
330
1F
100
AcDbEntity
  8
Hidden
370
    -3
100
AcDbLine
 10
65.02617155092108
 20
89.85357819704676
 30
0.0
 11
65.21964306550379
 21
92.75340159033222
 31
-0.0000000000000029
  0
LINE
  5
12D
330
1F
100
AcDbEntity
  8
Hidden
370
    -3
100
AcDbLine
 10
16.46165970139748
 20
100.9820933111822
 30
0.0
 11
16.57941796635075
 21
102.747098212295
 31
0.0000000000000007
  0
ELLIPSE
  5
12E
330
1F
100
AcDbEntity
  8
Hidden
370
    -3
100
AcDbEllipse
 10
43.13956705267613
 20
112.465826540854
 30
0.0000000000000069
 11
32.59972848382687
 21
-12.50458220138756
 31
2.260841064514361E-15
210
-6.045639350038383E-17
220
2.318982326800771E-17
230
1.0
 40
0.6596151656783825
 41
5.453045568935265
 42
5.668924930155951
  0
LINE
  5
12F
330
1F
100
AcDbEntity
  8
Hidden
370
    -3
100
AcDbLine
 10
59.44741840653739
 20
94.12106497949435
 30
0.0000000000000069
 11
59.04957955159356
 21
88.15810748256135
 31
0.0000000000000079
  0
ELLIPSE
  5
130
330
1F
100
AcDbEntity
  8
Hidden
370
    -3
100
AcDbEllipse
 10
40.98615528827703
 20
106.8518333899675
 30
0.0000000000000069
 11
-33.69838202082832
 21
12.92600299546224
 31
0.0
210
-1.988055617882790E-17
220
-5.182905938795381E-17
230
-1.0
 40
0.6596151656783831
 41
5.035391053497905
 42
5.09512177759555
  0
LINE
  5
131
330
1F
100
AcDbEntity
  8
Hidden
370
    -3
100
AcDbLine
 10
22.66065868834003
 20
96.71305216358061
 30
0.0000000000000139
 11
22.20451858309603
 21
89.87625373020364
 31
0.0000000000000051
  0
SPLINE
  5
132
330
1F
100
AcDbEntity
  8
Hidden
370
    -3
100
AcDbSpline
210
0.0
220
0.0
230
1.0
 70
     8
 71
     3
 72
     8
 73
     4
 74
     0
 42
0.000000001
 43
0.00000001
 40
0.0850293226734357
 40
0.0850293226734357
 40
0.0850293226734357
 40
0.0850293226734357
 40
0.0888061373953341
 40
0.0888061373953341
 40
0.0888061373953341
 40
0.0888061373953341
 10
15.34599691737153
 20
97.59119612665096
 30
0.0000000000000069
 10
15.71999570479527
 20
98.71353700883286
 30
0.0000000000000139
 10
16.09246893048578
 20
99.84623117697191
 30
0.0000000000000139
 10
16.46165401110278
 20
100.9820757833331
 30
0.0000000000000069
  0
LINE
  5
133
330
1F
100
AcDbEntity
  8
Hidden
370
    -3
100
AcDbLine
 10
47.15460895186435
 20
62.07343283379183
 30
0.0
 11
34.92140429238538
 21
30.18119173661595
 31
0.0000000000000019
  0
LINE
  5
134
330
1F
100
AcDbEntity
  8
Hidden
370
    -3
100
AcDbLine
 10
34.92140429238537
 20
30.18119173661595
 30
0.0
 11
34.22618340382175
 21
19.76096113829941
 31
-0.0000000000000006
  0
SPLINE
  5
135
330
1F
100
AcDbEntity
  8
Hidden
370
    -3
100
AcDbSpline
210
0.0
220
0.0
230
1.0
 70
    12
 71
     2
 72
     6
 73
     3
 74
     0
 42
0.000000001
 43
0.00000001
 40
13.57243399273091
 40
13.57243399273091
 40
13.57243399273091
 40
13.79007462736887
 40
13.79007462736887
 40
13.79007462736887
 10
49.08116217465267
 20
60.2357934818014
 30
0.0000000000000208
 41
8.267232511243238
 10
41.98566659217317
 20
40.89487051151273
 30
0.0000000000000208
 41
8.074758225430465
 10
34.22618340382174
 20
19.76096113829942
 30
0.0000000000000191
 41
7.874242426489063
  0
SPLINE
  5
136
330
1F
100
AcDbEntity
  8
Hidden
370
    -3
100
AcDbSpline
210
0.0
220
0.0
230
1.0
 70
     8
 71
     3
 72
     8
 73
     4
 74
     0
 42
0.000000001
 43
0.00000001
 40
0.2158383113531984
 40
0.2158383113531984
 40
0.2158383113531984
 40
0.2158383113531984
 40
0.222055625577697
 40
0.222055625577697
 40
0.222055625577697
 40
0.222055625577697
 10
60.88515535171098
 20
93.78007116873214
 30
0.0000000000000139
 10
60.27901334059928
 20
91.89195821591665
 30
0.0
 10
59.66559202198567
 20
90.01323899470637
 30
0.0000000000000069
 10
59.04957961760484
 20
88.15810768132891
 30
0.0000000000000069
  0
ELLIPSE
  5
137
330
1F
100
AcDbEntity
  8
Hidden
370
    -3
100
AcDbEllipse
 10
37.99172249676572
 20
99.04527940885922
 30
0.0000000000000069
 11
34.59247024495183
 21
-13.26895676268124
 31
0.0
210
1.988055617882790E-17
220
5.182905938795381E-17
230
1.0
 40
0.659615165678383
 41
6.178978018959696
 42
6.484223309216174
  0
ELLIPSE
  5
138
330
1F
100
AcDbEntity
  8
Hidden
370
    -3
100
AcDbEllipse
 10
43.13956705267604
 20
112.465826540854
 30
-0.0000000000000139
 11
32.59972848382695
 21
-12.5045822013874
 31
0.0
210
1.988055617882790E-17
220
5.182905938795382E-17
230
1.0
 40
0.6596151656783831
 41
4.153197073601731
 42
4.369797472144022
  0
LINE
  5
139
330
1F
100
AcDbEntity
  8
Hidden
370
    -3
100
AcDbLine
 10
24.41948284456968
 20
96.41281871972542
 30
0.0
 11
24.81407045273905
 21
102.3270453144672
 31
0.0000000000000043
  0
SPLINE
  5
13A
330
1F
100
AcDbEntity
  8
Hidden
370
    -3
100
AcDbSpline
210
0.0
220
0.0
230
1.0
 70
     8
 71
     3
 72
    10
 73
     6
 74
     0
 42
0.000000001
 43
0.00000001
 40
0.1081619968796212
 40
0.1081619968796212
 40
0.1081619968796212
 40
0.1081619968796212
 40
0.1161723114599316
 40
0.1161723114599316
 40
0.118080963117809
 40
0.118080963117809
 40
0.118080963117809
 40
0.118080963117809
 10
24.41948284456869
 20
96.41281871972242
 30
0.0000000000000139
 10
25.21306721367928
 20
98.80342972939637
 30
0.0000000000000139
 10
26.00223358394936
 20
101.2330775996098
 30
0.0000000000000139
 10
26.96147238192158
 20
104.2520473276269
 30
0.0000000000000139
 10
27.14523147111801
 20
104.8334215652782
 30
0.0000000000000139
 10
27.32803386416305
 20
105.4147972530912
 30
0.0000000000000208
  0
LINE
  5
13B
330
1F
100
AcDbEntity
  8
Hidden
370
    -3
100
AcDbLine
 10
29.19339985446558
 20
111.3589998406954
 30
-0.0000000000000069
 11
29.38603280502869
 21
114.2462545229431
 31
0.0
  0
LINE
  5
13C
330
1F
100
AcDbEntity
  8
Hidden
370
    -3
100
AcDbLine
 10
0.2880563385869988
 20
38.38717207158873
 30
0.0
 11
8.235989220795352
 21
59.10761277043309
 31
0.0000000000000025
  0
LINE
  5
13D
330
1F
100
AcDbEntity
  8
Hidden
370
    -3
100
AcDbLine
 10
8.831916653001045
 20
60.66120905802553
 30
0.0
 11
15.107957526274
 21
77.02298949395228
 31
0.0000000000000049
  0
SPLINE
  5
13E
330
1F
100
AcDbEntity
  8
Hidden
370
    -3
100
AcDbSpline
210
0.0
220
0.0
230
1.0
 70
     8
 71
     3
 72
    10
 73
     6
 74
     0
 42
0.000000001
 43
0.00000001
 40
0.0903186539575876
 40
0.0903186539575876
 40
0.0903186539575876
 40
0.0903186539575876
 40
0.0936528653720505
 40
0.0936528653720505
 40
0.1007212579181503
 40
0.1007212579181503
 40
0.1007212579181503
 40
0.1007212579181503
 10
19.16049088432082
 20
81.3263527370978
 30
0.0000000000000139
 10
19.47839643836485
 20
82.19324114534062
 30
0.0000000000000139
 10
19.7993970033148
 20
83.07674907242333
 30
0.0000000000000139
 10
20.8083122896032
 20
85.88016699226347
 30
0.0000000000000069
 10
21.50454565799825
 20
87.85312411394139
 30
0.0000000000000208
 10
22.2045185830961
 20
89.87625373020377
 30
0.0000000000000278
  0
LINE
  5
13F
330
1F
100
AcDbEntity
  8
Hidden
370
    -3
100
AcDbLine
 10
-0.4045016465432554
 20
28.00685406550462
 30
0.0000000000000017
 11
0.288056338586999
 21
38.38717207158872
 31
0.0000000000000006
  0
LINE
  5
140
330
1F
100
AcDbEntity
  8
Hidden
370
    -3
100
AcDbLine
 10
-7.408243206701519
 20
40.21072325713823
 30
0.0
 11
0.2880563385869996
 21
38.38717207158873
 31
-0.0000000000000009
  0
LINE
  5
141
330
1F
100
AcDbEntity
  8
Hidden
370
    -3
100
AcDbLine
 10
-9.526662029929067
 20
34.68795749495357
 30
-0.0000000000000017
 11
-7.40824320670152
 21
40.21072325713823
 31
-0.0000000000000021
  0
LINE
  5
142
330
1F
100
AcDbEntity
  8
Hidden
370
    -3
100
AcDbLine
 10
40.49928501444636
 20
22.8348747888818
 30
0.0
 11
-9.526662029929064
 21
34.68795749495358
 31
0.0
  0
LINE
  5
143
330
1F
100
AcDbEntity
  8
Hidden
370
    -3
100
AcDbLine
 10
42.61770383767389
 20
28.35764055106645
 30
-0.0000000000000035
 11
40.49928501444636
 21
22.8348747888818
 31
0.0000000000000011
  0
LINE
  5
144
330
1F
100
AcDbEntity
  8
Hidden
370
    -3
100
AcDbLine
 10
34.92140429238537
 20
30.18119173661595
 30
0.0
 11
42.61770383767389
 21
28.35764055106645
 31
-0.0000000000000043
  0
ELLIPSE
  5
145
330
1F
100
AcDbEntity
  8
Hidden
370
    -3
100
AcDbEllipse
 10
18.613552938524
 20
48.52595329797557
 30
0.0000000000000035
 11
38.0214322078009
 21
-14.58423571511636
 31
1.611597103546718E-15
210
-3.694997868652219E-17
220
1.417324828500807E-17
230
1.0
 40
0.6596151656783831
 41
5.369629017006231
 42
5.604018013781642
  0
SPLINE
  5
146
330
1F
100
AcDbEntity
  8
Hidden
370
    -3
100
AcDbSpline
210
0.0
220
0.0
230
1.0
 70
    12
 71
     2
 72
     6
 73
     3
 74
     0
 42
0.000000001
 43
0.00000001
 40
12.5614343493001
 40
12.5614343493001
 40
12.5614343493001
 40
12.60511572759659
 40
12.60511572759659
 40
12.60511572759659
 10
42.15513182559095
 20
21.42443829330898
 30
0.0000000000000208
 41
7.183033081559945
 10
41.09297723159829
 20
18.51137072259607
 30
0.0000000000000069
 41
7.161643946826363
 10
40.01333648870356
 20
15.55129660466793
 30
0.0000000000000087
 41
7.140031286097829
  0
LINE
  5
147
330
1F
100
AcDbEntity
  8
Hidden
370
    -3
100
AcDbLine
 10
38.6362687701393
 20
52.99475058619003
 30
0.0
 11
38.9433949333674
 21
57.59807234515575
 31
0.0000000000000008
  0
LINE
  5
148
330
1F
100
AcDbEntity
  8
Hidden
370
    -3
100
AcDbLine
 10
-7.866332310623561
 20
33.34471250290726
 30
0.0
 11
-7.40824320670152
 21
40.21072325713823
 31
-0.0000000000000027
  0
LINE
  5
149
330
1F
100
AcDbEntity
  8
Hidden
370
    -3
100
AcDbLine
 10
-9.526662029929067
 20
34.68795749495357
 30
-0.0000000000000017
 11
-10.00820079743153
 21
27.47047441591103
 31
-0.0000000000000013
  0
LINE
  5
14A
330
1F
100
AcDbEntity
  8
Hidden
370
    -3
100
AcDbLine
 10
42.61770383767389
 20
28.35764055106645
 30
-0.0000000000000035
 11
42.1551318255912
 21
21.42443829330965
 31
0.0000000000000015
  0
LINE
  5
14B
330
1F
100
AcDbEntity
  8
Hidden
370
    -3
100
AcDbLine
 10
40.01333648870358
 20
15.55129660466794
 30
0.0000000000000017
 11
40.49928501444636
 21
22.83487478888179
 31
0.0000000000000021
  0
LINE
  5
14C
330
1F
100
AcDbEntity
  8
Hidden
370
    -3
100
AcDbLine
 10
-6.133471942580497
 20
36.59180623206977
 30
-0.0000000000000035
 11
-6.691531913636374
 21
28.22739474537462
 31
-0.000000000000003
  0
LINE
  5
14D
330
1F
100
AcDbEntity
  8
Hidden
370
    -3
100
AcDbLine
 10
-3.780774076159037
 20
26.7898334037519
 30
0.0
 11
-3.140126746730414
 21
36.39209509447048
 31
-0.0000000000000016
  0
LINE
  5
14E
330
1F
100
AcDbEntity
  8
Hidden
370
    -3
100
AcDbLine
 10
38.62954611815265
 20
17.96945440016097
 30
0.0000000000000017
 11
39.18952075235647
 21
26.36256357394811
 31
0.0000000000000031
  0
LINE
  5
14F
330
1F
100
AcDbEntity
  8
Hidden
370
    -3
100
AcDbLine
 10
36.1961755565064
 20
26.56227471154741
 30
0.0
 11
35.55062505877624
 21
16.88652250119001
 31
-0.0000000000000011
  0
LINE
  5
150
330
1F
100
AcDbEntity
  8
Hidden
370
    -3
100
AcDbLine
 10
12.29362238648609
 20
44.61480138304759
 30
0.0000000000000035
 11
10.33401780089336
 21
39.5060679286106
 31
-0.0000000000000014
  0
LINE
  5
151
330
1F
100
AcDbEntity
  8
Hidden
370
    -3
100
AcDbLine
 10
18.73704177256924
 20
36.28284157425065
 30
0.0000000000000035
 11
20.69664635816197
 21
41.39157502868763
 31
0.0000000000000026
  0
LINE
  5
152
330
1F
100
AcDbEntity
  8
Hidden
370
    -3
100
AcDbLine
 10
-18.00762232946645
 20
66.22751978329386
 30
-0.0000000000000035
 11
-21.42770931938771
 21
58.85034409779773
 31
-0.0000000000000017
  0
LINE
  5
153
330
1F
100
AcDbEntity
  8
Hidden
370
    -3
100
AcDbLine
 10
55.28786095404163
 20
29.42383668864487
 30
0.0000000000000069
 11
72.9413598102429
 21
86.8111992709648
 31
0.0000000000000103
  0
LINE
  5
154
330
1F
100
AcDbEntity
  8
Hidden
370
    -3
100
AcDbLine
 10
14.51820590646996
 20
34.90072712688833
 30
0.0
 11
12.96236584219411
 21
30.84461690722621
 31
0.0000000000000007
  0
LINE
  5
155
330
1F
100
AcDbEntity
  8
Hidden
370
    -3
100
AcDbLine
 10
15.76337383275275
 20
29.77020812243957
 30
0.0
 11
17.31921389702858
 21
33.82631834210166
 31
0.0000000000000012
  0
LINE
  5
156
330
1F
100
AcDbEntity
  8
Hidden
370
    -3
100
AcDbLine
 10
25.47072361592451
 20
36.69377321971519
 30
0.0
 11
23.91488355164867
 21
32.63766300005309
 31
0.0000000000000005
  0
LINE
  5
157
330
1F
100
AcDbEntity
  8
Hidden
370
    -3
100
AcDbLine
 10
26.71589154220731
 20
31.56325421526643
 30
0.0000000000000035
 11
28.27173160648315
 21
35.61936443492853
 31
0.0000000000000008
  0
LINE
  5
158
330
1F
100
AcDbEntity
  8
Hidden
370
    -3
100
AcDbLine
 10
26.04714819827748
 20
45.33343851444621
 30
0.0
 11
24.49130813400163
 21
41.2773282947841
 31
-0.0000000000000036
  0
LINE
  5
159
330
1F
100
AcDbEntity
  8
Hidden
370
    -3
100
AcDbLine
 10
27.29231612456026
 20
40.20291950999744
 30
-0.0000000000000035
 11
28.8481561888361
 21
44.25902972965955
 31
-0.0000000000000006
  0
LINE
  5
15A
330
1F
100
AcDbEntity
  8
Hidden
370
    -3
100
AcDbLine
 10
15.63502831820856
 20
51.64007897767276
 30
0.0
 11
14.07918825393271
 21
47.58396875801066
 31
-0.0000000000000036
  0
LINE
  5
15B
330
1F
100
AcDbEntity
  8
Hidden
370
    -3
100
AcDbLine
 10
16.88019624449134
 20
46.50955997322401
 30
0.0000000000000035
 11
18.43603630876719
 21
50.56567019288612
 31
0.0000000000000032
  0
LINE
  5
15C
330
1F
100
AcDbEntity
  8
Hidden
370
    -3
100
AcDbLine
 10
4.71853713816491
 20
50.38701197680669
 30
0.0000000000000035
 11
3.162697073889074
 21
46.33090175714457
 31
0.0000000000000013
  0
LINE
  5
15D
330
1F
100
AcDbEntity
  8
Hidden
370
    -3
100
AcDbLine
 10
5.963705064447693
 20
45.25649297235793
 30
-0.0000000000000035
 11
7.519545128723542
 21
49.31260319202004
 31
-0.0000000000000042
  0
LINE
  5
15E
330
1F
100
AcDbEntity
  8
Hidden
370
    -3
100
AcDbLine
 10
4.142112667590162
 20
41.74734650543407
 30
0.0
 11
2.586272603314313
 21
37.69123628577196
 31
-0.0000000000000012
  0
LINE
  5
15F
330
1F
100
AcDbEntity
  8
Hidden
370
    -3
100
AcDbLine
 10
5.38728059387294
 20
36.61682750098529
 30
0.0
 11
6.943120658148789
 21
40.67293772064741
 31
-0.0000000000000007
  0
LINE
  5
160
330
1F
100
AcDbEntity
  8
Hidden
370
    -3
100
AcDbLine
 10
-20.19979451116879
 20
66.66357154437993
 30
0.0000000000000035
 11
-18.01192148210782
 21
66.14517975979584
 31
0.0000000000000048
  0
LINE
  5
161
330
1F
100
AcDbEntity
  8
Hidden
370
    -3
100
AcDbLine
 10
58.26425605868017
 20
48.07240164543075
 30
0.0
 11
60.45215417482241
 21
47.5540039167463
 31
-0.0000000000000051
  0
LINE
  5
162
330
1F
100
AcDbEntity
  8
Hidden
370
    -3
100
AcDbLine
 10
15.92379527577814
 20
30.3612067365507
 30
0.0
 11
15.34521483422834
 21
30.86062121453444
 31
0.0000000000000032
  0
LINE
  5
163
330
1F
100
AcDbEntity
  8
Hidden
370
    -3
100
AcDbLine
 10
14.00248398416431
 20
31.37566506355769
 30
0.0000000000000035
 11
13.23833346197617
 21
31.39129440160356
 31
0.0000000000000003
  0
LINE
  5
164
330
1F
100
AcDbEntity
  8
Hidden
370
    -3
100
AcDbLine
 10
26.87631307143539
 20
32.15425275496982
 30
0.0
 11
26.29773256849407
 21
32.65366728594501
 31
0.0000000000000015
  0
LINE
  5
165
330
1F
100
AcDbEntity
  8
Hidden
370
    -3
100
AcDbLine
 10
24.95500163148873
 20
33.16871115765534
 30
0.0
 11
24.19085108747063
 21
33.18434049614771
 31
0.0000000000000025
  0
LINE
  5
166
330
1F
100
AcDbEntity
  8
Hidden
370
    -3
100
AcDbLine
 10
27.45273762268033
 20
40.79391807655241
 30
0.0
 11
26.87415711973902
 21
41.29333260752761
 31
0.0000000000000012
  0
LINE
  5
167
330
1F
100
AcDbEntity
  8
Hidden
370
    -3
100
AcDbLine
 10
25.53142622975982
 20
41.80837645206076
 30
0.0
 11
24.76727568574172
 21
41.82400579055314
 31
-0.0000000000000026
  0
LINE
  5
168
330
1F
100
AcDbEntity
  8
Hidden
370
    -3
100
AcDbLine
 10
17.04061765523227
 20
47.1005586152022
 30
0.0000000000000035
 11
16.46203721368248
 21
47.59997309318594
 31
-0.0000000000000033
  0
LINE
  5
169
330
1F
100
AcDbEntity
  8
Hidden
370
    -3
100
AcDbLine
 10
15.11930622251886
 20
48.11501691788841
 30
0.0
 11
14.35515570033071
 21
48.1306462559343
 31
0.0000000000000027
  0
LINE
  5
16A
330
1F
100
AcDbEntity
  8
Hidden
370
    -3
100
AcDbLine
 10
6.124126550102469
 20
45.84749154967258
 30
0.0000000000000035
 11
5.545546115793033
 21
46.34690602140667
 31
0.0000000000000008
  0
LINE
  5
16B
330
1F
100
AcDbEntity
  8
Hidden
370
    -3
100
AcDbLine
 10
4.202815234904278
 20
46.86194991308654
 30
0.0
 11
3.438664690886169
 21
46.8775792515789
 31
0.0000000000000008
  0
LINE
  5
16C
330
1F
100
AcDbEntity
  8
Hidden
370
    -3
100
AcDbLine
 10
5.547702127185707
 20
37.2078260371629
 30
0.0
 11
4.969121624244392
 21
37.70724056813811
 31
-0.0000000000000028
  0
LINE
  5
16D
330
1F
100
AcDbEntity
  8
Hidden
370
    -3
100
AcDbLine
 10
3.626390685617518
 20
38.22228444332382
 30
0.0000000000000035
 11
2.862240141599419
 21
38.2379137818162
 31
0.0000000000000039
  0
LINE
  5
16E
330
1F
100
AcDbEntity
  8
Hidden
370
    -3
100
AcDbLine
 10
63.36968023484117
 20
85.11863829357512
 30
0.0000000000000069
 11
63.71553486650853
 21
90.30243681682654
 31
0.0000000000000101
  0
LINE
  5
16F
330
1F
100
AcDbEntity
  8
Hidden
370
    -3
100
AcDbLine
 10
60.72218967065842
 20
90.50214795442582
 30
0.0000000000000069
 11
60.37633503899106
 21
85.3183494311744
 31
0.0000000000000098
  0
LINE
  5
170
330
1F
100
AcDbEntity
  8
Hidden
370
    -3
100
AcDbLine
 10
21.04003273575428
 20
95.1481698140975
 30
0.0000000000000069
 11
21.38588736742163
 21
100.3319683373489
 31
-0.0000000000000008
  0
LINE
  5
171
330
1F
100
AcDbEntity
  8
Hidden
370
    -3
100
AcDbLine
 10
18.39254217157154
 20
100.5316794749482
 30
0.0000000000000069
 11
18.04668753990418
 21
95.3478809516968
 31
0.0000000000000139
  0
LINE
  5
172
330
1F
100
AcDbEntity
  8
Hidden
370
    -3
100
AcDbLine
 10
36.79306474991876
 20
48.10006071508686
 30
0.0000000000000035
 11
38.59116372753683
 21
52.78774539845777
 31
-0.0000000000000015
  0
LINE
  5
173
330
1F
100
AcDbEntity
  8
Hidden
370
    -3
100
AcDbLine
 10
-3.341147009061882
 20
67.83461039356398
 30
0.0000000000000069
 11
-5.139245986679956
 21
63.14692571019308
 31
-0.0000000000000023
  0
LINE
  5
174
330
1F
100
AcDbEntity
  8
Hidden
370
    -3
100
AcDbLine
 10
-4.036720881328851
 20
63.70983702488772
 30
0.0
 11
-4.342380873902562
 21
63.71608875568199
 31
0.000000000000002
  0
LINE
  5
175
330
1F
100
AcDbEntity
  8
Hidden
370
    -3
100
AcDbLine
 10
36.88837441656923
 20
53.65945502867697
 30
0.0
 11
36.65694258433677
 21
53.85922052260484
 31
0.0000000000000044
  0
SPLINE
  5
176
330
1F
100
AcDbEntity
  8
Hidden
370
    -3
100
AcDbSpline
210
0.0
220
0.0
230
1.0
 70
     8
 71
     3
 72
     8
 73
     4
 74
     0
 42
0.000000001
 43
0.00000001
 40
0.0000006104552172
 40
0.0000006104552172
 40
0.0000006104552172
 40
0.0000006104552172
 40
0.0282324702546844
 40
0.0282324702546844
 40
0.0282324702546844
 40
0.0282324702546844
 10
77.35993576393034
 20
110.6513652293556
 30
0.0
 10
76.82566177091694
 20
102.6440797044863
 30
0.0000000000000139
 10
75.34517385143393
 20
94.62543099326365
 30
0.0000000000000069
 10
72.94135802719232
 20
86.81119347468812
 30
0.0000000000000069
  0
ENDSEC
  0
SECTION
  2
OBJECTS
  0
DICTIONARY
  5
C
330
0
100
AcDbDictionary
281
     1
  3
ACAD_DETAILVIEWSTYLE
350
17B
  3
ACAD_GROUP
350
D
  3
ACAD_LAYOUT
350
1A
  3
ACAD_MATERIAL
350
43
  3
ACAD_MLEADERSTYLE
350
17A
  3
ACAD_MLINESTYLE
350
17
  3
ACAD_PLOTSETTINGS
350
19
  3
ACAD_PLOTSTYLENAME
350
E
  3
ACAD_SCALELIST
350
47
  3
ACAD_SECTIONVIEWSTYLE
350
17C
  3
ACAD_TABLESTYLE
350
179
  3
ACAD_VISUALSTYLE
350
2A
  3
AcDbVariableDictionary
350
177
  0
SUN
  5
69
330
29
100
AcDbSun
 90
        1
290
     0
 63
     7
421
 16777215
 40
1.0
291
     1
 91
  2455826
 92
 54000000
292
     0
 70
     2
 71
   256
280
     1
  0
DICTIONARY
  5
17B
102
{ACAD_REACTORS
330
C
102
}
330
C
100
AcDbDictionary
281
     1
  0
DICTIONARY
  5
D
102
{ACAD_REACTORS
330
C
102
}
330
C
100
AcDbDictionary
281
     1
  0
DICTIONARY
  5
1A
102
{ACAD_REACTORS
330
C
102
}
330
C
100
AcDbDictionary
281
     1
  3
Layout1
350
1E
  3
Layout2
350
26
  3
Model
350
22
  0
DICTIONARY
  5
43
102
{ACAD_REACTORS
330
C
102
}
330
C
100
AcDbDictionary
281
     1
  3
ByBlock
350
45
  3
ByLayer
350
44
  3
Global
350
46
  0
DICTIONARY
  5
17A
102
{ACAD_REACTORS
330
C
102
}
330
C
100
AcDbDictionary
281
     1
  0
DICTIONARY
  5
17
102
{ACAD_REACTORS
330
C
102
}
330
C
100
AcDbDictionary
281
     1
  3
Standard
350
18
  0
DICTIONARY
  5
19
102
{ACAD_REACTORS
330
C
102
}
330
C
100
AcDbDictionary
281
     1
  0
ACDBDICTIONARYWDFLT
  5
E
102
{ACAD_REACTORS
330
C
102
}
330
C
100
AcDbDictionary
281
     1
  3
Normal
350
F
100
AcDbDictionaryWithDefault
340
F
  0
DICTIONARY
  5
47
102
{ACAD_REACTORS
330
C
102
}
330
C
100
AcDbDictionary
281
     1
  3
A0
350
48
  3
A1
350
49
  3
A2
350
4A
  3
A3
350
4B
  3
A4
350
4C
  3
A5
350
4D
  3
A6
350
4E
  3
A7
350
4F
  3
A8
350
50
  3
A9
350
51
  3
B0
350
52
  3
B1
350
53
  3
B2
350
54
  3
B3
350
55
  3
B4
350
56
  3
B5
350
57
  3
B6
350
58
  3
B7
350
59
  3
B8
350
5A
  3
B9
350
5B
  3
C0
350
5C
  3
C1
350
5D
  3
C2
350
5E
  3
C3
350
5F
  3
C4
350
60
  3
C5
350
61
  3
C6
350
62
  3
C7
350
63
  3
C8
350
64
  3
C9
350
65
  3
D0
350
66
  3
D1
350
67
  3
D2
350
68
  0
DICTIONARY
  5
17C
102
{ACAD_REACTORS
330
C
102
}
330
C
100
AcDbDictionary
281
     1
  0
DICTIONARY
  5
179
102
{ACAD_REACTORS
330
C
102
}
330
C
100
AcDbDictionary
281
     1
  0
DICTIONARY
  5
2A
102
{ACAD_REACTORS
330
C
102
}
330
C
100
AcDbDictionary
281
     1
  3
2dWireframe
350
2F
  3
Basic
350
32
  3
Brighten
350
36
  3
ColorChange
350
3A
  3
Conceptual
350
34
  3
Dim
350
35
  3
EdgeColorOff
350
3D
  3
Facepattern
350
39
  3
Flat
350
2B
  3
FlatWithEdges
350
2C
  3
Gouraud
350
2D
  3
GouraudWithEdges
350
2E
  3
Hidden
350
31
  3
JitterOff
350
3B
  3
Linepattern
350
38
  3
OverhangOff
350
3C
  3
Realistic
350
33
  3
Shaded
350
42
  3
Shaded with edges
350
41
  3
Shades of Gray
350
3E
  3
Sketchy
350
3F
  3
Thicken
350
37
  3
Wireframe
350
30
  3
X-Ray
350
40
  0
DICTIONARY
  5
177
102
{ACAD_REACTORS
330
C
102
}
330
C
100
AcDbDictionary
281
     1
  3
CANNOSCALE
350
178
  0
LAYOUT
  5
1E
102
{ACAD_REACTORS
330
1A
102
}
330
1A
100
AcDbPlotSettings
  1

  2
none_device
  4

  6

 40
0.0
 41
0.0
 42
0.0
 43
0.0
 44
0.0
 45
0.0
 46
0.0
 47
0.0
 48
0.0
 49
0.0
140
0.0
141
0.0
142
1.0
143
1.0
 70
   688
 72
     1
 73
     0
 74
     5
  7

 75
    16
 76
     0
 77
     2
 78
   300
147
1.0
148
0.0
149
0.0
100
AcDbLayout
  1
Layout1
 70
     1
 71
     1
 10
0.0
 20
0.0
 11
420.0
 21
297.0
 12
0.0
 22
0.0
 32
0.0
 14
1.000000000000000E+20
 24
1.000000000000000E+20
 34
1.000000000000000E+20
 15
-1.000000000000000E+20
 25
-1.000000000000000E+20
 35
-1.000000000000000E+20
146
0.0
 13
0.0
 23
0.0
 33
0.0
 16
1.0
 26
0.0
 36
0.0
 17
0.0
 27
1.0
 37
0.0
 76
     0
330
1B
  0
LAYOUT
  5
26
102
{ACAD_REACTORS
330
1A
102
}
330
1A
100
AcDbPlotSettings
  1

  2
none_device
  4

  6

 40
0.0
 41
0.0
 42
0.0
 43
0.0
 44
0.0
 45
0.0
 46
0.0
 47
0.0
 48
0.0
 49
0.0
140
0.0
141
0.0
142
1.0
143
1.0
 70
   688
 72
     1
 73
     0
 74
     5
  7

 75
    16
 76
     0
 77
     2
 78
   300
147
1.0
148
0.0
149
0.0
100
AcDbLayout
  1
Layout2
 70
     1
 71
     2
 10
0.0
 20
0.0
 11
0.0
 21
0.0
 12
0.0
 22
0.0
 32
0.0
 14
0.0
 24
0.0
 34
0.0
 15
0.0
 25
0.0
 35
0.0
146
0.0
 13
0.0
 23
0.0
 33
0.0
 16
1.0
 26
0.0
 36
0.0
 17
0.0
 27
1.0
 37
0.0
 76
     0
330
23
  0
LAYOUT
  5
22
102
{ACAD_REACTORS
330
1A
102
}
330
1A
100
AcDbPlotSettings
  1

  2
none_device
  4
Letter_(8.50_x_11.00_Inches)
  6

 40
6.35
 41
6.35
 42
6.35000508
 43
6.35000508
 44
215.9
 45
279.4
 46
0.0
 47
0.0
 48
0.0
 49
0.0
140
0.0
141
0.0
142
1.0
143
1.0
 70
  1712
 72
     1
 73
     0
 74
     0
  7

 75
     0
 76
     0
 77
     2
 78
   300
147
1.0
148
0.0
149
0.0
100
AcDbLayout
  1
Model
 70
     1
 71
     0
 10
0.0
 20
0.0
 11
420.0
 21
297.0
 12
0.0
 22
0.0
 32
0.0
 14
-27.30046309965369
 24
7.306238981072314
 34
-108.1044266411082
 15
81.62573518869488
 25
139.3064166783153
 35
-51.7952590786243
146
0.0
 13
0.0
 23
0.0
 33
0.0
 16
1.0
 26
0.0
 36
0.0
 17
0.0
 27
1.0
 37
0.0
 76
     0
330
1F
331
29
  0
MATERIAL
  5
45
102
{ACAD_REACTORS
330
43
102
}
330
43
100
AcDbMaterial
  1
ByBlock
 72
     1
 94
      127
  0
MATERIAL
  5
44
102
{ACAD_REACTORS
330
43
102
}
330
43
100
AcDbMaterial
  1
ByLayer
 72
     1
 94
      127
  0
MATERIAL
  5
46
102
{ACAD_REACTORS
330
43
102
}
330
43
100
AcDbMaterial
  1
Global
 72
     1
 94
      127
  0
MLINESTYLE
  5
18
102
{ACAD_REACTORS
330
17
102
}
330
17
100
AcDbMlineStyle
  2
Standard
 70
     0
  3

 62
   256
 51
90.0
 52
90.0
 71
     2
 49
0.5
 62
   256
  6
BYLAYER
 49
-0.5
 62
   256
  6
BYLAYER
  0
ACDBPLACEHOLDER
  5
F
102
{ACAD_REACTORS
330
E
102
}
330
E
  0
SCALE
  5
48
102
{ACAD_REACTORS
330
47
102
}
330
47
100
AcDbScale
 70
     0
300
1:1
140
1.0
141
1.0
290
     1
  0
SCALE
  5
49
102
{ACAD_REACTORS
330
47
102
}
330
47
100
AcDbScale
 70
     0
300
1:2
140
1.0
141
2.0
290
     0
  0
SCALE
  5
4A
102
{ACAD_REACTORS
330
47
102
}
330
47
100
AcDbScale
 70
     0
300
1:4
140
1.0
141
4.0
290
     0
  0
SCALE
  5
4B
102
{ACAD_REACTORS
330
47
102
}
330
47
100
AcDbScale
 70
     0
300
1:5
140
1.0
141
5.0
290
     0
  0
SCALE
  5
4C
102
{ACAD_REACTORS
330
47
102
}
330
47
100
AcDbScale
 70
     0
300
1:8
140
1.0
141
8.0
290
     0
  0
SCALE
  5
4D
102
{ACAD_REACTORS
330
47
102
}
330
47
100
AcDbScale
 70
     0
300
1:10
140
1.0
141
10.0
290
     0
  0
SCALE
  5
4E
102
{ACAD_REACTORS
330
47
102
}
330
47
100
AcDbScale
 70
     0
300
1:16
140
1.0
141
16.0
290
     0
  0
SCALE
  5
4F
102
{ACAD_REACTORS
330
47
102
}
330
47
100
AcDbScale
 70
     0
300
1:20
140
1.0
141
20.0
290
     0
  0
SCALE
  5
50
102
{ACAD_REACTORS
330
47
102
}
330
47
100
AcDbScale
 70
     0
300
1:30
140
1.0
141
30.0
290
     0
  0
SCALE
  5
51
102
{ACAD_REACTORS
330
47
102
}
330
47
100
AcDbScale
 70
     0
300
1:40
140
1.0
141
40.0
290
     0
  0
SCALE
  5
52
102
{ACAD_REACTORS
330
47
102
}
330
47
100
AcDbScale
 70
     0
300
1:50
140
1.0
141
50.0
290
     0
  0
SCALE
  5
53
102
{ACAD_REACTORS
330
47
102
}
330
47
100
AcDbScale
 70
     0
300
1:100
140
1.0
141
100.0
290
     0
  0
SCALE
  5
54
102
{ACAD_REACTORS
330
47
102
}
330
47
100
AcDbScale
 70
     0
300
2:1
140
2.0
141
1.0
290
     0
  0
SCALE
  5
55
102
{ACAD_REACTORS
330
47
102
}
330
47
100
AcDbScale
 70
     0
300
4:1
140
4.0
141
1.0
290
     0
  0
SCALE
  5
56
102
{ACAD_REACTORS
330
47
102
}
330
47
100
AcDbScale
 70
     0
300
8:1
140
8.0
141
1.0
290
     0
  0
SCALE
  5
57
102
{ACAD_REACTORS
330
47
102
}
330
47
100
AcDbScale
 70
     0
300
10:1
140
10.0
141
1.0
290
     0
  0
SCALE
  5
58
102
{ACAD_REACTORS
330
47
102
}
330
47
100
AcDbScale
 70
     0
300
100:1
140
100.0
141
1.0
290
     0
  0
SCALE
  5
59
102
{ACAD_REACTORS
330
47
102
}
330
47
100
AcDbScale
 70
     0
300
1/128" = 1'-0"
140
0.0078125
141
12.0
290
     0
  0
SCALE
  5
5A
102
{ACAD_REACTORS
330
47
102
}
330
47
100
AcDbScale
 70
     0
300
1/64" = 1'-0"
140
0.015625
141
12.0
290
     0
  0
SCALE
  5
5B
102
{ACAD_REACTORS
330
47
102
}
330
47
100
AcDbScale
 70
     0
300
1/32" = 1'-0"
140
0.03125
141
12.0
290
     0
  0
SCALE
  5
5C
102
{ACAD_REACTORS
330
47
102
}
330
47
100
AcDbScale
 70
     0
300
1/16" = 1'-0"
140
0.0625
141
12.0
290
     0
  0
SCALE
  5
5D
102
{ACAD_REACTORS
330
47
102
}
330
47
100
AcDbScale
 70
     0
300
3/32" = 1'-0"
140
0.09375
141
12.0
290
     0
  0
SCALE
  5
5E
102
{ACAD_REACTORS
330
47
102
}
330
47
100
AcDbScale
 70
     0
300
1/8" = 1'-0"
140
0.125
141
12.0
290
     0
  0
SCALE
  5
5F
102
{ACAD_REACTORS
330
47
102
}
330
47
100
AcDbScale
 70
     0
300
3/16" = 1'-0"
140
0.1875
141
12.0
290
     0
  0
SCALE
  5
60
102
{ACAD_REACTORS
330
47
102
}
330
47
100
AcDbScale
 70
     0
300
1/4" = 1'-0"
140
0.25
141
12.0
290
     0
  0
SCALE
  5
61
102
{ACAD_REACTORS
330
47
102
}
330
47
100
AcDbScale
 70
     0
300
3/8" = 1'-0"
140
0.375
141
12.0
290
     0
  0
SCALE
  5
62
102
{ACAD_REACTORS
330
47
102
}
330
47
100
AcDbScale
 70
     0
300
1/2" = 1'-0"
140
0.5
141
12.0
290
     0
  0
SCALE
  5
63
102
{ACAD_REACTORS
330
47
102
}
330
47
100
AcDbScale
 70
     0
300
3/4" = 1'-0"
140
0.75
141
12.0
290
     0
  0
SCALE
  5
64
102
{ACAD_REACTORS
330
47
102
}
330
47
100
AcDbScale
 70
     0
300
1" = 1'-0"
140
1.0
141
12.0
290
     0
  0
SCALE
  5
65
102
{ACAD_REACTORS
330
47
102
}
330
47
100
AcDbScale
 70
     0
300
1-1/2" = 1'-0"
140
1.5
141
12.0
290
     0
  0
SCALE
  5
66
102
{ACAD_REACTORS
330
47
102
}
330
47
100
AcDbScale
 70
     0
300
3" = 1'-0"
140
3.0
141
12.0
290
     0
  0
SCALE
  5
67
102
{ACAD_REACTORS
330
47
102
}
330
47
100
AcDbScale
 70
     0
300
6" = 1'-0"
140
6.0
141
12.0
290
     0
  0
SCALE
  5
68
102
{ACAD_REACTORS
330
47
102
}
330
47
100
AcDbScale
 70
     0
300
1'-0" = 1'-0"
140
12.0
141
12.0
290
     0
  0
VISUALSTYLE
  5
2F
102
{ACAD_REACTORS
330
2A
102
}
330
2A
100
AcDbVisualStyle
  2
2dWireframe
 70
     4
177
     3
291
     0
 70
    58
 90
        0
176
     1
 90
        2
176
     1
 90
        0
176
     1
 90
        0
176
     1
 40
0.6
176
     1
 40
30.0
176
     1
 62
     7
420
 16777215
176
     1
 90
        1
176
     1
 90
        4
176
     1
 62
     7
176
     1
 62
   257
176
     1
 90
        1
176
     1
 90
        1
176
     1
 40
1.0
176
     1
 90
        0
176
     1
 62
   257
176
     1
 40
1.0
176
     1
 90
        1
176
     1
 90
        6
176
     1
 90
        2
176
     1
 62
     7
176
     1
 90
        5
176
     1
 90
        0
176
     1
 90
        0
176
     1
290
     0
176
     1
 90
        1
176
     1
 40
0.0
176
     1
 90
        0
176
     1
290
     1
176
     1
290
     1
176
     1
290
     0
176
     1
290
     0
176
     1
290
     0
176
     1
290
     0
176
     1
290
     0
176
     1
290
     0
176
     1
290
     0
176
     1
 90
       50
176
     1
 40
0.0
176
     1
 40
1.0
176
     1
 90
        0
176
     1
 62
    18
420
        0
176
     1
 90
       50
176
     1
 90
        3
176
     1
 62
     5
420
      255
176
     1
290
     0
176
     1
 90
       50
176
     1
 90
       50
176
     1
 90
       50
176
     1
290
     0
176
     1
 90
       50
176
     1
 62
   256
176
     0
 40
1.0
176
     0
 90
        2
176
     1
  1
strokes_ogs.tif
176
     1
290
     0
176
     1
 40
1.0
176
     1
 40
1.0
176
     1
  0
VISUALSTYLE
  5
32
102
{ACAD_REACTORS
330
2A
102
}
330
2A
100
AcDbVisualStyle
  2
Basic
 70
     7
177
     3
291
     1
 70
    58
 90
        1
176
     1
 90
        0
176
     1
 90
        1
176
     1
 90
        0
176
     1
 40
0.6
176
     1
 40
30.0
176
     1
 62
     7
420
 16777215
176
     1
 90
        0
176
     1
 90
        4
176
     1
 62
     7
176
     1
 62
   257
176
     1
 90
        1
176
     1
 90
        1
176
     1
 40
1.0
176
     1
 90
        8
176
     1
 62
     7
176
     1
 40
1.0
176
     1
 90
        1
176
     1
 90
        6
176
     1
 90
        2
176
     1
 62
     7
176
     1
 90
        5
176
     1
 90
        0
176
     1
 90
        0
176
     1
290
     0
176
     1
 90
        1
176
     1
 40
0.0
176
     1
 90
        0
176
     1
290
     0
176
     1
290
     1
176
     1
290
     1
176
     1
290
     0
176
     1
290
     0
176
     1
290
     0
176
     1
290
     0
176
     1
290
     0
176
     1
290
     0
176
     1
 90
       50
176
     1
 40
0.0
176
     1
 40
1.0
176
     1
 90
        0
176
     1
 62
    18
420
        0
176
     1
 90
       50
176
     1
 90
        3
176
     1
 62
     5
420
      255
176
     1
290
     0
176
     1
 90
       50
176
     1
 90
       50
176
     1
 90
       50
176
     1
290
     0
176
     1
 90
       50
176
     1
 62
   256
176
     0
 40
1.0
176
     0
 90
        2
176
     1
  1
strokes_ogs.tif
176
     1
290
     0
176
     1
 40
1.0
176
     1
 40
1.0
176
     1
  0
VISUALSTYLE
  5
36
102
{ACAD_REACTORS
330
2A
102
}
330
2A
100
AcDbVisualStyle
  2
Brighten
 70
    12
177
     3
291
     1
 70
    58
 90
        2
176
     1
 90
        2
176
     1
 90
        0
176
     1
 90
        0
176
     1
 40
0.6
176
     1
 40
30.0
176
     1
 62
     7
420
 16777215
176
     1
 90
        1
176
     1
 90
        4
176
     1
 62
     7
176
     1
 62
   257
176
     1
 90
        1
176
     1
 90
        1
176
     1
 40
1.0
176
     1
 90
        8
176
     1
 62
     7
176
     1
 40
1.0
176
     1
 90
        1
176
     1
 90
        6
176
     1
 90
        2
176
     1
 62
     7
176
     1
 90
        5
176
     1
 90
        0
176
     1
 90
        0
176
     1
290
     0
176
     1
 90
        1
176
     1
 40
50.0
176
     1
 90
        0
176
     1
290
     0
176
     1
290
     1
176
     1
290
     1
176
     1
290
     0
176
     1
290
     0
176
     1
290
     0
176
     1
290
     0
176
     1
290
     0
176
     1
290
     0
176
     1
 90
       50
176
     1
 40
0.0
176
     1
 40
1.0
176
     1
 90
        0
176
     1
 62
    18
420
        0
176
     1
 90
       50
176
     1
 90
        3
176
     1
 62
     5
420
      255
176
     1
290
     0
176
     1
 90
       50
176
     1
 90
       50
176
     1
 90
       50
176
     1
290
     0
176
     1
 90
       50
176
     1
 62
   256
176
     0
 40
1.0
176
     0
 90
        2
176
     1
  1
strokes_ogs.tif
176
     1
290
     0
176
     1
 40
1.0
176
     1
 40
1.0
176
     1
  0
VISUALSTYLE
  5
3A
102
{ACAD_REACTORS
330
2A
102
}
330
2A
100
AcDbVisualStyle
  2
ColorChange
 70
    16
177
     3
291
     1
 70
    58
 90
        2
176
     1
 90
        2
176
     1
 90
        3
176
     1
 90
        0
176
     1
 40
0.6
176
     1
 40
30.0
176
     1
 62
     8
420
  8421504
176
     1
 90
        1
176
     1
 90
        4
176
     1
 62
     7
176
     1
 62
   257
176
     1
 90
        1
176
     1
 90
        1
176
     1
 40
1.0
176
     1
 90
        8
176
     1
 62
     8
420
  8421504
176
     1
 40
1.0
176
     1
 90
        1
176
     1
 90
        6
176
     1
 90
        2
176
     1
 62
     7
176
     1
 90
        5
176
     1
 90
        0
176
     1
 90
        0
176
     1
290
     0
176
     1
 90
        1
176
     1
 40
0.0
176
     1
 90
        0
176
     1
290
     0
176
     1
290
     1
176
     1
290
     1
176
     1
290
     0
176
     1
290
     0
176
     1
290
     0
176
     1
290
     0
176
     1
290
     0
176
     1
290
     0
176
     1
 90
       50
176
     1
 40
0.0
176
     1
 40
1.0
176
     1
 90
        0
176
     1
 62
    18
420
        0
176
     1
 90
       50
176
     1
 90
        3
176
     1
 62
     5
420
      255
176
     1
290
     0
176
     1
 90
       50
176
     1
 90
       50
176
     1
 90
       50
176
     1
290
     0
176
     1
 90
       50
176
     1
 62
   256
176
     0
 40
1.0
176
     0
 90
        2
176
     1
  1
strokes_ogs.tif
176
     1
290
     0
176
     1
 40
1.0
176
     1
 40
1.0
176
     1
  0
VISUALSTYLE
  5
34
102
{ACAD_REACTORS
330
2A
102
}
330
2A
100
AcDbVisualStyle
  2
Conceptual
 70
     9
177
     3
291
     0
 70
    58
 90
        3
176
     1
 90
        2
176
     1
 90
        0
176
     1
 90
        0
176
     1
 40
0.6
176
     1
 40
30.0
176
     1
 62
     7
420
 16777215
176
     1
 90
        2
176
     1
 90
        2
176
     1
 62
     7
176
     1
 62
   257
176
     1
 90
        1
176
     1
 90
        1
176
     1
 40
179.0
176
     1
 90
        8
176
     1
 62
     7
176
     1
 40
1.0
176
     1
 90
        1
176
     1
 90
        6
176
     1
 90
        2
176
     1
 62
     7
176
     1
 90
        3
176
     1
 90
        0
176
     1
 90
        0
176
     1
290
     0
176
     1
 90
        1
176
     1
 40
0.0
176
     1
 90
        0
176
     1
290
     0
176
     1
290
     1
176
     1
290
     1
176
     1
290
     0
176
     1
290
     0
176
     1
290
     0
176
     1
290
     0
176
     1
290
     0
176
     1
290
     0
176
     1
 90
       50
176
     1
 40
0.0
176
     1
 40
1.0
176
     1
 90
        0
176
     1
 62
    18
420
        0
176
     1
 90
       50
176
     1
 90
        3
176
     1
 62
     5
420
      255
176
     1
290
     0
176
     1
 90
       50
176
     1
 90
       50
176
     1
 90
       50
176
     1
290
     0
176
     1
 90
       50
176
     1
 62
   256
176
     0
 40
1.0
176
     0
 90
        2
176
     1
  1
strokes_ogs.tif
176
     1
290
     0
176
     1
 40
1.0
176
     1
 40
1.0
176
     1
  0
VISUALSTYLE
  5
35
102
{ACAD_REACTORS
330
2A
102
}
330
2A
100
AcDbVisualStyle
  2
Dim
 70
    11
177
     3
291
     1
 70
    58
 90
        2
176
     1
 90
        2
176
     1
 90
        0
176
     1
 90
        0
176
     1
 40
0.6
176
     1
 40
30.0
176
     1
 62
     7
420
 16777215
176
     1
 90
        1
176
     1
 90
        4
176
     1
 62
     7
176
     1
 62
   257
176
     1
 90
        1
176
     1
 90
        1
176
     1
 40
1.0
176
     1
 90
        8
176
     1
 62
     7
176
     1
 40
1.0
176
     1
 90
        1
176
     1
 90
        6
176
     1
 90
        2
176
     1
 62
     7
176
     1
 90
        5
176
     1
 90
        0
176
     1
 90
        0
176
     1
290
     0
176
     1
 90
        1
176
     1
 40
-50.0
176
     1
 90
        0
176
     1
290
     0
176
     1
290
     1
176
     1
290
     1
176
     1
290
     0
176
     1
290
     0
176
     1
290
     0
176
     1
290
     0
176
     1
290
     0
176
     1
290
     0
176
     1
 90
       50
176
     1
 40
0.0
176
     1
 40
1.0
176
     1
 90
        0
176
     1
 62
    18
420
        0
176
     1
 90
       50
176
     1
 90
        3
176
     1
 62
     5
420
      255
176
     1
290
     0
176
     1
 90
       50
176
     1
 90
       50
176
     1
 90
       50
176
     1
290
     0
176
     1
 90
       50
176
     1
 62
   256
176
     0
 40
1.0
176
     0
 90
        2
176
     1
  1
strokes_ogs.tif
176
     1
290
     0
176
     1
 40
1.0
176
     1
 40
1.0
176
     1
  0
VISUALSTYLE
  5
3D
102
{ACAD_REACTORS
330
2A
102
}
330
2A
100
AcDbVisualStyle
  2
EdgeColorOff
 70
    22
177
     3
291
     1
 70
    58
 90
        2
176
     0
 90
        2
176
     0
 90
        0
176
     0
 90
        0
176
     0
 40
0.6
176
     0
 40
30.0
176
     0
 62
     7
420
 16777215
176
     0
 90
        1
176
     0
 90
        4
176
     0
 62
     7
176
     0
 62
   257
176
     0
 90
        1
176
     0
 90
        1
176
     0
 40
1.0
176
     0
 90
        8
176
     2
 62
     7
176
     0
 40
1.0
176
     0
 90
        1
176
     0
 90
        6
176
     0
 90
        2
176
     0
 62
     7
176
     0
 90
        5
176
     0
 90
        0
176
     0
 90
        0
176
     0
290
     0
176
     0
 90
        1
176
     0
 40
0.0
176
     0
 90
        0
176
     0
290
     0
176
     0
290
     1
176
     0
290
     1
176
     0
290
     0
176
     0
290
     0
176
     0
290
     0
176
     0
290
     0
176
     0
290
     0
176
     0
290
     0
176
     0
 90
       50
176
     0
 40
0.0
176
     0
 40
1.0
176
     0
 90
        0
176
     0
 62
    18
420
        0
176
     0
 90
       50
176
     0
 90
        3
176
     0
 62
     5
420
      255
176
     0
290
     0
176
     0
 90
       50
176
     0
 90
       50
176
     0
 90
       50
176
     0
290
     0
176
     0
 90
       50
176
     0
 62
   256
176
     0
 40
1.0
176
     0
 90
        2
176
     0
  1
strokes_ogs.tif
176
     0
290
     0
176
     0
 40
1.0
176
     0
 40
1.0
176
     0
  0
VISUALSTYLE
  5
39
102
{ACAD_REACTORS
330
2A
102
}
330
2A
100
AcDbVisualStyle
  2
Facepattern
 70
    15
177
     3
291
     1
 70
    58
 90
        2
176
     1
 90
        2
176
     1
 90
        0
176
     1
 90
        0
176
     1
 40
0.6
176
     1
 40
30.0
176
     1
 62
     7
420
 16777215
176
     1
 90
        1
176
     1
 90
        4
176
     1
 62
     7
176
     1
 62
   257
176
     1
 90
        1
176
     1
 90
        1
176
     1
 40
1.0
176
     1
 90
        8
176
     1
 62
     7
176
     1
 40
1.0
176
     1
 90
        1
176
     1
 90
        6
176
     1
 90
        2
176
     1
 62
     7
176
     1
 90
        5
176
     1
 90
        0
176
     1
 90
        0
176
     1
290
     0
176
     1
 90
        1
176
     1
 40
0.0
176
     1
 90
        0
176
     1
290
     0
176
     1
290
     1
176
     1
290
     1
176
     1
290
     0
176
     1
290
     0
176
     1
290
     0
176
     1
290
     0
176
     1
290
     0
176
     1
290
     0
176
     1
 90
       50
176
     1
 40
0.0
176
     1
 40
1.0
176
     1
 90
        0
176
     1
 62
    18
420
        0
176
     1
 90
       50
176
     1
 90
        3
176
     1
 62
     5
420
      255
176
     1
290
     0
176
     1
 90
       50
176
     1
 90
       50
176
     1
 90
       50
176
     1
290
     0
176
     1
 90
       50
176
     1
 62
   256
176
     0
 40
1.0
176
     0
 90
        2
176
     1
  1
strokes_ogs.tif
176
     1
290
     0
176
     1
 40
1.0
176
     1
 40
1.0
176
     1
  0
VISUALSTYLE
  5
2B
102
{ACAD_REACTORS
330
2A
102
}
330
2A
100
AcDbVisualStyle
  2
Flat
 70
     0
177
     3
291
     1
 70
    58
 90
        2
176
     1
 90
        1
176
     1
 90
        1
176
     1
 90
        2
176
     1
 40
0.6
176
     1
 40
30.0
176
     1
 62
     7
420
 16777215
176
     1
 90
        0
176
     1
 90
        0
176
     1
 62
     7
176
     1
 62
   257
176
     1
 90
        1
176
     1
 90
        1
176
     1
 40
1.0
176
     1
 90
        8
176
     1
 62
     7
176
     1
 40
1.0
176
     1
 90
        1
176
     1
 90
        6
176
     1
 90
        2
176
     1
 62
     7
176
     1
 90
        5
176
     1
 90
        0
176
     1
 90
        0
176
     1
290
     0
176
     1
 90
       13
176
     1
 40
0.0
176
     1
 90
        0
176
     1
290
     0
176
     1
290
     1
176
     1
290
     1
176
     1
290
     0
176
     1
290
     0
176
     1
290
     0
176
     1
290
     0
176
     1
290
     0
176
     1
290
     0
176
     1
 90
       50
176
     1
 40
0.0
176
     1
 40
1.0
176
     1
 90
        0
176
     1
 62
    18
420
        0
176
     1
 90
       50
176
     1
 90
        3
176
     1
 62
     5
420
      255
176
     1
290
     0
176
     1
 90
       50
176
     1
 90
       50
176
     1
 90
       50
176
     1
290
     0
176
     1
 90
       50
176
     1
 62
   256
176
     0
 40
1.0
176
     0
 90
        2
176
     1
  1
strokes_ogs.tif
176
     1
290
     0
176
     1
 40
1.0
176
     1
 40
1.0
176
     1
  0
VISUALSTYLE
  5
2C
102
{ACAD_REACTORS
330
2A
102
}
330
2A
100
AcDbVisualStyle
  2
FlatWithEdges
 70
     1
177
     3
291
     1
 70
    58
 90
        2
176
     1
 90
        1
176
     1
 90
        1
176
     1
 90
        2
176
     1
 40
0.6
176
     1
 40
30.0
176
     1
 62
     7
420
 16777215
176
     1
 90
        1
176
     1
 90
        0
176
     1
 62
     7
176
     1
 62
   257
176
     1
 90
        1
176
     1
 90
        1
176
     1
 40
1.0
176
     1
 90
        0
176
     1
 62
   257
176
     1
 40
1.0
176
     1
 90
        1
176
     1
 90
        6
176
     1
 90
        2
176
     1
 62
     7
176
     1
 90
        5
176
     1
 90
        0
176
     1
 90
        0
176
     1
290
     0
176
     1
 90
       13
176
     1
 40
0.0
176
     1
 90
        0
176
     1
290
     0
176
     1
290
     1
176
     1
290
     1
176
     1
290
     0
176
     1
290
     0
176
     1
290
     0
176
     1
290
     0
176
     1
290
     0
176
     1
290
     0
176
     1
 90
       50
176
     1
 40
0.0
176
     1
 40
1.0
176
     1
 90
        0
176
     1
 62
    18
420
        0
176
     1
 90
       50
176
     1
 90
        3
176
     1
 62
     5
420
      255
176
     1
290
     0
176
     1
 90
       50
176
     1
 90
       50
176
     1
 90
       50
176
     1
290
     0
176
     1
 90
       50
176
     1
 62
   256
176
     0
 40
1.0
176
     0
 90
        2
176
     1
  1
strokes_ogs.tif
176
     1
290
     0
176
     1
 40
1.0
176
     1
 40
1.0
176
     1
  0
VISUALSTYLE
  5
2D
102
{ACAD_REACTORS
330
2A
102
}
330
2A
100
AcDbVisualStyle
  2
Gouraud
 70
     2
177
     3
291
     1
 70
    58
 90
        2
176
     1
 90
        2
176
     1
 90
        1
176
     1
 90
        2
176
     1
 40
0.6
176
     1
 40
30.0
176
     1
 62
     7
420
 16777215
176
     1
 90
        0
176
     1
 90
        0
176
     1
 62
     7
176
     1
 62
   257
176
     1
 90
        1
176
     1
 90
        1
176
     1
 40
1.0
176
     1
 90
        0
176
     1
 62
     7
176
     1
 40
1.0
176
     1
 90
        1
176
     1
 90
        6
176
     1
 90
        2
176
     1
 62
     7
176
     1
 90
        5
176
     1
 90
        0
176
     1
 90
        0
176
     1
290
     0
176
     1
 90
       13
176
     1
 40
0.0
176
     1
 90
        0
176
     1
290
     0
176
     1
290
     1
176
     1
290
     1
176
     1
290
     0
176
     1
290
     0
176
     1
290
     0
176
     1
290
     0
176
     1
290
     0
176
     1
290
     0
176
     1
 90
       50
176
     1
 40
0.0
176
     1
 40
1.0
176
     1
 90
        0
176
     1
 62
    18
420
        0
176
     1
 90
       50
176
     1
 90
        3
176
     1
 62
     5
420
      255
176
     1
290
     0
176
     1
 90
       50
176
     1
 90
       50
176
     1
 90
       50
176
     1
290
     0
176
     1
 90
       50
176
     1
 62
   256
176
     0
 40
1.0
176
     0
 90
        2
176
     1
  1
strokes_ogs.tif
176
     1
290
     0
176
     1
 40
1.0
176
     1
 40
1.0
176
     1
  0
VISUALSTYLE
  5
2E
102
{ACAD_REACTORS
330
2A
102
}
330
2A
100
AcDbVisualStyle
  2
GouraudWithEdges
 70
     3
177
     3
291
     1
 70
    58
 90
        2
176
     1
 90
        2
176
     1
 90
        1
176
     1
 90
        2
176
     1
 40
0.6
176
     1
 40
30.0
176
     1
 62
     7
420
 16777215
176
     1
 90
        1
176
     1
 90
        0
176
     1
 62
     7
176
     1
 62
   257
176
     1
 90
        1
176
     1
 90
        1
176
     1
 40
1.0
176
     1
 90
        0
176
     1
 62
   257
176
     1
 40
1.0
176
     1
 90
        1
176
     1
 90
        6
176
     1
 90
        2
176
     1
 62
     7
176
     1
 90
        5
176
     1
 90
        0
176
     1
 90
        0
176
     1
290
     0
176
     1
 90
       13
176
     1
 40
0.0
176
     1
 90
        0
176
     1
290
     0
176
     1
290
     1
176
     1
290
     1
176
     1
290
     0
176
     1
290
     0
176
     1
290
     0
176
     1
290
     0
176
     1
290
     0
176
     1
290
     0
176
     1
 90
       50
176
     1
 40
0.0
176
     1
 40
1.0
176
     1
 90
        0
176
     1
 62
    18
420
        0
176
     1
 90
       50
176
     1
 90
        3
176
     1
 62
     5
420
      255
176
     1
290
     0
176
     1
 90
       50
176
     1
 90
       50
176
     1
 90
       50
176
     1
290
     0
176
     1
 90
       50
176
     1
 62
   256
176
     0
 40
1.0
176
     0
 90
        2
176
     1
  1
strokes_ogs.tif
176
     1
290
     0
176
     1
 40
1.0
176
     1
 40
1.0
176
     1
  0
VISUALSTYLE
  5
31
102
{ACAD_REACTORS
330
2A
102
}
330
2A
100
AcDbVisualStyle
  2
Hidden
 70
     6
177
     3
291
     0
 70
    58
 90
        1
176
     1
 90
        2
176
     1
 90
        2
176
     1
 90
        0
176
     1
 40
0.6
176
     1
 40
30.0
176
     1
 62
     7
420
 16777215
176
     1
 90
        2
176
     1
 90
        2
176
     1
 62
     7
176
     1
 62
   257
176
     1
 90
        2
176
     1
 90
        1
176
     1
 40
40.0
176
     1
 90
        0
176
     1
 62
   257
176
     1
 40
1.0
176
     1
 90
        1
176
     1
 90
        6
176
     1
 90
        2
176
     1
 62
     7
176
     1
 90
        3
176
     1
 90
        0
176
     1
 90
        0
176
     1
290
     0
176
     1
 90
        1
176
     1
 40
0.0
176
     1
 90
        0
176
     1
290
     0
176
     1
290
     1
176
     1
290
     1
176
     1
290
     0
176
     1
290
     0
176
     1
290
     0
176
     1
290
     0
176
     1
290
     0
176
     1
290
     0
176
     1
 90
       50
176
     1
 40
0.0
176
     1
 40
1.0
176
     1
 90
        0
176
     1
 62
    18
420
        0
176
     1
 90
       50
176
     1
 90
        3
176
     1
 62
     5
420
      255
176
     1
290
     0
176
     1
 90
       50
176
     1
 90
       50
176
     1
 90
       50
176
     1
290
     0
176
     1
 90
       50
176
     1
 62
   256
176
     0
 40
1.0
176
     0
 90
        2
176
     1
  1
strokes_ogs.tif
176
     1
290
     0
176
     1
 40
1.0
176
     1
 40
1.0
176
     1
  0
VISUALSTYLE
  5
3B
102
{ACAD_REACTORS
330
2A
102
}
330
2A
100
AcDbVisualStyle
  2
JitterOff
 70
    20
177
     3
291
     1
 70
    58
 90
        2
176
     0
 90
        2
176
     0
 90
        0
176
     0
 90
        0
176
     0
 40
0.6
176
     0
 40
30.0
176
     0
 62
     7
420
 16777215
176
     0
 90
        1
176
     0
 90
        4
176
     0
 62
     7
176
     0
 62
   257
176
     0
 90
        1
176
     0
 90
        1
176
     0
 40
1.0
176
     0
 90
       10
176
     2
 62
     7
176
     0
 40
1.0
176
     0
 90
        1
176
     0
 90
        6
176
     0
 90
        2
176
     0
 62
     7
176
     0
 90
        5
176
     0
 90
        0
176
     0
 90
        0
176
     0
290
     0
176
     0
 90
        1
176
     0
 40
0.0
176
     0
 90
        0
176
     0
290
     0
176
     0
290
     1
176
     0
290
     1
176
     0
290
     0
176
     0
290
     0
176
     0
290
     0
176
     0
290
     0
176
     0
290
     0
176
     0
290
     0
176
     0
 90
       50
176
     0
 40
0.0
176
     0
 40
1.0
176
     0
 90
        0
176
     0
 62
    18
420
        0
176
     0
 90
       50
176
     0
 90
        3
176
     0
 62
     5
420
      255
176
     0
290
     0
176
     0
 90
       50
176
     0
 90
       50
176
     0
 90
       50
176
     0
290
     0
176
     0
 90
       50
176
     0
 62
   256
176
     0
 40
1.0
176
     0
 90
        2
176
     0
  1
strokes_ogs.tif
176
     0
290
     0
176
     0
 40
1.0
176
     0
 40
1.0
176
     0
  0
VISUALSTYLE
  5
38
102
{ACAD_REACTORS
330
2A
102
}
330
2A
100
AcDbVisualStyle
  2
Linepattern
 70
    14
177
     3
291
     1
 70
    58
 90
        2
176
     1
 90
        2
176
     1
 90
        0
176
     1
 90
        0
176
     1
 40
0.6
176
     1
 40
30.0
176
     1
 62
     7
420
 16777215
176
     1
 90
        1
176
     1
 90
        4
176
     1
 62
     7
176
     1
 62
   257
176
     1
 90
        7
176
     1
 90
        7
176
     1
 40
1.0
176
     1
 90
        8
176
     1
 62
     7
176
     1
 40
1.0
176
     1
 90
        1
176
     1
 90
        6
176
     1
 90
        2
176
     1
 62
     7
176
     1
 90
        5
176
     1
 90
        0
176
     1
 90
        0
176
     1
290
     0
176
     1
 90
        1
176
     1
 40
0.0
176
     1
 90
        0
176
     1
290
     0
176
     1
290
     1
176
     1
290
     1
176
     1
290
     0
176
     1
290
     0
176
     1
290
     0
176
     1
290
     0
176
     1
290
     0
176
     1
290
     0
176
     1
 90
       50
176
     1
 40
0.0
176
     1
 40
1.0
176
     1
 90
        0
176
     1
 62
    18
420
        0
176
     1
 90
       50
176
     1
 90
        3
176
     1
 62
     5
420
      255
176
     1
290
     0
176
     1
 90
       50
176
     1
 90
       50
176
     1
 90
       50
176
     1
290
     0
176
     1
 90
       50
176
     1
 62
   256
176
     0
 40
1.0
176
     0
 90
        2
176
     1
  1
strokes_ogs.tif
176
     1
290
     0
176
     1
 40
1.0
176
     1
 40
1.0
176
     1
  0
VISUALSTYLE
  5
3C
102
{ACAD_REACTORS
330
2A
102
}
330
2A
100
AcDbVisualStyle
  2
OverhangOff
 70
    21
177
     3
291
     1
 70
    58
 90
        2
176
     0
 90
        2
176
     0
 90
        0
176
     0
 90
        0
176
     0
 40
0.6
176
     0
 40
30.0
176
     0
 62
     7
420
 16777215
176
     0
 90
        1
176
     0
 90
        4
176
     0
 62
     7
176
     0
 62
   257
176
     0
 90
        1
176
     0
 90
        1
176
     0
 40
1.0
176
     0
 90
        9
176
     2
 62
     7
176
     0
 40
1.0
176
     0
 90
        1
176
     0
 90
        6
176
     0
 90
        2
176
     0
 62
     7
176
     0
 90
        5
176
     0
 90
        0
176
     0
 90
        0
176
     0
290
     0
176
     0
 90
        1
176
     0
 40
0.0
176
     0
 90
        0
176
     0
290
     0
176
     0
290
     1
176
     0
290
     1
176
     0
290
     0
176
     0
290
     0
176
     0
290
     0
176
     0
290
     0
176
     0
290
     0
176
     0
290
     0
176
     0
 90
       50
176
     0
 40
0.0
176
     0
 40
1.0
176
     0
 90
        0
176
     0
 62
    18
420
        0
176
     0
 90
       50
176
     0
 90
        3
176
     0
 62
     5
420
      255
176
     0
290
     0
176
     0
 90
       50
176
     0
 90
       50
176
     0
 90
       50
176
     0
290
     0
176
     0
 90
       50
176
     0
 62
   256
176
     0
 40
1.0
176
     0
 90
        2
176
     0
  1
strokes_ogs.tif
176
     0
290
     0
176
     0
 40
1.0
176
     0
 40
1.0
176
     0
  0
VISUALSTYLE
  5
33
102
{ACAD_REACTORS
330
2A
102
}
330
2A
100
AcDbVisualStyle
  2
Realistic
 70
     8
177
     3
291
     0
 70
    58
 90
        2
176
     1
 90
        3
176
     1
 90
        0
176
     1
 90
        2
176
     1
 40
0.6
176
     1
 40
30.0
176
     1
 62
     7
420
 16777215
176
     1
 90
        0
176
     1
 90
        0
176
     1
 62
     7
176
     1
 62
   257
176
     1
 90
        1
176
     1
 90
        1
176
     1
 40
1.0
176
     1
 90
        8
176
     1
 62
   257
176
     1
 40
1.0
176
     1
 90
        1
176
     1
 90
        6
176
     1
 90
        2
176
     1
 62
     7
176
     1
 90
        3
176
     1
 90
        0
176
     1
 90
        0
176
     1
290
     0
176
     1
 90
       13
176
     1
 40
0.0
176
     1
 90
        0
176
     1
290
     0
176
     1
290
     1
176
     1
290
     1
176
     1
290
     0
176
     1
290
     0
176
     1
290
     0
176
     1
290
     0
176
     1
290
     0
176
     1
290
     0
176
     1
 90
       50
176
     1
 40
0.0
176
     1
 40
1.0
176
     1
 90
        0
176
     1
 62
    18
420
        0
176
     1
 90
       50
176
     1
 90
        3
176
     1
 62
     5
420
      255
176
     1
290
     0
176
     1
 90
       50
176
     1
 90
       50
176
     1
 90
       50
176
     1
290
     0
176
     1
 90
       50
176
     1
 62
   256
176
     0
 40
1.0
176
     0
 90
        2
176
     1
  1
strokes_ogs.tif
176
     1
290
     0
176
     1
 40
1.0
176
     1
 40
1.0
176
     1
  0
VISUALSTYLE
  5
42
102
{ACAD_REACTORS
330
2A
102
}
330
2A
100
AcDbVisualStyle
  2
Shaded
 70
    27
177
     3
291
     0
 70
    58
 90
        2
176
     1
 90
        2
176
     1
 90
        1
176
     1
 90
        2
176
     1
 40
0.6
176
     1
 40
30.0
176
     1
 62
     7
420
 16777215
176
     1
 90
        0
176
     1
 90
        4
176
     1
 62
     7
176
     1
 62
   257
176
     1
 90
        1
176
     1
 90
        1
176
     1
 40
1.0
176
     1
 90
        8
176
     1
 62
   257
176
     1
 40
1.0
176
     1
 90
        1
176
     1
 90
        6
176
     1
 90
        2
176
     1
 62
     8
420
  7895160
176
     1
 90
        3
176
     1
 90
        0
176
     1
 90
        0
176
     1
290
     0
176
     1
 90
        5
176
     1
 40
0.0
176
     1
 90
        0
176
     1
290
     0
176
     1
290
     1
176
     1
290
     1
176
     1
290
     0
176
     1
290
     0
176
     1
290
     0
176
     1
290
     0
176
     1
290
     0
176
     1
290
     0
176
     1
 90
       50
176
     1
 40
0.0
176
     1
 40
1.0
176
     1
 90
        0
176
     1
 62
    18
420
        0
176
     1
 90
       50
176
     1
 90
        3
176
     1
 62
     5
420
      255
176
     1
290
     0
176
     1
 90
       50
176
     1
 90
       50
176
     1
 90
       50
176
     1
290
     0
176
     1
 90
       50
176
     1
 62
   256
176
     0
 40
1.0
176
     0
 90
        2
176
     1
  1
strokes_ogs.tif
176
     1
290
     0
176
     1
 40
1.0
176
     1
 40
1.0
176
     1
  0
VISUALSTYLE
  5
41
102
{ACAD_REACTORS
330
2A
102
}
330
2A
100
AcDbVisualStyle
  2
Shaded with edges
 70
    26
177
     3
291
     0
 70
    58
 90
        2
176
     1
 90
        2
176
     1
 90
        1
176
     1
 90
        2
176
     1
 40
0.6
176
     1
 40
30.0
176
     1
 62
     7
420
 16777215
176
     1
 90
        1
176
     1
 90
       10
176
     1
 62
     7
176
     1
 62
   257
176
     1
 90
        2
176
     1
 90
        1
176
     1
 40
1.0
176
     1
 90
        8
176
     1
 62
   257
176
     1
 40
1.0
176
     1
 90
        1
176
     1
 90
        6
176
     1
 90
        2
176
     1
 62
     7
176
     1
 90
        3
176
     1
 90
        0
176
     1
 90
        0
176
     1
290
     0
176
     1
 90
        5
176
     1
 40
0.0
176
     1
 90
        0
176
     1
290
     0
176
     1
290
     1
176
     1
290
     1
176
     1
290
     0
176
     1
290
     0
176
     1
290
     0
176
     1
290
     0
176
     1
290
     0
176
     1
290
     0
176
     1
 90
       50
176
     1
 40
0.0
176
     1
 40
1.0
176
     1
 90
        0
176
     1
 62
    18
420
        0
176
     1
 90
       50
176
     1
 90
        3
176
     1
 62
     5
420
      255
176
     1
290
     0
176
     1
 90
       50
176
     1
 90
       50
176
     1
 90
       50
176
     1
290
     0
176
     1
 90
       50
176
     1
 62
   256
176
     0
 40
1.0
176
     0
 90
        2
176
     1
  1
strokes_ogs.tif
176
     1
290
     0
176
     1
 40
1.0
176
     1
 40
1.0
176
     1
  0
VISUALSTYLE
  5
3E
102
{ACAD_REACTORS
330
2A
102
}
330
2A
100
AcDbVisualStyle
  2
Shades of Gray
 70
    23
177
     3
291
     0
 70
    58
 90
        2
176
     1
 90
        2
176
     1
 90
        3
176
     1
 90
        0
176
     1
 40
0.6
176
     1
 40
30.0
176
     1
 62
     7
420
 16777215
176
     1
 90
        2
176
     1
 90
        2
176
     1
 62
     7
176
     1
 62
     7
176
     1
 90
        1
176
     1
 90
        1
176
     1
 40
40.0
176
     1
 90
        8
176
     1
 62
     7
176
     1
 40
1.0
176
     1
 90
        1
176
     1
 90
        6
176
     1
 90
        2
176
     1
 62
     7
176
     1
 90
        3
176
     1
 90
        0
176
     1
 90
        0
176
     1
290
     0
176
     1
 90
        1
176
     1
 40
0.0
176
     1
 90
        0
176
     1
290
     0
176
     1
290
     1
176
     1
290
     1
176
     1
290
     0
176
     1
290
     0
176
     1
290
     0
176
     1
290
     0
176
     1
290
     0
176
     1
290
     0
176
     1
 90
       50
176
     1
 40
0.0
176
     1
 40
1.0
176
     1
 90
        0
176
     1
 62
    18
420
        0
176
     1
 90
       50
176
     1
 90
        3
176
     1
 62
     5
420
      255
176
     1
290
     0
176
     1
 90
       50
176
     1
 90
       50
176
     1
 90
       50
176
     1
290
     0
176
     1
 90
       50
176
     1
 62
   256
176
     0
 40
1.0
176
     0
 90
        2
176
     1
  1
strokes_ogs.tif
176
     1
290
     0
176
     1
 40
1.0
176
     1
 40
1.0
176
     1
  0
VISUALSTYLE
  5
3F
102
{ACAD_REACTORS
330
2A
102
}
330
2A
100
AcDbVisualStyle
  2
Sketchy
 70
    24
177
     3
291
     0
 70
    58
 90
        1
176
     1
 90
        2
176
     1
 90
        2
176
     1
 90
        0
176
     1
 40
0.6
176
     1
 40
30.0
176
     1
 62
     7
420
 16777215
176
     1
 90
        2
176
     1
 90
        2
176
     1
 62
     7
176
     1
 62
     7
176
     1
 90
        1
176
     1
 90
        1
176
     1
 40
40.0
176
     1
 90
       11
176
     1
 62
     7
176
     1
 40
1.0
176
     1
 90
        1
176
     1
 90
        6
176
     1
 90
        2
176
     1
 62
     7
176
     1
 90
        6
176
     1
 90
        0
176
     1
 90
        0
176
     1
290
     0
176
     1
 90
        1
176
     1
 40
0.0
176
     1
 90
        0
176
     1
290
     0
176
     1
290
     1
176
     1
290
     1
176
     1
290
     0
176
     1
290
     0
176
     1
290
     0
176
     1
290
     0
176
     1
290
     0
176
     1
290
     0
176
     1
 90
       50
176
     1
 40
0.0
176
     1
 40
1.0
176
     1
 90
        0
176
     1
 62
    18
420
        0
176
     1
 90
       50
176
     1
 90
        3
176
     1
 62
     5
420
      255
176
     1
290
     0
176
     1
 90
       50
176
     1
 90
       50
176
     1
 90
       50
176
     1
290
     0
176
     1
 90
       50
176
     1
 62
   256
176
     0
 40
1.0
176
     0
 90
        2
176
     1
  1
strokes_ogs.tif
176
     1
290
     0
176
     1
 40
1.0
176
     1
 40
1.0
176
     1
  0
VISUALSTYLE
  5
37
102
{ACAD_REACTORS
330
2A
102
}
330
2A
100
AcDbVisualStyle
  2
Thicken
 70
    13
177
     3
291
     1
 70
    58
 90
        2
176
     1
 90
        2
176
     1
 90
        0
176
     1
 90
        0
176
     1
 40
0.6
176
     1
 40
30.0
176
     1
 62
     7
420
 16777215
176
     1
 90
        1
176
     1
 90
        4
176
     1
 62
     7
176
     1
 62
   257
176
     1
 90
        1
176
     1
 90
        1
176
     1
 40
1.0
176
     1
 90
       12
176
     1
 62
     7
176
     1
 40
1.0
176
     1
 90
        1
176
     1
 90
        6
176
     1
 90
        2
176
     1
 62
     7
176
     1
 90
        5
176
     1
 90
        0
176
     1
 90
        0
176
     1
290
     0
176
     1
 90
        1
176
     1
 40
0.0
176
     1
 90
        0
176
     1
290
     0
176
     1
290
     1
176
     1
290
     1
176
     1
290
     0
176
     1
290
     0
176
     1
290
     0
176
     1
290
     0
176
     1
290
     0
176
     1
290
     0
176
     1
 90
       50
176
     1
 40
0.0
176
     1
 40
1.0
176
     1
 90
        0
176
     1
 62
    18
420
        0
176
     1
 90
       50
176
     1
 90
        3
176
     1
 62
     5
420
      255
176
     1
290
     0
176
     1
 90
       50
176
     1
 90
       50
176
     1
 90
       50
176
     1
290
     0
176
     1
 90
       50
176
     1
 62
   256
176
     0
 40
1.0
176
     0
 90
        2
176
     1
  1
strokes_ogs.tif
176
     1
290
     0
176
     1
 40
1.0
176
     1
 40
1.0
176
     1
  0
VISUALSTYLE
  5
30
102
{ACAD_REACTORS
330
2A
102
}
330
2A
100
AcDbVisualStyle
  2
Wireframe
 70
     5
177
     3
291
     0
 70
    58
 90
        0
176
     1
 90
        2
176
     1
 90
        0
176
     1
 90
        0
176
     1
 40
0.6
176
     1
 40
30.0
176
     1
 62
     7
420
 16777215
176
     1
 90
        1
176
     1
 90
        4
176
     1
 62
     7
176
     1
 62
   257
176
     1
 90
        1
176
     1
 90
        1
176
     1
 40
1.0
176
     1
 90
        0
176
     1
 62
   257
176
     1
 40
1.0
176
     1
 90
        1
176
     1
 90
        6
176
     1
 90
        2
176
     1
 62
     7
176
     1
 90
        3
176
     1
 90
        0
176
     1
 90
        0
176
     1
290
     0
176
     1
 90
        1
176
     1
 40
0.0
176
     1
 90
        0
176
     1
290
     0
176
     1
290
     1
176
     1
290
     1
176
     1
290
     0
176
     1
290
     0
176
     1
290
     0
176
     1
290
     0
176
     1
290
     0
176
     1
290
     0
176
     1
 90
       50
176
     1
 40
0.0
176
     1
 40
1.0
176
     1
 90
        0
176
     1
 62
    18
420
        0
176
     1
 90
       50
176
     1
 90
        3
176
     1
 62
     5
420
      255
176
     1
290
     0
176
     1
 90
       50
176
     1
 90
       50
176
     1
 90
       50
176
     1
290
     0
176
     1
 90
       50
176
     1
 62
   256
176
     0
 40
1.0
176
     0
 90
        2
176
     1
  1
strokes_ogs.tif
176
     1
290
     0
176
     1
 40
1.0
176
     1
 40
1.0
176
     1
  0
VISUALSTYLE
  5
40
102
{ACAD_REACTORS
330
2A
102
}
330
2A
100
AcDbVisualStyle
  2
X-Ray
 70
    25
177
     3
291
     0
 70
    58
 90
        2
176
     1
 90
        2
176
     1
 90
        1
176
     1
 90
        1
176
     1
 40
0.5
176
     1
 40
30.0
176
     1
 62
     7
420
 16777215
176
     1
 90
        1
176
     1
 90
        0
176
     1
 62
     7
176
     1
 62
   257
176
     1
 90
        1
176
     1
 90
        1
176
     1
 40
1.0
176
     1
 90
        8
176
     1
 62
     7
176
     1
 40
1.0
176
     1
 90
        1
176
     1
 90
        6
176
     1
 90
        2
176
     1
 62
     7
176
     1
 90
        3
176
     1
 90
        0
176
     1
 90
        0
176
     1
290
     0
176
     1
 90
       13
176
     1
 40
0.0
176
     1
 90
        0
176
     1
290
     0
176
     1
290
     1
176
     1
290
     1
176
     1
290
     0
176
     1
290
     0
176
     1
290
     0
176
     1
290
     0
176
     1
290
     0
176
     1
290
     0
176
     1
 90
       50
176
     1
 40
0.0
176
     1
 40
1.0
176
     1
 90
        0
176
     1
 62
    18
420
        0
176
     1
 90
       50
176
     1
 90
        3
176
     1
 62
     5
420
      255
176
     1
290
     0
176
     1
 90
       50
176
     1
 90
       50
176
     1
 90
       50
176
     1
290
     0
176
     1
 90
       50
176
     1
 62
   256
176
     0
 40
1.0
176
     0
 90
        2
176
     1
  1
strokes_ogs.tif
176
     1
290
     0
176
     1
 40
1.0
176
     1
 40
1.0
176
     1
  0
DICTIONARYVAR
  5
178
102
{ACAD_REACTORS
330
177
102
}
330
177
100
DictionaryVariables
280
     0
  1
1:1
  0
ENDSEC
  0
EOF
