  0
SECTION
  2
HEADER
  9
$ACADVER
  1
AC1027
  9
$ACADMAINTVER
 70
     8
  9
$DWGCODEPAGE
  3
ANSI_1252
  9
$REQUIREDVERSIONS
160
                 0
  9
$COMMENTS
  1
File was created by SpaceClaim
  9
$INSBASE
 10
0.0
 20
0.0
 30
0.0
  9
$EXTMIN
 10
-69.29742488899379
 20
-25.08567292010721
 30
-20.27549829213276
  9
$EXTMAX
 10
36.99948162844579
 20
79.61328446338104
 30
54.62070295786075
  9
$LIMMIN
 10
0.0
 20
0.0
  9
$LIMMAX
 10
420.0
 20
297.0
  9
$ORTHOMODE
 70
     0
  9
$REGENMODE
 70
     1
  9
$FILLMODE
 70
     1
  9
$QTEXTMODE
 70
     0
  9
$MIRRTEXT
 70
     1
  9
$LTSCALE
 40
1.0
  9
$ATTMODE
 70
     1
  9
$TEXTSIZE
 40
2.5
  9
$TRACEWID
 40
1.0
  9
$TEXTSTYLE
  7
Standard
  9
$CLAYER
  8
0
  9
$CELTYPE
  6
ByLayer
  9
$CECOLOR
 62
   256
  9
$CELTSCALE
 40
1.0
  9
$DISPSILH
 70
     0
  9
$DIMSCALE
 40
1.0
  9
$DIMASZ
 40
2.5
  9
$DIMEXO
 40
0.625
  9
$DIMDLI
 40
3.75
  9
$DIMRND
 40
0.0
  9
$DIMDLE
 40
0.0
  9
$DIMEXE
 40
1.25
  9
$DIMTP
 40
0.0
  9
$DIMTM
 40
0.0
  9
$DIMTXT
 40
2.5
  9
$DIMCEN
 40
2.5
  9
$DIMTSZ
 40
0.0
  9
$DIMTOL
 70
     0
  9
$DIMLIM
 70
     0
  9
$DIMTIH
 70
     1
  9
$DIMTOH
 70
     0
  9
$DIMSE1
 70
     0
  9
$DIMSE2
 70
     0
  9
$DIMTAD
 70
     1
  9
$DIMZIN
 70
     8
  9
$DIMBLK
  1

  9
$DIMASO
 70
     1
  9
$DIMSHO
 70
     1
  9
$DIMPOST
  1
mm
  9
$DIMAPOST
  1

  9
$DIMALT
 70
     0
  9
$DIMALTD
 70
     3
  9
$DIMALTF
 40
0.0393700787401575
  9
$DIMLFAC
 40
1.0
  9
$DIMTOFL
 70
     1
  9
$DIMTVP
 40
0.0
  9
$DIMTIX
 70
     0
  9
$DIMSOXD
 70
     0
  9
$DIMSAH
 70
     0
  9
$DIMBLK1
  1

  9
$DIMBLK2
  1

  9
$DIMSTYLE
  2
ISO-25
  9
$DIMCLRD
 70
     0
  9
$DIMCLRE
 70
     0
  9
$DIMCLRT
 70
     0
  9
$DIMTFAC
 40
1.0
  9
$DIMGAP
 40
0.625
  9
$DIMJUST
 70
     0
  9
$DIMSD1
 70
     0
  9
$DIMSD2
 70
     0
  9
$DIMTOLJ
 70
     0
  9
$DIMTZIN
 70
     8
  9
$DIMALTZ
 70
     0
  9
$DIMALTTZ
 70
     8
  9
$DIMUPT
 70
     0
  9
$DIMDEC
 70
     3
  9
$DIMTDEC
 70
     3
  9
$DIMALTU
 70
     2
  9
$DIMALTTD
 70
     3
  9
$DIMTXSTY
  7
Standard
  9
$DIMAUNIT
 70
     0
  9
$DIMADEC
 70
     1
  9
$DIMALTRND
 40
0.0
  9
$DIMAZIN
 70
     0
  9
$DIMDSEP
 70
    46
  9
$DIMATFIT
 70
     3
  9
$DIMFRAC
 70
     0
  9
$DIMLDRBLK
  1

  9
$DIMLUNIT
 70
     2
  9
$DIMLWD
 70
    -2
  9
$DIMLWE
 70
    -2
  9
$DIMTMOVE
 70
     0
  9
$DIMFXL
 40
1.0
  9
$DIMFXLON
 70
     0
  9
$DIMJOGANG
 40
0.7853981633974483
  9
$DIMTFILL
 70
     0
  9
$DIMTFILLCLR
 70
     0
  9
$DIMARCSYM
 70
     0
  9
$DIMLTYPE
  6

  9
$DIMLTEX1
  6

  9
$DIMLTEX2
  6

  9
$DIMTXTDIRECTION
 70
     0
  9
$LUNITS
 70
     2
  9
$LUPREC
 70
     4
  9
$SKETCHINC
 40
1.0
  9
$FILLETRAD
 40
10.0
  9
$AUNITS
 70
     0
  9
$AUPREC
 70
     0
  9
$MENU
  1
.
  9
$ELEVATION
 40
0.0
  9
$PELEVATION
 40
0.0
  9
$THICKNESS
 40
0.0
  9
$LIMCHECK
 70
     0
  9
$CHAMFERA
 40
0.0
  9
$CHAMFERB
 40
0.0
  9
$CHAMFERC
 40
0.0
  9
$CHAMFERD
 40
0.0
  9
$SKPOLY
 70
     0
  9
$TDCREATE
 40
2457944.78353963
  9
$TDUCREATE
 40
2457944.950206297
  9
$TDUPDATE
 40
2457944.783539792
  9
$TDUUPDATE
 40
2457944.950206458
  9
$TDINDWG
 40
0.0000000116
  9
$TDUSRTIMER
 40
0.0000000116
  9
$USRTIMER
 70
     1
  9
$ANGBASE
 50
0.0
  9
$ANGDIR
 70
     0
  9
$PDMODE
 70
     0
  9
$PDSIZE
 40
0.0
  9
$PLINEWID
 40
0.0
  9
$SPLFRAME
 70
     0
  9
$SPLINETYPE
 70
     6
  9
$SPLINESEGS
 70
     8
  9
$HANDSEED
  5
105
  9
$SURFTAB1
 70
     6
  9
$SURFTAB2
 70
     6
  9
$SURFTYPE
 70
     6
  9
$SURFU
 70
     6
  9
$SURFV
 70
     6
  9
$UCSBASE
  2

  9
$UCSNAME
  2

  9
$UCSORG
 10
0.0
 20
0.0
 30
0.0
  9
$UCSXDIR
 10
1.0
 20
0.0
 30
0.0
  9
$UCSYDIR
 10
0.0
 20
1.0
 30
0.0
  9
$UCSORTHOREF
  2

  9
$UCSORTHOVIEW
 70
     0
  9
$UCSORGTOP
 10
0.0
 20
0.0
 30
0.0
  9
$UCSORGBOTTOM
 10
0.0
 20
0.0
 30
0.0
  9
$UCSORGLEFT
 10
0.0
 20
0.0
 30
0.0
  9
$UCSORGRIGHT
 10
0.0
 20
0.0
 30
0.0
  9
$UCSORGFRONT
 10
0.0
 20
0.0
 30
0.0
  9
$UCSORGBACK
 10
0.0
 20
0.0
 30
0.0
  9
$PUCSBASE
  2

  9
$PUCSNAME
  2

  9
$PUCSORG
 10
0.0
 20
0.0
 30
0.0
  9
$PUCSXDIR
 10
1.0
 20
0.0
 30
0.0
  9
$PUCSYDIR
 10
0.0
 20
1.0
 30
0.0
  9
$PUCSORTHOREF
  2

  9
$PUCSORTHOVIEW
 70
     0
  9
$PUCSORGTOP
 10
0.0
 20
0.0
 30
0.0
  9
$PUCSORGBOTTOM
 10
0.0
 20
0.0
 30
0.0
  9
$PUCSORGLEFT
 10
0.0
 20
0.0
 30
0.0
  9
$PUCSORGRIGHT
 10
0.0
 20
0.0
 30
0.0
  9
$PUCSORGFRONT
 10
0.0
 20
0.0
 30
0.0
  9
$PUCSORGBACK
 10
0.0
 20
0.0
 30
0.0
  9
$USERI1
 70
     0
  9
$USERI2
 70
     0
  9
$USERI3
 70
     0
  9
$USERI4
 70
     0
  9
$USERI5
 70
     0
  9
$USERR1
 40
0.0
  9
$USERR2
 40
0.0
  9
$USERR3
 40
0.0
  9
$USERR4
 40
0.0
  9
$USERR5
 40
0.0
  9
$WORLDVIEW
 70
     1
  9
$SHADEDGE
 70
     3
  9
$SHADEDIF
 70
    70
  9
$TILEMODE
 70
     1
  9
$MAXACTVP
 70
    64
  9
$PINSBASE
 10
0.0
 20
0.0
 30
0.0
  9
$PLIMCHECK
 70
     0
  9
$PEXTMIN
 10
1.000000000000000E+20
 20
1.000000000000000E+20
 30
1.000000000000000E+20
  9
$PEXTMAX
 10
-1.000000000000000E+20
 20
-1.000000000000000E+20
 30
-1.000000000000000E+20
  9
$PLIMMIN
 10
0.0
 20
0.0
  9
$PLIMMAX
 10
420.0
 20
297.0
  9
$UNITMODE
 70
     0
  9
$VISRETAIN
 70
     1
  9
$PLINEGEN
 70
     0
  9
$PSLTSCALE
 70
     1
  9
$TREEDEPTH
 70
  3020
  9
$CMLSTYLE
  2
Standard
  9
$CMLJUST
 70
     0
  9
$CMLSCALE
 40
20.0
  9
$PROXYGRAPHICS
 70
     1
  9
$MEASUREMENT
 70
     1
  9
$CELWEIGHT
370
    -1
  9
$ENDCAPS
280
     0
  9
$JOINSTYLE
280
     0
  9
$LWDISPLAY
290
     0
  9
$INSUNITS
 70
     4
  9
$HYPERLINKBASE
  1

  9
$STYLESHEET
  1

  9
$XEDIT
290
     1
  9
$CEPSNTYPE
380
     0
  9
$PSTYLEMODE
290
     1
  9
$FINGERPRINTGUID
  2
{B72A9A46-850D-492D-B6F1-41986A7BC511}
  9
$VERSIONGUID
  2
{FAEB1C32-E019-11D5-929B-00C0DF256EC4}
  9
$EXTNAMES
290
     1
  9
$PSVPSCALE
 40
0.0
  9
$OLESTARTUP
290
     0
  9
$SORTENTS
280
   127
  9
$INDEXCTL
280
     0
  9
$HIDETEXT
280
     1
  9
$XCLIPFRAME
280
     2
  9
$HALOGAP
280
     0
  9
$OBSCOLOR
 70
   257
  9
$OBSLTYPE
280
     0
  9
$INTERSECTIONDISPLAY
280
     0
  9
$INTERSECTIONCOLOR
 70
   257
  9
$DIMASSOC
280
     2
  9
$PROJECTNAME
  1

  9
$CAMERADISPLAY
290
     0
  9
$LENSLENGTH
 40
50.0
  9
$CAMERAHEIGHT
 40
0.0
  9
$STEPSPERSEC
 40
2.0
  9
$STEPSIZE
 40
6.0
  9
$3DDWFPREC
 40
2.0
  9
$PSOLWIDTH
 40
5.0
  9
$PSOLHEIGHT
 40
80.0
  9
$LOFTANG1
 40
1.570796326794897
  9
$LOFTANG2
 40
1.570796326794897
  9
$LOFTMAG1
 40
0.0
  9
$LOFTMAG2
 40
0.0
  9
$LOFTPARAM
 70
     7
  9
$LOFTNORMALS
280
     1
  9
$LATITUDE
 40
37.795
  9
$LONGITUDE
 40
-122.394
  9
$NORTHDIRECTION
 40
0.0
  9
$TIMEZONE
 70
 -8000
  9
$LIGHTGLYPHDISPLAY
280
     1
  9
$TILEMODELIGHTSYNCH
280
     1
  9
$CMATERIAL
347
44
  9
$SOLIDHIST
280
     1
  9
$SHOWHIST
280
     1
  9
$DWFFRAME
280
     2
  9
$DGNFRAME
280
     2
  9
$REALWORLDSCALE
290
     1
  9
$INTERFERECOLOR
 62
   256
  9
$CSHADOW
280
     0
  9
$SHADOWPLANELOCATION
 40
0.0
  0
ENDSEC
  0
SECTION
  2
CLASSES
  0
CLASS
  1
ACDBDICTIONARYWDFLT
  2
AcDbDictionaryWithDefault
  3
ObjectDBX Classes
 90
        0
 91
        4
280
     0
281
     0
  0
CLASS
  1
VISUALSTYLE
  2
AcDbVisualStyle
  3
ObjectDBX Classes
 90
     4095
 91
        4
280
     0
281
     0
  0
CLASS
  1
MATERIAL
  2
AcDbMaterial
  3
ObjectDBX Classes
 90
     1153
 91
        4
280
     0
281
     0
  0
CLASS
  1
SCALE
  2
AcDbScale
  3
ObjectDBX Classes
 90
     1153
 91
        4
280
     0
281
     0
  0
CLASS
  1
SUN
  2
AcDbSun
  3
SCENEOE
 90
     1153
 91
        4
280
     0
281
     0
  0
CLASS
  1
DICTIONARYVAR
  2
AcDbDictionaryVar
  3
ObjectDBX Classes
 90
        0
 91
        4
280
     0
281
     0
  0
ENDSEC
  0
SECTION
  2
TABLES
  0
TABLE
  2
VPORT
  5
8
330
0
100
AcDbSymbolTable
 70
     1
  0
VPORT
  5
29
330
8
100
AcDbSymbolTableRecord
100
AcDbViewportTableRecord
  2
*Active
 70
     0
 10
0.0
 20
0.0
 11
1.0
 21
1.0
 12
-16.148971630274
 22
27.26380577163691
 13
0.0
 23
0.0
 14
10.0
 24
10.0
 15
10.0
 25
10.0
 16
0.0
 26
0.0
 36
1.0
 17
0.0
 27
0.0
 37
0.0
 40
104.6989573834882
 41
1.015262321362938
 42
50.0
 43
0.0
 44
0.0
 50
0.0
 51
0.0
 71
     0
 72
   100
 73
     1
 74
     3
 75
     0
 76
     0
 77
     0
 78
     0
281
     0
 65
     1
110
0.0
120
0.0
130
0.0
111
1.0
121
0.0
131
0.0
112
0.0
122
1.0
132
0.0
 79
     0
146
0.0
 60
     3
 61
     5
292
     1
282
     1
141
0.0
142
0.0
 63
   250
361
69
  0
ENDTAB
  0
TABLE
  2
LTYPE
  5
5
330
0
100
AcDbSymbolTable
 70
     2
  0
LTYPE
  5
14
330
5
100
AcDbSymbolTableRecord
100
AcDbLinetypeTableRecord
  2
ByBlock
 70
     0
  3

 72
    65
 73
     0
 40
0.0
  0
LTYPE
  5
15
330
5
100
AcDbSymbolTableRecord
100
AcDbLinetypeTableRecord
  2
ByLayer
 70
     0
  3

 72
    65
 73
     0
 40
0.0
  0
LTYPE
  5
16
330
5
100
AcDbSymbolTableRecord
100
AcDbLinetypeTableRecord
  2
Continuous
 70
     0
  3
Solid line
 72
    65
 73
     0
 40
0.0
  0
LTYPE
  5
A8
330
5
100
AcDbSymbolTableRecord
100
AcDbLinetypeTableRecord
  2
HIDDEN
 70
     0
  3
- - - - - - - - - - - - - - - - - - - - -
 72
    65
 73
     2
 40
9.524999999999999
 49
6.35
 74
     0
 49
-3.175
 74
     0
  0
ENDTAB
  0
TABLE
  2
LAYER
  5
2
330
0
100
AcDbSymbolTable
 70
     2
  0
LAYER
  5
10
330
2
100
AcDbSymbolTableRecord
100
AcDbLayerTableRecord
  2
0
 70
     0
 62
   253
420
  9416591
  6
Continuous
370
    70
390
F
347
46
348
0
  0
LAYER
  5
A7
330
2
100
AcDbSymbolTableRecord
100
AcDbLayerTableRecord
  2
Hidden
 70
     0
 62
    98
420
   346117
  6
HIDDEN
370
    70
390
F
347
46
348
0
  0
ENDTAB
  0
TABLE
  2
STYLE
  5
3
330
0
100
AcDbSymbolTable
 70
     1
  0
STYLE
  5
11
330
3
100
AcDbSymbolTableRecord
100
AcDbTextStyleTableRecord
  2
Standard
 70
     0
 40
0.0
 41
1.0
 50
0.0
 71
     0
 42
2.5
  3
txt
  4

  0
ENDTAB
  0
TABLE
  2
VIEW
  5
6
330
0
100
AcDbSymbolTable
 70
     0
  0
ENDTAB
  0
TABLE
  2
UCS
  5
7
330
0
100
AcDbSymbolTable
 70
     0
  0
ENDTAB
  0
TABLE
  2
APPID
  5
9
330
0
100
AcDbSymbolTable
 70
     1
  0
APPID
  5
12
330
9
100
AcDbSymbolTableRecord
100
AcDbRegAppTableRecord
  2
ACAD
 70
     0
  0
ENDTAB
  0
TABLE
  2
DIMSTYLE
  5
A
330
0
100
AcDbSymbolTable
 70
     1
100
AcDbDimStyleTable
  0
DIMSTYLE
105
27
330
A
100
AcDbSymbolTableRecord
100
AcDbDimStyleTableRecord
  2
ISO-25
 70
     0
 41
2.5
 42
0.625
 43
3.75
 44
1.25
 73
     0
 74
     0
 77
     1
 78
     8
140
2.5
141
2.5
143
0.03937007874016
147
0.625
171
     3
172
     1
178
     0
271
     2
272
     2
274
     3
278
    44
283
     0
284
     8
340
11
  0
ENDTAB
  0
TABLE
  2
BLOCK_RECORD
  5
1
330
0
100
AcDbSymbolTable
 70
     1
  0
BLOCK_RECORD
  5
1F
330
1
100
AcDbSymbolTableRecord
100
AcDbBlockTableRecord
  2
*Model_Space
340
22
 70
     0
280
     1
281
     0
  0
BLOCK_RECORD
  5
1B
330
1
100
AcDbSymbolTableRecord
100
AcDbBlockTableRecord
  2
*Paper_Space
340
1E
 70
     0
280
     1
281
     0
  0
BLOCK_RECORD
  5
23
330
1
100
AcDbSymbolTableRecord
100
AcDbBlockTableRecord
  2
*Paper_Space0
340
26
 70
     0
280
     1
281
     0
  0
ENDTAB
  0
ENDSEC
  0
SECTION
  2
BLOCKS
  0
BLOCK
  5
20
330
1F
100
AcDbEntity
  8
0
100
AcDbBlockBegin
  2
*Model_Space
 70
     0
 10
0.0
 20
0.0
 30
0.0
  3
*Model_Space
  1
*Model_Space
  0
ENDBLK
  5
21
330
1F
100
AcDbEntity
  8
0
100
AcDbBlockEnd
  0
BLOCK
  5
1C
330
1B
100
AcDbEntity
 67
     1
  8
0
100
AcDbBlockBegin
  2
*Paper_Space
 70
     0
 10
0.0
 20
0.0
 30
0.0
  3
*Paper_Space
  1
*Paper_Space
  0
ENDBLK
  5
1D
330
1B
100
AcDbEntity
 67
     1
  8
0
100
AcDbBlockEnd
  0
BLOCK
  5
24
330
23
100
AcDbEntity
  8
0
100
AcDbBlockBegin
  2
*Paper_Space0
 70
     0
 10
0.0
 20
0.0
 30
0.0
  3
*Paper_Space0
  1
*Paper_Space0
  0
ENDBLK
  5
25
330
23
100
AcDbEntity
  8
0
100
AcDbBlockEnd
  0
ENDSEC
  0
SECTION
  2
ENTITIES
  0
LINE
  5
6A
330
1F
100
AcDbEntity
  8
0
 62
    98
420
   346117
370
    -3
100
AcDbLine
 10
-6.967220618940244
 20
48.82493488802785
 30
0.0
 11
-2.000725753422834
 21
39.95641379490122
 31
-0.0000000000000017
  0
SPLINE
  5
6B
330
1F
100
AcDbEntity
  8
0
 62
    98
420
   346117
370
    -3
100
AcDbSpline
210
0.0
220
0.0
230
1.0
 70
     8
 71
     3
 72
    24
 73
    20
 74
     0
 42
0.000000001
 43
0.00000001
 40
-0.0236019629548186
 40
-0.0236019629548186
 40
-0.0236019629548186
 40
-0.0236019629548186
 40
-0.0218319982359871
 40
-0.0218319982359871
 40
-0.0190609838803855
 40
-0.0190609838803855
 40
-0.0177010350715034
 40
-0.0177010350715034
 40
-0.0161270631813024
 40
-0.0161270631813024
 40
-0.014561818803025
 40
-0.014561818803025
 40
-0.0129890374978669
 40
-0.0129890374978669
 40
-0.0108768999009397
 40
-0.0108768999009397
 40
-0.0059509772323079
 40
-0.0059509772323079
 40
-0.0048060930264522
 40
-0.0048060930264522
 40
-0.0048060930264522
 40
-0.0048060930264522
 10
-2.000725753427745
 20
39.95641379494294
 30
0.0
 10
-1.758412739144468
 20
40.14041169626538
 30
0.0
 10
-1.475157872970754
 20
40.28156862047244
 30
0.0
 10
-0.6192909006649295
 20
40.54440574827117
 30
-0.0000000000000035
 10
0.0644243279965193
 20
40.62159258634288
 30
-0.0000000000000035
 10
1.465645298789819
 20
40.57387585959332
 30
-0.0000000000000035
 10
1.953368830003801
 20
40.53301014722564
 30
-0.0000000000000069
 10
3.010849504281055
 20
40.41144892497626
 30
0.0000000000000035
 10
3.604654366183091
 20
40.32280535917056
 30
-0.0000000000000035
 10
4.783172536475105
 20
40.11762170172893
 30
0.0
 10
5.391260656213828
 20
39.99717499017533
 30
-0.0000000000000069
 10
6.604909934977716
 20
39.72850497378189
 30
-0.0000000000000069
 10
7.234736002085657
 20
39.57477333193133
 30
-0.0000000000000035
 10
8.701989044944643
 20
39.173578298864
 30
0.0
 10
9.381229612880086
 20
38.95508300574832
 30
-0.0000000000000017
 10
11.23626934531193
 20
38.29944058127711
 30
-0.0000000000000017
 10
12.32474231069542
 20
37.7948168816573
 30
-0.0000000000000017
 10
13.57766449010254
 20
37.07344733324774
 30
-0.0000000000000069
 10
13.81434819389455
 20
36.9305816941305
 30
-0.0000000000000069
 10
14.05302970349622
 20
36.77977186598646
 30
-0.0000000000000017
  0
LINE
  5
6C
330
1F
100
AcDbEntity
  8
0
 62
    98
420
   346117
370
    -3
100
AcDbLine
 10
14.05302970345489
 20
36.77977186596541
 30
-0.0000000000000017
 11
9.086534838309749
 21
45.64829295842728
 31
-0.0000000000000017
  0
LINE
  5
6D
330
1F
100
AcDbEntity
  8
0
 62
    98
420
   346117
370
    -3
100
AcDbLine
 10
9.086534838309744
 20
45.64829295842728
 30
-0.0000000000000035
 11
-6.967220618940244
 21
48.82493488802785
 31
-0.0000000000000007
  0
ELLIPSE
  5
6E
330
1F
100
AcDbEntity
  8
0
 62
    98
420
   346117
370
    -3
100
AcDbEllipse
 10
-1.256462926747421
 20
2.243628206676949
 30
0.0000000000000009
 11
-21.81252137276809
 21
-12.21531462396836
 31
0.0
210
-2.712344709714012E-17
220
4.843352690635091E-17
230
1.0
 40
0.6783794244998316
 41
2.702240987169998
 42
2.710024418848395
  0
ELLIPSE
  5
6F
330
1F
100
AcDbEntity
  8
0
 62
    98
420
   346117
370
    -3
100
AcDbEllipse
 10
-1.256462926747421
 20
2.243628206676949
 30
0.0000000000000009
 11
-21.81252137276809
 21
-12.21531462396836
 31
0.0
210
-2.712344709714012E-17
220
4.843352690635091E-17
230
1.0
 40
0.6783794244998316
 41
4.078080223115842
 42
4.886211449992834
  0
ELLIPSE
  5
70
330
1F
100
AcDbEntity
  8
0
 62
    98
420
   346117
370
    -3
100
AcDbEllipse
 10
-1.435957630568482
 20
2.564146521916514
 30
0.0000000000000004
 11
-22.01904394596691
 21
-12.3309701305218
 31
0.0
210
-2.712344709714013E-17
220
4.843352690635091E-17
230
1.0
 40
0.6783794244998317
 41
1.875167827466102
 42
2.690586367037125
  0
ELLIPSE
  5
71
330
1F
100
AcDbEntity
  8
0
 62
    98
420
   346117
370
    -3
100
AcDbEllipse
 10
-6.896496807157058
 20
12.31486774054702
 30
0.0000000000000017
 11
28.30181763117997
 21
15.84941056959367
 31
0.0
210
2.712344709714013E-17
220
-4.843352690635091E-17
230
-1.0
 40
0.6783794244998316
 41
3.551136810197017
 42
5.873650254965002
  0
SPLINE
  5
72
330
1F
100
AcDbEntity
  8
0
 62
    98
420
   346117
370
    -3
100
AcDbSpline
210
0.0
220
0.0
230
1.0
 70
    12
 71
     2
 72
     6
 73
     3
 74
     0
 42
0.000000001
 43
0.00000001
 40
0.0133682257322391
 40
0.0133682257322391
 40
0.0133682257322391
 40
0.0191421064221409
 40
0.0191421064221409
 40
0.0191421064221409
 10
9.239612992853703
 20
31.54100719527088
 30
-0.0000000000000035
 41
1.040626359120222
 10
11.29464446712652
 20
31.13436719348208
 30
-0.0000000000000017
 41
1.040626359120195
 10
13.04603578495515
 20
31.31780438806446
 30
-0.0000000000000035
 41
1.033047637176566
  0
SPLINE
  5
73
330
1F
100
AcDbEntity
  8
0
 62
    98
420
   346117
370
    -3
100
AcDbSpline
210
0.0
220
0.0
230
1.0
 70
    12
 71
     2
 72
     6
 73
     3
 74
     0
 42
0.000000001
 43
0.00000001
 40
0.0023888924858045
 40
0.0023888924858045
 40
0.0023888924858045
 40
0.0133682257322391
 40
0.0133682257322391
 40
0.0133682257322391
 10
-0.0178414972852575
 20
35.32673221699876
 30
0.0000000000000017
 41
1.013222464005416
 10
5.331864184082379
 20
32.31425422456577
 30
0.0
 41
1.040626359120274
 10
9.239612992853703
 20
31.54100719527088
 30
-0.0000000000000035
 41
1.040626359120222
  0
ELLIPSE
  5
74
330
1F
100
AcDbEntity
  8
0
 62
    98
420
   346117
370
    -3
100
AcDbEllipse
 10
-19.54172811206714
 20
34.89507845085789
 30
0.0
 11
-36.13229571501341
 21
-20.23458694675157
 31
0.0
210
-2.712344709714012E-17
220
4.843352690635091E-17
230
1.0
 40
0.6783794244998317
 41
3.139302353704258
 42
6.294949850344072
  0
SPLINE
  5
75
330
1F
100
AcDbEntity
  8
0
 62
    98
420
   346117
370
    -3
100
AcDbSpline
210
0.0
220
0.0
230
1.0
 70
     8
 71
     3
 72
    12
 73
     8
 74
     0
 42
0.000000001
 43
0.00000001
 40
-0.0079526483169768
 40
-0.0079526483169768
 40
-0.0079526483169768
 40
-0.0079526483169768
 40
-0.0073343897912448
 40
-0.0073343897912448
 40
-0.0024871636058843
 40
-0.0024871636058843
 40
0.0
 40
0.0
 40
0.0
 40
0.0
 10
-0.3573481794267655
 20
38.11694464213149
 30
-0.0000000000000069
 10
-0.1122529700407805
 20
38.09200591810637
 30
-0.0000000000000035
 10
0.1319078261697339
 20
38.06731382173592
 30
-0.0000000000000035
 10
2.279927885245513
 20
37.84713630175202
 30
-0.0000000000000035
 10
4.134984009983994
 20
37.63800593628599
 30
-0.0000000000000017
 10
6.792119903748487
 20
37.23264940827973
 30
-0.0000000000000052
 10
7.670213786361307
 20
37.08021690210717
 30
-0.0000000000000017
 10
8.519666728157654
 20
36.91213113305964
 30
-0.0000000000000017
  0
SPLINE
  5
76
330
1F
100
AcDbEntity
  8
0
 62
    98
420
   346117
370
    -3
100
AcDbSpline
210
0.0
220
0.0
230
1.0
 70
     8
 71
     3
 72
    10
 73
     6
 74
     0
 42
0.000000001
 43
0.00000001
 40
0.0
 40
0.0
 40
0.0
 40
0.0
 40
0.0050951026030905
 40
0.0050951026030905
 40
0.0071733072492744
 40
0.0071733072492744
 40
0.0071733072492744
 40
0.0071733072492744
 10
8.519666728157654
 20
36.91213113305964
 30
-0.0000000000000017
 10
10.2598216117004
 20
36.56779743607632
 30
-0.0000000000000017
 10
11.89038937119929
 20
36.15127050535305
 30
-0.0000000000000087
 10
13.96510337255937
 20
35.5216607427004
 30
-0.0000000000000035
 10
14.5422972491669
 20
35.33345337288058
 30
0.0000000000000017
 10
15.09252253973863
 20
35.14786874905963
 30
0.0
  0
ELLIPSE
  5
77
330
1F
100
AcDbEntity
  8
0
 62
    98
420
   346117
370
    -3
100
AcDbEllipse
 10
-13.55185013849007
 20
24.19913280058717
 30
0.0000000000000017
 11
-33.99510274553233
 21
-19.03772922965439
 31
0.0
210
-2.712344709714012E-17
220
4.843352690635091E-17
230
1.0
 40
0.6783794244998316
 41
3.554270841612674
 42
4.073389912165775
  0
ELLIPSE
  5
78
330
1F
100
AcDbEntity
  8
0
 62
    98
420
   346117
370
    -3
100
AcDbEllipse
 10
-20.82138564324302
 20
37.18012456778955
 30
-0.0000000000000035
 11
36.3091812034181
 21
20.33364527459693
 31
0.0
210
2.712344709714013E-17
220
-4.843352690635091E-17
230
-1.0
 40
0.6783794244998317
 41
0.0
 42
6.283185307179586
  0
ELLIPSE
  5
79
330
1F
100
AcDbEntity
  8
0
 62
    98
420
   346117
370
    -3
100
AcDbEllipse
 10
-23.99473319609983
 20
14.85620087243823
 30
0.0
 11
0.9077273986055245
 21
0.5083399382065887
 31
0.0
210
2.712344709714013E-17
220
-4.843352690635091E-17
230
-1.0
 40
0.6783794244998316
 41
0.0
 42
6.283185307179586
  0
ELLIPSE
  5
7A
330
1F
100
AcDbEntity
  8
0
 62
    98
420
   346117
370
    -3
100
AcDbEllipse
 10
-15.96785546747484
 20
13.26787990763795
 30
0.0000000000000017
 11
0.9077273986055241
 21
0.5083399382065885
 31
0.0
210
2.712344709714013E-17
220
-4.843352690635091E-17
230
-1.0
 40
0.6783794244998315
 41
0.0
 42
6.283185307179586
  0
ELLIPSE
  5
7B
330
1F
100
AcDbEntity
  8
0
 62
    98
420
   346117
370
    -3
100
AcDbEllipse
 10
-1.747435423003964
 20
49.93278084275421
 30
-0.0000000000000035
 11
0.8725008549107243
 21
0.4886125849587351
 31
0.0
210
2.712344709714013E-17
220
-4.843352690635091E-17
230
-1.0
 40
0.6783794244998317
 41
0.0
 42
6.283185307179586
  0
ELLIPSE
  5
7C
330
1F
100
AcDbEntity
  8
0
 62
    98
420
   346117
370
    -3
100
AcDbEllipse
 10
6.279442305621036
 20
48.34445987795395
 30
0.0
 11
0.8725008549107243
 21
0.4886125849587351
 31
0.0
210
2.712344709714013E-17
220
-4.843352690635091E-17
230
-1.0
 40
0.6783794244998317
 41
0.0
 42
6.283185307179586
  0
ELLIPSE
  5
7D
330
1F
100
AcDbEntity
  8
0
 62
    98
420
   346117
370
    -3
100
AcDbEllipse
 10
2.692420557315905
 20
-4.807774728593487
 30
-0.0000000000000004
 11
-23.0517868510736
 21
-12.90932048699636
 31
0.0
210
-2.712344709714013E-17
220
4.843352690635091E-17
230
1.0
 40
0.6783794244998315
 41
0.3733112829199703
 42
2.768351147153394
  0
ELLIPSE
  5
7E
330
1F
100
AcDbEntity
  8
0
 62
    98
420
   346117
370
    -3
100
AcDbEllipse
 10
-6.885416838575881
 20
12.29508257258971
 30
0.0000000000000017
 11
32.24462821753942
 21
18.05743920562393
 31
0.0
210
2.712344709714013E-17
220
-4.843352690635092E-17
230
-1.0
 40
0.6783794244998316
 41
2.195351195360464
 42
2.743358665220261
  0
LINE
  5
7F
330
1F
100
AcDbEntity
  8
0
 62
    98
420
   346117
370
    -3
100
AcDbLine
 10
-31.85645305695146
 20
-12.83189176729455
 30
-0.0000000000000004
 11
-31.90429703316428
 21
-12.80314990067418
 31
0.0000000000000013
  0
ELLIPSE
  5
80
330
1F
100
AcDbEntity
  8
0
 62
    98
420
   346117
370
    -3
100
AcDbEllipse
 10
-6.916400023355119
 20
12.35040831744343
 30
-0.0000000000000009
 11
-32.2743659851513
 21
-18.07409276810694
 31
0.0
210
-2.712344709714013E-17
220
4.843352690635091E-17
230
1.0
 40
0.6783794244998316
 41
0.3732402397835166
 42
0.3984929613767073
  0
ELLIPSE
  5
81
330
1F
100
AcDbEntity
  8
0
 62
    98
420
   346117
370
    -3
100
AcDbEllipse
 10
-6.916400023355119
 20
12.35040831744343
 30
-0.0000000000000009
 11
-32.2743659851513
 21
-18.07409276810694
 31
0.0
210
-2.712344709714013E-17
220
4.843352690635091E-17
230
1.0
 40
0.6783794244998316
 41
2.660568528928724
 42
2.768350341045145
  0
ELLIPSE
  5
82
330
1F
100
AcDbEntity
  8
0
 62
    98
420
   346117
370
    -3
100
AcDbEllipse
 10
14.79729253050257
 20
-0.9330137229236236
 30
0.0000000000000009
 11
0.872500854910724
 21
0.4886125849587349
 31
0.0
210
2.712344709714013E-17
220
-4.843352690635091E-17
230
-1.0
 40
0.6783794244998316
 41
6.162291519402427
 42
8.874138892168151
  0
SPLINE
  5
83
330
1F
100
AcDbEntity
  8
0
 62
    98
420
   346117
370
    -3
100
AcDbSpline
210
0.0
220
0.0
230
1.0
 70
     8
 71
     3
 72
    11
 73
     7
 74
     0
 42
0.000000001
 43
0.00000001
 40
-0.6057356221647907
 40
-0.6057356221647907
 40
-0.6057356221647907
 40
-0.6057356221647907
 40
-0.5781009196672815
 40
-0.5781009196672815
 40
-0.5781009196672815
 40
-0.5
 40
-0.5
 40
-0.5
 40
-0.5
 10
-57.34761703932359
 20
12.51529423546388
 30
0.0000000000000035
 10
-56.48369023598221
 20
11.02249358699816
 30
0.0000000000000035
 10
-55.4350157823234
 20
9.634828741490205
 30
0.0000000000000035
 10
-54.20584135111263
 20
8.379126685703913
 30
0.0
 10
-50.73196087356009
 20
4.830274101029072
 30
0.0000000000000035
 10
-45.82406853744965
 20
2.34344891090264
 30
0.0000000000000052
 10
-40.05960951283144
 20
1.199491598875403
 30
0.0000000000000035
  0
SPLINE
  5
84
330
1F
100
AcDbEntity
  8
0
 62
    98
420
   346117
370
    -3
100
AcDbSpline
210
0.0
220
0.0
230
1.0
 70
     8
 71
     3
 72
    23
 73
    19
 74
     0
 42
0.000000001
 43
0.00000001
 40
-0.5
 40
-0.5
 40
-0.5
 40
-0.5
 40
-0.4956910560930687
 40
-0.4956910560930687
 40
-0.4956910560930687
 40
-0.4131660664940769
 40
-0.4131660664940769
 40
-0.4131660664940769
 40
-0.3293326474218022
 40
-0.3293326474218022
 40
-0.3293326474218022
 40
-0.2470662605501975
 40
-0.2470662605501975
 40
-0.2470662605501975
 40
-0.1647582878086996
 40
-0.1647582878086996
 40
-0.1647582878086996
 40
-0.1082397774638677
 40
-0.1082397774638677
 40
-0.1082397774638677
 40
-0.1082397774638677
 10
-40.05960951283144
 20
1.199491598875403
 30
0.0000000000000035
 10
-39.74136683197531
 20
1.13661810093359
 30
0.0000000000000035
 10
-39.42071423059598
 20
1.077605079931579
 30
0.0000000000000035
 10
-39.09755066986564
 20
1.022727499887476
 30
0.0000000000000035
 10
-32.90831496291083
 20
-0.0282891343909488
 30
0.0000000000000017
 10
-25.81269961855001
 20
0.4401567657996491
 30
-0.0000000000000009
 10
-18.72760783104228
 20
2.367532107643911
 30
0.0000000000000017
 10
-11.53018227699019
 20
4.325465886582227
 30
0.0000000000000009
 10
-4.361439498441001
 20
7.785110089048324
 30
0.0000000000000009
 10
1.823842759650504
 20
12.28568778497012
 30
0.0000000000000017
 10
7.893508398785958
 20
16.70213971995824
 30
0.0
 10
13.00222075677263
 20
22.10950869918938
 30
0.0
 10
16.49379818418909
 20
27.81325252745164
 30
0.0
 10
19.98714061296442
 20
33.51987961287111
 30
0.0000000000000017
 10
21.85346128626636
 20
39.50976326233485
 30
0.0
 10
21.85281009910466
 20
45.01279294171619
 30
-0.0000000000000017
 10
21.85236294766709
 20
48.79156466336765
 30
0.0000000000000035
 10
20.9715867223238
 20
52.33465744961767
 30
0.0
 10
19.29370076620406
 20
55.43646407416689
 30
0.0
  0
ELLIPSE
  5
85
330
1F
100
AcDbEntity
  8
0
 62
    98
420
   346117
370
    -3
100
AcDbEllipse
 10
-20.82138564324302
 20
37.18012456778955
 30
-0.0000000000000035
 11
38.35680433600383
 21
21.4803426402246
 31
0.0
210
2.712344709714013E-17
220
-4.843352690635091E-17
230
-1.0
 40
0.6783794244998317
 41
0.0
 42
6.283185307179586
  0
SPLINE
  5
86
330
1F
100
AcDbEntity
  8
0
 62
    98
420
   346117
370
    -3
100
AcDbSpline
210
-7.728912567400618E-11
220
-1.287856935525655E-10
230
-1.0
 70
     8
 71
     3
 72
     8
 73
     4
 74
     0
 42
0.000000001
 43
0.00000001
 40
0.0508593574011854
 40
0.0508593574011854
 40
0.0508593574011854
 40
0.0508593574011854
 40
0.0509472517794621
 40
0.0509472517794621
 40
0.0509472517794621
 40
0.0509472517794621
 10
-31.85642893948722
 20
-12.83185376707368
 30
0.0000000000000009
 10
-31.87238726484824
 20
-12.82230239020555
 30
0.000000000000003
 10
-31.88834330683952
 20
-12.81273443267802
 30
0.0000000000000052
 10
-31.90429703316429
 20
-12.80314990067418
 30
0.0000000000000039
  0
ELLIPSE
  5
87
330
1F
100
AcDbEntity
  8
0
 62
    98
420
   346117
370
    -3
100
AcDbEllipse
 10
-6.885416838575881
 20
12.29508257258971
 30
0.0000000000000017
 11
32.24458565323379
 21
18.05741536902218
 31
0.0
210
2.712344709714012E-17
220
-4.843352690635091E-17
230
-1.0
 40
0.6783794244998316
 41
2.195350824330972
 42
2.743359036249754
  0
ELLIPSE
  5
88
330
1F
100
AcDbEntity
  8
0
 62
    98
420
   346117
370
    -3
100
AcDbEllipse
 10
-6.916400023355119
 20
12.35040831744343
 30
-0.0000000000000009
 11
-32.2743659851513
 21
-18.07409276810694
 31
0.0
210
-2.712344709714013E-17
220
4.843352690635091E-17
230
1.0
 40
0.6783794244998316
 41
0.9459824852221536
 42
1.825499571259923
  0
SPLINE
  5
89
330
1F
100
AcDbEntity
  8
0
 62
    98
420
   346117
370
    -3
100
AcDbSpline
210
0.0
220
0.0
230
1.0
 70
     8
 71
     3
 72
     8
 73
     4
 74
     0
 42
0.000000001
 43
0.00000001
 40
0.0467470288816576
 40
0.0467470288816576
 40
0.0467470288816576
 40
0.0467470288816576
 40
0.0495489864344968
 40
0.0495489864344968
 40
0.0495489864344968
 40
0.0495489864344968
 10
13.08091897300672
 20
-4.283590503887683
 30
0.0000000000000017
 10
13.06974598307891
 20
-3.769226458211127
 30
-0.0000000000000009
 10
13.0439290713055
 20
-3.244407972547833
 30
-0.0000000000000009
 10
13.00268648366087
 20
-2.709900997707721
 30
0.0000000000000009
  0
ELLIPSE
  5
8A
330
1F
100
AcDbEntity
  8
0
 62
    98
420
   346117
370
    -3
100
AcDbEllipse
 10
-7.89776696812666
 20
14.10280587054085
 30
0.0
 11
-33.17410332538307
 21
-18.5779581627598
 31
0.0
210
-2.712344709714013E-17
220
4.843352690635090E-17
230
1.0
 40
0.6783794244998315
 41
1.837499599129367
 42
2.648568501059279
  0
SPLINE
  5
8B
330
1F
100
AcDbEntity
  8
0
 62
    98
420
   346117
370
    -3
100
AcDbSpline
210
0.0
220
0.0
230
1.0
 70
     8
 71
     3
 72
     8
 73
     4
 74
     0
 42
0.000000001
 43
0.00000001
 40
0.2722271955030328
 40
0.2722271955030328
 40
0.2722271955030328
 40
0.2722271955030328
 40
0.2750291530558054
 40
0.2750291530558054
 40
0.2750291530558054
 40
0.2750291530558054
 10
27.29034024407608
 20
19.81697105766266
 30
0.0000000000000004
 10
27.33158673037761
 20
19.28246255147971
 30
-0.0000000000000022
 10
27.35735032136813
 20
18.75766824986955
 30
-0.0000000000000024
 10
27.36857273295249
 20
18.24328165726587
 30
-0.0000000000000026
  0
SPLINE
  5
8C
330
1F
100
AcDbEntity
  8
0
 62
    98
420
   346117
370
    -3
100
AcDbSpline
210
0.0
220
0.0
230
1.0
 70
    12
 71
     2
 72
     6
 73
     3
 74
     0
 42
0.000000001
 43
0.00000001
 40
0.0
 40
0.0
 40
0.0
 40
0.0166828972926677
 40
0.0166828972926677
 40
0.0166828972926677
 10
27.368572735889
 20
18.24328151958233
 30
-0.0000000000000043
 41
1.0
 10
27.47205707738942
 20
13.39127361700981
 30
-0.0000000000000056
 41
1.004936592955014
 10
27.44922117747606
 20
9.525505656973868
 30
0.0
 41
1.0
  0
ELLIPSE
  5
8D
330
1F
100
AcDbEntity
  8
0
 62
    98
420
   346117
370
    -3
100
AcDbEllipse
 10
-1.435957630568482
 20
2.564146521916514
 30
0.0000000000000004
 11
27.01421847455025
 21
15.12833717605997
 31
0.0
210
2.712344709714013E-17
220
-4.843352690635091E-17
230
-1.0
 40
0.6783794244998316
 41
0.3928041607314863
 42
1.404313046259453
  0
SPLINE
  5
8E
330
1F
100
AcDbEntity
  8
0
 62
    98
420
   346117
370
    -3
100
AcDbSpline
210
0.0
220
0.0
230
1.0
 70
    12
 71
     2
 72
     6
 73
     3
 74
     0
 42
0.000000001
 43
0.00000001
 40
0.0
 40
0.0
 40
0.0
 40
0.0166828972926677
 40
0.0166828972926677
 40
0.0166828972926677
 10
13.16156741459316
 20
-13.00136636646848
 30
0.0
 41
1.0
 10
13.18440331450652
 20
-9.13559840643254
 30
-0.0000000000000017
 41
1.004936592955014
 10
13.08091897300612
 20
-4.283590503860019
 30
-0.0000000000000017
 41
1.0
  0
LINE
  5
8F
330
1F
100
AcDbEntity
  8
0
 62
    98
420
   346117
370
    -3
100
AcDbLine
 10
-15.85054157591429
 20
-15.97979183027475
 30
0.0000000000000004
 11
-15.80269759970146
 21
-16.00853369689513
 31
0.0000000000000005
  0
LINE
  5
90
330
1F
100
AcDbEntity
  8
0
 62
    98
420
   346117
370
    -3
100
AcDbLine
 10
9.086534838309744
 20
45.64829295842728
 30
-0.0000000000000035
 11
12.40969880809976
 21
50.88781588519713
 31
-0.0000000000000054
  0
LINE
  5
91
330
1F
100
AcDbEntity
  8
0
 62
    98
420
   346117
370
    -3
100
AcDbLine
 10
-3.64405664915025
 20
54.06445781479771
 30
0.0
 11
-6.967220618940245
 21
48.82493488802785
 31
-0.0000000000000002
  0
SPLINE
  5
92
330
1F
100
AcDbEntity
  8
0
 62
    98
420
   346117
370
    -3
100
AcDbSpline
210
0.0
220
0.0
230
1.0
 70
     8
 71
     3
 72
     8
 73
     4
 74
     0
 42
0.000000001
 43
0.00000001
 40
0.005180314283748
 40
0.005180314283748
 40
0.005180314283748
 40
0.005180314283748
 40
0.0088837317446564
 40
0.0088837317446564
 40
0.0088837317446564
 40
0.0088837317446564
 10
-2.000725753427745
 20
39.95641379494294
 30
0.0
 10
-1.461943816508503
 20
39.32593727992435
 30
-0.0000000000000035
 10
-0.9046040320013805
 20
38.70652307226143
 30
0.0
 10
-0.3573481794264567
 20
38.11694464213172
 30
-0.0000000000000035
  0
SPLINE
  5
93
330
1F
100
AcDbEntity
  8
0
 62
    98
420
   346117
370
    -3
100
AcDbSpline
210
0.0
220
0.0
230
1.0
 70
     8
 71
     3
 72
     8
 73
     4
 74
     0
 42
0.000000001
 43
0.00000001
 40
0.1083444837959211
 40
0.1083444837959211
 40
0.1083444837959211
 40
0.1083444837959211
 40
0.1112684972897213
 40
0.1112684972897213
 40
0.1112684972897213
 40
0.1112684972897213
 10
13.6775687128924
 20
46.07909985422449
 30
0.0
 10
13.88636083337199
 20
45.1969589901453
 30
-0.0000000000000035
 10
14.08448803821876
 20
44.3075007258566
 30
0.0
 10
14.27149925353292
 20
43.41250604580087
 30
0.0
  0
SPLINE
  5
94
330
1F
100
AcDbEntity
  8
0
 62
    98
420
   346117
370
    -3
100
AcDbSpline
210
0.0
220
0.0
230
1.0
 70
     8
 71
     3
 72
    11
 73
     7
 74
     0
 42
0.000000001
 43
0.00000001
 40
0.102933697534276
 40
0.102933697534276
 40
0.102933697534276
 40
0.102933697534276
 40
0.1033408686143773
 40
0.1033408686143773
 40
0.1033408686143773
 40
0.1083444837959211
 40
0.1083444837959211
 40
0.1083444837959211
 40
0.1083444837959211
 10
12.40969880809975
 20
50.88781588519712
 30
-0.0000000000000035
 10
12.44415204723787
 20
50.76969269466689
 30
-0.0000000000000035
 10
12.47841165681245
 20
50.65136085138987
 30
-0.0000000000000069
 10
12.51247719878917
 20
50.53282136159371
 30
-0.0000000000000035
 10
12.9310994272479
 20
49.07612166518915
 30
-0.0000000000000035
 10
13.32003587776526
 20
47.58840516374485
 30
0.0
 10
13.6775687128924
 20
46.07909985422449
 30
0.0
  0
SPLINE
  5
95
330
1F
100
AcDbEntity
  8
0
 62
    98
420
   346117
370
    -3
100
AcDbSpline
210
0.0
220
0.0
230
1.0
 70
     8
 71
     3
 72
     8
 73
     4
 74
     0
 42
0.000000001
 43
0.00000001
 40
0.0010432773411388
 40
0.0010432773411388
 40
0.0010432773411388
 40
0.0010432773411388
 40
0.003682838552915
 40
0.003682838552915
 40
0.003682838552915
 40
0.003682838552915
 10
15.22949365742199
 20
35.44817062746319
 30
-0.0000000000000104
 10
14.83479057488655
 20
35.88179738002066
 30
0.0
 10
14.43912718934077
 20
36.32796496482788
 30
-0.0000000000000017
 10
14.05302970353232
 20
36.77977186600777
 30
-0.0000000000000069
  0
SPLINE
  5
96
330
1F
100
AcDbEntity
  8
0
 62
    98
420
   346117
370
    -3
100
AcDbSpline
210
0.0
220
0.0
230
1.0
 70
     8
 71
     3
 72
    10
 73
     6
 74
     0
 42
0.000000001
 43
0.00000001
 40
0.1112684972897213
 40
0.1112684972897213
 40
0.1112684972897213
 40
0.1112684972897213
 40
0.1140947226669441
 40
0.1140947226669441
 40
0.1190982952730807
 40
0.1190982952730807
 40
0.1190982952730807
 40
0.1190982952730807
 10
14.27149925353292
 20
43.41250604580087
 30
0.0
 10
14.45225623145617
 20
42.54744277484948
 30
0.0
 10
14.62269061060896
 20
41.67726116691854
 30
-0.0000000000000035
 10
15.06593079578513
 20
39.25748018088427
 30
-0.0000000000000035
 10
15.31634658085895
 20
37.70079325688901
 30
-0.0000000000000035
 10
15.53422108328829
 20
36.14487591038639
 30
0.0000000000000017
  0
LINE
  5
97
330
1F
100
AcDbEntity
  8
0
 62
    98
420
   346117
370
    -3
100
AcDbLine
 10
-9.23075260417046
 20
11.37328029166813
 30
-0.0000000000000009
 11
-10.83521705840318
 21
14.23832440040747
 31
0.0000000000000008
  0
LINE
  5
98
330
1F
100
AcDbEntity
  8
0
 62
    98
420
   346117
370
    -3
100
AcDbLine
 10
-14.0363686123867
 20
9.191174421761813
 30
0.0
 11
-10.83521705840318
 21
14.23832440040746
 31
0.0000000000000013
  0
LINE
  5
99
330
1F
100
AcDbEntity
  8
0
 62
    98
420
   346117
370
    -3
100
AcDbLine
 10
-10.83521705840318
 20
14.23832440040746
 30
0.0
 11
-26.88897251565317
 21
17.41496633000803
 31
0.0000000000000009
  0
LINE
  5
9A
330
1F
100
AcDbEntity
  8
0
 62
    98
420
   346117
370
    -3
100
AcDbLine
 10
-26.88897251565317
 20
17.41496633000803
 30
0.0000000000000017
 11
-34.59796934390636
 21
5.260445520557549
 31
0.0000000000000017
  0
LINE
  5
9B
330
1F
100
AcDbEntity
  8
0
 62
    98
420
   346117
370
    -3
100
AcDbLine
 10
-0.017841497285254
 20
35.32673221699878
 30
0.0
 11
3.801698591909285
 21
28.50629390702469
 31
0.0
  0
SPLINE
  5
9C
330
1F
100
AcDbEntity
  8
0
 62
    98
420
   346117
370
    -3
100
AcDbSpline
210
0.0
220
0.0
230
1.0
 70
    12
 71
     2
 72
     6
 73
     3
 74
     0
 42
0.000000001
 43
0.00000001
 40
0.0012551862888341
 40
0.0012551862888341
 40
0.0012551862888341
 40
0.013231704791188
 40
0.013231704791188
 40
0.013231704791188
 10
1.245884032356155
 20
24.4766254636114
 30
0.0
 41
1.001027333485706
 10
0.6910330791721989
 20
29.39235725265293
 30
0.0
 41
1.005479753429606
 10
-0.0178414972852575
 20
35.32673221699876
 30
0.0000000000000017
 41
1.001367682924766
  0
LINE
  5
9D
330
1F
100
AcDbEntity
  8
0
 62
    98
420
   346117
370
    -3
100
AcDbLine
 10
3.80169859190928
 20
28.50629390702469
 30
0.0
 11
1.245884032356158
 21
24.47662546361141
 31
0.0
  0
LINE
  5
9E
330
1F
100
AcDbEntity
  8
0
 62
    98
420
   346117
370
    -3
100
AcDbLine
 10
10.24435474874179
 20
27.23145128591384
 30
0.0
 11
3.801698591909286
 21
28.50629390702469
 31
0.0000000000000022
  0
ELLIPSE
  5
9F
330
1F
100
AcDbEntity
  8
0
 62
    98
420
   346117
370
    -3
100
AcDbEllipse
 10
-2.459077442348532
 20
4.39110091878204
 30
0.0000000000000009
 11
23.19622261320022
 21
12.99020651787641
 31
0.0
210
2.712344709714013E-17
220
-4.843352690635091E-17
230
-1.0
 40
0.6783794244998316
 41
5.225321629056044
 42
5.516298120220529
  0
LINE
  5
A0
330
1F
100
AcDbEntity
  8
0
 62
    98
420
   346117
370
    -3
100
AcDbLine
 10
23.89754557208641
 20
10.22829458872661
 30
0.0
 11
27.44922117747605
 21
9.525505656973868
 31
0.0000000000000004
  0
LINE
  5
A1
330
1F
100
AcDbEntity
  8
0
 62
    98
420
   346117
370
    -3
100
AcDbLine
 10
-32.49796594266019
 20
-12.4626511162994
 30
0.0000000000000017
 11
-15.57907088062358
 21
-22.53036482727747
 31
0.0000000000000006
  0
LINE
  5
A2
330
1F
100
AcDbEntity
  8
0
 62
    98
420
   346117
370
    -3
100
AcDbLine
 10
27.35036612516912
 20
1.510715438672637
 30
0.0000000000000009
 11
27.60671806964011
 21
21.19680563262801
 31
-0.0000000000000035
  0
LINE
  5
A3
330
1F
100
AcDbEntity
  8
0
 62
    98
420
   346117
370
    -3
100
AcDbLine
 10
-59.06248033366148
 20
15.49594150623887
 30
0.0
 11
-57.34794209908373
 21
12.51585920907435
 31
0.0000000000000061
  0
LINE
  5
A4
330
1F
100
AcDbEntity
  8
0
 62
    98
420
   346117
370
    -3
100
AcDbLine
 10
19.29379322113128
 20
55.43629440066133
 30
0.0
 11
17.64875902859113
 21
58.45529993947863
 31
-0.0000000000000015
  0
SPLINE
  5
A5
330
1F
100
AcDbEntity
  8
0
 62
    98
420
   346117
370
    -3
100
AcDbSpline
210
0.0
220
0.0
230
1.0
 70
     8
 71
     3
 72
    10
 73
     6
 74
     0
 42
0.000000001
 43
0.00000001
 40
0.0042698038098484
 40
0.0042698038098484
 40
0.0042698038098484
 40
0.0042698038098484
 40
0.0189896409569577
 40
0.0189896409569577
 40
0.0384538455442061
 40
0.0384538455442061
 40
0.0384538455442061
 40
0.0384538455442061
 10
-54.98840636759324
 20
9.242989750363535
 30
0.0000000000000069
 10
-52.46769866002488
 20
5.382278397210483
 30
0.0000000000000052
 10
-49.57895490896205
 20
1.776774785182626
 30
0.0000000000000069
 10
-42.12219261955288
 20
-5.857854430887805
 30
-0.0000000000000009
 10
-37.43337253796726
 20
-9.525806272168289
 30
0.0000000000000043
 10
-32.49792335725323
 20
-12.46267645703949
 30
0.0000000000000009
  0
SPLINE
  5
A6
330
1F
100
AcDbEntity
  8
0
 62
    98
420
   346117
370
    -3
100
AcDbSpline
210
0.0
220
0.0
230
1.0
 70
     8
 71
     3
 72
    10
 73
     6
 74
     0
 42
0.000000001
 43
0.00000001
 40
0.0001062097524137
 40
0.0001062097524137
 40
0.0001062097524137
 40
0.0001062097524137
 40
0.0186558837101238
 40
0.0186558837101238
 40
0.032968024945723
 40
0.032968024945723
 40
0.032968024945723
 40
0.032968024945723
 10
27.60671705218158
 20
21.1967275022821
 30
-0.0000000000000035
 10
27.68097845014015
 20
26.89895262741225
 30
-0.0000000000000017
 10
27.01359636559621
 20
32.77093889455305
 30
-0.0000000000000009
 10
24.41561449846648
 20
43.13683044943679
 30
0.0
 10
22.83300528404595
 20
47.54090554518901
 30
-0.0000000000000035
 10
20.82993846464002
 20
51.7596972469839
 30
-0.0000000000000035
  0
ELLIPSE
  5
A9
330
1F
100
AcDbEntity
  8
Hidden
370
    -3
100
AcDbEllipse
 10
-1.256462926747421
 20
2.243628206676949
 30
0.0000000000000009
 11
-21.81252137276809
 21
-12.21531462396836
 31
0.0
210
-2.712344709714012E-17
220
4.843352690635091E-17
230
1.0
 40
0.6783794244998316
 41
4.886211449992834
 42
8.985426294349587
  0
ELLIPSE
  5
AA
330
1F
100
AcDbEntity
  8
Hidden
370
    -3
100
AcDbEllipse
 10
-1.256462926747421
 20
2.243628206676949
 30
0.0000000000000009
 11
-21.81252137276809
 21
-12.21531462396836
 31
0.0
210
-2.712344709714012E-17
220
4.843352690635091E-17
230
1.0
 40
0.6783794244998316
 41
2.710024418848395
 42
4.078080223115842
  0
ELLIPSE
  5
AB
330
1F
100
AcDbEntity
  8
Hidden
370
    -3
100
AcDbEllipse
 10
-11.43583065144917
 20
53.52030959837917
 30
0.0000000000000035
 11
6.744774977766982
 21
66.89705365960403
 31
0.0
210
1.104622799899671E-16
220
-1.113716047726803E-17
230
-1.0
 40
0.571056207591611
 41
2.98178043585589
 42
3.409974389120492
  0
SPLINE
  5
AC
330
1F
100
AcDbEntity
  8
Hidden
370
    -3
100
AcDbSpline
210
0.0
220
0.0
230
1.0
 70
    12
 71
     2
 72
     6
 73
     3
 74
     0
 42
0.000000001
 43
0.00000001
 40
0.0079444262218066
 40
0.0079444262218066
 40
0.0079444262218066
 40
0.0111321094089781
 40
0.0111321094089781
 40
0.0111321094089781
 10
-12.01546974671901
 20
-13.13721038408791
 30
0.0000000000000004
 41
1.007831619851673
 10
-12.77463595527186
 20
-12.79924614459078
 30
0.0000000000000026
 41
1.008882302069001
 10
-13.56574951087336
 20
-12.44435692778562
 30
0.0000000000000013
 41
1.009515263124172
  0
ELLIPSE
  5
AD
330
1F
100
AcDbEntity
  8
Hidden
370
    -3
100
AcDbEllipse
 10
-6.896496807157058
 20
12.31486774054702
 30
0.0000000000000017
 11
28.30181763117997
 21
15.84941056959367
 31
0.0
210
2.712344709714013E-17
220
-4.843352690635091E-17
230
-1.0
 40
0.6783794244998316
 41
1.379288631011385
 42
2.155965875766109
  0
SPLINE
  5
AE
330
1F
100
AcDbEntity
  8
Hidden
370
    -3
100
AcDbSpline
210
0.0
220
0.0
230
1.0
 70
    12
 71
     2
 72
     6
 73
     3
 74
     0
 42
0.000000001
 43
0.00000001
 40
0.0
 40
0.0
 40
0.0
 40
0.0174090209099554
 40
0.0174090209099554
 40
0.0174090209099554
 10
9.04580133376619
 20
-3.516742548734038
 30
0.0000000000000009
 41
1.0
 10
8.42527970753103
 20
-8.47720124889979
 30
0.0000000000000017
 41
1.010950731305611
 10
7.7108448316666
 20
-11.92280291446784
 30
-0.0000000000000035
 41
1.0
  0
ELLIPSE
  5
AF
330
1F
100
AcDbEntity
  8
Hidden
370
    -3
100
AcDbEllipse
 10
-1.435957630568482
 20
2.564146521916514
 30
0.0000000000000004
 11
-22.01904394596691
 21
-12.3309701305218
 31
0.0
210
-2.712344709714013E-17
220
4.843352690635091E-17
230
1.0
 40
0.6783794244998317
 41
1.606548992578718
 42
1.875167827466102
  0
ELLIPSE
  5
B0
330
1F
100
AcDbEntity
  8
Hidden
370
    -3
100
AcDbEllipse
 10
-1.435957630568482
 20
2.564146521916514
 30
0.0000000000000004
 11
-22.01904394596691
 21
-12.3309701305218
 31
0.0
210
-2.712344709714013E-17
220
4.843352690635091E-17
230
1.0
 40
0.6783794244998317
 41
2.690586367037125
 42
2.879519107609929
  0
SPLINE
  5
B1
330
1F
100
AcDbEntity
  8
Hidden
370
    -3
100
AcDbSpline
210
0.0
220
0.0
230
1.0
 70
    12
 71
     2
 72
     6
 73
     3
 74
     0
 42
0.000000001
 43
0.00000001
 40
0.0
 40
0.0
 40
0.0
 40
0.0174090209099554
 40
0.0174090209099554
 40
0.0174090209099554
 10
21.9984985945495
 20
10.6040691089745
 30
-0.0000000000000012
 41
1.0
 10
22.71293347041393
 20
14.04967077454256
 30
0.0000000000000004
 41
1.010950731305611
 10
23.33345509664908
 20
19.01012947470831
 30
-0.0000000000000004
 41
1.0
  0
ELLIPSE
  5
B2
330
1F
100
AcDbEntity
  8
Hidden
370
    -3
100
AcDbEllipse
 10
-6.896496807157058
 20
12.31486774054702
 30
0.0000000000000017
 11
28.30181763117997
 21
15.84941056959367
 31
0.0
210
2.712344709714013E-17
220
-4.843352690635091E-17
230
-1.0
 40
0.6783794244998316
 41
5.873650254965001
 42
6.701013883159139
  0
ELLIPSE
  5
B3
330
1F
100
AcDbEntity
  8
Hidden
370
    -3
100
AcDbEllipse
 10
-6.896496807157058
 20
12.31486774054702
 30
0.0000000000000017
 11
28.30181763117997
 21
15.84941056959367
 31
0.0
210
2.712344709714013E-17
220
-4.843352690635091E-17
230
-1.0
 40
0.6783794244998316
 41
2.782743984814616
 42
3.551136810197017
  0
SPLINE
  5
B4
330
1F
100
AcDbEntity
  8
Hidden
370
    -3
100
AcDbSpline
210
0.0
220
0.0
230
1.0
 70
    12
 71
     2
 72
     6
 73
     3
 74
     0
 42
0.000000001
 43
0.00000001
 40
0.0191421064221409
 40
0.0191421064221409
 40
0.0191421064221409
 40
0.0243475589787115
 40
0.0243475589787115
 40
0.0243475589787115
 10
13.04603578495515
 20
31.31780438806447
 30
-0.0000000000000035
 41
1.033047637176566
 10
14.64717956385889
 20
31.48550495842545
 30
-0.0000000000000017
 41
1.026215026730354
 10
16.03591395996473
 20
32.15009028739819
 30
-0.0000000000000017
 41
1.013222464005018
  0
SPLINE
  5
B5
330
1F
100
AcDbEntity
  8
Hidden
370
    -3
100
AcDbSpline
210
0.0
220
0.0
230
1.0
 70
    12
 71
     2
 72
     6
 73
     3
 74
     0
 42
0.000000001
 43
0.00000001
 40
0.0017311283636768
 40
0.0017311283636768
 40
0.0017311283636768
 40
0.0137076468660326
 40
0.0137076468660326
 40
0.0137076468660326
 10
16.03591395996474
 20
32.15009028739819
 30
-0.0000000000000069
 41
1.001367682924931
 10
16.744788536423
 20
26.2157153230454
 30
0.0
 41
1.005479753430276
 10
17.29963948960616
 20
21.29998353401085
 30
-0.0000000000000035
 41
1.001027333485832
  0
ELLIPSE
  5
B6
330
1F
100
AcDbEntity
  8
Hidden
370
    -3
100
AcDbEllipse
 10
-2.459077442348532
 20
4.39110091878204
 30
0.0000000000000009
 11
23.19622261320022
 21
12.99020651787641
 31
0.0
210
2.712344709714013E-17
220
-4.843352690635091E-17
230
-1.0
 40
0.6783794244998316
 41
5.516298120220529
 42
5.996573538704268
  0
ELLIPSE
  5
B7
330
1F
100
AcDbEntity
  8
Hidden
370
    -3
100
AcDbEllipse
 10
-19.54172811206714
 20
34.89507845085789
 30
0.0
 11
-36.13229571501341
 21
-20.23458694675157
 31
0.0
210
-2.712344709714012E-17
220
4.843352690635091E-17
230
1.0
 40
0.6783794244998317
 41
0.0117645431644862
 42
3.139302353704258
  0
ELLIPSE
  5
B8
330
1F
100
AcDbEntity
  8
Hidden
370
    -3
100
AcDbEllipse
 10
-13.55185013849007
 20
24.19913280058717
 30
0.0000000000000017
 11
33.99510274553233
 21
19.03772922965439
 31
0.0
210
2.712344709714012E-17
220
-4.843352690635091E-17
230
-1.0
 40
0.6783794244998316
 41
2.209795395013812
 42
2.728914465566914
  0
SPLINE
  5
B9
330
1F
100
AcDbEntity
  8
Hidden
370
    -3
100
AcDbSpline
210
0.0
220
0.0
230
1.0
 70
     8
 71
     3
 72
    14
 73
    10
 74
     0
 42
0.000000001
 43
0.00000001
 40
0.102930904623018
 40
0.102930904623018
 40
0.102930904623018
 40
0.102930904623018
 40
0.1057968320983371
 40
0.1057968320983371
 40
0.1057968320983371
 40
0.1140947226669441
 40
0.1140947226669441
 40
0.1140947226669441
 40
0.1159587773023146
 40
0.1159587773023146
 40
0.1159587773023146
 40
0.1159587773023146
 10
-39.51339908507989
 20
-2.489550284022799
 30
0.0000000000000017
 10
-39.03460653900748
 20
-2.9466913714253
 30
0.0
 10
-38.5490973722188
 20
-3.388445940819314
 30
-0.0000000000000017
 10
-38.0570711749024
 20
-3.81453628000581
 30
0.0000000000000026
 10
-36.6324784113452
 20
-5.048221025121914
 30
0.0000000000000009
 10
-35.15889372357923
 20
-6.144276809110746
 30
0.0000000000000017
 10
-33.66269896811119
 20
-7.090341234894116
 30
0.0000000000000078
 10
-33.32659080346913
 20
-7.302867028462547
 30
0.0000000000000017
 10
-32.98706855981568
 20
-7.509292235755765
 30
0.0000000000000017
 10
-32.64435715158692
 20
-7.709392235219781
 30
-0.0000000000000017
  0
SPLINE
  5
BA
330
1F
100
AcDbEntity
  8
Hidden
370
    -3
100
AcDbSpline
210
0.0
220
0.0
230
1.0
 70
     8
 71
     3
 72
     8
 73
     4
 74
     0
 42
0.000000001
 43
0.00000001
 40
0.1159587773023146
 40
0.1159587773023146
 40
0.1159587773023146
 40
0.1159587773023146
 40
0.1213081336089029
 40
0.1213081336089029
 40
0.1213081336089029
 40
0.1213081336089029
 10
-32.64435715158692
 20
-7.709392235219781
 30
-0.0000000000000017
 10
-31.66080397261238
 20
-8.283440497233844
 30
0.0000000000000035
 10
-30.65087491297295
 20
-8.805048078407925
 30
0.0000000000000022
 10
-29.61950496812336
 20
-9.267714998185042
 30
-0.0000000000000017
  0
SPLINE
  5
BB
330
1F
100
AcDbEntity
  8
Hidden
370
    -3
100
AcDbSpline
210
0.0
220
0.0
230
1.0
 70
     8
 71
     3
 72
    10
 73
     6
 74
     0
 42
0.000000001
 43
0.00000001
 40
0.2069427672869009
 40
0.2069427672869009
 40
0.2069427672869009
 40
0.2069427672869009
 40
0.2132379193700306
 40
0.2132379193700306
 40
0.2160641447472533
 40
0.2160641447472533
 40
0.2160641447472533
 40
0.2160641447472533
 10
-0.3573481794264567
 20
38.11694464213172
 30
-0.0000000000000035
 10
-0.6103162492693062
 20
40.07308620103787
 30
0.0000000000000035
 10
-0.9147091190500074
 20
42.03496245566078
 30
-0.0000000000000035
 10
-1.431064846641031
 20
44.85390309651912
 30
0.0000000000000035
 10
-1.601499225793822
 20
45.72408470445005
 30
0.0000000000000035
 10
-1.782256203717072
 20
46.58914797540145
 30
-0.0000000000000035
  0
SPLINE
  5
BC
330
1F
100
AcDbEntity
  8
Hidden
370
    -3
100
AcDbSpline
210
0.0
220
0.0
230
1.0
 70
     8
 71
     3
 72
     8
 73
     4
 74
     0
 42
0.000000001
 43
0.00000001
 40
0.2160641447472533
 40
0.2160641447472533
 40
0.2160641447472533
 40
0.2160641447472533
 40
0.2189881582410536
 40
0.2189881582410536
 40
0.2189881582410536
 40
0.2189881582410536
 10
-1.782256203717072
 20
46.58914797540145
 30
-0.0000000000000035
 10
-1.969267419031225
 20
47.48414265545716
 30
-0.0000000000000035
 10
-2.167394623878004
 20
48.37360091974588
 30
0.0
 10
-2.376186744357601
 20
49.25574178382505
 30
-0.0000000000000069
  0
SPLINE
  5
BD
330
1F
100
AcDbEntity
  8
Hidden
370
    -3
100
AcDbSpline
210
0.0
220
0.0
230
1.0
 70
     8
 71
     3
 72
    11
 73
     7
 74
     0
 42
0.000000001
 43
0.00000001
 40
0.2189881582410536
 40
0.2189881582410536
 40
0.2189881582410536
 40
0.2189881582410536
 40
0.2239917734225974
 40
0.2239917734225974
 40
0.2239917734225974
 40
0.22439893035058
 40
0.22439893035058
 40
0.22439893035058
 40
0.22439893035058
 10
-2.376186744357601
 20
49.25574178382505
 30
-0.0000000000000069
 10
-2.733719579484735
 20
50.76504709334542
 30
0.0
 10
-3.122656030002098
 20
52.25276359478972
 30
-0.0000000000000104
 10
-3.541278258460847
 20
53.70946329119428
 30
0.0
 10
-3.575342616415369
 20
53.82799866089201
 30
-0.0000000000000069
 10
-3.609602218582086
 20
53.94633053944057
 30
0.0
 10
-3.644056649150247
 20
54.06445781479766
 30
-0.0000000000000035
  0
ELLIPSE
  5
BE
330
1F
100
AcDbEntity
  8
Hidden
370
    -3
100
AcDbEllipse
 10
-21.75104939833658
 20
10.84972193194367
 30
0.0
 11
0.9077273986055245
 21
0.5083399382065887
 31
0.0
210
2.712344709714013E-17
220
-4.843352690635091E-17
230
-1.0
 40
0.6783794244998316
 41
0.0
 42
6.283185307179586
  0
ELLIPSE
  5
BF
330
1F
100
AcDbEntity
  8
Hidden
370
    -3
100
AcDbEllipse
 10
-13.72417166971158
 20
9.261400967143386
 30
0.0000000000000026
 11
0.9077273986055241
 21
0.5083399382065885
 31
0.0
210
2.712344709714013E-17
220
-4.843352690635091E-17
230
-1.0
 40
0.6783794244998315
 41
0.0
 42
6.283185307179586
  0
ELLIPSE
  5
C0
330
1F
100
AcDbEntity
  8
Hidden
370
    -3
100
AcDbEllipse
 10
0.4962483747592891
 20
45.92630190225965
 30
0.0000000000000069
 11
0.8725008549107243
 21
0.4886125849587351
 31
0.0
210
2.712344709714013E-17
220
-4.843352690635091E-17
230
-1.0
 40
0.6783794244998317
 41
0.0
 42
6.283185307179586
  0
ELLIPSE
  5
C1
330
1F
100
AcDbEntity
  8
Hidden
370
    -3
100
AcDbEllipse
 10
8.523126103384287
 20
44.33798093745937
 30
0.0
 11
0.8725008549107243
 21
0.4886125849587351
 31
0.0
210
2.712344709714013E-17
220
-4.843352690635091E-17
230
-1.0
 40
0.6783794244998317
 41
0.0
 42
6.283185307179586
  0
ELLIPSE
  5
C2
330
1F
100
AcDbEntity
  8
Hidden
370
    -3
100
AcDbEllipse
 10
-17.31021838399741
 20
5.420270136277518
 30
0.0
 11
0.8725008549107235
 21
0.4886125849587346
 31
0.0
210
2.712344709714013E-17
220
-4.843352690635091E-17
230
-1.0
 40
0.6783794244998316
 41
0.0
 42
6.283185307179586
  0
ELLIPSE
  5
C3
330
1F
100
AcDbEntity
  8
Hidden
370
    -3
100
AcDbEllipse
 10
-13.36133489993408
 20
-1.631132798992916
 30
0.0000000000000004
 11
-0.8725008549107235
 21
-0.4886125849587346
 31
0.0
210
-2.712344709714013E-17
220
4.843352690635091E-17
230
1.0
 40
0.6783794244998316
 41
0.0
 42
6.283185307179586
  0
ELLIPSE
  5
C4
330
1F
100
AcDbEntity
  8
Hidden
370
    -3
100
AcDbEllipse
 10
8.268639581841118
 20
17.26154288897187
 30
-0.0000000000000009
 11
0.8725008549107235
 21
0.4886125849587346
 31
0.0
210
2.712344709714013E-17
220
-4.843352690635091E-17
230
-1.0
 40
0.6783794244998316
 41
0.0
 42
6.283185307179586
  0
ELLIPSE
  5
C5
330
1F
100
AcDbEntity
  8
Hidden
370
    -3
100
AcDbEllipse
 10
12.21752306590445
 20
10.21013995370143
 30
0.0000000000000007
 11
-0.8725008549107235
 21
-0.4886125849587346
 31
0.0
210
-2.712344709714013E-17
220
4.843352690635091E-17
230
1.0
 40
0.6783794244998316
 41
0.0
 42
6.283185307179586
  0
ELLIPSE
  5
C6
330
1F
100
AcDbEntity
  8
Hidden
370
    -3
100
AcDbEllipse
 10
2.692420557315905
 20
-4.807774728593487
 30
-0.0000000000000004
 11
-23.0517868510736
 21
-12.90932048699636
 31
0.0
210
-2.712344709714013E-17
220
4.843352690635091E-17
230
1.0
 40
0.6783794244998315
 41
2.768351147153394
 42
6.656496590099557
  0
ELLIPSE
  5
C7
330
1F
100
AcDbEntity
  8
Hidden
370
    -3
100
AcDbEllipse
 10
-6.916400023355119
 20
12.35040831744343
 30
-0.0000000000000009
 11
-32.2743659851513
 21
-18.07409276810694
 31
0.0
210
-2.712344709714013E-17
220
4.843352690635091E-17
230
1.0
 40
0.6783794244998316
 41
2.768350341045145
 42
6.656425546963104
  0
ELLIPSE
  5
C8
330
1F
100
AcDbEntity
  8
Hidden
370
    -3
100
AcDbEllipse
 10
-10.78156543533596
 20
-12.77428647561797
 30
0.0000000000000013
 11
0.8725008549107235
 21
0.4886125849587346
 31
0.0
210
2.712344709714013E-17
220
-4.843352690635091E-17
230
-1.0
 40
0.6783794244998316
 41
0.0
 42
6.283185307179586
  0
ELLIPSE
  5
C9
330
1F
100
AcDbEntity
  8
Hidden
370
    -3
100
AcDbEllipse
 10
-6.832681951272636
 20
-19.8256894108884
 30
0.0000000000000009
 11
-0.8725008549107235
 21
-0.4886125849587346
 31
0.0
210
-2.712344709714013E-17
220
4.843352690635091E-17
230
1.0
 40
0.6783794244998316
 41
0.0
 42
6.283185307179586
  0
ELLIPSE
  5
CA
330
1F
100
AcDbEntity
  8
Hidden
370
    -3
100
AcDbEllipse
 10
14.79729253050257
 20
-0.9330137229236236
 30
0.0000000000000009
 11
0.872500854910724
 21
0.4886125849587349
 31
0.0
210
2.712344709714013E-17
220
-4.843352690635091E-17
230
-1.0
 40
0.6783794244998316
 41
2.590953584988557
 42
6.162291519402434
  0
ELLIPSE
  5
CB
330
1F
100
AcDbEntity
  8
Hidden
370
    -3
100
AcDbEllipse
 10
18.7461760145659
 20
-7.984416658194053
 30
0.0
 11
-0.872500854910724
 21
-0.4886125849587349
 31
0.0
210
-2.712344709714013E-17
220
4.843352690635091E-17
230
1.0
 40
0.6783794244998316
 41
0.0
 42
6.283185307179586
  0
SPLINE
  5
CC
330
1F
100
AcDbEntity
  8
Hidden
370
    -3
100
AcDbSpline
210
0.0
220
0.0
230
1.0
 70
     8
 71
     3
 72
    20
 73
    16
 74
     0
 42
0.000000001
 43
0.00000001
 40
-1.0
 40
-1.0
 40
-1.0
 40
-1.0
 40
-0.9138632627114973
 40
-0.9138632627114973
 40
-0.9138632627114973
 40
-0.8277265254229946
 40
-0.8277265254229946
 40
-0.8277265254229946
 40
-0.7453100992162592
 40
-0.7453100992162592
 40
-0.7453100992162592
 40
-0.660413465621679
 40
-0.660413465621679
 40
-0.660413465621679
 40
-0.6057356221647907
 40
-0.6057356221647907
 40
-0.6057356221647907
 40
-0.6057356221647907
 10
1.776620685354226
 20
67.1612946533503
 30
0.0
 10
-4.583664136141948
 20
68.41983802047518
 30
-0.0000000000000035
 10
-11.98037604272091
 20
68.02836545760194
 30
0.0
 10
-19.37580656714472
 20
66.0417979077544
 30
0.0
 10
-26.77123709156854
 20
64.05523035790686
 30
-0.0000000000000069
 10
-34.14452920475681
 20
60.47917045598515
 30
0.0000000000000069
 10
-40.46126007749697
 20
55.8153151298192
 30
0.0
 10
-46.5051665479419
 20
51.35289525616615
 30
-0.0000000000000069
 10
-51.56835896850695
 20
45.9078013015396
 30
0.0
 10
-54.99821985490519
 20
40.18187574459805
 30
0.0
 10
-58.53129762052588
 20
34.28363644484809
 30
0.0
 10
-60.32005480008822
 20
28.10208215965518
 30
0.0000000000000069
 10
-60.12042119978245
 20
22.48066619261509
 30
-0.0000000000000035
 10
-59.99184678777006
 20
18.86018220829498
 30
0.0
 10
-59.03977623830724
 20
15.47767141552493
 30
0.0000000000000069
 10
-57.34761703932359
 20
12.51529423546388
 30
0.0000000000000035
  0
SPLINE
  5
CD
330
1F
100
AcDbEntity
  8
Hidden
370
    -3
100
AcDbSpline
210
0.0
220
0.0
230
1.0
 70
     8
 71
     3
 72
    11
 73
     7
 74
     0
 42
0.000000001
 43
0.00000001
 40
-0.1082397774638677
 40
-0.1082397774638677
 40
-0.1082397774638677
 40
-0.1082397774638677
 40
-0.082404339471
 40
-0.082404339471
 40
-0.082404339471
 40
0.0
 40
0.0
 40
0.0
 40
0.0
 10
19.29370076620406
 20
55.43646407416689
 30
0.0
 10
18.51879813275603
 20
56.85049382693128
 30
-0.0000000000000069
 10
17.58163410874381
 20
58.17440605463012
 30
-0.0000000000000069
 10
16.48420558900925
 20
59.3856663504027
 30
-0.0000000000000035
 10
12.98386345003219
 20
63.2490846763526
 30
0.0
 10
7.861307499150894
 20
65.95728532901084
 30
-0.0000000000000035
 10
1.77662068535424
 20
67.1612946533503
 30
0.0
  0
ELLIPSE
  5
CE
330
1F
100
AcDbEntity
  8
Hidden
370
    -3
100
AcDbEllipse
 10
-19.14241108920235
 20
34.18203000602636
 30
0.0
 11
38.06031043814901
 21
21.31430194348493
 31
0.0
210
2.712344709714013E-17
220
-4.843352690635091E-17
230
-1.0
 40
0.6783794244998316
 41
0.0
 42
6.283185307179586
  0
SPLINE
  5
CF
330
1F
100
AcDbEntity
  8
Hidden
370
    -3
100
AcDbSpline
210
0.0
220
0.0
230
1.0
 70
     8
 71
     3
 72
     8
 73
     4
 74
     0
 42
0.000000001
 43
0.00000001
 40
0.2873454261878641
 40
0.2873454261878641
 40
0.2873454261878641
 40
0.2873454261878641
 40
0.2874333205661407
 40
0.2874333205661407
 40
0.2874333205661407
 40
0.2874333205661407
 10
-15.85054157591428
 20
-15.97979183027476
 30
0.0000000000000009
 10
-15.83458784958952
 20
-15.98937636227861
 30
0.0000000000000026
 10
-15.81863180759825
 20
-15.99894431980615
 30
-0.0000000000000004
 10
-15.80267348223721
 20
-16.00849569667422
 30
0.0000000000000009
  0
SPLINE
  5
D0
330
1F
100
AcDbEntity
  8
Hidden
370
    -3
100
AcDbSpline
210
0.0
220
0.0
230
1.0
 70
     8
 71
     3
 72
     8
 73
     4
 74
     0
 42
0.000000001
 43
0.00000001
 40
0.0
 40
0.0
 40
0.0
 40
0.0
 40
0.0010432773411388
 40
0.0010432773411388
 40
0.0010432773411388
 40
0.0010432773411388
 10
15.69640727791629
 20
34.94030271182943
 30
0.0
 10
15.54135264753252
 20
35.10734864682866
 30
-0.0000000000000069
 10
15.38549794090871
 20
35.27677959918523
 30
0.0
 10
15.2294936574219
 20
35.44817062746329
 30
-0.0000000000000069
  0
SPLINE
  5
D1
330
1F
100
AcDbEntity
  8
Hidden
370
    -3
100
AcDbSpline
210
0.0
220
0.0
230
1.0
 70
     8
 71
     3
 72
     8
 73
     4
 74
     0
 42
0.000000001
 43
0.00000001
 40
0.1190982952730807
 40
0.1190982952730807
 40
0.1190982952730807
 40
0.1190982952730807
 40
0.1203898747508228
 40
0.1203898747508228
 40
0.1203898747508228
 40
0.1203898747508228
 10
15.53422108328829
 20
36.14487591038639
 30
0.0000000000000017
 10
15.59043938549593
 20
35.74322918276868
 30
0.0
 10
15.64450569343983
 20
35.34164524649109
 30
0.0000000000000017
 10
15.69640727790984
 20
34.9403027118327
 30
-0.0000000000000035
  0
SPLINE
  5
D2
330
1F
100
AcDbEntity
  8
Hidden
370
    -3
100
AcDbSpline
210
0.0
220
0.0
230
1.0
 70
     8
 71
     3
 72
     8
 73
     4
 74
     0
 42
0.000000001
 43
0.00000001
 40
0.0071733072492744
 40
0.0071733072492744
 40
0.0071733072492744
 40
0.0071733072492744
 40
0.0079485573344139
 40
0.0079485573344139
 40
0.0079485573344139
 40
0.0079485573344139
 10
15.09252253973863
 20
35.14786874905963
 30
0.0
 10
15.29739195408794
 20
35.0774652038156
 30
-0.0000000000000035
 10
15.4987503244699
 20
35.00816228453859
 30
-0.0000000000000052
 10
15.69640727789179
 20
34.94030271184174
 30
-0.0000000000000052
  0
SPLINE
  5
D3
330
1F
100
AcDbEntity
  8
Hidden
370
    -3
100
AcDbSpline
210
0.0
220
0.0
230
1.0
 70
     8
 71
     3
 72
    14
 73
    10
 74
     0
 42
0.000000001
 43
0.00000001
 40
0.2060245084280717
 40
0.2060245084280717
 40
0.2060245084280717
 40
0.2060245084280717
 40
0.2132379193700306
 40
0.2132379193700306
 40
0.2132379193700306
 40
0.2215358099386376
 40
0.2215358099386376
 40
0.2215358099386376
 40
0.2244017374139566
 40
0.2244017374139566
 40
0.2244017374139566
 40
0.2244017374139566
 10
-13.56574951087336
 20
-12.44435692778562
 30
0.0000000000000013
 10
-14.95651408496292
 20
-11.82046754178749
 30
0.0000000000000024
 10
-16.308291552219
 20
-11.08940320288068
 30
0.0000000000000017
 10
-17.6089435108612
 20
-10.26698316449469
 30
-0.0000000000000004
 10
-19.10513826632925
 20
-9.320918738711322
 30
0.0000000000000021
 10
-20.57872295409521
 20
-8.224862954722497
 30
0.0000000000000007
 10
-22.00331571765243
 20
-6.991178209606391
 30
0.0000000000000009
 10
-22.49534191496883
 20
-6.56508787041989
 30
0.0000000000000022
 10
-22.98085108175749
 20
-6.123333301025872
 30
-0.0000000000000009
 10
-23.4596436278299
 20
-5.666192213623369
 30
0.0
  0
LINE
  5
D4
330
1F
100
AcDbEntity
  8
Hidden
370
    -3
100
AcDbLine
 10
-12.01546974468627
 20
-13.13721038409654
 30
0.0000000000000004
 11
-8.860892773331067
 21
10.71283267214609
 31
0.0000000000000004
  0
LINE
  5
D5
330
1F
100
AcDbEntity
  8
Hidden
370
    -3
100
AcDbLine
 10
-8.860892773331067
 20
10.71283267214609
 30
0.0
 11
-9.23075260417046
 21
11.37328029166813
 31
-0.000000000000001
  0
LINE
  5
D6
330
1F
100
AcDbEntity
  8
Hidden
370
    -3
100
AcDbLine
 10
-23.4596436278299
 20
-5.666192213623373
 30
-0.0000000000000017
 11
-14.0363686123867
 21
9.191174421761817
 31
0.0000000000000007
  0
LINE
  5
D7
330
1F
100
AcDbEntity
  8
Hidden
370
    -3
100
AcDbLine
 10
-34.59796934390636
 20
5.260445520557544
 30
0.0000000000000035
 11
-39.51339908507988
 21
-2.489550284022809
 31
0.0000000000000037
  0
LINE
  5
D8
330
1F
100
AcDbEntity
  8
Hidden
370
    -3
100
AcDbLine
 10
-26.88897251565317
 20
17.41496633000803
 30
0.0000000000000017
 11
-24.91464823058106
 21
13.88947460174667
 31
0.0000000000000011
  0
LINE
  5
D9
330
1F
100
AcDbEntity
  8
Hidden
370
    -3
100
AcDbLine
 10
-24.91464823058106
 20
13.88947460174666
 30
0.0000000000000017
 11
-28.06922520193626
 21
-9.960568454495954
 31
0.0000000000000004
  0
SPLINE
  5
DA
330
1F
100
AcDbEntity
  8
Hidden
370
    -3
100
AcDbSpline
210
0.0
220
0.0
230
1.0
 70
    12
 71
     2
 72
     6
 73
     3
 74
     0
 42
0.000000001
 43
0.00000001
 40
0.0079444262218046
 40
0.0079444262218046
 40
0.0079444262218046
 40
0.0111321094089751
 40
0.0111321094089751
 40
0.0111321094089751
 10
-28.069225203969
 20
-9.96056845448733
 30
0.0000000000000004
 41
1.007831619851492
 10
-28.82839141252188
 20
-9.622604214990186
 30
0.0
 41
1.008882302068796
 10
-29.61950496812336
 20
-9.267714998185046
 30
0.000000000000003
 41
1.009515263123953
  0
LINE
  5
DB
330
1F
100
AcDbEntity
  8
Hidden
370
    -3
100
AcDbLine
 10
-8.86089277333107
 20
10.7128326721461
 30
0.0000000000000009
 11
-24.91464823058105
 21
13.88947460174667
 31
0.0000000000000027
  0
LINE
  5
DC
330
1F
100
AcDbEntity
  8
Hidden
370
    -3
100
AcDbLine
 10
19.85545404915928
 20
25.32965197742413
 30
-0.0000000000000009
 11
10.24435474874179
 21
27.23145128591384
 31
-0.0000000000000014
  0
LINE
  5
DD
330
1F
100
AcDbEntity
  8
Hidden
370
    -3
100
AcDbLine
 10
16.03591395996472
 20
32.15009028739821
 30
0.0000000000000035
 11
19.85545404915927
 21
25.32965197742413
 31
0.0
  0
LINE
  5
DE
330
1F
100
AcDbEntity
  8
Hidden
370
    -3
100
AcDbLine
 10
17.29963948960616
 20
21.29998353401086
 30
-0.0000000000000017
 11
19.85545404915928
 21
25.32965197742413
 31
-0.0000000000000008
  0
SPLINE
  5
DF
330
1F
100
AcDbEntity
  8
Hidden
370
    -3
100
AcDbSpline
210
0.0
220
0.0
230
1.0
 70
     8
 71
     3
 72
    10
 73
     6
 74
     0
 42
0.000000001
 43
0.00000001
 40
0.1922709137294798
 40
0.1922709137294798
 40
0.1922709137294798
 40
0.1922709137294798
 40
0.193146690207511
 40
0.193146690207511
 40
0.1940604279449184
 40
0.1940604279449184
 40
0.1940604279449184
 40
0.1940604279449184
 10
23.33345509664908
 20
19.01012947470831
 30
-0.0000000000000004
 10
23.35169437782172
 20
19.15593454765393
 30
0.0000000000000009
 10
23.36832868189595
 20
19.30125755757278
 30
-0.0000000000000004
 10
23.39917901225726
 20
19.59683264458296
 30
-0.0000000000000035
 10
23.41347771863999
 20
19.74912447866995
 30
-0.0000000000000009
 10
23.42629531931206
 20
19.90275679472604
 30
-0.0000000000000004
  0
SPLINE
  5
E0
330
1F
100
AcDbEntity
  8
Hidden
370
    -3
100
AcDbSpline
210
0.0
220
0.0
230
1.0
 70
     8
 71
     3
 72
     8
 73
     4
 74
     0
 42
0.000000001
 43
0.00000001
 40
0.1940604279449184
 40
0.1940604279449184
 40
0.1940604279449184
 40
0.1940604279449184
 40
0.195371897144842
 40
0.195371897144842
 40
0.195371897144842
 40
0.195371897144842
 10
23.42629531931206
 20
19.90275679472604
 30
-0.0000000000000004
 10
23.44468954218991
 20
20.12326341983649
 30
-0.0000000000000048
 10
23.46003150630884
 20
20.34653203428854
 30
-0.0000000000000017
 10
23.47223585302075
 20
20.57247966949597
 30
-0.0000000000000039
  0
ELLIPSE
  5
E1
330
1F
100
AcDbEntity
  8
Hidden
370
    -3
100
AcDbEllipse
 10
-7.89776696812666
 20
14.10280587054085
 30
0.0
 11
29.40615290450948
 21
16.4678536456384
 31
0.0
210
2.712344709714013E-17
220
-4.843352690635091E-17
230
-1.0
 40
0.6783794244998316
 41
0.4373169467641937
 42
1.359800260226745
  0
SPLINE
  5
E2
330
1F
100
AcDbEntity
  8
Hidden
370
    -3
100
AcDbSpline
210
0.0
220
0.0
230
1.0
 70
     8
 71
     3
 72
    10
 73
     6
 74
     0
 42
0.000000001
 43
0.00000001
 40
0.1143030366948797
 40
0.1143030366948797
 40
0.1143030366948797
 40
0.1143030366948797
 40
0.1165282436321662
 40
0.1165282436321662
 40
0.1174040201101974
 40
0.1174040201101974
 40
0.1174040201101974
 40
0.1174040201101974
 10
9.18458209013785
 20
-1.954392353946377
 30
0.0000000000000004
 10
9.163874629398425
 20
-2.337764106295694
 30
-0.000000000000003
 10
9.134134322678127
 20
-2.713423260629547
 30
0.000000000000003
 10
9.080674919013045
 20
-3.225614465869566
 30
-0.0000000000000009
 10
9.064040614938822
 20
-3.370937475788411
 30
-0.0000000000000013
 10
9.04580133376619
 20
-3.516742548734038
 30
0.0000000000000009
  0
LINE
  5
E3
330
1F
100
AcDbEntity
  8
Hidden
370
    -3
100
AcDbLine
 10
23.47223585302075
 20
20.57247966949598
 30
0.0000000000000013
 11
27.29034024407608
 21
19.81697105766265
 31
0.0000000000000009
  0
LINE
  5
E4
330
1F
100
AcDbEntity
  8
Hidden
370
    -3
100
AcDbLine
 10
9.184582090137846
 20
-1.95439235394638
 30
0.0
 11
13.00268648119319
 21
-2.709900965779708
 31
-0.0000000000000006
  0
LINE
  5
E5
330
1F
100
AcDbEntity
  8
Hidden
370
    -3
100
AcDbLine
 10
7.710844831666597
 20
-11.92280291446786
 30
-0.0000000000000009
 11
13.16156741459316
 21
-13.00136636646849
 31
-0.0000000000000012
  0
LINE
  5
E6
330
1F
100
AcDbEntity
  8
Hidden
370
    -3
100
AcDbLine
 10
21.99849859454949
 20
10.60406910897451
 30
-0.0000000000000017
 11
23.89754557208641
 21
10.22829458872661
 31
-0.0000000000000024
  0
LINE
  5
E7
330
1F
100
AcDbEntity
  8
Hidden
370
    -3
100
AcDbLine
 10
21.98406606195528
 20
6.762262646229257
 30
-0.0000000000000004
 11
22.02461441224136
 21
7.125563716361669
 31
-0.0000000000000009
  0
LINE
  5
E8
330
1F
100
AcDbEntity
  8
Hidden
370
    -3
100
AcDbLine
 10
-25.5702375183465
 20
-11.30889026117121
 30
-0.0000000000000015
 11
-17.25272117804014
 21
-15.21088299514138
 31
-0.0000000000000005
  0
SPLINE
  5
E9
330
1F
100
AcDbEntity
  8
Hidden
370
    -3
100
AcDbSpline
210
0.0
220
0.0
230
1.0
 70
     8
 71
     3
 72
    10
 73
     6
 74
     0
 42
0.000000001
 43
0.00000001
 40
0.0061553317637397
 40
0.0061553317637397
 40
0.0061553317637397
 40
0.0061553317637397
 40
0.0191912958903985
 40
0.0191912958903985
 40
0.0379472952025123
 40
0.0379472952025123
 40
0.0379472952025123
 40
0.0379472952025123
 10
-32.63429017165491
 20
-7.715266744261449
 30
0.0000000000000017
 10
-36.11915548057946
 20
-5.682596209501309
 30
0.0
 10
-39.51194005475566
 20
-3.263237151270598
 30
0.0000000000000017
 10
-47.36404895347084
 20
3.569550134979857
 30
0.0000000000000069
 10
-51.4639971878487
 20
8.240846871964646
 30
0.0000000000000069
 10
-54.90264626165709
 20
13.40020453072245
 30
0.0000000000000069
  0
SPLINE
  5
EA
330
1F
100
AcDbEntity
  8
Hidden
370
    -3
100
AcDbSpline
210
0.0
220
0.0
230
1.0
 70
     8
 71
     3
 72
    10
 73
     6
 74
     0
 42
0.000000001
 43
0.00000001
 40
0.0000010310816162
 40
0.0000010310816162
 40
0.0000010310816162
 40
0.0000010310816162
 40
0.0197233437229801
 40
0.0197233437229801
 40
0.0382220327405658
 40
0.0382220327405658
 40
0.0382220327405658
 40
0.0382220327405658
 10
17.26195439484474
 20
53.81369452067008
 30
0.0
 10
19.8418420598565
 20
48.23442727099754
 30
-0.0000000000000035
 10
21.67323981103314
 20
42.35136924779588
 30
0.0000000000000035
 10
23.65356985235923
 20
30.71881109921982
 30
-0.0000000000000017
 10
23.86660613207471
 20
25.17985549111722
 30
-0.0000000000000035
 10
23.42628373376615
 20
19.9026179244631
 30
-0.0000000000000017
  0
LINE
  5
EB
330
1F
100
AcDbEntity
  8
Hidden
370
    -3
100
AcDbLine
 10
17.26154918634466
 20
53.81457080910612
 30
-0.0000000000000035
 11
16.16206302546876
 21
56.19223484719341
 31
-0.0000000000000039
  0
LINE
  5
EC
330
1F
100
AcDbEntity
  8
Hidden
370
    -3
100
AcDbLine
 10
-56.35610190292146
 20
15.58105623322485
 30
0.0000000000000035
 11
-54.90333325527752
 21
13.40123531736333
 31
0.0000000000000058
  0
LINE
  5
ED
330
1F
100
AcDbEntity
  8
Hidden
370
    -3
100
AcDbLine
 10
-20.84332218160925
 20
11.35806219492471
 30
0.0
 11
-23.08700517696866
 21
15.36453970259076
 31
0.0000000000000005
  0
LINE
  5
EE
330
1F
100
AcDbEntity
  8
Hidden
370
    -3
100
AcDbLine
 10
-24.9024599741797
 20
14.34785982617758
 30
0.0000000000000035
 11
-22.65877697882031
 21
10.34138231851154
 31
0.0000000000000027
  0
LINE
  5
EF
330
1F
100
AcDbEntity
  8
Hidden
370
    -3
100
AcDbLine
 10
-12.81644445298426
 20
9.769741230124438
 30
0.0
 11
-15.06012744834366
 21
13.77621873779047
 31
0.000000000000001
  0
LINE
  5
F0
330
1F
100
AcDbEntity
  8
Hidden
370
    -3
100
AcDbLine
 10
-16.87558224555471
 20
12.7595388613773
 30
0.0000000000000017
 11
-14.63189925019531
 21
8.753061353711256
 31
0.0000000000000005
  0
LINE
  5
F1
330
1F
100
AcDbEntity
  8
Hidden
370
    -3
100
AcDbLine
 10
1.368749047791806
 20
46.41491481199285
 30
0.0
 11
-0.8749339475675912
 21
50.42139231965888
 31
-0.0000000000000076
  0
LINE
  5
F2
330
1F
100
AcDbEntity
  8
Hidden
370
    -3
100
AcDbLine
 10
-2.619935657389038
 20
49.44416714974142
 30
0.0
 11
-0.3762526620296404
 21
45.43768964207538
 31
0.0000000000000008
  0
LINE
  5
F3
330
1F
100
AcDbEntity
  8
Hidden
370
    -3
100
AcDbLine
 10
9.395626776416806
 20
44.82659384719256
 30
0.0
 11
7.151943781057406
 21
48.8330713548586
 31
-0.0000000000000005
  0
LINE
  5
F4
330
1F
100
AcDbEntity
  8
Hidden
370
    -3
100
AcDbLine
 10
5.406942071235956
 20
47.85584618494114
 30
0.0
 11
7.650625066595357
 21
43.84936867727509
 31
-0.0000000000000036
  0
LINE
  5
F5
330
1F
100
AcDbEntity
  8
Hidden
370
    -3
100
AcDbLine
 10
-18.18271927769099
 20
4.931657620572162
 30
0.0
 11
-14.2338358150251
 21
-2.119745276489508
 31
-0.0000000000000013
  0
LINE
  5
F6
330
1F
100
AcDbEntity
  8
Hidden
370
    -3
100
AcDbLine
 10
-12.48883410520365
 20
-1.142520106572039
 30
0.0000000000000004
 11
-16.43771756786954
 21
5.908882790489631
 31
0.0000000000000004
  0
LINE
  5
F7
330
1F
100
AcDbEntity
  8
Hidden
370
    -3
100
AcDbLine
 10
7.396138688147542
 20
16.77293037326651
 30
-0.0000000000000009
 11
11.34502215081344
 21
9.721527476204837
 31
-0.0000000000000018
  0
LINE
  5
F8
330
1F
100
AcDbEntity
  8
Hidden
370
    -3
100
AcDbLine
 10
13.09002386063488
 20
10.6987526461223
 30
-0.0000000000000002
 11
9.141140397968986
 21
17.75015554318397
 31
0.0000000000000011
  0
LINE
  5
F9
330
1F
100
AcDbEntity
  8
Hidden
370
    -3
100
AcDbLine
 10
-11.65406632902954
 20
-13.26289899132332
 30
0.0000000000000009
 11
-7.705182866363645
 21
-20.31430188838499
 31
0.0000000000000018
  0
LINE
  5
FA
330
1F
100
AcDbEntity
  8
Hidden
370
    -3
100
AcDbLine
 10
-5.960181156542196
 20
-19.33707671846752
 30
-0.0000000000000009
 11
-9.909064619208094
 21
-12.28567382140585
 31
-0.0000000000000022
  0
LINE
  5
FB
330
1F
100
AcDbEntity
  8
Hidden
370
    -3
100
AcDbLine
 10
13.92479163680899
 20
-1.421626238628981
 30
0.0
 11
17.87367509947488
 21
-8.473029135690652
 31
-0.0000000000000031
  0
LINE
  5
FC
330
1F
100
AcDbEntity
  8
Hidden
370
    -3
100
AcDbLine
 10
19.61867680929634
 20
-7.495803965773177
 30
-0.0000000000000017
 11
15.66979334663044
 21
-0.4444010687115092
 31
-0.0000000000000013
  0
SPLINE
  5
FD
330
1F
100
AcDbEntity
  8
Hidden
370
    -3
100
AcDbSpline
210
0.0
220
0.0
230
1.0
 70
     8
 71
     3
 72
     8
 73
     4
 74
     0
 42
0.000000001
 43
0.00000001
 40
0.0000007673262312
 40
0.0000007673262312
 40
0.0000007673262312
 40
0.0000007673262312
 40
0.0042698038098484
 40
0.0042698038098484
 40
0.0042698038098484
 40
0.0042698038098484
 10
-57.08754669983712
 20
12.66483827445025
 30
0.0000000000000035
 10
-56.41953118892878
 20
11.50377081599035
 30
0.0000000000000035
 10
-55.71943935641196
 20
10.36263466696295
 30
0.0000000000000035
 10
-54.98840636759322
 20
9.242989750363527
 30
-0.0000000000000035
  0
SPLINE
  5
FE
330
1F
100
AcDbEntity
  8
Hidden
370
    -3
100
AcDbSpline
210
0.0
220
0.0
230
1.0
 70
     8
 71
     3
 72
     8
 73
     4
 74
     0
 42
0.000000001
 43
0.00000001
 40
0.032968024945723
 40
0.032968024945723
 40
0.032968024945723
 40
0.032968024945723
 40
0.0370155411596766
 40
0.0370155411596766
 40
0.0370155411596766
 40
0.0370155411596766
 10
20.82993846464002
 20
51.7596972469839
 30
-0.0000000000000035
 10
20.26348477824923
 20
52.95274771775045
 30
0.0
 10
19.66338988822252
 20
54.13100578774011
 30
0.0000000000000035
 10
19.03036299660375
 20
55.29275166553635
 30
-0.0000000000000035
  0
ENDSEC
  0
SECTION
  2
OBJECTS
  0
DICTIONARY
  5
C
330
0
100
AcDbDictionary
281
     1
  3
ACAD_DETAILVIEWSTYLE
350
103
  3
ACAD_GROUP
350
D
  3
ACAD_LAYOUT
350
1A
  3
ACAD_MATERIAL
350
43
  3
ACAD_MLEADERSTYLE
350
102
  3
ACAD_MLINESTYLE
350
17
  3
ACAD_PLOTSETTINGS
350
19
  3
ACAD_PLOTSTYLENAME
350
E
  3
ACAD_SCALELIST
350
47
  3
ACAD_SECTIONVIEWSTYLE
350
104
  3
ACAD_TABLESTYLE
350
101
  3
ACAD_VISUALSTYLE
350
2A
  3
AcDbVariableDictionary
350
FF
  0
SUN
  5
69
330
29
100
AcDbSun
 90
        1
290
     0
 63
     7
421
 16777215
 40
1.0
291
     1
 91
  2455826
 92
 54000000
292
     0
 70
     2
 71
   256
280
     1
  0
DICTIONARY
  5
103
102
{ACAD_REACTORS
330
C
102
}
330
C
100
AcDbDictionary
281
     1
  0
DICTIONARY
  5
D
102
{ACAD_REACTORS
330
C
102
}
330
C
100
AcDbDictionary
281
     1
  0
DICTIONARY
  5
1A
102
{ACAD_REACTORS
330
C
102
}
330
C
100
AcDbDictionary
281
     1
  3
Layout1
350
1E
  3
Layout2
350
26
  3
Model
350
22
  0
DICTIONARY
  5
43
102
{ACAD_REACTORS
330
C
102
}
330
C
100
AcDbDictionary
281
     1
  3
ByBlock
350
45
  3
ByLayer
350
44
  3
Global
350
46
  0
DICTIONARY
  5
102
102
{ACAD_REACTORS
330
C
102
}
330
C
100
AcDbDictionary
281
     1
  0
DICTIONARY
  5
17
102
{ACAD_REACTORS
330
C
102
}
330
C
100
AcDbDictionary
281
     1
  3
Standard
350
18
  0
DICTIONARY
  5
19
102
{ACAD_REACTORS
330
C
102
}
330
C
100
AcDbDictionary
281
     1
  0
ACDBDICTIONARYWDFLT
  5
E
102
{ACAD_REACTORS
330
C
102
}
330
C
100
AcDbDictionary
281
     1
  3
Normal
350
F
100
AcDbDictionaryWithDefault
340
F
  0
DICTIONARY
  5
47
102
{ACAD_REACTORS
330
C
102
}
330
C
100
AcDbDictionary
281
     1
  3
A0
350
48
  3
A1
350
49
  3
A2
350
4A
  3
A3
350
4B
  3
A4
350
4C
  3
A5
350
4D
  3
A6
350
4E
  3
A7
350
4F
  3
A8
350
50
  3
A9
350
51
  3
B0
350
52
  3
B1
350
53
  3
B2
350
54
  3
B3
350
55
  3
B4
350
56
  3
B5
350
57
  3
B6
350
58
  3
B7
350
59
  3
B8
350
5A
  3
B9
350
5B
  3
C0
350
5C
  3
C1
350
5D
  3
C2
350
5E
  3
C3
350
5F
  3
C4
350
60
  3
C5
350
61
  3
C6
350
62
  3
C7
350
63
  3
C8
350
64
  3
C9
350
65
  3
D0
350
66
  3
D1
350
67
  3
D2
350
68
  0
DICTIONARY
  5
104
102
{ACAD_REACTORS
330
C
102
}
330
C
100
AcDbDictionary
281
     1
  0
DICTIONARY
  5
101
102
{ACAD_REACTORS
330
C
102
}
330
C
100
AcDbDictionary
281
     1
  0
DICTIONARY
  5
2A
102
{ACAD_REACTORS
330
C
102
}
330
C
100
AcDbDictionary
281
     1
  3
2dWireframe
350
2F
  3
Basic
350
32
  3
Brighten
350
36
  3
ColorChange
350
3A
  3
Conceptual
350
34
  3
Dim
350
35
  3
EdgeColorOff
350
3D
  3
Facepattern
350
39
  3
Flat
350
2B
  3
FlatWithEdges
350
2C
  3
Gouraud
350
2D
  3
GouraudWithEdges
350
2E
  3
Hidden
350
31
  3
JitterOff
350
3B
  3
Linepattern
350
38
  3
OverhangOff
350
3C
  3
Realistic
350
33
  3
Shaded
350
42
  3
Shaded with edges
350
41
  3
Shades of Gray
350
3E
  3
Sketchy
350
3F
  3
Thicken
350
37
  3
Wireframe
350
30
  3
X-Ray
350
40
  0
DICTIONARY
  5
FF
102
{ACAD_REACTORS
330
C
102
}
330
C
100
AcDbDictionary
281
     1
  3
CANNOSCALE
350
100
  0
LAYOUT
  5
1E
102
{ACAD_REACTORS
330
1A
102
}
330
1A
100
AcDbPlotSettings
  1

  2
none_device
  4

  6

 40
0.0
 41
0.0
 42
0.0
 43
0.0
 44
0.0
 45
0.0
 46
0.0
 47
0.0
 48
0.0
 49
0.0
140
0.0
141
0.0
142
1.0
143
1.0
 70
   688
 72
     1
 73
     0
 74
     5
  7

 75
    16
 76
     0
 77
     2
 78
   300
147
1.0
148
0.0
149
0.0
100
AcDbLayout
  1
Layout1
 70
     1
 71
     1
 10
0.0
 20
0.0
 11
420.0
 21
297.0
 12
0.0
 22
0.0
 32
0.0
 14
1.000000000000000E+20
 24
1.000000000000000E+20
 34
1.000000000000000E+20
 15
-1.000000000000000E+20
 25
-1.000000000000000E+20
 35
-1.000000000000000E+20
146
0.0
 13
0.0
 23
0.0
 33
0.0
 16
1.0
 26
0.0
 36
0.0
 17
0.0
 27
1.0
 37
0.0
 76
     0
330
1B
  0
LAYOUT
  5
26
102
{ACAD_REACTORS
330
1A
102
}
330
1A
100
AcDbPlotSettings
  1

  2
none_device
  4

  6

 40
0.0
 41
0.0
 42
0.0
 43
0.0
 44
0.0
 45
0.0
 46
0.0
 47
0.0
 48
0.0
 49
0.0
140
0.0
141
0.0
142
1.0
143
1.0
 70
   688
 72
     1
 73
     0
 74
     5
  7

 75
    16
 76
     0
 77
     2
 78
   300
147
1.0
148
0.0
149
0.0
100
AcDbLayout
  1
Layout2
 70
     1
 71
     2
 10
0.0
 20
0.0
 11
0.0
 21
0.0
 12
0.0
 22
0.0
 32
0.0
 14
0.0
 24
0.0
 34
0.0
 15
0.0
 25
0.0
 35
0.0
146
0.0
 13
0.0
 23
0.0
 33
0.0
 16
1.0
 26
0.0
 36
0.0
 17
0.0
 27
1.0
 37
0.0
 76
     0
330
23
  0
LAYOUT
  5
22
102
{ACAD_REACTORS
330
1A
102
}
330
1A
100
AcDbPlotSettings
  1

  2
none_device
  4
Letter_(8.50_x_11.00_Inches)
  6

 40
6.35
 41
6.35
 42
6.35000508
 43
6.35000508
 44
215.9
 45
279.4
 46
0.0
 47
0.0
 48
0.0
 49
0.0
140
0.0
141
0.0
142
1.0
143
1.0
 70
  1712
 72
     1
 73
     0
 74
     0
  7

 75
     0
 76
     0
 77
     2
 78
   300
147
1.0
148
0.0
149
0.0
100
AcDbLayout
  1
Model
 70
     1
 71
     0
 10
0.0
 20
0.0
 11
420.0
 21
297.0
 12
0.0
 22
0.0
 32
0.0
 14
-69.29742488899379
 24
-25.08567292010721
 34
-20.27549829213276
 15
36.99948162844579
 25
79.61328446338104
 35
54.62070295786075
146
0.0
 13
0.0
 23
0.0
 33
0.0
 16
1.0
 26
0.0
 36
0.0
 17
0.0
 27
1.0
 37
0.0
 76
     0
330
1F
331
29
  0
MATERIAL
  5
45
102
{ACAD_REACTORS
330
43
102
}
330
43
100
AcDbMaterial
  1
ByBlock
 72
     1
 94
      127
  0
MATERIAL
  5
44
102
{ACAD_REACTORS
330
43
102
}
330
43
100
AcDbMaterial
  1
ByLayer
 72
     1
 94
      127
  0
MATERIAL
  5
46
102
{ACAD_REACTORS
330
43
102
}
330
43
100
AcDbMaterial
  1
Global
 72
     1
 94
      127
  0
MLINESTYLE
  5
18
102
{ACAD_REACTORS
330
17
102
}
330
17
100
AcDbMlineStyle
  2
Standard
 70
     0
  3

 62
   256
 51
90.0
 52
90.0
 71
     2
 49
0.5
 62
   256
  6
BYLAYER
 49
-0.5
 62
   256
  6
BYLAYER
  0
ACDBPLACEHOLDER
  5
F
102
{ACAD_REACTORS
330
E
102
}
330
E
  0
SCALE
  5
48
102
{ACAD_REACTORS
330
47
102
}
330
47
100
AcDbScale
 70
     0
300
1:1
140
1.0
141
1.0
290
     1
  0
SCALE
  5
49
102
{ACAD_REACTORS
330
47
102
}
330
47
100
AcDbScale
 70
     0
300
1:2
140
1.0
141
2.0
290
     0
  0
SCALE
  5
4A
102
{ACAD_REACTORS
330
47
102
}
330
47
100
AcDbScale
 70
     0
300
1:4
140
1.0
141
4.0
290
     0
  0
SCALE
  5
4B
102
{ACAD_REACTORS
330
47
102
}
330
47
100
AcDbScale
 70
     0
300
1:5
140
1.0
141
5.0
290
     0
  0
SCALE
  5
4C
102
{ACAD_REACTORS
330
47
102
}
330
47
100
AcDbScale
 70
     0
300
1:8
140
1.0
141
8.0
290
     0
  0
SCALE
  5
4D
102
{ACAD_REACTORS
330
47
102
}
330
47
100
AcDbScale
 70
     0
300
1:10
140
1.0
141
10.0
290
     0
  0
SCALE
  5
4E
102
{ACAD_REACTORS
330
47
102
}
330
47
100
AcDbScale
 70
     0
300
1:16
140
1.0
141
16.0
290
     0
  0
SCALE
  5
4F
102
{ACAD_REACTORS
330
47
102
}
330
47
100
AcDbScale
 70
     0
300
1:20
140
1.0
141
20.0
290
     0
  0
SCALE
  5
50
102
{ACAD_REACTORS
330
47
102
}
330
47
100
AcDbScale
 70
     0
300
1:30
140
1.0
141
30.0
290
     0
  0
SCALE
  5
51
102
{ACAD_REACTORS
330
47
102
}
330
47
100
AcDbScale
 70
     0
300
1:40
140
1.0
141
40.0
290
     0
  0
SCALE
  5
52
102
{ACAD_REACTORS
330
47
102
}
330
47
100
AcDbScale
 70
     0
300
1:50
140
1.0
141
50.0
290
     0
  0
SCALE
  5
53
102
{ACAD_REACTORS
330
47
102
}
330
47
100
AcDbScale
 70
     0
300
1:100
140
1.0
141
100.0
290
     0
  0
SCALE
  5
54
102
{ACAD_REACTORS
330
47
102
}
330
47
100
AcDbScale
 70
     0
300
2:1
140
2.0
141
1.0
290
     0
  0
SCALE
  5
55
102
{ACAD_REACTORS
330
47
102
}
330
47
100
AcDbScale
 70
     0
300
4:1
140
4.0
141
1.0
290
     0
  0
SCALE
  5
56
102
{ACAD_REACTORS
330
47
102
}
330
47
100
AcDbScale
 70
     0
300
8:1
140
8.0
141
1.0
290
     0
  0
SCALE
  5
57
102
{ACAD_REACTORS
330
47
102
}
330
47
100
AcDbScale
 70
     0
300
10:1
140
10.0
141
1.0
290
     0
  0
SCALE
  5
58
102
{ACAD_REACTORS
330
47
102
}
330
47
100
AcDbScale
 70
     0
300
100:1
140
100.0
141
1.0
290
     0
  0
SCALE
  5
59
102
{ACAD_REACTORS
330
47
102
}
330
47
100
AcDbScale
 70
     0
300
1/128" = 1'-0"
140
0.0078125
141
12.0
290
     0
  0
SCALE
  5
5A
102
{ACAD_REACTORS
330
47
102
}
330
47
100
AcDbScale
 70
     0
300
1/64" = 1'-0"
140
0.015625
141
12.0
290
     0
  0
SCALE
  5
5B
102
{ACAD_REACTORS
330
47
102
}
330
47
100
AcDbScale
 70
     0
300
1/32" = 1'-0"
140
0.03125
141
12.0
290
     0
  0
SCALE
  5
5C
102
{ACAD_REACTORS
330
47
102
}
330
47
100
AcDbScale
 70
     0
300
1/16" = 1'-0"
140
0.0625
141
12.0
290
     0
  0
SCALE
  5
5D
102
{ACAD_REACTORS
330
47
102
}
330
47
100
AcDbScale
 70
     0
300
3/32" = 1'-0"
140
0.09375
141
12.0
290
     0
  0
SCALE
  5
5E
102
{ACAD_REACTORS
330
47
102
}
330
47
100
AcDbScale
 70
     0
300
1/8" = 1'-0"
140
0.125
141
12.0
290
     0
  0
SCALE
  5
5F
102
{ACAD_REACTORS
330
47
102
}
330
47
100
AcDbScale
 70
     0
300
3/16" = 1'-0"
140
0.1875
141
12.0
290
     0
  0
SCALE
  5
60
102
{ACAD_REACTORS
330
47
102
}
330
47
100
AcDbScale
 70
     0
300
1/4" = 1'-0"
140
0.25
141
12.0
290
     0
  0
SCALE
  5
61
102
{ACAD_REACTORS
330
47
102
}
330
47
100
AcDbScale
 70
     0
300
3/8" = 1'-0"
140
0.375
141
12.0
290
     0
  0
SCALE
  5
62
102
{ACAD_REACTORS
330
47
102
}
330
47
100
AcDbScale
 70
     0
300
1/2" = 1'-0"
140
0.5
141
12.0
290
     0
  0
SCALE
  5
63
102
{ACAD_REACTORS
330
47
102
}
330
47
100
AcDbScale
 70
     0
300
3/4" = 1'-0"
140
0.75
141
12.0
290
     0
  0
SCALE
  5
64
102
{ACAD_REACTORS
330
47
102
}
330
47
100
AcDbScale
 70
     0
300
1" = 1'-0"
140
1.0
141
12.0
290
     0
  0
SCALE
  5
65
102
{ACAD_REACTORS
330
47
102
}
330
47
100
AcDbScale
 70
     0
300
1-1/2" = 1'-0"
140
1.5
141
12.0
290
     0
  0
SCALE
  5
66
102
{ACAD_REACTORS
330
47
102
}
330
47
100
AcDbScale
 70
     0
300
3" = 1'-0"
140
3.0
141
12.0
290
     0
  0
SCALE
  5
67
102
{ACAD_REACTORS
330
47
102
}
330
47
100
AcDbScale
 70
     0
300
6" = 1'-0"
140
6.0
141
12.0
290
     0
  0
SCALE
  5
68
102
{ACAD_REACTORS
330
47
102
}
330
47
100
AcDbScale
 70
     0
300
1'-0" = 1'-0"
140
12.0
141
12.0
290
     0
  0
VISUALSTYLE
  5
2F
102
{ACAD_REACTORS
330
2A
102
}
330
2A
100
AcDbVisualStyle
  2
2dWireframe
 70
     4
177
     3
291
     0
 70
    58
 90
        0
176
     1
 90
        2
176
     1
 90
        0
176
     1
 90
        0
176
     1
 40
0.6
176
     1
 40
30.0
176
     1
 62
     7
420
 16777215
176
     1
 90
        1
176
     1
 90
        4
176
     1
 62
     7
176
     1
 62
   257
176
     1
 90
        1
176
     1
 90
        1
176
     1
 40
1.0
176
     1
 90
        0
176
     1
 62
   257
176
     1
 40
1.0
176
     1
 90
        1
176
     1
 90
        6
176
     1
 90
        2
176
     1
 62
     7
176
     1
 90
        5
176
     1
 90
        0
176
     1
 90
        0
176
     1
290
     0
176
     1
 90
        1
176
     1
 40
0.0
176
     1
 90
        0
176
     1
290
     1
176
     1
290
     1
176
     1
290
     0
176
     1
290
     0
176
     1
290
     0
176
     1
290
     0
176
     1
290
     0
176
     1
290
     0
176
     1
290
     0
176
     1
 90
       50
176
     1
 40
0.0
176
     1
 40
1.0
176
     1
 90
        0
176
     1
 62
    18
420
        0
176
     1
 90
       50
176
     1
 90
        3
176
     1
 62
     5
420
      255
176
     1
290
     0
176
     1
 90
       50
176
     1
 90
       50
176
     1
 90
       50
176
     1
290
     0
176
     1
 90
       50
176
     1
 62
   256
176
     0
 40
1.0
176
     0
 90
        2
176
     1
  1
strokes_ogs.tif
176
     1
290
     0
176
     1
 40
1.0
176
     1
 40
1.0
176
     1
  0
VISUALSTYLE
  5
32
102
{ACAD_REACTORS
330
2A
102
}
330
2A
100
AcDbVisualStyle
  2
Basic
 70
     7
177
     3
291
     1
 70
    58
 90
        1
176
     1
 90
        0
176
     1
 90
        1
176
     1
 90
        0
176
     1
 40
0.6
176
     1
 40
30.0
176
     1
 62
     7
420
 16777215
176
     1
 90
        0
176
     1
 90
        4
176
     1
 62
     7
176
     1
 62
   257
176
     1
 90
        1
176
     1
 90
        1
176
     1
 40
1.0
176
     1
 90
        8
176
     1
 62
     7
176
     1
 40
1.0
176
     1
 90
        1
176
     1
 90
        6
176
     1
 90
        2
176
     1
 62
     7
176
     1
 90
        5
176
     1
 90
        0
176
     1
 90
        0
176
     1
290
     0
176
     1
 90
        1
176
     1
 40
0.0
176
     1
 90
        0
176
     1
290
     0
176
     1
290
     1
176
     1
290
     1
176
     1
290
     0
176
     1
290
     0
176
     1
290
     0
176
     1
290
     0
176
     1
290
     0
176
     1
290
     0
176
     1
 90
       50
176
     1
 40
0.0
176
     1
 40
1.0
176
     1
 90
        0
176
     1
 62
    18
420
        0
176
     1
 90
       50
176
     1
 90
        3
176
     1
 62
     5
420
      255
176
     1
290
     0
176
     1
 90
       50
176
     1
 90
       50
176
     1
 90
       50
176
     1
290
     0
176
     1
 90
       50
176
     1
 62
   256
176
     0
 40
1.0
176
     0
 90
        2
176
     1
  1
strokes_ogs.tif
176
     1
290
     0
176
     1
 40
1.0
176
     1
 40
1.0
176
     1
  0
VISUALSTYLE
  5
36
102
{ACAD_REACTORS
330
2A
102
}
330
2A
100
AcDbVisualStyle
  2
Brighten
 70
    12
177
     3
291
     1
 70
    58
 90
        2
176
     1
 90
        2
176
     1
 90
        0
176
     1
 90
        0
176
     1
 40
0.6
176
     1
 40
30.0
176
     1
 62
     7
420
 16777215
176
     1
 90
        1
176
     1
 90
        4
176
     1
 62
     7
176
     1
 62
   257
176
     1
 90
        1
176
     1
 90
        1
176
     1
 40
1.0
176
     1
 90
        8
176
     1
 62
     7
176
     1
 40
1.0
176
     1
 90
        1
176
     1
 90
        6
176
     1
 90
        2
176
     1
 62
     7
176
     1
 90
        5
176
     1
 90
        0
176
     1
 90
        0
176
     1
290
     0
176
     1
 90
        1
176
     1
 40
50.0
176
     1
 90
        0
176
     1
290
     0
176
     1
290
     1
176
     1
290
     1
176
     1
290
     0
176
     1
290
     0
176
     1
290
     0
176
     1
290
     0
176
     1
290
     0
176
     1
290
     0
176
     1
 90
       50
176
     1
 40
0.0
176
     1
 40
1.0
176
     1
 90
        0
176
     1
 62
    18
420
        0
176
     1
 90
       50
176
     1
 90
        3
176
     1
 62
     5
420
      255
176
     1
290
     0
176
     1
 90
       50
176
     1
 90
       50
176
     1
 90
       50
176
     1
290
     0
176
     1
 90
       50
176
     1
 62
   256
176
     0
 40
1.0
176
     0
 90
        2
176
     1
  1
strokes_ogs.tif
176
     1
290
     0
176
     1
 40
1.0
176
     1
 40
1.0
176
     1
  0
VISUALSTYLE
  5
3A
102
{ACAD_REACTORS
330
2A
102
}
330
2A
100
AcDbVisualStyle
  2
ColorChange
 70
    16
177
     3
291
     1
 70
    58
 90
        2
176
     1
 90
        2
176
     1
 90
        3
176
     1
 90
        0
176
     1
 40
0.6
176
     1
 40
30.0
176
     1
 62
     8
420
  8421504
176
     1
 90
        1
176
     1
 90
        4
176
     1
 62
     7
176
     1
 62
   257
176
     1
 90
        1
176
     1
 90
        1
176
     1
 40
1.0
176
     1
 90
        8
176
     1
 62
     8
420
  8421504
176
     1
 40
1.0
176
     1
 90
        1
176
     1
 90
        6
176
     1
 90
        2
176
     1
 62
     7
176
     1
 90
        5
176
     1
 90
        0
176
     1
 90
        0
176
     1
290
     0
176
     1
 90
        1
176
     1
 40
0.0
176
     1
 90
        0
176
     1
290
     0
176
     1
290
     1
176
     1
290
     1
176
     1
290
     0
176
     1
290
     0
176
     1
290
     0
176
     1
290
     0
176
     1
290
     0
176
     1
290
     0
176
     1
 90
       50
176
     1
 40
0.0
176
     1
 40
1.0
176
     1
 90
        0
176
     1
 62
    18
420
        0
176
     1
 90
       50
176
     1
 90
        3
176
     1
 62
     5
420
      255
176
     1
290
     0
176
     1
 90
       50
176
     1
 90
       50
176
     1
 90
       50
176
     1
290
     0
176
     1
 90
       50
176
     1
 62
   256
176
     0
 40
1.0
176
     0
 90
        2
176
     1
  1
strokes_ogs.tif
176
     1
290
     0
176
     1
 40
1.0
176
     1
 40
1.0
176
     1
  0
VISUALSTYLE
  5
34
102
{ACAD_REACTORS
330
2A
102
}
330
2A
100
AcDbVisualStyle
  2
Conceptual
 70
     9
177
     3
291
     0
 70
    58
 90
        3
176
     1
 90
        2
176
     1
 90
        0
176
     1
 90
        0
176
     1
 40
0.6
176
     1
 40
30.0
176
     1
 62
     7
420
 16777215
176
     1
 90
        2
176
     1
 90
        2
176
     1
 62
     7
176
     1
 62
   257
176
     1
 90
        1
176
     1
 90
        1
176
     1
 40
179.0
176
     1
 90
        8
176
     1
 62
     7
176
     1
 40
1.0
176
     1
 90
        1
176
     1
 90
        6
176
     1
 90
        2
176
     1
 62
     7
176
     1
 90
        3
176
     1
 90
        0
176
     1
 90
        0
176
     1
290
     0
176
     1
 90
        1
176
     1
 40
0.0
176
     1
 90
        0
176
     1
290
     0
176
     1
290
     1
176
     1
290
     1
176
     1
290
     0
176
     1
290
     0
176
     1
290
     0
176
     1
290
     0
176
     1
290
     0
176
     1
290
     0
176
     1
 90
       50
176
     1
 40
0.0
176
     1
 40
1.0
176
     1
 90
        0
176
     1
 62
    18
420
        0
176
     1
 90
       50
176
     1
 90
        3
176
     1
 62
     5
420
      255
176
     1
290
     0
176
     1
 90
       50
176
     1
 90
       50
176
     1
 90
       50
176
     1
290
     0
176
     1
 90
       50
176
     1
 62
   256
176
     0
 40
1.0
176
     0
 90
        2
176
     1
  1
strokes_ogs.tif
176
     1
290
     0
176
     1
 40
1.0
176
     1
 40
1.0
176
     1
  0
VISUALSTYLE
  5
35
102
{ACAD_REACTORS
330
2A
102
}
330
2A
100
AcDbVisualStyle
  2
Dim
 70
    11
177
     3
291
     1
 70
    58
 90
        2
176
     1
 90
        2
176
     1
 90
        0
176
     1
 90
        0
176
     1
 40
0.6
176
     1
 40
30.0
176
     1
 62
     7
420
 16777215
176
     1
 90
        1
176
     1
 90
        4
176
     1
 62
     7
176
     1
 62
   257
176
     1
 90
        1
176
     1
 90
        1
176
     1
 40
1.0
176
     1
 90
        8
176
     1
 62
     7
176
     1
 40
1.0
176
     1
 90
        1
176
     1
 90
        6
176
     1
 90
        2
176
     1
 62
     7
176
     1
 90
        5
176
     1
 90
        0
176
     1
 90
        0
176
     1
290
     0
176
     1
 90
        1
176
     1
 40
-50.0
176
     1
 90
        0
176
     1
290
     0
176
     1
290
     1
176
     1
290
     1
176
     1
290
     0
176
     1
290
     0
176
     1
290
     0
176
     1
290
     0
176
     1
290
     0
176
     1
290
     0
176
     1
 90
       50
176
     1
 40
0.0
176
     1
 40
1.0
176
     1
 90
        0
176
     1
 62
    18
420
        0
176
     1
 90
       50
176
     1
 90
        3
176
     1
 62
     5
420
      255
176
     1
290
     0
176
     1
 90
       50
176
     1
 90
       50
176
     1
 90
       50
176
     1
290
     0
176
     1
 90
       50
176
     1
 62
   256
176
     0
 40
1.0
176
     0
 90
        2
176
     1
  1
strokes_ogs.tif
176
     1
290
     0
176
     1
 40
1.0
176
     1
 40
1.0
176
     1
  0
VISUALSTYLE
  5
3D
102
{ACAD_REACTORS
330
2A
102
}
330
2A
100
AcDbVisualStyle
  2
EdgeColorOff
 70
    22
177
     3
291
     1
 70
    58
 90
        2
176
     0
 90
        2
176
     0
 90
        0
176
     0
 90
        0
176
     0
 40
0.6
176
     0
 40
30.0
176
     0
 62
     7
420
 16777215
176
     0
 90
        1
176
     0
 90
        4
176
     0
 62
     7
176
     0
 62
   257
176
     0
 90
        1
176
     0
 90
        1
176
     0
 40
1.0
176
     0
 90
        8
176
     2
 62
     7
176
     0
 40
1.0
176
     0
 90
        1
176
     0
 90
        6
176
     0
 90
        2
176
     0
 62
     7
176
     0
 90
        5
176
     0
 90
        0
176
     0
 90
        0
176
     0
290
     0
176
     0
 90
        1
176
     0
 40
0.0
176
     0
 90
        0
176
     0
290
     0
176
     0
290
     1
176
     0
290
     1
176
     0
290
     0
176
     0
290
     0
176
     0
290
     0
176
     0
290
     0
176
     0
290
     0
176
     0
290
     0
176
     0
 90
       50
176
     0
 40
0.0
176
     0
 40
1.0
176
     0
 90
        0
176
     0
 62
    18
420
        0
176
     0
 90
       50
176
     0
 90
        3
176
     0
 62
     5
420
      255
176
     0
290
     0
176
     0
 90
       50
176
     0
 90
       50
176
     0
 90
       50
176
     0
290
     0
176
     0
 90
       50
176
     0
 62
   256
176
     0
 40
1.0
176
     0
 90
        2
176
     0
  1
strokes_ogs.tif
176
     0
290
     0
176
     0
 40
1.0
176
     0
 40
1.0
176
     0
  0
VISUALSTYLE
  5
39
102
{ACAD_REACTORS
330
2A
102
}
330
2A
100
AcDbVisualStyle
  2
Facepattern
 70
    15
177
     3
291
     1
 70
    58
 90
        2
176
     1
 90
        2
176
     1
 90
        0
176
     1
 90
        0
176
     1
 40
0.6
176
     1
 40
30.0
176
     1
 62
     7
420
 16777215
176
     1
 90
        1
176
     1
 90
        4
176
     1
 62
     7
176
     1
 62
   257
176
     1
 90
        1
176
     1
 90
        1
176
     1
 40
1.0
176
     1
 90
        8
176
     1
 62
     7
176
     1
 40
1.0
176
     1
 90
        1
176
     1
 90
        6
176
     1
 90
        2
176
     1
 62
     7
176
     1
 90
        5
176
     1
 90
        0
176
     1
 90
        0
176
     1
290
     0
176
     1
 90
        1
176
     1
 40
0.0
176
     1
 90
        0
176
     1
290
     0
176
     1
290
     1
176
     1
290
     1
176
     1
290
     0
176
     1
290
     0
176
     1
290
     0
176
     1
290
     0
176
     1
290
     0
176
     1
290
     0
176
     1
 90
       50
176
     1
 40
0.0
176
     1
 40
1.0
176
     1
 90
        0
176
     1
 62
    18
420
        0
176
     1
 90
       50
176
     1
 90
        3
176
     1
 62
     5
420
      255
176
     1
290
     0
176
     1
 90
       50
176
     1
 90
       50
176
     1
 90
       50
176
     1
290
     0
176
     1
 90
       50
176
     1
 62
   256
176
     0
 40
1.0
176
     0
 90
        2
176
     1
  1
strokes_ogs.tif
176
     1
290
     0
176
     1
 40
1.0
176
     1
 40
1.0
176
     1
  0
VISUALSTYLE
  5
2B
102
{ACAD_REACTORS
330
2A
102
}
330
2A
100
AcDbVisualStyle
  2
Flat
 70
     0
177
     3
291
     1
 70
    58
 90
        2
176
     1
 90
        1
176
     1
 90
        1
176
     1
 90
        2
176
     1
 40
0.6
176
     1
 40
30.0
176
     1
 62
     7
420
 16777215
176
     1
 90
        0
176
     1
 90
        0
176
     1
 62
     7
176
     1
 62
   257
176
     1
 90
        1
176
     1
 90
        1
176
     1
 40
1.0
176
     1
 90
        8
176
     1
 62
     7
176
     1
 40
1.0
176
     1
 90
        1
176
     1
 90
        6
176
     1
 90
        2
176
     1
 62
     7
176
     1
 90
        5
176
     1
 90
        0
176
     1
 90
        0
176
     1
290
     0
176
     1
 90
       13
176
     1
 40
0.0
176
     1
 90
        0
176
     1
290
     0
176
     1
290
     1
176
     1
290
     1
176
     1
290
     0
176
     1
290
     0
176
     1
290
     0
176
     1
290
     0
176
     1
290
     0
176
     1
290
     0
176
     1
 90
       50
176
     1
 40
0.0
176
     1
 40
1.0
176
     1
 90
        0
176
     1
 62
    18
420
        0
176
     1
 90
       50
176
     1
 90
        3
176
     1
 62
     5
420
      255
176
     1
290
     0
176
     1
 90
       50
176
     1
 90
       50
176
     1
 90
       50
176
     1
290
     0
176
     1
 90
       50
176
     1
 62
   256
176
     0
 40
1.0
176
     0
 90
        2
176
     1
  1
strokes_ogs.tif
176
     1
290
     0
176
     1
 40
1.0
176
     1
 40
1.0
176
     1
  0
VISUALSTYLE
  5
2C
102
{ACAD_REACTORS
330
2A
102
}
330
2A
100
AcDbVisualStyle
  2
FlatWithEdges
 70
     1
177
     3
291
     1
 70
    58
 90
        2
176
     1
 90
        1
176
     1
 90
        1
176
     1
 90
        2
176
     1
 40
0.6
176
     1
 40
30.0
176
     1
 62
     7
420
 16777215
176
     1
 90
        1
176
     1
 90
        0
176
     1
 62
     7
176
     1
 62
   257
176
     1
 90
        1
176
     1
 90
        1
176
     1
 40
1.0
176
     1
 90
        0
176
     1
 62
   257
176
     1
 40
1.0
176
     1
 90
        1
176
     1
 90
        6
176
     1
 90
        2
176
     1
 62
     7
176
     1
 90
        5
176
     1
 90
        0
176
     1
 90
        0
176
     1
290
     0
176
     1
 90
       13
176
     1
 40
0.0
176
     1
 90
        0
176
     1
290
     0
176
     1
290
     1
176
     1
290
     1
176
     1
290
     0
176
     1
290
     0
176
     1
290
     0
176
     1
290
     0
176
     1
290
     0
176
     1
290
     0
176
     1
 90
       50
176
     1
 40
0.0
176
     1
 40
1.0
176
     1
 90
        0
176
     1
 62
    18
420
        0
176
     1
 90
       50
176
     1
 90
        3
176
     1
 62
     5
420
      255
176
     1
290
     0
176
     1
 90
       50
176
     1
 90
       50
176
     1
 90
       50
176
     1
290
     0
176
     1
 90
       50
176
     1
 62
   256
176
     0
 40
1.0
176
     0
 90
        2
176
     1
  1
strokes_ogs.tif
176
     1
290
     0
176
     1
 40
1.0
176
     1
 40
1.0
176
     1
  0
VISUALSTYLE
  5
2D
102
{ACAD_REACTORS
330
2A
102
}
330
2A
100
AcDbVisualStyle
  2
Gouraud
 70
     2
177
     3
291
     1
 70
    58
 90
        2
176
     1
 90
        2
176
     1
 90
        1
176
     1
 90
        2
176
     1
 40
0.6
176
     1
 40
30.0
176
     1
 62
     7
420
 16777215
176
     1
 90
        0
176
     1
 90
        0
176
     1
 62
     7
176
     1
 62
   257
176
     1
 90
        1
176
     1
 90
        1
176
     1
 40
1.0
176
     1
 90
        0
176
     1
 62
     7
176
     1
 40
1.0
176
     1
 90
        1
176
     1
 90
        6
176
     1
 90
        2
176
     1
 62
     7
176
     1
 90
        5
176
     1
 90
        0
176
     1
 90
        0
176
     1
290
     0
176
     1
 90
       13
176
     1
 40
0.0
176
     1
 90
        0
176
     1
290
     0
176
     1
290
     1
176
     1
290
     1
176
     1
290
     0
176
     1
290
     0
176
     1
290
     0
176
     1
290
     0
176
     1
290
     0
176
     1
290
     0
176
     1
 90
       50
176
     1
 40
0.0
176
     1
 40
1.0
176
     1
 90
        0
176
     1
 62
    18
420
        0
176
     1
 90
       50
176
     1
 90
        3
176
     1
 62
     5
420
      255
176
     1
290
     0
176
     1
 90
       50
176
     1
 90
       50
176
     1
 90
       50
176
     1
290
     0
176
     1
 90
       50
176
     1
 62
   256
176
     0
 40
1.0
176
     0
 90
        2
176
     1
  1
strokes_ogs.tif
176
     1
290
     0
176
     1
 40
1.0
176
     1
 40
1.0
176
     1
  0
VISUALSTYLE
  5
2E
102
{ACAD_REACTORS
330
2A
102
}
330
2A
100
AcDbVisualStyle
  2
GouraudWithEdges
 70
     3
177
     3
291
     1
 70
    58
 90
        2
176
     1
 90
        2
176
     1
 90
        1
176
     1
 90
        2
176
     1
 40
0.6
176
     1
 40
30.0
176
     1
 62
     7
420
 16777215
176
     1
 90
        1
176
     1
 90
        0
176
     1
 62
     7
176
     1
 62
   257
176
     1
 90
        1
176
     1
 90
        1
176
     1
 40
1.0
176
     1
 90
        0
176
     1
 62
   257
176
     1
 40
1.0
176
     1
 90
        1
176
     1
 90
        6
176
     1
 90
        2
176
     1
 62
     7
176
     1
 90
        5
176
     1
 90
        0
176
     1
 90
        0
176
     1
290
     0
176
     1
 90
       13
176
     1
 40
0.0
176
     1
 90
        0
176
     1
290
     0
176
     1
290
     1
176
     1
290
     1
176
     1
290
     0
176
     1
290
     0
176
     1
290
     0
176
     1
290
     0
176
     1
290
     0
176
     1
290
     0
176
     1
 90
       50
176
     1
 40
0.0
176
     1
 40
1.0
176
     1
 90
        0
176
     1
 62
    18
420
        0
176
     1
 90
       50
176
     1
 90
        3
176
     1
 62
     5
420
      255
176
     1
290
     0
176
     1
 90
       50
176
     1
 90
       50
176
     1
 90
       50
176
     1
290
     0
176
     1
 90
       50
176
     1
 62
   256
176
     0
 40
1.0
176
     0
 90
        2
176
     1
  1
strokes_ogs.tif
176
     1
290
     0
176
     1
 40
1.0
176
     1
 40
1.0
176
     1
  0
VISUALSTYLE
  5
31
102
{ACAD_REACTORS
330
2A
102
}
330
2A
100
AcDbVisualStyle
  2
Hidden
 70
     6
177
     3
291
     0
 70
    58
 90
        1
176
     1
 90
        2
176
     1
 90
        2
176
     1
 90
        0
176
     1
 40
0.6
176
     1
 40
30.0
176
     1
 62
     7
420
 16777215
176
     1
 90
        2
176
     1
 90
        2
176
     1
 62
     7
176
     1
 62
   257
176
     1
 90
        2
176
     1
 90
        1
176
     1
 40
40.0
176
     1
 90
        0
176
     1
 62
   257
176
     1
 40
1.0
176
     1
 90
        1
176
     1
 90
        6
176
     1
 90
        2
176
     1
 62
     7
176
     1
 90
        3
176
     1
 90
        0
176
     1
 90
        0
176
     1
290
     0
176
     1
 90
        1
176
     1
 40
0.0
176
     1
 90
        0
176
     1
290
     0
176
     1
290
     1
176
     1
290
     1
176
     1
290
     0
176
     1
290
     0
176
     1
290
     0
176
     1
290
     0
176
     1
290
     0
176
     1
290
     0
176
     1
 90
       50
176
     1
 40
0.0
176
     1
 40
1.0
176
     1
 90
        0
176
     1
 62
    18
420
        0
176
     1
 90
       50
176
     1
 90
        3
176
     1
 62
     5
420
      255
176
     1
290
     0
176
     1
 90
       50
176
     1
 90
       50
176
     1
 90
       50
176
     1
290
     0
176
     1
 90
       50
176
     1
 62
   256
176
     0
 40
1.0
176
     0
 90
        2
176
     1
  1
strokes_ogs.tif
176
     1
290
     0
176
     1
 40
1.0
176
     1
 40
1.0
176
     1
  0
VISUALSTYLE
  5
3B
102
{ACAD_REACTORS
330
2A
102
}
330
2A
100
AcDbVisualStyle
  2
JitterOff
 70
    20
177
     3
291
     1
 70
    58
 90
        2
176
     0
 90
        2
176
     0
 90
        0
176
     0
 90
        0
176
     0
 40
0.6
176
     0
 40
30.0
176
     0
 62
     7
420
 16777215
176
     0
 90
        1
176
     0
 90
        4
176
     0
 62
     7
176
     0
 62
   257
176
     0
 90
        1
176
     0
 90
        1
176
     0
 40
1.0
176
     0
 90
       10
176
     2
 62
     7
176
     0
 40
1.0
176
     0
 90
        1
176
     0
 90
        6
176
     0
 90
        2
176
     0
 62
     7
176
     0
 90
        5
176
     0
 90
        0
176
     0
 90
        0
176
     0
290
     0
176
     0
 90
        1
176
     0
 40
0.0
176
     0
 90
        0
176
     0
290
     0
176
     0
290
     1
176
     0
290
     1
176
     0
290
     0
176
     0
290
     0
176
     0
290
     0
176
     0
290
     0
176
     0
290
     0
176
     0
290
     0
176
     0
 90
       50
176
     0
 40
0.0
176
     0
 40
1.0
176
     0
 90
        0
176
     0
 62
    18
420
        0
176
     0
 90
       50
176
     0
 90
        3
176
     0
 62
     5
420
      255
176
     0
290
     0
176
     0
 90
       50
176
     0
 90
       50
176
     0
 90
       50
176
     0
290
     0
176
     0
 90
       50
176
     0
 62
   256
176
     0
 40
1.0
176
     0
 90
        2
176
     0
  1
strokes_ogs.tif
176
     0
290
     0
176
     0
 40
1.0
176
     0
 40
1.0
176
     0
  0
VISUALSTYLE
  5
38
102
{ACAD_REACTORS
330
2A
102
}
330
2A
100
AcDbVisualStyle
  2
Linepattern
 70
    14
177
     3
291
     1
 70
    58
 90
        2
176
     1
 90
        2
176
     1
 90
        0
176
     1
 90
        0
176
     1
 40
0.6
176
     1
 40
30.0
176
     1
 62
     7
420
 16777215
176
     1
 90
        1
176
     1
 90
        4
176
     1
 62
     7
176
     1
 62
   257
176
     1
 90
        7
176
     1
 90
        7
176
     1
 40
1.0
176
     1
 90
        8
176
     1
 62
     7
176
     1
 40
1.0
176
     1
 90
        1
176
     1
 90
        6
176
     1
 90
        2
176
     1
 62
     7
176
     1
 90
        5
176
     1
 90
        0
176
     1
 90
        0
176
     1
290
     0
176
     1
 90
        1
176
     1
 40
0.0
176
     1
 90
        0
176
     1
290
     0
176
     1
290
     1
176
     1
290
     1
176
     1
290
     0
176
     1
290
     0
176
     1
290
     0
176
     1
290
     0
176
     1
290
     0
176
     1
290
     0
176
     1
 90
       50
176
     1
 40
0.0
176
     1
 40
1.0
176
     1
 90
        0
176
     1
 62
    18
420
        0
176
     1
 90
       50
176
     1
 90
        3
176
     1
 62
     5
420
      255
176
     1
290
     0
176
     1
 90
       50
176
     1
 90
       50
176
     1
 90
       50
176
     1
290
     0
176
     1
 90
       50
176
     1
 62
   256
176
     0
 40
1.0
176
     0
 90
        2
176
     1
  1
strokes_ogs.tif
176
     1
290
     0
176
     1
 40
1.0
176
     1
 40
1.0
176
     1
  0
VISUALSTYLE
  5
3C
102
{ACAD_REACTORS
330
2A
102
}
330
2A
100
AcDbVisualStyle
  2
OverhangOff
 70
    21
177
     3
291
     1
 70
    58
 90
        2
176
     0
 90
        2
176
     0
 90
        0
176
     0
 90
        0
176
     0
 40
0.6
176
     0
 40
30.0
176
     0
 62
     7
420
 16777215
176
     0
 90
        1
176
     0
 90
        4
176
     0
 62
     7
176
     0
 62
   257
176
     0
 90
        1
176
     0
 90
        1
176
     0
 40
1.0
176
     0
 90
        9
176
     2
 62
     7
176
     0
 40
1.0
176
     0
 90
        1
176
     0
 90
        6
176
     0
 90
        2
176
     0
 62
     7
176
     0
 90
        5
176
     0
 90
        0
176
     0
 90
        0
176
     0
290
     0
176
     0
 90
        1
176
     0
 40
0.0
176
     0
 90
        0
176
     0
290
     0
176
     0
290
     1
176
     0
290
     1
176
     0
290
     0
176
     0
290
     0
176
     0
290
     0
176
     0
290
     0
176
     0
290
     0
176
     0
290
     0
176
     0
 90
       50
176
     0
 40
0.0
176
     0
 40
1.0
176
     0
 90
        0
176
     0
 62
    18
420
        0
176
     0
 90
       50
176
     0
 90
        3
176
     0
 62
     5
420
      255
176
     0
290
     0
176
     0
 90
       50
176
     0
 90
       50
176
     0
 90
       50
176
     0
290
     0
176
     0
 90
       50
176
     0
 62
   256
176
     0
 40
1.0
176
     0
 90
        2
176
     0
  1
strokes_ogs.tif
176
     0
290
     0
176
     0
 40
1.0
176
     0
 40
1.0
176
     0
  0
VISUALSTYLE
  5
33
102
{ACAD_REACTORS
330
2A
102
}
330
2A
100
AcDbVisualStyle
  2
Realistic
 70
     8
177
     3
291
     0
 70
    58
 90
        2
176
     1
 90
        3
176
     1
 90
        0
176
     1
 90
        2
176
     1
 40
0.6
176
     1
 40
30.0
176
     1
 62
     7
420
 16777215
176
     1
 90
        0
176
     1
 90
        0
176
     1
 62
     7
176
     1
 62
   257
176
     1
 90
        1
176
     1
 90
        1
176
     1
 40
1.0
176
     1
 90
        8
176
     1
 62
   257
176
     1
 40
1.0
176
     1
 90
        1
176
     1
 90
        6
176
     1
 90
        2
176
     1
 62
     7
176
     1
 90
        3
176
     1
 90
        0
176
     1
 90
        0
176
     1
290
     0
176
     1
 90
       13
176
     1
 40
0.0
176
     1
 90
        0
176
     1
290
     0
176
     1
290
     1
176
     1
290
     1
176
     1
290
     0
176
     1
290
     0
176
     1
290
     0
176
     1
290
     0
176
     1
290
     0
176
     1
290
     0
176
     1
 90
       50
176
     1
 40
0.0
176
     1
 40
1.0
176
     1
 90
        0
176
     1
 62
    18
420
        0
176
     1
 90
       50
176
     1
 90
        3
176
     1
 62
     5
420
      255
176
     1
290
     0
176
     1
 90
       50
176
     1
 90
       50
176
     1
 90
       50
176
     1
290
     0
176
     1
 90
       50
176
     1
 62
   256
176
     0
 40
1.0
176
     0
 90
        2
176
     1
  1
strokes_ogs.tif
176
     1
290
     0
176
     1
 40
1.0
176
     1
 40
1.0
176
     1
  0
VISUALSTYLE
  5
42
102
{ACAD_REACTORS
330
2A
102
}
330
2A
100
AcDbVisualStyle
  2
Shaded
 70
    27
177
     3
291
     0
 70
    58
 90
        2
176
     1
 90
        2
176
     1
 90
        1
176
     1
 90
        2
176
     1
 40
0.6
176
     1
 40
30.0
176
     1
 62
     7
420
 16777215
176
     1
 90
        0
176
     1
 90
        4
176
     1
 62
     7
176
     1
 62
   257
176
     1
 90
        1
176
     1
 90
        1
176
     1
 40
1.0
176
     1
 90
        8
176
     1
 62
   257
176
     1
 40
1.0
176
     1
 90
        1
176
     1
 90
        6
176
     1
 90
        2
176
     1
 62
     8
420
  7895160
176
     1
 90
        3
176
     1
 90
        0
176
     1
 90
        0
176
     1
290
     0
176
     1
 90
        5
176
     1
 40
0.0
176
     1
 90
        0
176
     1
290
     0
176
     1
290
     1
176
     1
290
     1
176
     1
290
     0
176
     1
290
     0
176
     1
290
     0
176
     1
290
     0
176
     1
290
     0
176
     1
290
     0
176
     1
 90
       50
176
     1
 40
0.0
176
     1
 40
1.0
176
     1
 90
        0
176
     1
 62
    18
420
        0
176
     1
 90
       50
176
     1
 90
        3
176
     1
 62
     5
420
      255
176
     1
290
     0
176
     1
 90
       50
176
     1
 90
       50
176
     1
 90
       50
176
     1
290
     0
176
     1
 90
       50
176
     1
 62
   256
176
     0
 40
1.0
176
     0
 90
        2
176
     1
  1
strokes_ogs.tif
176
     1
290
     0
176
     1
 40
1.0
176
     1
 40
1.0
176
     1
  0
VISUALSTYLE
  5
41
102
{ACAD_REACTORS
330
2A
102
}
330
2A
100
AcDbVisualStyle
  2
Shaded with edges
 70
    26
177
     3
291
     0
 70
    58
 90
        2
176
     1
 90
        2
176
     1
 90
        1
176
     1
 90
        2
176
     1
 40
0.6
176
     1
 40
30.0
176
     1
 62
     7
420
 16777215
176
     1
 90
        1
176
     1
 90
       10
176
     1
 62
     7
176
     1
 62
   257
176
     1
 90
        2
176
     1
 90
        1
176
     1
 40
1.0
176
     1
 90
        8
176
     1
 62
   257
176
     1
 40
1.0
176
     1
 90
        1
176
     1
 90
        6
176
     1
 90
        2
176
     1
 62
     7
176
     1
 90
        3
176
     1
 90
        0
176
     1
 90
        0
176
     1
290
     0
176
     1
 90
        5
176
     1
 40
0.0
176
     1
 90
        0
176
     1
290
     0
176
     1
290
     1
176
     1
290
     1
176
     1
290
     0
176
     1
290
     0
176
     1
290
     0
176
     1
290
     0
176
     1
290
     0
176
     1
290
     0
176
     1
 90
       50
176
     1
 40
0.0
176
     1
 40
1.0
176
     1
 90
        0
176
     1
 62
    18
420
        0
176
     1
 90
       50
176
     1
 90
        3
176
     1
 62
     5
420
      255
176
     1
290
     0
176
     1
 90
       50
176
     1
 90
       50
176
     1
 90
       50
176
     1
290
     0
176
     1
 90
       50
176
     1
 62
   256
176
     0
 40
1.0
176
     0
 90
        2
176
     1
  1
strokes_ogs.tif
176
     1
290
     0
176
     1
 40
1.0
176
     1
 40
1.0
176
     1
  0
VISUALSTYLE
  5
3E
102
{ACAD_REACTORS
330
2A
102
}
330
2A
100
AcDbVisualStyle
  2
Shades of Gray
 70
    23
177
     3
291
     0
 70
    58
 90
        2
176
     1
 90
        2
176
     1
 90
        3
176
     1
 90
        0
176
     1
 40
0.6
176
     1
 40
30.0
176
     1
 62
     7
420
 16777215
176
     1
 90
        2
176
     1
 90
        2
176
     1
 62
     7
176
     1
 62
     7
176
     1
 90
        1
176
     1
 90
        1
176
     1
 40
40.0
176
     1
 90
        8
176
     1
 62
     7
176
     1
 40
1.0
176
     1
 90
        1
176
     1
 90
        6
176
     1
 90
        2
176
     1
 62
     7
176
     1
 90
        3
176
     1
 90
        0
176
     1
 90
        0
176
     1
290
     0
176
     1
 90
        1
176
     1
 40
0.0
176
     1
 90
        0
176
     1
290
     0
176
     1
290
     1
176
     1
290
     1
176
     1
290
     0
176
     1
290
     0
176
     1
290
     0
176
     1
290
     0
176
     1
290
     0
176
     1
290
     0
176
     1
 90
       50
176
     1
 40
0.0
176
     1
 40
1.0
176
     1
 90
        0
176
     1
 62
    18
420
        0
176
     1
 90
       50
176
     1
 90
        3
176
     1
 62
     5
420
      255
176
     1
290
     0
176
     1
 90
       50
176
     1
 90
       50
176
     1
 90
       50
176
     1
290
     0
176
     1
 90
       50
176
     1
 62
   256
176
     0
 40
1.0
176
     0
 90
        2
176
     1
  1
strokes_ogs.tif
176
     1
290
     0
176
     1
 40
1.0
176
     1
 40
1.0
176
     1
  0
VISUALSTYLE
  5
3F
102
{ACAD_REACTORS
330
2A
102
}
330
2A
100
AcDbVisualStyle
  2
Sketchy
 70
    24
177
     3
291
     0
 70
    58
 90
        1
176
     1
 90
        2
176
     1
 90
        2
176
     1
 90
        0
176
     1
 40
0.6
176
     1
 40
30.0
176
     1
 62
     7
420
 16777215
176
     1
 90
        2
176
     1
 90
        2
176
     1
 62
     7
176
     1
 62
     7
176
     1
 90
        1
176
     1
 90
        1
176
     1
 40
40.0
176
     1
 90
       11
176
     1
 62
     7
176
     1
 40
1.0
176
     1
 90
        1
176
     1
 90
        6
176
     1
 90
        2
176
     1
 62
     7
176
     1
 90
        6
176
     1
 90
        0
176
     1
 90
        0
176
     1
290
     0
176
     1
 90
        1
176
     1
 40
0.0
176
     1
 90
        0
176
     1
290
     0
176
     1
290
     1
176
     1
290
     1
176
     1
290
     0
176
     1
290
     0
176
     1
290
     0
176
     1
290
     0
176
     1
290
     0
176
     1
290
     0
176
     1
 90
       50
176
     1
 40
0.0
176
     1
 40
1.0
176
     1
 90
        0
176
     1
 62
    18
420
        0
176
     1
 90
       50
176
     1
 90
        3
176
     1
 62
     5
420
      255
176
     1
290
     0
176
     1
 90
       50
176
     1
 90
       50
176
     1
 90
       50
176
     1
290
     0
176
     1
 90
       50
176
     1
 62
   256
176
     0
 40
1.0
176
     0
 90
        2
176
     1
  1
strokes_ogs.tif
176
     1
290
     0
176
     1
 40
1.0
176
     1
 40
1.0
176
     1
  0
VISUALSTYLE
  5
37
102
{ACAD_REACTORS
330
2A
102
}
330
2A
100
AcDbVisualStyle
  2
Thicken
 70
    13
177
     3
291
     1
 70
    58
 90
        2
176
     1
 90
        2
176
     1
 90
        0
176
     1
 90
        0
176
     1
 40
0.6
176
     1
 40
30.0
176
     1
 62
     7
420
 16777215
176
     1
 90
        1
176
     1
 90
        4
176
     1
 62
     7
176
     1
 62
   257
176
     1
 90
        1
176
     1
 90
        1
176
     1
 40
1.0
176
     1
 90
       12
176
     1
 62
     7
176
     1
 40
1.0
176
     1
 90
        1
176
     1
 90
        6
176
     1
 90
        2
176
     1
 62
     7
176
     1
 90
        5
176
     1
 90
        0
176
     1
 90
        0
176
     1
290
     0
176
     1
 90
        1
176
     1
 40
0.0
176
     1
 90
        0
176
     1
290
     0
176
     1
290
     1
176
     1
290
     1
176
     1
290
     0
176
     1
290
     0
176
     1
290
     0
176
     1
290
     0
176
     1
290
     0
176
     1
290
     0
176
     1
 90
       50
176
     1
 40
0.0
176
     1
 40
1.0
176
     1
 90
        0
176
     1
 62
    18
420
        0
176
     1
 90
       50
176
     1
 90
        3
176
     1
 62
     5
420
      255
176
     1
290
     0
176
     1
 90
       50
176
     1
 90
       50
176
     1
 90
       50
176
     1
290
     0
176
     1
 90
       50
176
     1
 62
   256
176
     0
 40
1.0
176
     0
 90
        2
176
     1
  1
strokes_ogs.tif
176
     1
290
     0
176
     1
 40
1.0
176
     1
 40
1.0
176
     1
  0
VISUALSTYLE
  5
30
102
{ACAD_REACTORS
330
2A
102
}
330
2A
100
AcDbVisualStyle
  2
Wireframe
 70
     5
177
     3
291
     0
 70
    58
 90
        0
176
     1
 90
        2
176
     1
 90
        0
176
     1
 90
        0
176
     1
 40
0.6
176
     1
 40
30.0
176
     1
 62
     7
420
 16777215
176
     1
 90
        1
176
     1
 90
        4
176
     1
 62
     7
176
     1
 62
   257
176
     1
 90
        1
176
     1
 90
        1
176
     1
 40
1.0
176
     1
 90
        0
176
     1
 62
   257
176
     1
 40
1.0
176
     1
 90
        1
176
     1
 90
        6
176
     1
 90
        2
176
     1
 62
     7
176
     1
 90
        3
176
     1
 90
        0
176
     1
 90
        0
176
     1
290
     0
176
     1
 90
        1
176
     1
 40
0.0
176
     1
 90
        0
176
     1
290
     0
176
     1
290
     1
176
     1
290
     1
176
     1
290
     0
176
     1
290
     0
176
     1
290
     0
176
     1
290
     0
176
     1
290
     0
176
     1
290
     0
176
     1
 90
       50
176
     1
 40
0.0
176
     1
 40
1.0
176
     1
 90
        0
176
     1
 62
    18
420
        0
176
     1
 90
       50
176
     1
 90
        3
176
     1
 62
     5
420
      255
176
     1
290
     0
176
     1
 90
       50
176
     1
 90
       50
176
     1
 90
       50
176
     1
290
     0
176
     1
 90
       50
176
     1
 62
   256
176
     0
 40
1.0
176
     0
 90
        2
176
     1
  1
strokes_ogs.tif
176
     1
290
     0
176
     1
 40
1.0
176
     1
 40
1.0
176
     1
  0
VISUALSTYLE
  5
40
102
{ACAD_REACTORS
330
2A
102
}
330
2A
100
AcDbVisualStyle
  2
X-Ray
 70
    25
177
     3
291
     0
 70
    58
 90
        2
176
     1
 90
        2
176
     1
 90
        1
176
     1
 90
        1
176
     1
 40
0.5
176
     1
 40
30.0
176
     1
 62
     7
420
 16777215
176
     1
 90
        1
176
     1
 90
        0
176
     1
 62
     7
176
     1
 62
   257
176
     1
 90
        1
176
     1
 90
        1
176
     1
 40
1.0
176
     1
 90
        8
176
     1
 62
     7
176
     1
 40
1.0
176
     1
 90
        1
176
     1
 90
        6
176
     1
 90
        2
176
     1
 62
     7
176
     1
 90
        3
176
     1
 90
        0
176
     1
 90
        0
176
     1
290
     0
176
     1
 90
       13
176
     1
 40
0.0
176
     1
 90
        0
176
     1
290
     0
176
     1
290
     1
176
     1
290
     1
176
     1
290
     0
176
     1
290
     0
176
     1
290
     0
176
     1
290
     0
176
     1
290
     0
176
     1
290
     0
176
     1
 90
       50
176
     1
 40
0.0
176
     1
 40
1.0
176
     1
 90
        0
176
     1
 62
    18
420
        0
176
     1
 90
       50
176
     1
 90
        3
176
     1
 62
     5
420
      255
176
     1
290
     0
176
     1
 90
       50
176
     1
 90
       50
176
     1
 90
       50
176
     1
290
     0
176
     1
 90
       50
176
     1
 62
   256
176
     0
 40
1.0
176
     0
 90
        2
176
     1
  1
strokes_ogs.tif
176
     1
290
     0
176
     1
 40
1.0
176
     1
 40
1.0
176
     1
  0
DICTIONARYVAR
  5
100
102
{ACAD_REACTORS
330
FF
102
}
330
FF
100
DictionaryVariables
280
     0
  1
1:1
  0
ENDSEC
  0
EOF
