  0
SECTION
  2
HEADER
  9
$ACADVER
  1
AC1027
  9
$ACADMAINTVER
 70
     8
  9
$DWGCODEPAGE
  3
ANSI_1252
  9
$REQUIREDVERSIONS
160
                 0
  9
$COMMENTS
  1
File was created by SpaceClaim
  9
$INSBASE
 10
0.0
 20
0.0
 30
0.0
  9
$EXTMIN
 10
-28.86285005239217
 20
30.48180721509075
 30
-28.45174447435106
  9
$EXTMAX
 10
12.70983692795338
 20
76.4076333186484
 30
3.425678364576326
  9
$LIMMIN
 10
0.0
 20
0.0
  9
$LIMMAX
 10
420.0
 20
297.0
  9
$ORTHOMODE
 70
     0
  9
$REGENMODE
 70
     1
  9
$FILLMODE
 70
     1
  9
$QTEXTMODE
 70
     0
  9
$MIRRTEXT
 70
     1
  9
$LTSCALE
 40
1.0
  9
$ATTMODE
 70
     1
  9
$TEXTSIZE
 40
2.5
  9
$TRACEWID
 40
1.0
  9
$TEXTSTYLE
  7
Standard
  9
$CLAYER
  8
0
  9
$CELTYPE
  6
ByLayer
  9
$CECOLOR
 62
   256
  9
$CELTSCALE
 40
1.0
  9
$DISPSILH
 70
     0
  9
$DIMSCALE
 40
1.0
  9
$DIMASZ
 40
2.5
  9
$DIMEXO
 40
0.625
  9
$DIMDLI
 40
3.75
  9
$DIMRND
 40
0.0
  9
$DIMDLE
 40
0.0
  9
$DIMEXE
 40
1.25
  9
$DIMTP
 40
0.0
  9
$DIMTM
 40
0.0
  9
$DIMTXT
 40
2.5
  9
$DIMCEN
 40
2.5
  9
$DIMTSZ
 40
0.0
  9
$DIMTOL
 70
     0
  9
$DIMLIM
 70
     0
  9
$DIMTIH
 70
     1
  9
$DIMTOH
 70
     0
  9
$DIMSE1
 70
     0
  9
$DIMSE2
 70
     0
  9
$DIMTAD
 70
     1
  9
$DIMZIN
 70
     8
  9
$DIMBLK
  1

  9
$DIMASO
 70
     1
  9
$DIMSHO
 70
     1
  9
$DIMPOST
  1
mm
  9
$DIMAPOST
  1

  9
$DIMALT
 70
     0
  9
$DIMALTD
 70
     3
  9
$DIMALTF
 40
0.0393700787401575
  9
$DIMLFAC
 40
1.0
  9
$DIMTOFL
 70
     1
  9
$DIMTVP
 40
0.0
  9
$DIMTIX
 70
     0
  9
$DIMSOXD
 70
     0
  9
$DIMSAH
 70
     0
  9
$DIMBLK1
  1

  9
$DIMBLK2
  1

  9
$DIMSTYLE
  2
ISO-25
  9
$DIMCLRD
 70
     0
  9
$DIMCLRE
 70
     0
  9
$DIMCLRT
 70
     0
  9
$DIMTFAC
 40
1.0
  9
$DIMGAP
 40
0.625
  9
$DIMJUST
 70
     0
  9
$DIMSD1
 70
     0
  9
$DIMSD2
 70
     0
  9
$DIMTOLJ
 70
     0
  9
$DIMTZIN
 70
     8
  9
$DIMALTZ
 70
     0
  9
$DIMALTTZ
 70
     8
  9
$DIMUPT
 70
     0
  9
$DIMDEC
 70
     3
  9
$DIMTDEC
 70
     3
  9
$DIMALTU
 70
     2
  9
$DIMALTTD
 70
     3
  9
$DIMTXSTY
  7
Standard
  9
$DIMAUNIT
 70
     0
  9
$DIMADEC
 70
     1
  9
$DIMALTRND
 40
0.0
  9
$DIMAZIN
 70
     0
  9
$DIMDSEP
 70
    46
  9
$DIMATFIT
 70
     3
  9
$DIMFRAC
 70
     0
  9
$DIMLDRBLK
  1

  9
$DIMLUNIT
 70
     2
  9
$DIMLWD
 70
    -2
  9
$DIMLWE
 70
    -2
  9
$DIMTMOVE
 70
     0
  9
$DIMFXL
 40
1.0
  9
$DIMFXLON
 70
     0
  9
$DIMJOGANG
 40
0.7853981633974483
  9
$DIMTFILL
 70
     0
  9
$DIMTFILLCLR
 70
     0
  9
$DIMARCSYM
 70
     0
  9
$DIMLTYPE
  6

  9
$DIMLTEX1
  6

  9
$DIMLTEX2
  6

  9
$DIMTXTDIRECTION
 70
     0
  9
$LUNITS
 70
     2
  9
$LUPREC
 70
     4
  9
$SKETCHINC
 40
1.0
  9
$FILLETRAD
 40
10.0
  9
$AUNITS
 70
     0
  9
$AUPREC
 70
     0
  9
$MENU
  1
.
  9
$ELEVATION
 40
0.0
  9
$PELEVATION
 40
0.0
  9
$THICKNESS
 40
0.0
  9
$LIMCHECK
 70
     0
  9
$CHAMFERA
 40
0.0
  9
$CHAMFERB
 40
0.0
  9
$CHAMFERC
 40
0.0
  9
$CHAMFERD
 40
0.0
  9
$SKPOLY
 70
     0
  9
$TDCREATE
 40
2457944.783275533
  9
$TDUCREATE
 40
2457944.949942199
  9
$TDUPDATE
 40
2457944.783275764
  9
$TDUUPDATE
 40
2457944.94994243
  9
$TDINDWG
 40
0.0000000116
  9
$TDUSRTIMER
 40
0.0000000116
  9
$USRTIMER
 70
     1
  9
$ANGBASE
 50
0.0
  9
$ANGDIR
 70
     0
  9
$PDMODE
 70
     0
  9
$PDSIZE
 40
0.0
  9
$PLINEWID
 40
0.0
  9
$SPLFRAME
 70
     0
  9
$SPLINETYPE
 70
     6
  9
$SPLINESEGS
 70
     8
  9
$HANDSEED
  5
14C
  9
$SURFTAB1
 70
     6
  9
$SURFTAB2
 70
     6
  9
$SURFTYPE
 70
     6
  9
$SURFU
 70
     6
  9
$SURFV
 70
     6
  9
$UCSBASE
  2

  9
$UCSNAME
  2

  9
$UCSORG
 10
0.0
 20
0.0
 30
0.0
  9
$UCSXDIR
 10
1.0
 20
0.0
 30
0.0
  9
$UCSYDIR
 10
0.0
 20
1.0
 30
0.0
  9
$UCSORTHOREF
  2

  9
$UCSORTHOVIEW
 70
     0
  9
$UCSORGTOP
 10
0.0
 20
0.0
 30
0.0
  9
$UCSORGBOTTOM
 10
0.0
 20
0.0
 30
0.0
  9
$UCSORGLEFT
 10
0.0
 20
0.0
 30
0.0
  9
$UCSORGRIGHT
 10
0.0
 20
0.0
 30
0.0
  9
$UCSORGFRONT
 10
0.0
 20
0.0
 30
0.0
  9
$UCSORGBACK
 10
0.0
 20
0.0
 30
0.0
  9
$PUCSBASE
  2

  9
$PUCSNAME
  2

  9
$PUCSORG
 10
0.0
 20
0.0
 30
0.0
  9
$PUCSXDIR
 10
1.0
 20
0.0
 30
0.0
  9
$PUCSYDIR
 10
0.0
 20
1.0
 30
0.0
  9
$PUCSORTHOREF
  2

  9
$PUCSORTHOVIEW
 70
     0
  9
$PUCSORGTOP
 10
0.0
 20
0.0
 30
0.0
  9
$PUCSORGBOTTOM
 10
0.0
 20
0.0
 30
0.0
  9
$PUCSORGLEFT
 10
0.0
 20
0.0
 30
0.0
  9
$PUCSORGRIGHT
 10
0.0
 20
0.0
 30
0.0
  9
$PUCSORGFRONT
 10
0.0
 20
0.0
 30
0.0
  9
$PUCSORGBACK
 10
0.0
 20
0.0
 30
0.0
  9
$USERI1
 70
     0
  9
$USERI2
 70
     0
  9
$USERI3
 70
     0
  9
$USERI4
 70
     0
  9
$USERI5
 70
     0
  9
$USERR1
 40
0.0
  9
$USERR2
 40
0.0
  9
$USERR3
 40
0.0
  9
$USERR4
 40
0.0
  9
$USERR5
 40
0.0
  9
$WORLDVIEW
 70
     1
  9
$SHADEDGE
 70
     3
  9
$SHADEDIF
 70
    70
  9
$TILEMODE
 70
     1
  9
$MAXACTVP
 70
    64
  9
$PINSBASE
 10
0.0
 20
0.0
 30
0.0
  9
$PLIMCHECK
 70
     0
  9
$PEXTMIN
 10
1.000000000000000E+20
 20
1.000000000000000E+20
 30
1.000000000000000E+20
  9
$PEXTMAX
 10
-1.000000000000000E+20
 20
-1.000000000000000E+20
 30
-1.000000000000000E+20
  9
$PLIMMIN
 10
0.0
 20
0.0
  9
$PLIMMAX
 10
420.0
 20
297.0
  9
$UNITMODE
 70
     0
  9
$VISRETAIN
 70
     1
  9
$PLINEGEN
 70
     0
  9
$PSLTSCALE
 70
     1
  9
$TREEDEPTH
 70
  3020
  9
$CMLSTYLE
  2
Standard
  9
$CMLJUST
 70
     0
  9
$CMLSCALE
 40
20.0
  9
$PROXYGRAPHICS
 70
     1
  9
$MEASUREMENT
 70
     1
  9
$CELWEIGHT
370
    -1
  9
$ENDCAPS
280
     0
  9
$JOINSTYLE
280
     0
  9
$LWDISPLAY
290
     0
  9
$INSUNITS
 70
     4
  9
$HYPERLINKBASE
  1

  9
$STYLESHEET
  1

  9
$XEDIT
290
     1
  9
$CEPSNTYPE
380
     0
  9
$PSTYLEMODE
290
     1
  9
$FINGERPRINTGUID
  2
{253AB773-8E86-4BB3-8F7C-E995D1E2D334}
  9
$VERSIONGUID
  2
{FAEB1C32-E019-11D5-929B-00C0DF256EC4}
  9
$EXTNAMES
290
     1
  9
$PSVPSCALE
 40
0.0
  9
$OLESTARTUP
290
     0
  9
$SORTENTS
280
   127
  9
$INDEXCTL
280
     0
  9
$HIDETEXT
280
     1
  9
$XCLIPFRAME
280
     2
  9
$HALOGAP
280
     0
  9
$OBSCOLOR
 70
   257
  9
$OBSLTYPE
280
     0
  9
$INTERSECTIONDISPLAY
280
     0
  9
$INTERSECTIONCOLOR
 70
   257
  9
$DIMASSOC
280
     2
  9
$PROJECTNAME
  1

  9
$CAMERADISPLAY
290
     0
  9
$LENSLENGTH
 40
50.0
  9
$CAMERAHEIGHT
 40
0.0
  9
$STEPSPERSEC
 40
2.0
  9
$STEPSIZE
 40
6.0
  9
$3DDWFPREC
 40
2.0
  9
$PSOLWIDTH
 40
5.0
  9
$PSOLHEIGHT
 40
80.0
  9
$LOFTANG1
 40
1.570796326794897
  9
$LOFTANG2
 40
1.570796326794897
  9
$LOFTMAG1
 40
0.0
  9
$LOFTMAG2
 40
0.0
  9
$LOFTPARAM
 70
     7
  9
$LOFTNORMALS
280
     1
  9
$LATITUDE
 40
37.795
  9
$LONGITUDE
 40
-122.394
  9
$NORTHDIRECTION
 40
0.0
  9
$TIMEZONE
 70
 -8000
  9
$LIGHTGLYPHDISPLAY
280
     1
  9
$TILEMODELIGHTSYNCH
280
     1
  9
$CMATERIAL
347
44
  9
$SOLIDHIST
280
     1
  9
$SHOWHIST
280
     1
  9
$DWFFRAME
280
     2
  9
$DGNFRAME
280
     2
  9
$REALWORLDSCALE
290
     1
  9
$INTERFERECOLOR
 62
   256
  9
$CSHADOW
280
     0
  9
$SHADOWPLANELOCATION
 40
0.0
  0
ENDSEC
  0
SECTION
  2
CLASSES
  0
CLASS
  1
ACDBDICTIONARYWDFLT
  2
AcDbDictionaryWithDefault
  3
ObjectDBX Classes
 90
        0
 91
        4
280
     0
281
     0
  0
CLASS
  1
VISUALSTYLE
  2
AcDbVisualStyle
  3
ObjectDBX Classes
 90
     4095
 91
        4
280
     0
281
     0
  0
CLASS
  1
MATERIAL
  2
AcDbMaterial
  3
ObjectDBX Classes
 90
     1153
 91
        4
280
     0
281
     0
  0
CLASS
  1
SCALE
  2
AcDbScale
  3
ObjectDBX Classes
 90
     1153
 91
        4
280
     0
281
     0
  0
CLASS
  1
SUN
  2
AcDbSun
  3
SCENEOE
 90
     1153
 91
        4
280
     0
281
     0
  0
CLASS
  1
DICTIONARYVAR
  2
AcDbDictionaryVar
  3
ObjectDBX Classes
 90
        0
 91
        4
280
     0
281
     0
  0
ENDSEC
  0
SECTION
  2
TABLES
  0
TABLE
  2
VPORT
  5
8
330
0
100
AcDbSymbolTable
 70
     1
  0
VPORT
  5
29
330
8
100
AcDbSymbolTableRecord
100
AcDbViewportTableRecord
  2
*Active
 70
     0
 10
0.0
 20
0.0
 11
1.0
 21
1.0
 12
-8.076506562219397
 22
53.44472026686957
 13
0.0
 23
0.0
 14
10.0
 24
10.0
 15
10.0
 25
10.0
 16
0.0
 26
0.0
 36
1.0
 17
0.0
 27
0.0
 37
0.0
 40
45.92582610355765
 41
0.905213700165213
 42
50.0
 43
0.0
 44
0.0
 50
0.0
 51
0.0
 71
     0
 72
   100
 73
     1
 74
     3
 75
     0
 76
     0
 77
     0
 78
     0
281
     0
 65
     1
110
0.0
120
0.0
130
0.0
111
1.0
121
0.0
131
0.0
112
0.0
122
1.0
132
0.0
 79
     0
146
0.0
 60
     3
 61
     5
292
     1
282
     1
141
0.0
142
0.0
 63
   250
361
69
  0
ENDTAB
  0
TABLE
  2
LTYPE
  5
5
330
0
100
AcDbSymbolTable
 70
     2
  0
LTYPE
  5
14
330
5
100
AcDbSymbolTableRecord
100
AcDbLinetypeTableRecord
  2
ByBlock
 70
     0
  3

 72
    65
 73
     0
 40
0.0
  0
LTYPE
  5
15
330
5
100
AcDbSymbolTableRecord
100
AcDbLinetypeTableRecord
  2
ByLayer
 70
     0
  3

 72
    65
 73
     0
 40
0.0
  0
LTYPE
  5
16
330
5
100
AcDbSymbolTableRecord
100
AcDbLinetypeTableRecord
  2
Continuous
 70
     0
  3
Solid line
 72
    65
 73
     0
 40
0.0
  0
LTYPE
  5
91
330
5
100
AcDbSymbolTableRecord
100
AcDbLinetypeTableRecord
  2
HIDDEN
 70
     0
  3
- - - - - - - - - - - - - - - - - - - - -
 72
    65
 73
     2
 40
9.524999999999999
 49
6.35
 74
     0
 49
-3.175
 74
     0
  0
ENDTAB
  0
TABLE
  2
LAYER
  5
2
330
0
100
AcDbSymbolTable
 70
     2
  0
LAYER
  5
10
330
2
100
AcDbSymbolTableRecord
100
AcDbLayerTableRecord
  2
0
 70
     0
 62
   253
420
  9416591
  6
Continuous
370
    70
390
F
347
46
348
0
  0
LAYER
  5
90
330
2
100
AcDbSymbolTableRecord
100
AcDbLayerTableRecord
  2
Hidden
 70
     0
 62
    98
420
   346117
  6
HIDDEN
370
    70
390
F
347
46
348
0
  0
ENDTAB
  0
TABLE
  2
STYLE
  5
3
330
0
100
AcDbSymbolTable
 70
     1
  0
STYLE
  5
11
330
3
100
AcDbSymbolTableRecord
100
AcDbTextStyleTableRecord
  2
Standard
 70
     0
 40
0.0
 41
1.0
 50
0.0
 71
     0
 42
2.5
  3
txt
  4

  0
ENDTAB
  0
TABLE
  2
VIEW
  5
6
330
0
100
AcDbSymbolTable
 70
     0
  0
ENDTAB
  0
TABLE
  2
UCS
  5
7
330
0
100
AcDbSymbolTable
 70
     0
  0
ENDTAB
  0
TABLE
  2
APPID
  5
9
330
0
100
AcDbSymbolTable
 70
     1
  0
APPID
  5
12
330
9
100
AcDbSymbolTableRecord
100
AcDbRegAppTableRecord
  2
ACAD
 70
     0
  0
ENDTAB
  0
TABLE
  2
DIMSTYLE
  5
A
330
0
100
AcDbSymbolTable
 70
     1
100
AcDbDimStyleTable
  0
DIMSTYLE
105
27
330
A
100
AcDbSymbolTableRecord
100
AcDbDimStyleTableRecord
  2
ISO-25
 70
     0
 41
2.5
 42
0.625
 43
3.75
 44
1.25
 73
     0
 74
     0
 77
     1
 78
     8
140
2.5
141
2.5
143
0.03937007874016
147
0.625
171
     3
172
     1
178
     0
271
     2
272
     2
274
     3
278
    44
283
     0
284
     8
340
11
  0
ENDTAB
  0
TABLE
  2
BLOCK_RECORD
  5
1
330
0
100
AcDbSymbolTable
 70
     1
  0
BLOCK_RECORD
  5
1F
330
1
100
AcDbSymbolTableRecord
100
AcDbBlockTableRecord
  2
*Model_Space
340
22
 70
     0
280
     1
281
     0
  0
BLOCK_RECORD
  5
1B
330
1
100
AcDbSymbolTableRecord
100
AcDbBlockTableRecord
  2
*Paper_Space
340
1E
 70
     0
280
     1
281
     0
  0
BLOCK_RECORD
  5
23
330
1
100
AcDbSymbolTableRecord
100
AcDbBlockTableRecord
  2
*Paper_Space0
340
26
 70
     0
280
     1
281
     0
  0
ENDTAB
  0
ENDSEC
  0
SECTION
  2
BLOCKS
  0
BLOCK
  5
20
330
1F
100
AcDbEntity
  8
0
100
AcDbBlockBegin
  2
*Model_Space
 70
     0
 10
0.0
 20
0.0
 30
0.0
  3
*Model_Space
  1
*Model_Space
  0
ENDBLK
  5
21
330
1F
100
AcDbEntity
  8
0
100
AcDbBlockEnd
  0
BLOCK
  5
1C
330
1B
100
AcDbEntity
 67
     1
  8
0
100
AcDbBlockBegin
  2
*Paper_Space
 70
     0
 10
0.0
 20
0.0
 30
0.0
  3
*Paper_Space
  1
*Paper_Space
  0
ENDBLK
  5
1D
330
1B
100
AcDbEntity
 67
     1
  8
0
100
AcDbBlockEnd
  0
BLOCK
  5
24
330
23
100
AcDbEntity
  8
0
100
AcDbBlockBegin
  2
*Paper_Space0
 70
     0
 10
0.0
 20
0.0
 30
0.0
  3
*Paper_Space0
  1
*Paper_Space0
  0
ENDBLK
  5
25
330
23
100
AcDbEntity
  8
0
100
AcDbBlockEnd
  0
ENDSEC
  0
SECTION
  2
ENTITIES
  0
LINE
  5
6A
330
1F
100
AcDbEntity
  8
0
 62
    98
420
   346117
370
    -3
100
AcDbLine
 10
-1.724838094553656
 20
74.07845625872436
 30
-0.0000000000000069
 11
-0.9060343950280071
 21
73.76633801476326
 31
-0.0000000000000041
  0
SPLINE
  5
6B
330
1F
100
AcDbEntity
  8
0
 62
    98
420
   346117
370
    -3
100
AcDbSpline
210
0.0
220
0.0
230
1.0
 70
     8
 71
     3
 72
    16
 73
    12
 74
     0
 42
0.000000001
 43
0.00000001
 40
0.0
 40
0.0
 40
0.0
 40
0.0
 40
0.004095597260542
 40
0.004095597260542
 40
0.0080378199832556
 40
0.0080378199832556
 40
0.0119830877666954
 40
0.0119830877666954
 40
0.0147466372911689
 40
0.0147466372911689
 40
0.0175277174642039
 40
0.0175277174642039
 40
0.0175277174642039
 40
0.0175277174642039
 10
9.146242152143243
 20
62.39987335667021
 30
0.0
 10
8.930796671250153
 20
63.49843199686768
 30
0.0
 10
8.538570670230616
 20
64.61848019163807
 30
0.0
 10
7.450682327703838
 20
66.77652872996272
 30
0.0
 10
6.774651945339928
 20
67.80077116430854
 30
-0.0000000000000035
 10
5.187299669644232
 20
69.71245858748738
 30
-0.0000000000000069
 10
4.283111434151335
 20
70.59098766774447
 30
0.0
 10
2.611105676705872
 20
71.90135556504897
 30
-0.0000000000000069
 10
1.906771178797621
 20
72.37005148843804
 30
0.0000000000000069
 10
0.4944818511358091
 20
73.17104428970825
 30
0.0
 10
-0.2125708308660205
 20
73.50199794152887
 30
0.0
 10
-0.9060343950280085
 20
73.7663380147633
 30
0.0
  0
LINE
  5
6C
330
1F
100
AcDbEntity
  8
0
 62
    98
420
   346117
370
    -3
100
AcDbLine
 10
9.146242152143273
 20
62.39987335667025
 30
-0.0000000000000035
 11
9.476296264835446
 21
60.71692416819036
 31
-0.0000000000000019
  0
SPLINE
  5
6D
330
1F
100
AcDbEntity
  8
0
 62
    98
420
   346117
370
    -3
100
AcDbSpline
210
0.0
220
0.0
230
1.0
 70
     8
 71
     3
 72
    10
 73
     6
 74
     0
 42
0.000000001
 43
0.00000001
 40
-0.0155066687424419
 40
-0.0155066687424419
 40
-0.0155066687424419
 40
-0.0155066687424419
 40
-0.0117418371015157
 40
-0.0117418371015157
 40
-0.0086502831714455
 40
-0.0086502831714455
 40
-0.0086502831714455
 40
-0.0086502831714455
 10
9.476296264834899
 20
60.7169241681932
 30
0.0
 10
9.6742612410512
 20
59.70749879441863
 30
-0.0000000000000035
 10
9.685683240611658
 20
58.77991009015774
 30
0.0000000000000069
 10
9.370524297884174
 20
57.32714464054838
 30
0.0000000000000035
 10
9.106448190854469
 20
56.77083095233603
 30
0.0000000000000035
 10
8.733951042357562
 20
56.33029925633344
 30
0.0000000000000035
  0
SPLINE
  5
6E
330
1F
100
AcDbEntity
  8
0
 62
    98
420
   346117
370
    -3
100
AcDbSpline
210
0.0
220
0.0
230
1.0
 70
     8
 71
     3
 72
    10
 73
     6
 74
     0
 42
0.000000001
 43
0.00000001
 40
-0.0044608348302744
 40
-0.0044608348302744
 40
-0.0044608348302744
 40
-0.0044608348302744
 40
-0.0024433870113385
 40
-0.0024433870113385
 40
0.0
 40
0.0
 40
0.0
 40
0.0
 10
-4.514208724901334
 20
73.99994870591945
 30
-0.0000000000000069
 10
-4.208206131869932
 20
74.2121324051161
 30
0.0
 10
-3.837414016312499
 20
74.33730958302563
 30
0.0
 10
-2.905828207215987
 20
74.40814338688173
 30
-0.0000000000000069
 10
-2.331210884656735
 20
74.30959836342988
 30
0.0
 10
-1.724838094403559
 20
74.07845625866715
 30
-0.0000000000000069
  0
ELLIPSE
  5
6F
330
1F
100
AcDbEntity
  8
0
 62
    98
420
   346117
370
    -3
100
AcDbEllipse
 10
-2.059512872492651
 20
46.65136466281392
 30
-0.0000000000000035
 11
-2.135860643718062
 21
-11.80839105511908
 31
0.0
210
0.0
220
0.0
230
-1.0
 40
0.4624508375897933
 41
0.869102551643083
 42
2.245421860491516
  0
ELLIPSE
  5
70
330
1F
100
AcDbEntity
  8
0
 62
    98
420
   346117
370
    -3
100
AcDbEllipse
 10
-22.99921287249265
 20
50.43886466281389
 30
-0.0000000000000035
 11
2.135860643718062
 21
11.80839105511908
 31
0.0
210
0.0
220
0.0
230
1.0
 40
0.4624508375897933
 41
0.7016937751518134
 42
2.272490101946709
  0
LINE
  5
71
330
1F
100
AcDbEntity
  8
0
 62
    98
420
   346117
370
    -3
100
AcDbLine
 10
-28.54862292357015
 20
43.57078291643084
 30
0.0
 11
-7.608922923570159
 21
39.78328291643086
 31
-0.0000000000000018
  0
ELLIPSE
  5
72
330
1F
100
AcDbEntity
  8
0
 62
    98
420
   346117
370
    -3
100
AcDbEllipse
 10
-68.7018380936072
 20
58.70539632396327
 30
0.0
 11
144.8338445759491
 21
-16.49730840207637
 31
-2.832158565480042E-14
210
-1.930407744798161E-16
220
2.198832186008295E-17
230
-1.0
 40
0.0500004853203132
 41
1.200814906522834
 42
1.20592687758541
  0
ELLIPSE
  5
73
330
1F
100
AcDbEntity
  8
0
 62
    98
420
   346117
370
    -3
100
AcDbEllipse
 10
-8.883210782510117
 20
47.88561137285231
 30
0.0
 11
-4.840162246533782
 21
-11.19770635445509
 31
-2.031542947456404E-15
210
6.607495707569107E-17
220
1.528642902924740E-16
230
-1.0
 40
0.6101468484743188
 41
0.9871015560801841
 42
1.148353407343601
  0
LINE
  5
74
330
1F
100
AcDbEntity
  8
0
 62
    98
420
   346117
370
    -3
100
AcDbLine
 10
-17.42829920090401
 20
44.19690025087176
 30
-0.0000000000000035
 11
-17.25172101398338
 21
44.1786883566148
 31
-0.0000000000000047
  0
ELLIPSE
  5
75
330
1F
100
AcDbEntity
  8
0
 62
    98
420
   346117
370
    -3
100
AcDbEllipse
 10
-4.918692932843582
 20
47.57259223959012
 30
0.0
 11
0.6674564511618943
 21
3.690122204724712
 31
0.0
210
0.0
220
0.0
230
1.0
 40
0.4624508375897933
 41
0.3122281393751232
 42
4.20879912539901
  0
LINE
  5
76
330
1F
100
AcDbEntity
  8
0
 62
    98
420
   346117
370
    -3
100
AcDbLine
 10
-6.734742686197144
 20
46.06206056820004
 30
0.0
 11
-3.746141206659223
 21
45.5214927423119
 31
-0.0000000000000017
  0
ELLIPSE
  5
77
330
1F
100
AcDbEntity
  8
0
 62
    98
420
   346117
370
    -3
100
AcDbEllipse
 10
1.403891327690962
 20
55.58148000870592
 30
-0.0000000000000035
 11
0.3587063067125313
 21
1.983155762552729
 31
0.0
210
2.731239090243947E-17
220
-4.940170133430209E-18
230
1.0
 40
0.4624508375897933
 41
3.975872065577882
 42
6.882932656268348
  0
LINE
  5
78
330
1F
100
AcDbEntity
  8
0
 62
    98
420
   346117
370
    -3
100
AcDbLine
 10
-6.742982552080754
 20
46.8369540982245
 30
0.0000000000000035
 11
-2.167102122302944
 21
53.88275314783395
 31
0.0000000000000007
  0
LINE
  5
79
330
1F
100
AcDbEntity
  8
0
 62
    98
420
   346117
370
    -3
100
AcDbLine
 10
-1.362830084453728
 20
54.7062243609039
 30
0.0
 11
1.842352341142003
 21
54.12648212787554
 31
-0.0000000000000033
  0
LINE
  5
7A
330
1F
100
AcDbEntity
  8
0
 62
    98
420
   346117
370
    -3
100
AcDbLine
 10
-3.746141197627392
 20
45.52149275621885
 30
-0.0000000000000035
 11
1.842352341142007
 21
54.12648212787555
 31
-0.0000000000000035
  0
LINE
  5
7B
330
1F
100
AcDbEntity
  8
0
 62
    98
420
   346117
370
    -3
100
AcDbLine
 10
1.182346422359449
 20
57.31216252581989
 30
-0.0000000000000035
 11
-4.807709381129476
 21
51.17911844639548
 31
0.0000000000000041
  0
LINE
  5
7C
330
1F
100
AcDbEntity
  8
0
 62
    98
420
   346117
370
    -3
100
AcDbLine
 10
-4.99000612061154
 20
54.79830304508332
 30
0.0000000000000035
 11
9.146242152143273
 21
62.39987335667024
 31
-0.0000000000000005
  0
LINE
  5
7D
330
1F
100
AcDbEntity
  8
0
 62
    98
420
   346117
370
    -3
100
AcDbLine
 10
-7.608922923570156
 20
39.78328291643088
 30
0.0000000000000069
 11
-6.120751048570138
 21
32.19507979143086
 31
0.0000000000000014
  0
SPLINE
  5
7E
330
1F
100
AcDbEntity
  8
0
 62
    98
420
   346117
370
    -3
100
AcDbSpline
210
0.0
220
0.0
230
1.0
 70
     8
 71
     3
 72
    22
 73
    18
 74
     0
 42
0.000000001
 43
0.00000001
 40
-0.034122789904727
 40
-0.034122789904727
 40
-0.034122789904727
 40
-0.034122789904727
 40
-0.0335741821875319
 40
-0.0335741821875319
 40
-0.0279723335643069
 40
-0.0279723335643069
 40
-0.0223704849410819
 40
-0.0223704849410819
 40
-0.016768636317857
 40
-0.016768636317857
 40
-0.011166787694632
 40
-0.011166787694632
 40
-0.0055649390714071
 40
-0.0055649390714071
 40
0.0000369095518179
 40
0.0000369095518179
 40
0.00275
 40
0.00275
 40
0.00275
 40
0.00275
 10
9.476296264835442
 20
60.71692416819037
 30
0.0000000000000035
 10
9.391412964186003
 20
60.61386831530359
 30
0.0000000000000069
 10
9.30686108998849
 20
60.50912251565708
 30
-0.0000000000000035
 10
8.362553530550613
 20
59.31642819279242
 30
0.0
 10
7.536011414584811
 20
58.05912335099615
 30
0.0
 10
5.929146572813029
 20
55.30884053936102
 30
0.0000000000000035
 10
5.148823847007043
 20
53.81586256952216
 30
0.0000000000000035
 10
3.613546769047017
 20
50.70055304142114
 30
-0.0000000000000035
 10
2.858592416892979
 20
49.07822148315899
 30
0.0
 10
1.353201069728973
 20
45.81052431783073
 30
0.0000000000000035
 10
0.6027640747190075
 20
44.16515871076459
 30
0.0000000000000035
 10
-0.914443574664697
 20
40.95771298744769
 30
0.0000000000000035
 10
-1.681214229038444
 20
39.39563287119691
 30
0.0000000000000035
 10
-3.251940213657579
 20
36.46107766913
 30
0.0
 10
-4.05589554390298
 20
35.08860258331386
 30
-0.0000000000000035
 10
-5.292294753524501
 20
33.27103306019129
 30
0.0
 10
-5.702527398497239
 20
32.71268331874882
 30
0.0000000000000035
 10
-6.120751048570134
 20
32.19507979143086
 30
0.0000000000000035
  0
LINE
  5
7F
330
1F
100
AcDbEntity
  8
0
 62
    98
420
   346117
370
    -3
100
AcDbLine
 10
-24.89296287249267
 20
60.09511466281389
 30
0.0000000000000035
 11
-20.09654923388371
 21
66.03127015614182
 31
-0.000000000000008
  0
SPLINE
  5
80
330
1F
100
AcDbEntity
  8
0
 62
    98
420
   346117
370
    -3
100
AcDbSpline
210
0.0
220
0.0
230
1.0
 70
     8
 71
     3
 72
    12
 73
     8
 74
     0
 42
0.000000001
 43
0.00000001
 40
0.0005910480076249
 40
0.0005910480076249
 40
0.0005910480076249
 40
0.0005910480076249
 40
0.0006121915573042
 40
0.0006121915573042
 40
0.0018689283773863
 40
0.0018689283773863
 40
0.0024051457786926
 40
0.0024051457786926
 40
0.0024051457786926
 40
0.0024051457786926
 10
-19.22875313149479
 20
66.97911357438366
 30
0.0
 10
-19.2318043070327
 20
66.97696552502052
 30
0.0
 10
-19.23477939704755
 20
66.97484395016889
 30
0.0
 10
-19.40958115519708
 20
66.84881850113439
 30
0.0
 10
-19.61320646009505
 20
66.61930605267283
 30
0.0
 10
-19.90508577409526
 20
66.26789171022988
 30
0.0
 10
-20.00750677082158
 20
66.14147122482605
 30
0.0
 10
-20.09654923427065
 20
66.0312701562118
 30
0.0
  0
LINE
  5
81
330
1F
100
AcDbEntity
  8
0
 62
    98
420
   346117
370
    -3
100
AcDbLine
 10
-26.97049792357013
 20
35.52390791643083
 30
0.0
 11
-28.54862292357015
 21
43.57078291643084
 31
0.0000000000000014
  0
LINE
  5
82
330
1F
100
AcDbEntity
  8
0
 62
    98
420
   346117
370
    -3
100
AcDbLine
 10
-17.64913399680661
 20
45.32206634782787
 30
-0.0000000000000035
 11
-17.13361667460176
 21
45.72703497876065
 31
-0.0000000000000026
  0
LINE
  5
83
330
1F
100
AcDbEntity
  8
0
 62
    98
420
   346117
370
    -3
100
AcDbLine
 10
-0.9060343950280138
 20
73.76633801476326
 30
0.0000000000000069
 11
-4.886824497492676
 21
56.47647403781393
 31
0.000000000000001
  0
SPLINE
  5
84
330
1F
100
AcDbEntity
  8
0
 62
    98
420
   346117
370
    -3
100
AcDbSpline
210
0.0
220
0.0
230
1.0
 70
     8
 71
     3
 72
    12
 73
     8
 74
     0
 42
0.000000001
 43
0.00000001
 40
-0.0000184405698911
 40
-0.0000184405698911
 40
-0.0000184405698911
 40
-0.0000184405698911
 40
0.0
 40
0.0
 40
0.0025151650997555
 40
0.0025151650997555
 40
0.0039117976036644
 40
0.0039117976036644
 40
0.0039117976036644
 40
0.0039117976036644
 10
-4.886824497492667
 20
56.47647403781393
 30
0.0000000000000035
 10
-4.886152792952769
 20
56.47302066119035
 30
-0.0000000000000069
 10
-4.885484313652265
 20
56.46956394381633
 30
0.0000000000000035
 10
-4.794087870383896
 20
55.99417910853403
 30
0.0
 10
-4.785290133567228
 20
55.56679832132217
 30
-0.0000000000000035
 10
-4.876214782460941
 20
55.05059698287815
 30
-0.0000000000000035
 10
-4.928087063628591
 20
54.90320839662686
 30
0.0
 10
-4.990006120611531
 20
54.79830304508334
 30
0.0
  0
LINE
  5
85
330
1F
100
AcDbEntity
  8
0
 62
    98
420
   346117
370
    -3
100
AcDbLine
 10
-4.886824497492677
 20
56.47647403781392
 30
0.0000000000000035
 11
-24.89296287249266
 21
60.09511466281389
 31
0.000000000000004
  0
SPLINE
  5
86
330
1F
100
AcDbEntity
  8
0
 62
    98
420
   346117
370
    -3
100
AcDbSpline
210
0.0
220
0.0
230
1.0
 70
     8
 71
     3
 72
    22
 73
    18
 74
     0
 42
0.000000001
 43
0.00000001
 40
-0.0182790281347815
 40
-0.0182790281347815
 40
-0.0182790281347815
 40
-0.0182790281347815
 40
-0.0161018633928865
 40
-0.0161018633928865
 40
-0.0133176201574137
 40
-0.0133176201574137
 40
-0.0105333769219409
 40
-0.0105333769219409
 40
-0.0077491336864682
 40
-0.0077491336864682
 40
-0.0049648904509954
 40
-0.0049648904509954
 40
-0.0021806472155226
 40
-0.0021806472155226
 40
0.0006035960199502
 40
0.0006035960199502
 40
0.0020342624383731
 40
0.0020342624383731
 40
0.0020342624383731
 40
0.0020342624383731
 10
-20.09654923387583
 20
66.0312701561404
 30
0.0
 10
-19.70258424767426
 20
66.45300632875804
 30
0.0
 10
-19.2344708231422
 20
66.83680825015543
 30
0.0
 10
-18.03246778938603
 20
67.64223838778013
 30
0.0
 10
-17.2608657893066
 20
68.04457299053551
 30
0.0000000000000069
 10
-15.58544067915649
 20
68.78159803635225
 30
-0.0000000000000069
 10
-14.68161756908584
 20
69.11628847941361
 30
-0.0000000000000069
 10
-12.80365285552943
 20
69.74969450949152
 30
0.0
 10
-11.82951125204368
 20
70.04841009650805
 30
0.0
 10
-9.872812168233187
 20
70.64153571814563
 30
0.0000000000000069
 10
-8.890254687908442
 20
70.93594575276667
 30
0.0
 10
-6.97862646699608
 20
71.55212957326246
 30
0.0
 10
-6.049555726408452
 20
71.8739033591372
 30
-0.0000000000000069
 10
-4.306803601546433
 20
72.57648398578972
 30
0.0000000000000069
 10
-3.493122217272039
 20
72.95729082656749
 30
0.0
 10
-2.3955317988797
 20
73.60242754807419
 30
0.0000000000000069
 10
-2.046382471078766
 20
73.83338057357811
 30
0.0000000000000069
 10
-1.724838094553661
 20
74.07845625872436
 30
0.0
  0
LINE
  5
87
330
1F
100
AcDbEntity
  8
0
 62
    98
420
   346117
370
    -3
100
AcDbLine
 10
-26.97049792357013
 20
35.52390791643083
 30
0.0
 11
-6.528115798570138
 21
31.82636104143086
 31
-0.0000000000000023
  0
SPLINE
  5
88
330
1F
100
AcDbEntity
  8
0
 62
    98
420
   346117
370
    -3
100
AcDbSpline
210
0.0
220
0.0
230
1.0
 70
     8
 71
     3
 72
    10
 73
     6
 74
     0
 42
0.000000001
 43
0.00000001
 40
0.0
 40
0.0
 40
0.0
 40
0.0
 40
0.0002257875119084
 40
0.0002257875119084
 40
0.000388650833691
 40
0.000388650833691
 40
0.000388650833691
 40
0.000388650833691
 10
-6.120751048570139
 20
32.19507979143088
 30
0.0000000000000035
 10
-6.10887368466548
 20
32.13451699526849
 30
0.0000000000000017
 10
-6.110118763759282
 20
32.07690201504047
 30
0.0
 10
-6.134725777548931
 20
31.98853980360533
 30
0.0000000000000035
 10
-6.151680179526451
 20
31.95530799345906
 30
0.0000000000000035
 10
-6.174686669796759
 20
31.92682602716572
 30
0.0000000000000035
  0
SPLINE
  5
89
330
1F
100
AcDbEntity
  8
0
 62
    98
420
   346117
370
    -3
100
AcDbSpline
210
0.0
220
0.0
230
1.0
 70
     8
 71
     3
 72
    12
 73
     8
 74
     0
 42
0.000000001
 43
0.00000001
 40
0.000388650833691
 40
0.000388650833691
 40
0.000388650833691
 40
0.000388650833691
 40
0.0004543218672311
 40
0.0004543218672311
 40
0.0006740306464604
 40
0.0006740306464604
 40
0.0008982222779906
 40
0.0008982222779906
 40
0.0008982222779906
 40
0.0008982222779906
 10
-6.174686669796759
 20
31.92682602716572
 30
0.0000000000000035
 10
-6.183963699042494
 20
31.91534144214845
 30
0.0
 10
-6.19422465196714
 20
31.90462906477466
 30
0.0000000000000035
 10
-6.242922590547823
 20
31.86170525523315
 30
0.0000000000000017
 10
-6.290283233531181
 20
31.83863089700445
 30
0.0000000000000017
 10
-6.400664098733916
 20
31.81471457416443
 30
0.0000000000000017
 10
-6.462914333199124
 20
31.81456762748335
 30
0.0000000000000052
 10
-6.528115798646742
 20
31.82636104133607
 30
0.0000000000000017
  0
SPLINE
  5
8A
330
1F
100
AcDbEntity
  8
0
 62
    98
420
   346117
370
    -3
100
AcDbSpline
210
0.0
220
0.0
230
1.0
 70
     8
 71
     3
 72
    14
 73
    10
 74
     0
 42
0.000000001
 43
0.00000001
 40
0.0017313810512337
 40
0.0017313810512337
 40
0.0017313810512337
 40
0.0017313810512337
 40
0.0032054598775666
 40
0.0032054598775666
 40
0.008228693136695
 40
0.008228693136695
 40
0.0099312505392566
 40
0.0099312505392566
 40
0.0156579162796128
 40
0.0156579162796128
 40
0.0156579162796128
 40
0.0156579162796128
 10
-19.22875939677079
 20
66.97910916385699
 30
0.0
 10
-18.83530451923847
 20
67.25609523400132
 30
-0.0000000000000069
 10
-18.40653975295836
 20
67.53169418466585
 30
0.0000000000000069
 10
-16.31166452081012
 20
68.75495201744818
 30
0.0
 10
-14.47228622099895
 20
69.54906885508288
 30
-0.0000000000000069
 10
-11.23632967737426
 20
70.85007192153793
 30
-0.0000000000000069
 10
-10.39810488288242
 20
71.18167168286303
 30
0.0
 10
-6.918996885068586
 20
72.59883348094857
 30
0.0
 10
-5.5901555232217
 20
73.24797375255815
 30
0.0000000000000069
 10
-4.514288008367999
 20
73.999893727902
 30
-0.0000000000000069
  0
SPLINE
  5
8B
330
1F
100
AcDbEntity
  8
0
 62
    98
420
   346117
370
    -3
100
AcDbSpline
210
0.0
220
0.0
230
1.0
 70
     8
 71
     3
 72
    14
 73
    10
 74
     0
 42
0.000000001
 43
0.00000001
 40
0.0013310536004304
 40
0.0013310536004304
 40
0.0013310536004304
 40
0.0013310536004304
 40
0.0079637294728959
 40
0.0079637294728959
 40
0.0146798762330776
 40
0.0146798762330776
 40
0.023321449650362
 40
0.023321449650362
 40
0.030839178405802
 40
0.030839178405802
 40
0.030839178405802
 40
0.030839178405802
 10
8.733858389402716
 20
56.33018968647061
 30
0.0000000000000035
 10
7.899612824312713
 20
55.35190126935205
 30
0.0000000000000035
 10
7.096820911927677
 20
54.22541504862602
 30
0.0000000000000035
 10
5.106544446983646
 20
51.04883433137801
 30
-0.0000000000000069
 10
4.064717058485134
 20
49.19653232421355
 30
0.0000000000000035
 10
1.545822332083979
 20
44.55524469746582
 30
0.0000000000000035
 10
0.0596092033215432
 20
41.7032098317235
 30
0.0
 10
-2.840723683599296
 20
36.64688254642142
 30
0.0000000000000035
 10
-4.334286221314304
 20
34.20454935275984
 30
0.0
 10
-6.17470914105869
 20
31.92679821230621
 30
0.0000000000000017
  0
LINE
  5
8C
330
1F
100
AcDbEntity
  8
0
 62
    98
420
   346117
370
    -3
100
AcDbLine
 10
-18.45611179857018
 20
49.43686104143086
 30
-0.0000000000000035
 11
-20.20108679857018
 21
49.75248604143086
 31
-0.0000000000000058
  0
LINE
  5
8D
330
1F
100
AcDbEntity
  8
0
 62
    98
420
   346117
370
    -3
100
AcDbLine
 10
-20.20108679857018
 20
49.75248604143086
 30
-0.0000000000000035
 11
-19.09639929857016
 21
44.11967354143086
 31
-0.0000000000000019
  0
LINE
  5
8E
330
1F
100
AcDbEntity
  8
0
 62
    98
420
   346117
370
    -3
100
AcDbLine
 10
-19.09639929857016
 20
44.11967354143086
 30
-0.0000000000000035
 11
-17.35142429857016
 21
43.80404854143086
 31
-0.0000000000000027
  0
LINE
  5
8F
330
1F
100
AcDbEntity
  8
0
 62
    98
420
   346117
370
    -3
100
AcDbLine
 10
-17.35142429857016
 20
43.80404854143086
 30
-0.0000000000000035
 11
-18.45611179857018
 21
49.43686104143086
 31
-0.0000000000000038
  0
SPLINE
  5
92
330
1F
100
AcDbEntity
  8
Hidden
370
    -3
100
AcDbSpline
210
0.0
220
0.0
230
1.0
 70
     8
 71
     3
 72
    12
 73
     8
 74
     0
 42
0.000000001
 43
0.00000001
 40
-0.0086502831714455
 40
-0.0086502831714455
 40
-0.0086502831714455
 40
-0.0086502831714455
 40
-0.0079078413309438
 40
-0.0079078413309438
 40
-0.0039267148198734
 40
-0.0039267148198734
 40
0.0
 40
0.0
 40
0.0
 40
0.0
 10
8.733951042357562
 20
56.33029925633344
 30
0.0000000000000035
 10
8.644494361114308
 20
56.2245057918341
 30
0.0
 10
8.548785392301143
 20
56.12538907382411
 30
0.0000000000000069
 10
7.90127624939215
 20
55.53877354327952
 30
0.0000000000000035
 10
7.190102967004559
 20
55.25121078784885
 30
0.0000000000000069
 10
5.538869861150073
 20
55.12534987616085
 30
0.0
 10
4.61532175962274
 20
55.28197514371858
 30
0.0000000000000069
 10
3.640833063894502
 20
55.65343865890158
 30
0.0000000000000035
  0
LINE
  5
93
330
1F
100
AcDbEntity
  8
Hidden
370
    -3
100
AcDbLine
 10
3.640833063894498
 20
55.65343865890156
 30
-0.0000000000000035
 11
3.281759126876634
 21
55.79031337837233
 31
-0.0000000000000056
  0
ELLIPSE
  5
94
330
1F
100
AcDbEntity
  8
Hidden
370
    -3
100
AcDbEllipse
 10
1.989274751876617
 20
62.38070400337235
 30
0.0000000000000069
 11
-5.179940059751719
 21
6.376217870801682
 31
2.736179275600660E-15
210
-3.177250841409888E-16
220
1.710077049380485E-16
230
-1.0
 40
0.5544805279805773
 41
3.905904451026737
 42
5.476700777821634
  0
LINE
  5
95
330
1F
100
AcDbEntity
  8
Hidden
370
    -3
100
AcDbLine
 10
-4.147576490253777
 20
64.7199987992481
 30
-0.0000000000000035
 11
-5.353263990253797
 21
70.86781129924809
 31
0.0000000000000021
  0
SPLINE
  5
96
330
1F
100
AcDbEntity
  8
Hidden
370
    -3
100
AcDbSpline
210
0.0
220
0.0
230
1.0
 70
     8
 71
     3
 72
    12
 73
     8
 74
     0
 42
0.000000001
 43
0.00000001
 40
-0.0097282513651848
 40
-0.0097282513651848
 40
-0.0097282513651848
 40
-0.0097282513651848
 40
-0.0073187421978601
 40
-0.0073187421978601
 40
-0.0049273151734733
 40
-0.0049273151734733
 40
-0.0044608348302744
 40
-0.0044608348302744
 40
-0.0044608348302744
 40
-0.0044608348302744
 10
-5.353263990253777
 20
70.8678112992481
 30
0.0
 10
-5.480003753472814
 20
71.51405860672494
 30
0.0000000000000069
 10
-5.487969335285184
 20
72.10890231690709
 30
0.0000000000000069
 10
-5.267121360946758
 20
73.12621623150106
 30
-0.0000000000000069
 10
-5.042210532261808
 20
73.54005931509393
 30
0.0
 10
-4.652253690525456
 20
73.8971724387095
 30
0.0
 10
-4.584962914170517
 20
73.95088610943705
 30
-0.0000000000000069
 10
-4.514208724901334
 20
73.99994870591945
 30
-0.0000000000000069
  0
ELLIPSE
  5
97
330
1F
100
AcDbEntity
  8
Hidden
370
    -3
100
AcDbEllipse
 10
-1.838033811412596
 20
68.96092726842915
 30
0.0
 11
-1.127926297008923
 21
1.402878923704453
 31
1.398942967576219E-15
210
4.653333400542609E-16
220
-6.230625050278161E-16
230
1.0
 40
0.5543114292129782
 41
1.196430966531671
 42
2.767227293326609
  0
LINE
  5
98
330
1F
100
AcDbEntity
  8
Hidden
370
    -3
100
AcDbLine
 10
-1.072593714833573
 20
67.42657935908947
 30
-0.0000000000000035
 11
-0.8200970027763692
 21
67.4418931378202
 31
-0.000000000000005
  0
ELLIPSE
  5
99
330
1F
100
AcDbEntity
  8
Hidden
370
    -3
100
AcDbEllipse
 10
-1.585537099355397
 20
68.9762410471599
 30
0.0
 11
1.127926297008929
 21
-1.402878923704449
 31
2.198338949048346E-15
210
-7.003365283642075E-16
220
1.003943346893658E-15
230
1.0
 40
0.554311429212976
 41
5.90881994691635
 42
7.479616273711246
  0
LINE
  5
9A
330
1F
100
AcDbEntity
  8
Hidden
370
    -3
100
AcDbLine
 10
-0.4493018950979793
 20
69.04515305144828
 30
0.0000000000000069
 11
-0.6193996943377612
 21
69.3861192535238
 31
-0.0000000000000009
  0
ELLIPSE
  5
9B
330
1F
100
AcDbEntity
  8
Hidden
370
    -3
100
AcDbEllipse
 10
-1.755634898595175
 20
69.31720724923538
 30
0.0
 11
1.12792629700892
 21
-1.402878923704457
 31
1.898565455996299E-15
210
-6.392492130039038E-16
220
8.393735470752646E-16
230
1.0
 40
0.5543114292129759
 41
1.196430966531675
 42
2.767227293326545
  0
LINE
  5
9C
330
1F
100
AcDbEntity
  8
Hidden
370
    -3
100
AcDbLine
 10
-2.5210749951742
 20
70.85155515857507
 30
-0.0000000000000069
 11
-2.773571707231395
 21
70.83624137984432
 31
-0.0000000000000054
  0
ELLIPSE
  5
9D
330
1F
100
AcDbEntity
  8
Hidden
370
    -3
100
AcDbEllipse
 10
-2.008131610652381
 20
69.30189347050462
 30
0.0
 11
-1.12792629700892
 21
1.402878923704463
 31
-2.198338949048352E-15
210
-7.435987367736886E-16
220
9.691601723037349E-16
230
1.0
 40
0.5543114292129762
 41
5.908819946916364
 42
7.479616273711252
  0
LINE
  5
9E
330
1F
100
AcDbEntity
  8
Hidden
370
    -3
100
AcDbLine
 10
-3.14436681490979
 20
69.23298146621623
 30
0.0
 11
-2.974269015670016
 21
68.89201526414074
 31
0.0000000000000038
  0
ELLIPSE
  5
9F
330
1F
100
AcDbEntity
  8
Hidden
370
    -3
100
AcDbEllipse
 10
2.709432331449111
 20
60.36684444475388
 30
0.0
 11
1.127926297008919
 21
-1.402878923704457
 31
2.997734930520472E-15
210
-9.137086124693968E-16
220
1.402215776054472E-15
230
1.0
 40
0.5543114292129777
 41
1.196430966531668
 42
2.767227293326608
  0
LINE
  5
A0
330
1F
100
AcDbEntity
  8
Hidden
370
    -3
100
AcDbLine
 10
1.943992234870097
 20
61.90119235409358
 30
-0.0000000000000035
 11
1.691495522812892
 21
61.88587857536282
 31
-0.0000000000000037
  0
ELLIPSE
  5
A1
330
1F
100
AcDbEntity
  8
Hidden
370
    -3
100
AcDbEllipse
 10
2.456935619391906
 20
60.35153066602313
 30
0.0000000000000069
 11
-1.127926297008922
 21
1.402878923704455
 31
1.099169474524173E-15
210
4.042460246939631E-16
220
-4.584927052094193E-16
230
1.0
 40
0.5543114292129812
 41
5.90881994691637
 42
7.479616273711247
  0
LINE
  5
A2
330
1F
100
AcDbEntity
  8
Hidden
370
    -3
100
AcDbLine
 10
1.320700415134495
 20
60.28261866173473
 30
-0.0000000000000035
 11
1.490798214374275
 21
59.94165245965924
 31
0.0000000000000012
  0
ELLIPSE
  5
A3
330
1F
100
AcDbEntity
  8
Hidden
370
    -3
100
AcDbEllipse
 10
2.627033418631688
 20
60.01056446394763
 30
0.0000000000000069
 11
-1.127926297008929
 21
1.402878923704448
 31
-8.993204791561412E-16
210
-2.697863628998734E-16
220
4.241430502753322E-16
230
1.0
 40
0.554311429212976
 41
1.196430966531666
 42
2.767227293326536
  0
LINE
  5
A4
330
1F
100
AcDbEntity
  8
Hidden
370
    -3
100
AcDbLine
 10
3.392473515210711
 20
58.47621655460796
 30
0.0000000000000035
 11
3.644970227267918
 21
58.49153033333871
 31
-0.0000000000000047
  0
ELLIPSE
  5
A5
330
1F
100
AcDbEntity
  8
Hidden
370
    -3
100
AcDbEllipse
 10
2.879530130688884
 20
60.0258782426784
 30
0.0000000000000035
 11
1.127926297008921
 21
-1.402878923704457
 31
-3.996979907360633E-16
210
1.175015941549708E-16
220
-1.904404209329223E-16
230
1.0
 40
0.5543114292129742
 41
5.908819946916353
 42
7.479616273711259
  0
LINE
  5
A6
330
1F
100
AcDbEntity
  8
Hidden
370
    -3
100
AcDbLine
 10
4.015765334946314
 20
60.0947902469668
 30
-0.0000000000000035
 11
3.845667535706532
 21
60.43575644904228
 31
-0.000000000000003
  0
LINE
  5
A7
330
1F
100
AcDbEntity
  8
Hidden
370
    -3
100
AcDbLine
 10
6.132949288238107
 20
65.69651881282147
 30
0.0
 11
7.50168792700923
 21
65.27714358482203
 31
0.0000000000000003
  0
LINE
  5
A8
330
1F
100
AcDbEntity
  8
Hidden
370
    -3
100
AcDbLine
 10
6.42052393764564
 20
64.23017282821871
 30
0.0000000000000035
 11
6.132949288238109
 21
65.69651881282147
 31
-0.0000000000000023
  0
LINE
  5
A9
330
1F
100
AcDbEntity
  8
Hidden
370
    -3
100
AcDbLine
 10
7.787711548751179
 20
63.8113864447766
 30
0.0
 11
6.420523937645639
 21
64.23017282821871
 31
0.0000000000000053
  0
LINE
  5
AA
330
1F
100
AcDbEntity
  8
Hidden
370
    -3
100
AcDbLine
 10
7.50168792700923
 20
65.27714358482203
 30
0.0
 11
7.787711548751193
 21
63.8113864447766
 31
0.0000000000000014
  0
SPLINE
  5
AB
330
1F
100
AcDbEntity
  8
Hidden
370
    -3
100
AcDbSpline
210
0.0
220
0.0
230
1.0
 70
     8
 71
     3
 72
    10
 73
     6
 74
     0
 42
0.000000001
 43
0.00000001
 40
0.0027174143793745
 40
0.0027174143793745
 40
0.0027174143793745
 40
0.0027174143793745
 40
0.0027891134308562
 40
0.0027891134308562
 40
0.0030271270418901
 40
0.0030271270418901
 40
0.0030271270418901
 40
0.0030271270418901
 10
-4.586840976558924
 20
57.65099147762285
 30
0.0000000000000069
 10
-4.571915394930465
 20
57.63190776885121
 30
0.0
 10
-4.55730562182913
 20
57.61276981052825
 30
0.0
 10
-4.495779407077764
 20
57.52990053333944
 30
-0.0000000000000035
 10
-4.450283021118047
 20
57.46272732703866
 30
0.0000000000000035
 10
-4.407135060186809
 20
57.39309121044217
 30
0.0
  0
SPLINE
  5
AC
330
1F
100
AcDbEntity
  8
Hidden
370
    -3
100
AcDbSpline
210
0.0
220
0.0
230
1.0
 70
     8
 71
     3
 72
    10
 73
     6
 74
     0
 42
0.000000001
 43
0.00000001
 40
0.0030271270418901
 40
0.0030271270418901
 40
0.0030271270418901
 40
0.0030271270418901
 40
0.0035200661409374
 40
0.0035200661409374
 40
0.0041796758048468
 40
0.0041796758048468
 40
0.0041796758048468
 40
0.0041796758048468
 10
-4.407135060186809
 20
57.39309121044217
 30
0.0
 10
-4.318368829614479
 20
57.24861121262371
 30
-0.0000000000000035
 10
-4.240313470339705
 20
57.09328885360639
 30
0.0
 10
-4.099008831034842
 20
56.72411936126446
 30
0.0
 10
-4.04968393124148
 20
56.50814349927199
 30
0.0000000000000035
 10
-4.035666095245544
 20
56.3082240804119
 30
-0.0000000000000035
  0
SPLINE
  5
AD
330
1F
100
AcDbEntity
  8
Hidden
370
    -3
100
AcDbSpline
210
0.0
220
0.0
230
1.0
 70
     8
 71
     3
 72
    12
 73
     8
 74
     0
 42
0.000000001
 43
0.00000001
 40
0.0041796758048468
 40
0.0041796758048468
 40
0.0041796758048468
 40
0.0041796758048468
 40
0.0042510188510186
 40
0.0042510188510186
 40
0.0049485711845621
 40
0.0049485711845621
 40
0.0055788388069962
 40
0.0055788388069962
 40
0.0055788388069962
 40
0.0055788388069962
 10
-4.035666095245544
 20
56.3082240804119
 30
-0.0000000000000035
 10
-4.03419622117968
 20
56.28661064297194
 30
0.0000000000000035
 10
-4.033098104469228
 20
56.26517635014727
 30
0.0
 10
-4.025771864086943
 20
56.03647819563328
 30
0.0
 10
-4.058955739009343
 20
55.82134742973985
 30
0.0000000000000069
 10
-4.2213243980798
 20
55.46422907366396
 30
0.0000000000000035
 10
-4.341922033178929
 20
55.31718296595567
 30
-0.0000000000000035
 10
-4.489386770204447
 20
55.20696993708203
 30
0.0
  0
ELLIPSE
  5
AE
330
1F
100
AcDbEntity
  8
Hidden
370
    -3
100
AcDbEllipse
 10
-1.02266036326785
 20
60.37171587869743
 30
0.0
 11
-5.096010516216442
 21
6.435846235574775
 31
0.0
210
-2.176005428001963E-17
220
-1.722997433211940E-17
230
1.0
 40
0.5461550977455022
 41
0.8141400370214755
 42
1.56110714983676
  0
LINE
  5
AF
330
1F
100
AcDbEntity
  8
Hidden
370
    -3
100
AcDbLine
 10
-7.07690045089315
 20
62.76611306623228
 30
0.0
 11
-4.147576490253786
 21
64.71999879924812
 31
0.0000000000000009
  0
SPLINE
  5
B0
330
1F
100
AcDbEntity
  8
Hidden
370
    -3
100
AcDbSpline
210
0.0
220
0.0
230
1.0
 70
     8
 71
     3
 72
     8
 73
     4
 74
     0
 42
0.000000001
 43
0.00000001
 40
0.0083678932533302
 40
0.0083678932533302
 40
0.0083678932533302
 40
0.0083678932533302
 40
0.008519435202821
 40
0.008519435202821
 40
0.008519435202821
 40
0.008519435202821
 10
-7.314893769337941
 20
55.45358969634649
 30
0.0000000000000069
 10
-7.350360809277069
 20
55.49191717423447
 30
0.0000000000000035
 10
-7.384221743259889
 20
55.53108765411488
 30
0.0
 10
-7.416246810553441
 20
55.5709333987683
 30
0.0
  0
SPLINE
  5
B1
330
1F
100
AcDbEntity
  8
Hidden
370
    -3
100
AcDbSpline
210
0.0
220
0.0
230
1.0
 70
     8
 71
     3
 72
    12
 73
     8
 74
     0
 42
0.000000001
 43
0.00000001
 40
0.0055808384889727
 40
0.0055808384889727
 40
0.0055808384889727
 40
0.0055808384889727
 40
0.0056480889196449
 40
0.0056480889196449
 40
0.0063694415458407
 40
0.0063694415458407
 40
0.00648807829503
 40
0.00648807829503
 40
0.00648807829503
 40
0.00648807829503
 10
-4.76926627672765
 20
54.9991200642875
 30
0.0
 10
-4.785088096628296
 20
54.98741325315279
 30
0.0
 10
-4.801144512678584
 20
54.9760737251715
 30
0.0
 10
-4.992696522664184
 20
54.84830679175259
 30
0.0
 10
-5.21552884562713
 20
54.77100503355854
 30
-0.0000000000000035
 10
-5.493330992320276
 20
54.73890860345262
 30
0.0
 10
-5.532980313569361
 20
54.73571086816979
 30
0.0000000000000069
 10
-5.572851798673271
 20
54.73366105456448
 30
0.0000000000000035
  0
SPLINE
  5
B2
330
1F
100
AcDbEntity
  8
Hidden
370
    -3
100
AcDbSpline
210
0.0
220
0.0
230
1.0
 70
     8
 71
     3
 72
     8
 73
     4
 74
     0
 42
0.000000001
 43
0.00000001
 40
0.00648807829503
 40
0.00648807829503
 40
0.00648807829503
 40
0.00648807829503
 40
0.0070162676694959
 40
0.0070162676694959
 40
0.0070162676694959
 40
0.0070162676694959
 10
-5.572851798673271
 20
54.73366105456448
 30
0.0000000000000035
 10
-5.750451457892512
 20
54.72516936020129
 30
0.0000000000000035
 10
-5.932760754789296
 20
54.74169990236793
 30
-0.0000000000000035
 10
-6.104317071117463
 20
54.77723722642738
 30
0.0
  0
SPLINE
  5
B3
330
1F
100
AcDbEntity
  8
Hidden
370
    -3
100
AcDbSpline
210
0.0
220
0.0
230
1.0
 70
     8
 71
     3
 72
    12
 73
     8
 74
     0
 42
0.000000001
 43
0.00000001
 40
0.0070162676694959
 40
0.0070162676694959
 40
0.0070162676694959
 40
0.0070162676694959
 40
0.0070907941720364
 40
0.0070907941720364
 40
0.0078411480457551
 40
0.0078411480457551
 40
0.0083678932533302
 40
0.0083678932533302
 40
0.0083678932533302
 40
0.0083678932533302
 10
-6.104317129975043
 20
54.77723723871868
 30
-0.0000000000000035
 10
-6.128513864094936
 20
54.78231336884418
 30
0.0
 10
-6.152504715561239
 20
54.7877147496301
 30
-0.0000000000000035
 10
-6.415189919044542
 20
54.85151360040658
 30
0.0000000000000035
 10
-6.664818164949462
 20
54.95485453429893
 30
0.0
 10
-7.046215310277018
 20
55.19986477153622
 30
0.0
 10
-7.190805088804758
 20
55.32112259074103
 30
0.0
 10
-7.314893769337941
 20
55.45358969634649
 30
0.0000000000000069
  0
ELLIPSE
  5
B4
330
1F
100
AcDbEntity
  8
Hidden
370
    -3
100
AcDbEllipse
 10
-28.10898210041854
 20
42.30489284607393
 30
0.0
 11
10.58250178928788
 21
15.16323549429466
 31
5.132253269547283E-15
210
-1.588476328980456E-16
220
-2.276062988982887E-16
230
1.0
 40
0.2700311646475501
 41
4.457365016413833
 42
6.02816134320873
  0
LINE
  5
B5
330
1F
100
AcDbEntity
  8
Hidden
370
    -3
100
AcDbLine
 10
-16.83582210172639
 20
56.25682353752459
 30
0.0
 11
-10.00622441153251
 21
60.81222733321643
 31
-0.0000000000000046
  0
ELLIPSE
  5
B6
330
1F
100
AcDbEntity
  8
Hidden
370
    -3
100
AcDbEllipse
 10
-3.951984323907213
 20
58.41783014568161
 30
0.0
 11
-5.096010516216446
 21
6.43584623557478
 31
5.468363851550091E-15
210
-5.223196553709638E-16
220
4.360914310598743E-16
230
-1.0
 40
0.5461550977455012
 41
4.702472354164715
 42
5.46904527015811
  0
ELLIPSE
  5
B7
330
1F
100
AcDbEntity
  8
Hidden
370
    -3
100
AcDbEllipse
 10
-4.924110029906661
 20
66.353599186801
 30
0.0000000000000035
 11
1.111941795741431
 21
-1.415480640236142
 31
-9.992007221626404E-17
210
3.429176065764389E-17
220
-4.365275549170343E-17
230
1.0
 40
0.5459867892590479
 41
5.915088177087389
 42
7.485884503882238
  0
LINE
  5
B8
330
1F
100
AcDbEntity
  8
Hidden
370
    -3
100
AcDbLine
 10
-0.8200970027763839
 20
67.4418931378202
 30
0.0000000000000035
 11
-4.164750044770318
 21
64.81447499875874
 31
0.0000000000000022
  0
ELLIPSE
  5
B9
330
1F
100
AcDbEntity
  8
Hidden
370
    -3
100
AcDbEllipse
 10
-5.092856693270289
 20
66.69562678414376
 30
-0.0000000000000069
 11
1.111941795741433
 21
-1.415480640236146
 31
0.0
210
-2.182637774585172E-17
220
-1.714588032882194E-17
230
1.0
 40
0.5459867892590499
 41
1.202699196702699
 42
2.77349552349764
  0
LINE
  5
BA
330
1F
100
AcDbEntity
  8
Hidden
370
    -3
100
AcDbLine
 10
-0.6193996943377467
 20
69.38611925352382
 30
-0.0000000000000069
 11
-3.971670292911972
 21
66.75271708380711
 31
-0.0000000000000017
  0
ELLIPSE
  5
BB
330
1F
100
AcDbEntity
  8
Hidden
370
    -3
100
AcDbEllipse
 10
-2.706718375609152
 20
68.75311321888802
 30
-0.0000000000000069
 11
-1.111941795741428
 21
1.415480640236145
 31
9.992007221626404E-17
210
-7.794451614934731E-17
220
9.360994834059724E-18
230
-1.0
 40
0.5459867892590462
 41
5.080486110476885
 42
6.651282437271788
  0
LINE
  5
BC
330
1F
100
AcDbEntity
  8
Hidden
370
    -3
100
AcDbLine
 10
-2.773571707231394
 20
70.83624137984431
 30
0.0
 11
-3.466078360745472
 21
70.2922374069303
 31
0.0000000000000032
  0
ELLIPSE
  5
BD
330
1F
100
AcDbEntity
  8
Hidden
370
    -3
100
AcDbEllipse
 10
-2.537971712245516
 20
68.4110856215453
 30
0.0
 11
1.111941795741431
 21
-1.415480640236144
 31
0.0
210
2.182637774585172E-17
220
1.714588032882193E-17
230
1.0
 40
0.5459867892590495
 41
4.344291850292493
 42
5.915088177087435
  0
LINE
  5
BE
330
1F
100
AcDbEntity
  8
Hidden
370
    -3
100
AcDbLine
 10
-2.974269015670014
 20
68.89201526414074
 30
0.0
 11
-3.65915811260382
 21
68.35399532188195
 31
-0.0000000000000033
  0
ELLIPSE
  5
BF
330
1F
100
AcDbEntity
  8
Hidden
370
    -3
100
AcDbEllipse
 10
-0.6632567799750325
 20
57.71740235389712
 30
0.0
 11
1.111941795741429
 21
-1.415480640236142
 31
0.0
210
2.182637774585172E-17
220
1.714588032882192E-17
230
1.0
 40
0.5459867892590491
 41
1.202699196702701
 42
2.773495523497643
  0
LINE
  5
C0
330
1F
100
AcDbEntity
  8
Hidden
370
    -3
100
AcDbLine
 10
-1.422616765111373
 20
59.25652654193937
 30
0.0
 11
1.943992234870091
 21
61.90119235409356
 31
-0.0000000000000025
  0
ELLIPSE
  5
C1
330
1F
100
AcDbEntity
  8
Hidden
370
    -3
100
AcDbEllipse
 10
1.722881537686107
 20
59.77488878864138
 30
-0.0000000000000035
 11
1.111941795741431
 21
-1.415480640236142
 31
-1.998401444325281E-16
210
6.858352131528777E-17
220
-8.730551098340685E-17
230
1.0
 40
0.545986789259048
 41
2.773495523497596
 42
4.344291850292445
  0
LINE
  5
C2
330
1F
100
AcDbEntity
  8
Hidden
370
    -3
100
AcDbLine
 10
0.6016951373278056
 20
59.71779848897804
 30
-0.0000000000000035
 11
1.320700415134484
 21
60.28261866173472
 31
-0.0000000000000036
  0
ELLIPSE
  5
C3
330
1F
100
AcDbEntity
  8
Hidden
370
    -3
100
AcDbEllipse
 10
1.891628201049737
 20
59.43286119129866
 30
-0.0000000000000035
 11
1.111941795741431
 21
-1.415480640236144
 31
-9.992007221626410E-17
210
7.794451614934729E-17
220
-9.360994834059582E-18
230
1.0
 40
0.5459867892590495
 41
4.344291850292493
 42
5.915088177087437
  0
LINE
  5
C4
330
1F
100
AcDbEntity
  8
Hidden
370
    -3
100
AcDbLine
 10
2.650988186186056
 20
57.89373700325637
 30
0.0
 11
3.392473515210702
 21
58.47621655460794
 31
0.0000000000000032
  0
ELLIPSE
  5
C5
330
1F
100
AcDbEntity
  8
Hidden
370
    -3
100
AcDbEllipse
 10
-0.4945101166114099
 20
57.37537475655438
 30
-0.0000000000000035
 11
-1.111941795741428
 21
1.415480640236145
 31
9.992007221626404E-17
210
-7.794451614934729E-17
220
9.360994834059726E-18
230
-1.0
 40
0.5459867892590462
 41
1.938893456887092
 42
3.509689783681997
  0
LINE
  5
C6
330
1F
100
AcDbEntity
  8
Hidden
370
    -3
100
AcDbLine
 10
0.6266762837469041
 20
57.43246505621774
 30
0.0
 11
4.015765334946308
 21
60.09479024696679
 31
0.000000000000002
  0
ELLIPSE
  5
C7
330
1F
100
AcDbEntity
  8
Hidden
370
    -3
100
AcDbEllipse
 10
-2.032554972172513
 20
56.71626260637797
 30
0.0000000000000035
 11
-0.09153658705959974
 21
1.797671008062786
 31
0.0
210
6.929915777265354E-17
220
3.528681477401836E-18
230
1.0
 40
0.781673132985956
 41
2.075296683520818
 42
3.646093010315729
  0
LINE
  5
C8
330
1F
100
AcDbEntity
  8
Hidden
370
    -3
100
AcDbLine
 10
-1.273194987036179
 20
55.1771384183357
 30
0.0
 11
-4.769266276727592
 21
54.99912006428755
 31
0.0000000000000054
  0
ELLIPSE
  5
C9
330
1F
100
AcDbEntity
  8
Hidden
370
    -3
100
AcDbEllipse
 10
-4.260551221194658
 20
56.79641259059302
 30
-0.0000000000000035
 11
0.09153658705960081
 21
-1.797671008062778
 31
9.992007221626352E-17
210
-8.033604414526275E-17
220
-5.967374399100510E-17
230
-1.0
 40
0.7816731329859552
 41
4.207888623658768
 42
5.778684950453661
  0
LINE
  5
CA
330
1F
100
AcDbEntity
  8
Hidden
370
    -3
100
AcDbLine
 10
-3.074670338211312
 20
57.72799051619428
 30
-0.0000000000000069
 11
-4.586840976559975
 21
57.65099147762417
 31
-0.0000000000000052
  0
ELLIPSE
  5
CB
330
1F
100
AcDbEntity
  8
Hidden
370
    -3
100
AcDbEllipse
 10
-9.511397336485844
 20
65.889841103461
 30
-0.0000000000000035
 11
0.7213828738950282
 21
1.762126581155895
 31
-1.162668419060635E-15
210
-2.313426947962774E-16
220
-5.651022870222391E-16
230
-1.0
 40
0.6423002892509478
 41
3.914647435665115
 42
5.485443762460015
  0
ELLIPSE
  5
CC
330
1F
100
AcDbEntity
  8
Hidden
370
    -3
100
AcDbEllipse
 10
-6.630901548831386
 20
66.03651463396734
 30
0.0000000000000035
 11
0.09153658705960167
 21
-1.797671008062799
 31
0.0
210
-1.385983155453071E-17
220
-7.057362954803768E-19
230
-1.0
 40
0.7816731329859549
 41
1.066295970068975
 42
2.637092296863843
  0
LINE
  5
CD
330
1F
100
AcDbEntity
  8
Hidden
370
    -3
100
AcDbLine
 10
-7.816782431814726
 20
65.10493670836607
 30
0.0000000000000035
 11
-10.81812368785235
 21
64.95210978177793
 31
0.0000000000000004
  0
ELLIPSE
  5
CE
330
1F
100
AcDbEntity
  8
Hidden
370
    -3
100
AcDbEllipse
 10
-6.462154885467756
 20
65.69448703662461
 30
0.0
 11
0.0915365870595989
 21
-1.797671008062788
 31
0.0
210
-9.701882088171496E-17
220
-4.940154068362521E-18
230
-1.0
 40
0.7816731329859556
 41
5.778684950453663
 42
7.349481277248588
  0
SPLINE
  5
CF
330
1F
100
AcDbEntity
  8
Hidden
370
    -3
100
AcDbSpline
210
0.0
220
0.0
230
1.0
 70
     8
 71
     3
 72
    12
 73
     8
 74
     0
 42
0.000000001
 43
0.00000001
 40
0.0001879296118973
 40
0.0001879296118973
 40
0.0001879296118973
 40
0.0001879296118973
 40
0.0006501226979187
 40
0.0006501226979187
 40
0.0013805292410603
 40
0.0013805292410603
 40
0.0016253624831451
 40
0.0016253624831451
 40
0.0016253624831451
 40
0.0016253624831451
 10
-7.815596058254616
 20
63.89387732670278
 30
-0.0000000000000035
 10
-7.92360828693317
 20
63.9308022177881
 30
0.0000000000000035
 10
-8.025166197252311
 20
63.98657297081339
 30
0.0000000000000035
 10
-8.26435055150432
 20
64.17532889700882
 30
0.0
 10
-8.385764603691383
 20
64.3319828222606
 30
0.0
 10
-8.506000689778363
 20
64.58228487522314
 30
0.0
 10
-8.53248022004431
 20
64.64820278681823
 30
-0.0000000000000035
 10
-8.55515229867061
 20
64.7167191514209
 30
-0.0000000000000069
  0
SPLINE
  5
D0
330
1F
100
AcDbEntity
  8
Hidden
370
    -3
100
AcDbSpline
210
0.0
220
0.0
230
1.0
 70
     8
 71
     3
 72
    10
 73
     6
 74
     0
 42
0.000000001
 43
0.00000001
 40
-0.0012330510667867
 40
-0.0012330510667867
 40
-0.0012330510667867
 40
-0.0012330510667867
 40
-0.0006960394506966
 40
-0.0006960394506966
 40
-0.0003201875528349
 40
-0.0003201875528349
 40
-0.0003201875528349
 40
-0.0003201875528349
 10
-6.756172509697964
 20
64.10172534160027
 30
0.0
 10
-6.88303551139551
 20
64.00930208937378
 30
0.0
 10
-7.01717179332767
 20
63.93969984627185
 30
0.0
 10
-7.250306321425976
 20
63.86495371956445
 30
-0.0000000000000069
 10
-7.34658585496477
 20
63.84711592175677
 30
0.0
 10
-7.441614744748645
 20
63.84228137958858
 30
-0.0000000000000069
  0
SPLINE
  5
D1
330
1F
100
AcDbEntity
  8
Hidden
370
    -3
100
AcDbSpline
210
0.0
220
0.0
230
1.0
 70
     8
 71
     3
 72
    11
 73
     7
 74
     0
 42
0.000000001
 43
0.00000001
 40
-0.0003201875528349
 40
-0.0003201875528349
 40
-0.0003201875528349
 40
-0.0003201875528349
 40
0.0
 40
0.0
 40
0.0
 40
0.0001879296118973
 40
0.0001879296118973
 40
0.0001879296118973
 40
0.0001879296118973
 10
-7.441614744748638
 20
63.84228137958856
 30
0.0000000000000069
 10
-7.522569578556347
 20
63.83816332424591
 30
0.0
 10
-7.602616797665803
 20
63.84348205709482
 30
0.0
 10
-7.680802936600614
 20
63.85827877010843
 30
-0.0000000000000069
 10
-7.726693198778755
 20
63.86696349413776
 30
0.0
 10
-7.771678301215898
 20
63.87886213819083
 30
0.0
 10
-7.815596058254619
 20
63.89387732670279
 30
0.0
  0
LINE
  5
D2
330
1F
100
AcDbEntity
  8
Hidden
370
    -3
100
AcDbLine
 10
-8.55515229867047
 20
64.71671915142049
 30
-0.0000000000000069
 11
-7.648035768451104
 21
64.76290911102333
 31
-0.0000000000000014
  0
ELLIPSE
  5
D3
330
1F
100
AcDbEntity
  8
Hidden
370
    -3
100
AcDbEllipse
 10
-5.840314293509151
 20
66.6575665843682
 30
0.0000000000000035
 11
2.690376928560673
 21
1.327355258500317
 31
-1.665334536937735E-16
210
-2.522096735273401E-17
220
-7.434297968087826E-17
230
-1.0
 40
0.3014722858282605
 41
0.9610880101195249
 42
2.53188433691443
  0
ELLIPSE
  5
D4
330
1F
100
AcDbEntity
  8
Hidden
370
    -3
100
AcDbEllipse
 10
-5.671567630145526
 20
66.31553898702545
 30
0.0000000000000035
 11
-2.690376928560673
 21
-1.327355258500316
 31
-4.163336342344336E-17
210
1.211551278487059E-17
220
-5.592222505782418E-17
230
1.0
 40
0.3014722858282604
 41
0.6097083166753725
 42
2.180504643470281
  0
LINE
  5
D5
330
1F
100
AcDbEntity
  8
Hidden
370
    -3
100
AcDbLine
 10
-7.6480357684511
 20
64.76290911102333
 30
0.0000000000000035
 11
-7.816782431814726
 21
65.10493670836607
 31
0.000000000000001
  0
ELLIPSE
  5
D6
330
1F
100
AcDbEntity
  8
Hidden
370
    -3
100
AcDbEllipse
 10
-5.696548776564622
 20
68.60087241978574
 30
-0.0000000000000069
 11
-2.690376928560672
 21
-1.327355258500317
 31
8.326672684688674E-17
210
2.489098675840307E-17
220
1.228050308203606E-17
230
1.0
 40
0.3014722858282606
 41
0.6097083166753725
 42
2.180504643470273
  0
ELLIPSE
  5
D7
330
1F
100
AcDbEntity
  8
Hidden
370
    -3
100
AcDbEllipse
 10
-5.527802113200997
 20
68.25884482244301
 30
0.0
 11
2.690376928560673
 21
1.327355258500317
 31
-4.163336342344338E-17
210
1.211551278487059E-17
220
-5.592222505782418E-17
230
-1.0
 40
0.3014722858282604
 41
0.9610880101195249
 42
2.531884336914427
  0
LINE
  5
D8
330
1F
100
AcDbEntity
  8
Hidden
370
    -3
100
AcDbLine
 10
-3.659158112603823
 20
68.35399532188194
 30
0.0
 11
-3.827904775967452
 21
68.69602291922467
 31
-0.0000000000000064
  0
ELLIPSE
  5
D9
330
1F
100
AcDbEntity
  8
Hidden
370
    -3
100
AcDbEllipse
 10
-2.201301635536142
 20
57.05829020372069
 30
0.0
 11
0.09153658705959859
 21
-1.797671008062786
 31
9.992007221626394E-17
210
-3.875654948167070E-17
220
-5.755653510456392E-17
230
-1.0
 40
0.7816731329859558
 41
1.066295970068974
 42
2.637092296863903
  0
SPLINE
  5
DA
330
1F
100
AcDbEntity
  8
Hidden
370
    -3
100
AcDbSpline
210
0.0
220
0.0
230
1.0
 70
     8
 71
     3
 72
    12
 73
     8
 74
     0
 42
0.000000001
 43
0.00000001
 40
-0.002496746556514
 40
-0.002496746556514
 40
-0.002496746556514
 40
-0.002496746556514
 40
-0.0021106626303186
 40
-0.0021106626303186
 40
-0.0013957096362082
 40
-0.0013957096362082
 40
-0.0010597865652449
 40
-0.0010597865652449
 40
-0.0010597865652449
 40
-0.0010597865652449
 10
-5.660656089422874
 20
57.38178103027296
 30
0.0000000000000035
 10
-5.622653089336303
 20
57.50428227953665
 30
0.0
 10
-5.575338298885415
 20
57.6238174426954
 30
0.0000000000000035
 10
-5.415367356868871
 20
57.95042573763537
 30
0.0000000000000035
 10
-5.283259818242382
 20
58.14146723830169
 30
0.0
 10
-5.05747912463525
 20
58.37433268146123
 30
0.0000000000000035
 10
-4.981273044300595
 20
58.44082798332102
 30
0.0
 10
-4.902027865987378
 20
58.49856090929261
 30
0.0000000000000035
  0
SPLINE
  5
DB
330
1F
100
AcDbEntity
  8
Hidden
370
    -3
100
AcDbSpline
210
0.0
220
0.0
230
1.0
 70
     8
 71
     3
 72
    12
 73
     8
 74
     0
 42
0.000000001
 43
0.00000001
 40
-0.0039500593826606
 40
-0.0039500593826606
 40
-0.0039500593826606
 40
-0.0039500593826606
 40
-0.0036070048905692
 40
-0.0036070048905692
 40
-0.0028488639264636
 40
-0.0028488639264636
 40
-0.002496746556514
 40
-0.002496746556514
 40
-0.002496746556514
 40
-0.002496746556514
 10
-5.674058655162987
 20
56.01026558924428
 30
0.0000000000000035
 10
-5.705814432371271
 20
56.10622837104372
 30
0.0000000000000035
 10
-5.73015505225449
 20
56.2074444719684
 30
0.0000000000000035
 10
-5.78335169902098
 20
56.54507856777302
 30
-0.0000000000000035
 10
-5.781408067571967
 20
56.79292004156836
 30
-0.0000000000000035
 10
-5.722232410014588
 20
57.15586679016344
 30
0.0000000000000035
 10
-5.695317014891577
 20
57.27005750240459
 30
0.0000000000000035
 10
-5.660656089422877
 20
57.38178103027298
 30
0.0
  0
LINE
  5
DC
330
1F
100
AcDbEntity
  8
Hidden
370
    -3
100
AcDbLine
 10
-4.902027868053444
 20
58.4985609087169
 30
0.0000000000000035
 11
-2.960661620672463
 21
58.59741439176297
 31
0.0000000000000026
  0
ELLIPSE
  5
DD
330
1F
100
AcDbEntity
  8
Hidden
370
    -3
100
AcDbEllipse
 10
-1.266948863269372
 20
59.62264798953911
 30
-0.0000000000000035
 11
-2.690376928560672
 21
-1.327355258500317
 31
8.326672684688674E-17
210
2.489098675840307E-17
220
1.228050308203606E-17
230
1.0
 40
0.3014722858282605
 41
0.6097083166753743
 42
2.180504643470278
  0
ELLIPSE
  5
DE
330
1F
100
AcDbEntity
  8
Hidden
370
    -3
100
AcDbEllipse
 10
-1.098202199905747
 20
59.28062039219636
 30
0.0
 11
2.690376928560673
 21
1.327355258500317
 31
-1.665334536937735E-16
210
-7.434297968087827E-17
220
2.522096735273399E-17
230
-1.0
 40
0.30147228582826
 41
0.9610880101195248
 42
2.531884336914427
  0
LINE
  5
DF
330
1F
100
AcDbEntity
  8
Hidden
370
    -3
100
AcDbLine
 10
0.7704418006914256
 20
59.3757708916353
 30
0.0000000000000035
 11
0.6016951373278
 21
59.71779848897803
 31
-0.0000000000000038
  0
ELLIPSE
  5
E0
330
1F
100
AcDbEntity
  8
Hidden
370
    -3
100
AcDbEllipse
 10
-1.241967716850272
 20
57.33731455677881
 30
-0.0000000000000035
 11
-2.690376928560674
 21
-1.327355258500318
 31
8.326672684688678E-17
210
4.945199292247520E-17
220
-3.750147043477006E-17
230
1.0
 40
0.30147228582826
 41
0.6097083166753725
 42
2.180504643470282
  0
ELLIPSE
  5
E1
330
1F
100
AcDbEntity
  8
Hidden
370
    -3
100
AcDbEllipse
 10
-1.410714380213907
 20
57.67934215412153
 30
0.0
 11
2.690376928560673
 21
1.327355258500316
 31
-2.081668171172169E-16
210
-6.222746689600769E-17
220
-3.070125770509015E-17
230
-1.0
 40
0.3014722858282605
 41
0.961088010119524
 42
2.531884336914419
  0
LINE
  5
E2
330
1F
100
AcDbEntity
  8
Hidden
370
    -3
100
AcDbLine
 10
0.4579296203832649
 20
57.77449265356046
 30
0.0
 11
0.6266762837468954
 21
57.43246505621773
 31
-0.0000000000000039
  0
ELLIPSE
  5
E3
330
1F
100
AcDbEntity
  8
Hidden
370
    -3
100
AcDbEllipse
 10
-10.52816267467094
 20
48.18314454150129
 30
0.0000000000000035
 11
-4.811896432956217
 21
-11.20529039652071
 31
0.0
210
5.100691507406308E-17
220
-2.190393858754387E-17
230
1.0
 40
0.61036910163076
 41
5.145597229960582
 42
5.306178579440744
  0
ELLIPSE
  5
E4
330
1F
100
AcDbEntity
  8
Hidden
370
    -3
100
AcDbEllipse
 10
-68.7018380936072
 20
58.70539632396327
 30
0.0
 11
144.8338445759491
 21
-16.49730840207637
 31
-2.832158565480042E-14
210
-1.930407744798161E-16
220
2.198832186008295E-17
230
-1.0
 40
0.0500004853203132
 41
1.20592687758541
 42
1.213026623724603
  0
ELLIPSE
  5
E5
330
1F
100
AcDbEntity
  8
Hidden
370
    -3
100
AcDbEllipse
 10
-46.41577668359519
 20
54.67437116169165
 30
-0.0000000000000035
 11
144.6740394669258
 21
-16.46795882387167
 31
-3.233153312760372E-14
210
2.331763036728411E-16
220
8.519723954367595E-17
230
1.0
 40
0.0500524468878271
 41
4.909517178853767
 42
4.919812469265084
  0
ELLIPSE
  5
E6
330
1F
100
AcDbEntity
  8
Hidden
370
    -3
100
AcDbEllipse
 10
-8.365018557843579
 20
48.19595161459011
 30
0.0
 11
-0.6674564511618943
 21
-3.690122204724712
 31
0.0
210
0.0
220
0.0
230
-1.0
 40
0.4624508375897933
 41
5.215978835370323
 42
9.11254982139423
  0
LINE
  5
E7
330
1F
100
AcDbEntity
  8
Hidden
370
    -3
100
AcDbLine
 10
-7.192466831659229
 20
46.14485211731191
 30
0.0
 11
-6.734742686197145
 21
46.06206056820005
 31
0.0000000000000025
  0
ELLIPSE
  5
E8
330
1F
100
AcDbEntity
  8
Hidden
370
    -3
100
AcDbEllipse
 10
-2.042434297309041
 20
56.20483938370591
 30
0.0
 11
0.3587063067125313
 21
1.983155762552729
 31
0.0
210
2.731239090243947E-17
220
-4.940170133430209E-18
230
1.0
 40
0.4624508375897933
 41
3.975872065577878
 42
6.882932656268345
  0
LINE
  5
E9
330
1F
100
AcDbEntity
  8
Hidden
370
    -3
100
AcDbLine
 10
1.182346422359449
 20
57.31216252581989
 30
-0.0000000000000035
 11
-2.263979202640556
 21
57.93552190081989
 31
0.0000000000000019
  0
ELLIPSE
  5
EA
330
1F
100
AcDbEntity
  8
Hidden
370
    -3
100
AcDbEllipse
 10
-14.39555134004978
 20
49.28673337901873
 30
-0.0000000000000069
 11
0.8966439603982397
 21
2.087982586187157
 31
-3.279681202023878E-15
210
6.205093183502046E-16
220
1.304275853338095E-15
230
1.0
 40
0.6103691016307604
 41
2.275411845492346
 42
3.157970315001711
  0
ELLIPSE
  5
EB
330
1F
100
AcDbEntity
  8
Hidden
370
    -3
100
AcDbEllipse
 10
-25.85839293284358
 20
51.3600922395901
 30
0.0
 11
-0.3979941324850044
 21
-2.200363758678897
 31
0.0
210
0.0
220
0.0
230
-1.0
 40
0.4624508375897933
 41
0.0
 42
6.283185307179586
  0
ELLIPSE
  5
EC
330
1F
100
AcDbEntity
  8
Hidden
370
    -3
100
AcDbEllipse
 10
-14.39555134004978
 20
49.28673337901873
 30
-0.0000000000000069
 11
0.8966439603982397
 21
2.087982586187157
 31
-3.279681202023878E-15
210
6.205093183502046E-16
220
1.304275853338095E-15
230
1.0
 40
0.6103691016307604
 41
4.808314984967652
 42
5.690873454477016
  0
ELLIPSE
  5
ED
330
1F
100
AcDbEntity
  8
Hidden
370
    -3
100
AcDbEllipse
 10
-18.12202668377754
 20
49.96076525934026
 30
0.0
 11
26.9881934928718
 21
-3.074091919401769
 31
-9.046998679245242E-15
210
-3.309270419653990E-16
220
3.769426604585647E-17
230
-1.0
 40
0.0500004853203131
 41
4.899895501830827
 42
4.961101109089663
  0
ELLIPSE
  5
EE
330
1F
100
AcDbEntity
  8
Hidden
370
    -3
100
AcDbEllipse
 10
-12.75130448648973
 20
48.9893277352961
 30
0.0
 11
0.9019109837814758
 21
2.086569383386909
 31
-1.892778387384502E-15
210
-4.322843122401069E-16
220
-7.202714800785748E-16
230
-1.0
 40
0.6101468484743213
 41
0.5296598583665562
 42
1.394138560988142
  0
ELLIPSE
  5
EF
330
1F
100
AcDbEntity
  8
Hidden
370
    -3
100
AcDbEllipse
 10
-8.71401355784358
 20
48.25907661459012
 30
0.0
 11
-0.3979941324850046
 21
-2.200363758678898
 31
0.0
210
0.0
220
0.0
230
-1.0
 40
0.4624508375897932
 41
0.0
 42
6.283185307179586
  0
ELLIPSE
  5
F0
330
1F
100
AcDbEntity
  8
Hidden
370
    -3
100
AcDbEllipse
 10
-12.75130448648973
 20
48.9893277352961
 30
0.0
 11
0.9019109837814758
 21
2.086569383386909
 31
-1.892778387384502E-15
210
-4.322843122401069E-16
220
-7.202714800785748E-16
230
-1.0
 40
0.6101468484743213
 41
3.202867797835947
 42
4.067346703887456
  0
ELLIPSE
  5
F1
330
1F
100
AcDbEntity
  8
Hidden
370
    -3
100
AcDbEllipse
 10
-18.12202668377754
 20
49.96076525934026
 30
0.0
 11
26.9881934928718
 21
-3.074091919401769
 31
-9.046998679245242E-15
210
-3.309270419653990E-16
220
3.769426604585647E-17
230
-1.0
 40
0.0500004853203131
 41
1.423414263568781
 42
1.484433892846163
  0
ELLIPSE
  5
F2
330
1F
100
AcDbEntity
  8
Hidden
370
    -3
100
AcDbEllipse
 10
-8.365018557843579
 20
48.19595161459011
 30
0.0
 11
0.4691894872756069
 21
2.593976793849536
 31
0.0
210
0.0
220
0.0
230
1.0
 40
0.4624508375897933
 41
0.0
 42
6.283185307179586
  0
LINE
  5
F3
330
1F
100
AcDbEntity
  8
Hidden
370
    -3
100
AcDbLine
 10
-7.1924668226274
 20
46.14485213121884
 30
0.0000000000000035
 11
-6.742982552080756
 21
46.8369540982245
 31
0.0000000000000052
  0
LINE
  5
F4
330
1F
100
AcDbEntity
  8
Hidden
370
    -3
100
AcDbLine
 10
-2.167102122302945
 20
53.88275314783396
 30
0.0000000000000035
 11
-1.603973283858004
 21
54.74984150287553
 31
0.0000000000000051
  0
LINE
  5
F5
330
1F
100
AcDbEntity
  8
Hidden
370
    -3
100
AcDbLine
 10
-2.263979202640557
 20
57.93552190081989
 30
0.0
 11
-8.254035006129472
 21
51.8024778213955
 31
-0.0000000000000005
  0
ELLIPSE
  5
F6
330
1F
100
AcDbEntity
  8
Hidden
370
    -3
100
AcDbEllipse
 10
4.104548356259005
 20
45.94049978447015
 30
0.0
 11
26.95841556896118
 21
-3.06862294840372
 31
-8.283860049908255E-15
210
3.159087807062449E-16
220
7.577996585585258E-17
230
1.0
 40
0.050052446887827
 41
3.916132789703016
 42
3.995231982438265
  0
ELLIPSE
  5
F7
330
1F
100
AcDbEntity
  8
Hidden
370
    -3
100
AcDbEllipse
 10
4.104548356259005
 20
45.94049978447015
 30
0.0
 11
26.95841556896118
 21
-3.06862294840372
 31
-8.283860049908255E-15
210
3.159087807062449E-16
220
7.577996585585258E-17
230
1.0
 40
0.050052446887827
 41
2.18650274559045
 42
2.265788119737067
  0
LINE
  5
F8
330
1F
100
AcDbEntity
  8
Hidden
370
    -3
100
AcDbLine
 10
-1.603973283858004
 20
54.74984150287554
 30
0.0000000000000069
 11
-1.362830084453728
 21
54.7062243609039
 31
0.0000000000000043
  0
LINE
  5
F9
330
1F
100
AcDbEntity
  8
Hidden
370
    -3
100
AcDbLine
 10
-4.807709381402502
 20
51.17911844611594
 30
-0.0000000000000035
 11
-8.254035006402502
 21
51.80247782111594
 31
-0.0000000000000019
  0
SPLINE
  5
FA
330
1F
100
AcDbEntity
  8
Hidden
370
    -3
100
AcDbSpline
210
0.0
220
0.0
230
1.0
 70
     8
 71
     3
 72
    14
 73
    10
 74
     0
 42
0.000000001
 43
0.00000001
 40
0.0
 40
0.0
 40
0.0
 40
0.0
 40
0.0000679496444878
 40
0.0000679496444878
 40
0.0001436764135966
 40
0.0001436764135966
 40
0.0002656757335496
 40
0.0002656757335496
 40
0.0005910480076249
 40
0.0005910480076249
 40
0.0005910480076249
 40
0.0005910480076249
 10
-18.93788460172641
 20
66.9752610375246
 30
0.0000000000000069
 10
-18.94145903615163
 20
66.99348711403889
 30
0.0
 10
-18.9470796655933
 20
67.00845245869148
 30
0.0
 10
-18.96236013681157
 20
67.03398130056584
 30
0.0
 10
-18.97302868666651
 20
67.04502256579532
 30
-0.0000000000000069
 10
-19.01028881975635
 20
67.06478921687959
 30
0.0
 10
-19.03664348473127
 20
67.0645430350983
 30
0.0
 10
-19.11682771955955
 20
67.0514949015725
 30
0.0000000000000069
 10
-19.18179943117531
 20
67.01216933632249
 30
0.0000000000000069
 10
-19.22875313149479
 20
66.97911357438366
 30
0.0
  0
LINE
  5
FB
330
1F
100
AcDbEntity
  8
Hidden
370
    -3
100
AcDbLine
 10
-16.83582210172639
 20
56.25682353752459
 30
0.0
 11
-18.93788460172641
 21
66.9752610375246
 31
-0.0000000000000006
  0
LINE
  5
FC
330
1F
100
AcDbEntity
  8
Hidden
370
    -3
100
AcDbLine
 10
-26.81649772541852
 20
35.71450222107392
 30
0.0
 11
-26.97049792357013
 21
35.52390791643084
 31
0.0000000000000008
  0
LINE
  5
FD
330
1F
100
AcDbEntity
  8
Hidden
370
    -3
100
AcDbLine
 10
-13.72948424301676
 20
46.94037278960493
 30
0.0
 11
-17.25172101398342
 21
44.1786883566148
 31
0.000000000000001
  0
LINE
  5
FE
330
1F
100
AcDbEntity
  8
Hidden
370
    -3
100
AcDbLine
 10
-18.88909154949607
 20
44.3480080749075
 30
-0.0000000000000035
 11
-17.64913399680662
 21
45.32206634782788
 31
-0.0000000000000015
  0
LINE
  5
FF
330
1F
100
AcDbEntity
  8
Hidden
370
    -3
100
AcDbLine
 10
-17.13361667460176
 20
45.72703497876066
 30
0.0
 11
-15.27120363608223
 21
47.1900679864874
 31
0.0000000000000021
  0
LINE
  5
100
330
1F
100
AcDbEntity
  8
Hidden
370
    -3
100
AcDbLine
 10
-15.94729008832405
 20
48.3512155109839
 30
-0.0000000000000035
 11
-18.75569148279829
 21
46.14505401292663
 31
-0.0000000000000001
  0
LINE
  5
101
330
1F
100
AcDbEntity
  8
Hidden
370
    -3
100
AcDbLine
 10
-17.09925129550721
 20
45.98825891210637
 30
0.0
 11
-14.31087495908051
 21
48.17454412223512
 31
-0.0000000000000049
  0
LINE
  5
102
330
1F
100
AcDbEntity
  8
Hidden
370
    -3
100
AcDbLine
 10
-11.32974649842924
 20
50.51196069612845
 30
0.0000000000000035
 11
7.50168792700923
 21
65.27714358482203
 31
-0.0000000000000012
  0
LINE
  5
103
330
1F
100
AcDbEntity
  8
Hidden
370
    -3
100
AcDbLine
 10
6.132949288238107
 20
65.69651881282147
 30
0.0
 11
-12.94015358327658
 21
50.71349491658866
 31
-0.0000000000000007
  0
LINE
  5
104
330
1F
100
AcDbEntity
  8
Hidden
370
    -3
100
AcDbLine
 10
-13.04109073670329
 20
48.94195047187968
 30
-0.0000000000000035
 11
6.420523937645636
 21
64.23017282821873
 31
0.000000000000002
  0
LINE
  5
105
330
1F
100
AcDbEntity
  8
Hidden
370
    -3
100
AcDbLine
 10
7.787711548751189
 20
63.81138644477662
 30
-0.0000000000000035
 11
-11.33950264195741
 21
48.81428854597442
 31
-0.0000000000000021
  0
LINE
  5
106
330
1F
100
AcDbEntity
  8
Hidden
370
    -3
100
AcDbLine
 10
-3.218435855155846
 20
55.78468468077673
 30
0.0
 11
-3.387182518519479
 21
56.12671227811945
 31
0.0000000000000061
  0
ELLIPSE
  5
107
330
1F
100
AcDbEntity
  8
Hidden
370
    -3
100
AcDbEllipse
 10
-0.482607731713951
 20
55.79819036873653
 30
0.0
 11
1.076150771424269
 21
0.5309421034001269
 31
9.992007221626413E-17
210
7.467296027520921E-17
220
3.684150924610821E-17
230
-1.0
 40
0.3014722858282602
 41
0.9610880101195225
 42
2.531884336914424
  0
ELLIPSE
  5
108
330
1F
100
AcDbEntity
  8
Hidden
370
    -3
100
AcDbEllipse
 10
-0.3388422147694191
 20
57.74149620415409
 30
0.0
 11
-4.304603085697077
 21
-2.123768413600508
 31
0.0
210
2.456100616407213E-17
220
-4.978197351680612E-17
230
1.0
 40
0.3014722858282601
 41
0.609708316675373
 42
2.180504643470268
  0
LINE
  5
109
330
1F
100
AcDbEntity
  8
Hidden
370
    -3
100
AcDbLine
 10
-3.243417001574946
 20
58.070018113537
 30
0.0
 11
-3.074670338211318
 21
57.72799051619427
 31
-0.0000000000000007
  0
LINE
  5
10A
330
1F
100
AcDbEntity
  8
Hidden
370
    -3
100
AcDbLine
 10
-3.387182518519477
 20
56.12671227811944
 30
0.0000000000000035
 11
-5.674058655162875
 21
56.01026558924396
 31
-0.0000000000000006
  0
SPLINE
  5
10B
330
1F
100
AcDbEntity
  8
Hidden
370
    -3
100
AcDbSpline
210
0.0
220
0.0
230
1.0
 70
     8
 71
     3
 72
    12
 73
     8
 74
     0
 42
0.000000001
 43
0.00000001
 40
-0.0013862439122056
 40
-0.0013862439122056
 40
-0.0013862439122056
 40
-0.0013862439122056
 40
-0.001356765509577
 40
-0.001356765509577
 40
-0.0006566321732121
 40
-0.0006566321732121
 40
-0.0006495739156321
 40
-0.0006495739156321
 40
-0.0006495739156321
 40
-0.0006495739156321
 10
-4.551779683368563
 20
58.75372134023062
 30
0.0000000000000035
 10
-4.544642466418205
 20
58.75892072257187
 30
0.0000000000000035
 10
-4.537481859137201
 20
58.76405441581013
 30
0.0000000000000035
 10
-4.35968927097077
 20
58.8894761832993
 30
-0.0000000000000104
 10
-4.179511219302215
 20
58.97014177272824
 30
0.0000000000000069
 10
-3.998368253009636
 20
59.00737699923094
 30
0.0000000000000069
 10
-3.996560481622517
 20
59.00774416475981
 30
0.0
 10
-3.994752881335649
 20
59.00810685923098
 30
-0.0000000000000035
  0
SPLINE
  5
10C
330
1F
100
AcDbEntity
  8
Hidden
370
    -3
100
AcDbSpline
210
0.0
220
0.0
230
1.0
 70
     8
 71
     3
 72
    13
 73
     9
 74
     0
 42
0.000000001
 43
0.00000001
 40
-0.0006495739156321
 40
-0.0006495739156321
 40
-0.0006495739156321
 40
-0.0006495739156321
 40
0.0
 40
0.0
 40
0.0
 40
0.0002159196655368
 40
0.0002159196655368
 40
0.0008358543695052
 40
0.0008358543695052
 40
0.0008358543695052
 40
0.0008358543695052
 10
-3.994752881335653
 20
59.00810685923099
 30
0.0
 10
-3.828398789366668
 20
59.04148577775074
 30
-0.0000000000000035
 10
-3.663493402365005
 20
59.03699845640458
 30
0.0000000000000069
 10
-3.508829428609975
 20
58.99210661781079
 30
0.0
 10
-3.457418815159941
 20
58.97718448109742
 30
0.0000000000000069
 10
-3.407396089033523
 20
58.95786888329796
 30
0.0000000000000035
 10
-3.220275473457254
 20
58.8662088029721
 30
-0.0000000000000035
 10
-3.096541777696475
 20
58.76283949063373
 30
0.0
 10
-2.993868772022753
 20
58.62639801209557
 30
0.0
  0
SPLINE
  5
10D
330
1F
100
AcDbEntity
  8
Hidden
370
    -3
100
AcDbSpline
210
0.0
220
0.0
230
1.0
 70
     8
 71
     3
 72
    10
 73
     6
 74
     0
 42
0.000000001
 43
0.00000001
 40
0.0128648819179157
 40
0.0128648819179157
 40
0.0128648819179157
 40
0.0128648819179157
 40
0.0138267317183665
 40
0.0138267317183665
 40
0.0138383506468627
 40
0.0138383506468627
 40
0.0138383506468627
 40
0.0138383506468627
 10
-2.993868708855207
 20
58.62639798702012
 30
0.0
 10
-3.083256829402851
 20
58.44127717823927
 30
-0.0000000000000035
 10
-3.16546099037007
 20
58.25273801582488
 30
-0.0000000000000035
 10
-3.241422413558641
 20
58.07469329485233
 30
0.0000000000000035
 10
-3.242510371091182
 20
58.07214319635045
 30
-0.0000000000000035
 10
-3.243417001574957
 20
58.070018113537
 30
0.0000000000000069
  0
ELLIPSE
  5
10E
330
1F
100
AcDbEntity
  8
Hidden
370
    -3
100
AcDbEllipse
 10
-2.026308848405702
 20
61.16177217758138
 30
0.0
 11
4.304603085697078
 21
2.123768413600506
 31
-2.664535259100376E-16
210
-4.978197351680614E-17
220
-2.456100616407212E-17
230
-1.0
 40
0.3014722858282604
 41
0.9610880101195226
 42
2.337557038173066
  0
ELLIPSE
  5
10F
330
1F
100
AcDbEntity
  8
Hidden
370
    -3
100
AcDbEllipse
 10
-2.170074365350237
 20
59.21846634216382
 30
-0.0000000000000035
 11
-1.07615077142427
 21
-0.5309421034001267
 31
8.326672684688677E-17
210
6.222746689600769E-17
220
3.070125770509014E-17
230
1.0
 40
0.3014722858282603
 41
0.6097083166753731
 42
2.180504643470259
  0
LINE
  5
110
330
1F
100
AcDbEntity
  8
Hidden
370
    -3
100
AcDbLine
 10
-7.673016914870193
 20
67.04824254378364
 30
0.0
 11
-7.504270251506561
 21
66.70621494644091
 31
-0.0000000000000006
  0
ELLIPSE
  5
111
330
1F
100
AcDbEntity
  8
Hidden
370
    -3
100
AcDbEllipse
 10
-6.599674278645479
 20
68.19669077241045
 30
-0.0000000000000069
 11
-1.076150771424269
 21
-0.5309421034001268
 31
0.0
210
0.0
220
0.0
230
1.0
 40
0.3014722858282605
 41
0.6097083166753705
 42
2.180504643470271
  0
LINE
  5
112
330
1F
100
AcDbEntity
  8
Hidden
370
    -3
100
AcDbLine
 10
-3.971670292911974
 20
66.75271708380711
 30
-0.0000000000000035
 11
-3.802923629548352
 21
66.41068948646438
 31
-0.000000000000005
  0
ELLIPSE
  5
113
330
1F
100
AcDbEntity
  8
Hidden
370
    -3
100
AcDbEllipse
 10
-4.912207645009197
 20
64.77641479898317
 30
-0.0000000000000035
 11
1.076150771424269
 21
0.5309421034001267
 31
1.665334536937735E-17
210
-1.211551278487059E-17
220
5.592222505782416E-17
230
-1.0
 40
0.3014722858282603
 41
0.9610880101195225
 42
2.531884336914423
  0
LINE
  5
114
330
1F
100
AcDbEntity
  8
Hidden
370
    -3
100
AcDbLine
 10
-5.70279490033143
 20
64.15536284858234
 30
-0.0000000000000035
 11
-6.756172509698002
 21
64.10172534160027
 31
-0.0000000000000046
  0
LINE
  5
115
330
1F
100
AcDbEntity
  8
Hidden
370
    -3
100
AcDbLine
 10
-6.187520888669858
 20
57.56191077857463
 30
-0.0000000000000069
 11
-5.67405865516286
 21
56.01026558924393
 31
-0.0000000000000041
  0
LINE
  5
116
330
1F
100
AcDbEntity
  8
Hidden
370
    -3
100
AcDbLine
 10
-8.04169006517407
 20
63.16507396212173
 30
-0.0000000000000035
 11
-6.187520887891542
 21
57.56191077906483
 31
-0.0000000000000002
  0
LINE
  5
117
330
1F
100
AcDbEntity
  8
Hidden
370
    -3
100
AcDbLine
 10
-8.555152298670464
 20
64.71671915142049
 30
0.0
 11
-8.041690065174071
 21
63.16507396212173
 31
-0.0000000000000005
  0
LINE
  5
118
330
1F
100
AcDbEntity
  8
Hidden
370
    -3
100
AcDbLine
 10
-6.010279697306482
 20
64.64508728736165
 30
-0.0000000000000026
 11
-6.756172508763673
 21
64.10172534228096
 31
0.0000000000000051
  0
SPLINE
  5
119
330
1F
100
AcDbEntity
  8
Hidden
370
    -3
100
AcDbSpline
210
0.0
220
0.0
230
1.0
 70
     8
 71
     3
 72
    10
 73
     6
 74
     0
 42
0.000000001
 43
0.00000001
 40
-0.0124868965371572
 40
-0.0124868965371572
 40
-0.0124868965371572
 40
-0.0124868965371572
 40
-0.0122087540805682
 40
-0.0122087540805682
 40
-0.0120823973859003
 40
-0.0120823973859003
 40
-0.0120823973859003
 40
-0.0120823973859003
 10
-5.246996616251518
 20
65.43538896296697
 30
0.0000000000000035
 10
-5.405537089522143
 20
65.22185924141682
 30
0.0000000000000035
 10
-5.577716011437523
 20
65.02015619932666
 30
0.0
 10
-5.852405092950828
 20
64.76696036534135
 30
-0.0000000000000035
 10
-5.933835960927092
 20
64.70067426531797
 30
0.0000000000000035
 10
-6.010279697307365
 20
64.64508728736101
 30
-0.0000000000000035
  0
LINE
  5
11A
330
1F
100
AcDbEntity
  8
Hidden
370
    -3
100
AcDbLine
 10
-5.24699661582354
 20
65.43538896310469
 30
0.0
 11
-5.184507489724461
 21
65.24654575543194
 31
-0.0000000000000034
  0
LINE
  5
11B
330
1F
100
AcDbEntity
  8
Hidden
370
    -3
100
AcDbLine
 10
-3.330392910849995
 20
59.64337979176604
 30
0.0000000000000035
 11
-5.184507489724463
 21
65.24654575543192
 31
0.0000000000000028
  0
LINE
  5
11C
330
1F
100
AcDbEntity
  8
Hidden
370
    -3
100
AcDbLine
 10
-3.330392910906784
 20
59.64337979177839
 30
-0.0000000000000035
 11
-2.99386875251396
 21
58.62639803035119
 31
0.0000000000000005
  0
LINE
  5
11D
330
1F
100
AcDbEntity
  8
Hidden
370
    -3
100
AcDbLine
 10
-4.902027867336896
 20
58.49856090932725
 30
0.0
 11
-4.551779684687348
 21
58.75372134026437
 31
0.0000000000000004
  0
SPLINE
  5
11E
330
1F
100
AcDbEntity
  8
Hidden
370
    -3
100
AcDbSpline
210
0.0
220
0.0
230
1.0
 70
     8
 71
     3
 72
    12
 73
     8
 74
     0
 42
0.000000001
 43
0.00000001
 40
0.0
 40
0.0
 40
0.0
 40
0.0
 40
0.0000116189284962
 40
0.0000116189284962
 40
0.0024656790643192
 40
0.0024656790643192
 40
0.0028460035955057
 40
0.0028460035955057
 40
0.0028460035955057
 40
0.0028460035955057
 10
-7.504270251506571
 20
66.70621494644091
 30
0.0
 10
-7.501362535468783
 20
66.704284088411
 30
0.0
 10
-7.497873276159625
 20
66.7019670597011
 30
-0.0000000000000069
 10
-6.880820083625403
 20
66.29221826676415
 30
0.0
 10
-6.143343140077659
 20
65.81090181637568
 30
0.0000000000000035
 10
-5.443452691531105
 20
65.50873938573193
 30
-0.0000000000000035
 10
-5.345675498078144
 20
65.4700647801746
 30
-0.0000000000000035
 10
-5.246996615951223
 20
65.43538896341808
 30
0.0
  0
ELLIPSE
  5
11F
330
1F
100
AcDbEntity
  8
Hidden
370
    -3
100
AcDbEllipse
 10
-4.768442128064666
 20
66.71972063440072
 30
-0.0000000000000035
 11
-4.304603085697076
 21
-2.123768413600507
 31
6.661338147750940E-17
210
1.244549337920154E-17
220
6.140251541018033E-18
230
1.0
 40
0.3014722858282604
 41
1.13376787931859
 42
2.180504643470268
  0
LINE
  5
120
330
1F
100
AcDbEntity
  8
Hidden
370
    -3
100
AcDbLine
 10
-9.817768611827692
 20
67.45203126980806
 30
0.0
 11
-7.390261533967722
 21
67.57563882200961
 31
0.0000000000000011
  0
SPLINE
  5
121
330
1F
100
AcDbEntity
  8
Hidden
370
    -3
100
AcDbSpline
210
0.0
220
0.0
230
1.0
 70
     8
 71
     3
 72
    10
 73
     6
 74
     0
 42
0.000000001
 43
0.00000001
 40
0.0028018126123683
 40
0.0028018126123683
 40
0.0028018126123683
 40
0.0028018126123683
 40
0.0034690252713726
 40
0.0034690252713726
 40
0.0036259221154139
 40
0.0036259221154139
 40
0.0036259221154139
 40
0.0036259221154139
 10
-9.525769781617825
 20
67.66157510329415
 30
0.0
 10
-9.365243168190872
 20
67.77677200983604
 30
0.0
 10
-9.166451189177803
 20
67.86854594981654
 30
0.0000000000000069
 10
-8.964600773714555
 20
67.90961084151031
 30
-0.0000000000000069
 10
-8.925031876275511
 20
67.914818258341
 30
0.0000000000000069
 10
-8.88493825258759
 20
67.9186386928086
 30
0.0000000000000069
  0
SPLINE
  5
122
330
1F
100
AcDbEntity
  8
Hidden
370
    -3
100
AcDbSpline
210
0.0
220
0.0
230
1.0
 70
     8
 71
     3
 72
    12
 73
     8
 74
     0
 42
0.000000001
 43
0.00000001
 40
0.0036259221154139
 40
0.0036259221154139
 40
0.0036259221154139
 40
0.0036259221154139
 40
0.0041425111769912
 40
0.0041425111769912
 40
0.0048173210969214
 40
0.0048173210969214
 40
0.0053119562571618
 40
0.0053119562571618
 40
0.0053119562571618
 40
0.0053119562571618
 10
-8.88493825258759
 20
67.9186386928086
 30
0.0000000000000069
 10
-8.753978444764833
 20
67.92640676024914
 30
0.0
 10
-8.619737418508398
 20
67.90810971021652
 30
0.0
 10
-8.373915680702767
 20
67.81168640872012
 30
0.0
 10
-8.232448197267553
 20
67.69876379161278
 30
0.0
 10
-8.06658855916197
 20
67.48186469195636
 30
0.0
 10
-8.002611250795063
 20
67.36064113152051
 30
-0.0000000000000069
 10
-7.953087441211627
 20
67.233799204983
 30
-0.0000000000000069
  0
SPLINE
  5
123
330
1F
100
AcDbEntity
  8
Hidden
370
    -3
100
AcDbSpline
210
0.0
220
0.0
230
1.0
 70
     8
 71
     3
 72
    10
 73
     6
 74
     0
 42
0.000000001
 43
0.00000001
 40
0.0
 40
0.0
 40
0.0
 40
0.0
 40
0.0000116189284961
 40
0.0000116189284961
 40
0.0003631883718011
 40
0.0003631883718011
 40
0.0003631883718011
 40
0.0003631883718011
 10
-7.673016914870196
 20
67.04824254378364
 30
-0.0000000000000069
 10
-7.675924630907934
 20
67.05017340181352
 30
0.0000000000000069
 10
-7.679413890217054
 20
67.05249043052314
 30
0.0
 10
-7.77030428530292
 20
67.11284540498508
 30
0.0
 10
-7.860818159197462
 20
67.17277798326501
 30
-0.0000000000000069
 10
-7.953087441210824
 20
67.23379920498087
 30
0.0
  0
ELLIPSE
  5
124
330
1F
100
AcDbEntity
  8
Hidden
370
    -3
100
AcDbEllipse
 10
-6.455908761700957
 20
70.139996607828
 30
0.0
 11
4.304603085697078
 21
2.123768413600507
 31
-2.664535259100376E-16
210
-4.978197351680614E-17
220
-2.456100616407211E-17
230
-1.0
 40
0.3014722858282603
 41
0.9610880101195226
 42
2.501435705553261
  0
LINE
  5
125
330
1F
100
AcDbEntity
  8
Hidden
370
    -3
100
AcDbLine
 10
-7.953087441210819
 20
67.23379920498081
 30
-0.0000000000000069
 11
-7.076900450893144
 21
62.76611306623228
 31
-0.0000000000000049
  0
LINE
  5
126
330
1F
100
AcDbEntity
  8
Hidden
370
    -3
100
AcDbLine
 10
-4.489386770204453
 20
55.20696993708203
 30
-0.0000000000000035
 11
-3.501191236058338
 21
55.25728840255071
 31
-0.000000000000001
  0
LINE
  5
127
330
1F
100
AcDbEntity
  8
Hidden
370
    -3
100
AcDbLine
 10
-7.416247321785934
 20
55.57093403727657
 30
0.0000000000000035
 11
-3.218435855155852
 21
55.78468468077671
 31
-0.0000000000000013
  0
LINE
  5
128
330
1F
100
AcDbEntity
  8
Hidden
370
    -3
100
AcDbLine
 10
-10.00622441153252
 20
60.81222733321643
 30
0.0
 11
-10.81812368785235
 21
64.95210978177793
 31
-0.0000000000000021
  0
LINE
  5
129
330
1F
100
AcDbEntity
  8
Hidden
370
    -3
100
AcDbLine
 10
3.845667535706524
 20
60.43575644904227
 30
-0.0000000000000035
 11
0.4579296203832649
 21
57.77449265356047
 31
0.0000000000000007
  0
LINE
  5
12A
330
1F
100
AcDbEntity
  8
Hidden
370
    -3
100
AcDbLine
 10
3.644970227267904
 20
58.49153033333871
 30
0.0000000000000035
 11
0.2648498685249223
 21
55.83625056851211
 31
-0.0000000000000015
  0
LINE
  5
12B
330
1F
100
AcDbEntity
  8
Hidden
370
    -3
100
AcDbLine
 10
-4.489386770204434
 20
55.20696993708204
 30
-0.0000000000000035
 11
-4.769266276727579
 21
54.99912006428755
 31
0.000000000000003
  0
LINE
  5
12C
330
1F
100
AcDbEntity
  8
Hidden
370
    -3
100
AcDbLine
 10
1.490798214374273
 20
59.94165245965924
 30
0.0
 11
0.7704418006914231
 21
59.3757708916353
 31
0.0000000000000032
  0
LINE
  5
12D
330
1F
100
AcDbEntity
  8
Hidden
370
    -3
100
AcDbLine
 10
1.691495522812888
 20
61.88587857536282
 30
0.0
 11
0.963521552549774
 21
61.31401297668366
 31
-0.0000000000000052
  0
LINE
  5
12E
330
1F
100
AcDbEntity
  8
Hidden
370
    -3
100
AcDbLine
 10
-1.778611727109188
 20
66.87196143350302
 30
-0.0000000000000035
 11
-1.072593714833575
 21
67.42657935908947
 31
0.0000000000000005
  0
LINE
  5
12F
330
1F
100
AcDbEntity
  8
Hidden
370
    -3
100
AcDbLine
 10
-3.827904775967446
 20
68.69602291922466
 30
-0.0000000000000069
 11
-3.144366814909791
 21
69.23298146621623
 31
-0.0000000000000073
  0
LINE
  5
130
330
1F
100
AcDbEntity
  8
Hidden
370
    -3
100
AcDbLine
 10
-9.817768611827706
 20
67.45203126980806
 30
0.0
 11
-9.525769781617827
 21
67.66157510329415
 31
0.0000000000000026
  0
LINE
  5
131
330
1F
100
AcDbEntity
  8
Hidden
370
    -3
100
AcDbLine
 10
-5.852216678406616
 20
68.23475097218602
 30
0.0
 11
-2.521074995174202
 21
70.85155515857507
 31
-0.0000000000000009
  0
LINE
  5
132
330
1F
100
AcDbEntity
  8
Hidden
370
    -3
100
AcDbLine
 10
-3.802923629548352
 20
66.41068948646436
 30
-0.0000000000000035
 11
-0.4493018950979702
 21
69.0451530514483
 31
-0.000000000000007
  0
SPLINE
  5
133
330
1F
100
AcDbEntity
  8
Hidden
370
    -3
100
AcDbSpline
210
0.0
220
0.0
230
1.0
 70
     8
 71
     3
 72
    20
 73
    16
 74
     0
 42
0.000000001
 43
0.00000001
 40
-0.0013354621877632
 40
-0.0013354621877632
 40
-0.0013354621877632
 40
-0.0013354621877632
 40
-0.0006035960199502
 40
-0.0006035960199502
 40
0.0021806472155226
 40
0.0021806472155226
 40
0.0049648904509954
 40
0.0049648904509954
 40
0.0077491336864682
 40
0.0077491336864682
 40
0.0105333769219409
 40
0.0105333769219409
 40
0.0133176201574137
 40
0.0133176201574137
 40
0.0160766743841799
 40
0.0160766743841799
 40
0.0160766743841799
 40
0.0160766743841799
 10
-5.353263990253866
 20
70.86781129924806
 30
-0.0000000000000069
 10
-5.531034586327667
 20
70.74923669429296
 30
-0.0000000000000069
 10
-5.710388795001187
 20
70.63873694566314
 30
0.0000000000000069
 10
-6.579029978098481
 20
70.14339518496254
 30
0.0
 10
-7.287859011014747
 20
69.8581983226307
 30
0.0000000000000069
 10
-8.732842808287112
 20
69.42713877313058
 30
0.0
 10
-9.468997572643216
 20
69.28127608596229
 30
0.0
 10
-10.95397347139464
 20
69.05413665786526
 30
0.0
 10
-11.70279460578995
 20
68.9728599169365
 30
-0.0000000000000069
 10
-13.19844388321915
 20
68.80014415239448
 30
0.0
 10
-13.94527202625304
 20
68.7087051287812
 30
0.0
 10
-15.42227595955875
 20
68.44091656994614
 30
0.0
 10
-16.15245174983057
 20
68.26456703472431
 30
0.0
 10
-17.57502736460129
 20
67.75452687063994
 30
0.0
 10
-18.26770918433028
 20
67.42227413824783
 30
0.0
 10
-18.9378846017264
 20
66.97526103752462
 30
0.0
  0
LINE
  5
134
330
1F
100
AcDbEntity
  8
Hidden
370
    -3
100
AcDbLine
 10
3.281759126876638
 20
55.79031337837235
 30
-0.0000000000000035
 11
-26.81649772541853
 21
35.71450222107394
 31
0.0000000000000026
  0
SPLINE
  5
135
330
1F
100
AcDbEntity
  8
Hidden
370
    -3
100
AcDbSpline
210
0.0
220
0.0
230
1.0
 70
     8
 71
     3
 72
    22
 73
    18
 74
     0
 42
0.000000001
 43
0.00000001
 40
-0.00275
 40
-0.00275
 40
-0.00275
 40
-0.00275
 40
-0.0000369095518179
 40
-0.0000369095518179
 40
0.0055649390714071
 40
0.0055649390714071
 40
0.011166787694632
 40
0.011166787694632
 40
0.016768636317857
 40
0.016768636317857
 40
0.0223704849410819
 40
0.0223704849410819
 40
0.0279723335643069
 40
0.0279723335643069
 40
0.0335741821875319
 40
0.0335741821875319
 40
0.036376409006865
 40
0.036376409006865
 40
0.036376409006865
 40
0.036376409006865
 10
-6.528115798570135
 20
31.82636104143086
 30
0.0
 10
-6.109892148497236
 20
32.3439645687488
 30
0.0000000000000052
 10
-5.735847838225177
 20
32.8695591011669
 30
-0.0000000000000035
 10
-4.704826556828088
 20
34.50123455031154
 30
0.0000000000000035
 10
-4.170647363930503
 20
35.62952670144147
 30
0.0
 10
-3.307869428920703
 20
37.92329567957296
 30
0.0000000000000035
 10
-2.979270686808484
 20
39.08877250657454
 30
0.0
 10
-2.412376021588635
 20
41.43605981994146
 30
0.0000000000000035
 10
-2.174080098481004
 20
42.61787030630682
 30
0.0000000000000035
 10
-1.672513439489518
 20
44.97697392189346
 30
0.0000000000000035
 10
-1.409242703605674
 20
46.15426705111474
 30
0.0
 10
-0.7424487872809823
 20
48.48348493590536
 30
0.0000000000000035
 10
-0.3389256068401427
 20
49.63540969147469
 30
0.0000000000000035
 10
0.7236508303793401
 20
51.89303981245354
 30
0.0000000000000035
 10
1.382704087157968
 20
52.99874517786306
 30
0.0000000000000035
 10
2.649586101438631
 20
54.60724971545203
 30
0.0
 10
3.118405087394522
 20
55.13519249091774
 30
-0.0000000000000069
 10
3.6408330638945
 20
55.65343865890157
 30
0.0000000000000069
  0
LINE
  5
136
330
1F
100
AcDbEntity
  8
Hidden
370
    -3
100
AcDbLine
 10
-3.812168391133196
 20
64.93811842325748
 30
0.0
 11
-0.4633635712137673
 21
67.56879802367047
 31
0.0000000000000019
  0
LINE
  5
137
330
1F
100
AcDbEntity
  8
Hidden
370
    -3
100
AcDbLine
 10
-3.130305034971203
 20
70.70933657555287
 30
0.0
 11
-3.818659886428924
 21
70.16859408294657
 31
-0.0000000000000018
  0
LINE
  5
138
330
1F
100
AcDbEntity
  8
Hidden
370
    -3
100
AcDbLine
 10
-5.571156561190816
 20
54.73374661961632
 30
0.0000000000000035
 11
-1.941018151690923
 21
54.91859161020092
 31
-0.0000000000000022
  0
LINE
  5
139
330
1F
100
AcDbEntity
  8
Hidden
370
    -3
100
AcDbLine
 10
-9.032474665616355
 20
44.50582934775438
 30
0.0
 11
-5.586149207030138
 21
43.88247000285472
 31
-0.0000000000000008
  0
LINE
  5
13A
330
1F
100
AcDbEntity
  8
Hidden
370
    -3
100
AcDbLine
 10
1.762597811948851
 20
57.56463573634137
 30
0.0
 11
-1.683727646637361
 21
58.18799508124103
 31
-0.0000000000000012
  0
LINE
  5
13B
330
1F
100
AcDbEntity
  8
Hidden
370
    -3
100
AcDbLine
 10
-8.316019301687653
 20
50.45944035089986
 30
0.0
 11
-25.46039880539832
 21
53.56045599918055
 31
-0.0000000000000034
  0
LINE
  5
13C
330
1F
100
AcDbEntity
  8
Hidden
370
    -3
100
AcDbLine
 10
-26.25638707036833
 20
49.15972848182275
 30
-0.0000000000000035
 11
-9.112007566657656
 21
46.05871283354205
 31
-0.0000000000000011
  0
LINE
  5
13D
330
1F
100
AcDbEntity
  8
Hidden
370
    -3
100
AcDbLine
 10
-9.584317475322596
 20
46.47771014464447
 30
-0.0000000000000035
 11
-9.391007129834254
 21
46.09592453788487
 31
-0.0000000000000036
  0
LINE
  5
13E
330
1F
100
AcDbEntity
  8
Hidden
370
    -3
100
AcDbLine
 10
-8.590376918204141
 20
50.52231752430207
 30
0.0
 11
-8.905175433579764
 21
50.23243739307901
 31
0.0000000000000015
  0
SPLINE
  5
13F
330
1F
100
AcDbEntity
  8
Hidden
370
    -3
100
AcDbSpline
210
0.0
220
0.0
230
1.0
 70
     8
 71
     3
 72
    14
 73
    10
 74
     0
 42
0.000000001
 43
0.00000001
 40
0.0002337094171328
 40
0.0002337094171328
 40
0.0002337094171328
 40
0.0002337094171328
 40
0.0008733409735745
 40
0.0008733409735745
 40
0.0016323040601448
 40
0.0016323040601448
 40
0.0026689424426902
 40
0.0026689424426902
 40
0.0027496518653552
 40
0.0027496518653552
 40
0.0027496518653552
 40
0.0027496518653552
 10
0.6174273064870894
 20
55.95989068135942
 30
-0.0000000000000035
 10
0.4359584579666032
 20
55.8177409261107
 30
-0.0000000000000035
 10
0.2074227339640983
 20
55.66258964235639
 30
-0.0000000000000035
 10
-0.3951690726077903
 20
55.33262940534965
 30
0.0000000000000035
 10
-0.6893393735921387
 20
55.2113846753204
 30
0.0
 10
-1.271288541467232
 20
55.012095742178
 30
0.0000000000000069
 10
-1.583993786516227
 20
54.94446844304653
 30
0.0
 10
-1.897116864218984
 20
54.92108414903417
 30
0.0000000000000035
 10
-1.919296045209748
 20
54.91968987657101
 30
0.0
 10
-1.941012160576557
 20
54.91859191527278
 30
0.0
  0
SPLINE
  5
140
330
1F
100
AcDbEntity
  8
Hidden
370
    -3
100
AcDbSpline
210
0.0
220
0.0
230
1.0
 70
     8
 71
     3
 72
    16
 73
    12
 74
     0
 42
0.000000001
 43
0.00000001
 40
0.0046216778413375
 40
0.0046216778413375
 40
0.0046216778413375
 40
0.0046216778413375
 40
0.0053098150747736
 40
0.0053098150747736
 40
0.0063722087547267
 40
0.0063722087547267
 40
0.0074876561125963
 40
0.0074876561125963
 40
0.0083788454061549
 40
0.0083788454061549
 40
0.0090414798251654
 40
0.0090414798251654
 40
0.0090414798251654
 40
0.0090414798251654
 10
-3.994178085816981
 20
59.00822204229681
 30
0.0000000000000035
 10
-3.817180565500644
 20
59.04377750448706
 30
0.0000000000000069
 10
-3.611303055837628
 20
59.09385609408327
 30
0.0000000000000069
 10
-3.026885568542121
 20
59.26505150231901
 30
0.0000000000000035
 10
-2.626924612213296
 20
59.40642056564872
 30
-0.0000000000000035
 10
-1.764480488705584
 20
59.76705794758125
 30
-0.0000000000000069
 10
-1.316600021402203
 20
59.98277214256503
 30
0.0
 10
-0.5513687451741602
 20
60.40204052995578
 30
0.0
 10
-0.2339761203110245
 20
60.59484164759416
 30
0.0000000000000035
 10
0.260117883794893
 20
60.92569032908801
 30
0.0000000000000035
 10
0.4480565976281237
 20
61.0625198401475
 30
0.0000000000000035
 10
0.6109380270258591
 20
61.19036808171017
 30
0.0
  0
SPLINE
  5
141
330
1F
100
AcDbEntity
  8
Hidden
370
    -3
100
AcDbSpline
210
0.0
220
0.0
230
1.0
 70
     8
 71
     3
 72
    14
 73
    10
 74
     0
 42
0.000000001
 43
0.00000001
 40
0.0002337099780084
 40
0.0002337099780084
 40
0.0002337099780084
 40
0.0002337099780084
 40
0.0008733409735728
 40
0.0008733409735728
 40
0.0016323040601408
 40
0.0016323040601408
 40
0.0026689424426829
 40
0.0026689424426829
 40
0.0027496526608717
 40
0.0027496526608717
 40
0.0027496526608717
 40
0.0027496526608717
 10
-3.812173083979381
 20
64.93811473676159
 30
0.0000000000000035
 10
-3.993641856122188
 20
64.7959650842615
 30
0.0000000000000035
 10
-4.222177420987244
 20
64.64081394027978
 30
0.0
 10
-4.824768985902987
 20
64.31085383559632
 30
0.0000000000000035
 10
-5.118939286887318
 20
64.18960910556706
 30
-0.0000000000000035
 10
-5.700888454762536
 20
63.99032017242462
 30
0.0000000000000035
 10
-6.013593699811559
 20
63.92269287329317
 30
0.0
 10
-6.32671700045015
 20
63.89930856263176
 30
0.0000000000000035
 10
-6.34889639572956
 20
63.89791427933197
 30
0.0
 10
-6.370612716394561
 20
63.89681631280107
 30
-0.0000000000000035
  0
LINE
  5
142
330
1F
100
AcDbEntity
  8
Hidden
370
    -3
100
AcDbLine
 10
-7.441566054692245
 20
63.84228385771981
 30
0.0
 11
-6.370618983809996
 21
63.89681599366146
 31
-0.0000000000000052
  0
SPLINE
  5
143
330
1F
100
AcDbEntity
  8
Hidden
370
    -3
100
AcDbSpline
210
0.0
220
0.0
230
1.0
 70
     8
 71
     3
 72
    18
 73
    14
 74
     0
 42
0.000000001
 43
0.00000001
 40
0.0047021260542984
 40
0.0047021260542984
 40
0.0047021260542984
 40
0.0047021260542984
 40
0.0053992687393134
 40
0.0053992687393134
 40
0.0063135100618097
 40
0.0063135100618097
 40
0.0073009576820274
 40
0.0073009576820274
 40
0.0083242964116062
 40
0.0083242964116062
 40
0.0089541037897908
 40
0.0089541037897908
 40
0.0093633123689618
 40
0.0093633123689618
 40
0.0093633123689618
 40
0.0093633123689618
 10
-8.884127183477732
 20
67.91870373517406
 30
0.0
 10
-8.764207889672237
 20
67.92838591384917
 30
-0.0000000000000069
 10
-8.601407391916242
 20
67.95008210501251
 30
0.0
 10
-8.137414140410986
 20
68.04494103854869
 30
0.0
 10
-7.815406215387734
 20
68.13054251420122
 30
0.0
 10
-7.059962608958416
 20
68.38374379959308
 30
0.0
 10
-6.633422306949686
 20
68.55257745043761
 30
0.0
 10
-5.74958621400947
 20
68.95901595536411
 30
-0.0000000000000069
 10
-5.307730218687317
 20
69.19151719041977
 30
0.0
 10
-4.652230871288046
 20
69.58234040940906
 30
0.0
 10
-4.416341742098604
 20
69.73466852376959
 30
-0.0000000000000069
 10
-4.061520570716052
 20
69.9832396857228
 30
0.0
 10
-3.933758349897312
 20
70.07821903733874
 30
0.0
 10
-3.818662468374201
 20
70.16859205468016
 30
0.0
  0
LINE
  5
144
330
1F
100
AcDbEntity
  8
Hidden
370
    -3
100
AcDbLine
 10
0.6174323293470091
 20
55.95989462710124
 30
-0.0000000000000035
 11
4.001703497944985
 21
58.61843509280408
 31
-0.0000000000000097
  0
LINE
  5
145
330
1F
100
AcDbEntity
  8
Hidden
370
    -3
100
AcDbLine
 10
1.334762034187545
 20
61.75897364468648
 30
0.0
 11
0.610940834051275
 21
61.19037028679035
 31
0.0000000000000058
  0
ENDSEC
  0
SECTION
  2
OBJECTS
  0
DICTIONARY
  5
C
330
0
100
AcDbDictionary
281
     1
  3
ACAD_DETAILVIEWSTYLE
350
14A
  3
ACAD_GROUP
350
D
  3
ACAD_LAYOUT
350
1A
  3
ACAD_MATERIAL
350
43
  3
ACAD_MLEADERSTYLE
350
149
  3
ACAD_MLINESTYLE
350
17
  3
ACAD_PLOTSETTINGS
350
19
  3
ACAD_PLOTSTYLENAME
350
E
  3
ACAD_SCALELIST
350
47
  3
ACAD_SECTIONVIEWSTYLE
350
14B
  3
ACAD_TABLESTYLE
350
148
  3
ACAD_VISUALSTYLE
350
2A
  3
AcDbVariableDictionary
350
146
  0
SUN
  5
69
330
29
100
AcDbSun
 90
        1
290
     0
 63
     7
421
 16777215
 40
1.0
291
     1
 91
  2455826
 92
 54000000
292
     0
 70
     2
 71
   256
280
     1
  0
DICTIONARY
  5
14A
102
{ACAD_REACTORS
330
C
102
}
330
C
100
AcDbDictionary
281
     1
  0
DICTIONARY
  5
D
102
{ACAD_REACTORS
330
C
102
}
330
C
100
AcDbDictionary
281
     1
  0
DICTIONARY
  5
1A
102
{ACAD_REACTORS
330
C
102
}
330
C
100
AcDbDictionary
281
     1
  3
Layout1
350
1E
  3
Layout2
350
26
  3
Model
350
22
  0
DICTIONARY
  5
43
102
{ACAD_REACTORS
330
C
102
}
330
C
100
AcDbDictionary
281
     1
  3
ByBlock
350
45
  3
ByLayer
350
44
  3
Global
350
46
  0
DICTIONARY
  5
149
102
{ACAD_REACTORS
330
C
102
}
330
C
100
AcDbDictionary
281
     1
  0
DICTIONARY
  5
17
102
{ACAD_REACTORS
330
C
102
}
330
C
100
AcDbDictionary
281
     1
  3
Standard
350
18
  0
DICTIONARY
  5
19
102
{ACAD_REACTORS
330
C
102
}
330
C
100
AcDbDictionary
281
     1
  0
ACDBDICTIONARYWDFLT
  5
E
102
{ACAD_REACTORS
330
C
102
}
330
C
100
AcDbDictionary
281
     1
  3
Normal
350
F
100
AcDbDictionaryWithDefault
340
F
  0
DICTIONARY
  5
47
102
{ACAD_REACTORS
330
C
102
}
330
C
100
AcDbDictionary
281
     1
  3
A0
350
48
  3
A1
350
49
  3
A2
350
4A
  3
A3
350
4B
  3
A4
350
4C
  3
A5
350
4D
  3
A6
350
4E
  3
A7
350
4F
  3
A8
350
50
  3
A9
350
51
  3
B0
350
52
  3
B1
350
53
  3
B2
350
54
  3
B3
350
55
  3
B4
350
56
  3
B5
350
57
  3
B6
350
58
  3
B7
350
59
  3
B8
350
5A
  3
B9
350
5B
  3
C0
350
5C
  3
C1
350
5D
  3
C2
350
5E
  3
C3
350
5F
  3
C4
350
60
  3
C5
350
61
  3
C6
350
62
  3
C7
350
63
  3
C8
350
64
  3
C9
350
65
  3
D0
350
66
  3
D1
350
67
  3
D2
350
68
  0
DICTIONARY
  5
14B
102
{ACAD_REACTORS
330
C
102
}
330
C
100
AcDbDictionary
281
     1
  0
DICTIONARY
  5
148
102
{ACAD_REACTORS
330
C
102
}
330
C
100
AcDbDictionary
281
     1
  0
DICTIONARY
  5
2A
102
{ACAD_REACTORS
330
C
102
}
330
C
100
AcDbDictionary
281
     1
  3
2dWireframe
350
2F
  3
Basic
350
32
  3
Brighten
350
36
  3
ColorChange
350
3A
  3
Conceptual
350
34
  3
Dim
350
35
  3
EdgeColorOff
350
3D
  3
Facepattern
350
39
  3
Flat
350
2B
  3
FlatWithEdges
350
2C
  3
Gouraud
350
2D
  3
GouraudWithEdges
350
2E
  3
Hidden
350
31
  3
JitterOff
350
3B
  3
Linepattern
350
38
  3
OverhangOff
350
3C
  3
Realistic
350
33
  3
Shaded
350
42
  3
Shaded with edges
350
41
  3
Shades of Gray
350
3E
  3
Sketchy
350
3F
  3
Thicken
350
37
  3
Wireframe
350
30
  3
X-Ray
350
40
  0
DICTIONARY
  5
146
102
{ACAD_REACTORS
330
C
102
}
330
C
100
AcDbDictionary
281
     1
  3
CANNOSCALE
350
147
  0
LAYOUT
  5
1E
102
{ACAD_REACTORS
330
1A
102
}
330
1A
100
AcDbPlotSettings
  1

  2
none_device
  4

  6

 40
0.0
 41
0.0
 42
0.0
 43
0.0
 44
0.0
 45
0.0
 46
0.0
 47
0.0
 48
0.0
 49
0.0
140
0.0
141
0.0
142
1.0
143
1.0
 70
   688
 72
     1
 73
     0
 74
     5
  7

 75
    16
 76
     0
 77
     2
 78
   300
147
1.0
148
0.0
149
0.0
100
AcDbLayout
  1
Layout1
 70
     1
 71
     1
 10
0.0
 20
0.0
 11
420.0
 21
297.0
 12
0.0
 22
0.0
 32
0.0
 14
1.000000000000000E+20
 24
1.000000000000000E+20
 34
1.000000000000000E+20
 15
-1.000000000000000E+20
 25
-1.000000000000000E+20
 35
-1.000000000000000E+20
146
0.0
 13
0.0
 23
0.0
 33
0.0
 16
1.0
 26
0.0
 36
0.0
 17
0.0
 27
1.0
 37
0.0
 76
     0
330
1B
  0
LAYOUT
  5
26
102
{ACAD_REACTORS
330
1A
102
}
330
1A
100
AcDbPlotSettings
  1

  2
none_device
  4

  6

 40
0.0
 41
0.0
 42
0.0
 43
0.0
 44
0.0
 45
0.0
 46
0.0
 47
0.0
 48
0.0
 49
0.0
140
0.0
141
0.0
142
1.0
143
1.0
 70
   688
 72
     1
 73
     0
 74
     5
  7

 75
    16
 76
     0
 77
     2
 78
   300
147
1.0
148
0.0
149
0.0
100
AcDbLayout
  1
Layout2
 70
     1
 71
     2
 10
0.0
 20
0.0
 11
0.0
 21
0.0
 12
0.0
 22
0.0
 32
0.0
 14
0.0
 24
0.0
 34
0.0
 15
0.0
 25
0.0
 35
0.0
146
0.0
 13
0.0
 23
0.0
 33
0.0
 16
1.0
 26
0.0
 36
0.0
 17
0.0
 27
1.0
 37
0.0
 76
     0
330
23
  0
LAYOUT
  5
22
102
{ACAD_REACTORS
330
1A
102
}
330
1A
100
AcDbPlotSettings
  1

  2
none_device
  4
Letter_(8.50_x_11.00_Inches)
  6

 40
6.35
 41
6.35
 42
6.35000508
 43
6.35000508
 44
215.9
 45
279.4
 46
0.0
 47
0.0
 48
0.0
 49
0.0
140
0.0
141
0.0
142
1.0
143
1.0
 70
  1712
 72
     1
 73
     0
 74
     0
  7

 75
     0
 76
     0
 77
     2
 78
   300
147
1.0
148
0.0
149
0.0
100
AcDbLayout
  1
Model
 70
     1
 71
     0
 10
0.0
 20
0.0
 11
420.0
 21
297.0
 12
0.0
 22
0.0
 32
0.0
 14
-28.86285005239217
 24
30.48180721509075
 34
-28.45174447435106
 15
12.70983692795338
 25
76.4076333186484
 35
3.425678364576326
146
0.0
 13
0.0
 23
0.0
 33
0.0
 16
1.0
 26
0.0
 36
0.0
 17
0.0
 27
1.0
 37
0.0
 76
     0
330
1F
331
29
  0
MATERIAL
  5
45
102
{ACAD_REACTORS
330
43
102
}
330
43
100
AcDbMaterial
  1
ByBlock
 72
     1
 94
      127
  0
MATERIAL
  5
44
102
{ACAD_REACTORS
330
43
102
}
330
43
100
AcDbMaterial
  1
ByLayer
 72
     1
 94
      127
  0
MATERIAL
  5
46
102
{ACAD_REACTORS
330
43
102
}
330
43
100
AcDbMaterial
  1
Global
 72
     1
 94
      127
  0
MLINESTYLE
  5
18
102
{ACAD_REACTORS
330
17
102
}
330
17
100
AcDbMlineStyle
  2
Standard
 70
     0
  3

 62
   256
 51
90.0
 52
90.0
 71
     2
 49
0.5
 62
   256
  6
BYLAYER
 49
-0.5
 62
   256
  6
BYLAYER
  0
ACDBPLACEHOLDER
  5
F
102
{ACAD_REACTORS
330
E
102
}
330
E
  0
SCALE
  5
48
102
{ACAD_REACTORS
330
47
102
}
330
47
100
AcDbScale
 70
     0
300
1:1
140
1.0
141
1.0
290
     1
  0
SCALE
  5
49
102
{ACAD_REACTORS
330
47
102
}
330
47
100
AcDbScale
 70
     0
300
1:2
140
1.0
141
2.0
290
     0
  0
SCALE
  5
4A
102
{ACAD_REACTORS
330
47
102
}
330
47
100
AcDbScale
 70
     0
300
1:4
140
1.0
141
4.0
290
     0
  0
SCALE
  5
4B
102
{ACAD_REACTORS
330
47
102
}
330
47
100
AcDbScale
 70
     0
300
1:5
140
1.0
141
5.0
290
     0
  0
SCALE
  5
4C
102
{ACAD_REACTORS
330
47
102
}
330
47
100
AcDbScale
 70
     0
300
1:8
140
1.0
141
8.0
290
     0
  0
SCALE
  5
4D
102
{ACAD_REACTORS
330
47
102
}
330
47
100
AcDbScale
 70
     0
300
1:10
140
1.0
141
10.0
290
     0
  0
SCALE
  5
4E
102
{ACAD_REACTORS
330
47
102
}
330
47
100
AcDbScale
 70
     0
300
1:16
140
1.0
141
16.0
290
     0
  0
SCALE
  5
4F
102
{ACAD_REACTORS
330
47
102
}
330
47
100
AcDbScale
 70
     0
300
1:20
140
1.0
141
20.0
290
     0
  0
SCALE
  5
50
102
{ACAD_REACTORS
330
47
102
}
330
47
100
AcDbScale
 70
     0
300
1:30
140
1.0
141
30.0
290
     0
  0
SCALE
  5
51
102
{ACAD_REACTORS
330
47
102
}
330
47
100
AcDbScale
 70
     0
300
1:40
140
1.0
141
40.0
290
     0
  0
SCALE
  5
52
102
{ACAD_REACTORS
330
47
102
}
330
47
100
AcDbScale
 70
     0
300
1:50
140
1.0
141
50.0
290
     0
  0
SCALE
  5
53
102
{ACAD_REACTORS
330
47
102
}
330
47
100
AcDbScale
 70
     0
300
1:100
140
1.0
141
100.0
290
     0
  0
SCALE
  5
54
102
{ACAD_REACTORS
330
47
102
}
330
47
100
AcDbScale
 70
     0
300
2:1
140
2.0
141
1.0
290
     0
  0
SCALE
  5
55
102
{ACAD_REACTORS
330
47
102
}
330
47
100
AcDbScale
 70
     0
300
4:1
140
4.0
141
1.0
290
     0
  0
SCALE
  5
56
102
{ACAD_REACTORS
330
47
102
}
330
47
100
AcDbScale
 70
     0
300
8:1
140
8.0
141
1.0
290
     0
  0
SCALE
  5
57
102
{ACAD_REACTORS
330
47
102
}
330
47
100
AcDbScale
 70
     0
300
10:1
140
10.0
141
1.0
290
     0
  0
SCALE
  5
58
102
{ACAD_REACTORS
330
47
102
}
330
47
100
AcDbScale
 70
     0
300
100:1
140
100.0
141
1.0
290
     0
  0
SCALE
  5
59
102
{ACAD_REACTORS
330
47
102
}
330
47
100
AcDbScale
 70
     0
300
1/128" = 1'-0"
140
0.0078125
141
12.0
290
     0
  0
SCALE
  5
5A
102
{ACAD_REACTORS
330
47
102
}
330
47
100
AcDbScale
 70
     0
300
1/64" = 1'-0"
140
0.015625
141
12.0
290
     0
  0
SCALE
  5
5B
102
{ACAD_REACTORS
330
47
102
}
330
47
100
AcDbScale
 70
     0
300
1/32" = 1'-0"
140
0.03125
141
12.0
290
     0
  0
SCALE
  5
5C
102
{ACAD_REACTORS
330
47
102
}
330
47
100
AcDbScale
 70
     0
300
1/16" = 1'-0"
140
0.0625
141
12.0
290
     0
  0
SCALE
  5
5D
102
{ACAD_REACTORS
330
47
102
}
330
47
100
AcDbScale
 70
     0
300
3/32" = 1'-0"
140
0.09375
141
12.0
290
     0
  0
SCALE
  5
5E
102
{ACAD_REACTORS
330
47
102
}
330
47
100
AcDbScale
 70
     0
300
1/8" = 1'-0"
140
0.125
141
12.0
290
     0
  0
SCALE
  5
5F
102
{ACAD_REACTORS
330
47
102
}
330
47
100
AcDbScale
 70
     0
300
3/16" = 1'-0"
140
0.1875
141
12.0
290
     0
  0
SCALE
  5
60
102
{ACAD_REACTORS
330
47
102
}
330
47
100
AcDbScale
 70
     0
300
1/4" = 1'-0"
140
0.25
141
12.0
290
     0
  0
SCALE
  5
61
102
{ACAD_REACTORS
330
47
102
}
330
47
100
AcDbScale
 70
     0
300
3/8" = 1'-0"
140
0.375
141
12.0
290
     0
  0
SCALE
  5
62
102
{ACAD_REACTORS
330
47
102
}
330
47
100
AcDbScale
 70
     0
300
1/2" = 1'-0"
140
0.5
141
12.0
290
     0
  0
SCALE
  5
63
102
{ACAD_REACTORS
330
47
102
}
330
47
100
AcDbScale
 70
     0
300
3/4" = 1'-0"
140
0.75
141
12.0
290
     0
  0
SCALE
  5
64
102
{ACAD_REACTORS
330
47
102
}
330
47
100
AcDbScale
 70
     0
300
1" = 1'-0"
140
1.0
141
12.0
290
     0
  0
SCALE
  5
65
102
{ACAD_REACTORS
330
47
102
}
330
47
100
AcDbScale
 70
     0
300
1-1/2" = 1'-0"
140
1.5
141
12.0
290
     0
  0
SCALE
  5
66
102
{ACAD_REACTORS
330
47
102
}
330
47
100
AcDbScale
 70
     0
300
3" = 1'-0"
140
3.0
141
12.0
290
     0
  0
SCALE
  5
67
102
{ACAD_REACTORS
330
47
102
}
330
47
100
AcDbScale
 70
     0
300
6" = 1'-0"
140
6.0
141
12.0
290
     0
  0
SCALE
  5
68
102
{ACAD_REACTORS
330
47
102
}
330
47
100
AcDbScale
 70
     0
300
1'-0" = 1'-0"
140
12.0
141
12.0
290
     0
  0
VISUALSTYLE
  5
2F
102
{ACAD_REACTORS
330
2A
102
}
330
2A
100
AcDbVisualStyle
  2
2dWireframe
 70
     4
177
     3
291
     0
 70
    58
 90
        0
176
     1
 90
        2
176
     1
 90
        0
176
     1
 90
        0
176
     1
 40
0.6
176
     1
 40
30.0
176
     1
 62
     7
420
 16777215
176
     1
 90
        1
176
     1
 90
        4
176
     1
 62
     7
176
     1
 62
   257
176
     1
 90
        1
176
     1
 90
        1
176
     1
 40
1.0
176
     1
 90
        0
176
     1
 62
   257
176
     1
 40
1.0
176
     1
 90
        1
176
     1
 90
        6
176
     1
 90
        2
176
     1
 62
     7
176
     1
 90
        5
176
     1
 90
        0
176
     1
 90
        0
176
     1
290
     0
176
     1
 90
        1
176
     1
 40
0.0
176
     1
 90
        0
176
     1
290
     1
176
     1
290
     1
176
     1
290
     0
176
     1
290
     0
176
     1
290
     0
176
     1
290
     0
176
     1
290
     0
176
     1
290
     0
176
     1
290
     0
176
     1
 90
       50
176
     1
 40
0.0
176
     1
 40
1.0
176
     1
 90
        0
176
     1
 62
    18
420
        0
176
     1
 90
       50
176
     1
 90
        3
176
     1
 62
     5
420
      255
176
     1
290
     0
176
     1
 90
       50
176
     1
 90
       50
176
     1
 90
       50
176
     1
290
     0
176
     1
 90
       50
176
     1
 62
   256
176
     0
 40
1.0
176
     0
 90
        2
176
     1
  1
strokes_ogs.tif
176
     1
290
     0
176
     1
 40
1.0
176
     1
 40
1.0
176
     1
  0
VISUALSTYLE
  5
32
102
{ACAD_REACTORS
330
2A
102
}
330
2A
100
AcDbVisualStyle
  2
Basic
 70
     7
177
     3
291
     1
 70
    58
 90
        1
176
     1
 90
        0
176
     1
 90
        1
176
     1
 90
        0
176
     1
 40
0.6
176
     1
 40
30.0
176
     1
 62
     7
420
 16777215
176
     1
 90
        0
176
     1
 90
        4
176
     1
 62
     7
176
     1
 62
   257
176
     1
 90
        1
176
     1
 90
        1
176
     1
 40
1.0
176
     1
 90
        8
176
     1
 62
     7
176
     1
 40
1.0
176
     1
 90
        1
176
     1
 90
        6
176
     1
 90
        2
176
     1
 62
     7
176
     1
 90
        5
176
     1
 90
        0
176
     1
 90
        0
176
     1
290
     0
176
     1
 90
        1
176
     1
 40
0.0
176
     1
 90
        0
176
     1
290
     0
176
     1
290
     1
176
     1
290
     1
176
     1
290
     0
176
     1
290
     0
176
     1
290
     0
176
     1
290
     0
176
     1
290
     0
176
     1
290
     0
176
     1
 90
       50
176
     1
 40
0.0
176
     1
 40
1.0
176
     1
 90
        0
176
     1
 62
    18
420
        0
176
     1
 90
       50
176
     1
 90
        3
176
     1
 62
     5
420
      255
176
     1
290
     0
176
     1
 90
       50
176
     1
 90
       50
176
     1
 90
       50
176
     1
290
     0
176
     1
 90
       50
176
     1
 62
   256
176
     0
 40
1.0
176
     0
 90
        2
176
     1
  1
strokes_ogs.tif
176
     1
290
     0
176
     1
 40
1.0
176
     1
 40
1.0
176
     1
  0
VISUALSTYLE
  5
36
102
{ACAD_REACTORS
330
2A
102
}
330
2A
100
AcDbVisualStyle
  2
Brighten
 70
    12
177
     3
291
     1
 70
    58
 90
        2
176
     1
 90
        2
176
     1
 90
        0
176
     1
 90
        0
176
     1
 40
0.6
176
     1
 40
30.0
176
     1
 62
     7
420
 16777215
176
     1
 90
        1
176
     1
 90
        4
176
     1
 62
     7
176
     1
 62
   257
176
     1
 90
        1
176
     1
 90
        1
176
     1
 40
1.0
176
     1
 90
        8
176
     1
 62
     7
176
     1
 40
1.0
176
     1
 90
        1
176
     1
 90
        6
176
     1
 90
        2
176
     1
 62
     7
176
     1
 90
        5
176
     1
 90
        0
176
     1
 90
        0
176
     1
290
     0
176
     1
 90
        1
176
     1
 40
50.0
176
     1
 90
        0
176
     1
290
     0
176
     1
290
     1
176
     1
290
     1
176
     1
290
     0
176
     1
290
     0
176
     1
290
     0
176
     1
290
     0
176
     1
290
     0
176
     1
290
     0
176
     1
 90
       50
176
     1
 40
0.0
176
     1
 40
1.0
176
     1
 90
        0
176
     1
 62
    18
420
        0
176
     1
 90
       50
176
     1
 90
        3
176
     1
 62
     5
420
      255
176
     1
290
     0
176
     1
 90
       50
176
     1
 90
       50
176
     1
 90
       50
176
     1
290
     0
176
     1
 90
       50
176
     1
 62
   256
176
     0
 40
1.0
176
     0
 90
        2
176
     1
  1
strokes_ogs.tif
176
     1
290
     0
176
     1
 40
1.0
176
     1
 40
1.0
176
     1
  0
VISUALSTYLE
  5
3A
102
{ACAD_REACTORS
330
2A
102
}
330
2A
100
AcDbVisualStyle
  2
ColorChange
 70
    16
177
     3
291
     1
 70
    58
 90
        2
176
     1
 90
        2
176
     1
 90
        3
176
     1
 90
        0
176
     1
 40
0.6
176
     1
 40
30.0
176
     1
 62
     8
420
  8421504
176
     1
 90
        1
176
     1
 90
        4
176
     1
 62
     7
176
     1
 62
   257
176
     1
 90
        1
176
     1
 90
        1
176
     1
 40
1.0
176
     1
 90
        8
176
     1
 62
     8
420
  8421504
176
     1
 40
1.0
176
     1
 90
        1
176
     1
 90
        6
176
     1
 90
        2
176
     1
 62
     7
176
     1
 90
        5
176
     1
 90
        0
176
     1
 90
        0
176
     1
290
     0
176
     1
 90
        1
176
     1
 40
0.0
176
     1
 90
        0
176
     1
290
     0
176
     1
290
     1
176
     1
290
     1
176
     1
290
     0
176
     1
290
     0
176
     1
290
     0
176
     1
290
     0
176
     1
290
     0
176
     1
290
     0
176
     1
 90
       50
176
     1
 40
0.0
176
     1
 40
1.0
176
     1
 90
        0
176
     1
 62
    18
420
        0
176
     1
 90
       50
176
     1
 90
        3
176
     1
 62
     5
420
      255
176
     1
290
     0
176
     1
 90
       50
176
     1
 90
       50
176
     1
 90
       50
176
     1
290
     0
176
     1
 90
       50
176
     1
 62
   256
176
     0
 40
1.0
176
     0
 90
        2
176
     1
  1
strokes_ogs.tif
176
     1
290
     0
176
     1
 40
1.0
176
     1
 40
1.0
176
     1
  0
VISUALSTYLE
  5
34
102
{ACAD_REACTORS
330
2A
102
}
330
2A
100
AcDbVisualStyle
  2
Conceptual
 70
     9
177
     3
291
     0
 70
    58
 90
        3
176
     1
 90
        2
176
     1
 90
        0
176
     1
 90
        0
176
     1
 40
0.6
176
     1
 40
30.0
176
     1
 62
     7
420
 16777215
176
     1
 90
        2
176
     1
 90
        2
176
     1
 62
     7
176
     1
 62
   257
176
     1
 90
        1
176
     1
 90
        1
176
     1
 40
179.0
176
     1
 90
        8
176
     1
 62
     7
176
     1
 40
1.0
176
     1
 90
        1
176
     1
 90
        6
176
     1
 90
        2
176
     1
 62
     7
176
     1
 90
        3
176
     1
 90
        0
176
     1
 90
        0
176
     1
290
     0
176
     1
 90
        1
176
     1
 40
0.0
176
     1
 90
        0
176
     1
290
     0
176
     1
290
     1
176
     1
290
     1
176
     1
290
     0
176
     1
290
     0
176
     1
290
     0
176
     1
290
     0
176
     1
290
     0
176
     1
290
     0
176
     1
 90
       50
176
     1
 40
0.0
176
     1
 40
1.0
176
     1
 90
        0
176
     1
 62
    18
420
        0
176
     1
 90
       50
176
     1
 90
        3
176
     1
 62
     5
420
      255
176
     1
290
     0
176
     1
 90
       50
176
     1
 90
       50
176
     1
 90
       50
176
     1
290
     0
176
     1
 90
       50
176
     1
 62
   256
176
     0
 40
1.0
176
     0
 90
        2
176
     1
  1
strokes_ogs.tif
176
     1
290
     0
176
     1
 40
1.0
176
     1
 40
1.0
176
     1
  0
VISUALSTYLE
  5
35
102
{ACAD_REACTORS
330
2A
102
}
330
2A
100
AcDbVisualStyle
  2
Dim
 70
    11
177
     3
291
     1
 70
    58
 90
        2
176
     1
 90
        2
176
     1
 90
        0
176
     1
 90
        0
176
     1
 40
0.6
176
     1
 40
30.0
176
     1
 62
     7
420
 16777215
176
     1
 90
        1
176
     1
 90
        4
176
     1
 62
     7
176
     1
 62
   257
176
     1
 90
        1
176
     1
 90
        1
176
     1
 40
1.0
176
     1
 90
        8
176
     1
 62
     7
176
     1
 40
1.0
176
     1
 90
        1
176
     1
 90
        6
176
     1
 90
        2
176
     1
 62
     7
176
     1
 90
        5
176
     1
 90
        0
176
     1
 90
        0
176
     1
290
     0
176
     1
 90
        1
176
     1
 40
-50.0
176
     1
 90
        0
176
     1
290
     0
176
     1
290
     1
176
     1
290
     1
176
     1
290
     0
176
     1
290
     0
176
     1
290
     0
176
     1
290
     0
176
     1
290
     0
176
     1
290
     0
176
     1
 90
       50
176
     1
 40
0.0
176
     1
 40
1.0
176
     1
 90
        0
176
     1
 62
    18
420
        0
176
     1
 90
       50
176
     1
 90
        3
176
     1
 62
     5
420
      255
176
     1
290
     0
176
     1
 90
       50
176
     1
 90
       50
176
     1
 90
       50
176
     1
290
     0
176
     1
 90
       50
176
     1
 62
   256
176
     0
 40
1.0
176
     0
 90
        2
176
     1
  1
strokes_ogs.tif
176
     1
290
     0
176
     1
 40
1.0
176
     1
 40
1.0
176
     1
  0
VISUALSTYLE
  5
3D
102
{ACAD_REACTORS
330
2A
102
}
330
2A
100
AcDbVisualStyle
  2
EdgeColorOff
 70
    22
177
     3
291
     1
 70
    58
 90
        2
176
     0
 90
        2
176
     0
 90
        0
176
     0
 90
        0
176
     0
 40
0.6
176
     0
 40
30.0
176
     0
 62
     7
420
 16777215
176
     0
 90
        1
176
     0
 90
        4
176
     0
 62
     7
176
     0
 62
   257
176
     0
 90
        1
176
     0
 90
        1
176
     0
 40
1.0
176
     0
 90
        8
176
     2
 62
     7
176
     0
 40
1.0
176
     0
 90
        1
176
     0
 90
        6
176
     0
 90
        2
176
     0
 62
     7
176
     0
 90
        5
176
     0
 90
        0
176
     0
 90
        0
176
     0
290
     0
176
     0
 90
        1
176
     0
 40
0.0
176
     0
 90
        0
176
     0
290
     0
176
     0
290
     1
176
     0
290
     1
176
     0
290
     0
176
     0
290
     0
176
     0
290
     0
176
     0
290
     0
176
     0
290
     0
176
     0
290
     0
176
     0
 90
       50
176
     0
 40
0.0
176
     0
 40
1.0
176
     0
 90
        0
176
     0
 62
    18
420
        0
176
     0
 90
       50
176
     0
 90
        3
176
     0
 62
     5
420
      255
176
     0
290
     0
176
     0
 90
       50
176
     0
 90
       50
176
     0
 90
       50
176
     0
290
     0
176
     0
 90
       50
176
     0
 62
   256
176
     0
 40
1.0
176
     0
 90
        2
176
     0
  1
strokes_ogs.tif
176
     0
290
     0
176
     0
 40
1.0
176
     0
 40
1.0
176
     0
  0
VISUALSTYLE
  5
39
102
{ACAD_REACTORS
330
2A
102
}
330
2A
100
AcDbVisualStyle
  2
Facepattern
 70
    15
177
     3
291
     1
 70
    58
 90
        2
176
     1
 90
        2
176
     1
 90
        0
176
     1
 90
        0
176
     1
 40
0.6
176
     1
 40
30.0
176
     1
 62
     7
420
 16777215
176
     1
 90
        1
176
     1
 90
        4
176
     1
 62
     7
176
     1
 62
   257
176
     1
 90
        1
176
     1
 90
        1
176
     1
 40
1.0
176
     1
 90
        8
176
     1
 62
     7
176
     1
 40
1.0
176
     1
 90
        1
176
     1
 90
        6
176
     1
 90
        2
176
     1
 62
     7
176
     1
 90
        5
176
     1
 90
        0
176
     1
 90
        0
176
     1
290
     0
176
     1
 90
        1
176
     1
 40
0.0
176
     1
 90
        0
176
     1
290
     0
176
     1
290
     1
176
     1
290
     1
176
     1
290
     0
176
     1
290
     0
176
     1
290
     0
176
     1
290
     0
176
     1
290
     0
176
     1
290
     0
176
     1
 90
       50
176
     1
 40
0.0
176
     1
 40
1.0
176
     1
 90
        0
176
     1
 62
    18
420
        0
176
     1
 90
       50
176
     1
 90
        3
176
     1
 62
     5
420
      255
176
     1
290
     0
176
     1
 90
       50
176
     1
 90
       50
176
     1
 90
       50
176
     1
290
     0
176
     1
 90
       50
176
     1
 62
   256
176
     0
 40
1.0
176
     0
 90
        2
176
     1
  1
strokes_ogs.tif
176
     1
290
     0
176
     1
 40
1.0
176
     1
 40
1.0
176
     1
  0
VISUALSTYLE
  5
2B
102
{ACAD_REACTORS
330
2A
102
}
330
2A
100
AcDbVisualStyle
  2
Flat
 70
     0
177
     3
291
     1
 70
    58
 90
        2
176
     1
 90
        1
176
     1
 90
        1
176
     1
 90
        2
176
     1
 40
0.6
176
     1
 40
30.0
176
     1
 62
     7
420
 16777215
176
     1
 90
        0
176
     1
 90
        0
176
     1
 62
     7
176
     1
 62
   257
176
     1
 90
        1
176
     1
 90
        1
176
     1
 40
1.0
176
     1
 90
        8
176
     1
 62
     7
176
     1
 40
1.0
176
     1
 90
        1
176
     1
 90
        6
176
     1
 90
        2
176
     1
 62
     7
176
     1
 90
        5
176
     1
 90
        0
176
     1
 90
        0
176
     1
290
     0
176
     1
 90
       13
176
     1
 40
0.0
176
     1
 90
        0
176
     1
290
     0
176
     1
290
     1
176
     1
290
     1
176
     1
290
     0
176
     1
290
     0
176
     1
290
     0
176
     1
290
     0
176
     1
290
     0
176
     1
290
     0
176
     1
 90
       50
176
     1
 40
0.0
176
     1
 40
1.0
176
     1
 90
        0
176
     1
 62
    18
420
        0
176
     1
 90
       50
176
     1
 90
        3
176
     1
 62
     5
420
      255
176
     1
290
     0
176
     1
 90
       50
176
     1
 90
       50
176
     1
 90
       50
176
     1
290
     0
176
     1
 90
       50
176
     1
 62
   256
176
     0
 40
1.0
176
     0
 90
        2
176
     1
  1
strokes_ogs.tif
176
     1
290
     0
176
     1
 40
1.0
176
     1
 40
1.0
176
     1
  0
VISUALSTYLE
  5
2C
102
{ACAD_REACTORS
330
2A
102
}
330
2A
100
AcDbVisualStyle
  2
FlatWithEdges
 70
     1
177
     3
291
     1
 70
    58
 90
        2
176
     1
 90
        1
176
     1
 90
        1
176
     1
 90
        2
176
     1
 40
0.6
176
     1
 40
30.0
176
     1
 62
     7
420
 16777215
176
     1
 90
        1
176
     1
 90
        0
176
     1
 62
     7
176
     1
 62
   257
176
     1
 90
        1
176
     1
 90
        1
176
     1
 40
1.0
176
     1
 90
        0
176
     1
 62
   257
176
     1
 40
1.0
176
     1
 90
        1
176
     1
 90
        6
176
     1
 90
        2
176
     1
 62
     7
176
     1
 90
        5
176
     1
 90
        0
176
     1
 90
        0
176
     1
290
     0
176
     1
 90
       13
176
     1
 40
0.0
176
     1
 90
        0
176
     1
290
     0
176
     1
290
     1
176
     1
290
     1
176
     1
290
     0
176
     1
290
     0
176
     1
290
     0
176
     1
290
     0
176
     1
290
     0
176
     1
290
     0
176
     1
 90
       50
176
     1
 40
0.0
176
     1
 40
1.0
176
     1
 90
        0
176
     1
 62
    18
420
        0
176
     1
 90
       50
176
     1
 90
        3
176
     1
 62
     5
420
      255
176
     1
290
     0
176
     1
 90
       50
176
     1
 90
       50
176
     1
 90
       50
176
     1
290
     0
176
     1
 90
       50
176
     1
 62
   256
176
     0
 40
1.0
176
     0
 90
        2
176
     1
  1
strokes_ogs.tif
176
     1
290
     0
176
     1
 40
1.0
176
     1
 40
1.0
176
     1
  0
VISUALSTYLE
  5
2D
102
{ACAD_REACTORS
330
2A
102
}
330
2A
100
AcDbVisualStyle
  2
Gouraud
 70
     2
177
     3
291
     1
 70
    58
 90
        2
176
     1
 90
        2
176
     1
 90
        1
176
     1
 90
        2
176
     1
 40
0.6
176
     1
 40
30.0
176
     1
 62
     7
420
 16777215
176
     1
 90
        0
176
     1
 90
        0
176
     1
 62
     7
176
     1
 62
   257
176
     1
 90
        1
176
     1
 90
        1
176
     1
 40
1.0
176
     1
 90
        0
176
     1
 62
     7
176
     1
 40
1.0
176
     1
 90
        1
176
     1
 90
        6
176
     1
 90
        2
176
     1
 62
     7
176
     1
 90
        5
176
     1
 90
        0
176
     1
 90
        0
176
     1
290
     0
176
     1
 90
       13
176
     1
 40
0.0
176
     1
 90
        0
176
     1
290
     0
176
     1
290
     1
176
     1
290
     1
176
     1
290
     0
176
     1
290
     0
176
     1
290
     0
176
     1
290
     0
176
     1
290
     0
176
     1
290
     0
176
     1
 90
       50
176
     1
 40
0.0
176
     1
 40
1.0
176
     1
 90
        0
176
     1
 62
    18
420
        0
176
     1
 90
       50
176
     1
 90
        3
176
     1
 62
     5
420
      255
176
     1
290
     0
176
     1
 90
       50
176
     1
 90
       50
176
     1
 90
       50
176
     1
290
     0
176
     1
 90
       50
176
     1
 62
   256
176
     0
 40
1.0
176
     0
 90
        2
176
     1
  1
strokes_ogs.tif
176
     1
290
     0
176
     1
 40
1.0
176
     1
 40
1.0
176
     1
  0
VISUALSTYLE
  5
2E
102
{ACAD_REACTORS
330
2A
102
}
330
2A
100
AcDbVisualStyle
  2
GouraudWithEdges
 70
     3
177
     3
291
     1
 70
    58
 90
        2
176
     1
 90
        2
176
     1
 90
        1
176
     1
 90
        2
176
     1
 40
0.6
176
     1
 40
30.0
176
     1
 62
     7
420
 16777215
176
     1
 90
        1
176
     1
 90
        0
176
     1
 62
     7
176
     1
 62
   257
176
     1
 90
        1
176
     1
 90
        1
176
     1
 40
1.0
176
     1
 90
        0
176
     1
 62
   257
176
     1
 40
1.0
176
     1
 90
        1
176
     1
 90
        6
176
     1
 90
        2
176
     1
 62
     7
176
     1
 90
        5
176
     1
 90
        0
176
     1
 90
        0
176
     1
290
     0
176
     1
 90
       13
176
     1
 40
0.0
176
     1
 90
        0
176
     1
290
     0
176
     1
290
     1
176
     1
290
     1
176
     1
290
     0
176
     1
290
     0
176
     1
290
     0
176
     1
290
     0
176
     1
290
     0
176
     1
290
     0
176
     1
 90
       50
176
     1
 40
0.0
176
     1
 40
1.0
176
     1
 90
        0
176
     1
 62
    18
420
        0
176
     1
 90
       50
176
     1
 90
        3
176
     1
 62
     5
420
      255
176
     1
290
     0
176
     1
 90
       50
176
     1
 90
       50
176
     1
 90
       50
176
     1
290
     0
176
     1
 90
       50
176
     1
 62
   256
176
     0
 40
1.0
176
     0
 90
        2
176
     1
  1
strokes_ogs.tif
176
     1
290
     0
176
     1
 40
1.0
176
     1
 40
1.0
176
     1
  0
VISUALSTYLE
  5
31
102
{ACAD_REACTORS
330
2A
102
}
330
2A
100
AcDbVisualStyle
  2
Hidden
 70
     6
177
     3
291
     0
 70
    58
 90
        1
176
     1
 90
        2
176
     1
 90
        2
176
     1
 90
        0
176
     1
 40
0.6
176
     1
 40
30.0
176
     1
 62
     7
420
 16777215
176
     1
 90
        2
176
     1
 90
        2
176
     1
 62
     7
176
     1
 62
   257
176
     1
 90
        2
176
     1
 90
        1
176
     1
 40
40.0
176
     1
 90
        0
176
     1
 62
   257
176
     1
 40
1.0
176
     1
 90
        1
176
     1
 90
        6
176
     1
 90
        2
176
     1
 62
     7
176
     1
 90
        3
176
     1
 90
        0
176
     1
 90
        0
176
     1
290
     0
176
     1
 90
        1
176
     1
 40
0.0
176
     1
 90
        0
176
     1
290
     0
176
     1
290
     1
176
     1
290
     1
176
     1
290
     0
176
     1
290
     0
176
     1
290
     0
176
     1
290
     0
176
     1
290
     0
176
     1
290
     0
176
     1
 90
       50
176
     1
 40
0.0
176
     1
 40
1.0
176
     1
 90
        0
176
     1
 62
    18
420
        0
176
     1
 90
       50
176
     1
 90
        3
176
     1
 62
     5
420
      255
176
     1
290
     0
176
     1
 90
       50
176
     1
 90
       50
176
     1
 90
       50
176
     1
290
     0
176
     1
 90
       50
176
     1
 62
   256
176
     0
 40
1.0
176
     0
 90
        2
176
     1
  1
strokes_ogs.tif
176
     1
290
     0
176
     1
 40
1.0
176
     1
 40
1.0
176
     1
  0
VISUALSTYLE
  5
3B
102
{ACAD_REACTORS
330
2A
102
}
330
2A
100
AcDbVisualStyle
  2
JitterOff
 70
    20
177
     3
291
     1
 70
    58
 90
        2
176
     0
 90
        2
176
     0
 90
        0
176
     0
 90
        0
176
     0
 40
0.6
176
     0
 40
30.0
176
     0
 62
     7
420
 16777215
176
     0
 90
        1
176
     0
 90
        4
176
     0
 62
     7
176
     0
 62
   257
176
     0
 90
        1
176
     0
 90
        1
176
     0
 40
1.0
176
     0
 90
       10
176
     2
 62
     7
176
     0
 40
1.0
176
     0
 90
        1
176
     0
 90
        6
176
     0
 90
        2
176
     0
 62
     7
176
     0
 90
        5
176
     0
 90
        0
176
     0
 90
        0
176
     0
290
     0
176
     0
 90
        1
176
     0
 40
0.0
176
     0
 90
        0
176
     0
290
     0
176
     0
290
     1
176
     0
290
     1
176
     0
290
     0
176
     0
290
     0
176
     0
290
     0
176
     0
290
     0
176
     0
290
     0
176
     0
290
     0
176
     0
 90
       50
176
     0
 40
0.0
176
     0
 40
1.0
176
     0
 90
        0
176
     0
 62
    18
420
        0
176
     0
 90
       50
176
     0
 90
        3
176
     0
 62
     5
420
      255
176
     0
290
     0
176
     0
 90
       50
176
     0
 90
       50
176
     0
 90
       50
176
     0
290
     0
176
     0
 90
       50
176
     0
 62
   256
176
     0
 40
1.0
176
     0
 90
        2
176
     0
  1
strokes_ogs.tif
176
     0
290
     0
176
     0
 40
1.0
176
     0
 40
1.0
176
     0
  0
VISUALSTYLE
  5
38
102
{ACAD_REACTORS
330
2A
102
}
330
2A
100
AcDbVisualStyle
  2
Linepattern
 70
    14
177
     3
291
     1
 70
    58
 90
        2
176
     1
 90
        2
176
     1
 90
        0
176
     1
 90
        0
176
     1
 40
0.6
176
     1
 40
30.0
176
     1
 62
     7
420
 16777215
176
     1
 90
        1
176
     1
 90
        4
176
     1
 62
     7
176
     1
 62
   257
176
     1
 90
        7
176
     1
 90
        7
176
     1
 40
1.0
176
     1
 90
        8
176
     1
 62
     7
176
     1
 40
1.0
176
     1
 90
        1
176
     1
 90
        6
176
     1
 90
        2
176
     1
 62
     7
176
     1
 90
        5
176
     1
 90
        0
176
     1
 90
        0
176
     1
290
     0
176
     1
 90
        1
176
     1
 40
0.0
176
     1
 90
        0
176
     1
290
     0
176
     1
290
     1
176
     1
290
     1
176
     1
290
     0
176
     1
290
     0
176
     1
290
     0
176
     1
290
     0
176
     1
290
     0
176
     1
290
     0
176
     1
 90
       50
176
     1
 40
0.0
176
     1
 40
1.0
176
     1
 90
        0
176
     1
 62
    18
420
        0
176
     1
 90
       50
176
     1
 90
        3
176
     1
 62
     5
420
      255
176
     1
290
     0
176
     1
 90
       50
176
     1
 90
       50
176
     1
 90
       50
176
     1
290
     0
176
     1
 90
       50
176
     1
 62
   256
176
     0
 40
1.0
176
     0
 90
        2
176
     1
  1
strokes_ogs.tif
176
     1
290
     0
176
     1
 40
1.0
176
     1
 40
1.0
176
     1
  0
VISUALSTYLE
  5
3C
102
{ACAD_REACTORS
330
2A
102
}
330
2A
100
AcDbVisualStyle
  2
OverhangOff
 70
    21
177
     3
291
     1
 70
    58
 90
        2
176
     0
 90
        2
176
     0
 90
        0
176
     0
 90
        0
176
     0
 40
0.6
176
     0
 40
30.0
176
     0
 62
     7
420
 16777215
176
     0
 90
        1
176
     0
 90
        4
176
     0
 62
     7
176
     0
 62
   257
176
     0
 90
        1
176
     0
 90
        1
176
     0
 40
1.0
176
     0
 90
        9
176
     2
 62
     7
176
     0
 40
1.0
176
     0
 90
        1
176
     0
 90
        6
176
     0
 90
        2
176
     0
 62
     7
176
     0
 90
        5
176
     0
 90
        0
176
     0
 90
        0
176
     0
290
     0
176
     0
 90
        1
176
     0
 40
0.0
176
     0
 90
        0
176
     0
290
     0
176
     0
290
     1
176
     0
290
     1
176
     0
290
     0
176
     0
290
     0
176
     0
290
     0
176
     0
290
     0
176
     0
290
     0
176
     0
290
     0
176
     0
 90
       50
176
     0
 40
0.0
176
     0
 40
1.0
176
     0
 90
        0
176
     0
 62
    18
420
        0
176
     0
 90
       50
176
     0
 90
        3
176
     0
 62
     5
420
      255
176
     0
290
     0
176
     0
 90
       50
176
     0
 90
       50
176
     0
 90
       50
176
     0
290
     0
176
     0
 90
       50
176
     0
 62
   256
176
     0
 40
1.0
176
     0
 90
        2
176
     0
  1
strokes_ogs.tif
176
     0
290
     0
176
     0
 40
1.0
176
     0
 40
1.0
176
     0
  0
VISUALSTYLE
  5
33
102
{ACAD_REACTORS
330
2A
102
}
330
2A
100
AcDbVisualStyle
  2
Realistic
 70
     8
177
     3
291
     0
 70
    58
 90
        2
176
     1
 90
        3
176
     1
 90
        0
176
     1
 90
        2
176
     1
 40
0.6
176
     1
 40
30.0
176
     1
 62
     7
420
 16777215
176
     1
 90
        0
176
     1
 90
        0
176
     1
 62
     7
176
     1
 62
   257
176
     1
 90
        1
176
     1
 90
        1
176
     1
 40
1.0
176
     1
 90
        8
176
     1
 62
   257
176
     1
 40
1.0
176
     1
 90
        1
176
     1
 90
        6
176
     1
 90
        2
176
     1
 62
     7
176
     1
 90
        3
176
     1
 90
        0
176
     1
 90
        0
176
     1
290
     0
176
     1
 90
       13
176
     1
 40
0.0
176
     1
 90
        0
176
     1
290
     0
176
     1
290
     1
176
     1
290
     1
176
     1
290
     0
176
     1
290
     0
176
     1
290
     0
176
     1
290
     0
176
     1
290
     0
176
     1
290
     0
176
     1
 90
       50
176
     1
 40
0.0
176
     1
 40
1.0
176
     1
 90
        0
176
     1
 62
    18
420
        0
176
     1
 90
       50
176
     1
 90
        3
176
     1
 62
     5
420
      255
176
     1
290
     0
176
     1
 90
       50
176
     1
 90
       50
176
     1
 90
       50
176
     1
290
     0
176
     1
 90
       50
176
     1
 62
   256
176
     0
 40
1.0
176
     0
 90
        2
176
     1
  1
strokes_ogs.tif
176
     1
290
     0
176
     1
 40
1.0
176
     1
 40
1.0
176
     1
  0
VISUALSTYLE
  5
42
102
{ACAD_REACTORS
330
2A
102
}
330
2A
100
AcDbVisualStyle
  2
Shaded
 70
    27
177
     3
291
     0
 70
    58
 90
        2
176
     1
 90
        2
176
     1
 90
        1
176
     1
 90
        2
176
     1
 40
0.6
176
     1
 40
30.0
176
     1
 62
     7
420
 16777215
176
     1
 90
        0
176
     1
 90
        4
176
     1
 62
     7
176
     1
 62
   257
176
     1
 90
        1
176
     1
 90
        1
176
     1
 40
1.0
176
     1
 90
        8
176
     1
 62
   257
176
     1
 40
1.0
176
     1
 90
        1
176
     1
 90
        6
176
     1
 90
        2
176
     1
 62
     8
420
  7895160
176
     1
 90
        3
176
     1
 90
        0
176
     1
 90
        0
176
     1
290
     0
176
     1
 90
        5
176
     1
 40
0.0
176
     1
 90
        0
176
     1
290
     0
176
     1
290
     1
176
     1
290
     1
176
     1
290
     0
176
     1
290
     0
176
     1
290
     0
176
     1
290
     0
176
     1
290
     0
176
     1
290
     0
176
     1
 90
       50
176
     1
 40
0.0
176
     1
 40
1.0
176
     1
 90
        0
176
     1
 62
    18
420
        0
176
     1
 90
       50
176
     1
 90
        3
176
     1
 62
     5
420
      255
176
     1
290
     0
176
     1
 90
       50
176
     1
 90
       50
176
     1
 90
       50
176
     1
290
     0
176
     1
 90
       50
176
     1
 62
   256
176
     0
 40
1.0
176
     0
 90
        2
176
     1
  1
strokes_ogs.tif
176
     1
290
     0
176
     1
 40
1.0
176
     1
 40
1.0
176
     1
  0
VISUALSTYLE
  5
41
102
{ACAD_REACTORS
330
2A
102
}
330
2A
100
AcDbVisualStyle
  2
Shaded with edges
 70
    26
177
     3
291
     0
 70
    58
 90
        2
176
     1
 90
        2
176
     1
 90
        1
176
     1
 90
        2
176
     1
 40
0.6
176
     1
 40
30.0
176
     1
 62
     7
420
 16777215
176
     1
 90
        1
176
     1
 90
       10
176
     1
 62
     7
176
     1
 62
   257
176
     1
 90
        2
176
     1
 90
        1
176
     1
 40
1.0
176
     1
 90
        8
176
     1
 62
   257
176
     1
 40
1.0
176
     1
 90
        1
176
     1
 90
        6
176
     1
 90
        2
176
     1
 62
     7
176
     1
 90
        3
176
     1
 90
        0
176
     1
 90
        0
176
     1
290
     0
176
     1
 90
        5
176
     1
 40
0.0
176
     1
 90
        0
176
     1
290
     0
176
     1
290
     1
176
     1
290
     1
176
     1
290
     0
176
     1
290
     0
176
     1
290
     0
176
     1
290
     0
176
     1
290
     0
176
     1
290
     0
176
     1
 90
       50
176
     1
 40
0.0
176
     1
 40
1.0
176
     1
 90
        0
176
     1
 62
    18
420
        0
176
     1
 90
       50
176
     1
 90
        3
176
     1
 62
     5
420
      255
176
     1
290
     0
176
     1
 90
       50
176
     1
 90
       50
176
     1
 90
       50
176
     1
290
     0
176
     1
 90
       50
176
     1
 62
   256
176
     0
 40
1.0
176
     0
 90
        2
176
     1
  1
strokes_ogs.tif
176
     1
290
     0
176
     1
 40
1.0
176
     1
 40
1.0
176
     1
  0
VISUALSTYLE
  5
3E
102
{ACAD_REACTORS
330
2A
102
}
330
2A
100
AcDbVisualStyle
  2
Shades of Gray
 70
    23
177
     3
291
     0
 70
    58
 90
        2
176
     1
 90
        2
176
     1
 90
        3
176
     1
 90
        0
176
     1
 40
0.6
176
     1
 40
30.0
176
     1
 62
     7
420
 16777215
176
     1
 90
        2
176
     1
 90
        2
176
     1
 62
     7
176
     1
 62
     7
176
     1
 90
        1
176
     1
 90
        1
176
     1
 40
40.0
176
     1
 90
        8
176
     1
 62
     7
176
     1
 40
1.0
176
     1
 90
        1
176
     1
 90
        6
176
     1
 90
        2
176
     1
 62
     7
176
     1
 90
        3
176
     1
 90
        0
176
     1
 90
        0
176
     1
290
     0
176
     1
 90
        1
176
     1
 40
0.0
176
     1
 90
        0
176
     1
290
     0
176
     1
290
     1
176
     1
290
     1
176
     1
290
     0
176
     1
290
     0
176
     1
290
     0
176
     1
290
     0
176
     1
290
     0
176
     1
290
     0
176
     1
 90
       50
176
     1
 40
0.0
176
     1
 40
1.0
176
     1
 90
        0
176
     1
 62
    18
420
        0
176
     1
 90
       50
176
     1
 90
        3
176
     1
 62
     5
420
      255
176
     1
290
     0
176
     1
 90
       50
176
     1
 90
       50
176
     1
 90
       50
176
     1
290
     0
176
     1
 90
       50
176
     1
 62
   256
176
     0
 40
1.0
176
     0
 90
        2
176
     1
  1
strokes_ogs.tif
176
     1
290
     0
176
     1
 40
1.0
176
     1
 40
1.0
176
     1
  0
VISUALSTYLE
  5
3F
102
{ACAD_REACTORS
330
2A
102
}
330
2A
100
AcDbVisualStyle
  2
Sketchy
 70
    24
177
     3
291
     0
 70
    58
 90
        1
176
     1
 90
        2
176
     1
 90
        2
176
     1
 90
        0
176
     1
 40
0.6
176
     1
 40
30.0
176
     1
 62
     7
420
 16777215
176
     1
 90
        2
176
     1
 90
        2
176
     1
 62
     7
176
     1
 62
     7
176
     1
 90
        1
176
     1
 90
        1
176
     1
 40
40.0
176
     1
 90
       11
176
     1
 62
     7
176
     1
 40
1.0
176
     1
 90
        1
176
     1
 90
        6
176
     1
 90
        2
176
     1
 62
     7
176
     1
 90
        6
176
     1
 90
        0
176
     1
 90
        0
176
     1
290
     0
176
     1
 90
        1
176
     1
 40
0.0
176
     1
 90
        0
176
     1
290
     0
176
     1
290
     1
176
     1
290
     1
176
     1
290
     0
176
     1
290
     0
176
     1
290
     0
176
     1
290
     0
176
     1
290
     0
176
     1
290
     0
176
     1
 90
       50
176
     1
 40
0.0
176
     1
 40
1.0
176
     1
 90
        0
176
     1
 62
    18
420
        0
176
     1
 90
       50
176
     1
 90
        3
176
     1
 62
     5
420
      255
176
     1
290
     0
176
     1
 90
       50
176
     1
 90
       50
176
     1
 90
       50
176
     1
290
     0
176
     1
 90
       50
176
     1
 62
   256
176
     0
 40
1.0
176
     0
 90
        2
176
     1
  1
strokes_ogs.tif
176
     1
290
     0
176
     1
 40
1.0
176
     1
 40
1.0
176
     1
  0
VISUALSTYLE
  5
37
102
{ACAD_REACTORS
330
2A
102
}
330
2A
100
AcDbVisualStyle
  2
Thicken
 70
    13
177
     3
291
     1
 70
    58
 90
        2
176
     1
 90
        2
176
     1
 90
        0
176
     1
 90
        0
176
     1
 40
0.6
176
     1
 40
30.0
176
     1
 62
     7
420
 16777215
176
     1
 90
        1
176
     1
 90
        4
176
     1
 62
     7
176
     1
 62
   257
176
     1
 90
        1
176
     1
 90
        1
176
     1
 40
1.0
176
     1
 90
       12
176
     1
 62
     7
176
     1
 40
1.0
176
     1
 90
        1
176
     1
 90
        6
176
     1
 90
        2
176
     1
 62
     7
176
     1
 90
        5
176
     1
 90
        0
176
     1
 90
        0
176
     1
290
     0
176
     1
 90
        1
176
     1
 40
0.0
176
     1
 90
        0
176
     1
290
     0
176
     1
290
     1
176
     1
290
     1
176
     1
290
     0
176
     1
290
     0
176
     1
290
     0
176
     1
290
     0
176
     1
290
     0
176
     1
290
     0
176
     1
 90
       50
176
     1
 40
0.0
176
     1
 40
1.0
176
     1
 90
        0
176
     1
 62
    18
420
        0
176
     1
 90
       50
176
     1
 90
        3
176
     1
 62
     5
420
      255
176
     1
290
     0
176
     1
 90
       50
176
     1
 90
       50
176
     1
 90
       50
176
     1
290
     0
176
     1
 90
       50
176
     1
 62
   256
176
     0
 40
1.0
176
     0
 90
        2
176
     1
  1
strokes_ogs.tif
176
     1
290
     0
176
     1
 40
1.0
176
     1
 40
1.0
176
     1
  0
VISUALSTYLE
  5
30
102
{ACAD_REACTORS
330
2A
102
}
330
2A
100
AcDbVisualStyle
  2
Wireframe
 70
     5
177
     3
291
     0
 70
    58
 90
        0
176
     1
 90
        2
176
     1
 90
        0
176
     1
 90
        0
176
     1
 40
0.6
176
     1
 40
30.0
176
     1
 62
     7
420
 16777215
176
     1
 90
        1
176
     1
 90
        4
176
     1
 62
     7
176
     1
 62
   257
176
     1
 90
        1
176
     1
 90
        1
176
     1
 40
1.0
176
     1
 90
        0
176
     1
 62
   257
176
     1
 40
1.0
176
     1
 90
        1
176
     1
 90
        6
176
     1
 90
        2
176
     1
 62
     7
176
     1
 90
        3
176
     1
 90
        0
176
     1
 90
        0
176
     1
290
     0
176
     1
 90
        1
176
     1
 40
0.0
176
     1
 90
        0
176
     1
290
     0
176
     1
290
     1
176
     1
290
     1
176
     1
290
     0
176
     1
290
     0
176
     1
290
     0
176
     1
290
     0
176
     1
290
     0
176
     1
290
     0
176
     1
 90
       50
176
     1
 40
0.0
176
     1
 40
1.0
176
     1
 90
        0
176
     1
 62
    18
420
        0
176
     1
 90
       50
176
     1
 90
        3
176
     1
 62
     5
420
      255
176
     1
290
     0
176
     1
 90
       50
176
     1
 90
       50
176
     1
 90
       50
176
     1
290
     0
176
     1
 90
       50
176
     1
 62
   256
176
     0
 40
1.0
176
     0
 90
        2
176
     1
  1
strokes_ogs.tif
176
     1
290
     0
176
     1
 40
1.0
176
     1
 40
1.0
176
     1
  0
VISUALSTYLE
  5
40
102
{ACAD_REACTORS
330
2A
102
}
330
2A
100
AcDbVisualStyle
  2
X-Ray
 70
    25
177
     3
291
     0
 70
    58
 90
        2
176
     1
 90
        2
176
     1
 90
        1
176
     1
 90
        1
176
     1
 40
0.5
176
     1
 40
30.0
176
     1
 62
     7
420
 16777215
176
     1
 90
        1
176
     1
 90
        0
176
     1
 62
     7
176
     1
 62
   257
176
     1
 90
        1
176
     1
 90
        1
176
     1
 40
1.0
176
     1
 90
        8
176
     1
 62
     7
176
     1
 40
1.0
176
     1
 90
        1
176
     1
 90
        6
176
     1
 90
        2
176
     1
 62
     7
176
     1
 90
        3
176
     1
 90
        0
176
     1
 90
        0
176
     1
290
     0
176
     1
 90
       13
176
     1
 40
0.0
176
     1
 90
        0
176
     1
290
     0
176
     1
290
     1
176
     1
290
     1
176
     1
290
     0
176
     1
290
     0
176
     1
290
     0
176
     1
290
     0
176
     1
290
     0
176
     1
290
     0
176
     1
 90
       50
176
     1
 40
0.0
176
     1
 40
1.0
176
     1
 90
        0
176
     1
 62
    18
420
        0
176
     1
 90
       50
176
     1
 90
        3
176
     1
 62
     5
420
      255
176
     1
290
     0
176
     1
 90
       50
176
     1
 90
       50
176
     1
 90
       50
176
     1
290
     0
176
     1
 90
       50
176
     1
 62
   256
176
     0
 40
1.0
176
     0
 90
        2
176
     1
  1
strokes_ogs.tif
176
     1
290
     0
176
     1
 40
1.0
176
     1
 40
1.0
176
     1
  0
DICTIONARYVAR
  5
147
102
{ACAD_REACTORS
330
146
102
}
330
146
100
DictionaryVariables
280
     0
  1
1:1
  0
ENDSEC
  0
EOF
