  0
SECTION
  2
HEADER
  9
$ACADVER
  1
AC1027
  9
$ACADMAINTVER
 70
     8
  9
$DWGCODEPAGE
  3
ANSI_1252
  9
$REQUIREDVERSIONS
160
                 0
  9
$COMMENTS
  1
File was created by SpaceClaim
  9
$INSBASE
 10
0.0
 20
0.0
 30
0.0
  9
$EXTMIN
 10
-33.72463850308506
 20
-3.008440300201529
 30
-31.90300028899715
  9
$EXTMAX
 10
92.59411789070964
 20
75.7809030081568
 30
-30.89890598044789
  9
$LIMMIN
 10
0.0
 20
0.0
  9
$LIMMAX
 10
420.0
 20
297.0
  9
$ORTHOMODE
 70
     0
  9
$REGENMODE
 70
     1
  9
$FILLMODE
 70
     1
  9
$QTEXTMODE
 70
     0
  9
$MIRRTEXT
 70
     1
  9
$LTSCALE
 40
1.0
  9
$ATTMODE
 70
     1
  9
$TEXTSIZE
 40
2.5
  9
$TRACEWID
 40
1.0
  9
$TEXTSTYLE
  7
Standard
  9
$CLAYER
  8
0
  9
$CELTYPE
  6
ByLayer
  9
$CECOLOR
 62
   256
  9
$CELTSCALE
 40
1.0
  9
$DISPSILH
 70
     0
  9
$DIMSCALE
 40
1.0
  9
$DIMASZ
 40
2.5
  9
$DIMEXO
 40
0.625
  9
$DIMDLI
 40
3.75
  9
$DIMRND
 40
0.0
  9
$DIMDLE
 40
0.0
  9
$DIMEXE
 40
1.25
  9
$DIMTP
 40
0.0
  9
$DIMTM
 40
0.0
  9
$DIMTXT
 40
2.5
  9
$DIMCEN
 40
2.5
  9
$DIMTSZ
 40
0.0
  9
$DIMTOL
 70
     0
  9
$DIMLIM
 70
     0
  9
$DIMTIH
 70
     1
  9
$DIMTOH
 70
     0
  9
$DIMSE1
 70
     0
  9
$DIMSE2
 70
     0
  9
$DIMTAD
 70
     1
  9
$DIMZIN
 70
     8
  9
$DIMBLK
  1

  9
$DIMASO
 70
     1
  9
$DIMSHO
 70
     1
  9
$DIMPOST
  1
mm
  9
$DIMAPOST
  1

  9
$DIMALT
 70
     0
  9
$DIMALTD
 70
     3
  9
$DIMALTF
 40
0.0393700787401575
  9
$DIMLFAC
 40
1.0
  9
$DIMTOFL
 70
     1
  9
$DIMTVP
 40
0.0
  9
$DIMTIX
 70
     0
  9
$DIMSOXD
 70
     0
  9
$DIMSAH
 70
     0
  9
$DIMBLK1
  1

  9
$DIMBLK2
  1

  9
$DIMSTYLE
  2
ISO-25
  9
$DIMCLRD
 70
     0
  9
$DIMCLRE
 70
     0
  9
$DIMCLRT
 70
     0
  9
$DIMTFAC
 40
1.0
  9
$DIMGAP
 40
0.625
  9
$DIMJUST
 70
     0
  9
$DIMSD1
 70
     0
  9
$DIMSD2
 70
     0
  9
$DIMTOLJ
 70
     0
  9
$DIMTZIN
 70
     8
  9
$DIMALTZ
 70
     0
  9
$DIMALTTZ
 70
     8
  9
$DIMUPT
 70
     0
  9
$DIMDEC
 70
     3
  9
$DIMTDEC
 70
     3
  9
$DIMALTU
 70
     2
  9
$DIMALTTD
 70
     3
  9
$DIMTXSTY
  7
Standard
  9
$DIMAUNIT
 70
     0
  9
$DIMADEC
 70
     1
  9
$DIMALTRND
 40
0.0
  9
$DIMAZIN
 70
     0
  9
$DIMDSEP
 70
    46
  9
$DIMATFIT
 70
     3
  9
$DIMFRAC
 70
     0
  9
$DIMLDRBLK
  1

  9
$DIMLUNIT
 70
     2
  9
$DIMLWD
 70
    -2
  9
$DIMLWE
 70
    -2
  9
$DIMTMOVE
 70
     0
  9
$DIMFXL
 40
1.0
  9
$DIMFXLON
 70
     0
  9
$DIMJOGANG
 40
0.7853981633974483
  9
$DIMTFILL
 70
     0
  9
$DIMTFILLCLR
 70
     0
  9
$DIMARCSYM
 70
     0
  9
$DIMLTYPE
  6

  9
$DIMLTEX1
  6

  9
$DIMLTEX2
  6

  9
$DIMTXTDIRECTION
 70
     0
  9
$LUNITS
 70
     2
  9
$LUPREC
 70
     4
  9
$SKETCHINC
 40
1.0
  9
$FILLETRAD
 40
10.0
  9
$AUNITS
 70
     0
  9
$AUPREC
 70
     0
  9
$MENU
  1
.
  9
$ELEVATION
 40
0.0
  9
$PELEVATION
 40
0.0
  9
$THICKNESS
 40
0.0
  9
$LIMCHECK
 70
     0
  9
$CHAMFERA
 40
0.0
  9
$CHAMFERB
 40
0.0
  9
$CHAMFERC
 40
0.0
  9
$CHAMFERD
 40
0.0
  9
$SKPOLY
 70
     0
  9
$TDCREATE
 40
2457944.783594884
  9
$TDUCREATE
 40
2457944.950261551
  9
$TDUPDATE
 40
2457944.783595
  9
$TDUUPDATE
 40
2457944.950261666
  9
$TDINDWG
 40
0.0000000116
  9
$TDUSRTIMER
 40
0.0000000116
  9
$USRTIMER
 70
     1
  9
$ANGBASE
 50
0.0
  9
$ANGDIR
 70
     0
  9
$PDMODE
 70
     0
  9
$PDSIZE
 40
0.0
  9
$PLINEWID
 40
0.0
  9
$SPLFRAME
 70
     0
  9
$SPLINETYPE
 70
     6
  9
$SPLINESEGS
 70
     8
  9
$HANDSEED
  5
193
  9
$SURFTAB1
 70
     6
  9
$SURFTAB2
 70
     6
  9
$SURFTYPE
 70
     6
  9
$SURFU
 70
     6
  9
$SURFV
 70
     6
  9
$UCSBASE
  2

  9
$UCSNAME
  2

  9
$UCSORG
 10
0.0
 20
0.0
 30
0.0
  9
$UCSXDIR
 10
1.0
 20
0.0
 30
0.0
  9
$UCSYDIR
 10
0.0
 20
1.0
 30
0.0
  9
$UCSORTHOREF
  2

  9
$UCSORTHOVIEW
 70
     0
  9
$UCSORGTOP
 10
0.0
 20
0.0
 30
0.0
  9
$UCSORGBOTTOM
 10
0.0
 20
0.0
 30
0.0
  9
$UCSORGLEFT
 10
0.0
 20
0.0
 30
0.0
  9
$UCSORGRIGHT
 10
0.0
 20
0.0
 30
0.0
  9
$UCSORGFRONT
 10
0.0
 20
0.0
 30
0.0
  9
$UCSORGBACK
 10
0.0
 20
0.0
 30
0.0
  9
$PUCSBASE
  2

  9
$PUCSNAME
  2

  9
$PUCSORG
 10
0.0
 20
0.0
 30
0.0
  9
$PUCSXDIR
 10
1.0
 20
0.0
 30
0.0
  9
$PUCSYDIR
 10
0.0
 20
1.0
 30
0.0
  9
$PUCSORTHOREF
  2

  9
$PUCSORTHOVIEW
 70
     0
  9
$PUCSORGTOP
 10
0.0
 20
0.0
 30
0.0
  9
$PUCSORGBOTTOM
 10
0.0
 20
0.0
 30
0.0
  9
$PUCSORGLEFT
 10
0.0
 20
0.0
 30
0.0
  9
$PUCSORGRIGHT
 10
0.0
 20
0.0
 30
0.0
  9
$PUCSORGFRONT
 10
0.0
 20
0.0
 30
0.0
  9
$PUCSORGBACK
 10
0.0
 20
0.0
 30
0.0
  9
$USERI1
 70
     0
  9
$USERI2
 70
     0
  9
$USERI3
 70
     0
  9
$USERI4
 70
     0
  9
$USERI5
 70
     0
  9
$USERR1
 40
0.0
  9
$USERR2
 40
0.0
  9
$USERR3
 40
0.0
  9
$USERR4
 40
0.0
  9
$USERR5
 40
0.0
  9
$WORLDVIEW
 70
     1
  9
$SHADEDGE
 70
     3
  9
$SHADEDIF
 70
    70
  9
$TILEMODE
 70
     1
  9
$MAXACTVP
 70
    64
  9
$PINSBASE
 10
0.0
 20
0.0
 30
0.0
  9
$PLIMCHECK
 70
     0
  9
$PEXTMIN
 10
1.000000000000000E+20
 20
1.000000000000000E+20
 30
1.000000000000000E+20
  9
$PEXTMAX
 10
-1.000000000000000E+20
 20
-1.000000000000000E+20
 30
-1.000000000000000E+20
  9
$PLIMMIN
 10
0.0
 20
0.0
  9
$PLIMMAX
 10
420.0
 20
297.0
  9
$UNITMODE
 70
     0
  9
$VISRETAIN
 70
     1
  9
$PLINEGEN
 70
     0
  9
$PSLTSCALE
 70
     1
  9
$TREEDEPTH
 70
  3020
  9
$CMLSTYLE
  2
Standard
  9
$CMLJUST
 70
     0
  9
$CMLSCALE
 40
20.0
  9
$PROXYGRAPHICS
 70
     1
  9
$MEASUREMENT
 70
     1
  9
$CELWEIGHT
370
    -1
  9
$ENDCAPS
280
     0
  9
$JOINSTYLE
280
     0
  9
$LWDISPLAY
290
     0
  9
$INSUNITS
 70
     4
  9
$HYPERLINKBASE
  1

  9
$STYLESHEET
  1

  9
$XEDIT
290
     1
  9
$CEPSNTYPE
380
     0
  9
$PSTYLEMODE
290
     1
  9
$FINGERPRINTGUID
  2
{93A7E8D1-9C7E-4924-908C-9ABB287C2285}
  9
$VERSIONGUID
  2
{FAEB1C32-E019-11D5-929B-00C0DF256EC4}
  9
$EXTNAMES
290
     1
  9
$PSVPSCALE
 40
0.0
  9
$OLESTARTUP
290
     0
  9
$SORTENTS
280
   127
  9
$INDEXCTL
280
     0
  9
$HIDETEXT
280
     1
  9
$XCLIPFRAME
280
     2
  9
$HALOGAP
280
     0
  9
$OBSCOLOR
 70
   257
  9
$OBSLTYPE
280
     0
  9
$INTERSECTIONDISPLAY
280
     0
  9
$INTERSECTIONCOLOR
 70
   257
  9
$DIMASSOC
280
     2
  9
$PROJECTNAME
  1

  9
$CAMERADISPLAY
290
     0
  9
$LENSLENGTH
 40
50.0
  9
$CAMERAHEIGHT
 40
0.0
  9
$STEPSPERSEC
 40
2.0
  9
$STEPSIZE
 40
6.0
  9
$3DDWFPREC
 40
2.0
  9
$PSOLWIDTH
 40
5.0
  9
$PSOLHEIGHT
 40
80.0
  9
$LOFTANG1
 40
1.570796326794897
  9
$LOFTANG2
 40
1.570796326794897
  9
$LOFTMAG1
 40
0.0
  9
$LOFTMAG2
 40
0.0
  9
$LOFTPARAM
 70
     7
  9
$LOFTNORMALS
280
     1
  9
$LATITUDE
 40
37.795
  9
$LONGITUDE
 40
-122.394
  9
$NORTHDIRECTION
 40
0.0
  9
$TIMEZONE
 70
 -8000
  9
$LIGHTGLYPHDISPLAY
280
     1
  9
$TILEMODELIGHTSYNCH
280
     1
  9
$CMATERIAL
347
44
  9
$SOLIDHIST
280
     1
  9
$SHOWHIST
280
     1
  9
$DWFFRAME
280
     2
  9
$DGNFRAME
280
     2
  9
$REALWORLDSCALE
290
     1
  9
$INTERFERECOLOR
 62
   256
  9
$CSHADOW
280
     0
  9
$SHADOWPLANELOCATION
 40
0.0
  0
ENDSEC
  0
SECTION
  2
CLASSES
  0
CLASS
  1
ACDBDICTIONARYWDFLT
  2
AcDbDictionaryWithDefault
  3
ObjectDBX Classes
 90
        0
 91
        4
280
     0
281
     0
  0
CLASS
  1
VISUALSTYLE
  2
AcDbVisualStyle
  3
ObjectDBX Classes
 90
     4095
 91
        4
280
     0
281
     0
  0
CLASS
  1
MATERIAL
  2
AcDbMaterial
  3
ObjectDBX Classes
 90
     1153
 91
        4
280
     0
281
     0
  0
CLASS
  1
SCALE
  2
AcDbScale
  3
ObjectDBX Classes
 90
     1153
 91
        4
280
     0
281
     0
  0
CLASS
  1
SUN
  2
AcDbSun
  3
SCENEOE
 90
     1153
 91
        4
280
     0
281
     0
  0
CLASS
  1
DICTIONARYVAR
  2
AcDbDictionaryVar
  3
ObjectDBX Classes
 90
        0
 91
        4
280
     0
281
     0
  0
ENDSEC
  0
SECTION
  2
TABLES
  0
TABLE
  2
VPORT
  5
8
330
0
100
AcDbSymbolTable
 70
     1
  0
VPORT
  5
29
330
8
100
AcDbSymbolTableRecord
100
AcDbViewportTableRecord
  2
*Active
 70
     0
 10
0.0
 20
0.0
 11
1.0
 21
1.0
 12
29.43473969381229
 22
36.38623135397764
 13
0.0
 23
0.0
 14
10.0
 24
10.0
 15
10.0
 25
10.0
 16
0.0
 26
0.0
 36
1.0
 17
0.0
 27
0.0
 37
0.0
 40
78.78934330835833
 41
1.603246722077886
 42
50.0
 43
0.0
 44
0.0
 50
0.0
 51
0.0
 71
     0
 72
   100
 73
     1
 74
     3
 75
     0
 76
     0
 77
     0
 78
     0
281
     0
 65
     1
110
0.0
120
0.0
130
0.0
111
1.0
121
0.0
131
0.0
112
0.0
122
1.0
132
0.0
 79
     0
146
0.0
 60
     3
 61
     5
292
     1
282
     1
141
0.0
142
0.0
 63
   250
361
69
  0
ENDTAB
  0
TABLE
  2
LTYPE
  5
5
330
0
100
AcDbSymbolTable
 70
     2
  0
LTYPE
  5
14
330
5
100
AcDbSymbolTableRecord
100
AcDbLinetypeTableRecord
  2
ByBlock
 70
     0
  3

 72
    65
 73
     0
 40
0.0
  0
LTYPE
  5
15
330
5
100
AcDbSymbolTableRecord
100
AcDbLinetypeTableRecord
  2
ByLayer
 70
     0
  3

 72
    65
 73
     0
 40
0.0
  0
LTYPE
  5
16
330
5
100
AcDbSymbolTableRecord
100
AcDbLinetypeTableRecord
  2
Continuous
 70
     0
  3
Solid line
 72
    65
 73
     0
 40
0.0
  0
LTYPE
  5
E1
330
5
100
AcDbSymbolTableRecord
100
AcDbLinetypeTableRecord
  2
HIDDEN
 70
     0
  3
- - - - - - - - - - - - - - - - - - - - -
 72
    65
 73
     2
 40
9.524999999999999
 49
6.35
 74
     0
 49
-3.175
 74
     0
  0
ENDTAB
  0
TABLE
  2
LAYER
  5
2
330
0
100
AcDbSymbolTable
 70
     2
  0
LAYER
  5
10
330
2
100
AcDbSymbolTableRecord
100
AcDbLayerTableRecord
  2
0
 70
     0
 62
   253
420
  9416591
  6
Continuous
370
    70
390
F
347
46
348
0
  0
LAYER
  5
E0
330
2
100
AcDbSymbolTableRecord
100
AcDbLayerTableRecord
  2
Hidden
 70
     0
 62
    98
420
   346117
  6
HIDDEN
370
    70
390
F
347
46
348
0
  0
ENDTAB
  0
TABLE
  2
STYLE
  5
3
330
0
100
AcDbSymbolTable
 70
     1
  0
STYLE
  5
11
330
3
100
AcDbSymbolTableRecord
100
AcDbTextStyleTableRecord
  2
Standard
 70
     0
 40
0.0
 41
1.0
 50
0.0
 71
     0
 42
2.5
  3
txt
  4

  0
ENDTAB
  0
TABLE
  2
VIEW
  5
6
330
0
100
AcDbSymbolTable
 70
     0
  0
ENDTAB
  0
TABLE
  2
UCS
  5
7
330
0
100
AcDbSymbolTable
 70
     0
  0
ENDTAB
  0
TABLE
  2
APPID
  5
9
330
0
100
AcDbSymbolTable
 70
     1
  0
APPID
  5
12
330
9
100
AcDbSymbolTableRecord
100
AcDbRegAppTableRecord
  2
ACAD
 70
     0
  0
ENDTAB
  0
TABLE
  2
DIMSTYLE
  5
A
330
0
100
AcDbSymbolTable
 70
     1
100
AcDbDimStyleTable
  0
DIMSTYLE
105
27
330
A
100
AcDbSymbolTableRecord
100
AcDbDimStyleTableRecord
  2
ISO-25
 70
     0
 41
2.5
 42
0.625
 43
3.75
 44
1.25
 73
     0
 74
     0
 77
     1
 78
     8
140
2.5
141
2.5
143
0.03937007874016
147
0.625
171
     3
172
     1
178
     0
271
     2
272
     2
274
     3
278
    44
283
     0
284
     8
340
11
  0
ENDTAB
  0
TABLE
  2
BLOCK_RECORD
  5
1
330
0
100
AcDbSymbolTable
 70
     1
  0
BLOCK_RECORD
  5
1F
330
1
100
AcDbSymbolTableRecord
100
AcDbBlockTableRecord
  2
*Model_Space
340
22
 70
     0
280
     1
281
     0
  0
BLOCK_RECORD
  5
1B
330
1
100
AcDbSymbolTableRecord
100
AcDbBlockTableRecord
  2
*Paper_Space
340
1E
 70
     0
280
     1
281
     0
  0
BLOCK_RECORD
  5
23
330
1
100
AcDbSymbolTableRecord
100
AcDbBlockTableRecord
  2
*Paper_Space0
340
26
 70
     0
280
     1
281
     0
  0
ENDTAB
  0
ENDSEC
  0
SECTION
  2
BLOCKS
  0
BLOCK
  5
20
330
1F
100
AcDbEntity
  8
0
100
AcDbBlockBegin
  2
*Model_Space
 70
     0
 10
0.0
 20
0.0
 30
0.0
  3
*Model_Space
  1
*Model_Space
  0
ENDBLK
  5
21
330
1F
100
AcDbEntity
  8
0
100
AcDbBlockEnd
  0
BLOCK
  5
1C
330
1B
100
AcDbEntity
 67
     1
  8
0
100
AcDbBlockBegin
  2
*Paper_Space
 70
     0
 10
0.0
 20
0.0
 30
0.0
  3
*Paper_Space
  1
*Paper_Space
  0
ENDBLK
  5
1D
330
1B
100
AcDbEntity
 67
     1
  8
0
100
AcDbBlockEnd
  0
BLOCK
  5
24
330
23
100
AcDbEntity
  8
0
100
AcDbBlockBegin
  2
*Paper_Space0
 70
     0
 10
0.0
 20
0.0
 30
0.0
  3
*Paper_Space0
  1
*Paper_Space0
  0
ENDBLK
  5
25
330
23
100
AcDbEntity
  8
0
100
AcDbBlockEnd
  0
ENDSEC
  0
SECTION
  2
ENTITIES
  0
ELLIPSE
  5
6A
330
1F
100
AcDbEntity
  8
0
 62
    98
420
   346117
370
    -3
100
AcDbEllipse
 10
68.7325141469578
 20
24.22347614662834
 30
-0.0000000000000009
 11
-1.471388689701272
 21
-0.2915738736910027
 31
-8.326672684688681E-17
210
-5.445232004931304E-17
220
-1.079040093169661E-17
230
1.0
 40
0.320048397236681
 41
0.0
 42
6.283185307179586
  0
ELLIPSE
  5
6B
330
1F
100
AcDbEntity
  8
0
 62
    98
420
   346117
370
    -3
100
AcDbEllipse
 10
56.69266882785348
 20
35.85137002577578
 30
0.0000000000000009
 11
-1.471388689701272
 21
-0.2915738736910027
 31
-8.326672684688681E-17
210
-5.445232004931304E-17
220
-1.079040093169661E-17
230
1.0
 40
0.320048397236681
 41
0.0
 42
6.283185307179586
  0
ELLIPSE
  5
6C
330
1F
100
AcDbEntity
  8
0
 62
    98
420
   346117
370
    -3
100
AcDbEllipse
 10
71.16785906654287
 20
24.21071241726513
 30
-0.0000000000000004
 11
1.961851586268362
 21
0.3887651649213367
 31
1.110223024625157E-16
210
5.445232004931303E-17
220
1.079040093169660E-17
230
-1.0
 40
0.3200483972366809
 41
6.064400076342157
 42
7.635196403137065
  0
ELLIPSE
  5
6D
330
1F
100
AcDbEntity
  8
0
 62
    98
420
   346117
370
    -3
100
AcDbEllipse
 10
71.55459147726924
 20
22.25911885409592
 30
0.0000000000000004
 11
1.961851586268362
 21
0.3887651649213367
 31
1.110223024625157E-16
210
5.445232004931303E-17
220
1.079040093169660E-17
230
-1.0
 40
0.3200483972366809
 41
0.0000987982684082
 42
1.352011095957478
  0
ELLIPSE
  5
6E
330
1F
100
AcDbEntity
  8
0
 62
    98
420
   346117
370
    -3
100
AcDbEllipse
 10
-29.32350038591131
 20
12.35386383536487
 30
0.0000000000000026
 11
-1.471388689701268
 21
-0.2915738736910019
 31
-8.326672684688657E-17
210
-5.445232004931303E-17
220
-1.079040093169661E-17
230
1.0
 40
0.3200483972366809
 41
0.0
 42
6.283185307179586
  0
ELLIPSE
  5
6F
330
1F
100
AcDbEntity
  8
0
 62
    98
420
   346117
370
    -3
100
AcDbEllipse
 10
-17.283655066807
 20
0.7259699562174445
 30
0.000000000000002
 11
-1.471388689701268
 21
-0.2915738736910019
 31
-8.326672684688657E-17
210
-5.445232004931303E-17
220
-1.079040093169661E-17
230
1.0
 40
0.3200483972366809
 41
0.0
 42
6.283185307179586
  0
ELLIPSE
  5
70
330
1F
100
AcDbEntity
  8
0
 62
    98
420
   346117
370
    -3
100
AcDbEllipse
 10
-16.76784264069958
 20
9.833307336086342
 30
-0.0000000000000009
 11
0.6252245402812089
 21
0.6473749101024469
 31
4.996003610813205E-17
210
-3.856326001004870E-17
220
-3.992947393113206E-17
230
1.0
 40
0.9248168817592176
 41
0.0
 42
6.283185307179586
  0
ELLIPSE
  5
71
330
1F
100
AcDbEntity
  8
0
 62
    98
420
   346117
370
    -3
100
AcDbEllipse
 10
-18.60942554892032
 20
19.12661001784445
 30
0.0000000000000026
 11
0.6252245402812089
 21
0.6473749101024469
 31
4.996003610813205E-17
210
-3.856326001004870E-17
220
-3.992947393113206E-17
230
1.0
 40
0.9248168817592176
 41
0.0
 42
6.283185307179586
  0
ELLIPSE
  5
72
330
1F
100
AcDbEntity
  8
0
 62
    98
420
   346117
370
    -3
100
AcDbEllipse
 10
76.92597181706347
 20
64.81729155556013
 30
0.0
 11
0.62522454028121
 21
0.647374910102448
 31
2.498001805406607E-17
210
-5.921110393615641E-17
220
1.859852304448266E-17
230
1.0
 40
0.9248168817592177
 41
0.0
 42
6.283185307179586
  0
ELLIPSE
  5
73
330
1F
100
AcDbEntity
  8
0
 62
    98
420
   346117
370
    -3
100
AcDbEllipse
 10
78.76755472528423
 20
55.52398887380203
 30
0.0000000000000017
 11
0.62522454028121
 21
0.647374910102448
 31
2.498001805406607E-17
210
-5.921110393615641E-17
220
1.859852304448266E-17
230
1.0
 40
0.9248168817592177
 41
0.0
 42
6.283185307179586
  0
ELLIPSE
  5
74
330
1F
100
AcDbEntity
  8
0
 62
    98
420
   346117
370
    -3
100
AcDbEllipse
 10
31.14005065295665
 20
52.30970169401232
 30
0.0000000000000035
 11
0.62522454028121
 21
0.6473749101024481
 31
4.996003610813214E-17
210
-3.856326001004870E-17
220
-3.992947393113208E-17
230
1.0
 40
0.9248168817592177
 41
0.0
 42
6.283185307179586
  0
ELLIPSE
  5
75
330
1F
100
AcDbEntity
  8
0
 62
    98
420
   346117
370
    -3
100
AcDbEllipse
 10
32.98163356117739
 20
43.01639901225422
 30
0.0
 11
0.62522454028121
 21
0.6473749101024481
 31
4.996003610813214E-17
210
-3.856326001004870E-17
220
-3.992947393113208E-17
230
1.0
 40
0.9248168817592177
 41
0.0
 42
6.283185307179586
  0
ELLIPSE
  5
76
330
1F
100
AcDbEntity
  8
0
 62
    98
420
   346117
370
    -3
100
AcDbEllipse
 10
29.11248248457036
 20
22.3666860427095
 30
-0.0000000000000009
 11
0.62522454028121
 21
0.6473749101024481
 31
4.996003610813214E-17
210
-3.856326001004870E-17
220
-3.992947393113208E-17
230
1.0
 40
0.9248168817592177
 41
0.0
 42
6.283185307179586
  0
ELLIPSE
  5
77
330
1F
100
AcDbEntity
  8
0
 62
    98
420
   346117
370
    -3
100
AcDbEllipse
 10
27.2708995763496
 20
31.6599887244676
 30
0.0000000000000009
 11
0.62522454028121
 21
0.6473749101024481
 31
4.996003610813214E-17
210
-3.856326001004870E-17
220
-3.992947393113208E-17
230
1.0
 40
0.9248168817592177
 41
0.0
 42
6.283185307179586
  0
ELLIPSE
  5
78
330
1F
100
AcDbEntity
  8
0
 62
    98
420
   346117
370
    -3
100
AcDbEllipse
 10
88.43975049134785
 20
41.31753417032628
 30
0.0000000000000017
 11
-0.2999980799476956
 21
1.098188267277324
 31
0.0
210
6.024268516411871E-17
220
1.645682294979871E-17
230
-1.0
 40
0.2056277185580505
 41
0.0
 42
6.283185307179586
  0
ELLIPSE
  5
79
330
1F
100
AcDbEntity
  8
0
 62
    98
420
   346117
370
    -3
100
AcDbEllipse
 10
85.6037128126879
 20
55.62922030023376
 30
-0.0000000000000052
 11
-0.2999980799476956
 21
1.098188267277324
 31
0.0
210
6.024268516411871E-17
220
1.645682294979871E-17
230
-1.0
 40
0.2056277185580505
 41
0.0
 42
6.283185307179586
  0
ELLIPSE
  5
7A
330
1F
100
AcDbEntity
  8
0
 62
    98
420
   346117
370
    -3
100
AcDbEllipse
 10
58.0334823547927
 20
36.89568755815323
 30
0.0
 11
1.961851586268362
 21
0.3887651649213367
 31
1.110223024625157E-16
210
5.445232004931303E-17
220
1.079040093169660E-17
230
-1.0
 40
0.3200483972366809
 41
4.49360374954726
 42
6.064400076342182
  0
ELLIPSE
  5
7B
330
1F
100
AcDbEntity
  8
0
 62
    98
420
   346117
370
    -3
100
AcDbEllipse
 10
54.25732390826842
 20
35.86413375513897
 30
0.0000000000000026
 11
1.961851586268362
 21
0.3887651649213367
 31
1.110223024625157E-16
210
5.445232004931303E-17
220
1.079040093169660E-17
230
-1.0
 40
0.3200483972366809
 41
2.922807422752363
 42
4.49360374954728
  0
ELLIPSE
  5
7C
330
1F
100
AcDbEntity
  8
0
 62
    98
420
   346117
370
    -3
100
AcDbEllipse
 10
54.64405631899478
 20
33.91254019196977
 30
0.0000000000000026
 11
1.961851586268362
 21
0.3887651649213367
 31
1.110223024625157E-16
210
5.445232004931303E-17
220
1.079040093169660E-17
230
-1.0
 40
0.3200483972366809
 41
2.956919612457107
 42
3.1416914518582
  0
LINE
  5
7D
330
1F
100
AcDbEntity
  8
0
 62
    98
420
   346117
370
    -3
100
AcDbLine
 10
52.75163208462412
 20
33.41868980987531
 30
0.0000000000000026
 11
52.36924468500628
 21
35.34835685363185
 31
0.0000000000000021
  0
ELLIPSE
  5
7E
330
1F
100
AcDbEntity
  8
0
 62
    98
420
   346117
370
    -3
100
AcDbEllipse
 10
67.39170062001861
 20
23.17915861425088
 30
0.0
 11
1.961851586268362
 21
0.3887651649213367
 31
1.110223024625157E-16
210
5.445232004931303E-17
220
1.079040093169660E-17
230
-1.0
 40
0.3200483972366809
 41
1.352011095957467
 42
2.922807422752375
  0
ELLIPSE
  5
7F
330
1F
100
AcDbEntity
  8
0
 62
    98
420
   346117
370
    -3
100
AcDbEllipse
 10
67.77843303074495
 20
21.22756505108167
 30
0.000000000000003
 11
1.961851586268362
 21
0.3887651649213367
 31
1.110223024625157E-16
210
5.445232004931303E-17
220
1.079040093169660E-17
230
-1.0
 40
0.3200483972366809
 41
1.352011095957467
 42
2.922807422752375
  0
LINE
  5
80
330
1F
100
AcDbEntity
  8
0
 62
    98
420
   346117
370
    -3
100
AcDbLine
 10
68.32569872706787
 20
20.69902442021133
 30
-0.0000000000000013
 11
67.9389663163415
 21
22.65061798338053
 31
0.0000000000000011
  0
ELLIPSE
  5
81
330
1F
100
AcDbEntity
  8
0
 62
    98
420
   346117
370
    -3
100
AcDbEllipse
 10
-14.46157773649557
 20
-1.238387336314975
 30
0.0000000000000001
 11
-1.961851586268362
 21
-0.3887651649213367
 31
-1.110223024625157E-16
210
-5.445232004931303E-17
220
-1.079040093169660E-17
230
1.0
 40
0.3200483972366809
 41
1.789581557632327
 42
3.141493855321384
  0
ELLIPSE
  5
82
330
1F
100
AcDbEntity
  8
0
 62
    98
420
   346117
370
    -3
100
AcDbEllipse
 10
-14.84831014722193
 20
0.7132062268542343
 30
0.0000000000000015
 11
1.961851586268362
 21
0.3887651649213367
 31
1.110223024625157E-16
210
5.445232004931303E-17
220
1.079040093169660E-17
230
-1.0
 40
0.3200483972366809
 41
6.064400076342157
 42
7.635196403137035
  0
LINE
  5
83
330
1F
100
AcDbEntity
  8
0
 62
    98
420
   346117
370
    -3
100
AcDbLine
 10
-14.30104445089902
 20
0.1846655959839025
 30
0.0000000000000001
 11
-13.91431204017265
 21
-1.766927967185309
 31
-0.0000000000000001
  0
ELLIPSE
  5
84
330
1F
100
AcDbEntity
  8
0
 62
    98
420
   346117
370
    -3
100
AcDbEllipse
 10
-18.23773618301985
 20
-2.269941139329219
 30
0.0000000000000002
 11
-1.961851586268362
 21
-0.3887651649213367
 31
-1.110223024625157E-16
210
-5.445232004931303E-17
220
-1.079040093169660E-17
230
1.0
 40
0.3200483972366809
 41
0.2187852308374296
 42
1.789581557632325
  0
ELLIPSE
  5
85
330
1F
100
AcDbEntity
  8
0
 62
    98
420
   346117
370
    -3
100
AcDbEllipse
 10
-18.62446859374621
 20
-0.3183475761600182
 30
-0.0000000000000011
 11
1.961851586268362
 21
0.3887651649213367
 31
1.110223024625157E-16
210
5.445232004931303E-17
220
1.079040093169660E-17
230
-1.0
 40
0.3200483972366809
 41
1.352011095957467
 42
2.92280742275237
  0
LINE
  5
86
330
1F
100
AcDbEntity
  8
0
 62
    98
420
   346117
370
    -3
100
AcDbLine
 10
-20.51254781700835
 20
-0.834124477667147
 30
-0.0000000000000001
 11
-20.125815406282
 21
-2.785718040836351
 31
0.0000000000000002
  0
ELLIPSE
  5
87
330
1F
100
AcDbEntity
  8
0
 62
    98
420
   346117
370
    -3
100
AcDbEllipse
 10
-31.75884530549637
 20
12.36662756472809
 30
0.0
 11
1.961851586268362
 21
0.3887651649213367
 31
1.110223024625157E-16
210
5.445232004931303E-17
220
1.079040093169660E-17
230
-1.0
 40
0.3200483972366809
 41
2.922807422752363
 42
4.493603749547376
  0
ELLIPSE
  5
88
330
1F
100
AcDbEntity
  8
0
 62
    98
420
   346117
370
    -3
100
AcDbEllipse
 10
-27.98268685897209
 20
13.39818136774234
 30
0.0
 11
1.961851586268361
 21
0.3887651649213366
 31
1.110223024625156E-16
210
5.445232004931303E-17
220
1.079040093169660E-17
230
-1.0
 40
0.3200483972366809
 41
4.49360374954726
 42
6.06440007634217
  0
ELLIPSE
  5
89
330
1F
100
AcDbEntity
  8
0
 62
    98
420
   346117
370
    -3
100
AcDbEllipse
 10
-31.37211289477002
 20
10.41503400155889
 30
0.0000000000000009
 11
-1.961851586268362
 21
-0.3887651649213367
 31
-1.110223024625157E-16
210
-5.445232004931303E-17
220
-1.079040093169660E-17
230
1.0
 40
0.3200483972366809
 41
6.283086508911178
 42
6.501970538017016
  0
LINE
  5
8A
330
1F
100
AcDbEntity
  8
0
 62
    98
420
   346117
370
    -3
100
AcDbLine
 10
-33.26019211803215
 20
9.899257100051754
 30
0.0000000000000017
 11
-33.64692452875851
 21
11.85085066322097
 31
0.0000000000000026
  0
LINE
  5
8B
330
1F
100
AcDbEntity
  8
0
 62
    98
420
   346117
370
    -3
100
AcDbLine
 10
-17.69047048669693
 20
-2.798481770199565
 30
0.0000000000000003
 11
-18.07720289742329
 21
-0.8468882070303569
 31
0.0000000000000004
  0
LINE
  5
8C
330
1F
100
AcDbEntity
  8
0
 62
    98
420
   346117
370
    -3
100
AcDbLine
 10
-26.09460763570996
 20
13.91395826924947
 30
0.0000000000000009
 11
-25.95577391936981
 21
13.77987484228971
 31
0.0000000000000009
  0
LINE
  5
8D
330
1F
100
AcDbEntity
  8
0
 62
    98
420
   346117
370
    -3
100
AcDbLine
 10
-20.125815406282
 20
-2.785718040836352
 30
-0.0000000000000005
 11
-21.76761249525077
 21
-1.200096148225336
 31
0.0
  0
LINE
  5
8E
330
1F
100
AcDbEntity
  8
0
 62
    98
420
   346117
370
    -3
100
AcDbLine
 10
-20.51254781700835
 20
-0.834124477667147
 30
-0.0000000000000001
 11
-22.15434490597712
 21
0.751497414943874
 31
0.0000000000000004
  0
LINE
  5
8F
330
1F
100
AcDbEntity
  8
0
 62
    98
420
   346117
370
    -3
100
AcDbLine
 10
-21.76761249525076
 20
-1.200096148225335
 30
0.000000000000001
 11
-22.15434490597712
 21
0.7514974149438747
 31
0.0000000000000008
  0
LINE
  5
90
330
1F
100
AcDbEntity
  8
0
 62
    98
420
   346117
370
    -3
100
AcDbLine
 10
-32.3061110018193
 20
12.89516819559842
 30
0.0000000000000035
 11
-28.52995255529501
 21
13.92672199861268
 31
0.0000000000000019
  0
LINE
  5
91
330
1F
100
AcDbEntity
  8
0
 62
    98
420
   346117
370
    -3
100
AcDbLine
 10
-32.00512743978975
 20
10.26522877060995
 30
0.0000000000000026
 11
-33.64692452875851
 21
11.85085066322097
 31
0.000000000000003
  0
LINE
  5
92
330
1F
100
AcDbEntity
  8
0
 62
    98
420
   346117
370
    -3
100
AcDbLine
 10
-25.0602943260817
 20
9.406153359889835
 30
0.0000000000000017
 11
-32.00512743978975
 21
10.26522877060994
 31
0.0000000000000023
  0
LINE
  5
93
330
1F
100
AcDbEntity
  8
0
 62
    98
420
   346117
370
    -3
100
AcDbLine
 10
-25.0602943260817
 20
9.406153359889835
 30
0.0000000000000017
 11
-25.09586659634271
 21
9.440508500896417
 31
0.0000000000000026
  0
LINE
  5
94
330
1F
100
AcDbEntity
  8
0
 62
    98
420
   346117
370
    -3
100
AcDbLine
 10
-19.62320963311347
 20
4.155102192193036
 30
0.0
 11
-12.63731650704356
 21
6.063476727769397
 31
0.0000000000000005
  0
LINE
  5
95
330
1F
100
AcDbEntity
  8
0
 62
    98
420
   346117
370
    -3
100
AcDbLine
 10
-19.62320963311347
 20
4.155102192193036
 30
0.0
 11
-19.65878190337446
 21
4.189457333199607
 31
0.0000000000000009
  0
LINE
  5
96
330
1F
100
AcDbEntity
  8
0
 62
    98
420
   346117
370
    -3
100
AcDbLine
 10
-22.15434490597712
 20
0.7514974149438747
 30
-0.0000000000000004
 11
-19.65878190337446
 21
4.189457333199608
 31
0.0000000000000003
  0
LINE
  5
97
330
1F
100
AcDbEntity
  8
0
 62
    98
420
   346117
370
    -3
100
AcDbLine
 10
-14.30104445089902
 20
0.1846655959839025
 30
0.0000000000000001
 11
-18.07720289742329
 21
-0.8468882070303575
 31
0.0000000000000002
  0
LINE
  5
98
330
1F
100
AcDbEntity
  8
0
 62
    98
420
   346117
370
    -3
100
AcDbLine
 10
-14.60202801292857
 20
2.814605020972376
 30
0.0000000000000007
 11
-12.9602309239598
 21
1.228983128361363
 31
0.0000000000000008
  0
LINE
  5
99
330
1F
100
AcDbEntity
  8
0
 62
    98
420
   346117
370
    -3
100
AcDbLine
 10
63.86182430778767
 20
24.24900360535476
 30
0.0000000000000017
 11
-14.60202801292858
 21
2.814605020972374
 31
-0.0000000000000005
  0
LINE
  5
9A
330
1F
100
AcDbEntity
  8
0
 62
    98
420
   346117
370
    -3
100
AcDbLine
 10
65.50362139675646
 20
22.66338171274374
 30
-0.0000000000000022
 11
63.86182430778768
 21
24.24900360535476
 31
0.000000000000001
  0
LINE
  5
9B
330
1F
100
AcDbEntity
  8
0
 62
    98
420
   346117
370
    -3
100
AcDbLine
 10
71.7151247628658
 20
23.68217178639479
 30
-0.0000000000000013
 11
67.93896631634152
 21
22.65061798338053
 31
0.0000000000000017
  0
LINE
  5
9C
330
1F
100
AcDbEntity
  8
0
 62
    98
420
   346117
370
    -3
100
AcDbLine
 10
71.41414120083623
 20
26.31211121138326
 30
-0.000000000000003
 11
73.055938289805
 21
24.72648931877225
 31
0.0000000000000013
  0
LINE
  5
9D
330
1F
100
AcDbEntity
  8
0
 62
    98
420
   346117
370
    -3
100
AcDbLine
 10
89.33673322765206
 20
31.20812344893966
 30
0.0
 11
71.41414120083623
 21
26.31211121138327
 31
-0.0000000000000023
  0
LINE
  5
9E
330
1F
100
AcDbEntity
  8
0
 62
    98
420
   346117
370
    -3
100
AcDbLine
 10
87.1476704423604
 20
33.32228597242101
 30
-0.0000000000000035
 11
89.33673322765208
 21
31.20812344893966
 31
-0.0000000000000024
  0
LINE
  5
9F
330
1F
100
AcDbEntity
  8
0
 62
    98
420
   346117
370
    -3
100
AcDbLine
 10
80.1617773162905
 20
31.41391143684464
 30
-0.0000000000000009
 11
87.1476704423604
 21
33.32228597242101
 31
-0.0000000000000011
  0
LINE
  5
A0
330
1F
100
AcDbEntity
  8
0
 62
    98
420
   346117
370
    -3
100
AcDbLine
 10
80.1617773162905
 20
31.41391143684464
 30
-0.0000000000000009
 11
74.68912035306124
 21
36.69931774554802
 31
0.0000000000000029
  0
LINE
  5
A1
330
1F
100
AcDbEntity
  8
0
 62
    98
420
   346117
370
    -3
100
AcDbLine
 10
61.56335866702363
 20
35.82584256704934
 30
-0.0000000000000009
 11
74.17926721575334
 21
39.27219912920599
 31
0.0000000000000037
  0
LINE
  5
A2
330
1F
100
AcDbEntity
  8
0
 62
    98
420
   346117
370
    -3
100
AcDbLine
 10
59.92156157805483
 20
37.41146445966037
 30
0.0
 11
61.56335866702363
 21
35.82584256704934
 31
-0.0000000000000024
  0
LINE
  5
A3
330
1F
100
AcDbEntity
  8
0
 62
    98
420
   346117
370
    -3
100
AcDbLine
 10
53.71005821194549
 20
36.39267438600932
 30
0.0000000000000026
 11
57.48621665846978
 21
37.42422818902358
 31
0.0000000000000005
  0
LINE
  5
A4
330
1F
100
AcDbEntity
  8
0
 62
    98
420
   346117
370
    -3
100
AcDbLine
 10
54.01104177397506
 20
33.76273496102084
 30
0.0000000000000009
 11
52.36924468500627
 21
35.34835685363185
 31
0.0000000000000004
  0
LINE
  5
A5
330
1F
100
AcDbEntity
  8
0
 62
    98
420
   346117
370
    -3
100
AcDbLine
 10
-14.42180248762116
 20
15.0685615705723
 30
0.0000000000000009
 11
20.84102915859798
 21
24.70150166162968
 31
0.0000000000000023
  0
LINE
  5
A6
330
1F
100
AcDbEntity
  8
0
 62
    98
420
   346117
370
    -3
100
AcDbLine
 10
39.01083953069733
 20
29.66504788322396
 30
0.0
 11
54.01104177397506
 21
33.76273496102084
 31
0.0000000000000009
  0
LINE
  5
A7
330
1F
100
AcDbEntity
  8
0
 62
    98
420
   346117
370
    -3
100
AcDbLine
 10
26.82353925913511
 20
16.84321396926833
 30
0.0000000000000004
 11
24.0872107775205
 21
19.48591712362002
 31
0.0000000000000004
  0
LINE
  5
A8
330
1F
100
AcDbEntity
  8
0
 62
    98
420
   346117
370
    -3
100
AcDbLine
 10
24.08721077752049
 20
19.48591712362003
 30
0.0
 11
21.35088229590587
 21
22.12862027797172
 31
0.0000000000000005
  0
LINE
  5
A9
330
1F
100
AcDbEntity
  8
0
 62
    98
420
   346117
370
    -3
100
AcDbLine
 10
26.82353925913511
 20
16.84321396926833
 30
0.0000000000000004
 11
40.7953255112749
 21
20.65996304042106
 31
-0.0000000000000004
  0
LINE
  5
AA
330
1F
100
AcDbEntity
  8
0
 62
    98
420
   346117
370
    -3
100
AcDbLine
 10
72.10185717359214
 20
21.73057822322559
 30
0.0000000000000004
 11
68.32569872706787
 21
20.69902442021133
 31
-0.0000000000000002
  0
LINE
  5
AB
330
1F
100
AcDbEntity
  8
0
 62
    98
420
   346117
370
    -3
100
AcDbLine
 10
71.7151247628658
 20
23.68217178639479
 30
-0.0000000000000013
 11
72.10185717359215
 21
21.73057822322559
 31
-0.0000000000000003
  0
LINE
  5
AC
330
1F
100
AcDbEntity
  8
0
 62
    98
420
   346117
370
    -3
100
AcDbLine
 10
65.50362139675646
 20
22.66338171274374
 30
-0.0000000000000022
 11
65.89035380748281
 21
20.71178814957454
 31
0.0000000000000004
  0
LINE
  5
AD
330
1F
100
AcDbEntity
  8
0
 62
    98
420
   346117
370
    -3
100
AcDbLine
 10
65.89035380748281
 20
20.71178814957454
 30
0.0000000000000009
 11
64.24855671851401
 21
22.29741004218555
 31
0.0000000000000033
  0
LINE
  5
AE
330
1F
100
AcDbEntity
  8
0
 62
    98
420
   346117
370
    -3
100
AcDbLine
 10
64.24855671851402
 20
22.29741004218555
 30
0.0000000000000026
 11
63.86182430778769
 21
24.24900360535476
 31
0.0000000000000008
  0
LINE
  5
AF
330
1F
100
AcDbEntity
  8
0
 62
    98
420
   346117
370
    -3
100
AcDbLine
 10
89.76199905581643
 20
38.31213915498049
 30
-0.0000000000000009
 11
92.59411789070965
 21
39.08580450724119
 31
-0.0000000000000033
  0
LINE
  5
B0
330
1F
100
AcDbEntity
  8
0
 62
    98
420
   346117
370
    -3
100
AcDbLine
 10
92.59411789070964
 20
39.08580450724119
 30
0.0000000000000009
 11
88.91095207426815
 21
57.67240987075739
 31
0.000000000000003
  0
LINE
  5
B1
330
1F
100
AcDbEntity
  8
0
 62
    98
420
   346117
370
    -3
100
AcDbLine
 10
88.91095207426815
 20
57.67240987075741
 30
-0.0000000000000017
 11
86.07883323937494
 21
56.89874451849671
 31
0.0
  0
LINE
  5
B2
330
1F
100
AcDbEntity
  8
0
 62
    98
420
   346117
370
    -3
100
AcDbLine
 10
89.76199905581643
 20
38.31213915498051
 30
-0.0000000000000009
 11
86.07883323937494
 21
56.89874451849671
 31
0.0000000000000023
  0
LINE
  5
B3
330
1F
100
AcDbEntity
  8
0
 62
    98
420
   346117
370
    -3
100
AcDbLine
 10
88.91095207426817
 20
57.67240987075739
 30
0.0
 11
84.45504055259134
 21
61.97585936995601
 31
-0.0000000000000009
  0
LINE
  5
B4
330
1F
100
AcDbEntity
  8
0
 62
    98
420
   346117
370
    -3
100
AcDbLine
 10
19.45720762625208
 20
54.01642469630075
 30
0.0
 11
13.98455066302286
 21
59.30183100500413
 31
-0.0000000000000002
  0
LINE
  5
B5
330
1F
100
AcDbEntity
  8
0
 62
    98
420
   346117
370
    -3
100
AcDbLine
 10
19.45720762625208
 20
54.01642469630075
 30
0.0
 11
33.42899387839189
 21
57.83317376745348
 31
0.0000000000000013
  0
LINE
  5
B6
330
1F
100
AcDbEntity
  8
0
 62
    98
420
   346117
370
    -3
100
AcDbLine
 10
27.95633691516267
 20
63.11858007615687
 30
0.0
 11
33.42899387839189
 21
57.83317376745348
 31
0.0000000000000019
  0
LINE
  5
B7
330
1F
100
AcDbEntity
  8
0
 62
    98
420
   346117
370
    -3
100
AcDbLine
 10
27.95633691516267
 20
63.11858007615687
 30
0.0
 11
13.98455066302286
 21
59.30183100500413
 31
0.0000000000000004
  0
LINE
  5
B8
330
1F
100
AcDbEntity
  8
0
 62
    98
420
   346117
370
    -3
100
AcDbLine
 10
84.45504055259136
 20
61.97585936995602
 30
0.0000000000000035
 11
81.62292171769812
 21
61.20219401769533
 31
-0.0000000000000009
  0
LINE
  5
B9
330
1F
100
AcDbEntity
  8
0
 62
    98
420
   346117
370
    -3
100
AcDbLine
 10
81.62292171769813
 20
61.20219401769531
 30
-0.0000000000000017
 11
86.07883323937494
 21
56.89874451849671
 31
0.0000000000000003
  0
LINE
  5
BA
330
1F
100
AcDbEntity
  8
0
 62
    98
420
   346117
370
    -3
100
AcDbLine
 10
85.30608753413964
 20
42.61558865417911
 30
0.0
 11
89.76199905581643
 21
38.31213915498051
 31
0.0000000000000015
  0
LINE
  5
BB
330
1F
100
AcDbEntity
  8
0
 62
    98
420
   346117
370
    -3
100
AcDbLine
 10
85.30608753413964
 20
42.61558865417911
 30
0.0
 11
81.62292171769812
 21
61.20219401769533
 31
-0.0000000000000011
  0
LINE
  5
BC
330
1F
100
AcDbEntity
  8
0
 62
    98
420
   346117
370
    -3
100
AcDbLine
 10
74.30868184624812
 20
75.7809030081568
 30
0.0000000000000035
 11
79.78133880947736
 21
70.49549669945341
 31
-0.0000000000000031
  0
LINE
  5
BD
330
1F
100
AcDbEntity
  8
0
 62
    98
420
   346117
370
    -3
100
AcDbLine
 10
74.30868184624812
 20
75.7809030081568
 30
0.0000000000000035
 11
67.32278872017821
 21
73.87252847258044
 31
0.0
  0
LINE
  5
BE
330
1F
100
AcDbEntity
  8
0
 62
    98
420
   346117
370
    -3
100
AcDbLine
 10
72.79544568340748
 20
68.58712216387708
 30
0.0000000000000069
 11
67.32278872017822
 21
73.87252847258044
 31
0.0000000000000012
  0
LINE
  5
BF
330
1F
100
AcDbEntity
  8
0
 62
    98
420
   346117
370
    -3
100
AcDbLine
 10
72.79544568340748
 20
68.58712216387708
 30
0.0000000000000069
 11
79.78133880947738
 21
70.49549669945341
 31
-0.0000000000000022
  0
LINE
  5
C0
330
1F
100
AcDbEntity
  8
0
 62
    98
420
   346117
370
    -3
100
AcDbLine
 10
79.78133880947738
 20
70.49549669945341
 30
-0.0000000000000035
 11
80.70213026358775
 21
65.84884535857437
 31
0.0000000000000026
  0
LINE
  5
C1
330
1F
100
AcDbEntity
  8
0
 62
    98
420
   346117
370
    -3
100
AcDbLine
 10
80.70213026358775
 20
65.84884535857437
 30
0.0000000000000052
 11
84.45504055259134
 21
61.97585936995601
 31
0.0000000000000007
  0
LINE
  5
C2
330
1F
100
AcDbEntity
  8
0
 62
    98
420
   346117
370
    -3
100
AcDbLine
 10
-26.98954126599649
 20
41.32831291922545
 30
0.0000000000000035
 11
-32.46219822922573
 21
46.61371922792883
 31
0.0000000000000014
  0
LINE
  5
C3
330
1F
100
AcDbEntity
  8
0
 62
    98
420
   346117
370
    -3
100
AcDbLine
 10
-26.98954126599649
 20
41.32831291922545
 30
0.0000000000000035
 11
-20.00364813992657
 21
43.23668745480182
 31
0.0000000000000025
  0
LINE
  5
C4
330
1F
100
AcDbEntity
  8
0
 62
    98
420
   346117
370
    -3
100
AcDbLine
 10
-25.47630510315582
 20
48.5220937635052
 30
0.0000000000000035
 11
-20.00364813992658
 21
43.23668745480182
 31
0.0000000000000062
  0
LINE
  5
C5
330
1F
100
AcDbEntity
  8
0
 62
    98
420
   346117
370
    -3
100
AcDbLine
 10
-25.47630510315582
 20
48.5220937635052
 30
0.0000000000000035
 11
-32.46219822922573
 21
46.61371922792883
 31
0.0000000000000042
  0
LINE
  5
C6
330
1F
100
AcDbEntity
  8
0
 62
    98
420
   346117
370
    -3
100
AcDbLine
 10
87.21522097711562
 20
40.77176776225485
 30
-0.0000000000000009
 11
86.22687898825001
 21
37.96893731330006
 31
0.0000000000000033
  0
LINE
  5
C7
330
1F
100
AcDbEntity
  8
0
 62
    98
420
   346117
370
    -3
100
AcDbLine
 10
26.82353925913511
 20
16.84321396926833
 30
0.0000000000000004
 11
19.45720762625208
 21
54.01642469630075
 31
0.0000000000000025
  0
LINE
  5
C8
330
1F
100
AcDbEntity
  8
0
 62
    98
420
   346117
370
    -3
100
AcDbLine
 10
33.42899387839189
 20
57.83317376745348
 30
0.0000000000000017
 11
40.7953255112749
 21
20.65996304042107
 31
-0.0000000000000004
  0
LINE
  5
C9
330
1F
100
AcDbEntity
  8
0
 62
    98
420
   346117
370
    -3
100
AcDbLine
 10
13.98455066302286
 20
59.30183100500413
 30
0.0
 11
21.35088229590586
 21
22.12862027797172
 31
-0.0000000000000021
  0
LINE
  5
CA
330
1F
100
AcDbEntity
  8
0
 62
    98
420
   346117
370
    -3
100
AcDbLine
 10
67.32278872017821
 20
73.87252847258044
 30
0.0
 11
74.68912035306123
 21
36.69931774554803
 31
0.0000000000000021
  0
LINE
  5
CB
330
1F
100
AcDbEntity
  8
0
 62
    98
420
   346117
370
    -3
100
AcDbLine
 10
80.16177731629048
 20
31.41391143684464
 30
-0.0000000000000009
 11
72.79544568340746
 21
68.58712216387705
 31
-0.0000000000000009
  0
LINE
  5
CC
330
1F
100
AcDbEntity
  8
0
 62
    98
420
   346117
370
    -3
100
AcDbLine
 10
86.22687898825002
 20
37.96893731330005
 30
0.0000000000000035
 11
87.1476704423604
 21
33.32228597242101
 31
-0.0000000000000002
  0
LINE
  5
CD
330
1F
100
AcDbEntity
  8
0
 62
    98
420
   346117
370
    -3
100
AcDbLine
 10
-19.62320963311347
 20
4.155102192193036
 30
0.0
 11
-26.98954126599649
 21
41.32831291922545
 31
0.0000000000000021
  0
LINE
  5
CE
330
1F
100
AcDbEntity
  8
0
 62
    98
420
   346117
370
    -3
100
AcDbLine
 10
-20.00364813992658
 20
43.23668745480182
 30
0.0000000000000035
 11
-12.63731650704356
 21
6.063476727769398
 31
-0.0000000000000007
  0
LINE
  5
CF
330
1F
100
AcDbEntity
  8
0
 62
    98
420
   346117
370
    -3
100
AcDbLine
 10
-32.46219822922573
 20
46.61371922792883
 30
0.0000000000000035
 11
-25.09586659634271
 21
9.440508500896422
 31
0.0000000000000056
  0
LINE
  5
D0
330
1F
100
AcDbEntity
  8
0
 62
    98
420
   346117
370
    -3
100
AcDbLine
 10
-31.61839502906339
 20
8.313635207440745
 30
0.0000000000000017
 11
-33.26019211803215
 21
9.899257100051752
 31
0.0000000000000017
  0
LINE
  5
D1
330
1F
100
AcDbEntity
  8
0
 62
    98
420
   346117
370
    -3
100
AcDbLine
 10
-32.00512743978973
 20
10.26522877060994
 30
0.0000000000000009
 11
-31.61839502906339
 21
8.313635207440743
 31
0.0000000000000015
  0
LINE
  5
D2
330
1F
100
AcDbEntity
  8
0
 62
    98
420
   346117
370
    -3
100
AcDbLine
 10
-24.67356191535535
 20
7.454559796720638
 30
0.0000000000000004
 11
-31.61839502906339
 21
8.313635207440745
 31
0.0000000000000008
  0
LINE
  5
D3
330
1F
100
AcDbEntity
  8
0
 62
    98
420
   346117
370
    -3
100
AcDbLine
 10
-24.67356191535535
 20
7.454559796720638
 30
0.0000000000000004
 11
-25.0602943260817
 21
9.406153359889835
 31
0.0000000000000005
  0
LINE
  5
D4
330
1F
100
AcDbEntity
  8
0
 62
    98
420
   346117
370
    -3
100
AcDbLine
 10
-20.3321973878742
 20
3.261737988940017
 30
0.0
 11
-24.67356191535535
 21
7.454559796720638
 31
0.000000000000001
  0
LINE
  5
D5
330
1F
100
AcDbEntity
  8
0
 62
    98
420
   346117
370
    -3
100
AcDbLine
 10
-13.91431204017265
 20
-1.766927967185309
 30
0.0000000000000001
 11
-17.69047048669693
 21
-2.798481770199565
 31
0.0000000000000003
  0
LINE
  5
D6
330
1F
100
AcDbEntity
  8
0
 62
    98
420
   346117
370
    -3
100
AcDbLine
 10
64.24855671851402
 20
22.29741004218555
 30
0.0000000000000026
 11
-12.94265228335408
 21
1.210666375897736
 31
-0.0000000000000007
  0
LINE
  5
D7
330
1F
100
AcDbEntity
  8
0
 62
    98
420
   346117
370
    -3
100
AcDbLine
 10
89.72346563837844
 20
29.25652988577045
 30
-0.000000000000003
 11
89.33673322765206
 21
31.20812344893965
 31
-0.0000000000000003
  0
LINE
  5
D8
330
1F
100
AcDbEntity
  8
0
 62
    98
420
   346117
370
    -3
100
AcDbLine
 10
89.72346563837844
 20
29.25652988577045
 30
-0.000000000000003
 11
73.0735169304107
 21
24.70817256630861
 31
-0.0000000000000014
  0
LINE
  5
D9
330
1F
100
AcDbEntity
  8
0
 62
    98
420
   346117
370
    -3
100
AcDbLine
 10
73.5164430635376
 20
22.64788401901726
 30
0.0000000000000009
 11
73.12971065281124
 21
24.59947758218646
 31
0.0000000000000004
  0
LINE
  5
DA
330
1F
100
AcDbEntity
  8
0
 62
    98
420
   346117
370
    -3
100
AcDbLine
 10
52.29547232200006
 20
35.47536859021764
 30
0.0
 11
52.68220473272643
 21
33.52377502704844
 31
0.0000000000000012
  0
LINE
  5
DB
330
1F
100
AcDbEntity
  8
0
 62
    98
420
   346117
370
    -3
100
AcDbLine
 10
-33.72069687797528
 20
11.97786233022004
 30
-0.0000000000000009
 11
-33.33396448103839
 21
10.02626883663754
 31
0.000000000000001
  0
LINE
  5
DC
330
1F
100
AcDbEntity
  8
0
 62
    98
420
   346117
370
    -3
100
AcDbLine
 10
-12.49972615022722
 20
-0.849622171393632
 30
0.0
 11
-12.88645854716411
 21
1.101971322188868
 31
0.0
  0
LINE
  5
DD
330
1F
100
AcDbEntity
  8
0
 62
    98
420
   346117
370
    -3
100
AcDbLine
 10
24.08721077752049
 20
19.48591712362003
 30
0.0
 11
21.35088229590587
 21
22.12862027797172
 31
0.0000000000000005
  0
LINE
  5
DE
330
1F
100
AcDbEntity
  8
0
 62
    98
420
   346117
370
    -3
100
AcDbLine
 10
26.82353925913511
 20
16.84321396926833
 30
0.0000000000000004
 11
24.0872107775205
 21
19.48591712362002
 31
0.0000000000000004
  0
LINE
  5
DF
330
1F
100
AcDbEntity
  8
0
 62
    98
420
   346117
370
    -3
100
AcDbLine
 10
40.79532551127491
 20
20.65996304042106
 30
0.0
 11
26.82353925913511
 21
16.84321396926833
 31
0.0000000000000008
  0
ELLIPSE
  5
E2
330
1F
100
AcDbEntity
  8
Hidden
370
    -3
100
AcDbEllipse
 10
69.11924655768416
 20
22.27188258345913
 30
0.0000000000000009
 11
-1.471388689701272
 21
-0.2915738736910027
 31
-8.326672684688681E-17
210
-5.445232004931304E-17
220
-1.079040093169661E-17
230
1.0
 40
0.320048397236681
 41
0.0
 42
6.283185307179586
  0
ELLIPSE
  5
E3
330
1F
100
AcDbEntity
  8
Hidden
370
    -3
100
AcDbEllipse
 10
57.07940123857984
 20
33.89977646260656
 30
0.0000000000000017
 11
-1.471388689701272
 21
-0.2915738736910027
 31
-8.326672684688681E-17
210
-5.445232004931304E-17
220
-1.079040093169661E-17
230
1.0
 40
0.320048397236681
 41
0.0
 42
6.283185307179586
  0
ELLIPSE
  5
E4
330
1F
100
AcDbEntity
  8
Hidden
370
    -3
100
AcDbEllipse
 10
71.55459147726924
 20
22.25911885409592
 30
0.0000000000000004
 11
1.961851586268362
 21
0.3887651649213367
 31
1.110223024625157E-16
210
5.445232004931303E-17
220
1.079040093169660E-17
230
-1.0
 40
0.3200483972366809
 41
6.064400076342157
 42
6.283284105447994
  0
LINE
  5
E5
330
1F
100
AcDbEntity
  8
Hidden
370
    -3
100
AcDbLine
 10
73.44267070053138
 20
22.77489575560304
 30
-0.0000000000000017
 11
73.05593828980503
 21
24.72648931877225
 31
0.0000000000000028
  0
ELLIPSE
  5
E6
330
1F
100
AcDbEntity
  8
Hidden
370
    -3
100
AcDbEllipse
 10
-28.93676797518495
 20
10.40227027219568
 30
0.0000000000000017
 11
-1.471388689701268
 21
-0.2915738736910019
 31
-8.326672684688657E-17
210
-5.445232004931303E-17
220
-1.079040093169661E-17
230
1.0
 40
0.3200483972366809
 41
0.0
 42
6.283185307179586
  0
ELLIPSE
  5
E7
330
1F
100
AcDbEntity
  8
Hidden
370
    -3
100
AcDbEllipse
 10
-16.89692265608064
 20
-1.225623606951762
 30
0.0000000000000016
 11
-1.471388689701268
 21
-0.2915738736910019
 31
-8.326672684688657E-17
210
-5.445232004931303E-17
220
-1.079040093169661E-17
230
1.0
 40
0.3200483972366809
 41
0.0
 42
6.283185307179586
  0
ELLIPSE
  5
E8
330
1F
100
AcDbEntity
  8
Hidden
370
    -3
100
AcDbEllipse
 10
-24.48165415065353
 20
39.82737790484201
 30
0.0000000000000052
 11
-0.6252245402812089
 21
-0.6473749101024469
 31
-4.996003610813205E-17
210
3.856326001004870E-17
220
3.992947393113206E-17
230
-1.0
 40
0.9248168817592176
 41
0.0
 42
6.283185307179586
  0
ELLIPSE
  5
E9
330
1F
100
AcDbEntity
  8
Hidden
370
    -3
100
AcDbEllipse
 10
-27.76524832859107
 20
42.99862169006404
 30
0.0
 11
-0.6252245402812089
 21
-0.6473749101024469
 31
-4.996003610813205E-17
210
3.856326001004870E-17
220
3.992947393113206E-17
230
-1.0
 40
0.9248168817592176
 41
0.0
 42
6.283185307179586
  0
ELLIPSE
  5
EA
330
1F
100
AcDbEntity
  8
Hidden
370
    -3
100
AcDbEllipse
 10
-22.64007124243278
 20
30.53407522308391
 30
0.0000000000000035
 11
-0.6252245402812089
 21
-0.6473749101024469
 31
-4.996003610813205E-17
210
3.856326001004870E-17
220
3.992947393113206E-17
230
-1.0
 40
0.9248168817592176
 41
0.0
 42
6.283185307179586
  0
ELLIPSE
  5
EB
330
1F
100
AcDbEntity
  8
Hidden
370
    -3
100
AcDbEllipse
 10
-25.92366542037032
 20
33.70531900830593
 30
0.0000000000000035
 11
-0.6252245402812089
 21
-0.6473749101024469
 31
-4.996003610813205E-17
210
3.856326001004870E-17
220
3.992947393113206E-17
230
-1.0
 40
0.9248168817592176
 41
0.0
 42
6.283185307179586
  0
ELLIPSE
  5
EC
330
1F
100
AcDbEntity
  8
Hidden
370
    -3
100
AcDbEllipse
 10
-20.05143681863712
 20
13.00455112130836
 30
0.0000000000000009
 11
0.6252245402812089
 21
0.6473749101024469
 31
4.996003610813205E-17
210
-3.856326001004870E-17
220
-3.992947393113206E-17
230
1.0
 40
0.9248168817592176
 41
0.0
 42
6.283185307179586
  0
ELLIPSE
  5
ED
330
1F
100
AcDbEntity
  8
Hidden
370
    -3
100
AcDbEllipse
 10
-21.89301972685787
 20
22.29785380306647
 30
0.0000000000000017
 11
0.6252245402812089
 21
0.6473749101024469
 31
4.996003610813205E-17
210
-3.856326001004870E-17
220
-3.992947393113206E-17
230
1.0
 40
0.9248168817592176
 41
0.0
 42
6.283185307179586
  0
ELLIPSE
  5
EE
330
1F
100
AcDbEntity
  8
Hidden
370
    -3
100
AcDbEllipse
 10
73.64237763912593
 20
67.98853534078215
 30
0.0
 11
0.62522454028121
 21
0.6473749101024481
 31
4.996003610813214E-17
210
-3.856326001004870E-17
220
-3.992947393113208E-17
230
1.0
 40
0.9248168817592177
 41
0.0
 42
6.283185307179586
  0
ELLIPSE
  5
EF
330
1F
100
AcDbEntity
  8
Hidden
370
    -3
100
AcDbEllipse
 10
75.48396054734668
 20
58.69523265902406
 30
0.0
 11
0.62522454028121
 21
0.6473749101024481
 31
4.996003610813214E-17
210
-3.856326001004870E-17
220
-3.992947393113208E-17
230
1.0
 40
0.9248168817592177
 41
0.0
 42
6.283185307179586
  0
ELLIPSE
  5
F0
330
1F
100
AcDbEntity
  8
Hidden
370
    -3
100
AcDbEllipse
 10
80.26165775643405
 20
39.05154603376716
 30
-0.0000000000000026
 11
-0.6252245402812089
 21
-0.6473749101024469
 31
-4.996003610813205E-17
210
3.856326001004870E-17
220
3.992947393113206E-17
230
-1.0
 40
0.9248168817592176
 41
0.0
 42
6.283185307179586
  0
ELLIPSE
  5
F1
330
1F
100
AcDbEntity
  8
Hidden
370
    -3
100
AcDbEllipse
 10
76.9780635784965
 20
42.22278981898921
 30
-0.0000000000000035
 11
-0.6252245402812089
 21
-0.6473749101024467
 31
-2.498001805406602E-17
210
5.921110393615641E-17
220
-1.859852304448267E-17
230
-1.0
 40
0.9248168817592176
 41
0.0
 42
6.283185307179586
  0
ELLIPSE
  5
F2
330
1F
100
AcDbEntity
  8
Hidden
370
    -3
100
AcDbEllipse
 10
78.42007484821328
 20
48.34484871552527
 30
0.0
 11
-0.6252245402812089
 21
-0.6473749101024469
 31
-4.996003610813205E-17
210
3.856326001004870E-17
220
3.992947393113206E-17
230
-1.0
 40
0.9248168817592176
 41
0.0
 42
6.283185307179586
  0
ELLIPSE
  5
F3
330
1F
100
AcDbEntity
  8
Hidden
370
    -3
100
AcDbEllipse
 10
75.13648067027574
 20
51.51609250074731
 30
0.0000000000000017
 11
-0.6252245402812089
 21
-0.6473749101024467
 31
-2.498001805406602E-17
210
5.921110393615641E-17
220
-1.859852304448267E-17
230
-1.0
 40
0.9248168817592176
 41
0.0
 42
6.283185307179586
  0
ELLIPSE
  5
F4
330
1F
100
AcDbEntity
  8
Hidden
370
    -3
100
AcDbEllipse
 10
32.63415368410645
 20
35.83725885397746
 30
0.0000000000000052
 11
-0.6252245402812092
 21
-0.6473749101024473
 31
-4.996003610813208E-17
210
3.856326001004870E-17
220
3.992947393113208E-17
230
-1.0
 40
0.9248168817592178
 41
0.0
 42
6.283185307179586
  0
ELLIPSE
  5
F5
330
1F
100
AcDbEntity
  8
Hidden
370
    -3
100
AcDbEllipse
 10
29.35055950616892
 20
39.00850263919948
 30
0.0000000000000017
 11
-0.6252245402812092
 21
-0.6473749101024473
 31
-4.996003610813208E-17
210
3.856326001004870E-17
220
3.992947393113208E-17
230
-1.0
 40
0.9248168817592178
 41
0.0
 42
6.283185307179586
  0
ELLIPSE
  5
F6
330
1F
100
AcDbEntity
  8
Hidden
370
    -3
100
AcDbEllipse
 10
34.47573659232722
 20
26.54395617221936
 30
0.0
 11
-0.6252245402812089
 21
-0.6473749101024469
 31
-4.996003610813205E-17
210
3.856326001004870E-17
220
3.992947393113206E-17
230
-1.0
 40
0.9248168817592176
 41
0.0
 42
6.283185307179586
  0
ELLIPSE
  5
F7
330
1F
100
AcDbEntity
  8
Hidden
370
    -3
100
AcDbEllipse
 10
31.19214241438967
 20
29.71519995744138
 30
0.0
 11
-0.6252245402812089
 21
-0.6473749101024469
 31
-4.996003610813205E-17
210
3.856326001004870E-17
220
3.992947393113206E-17
230
-1.0
 40
0.9248168817592176
 41
0.0
 42
6.283185307179586
  0
ELLIPSE
  5
F8
330
1F
100
AcDbEntity
  8
Hidden
370
    -3
100
AcDbEllipse
 10
21.3986709746164
 20
52.36075661146517
 30
0.0000000000000052
 11
-0.6252245402812089
 21
-0.6473749101024469
 31
-4.996003610813205E-17
210
3.856326001004870E-17
220
3.992947393113206E-17
230
-1.0
 40
0.9248168817592176
 41
0.0
 42
6.283185307179586
  0
ELLIPSE
  5
F9
330
1F
100
AcDbEntity
  8
Hidden
370
    -3
100
AcDbEllipse
 10
18.11507679667886
 20
55.5320003966872
 30
0.0000000000000035
 11
-0.6252245402812089
 21
-0.6473749101024469
 31
-4.996003610813205E-17
210
3.856326001004870E-17
220
3.992947393113206E-17
230
-1.0
 40
0.9248168817592176
 41
0.0
 42
6.283185307179586
  0
ELLIPSE
  5
FA
330
1F
100
AcDbEntity
  8
Hidden
370
    -3
100
AcDbEllipse
 10
23.24025388283715
 20
43.06745392970706
 30
0.0
 11
-0.6252245402812087
 21
-0.6473749101024467
 31
-4.996003610813203E-17
210
3.856326001004870E-17
220
3.992947393113208E-17
230
-1.0
 40
0.9248168817592176
 41
0.0
 42
6.283185307179586
  0
ELLIPSE
  5
FB
330
1F
100
AcDbEntity
  8
Hidden
370
    -3
100
AcDbEllipse
 10
19.95665970489962
 20
46.23869771492909
 30
0.0000000000000017
 11
-0.6252245402812087
 21
-0.6473749101024467
 31
-4.996003610813203E-17
210
3.856326001004870E-17
220
3.992947393113208E-17
230
-1.0
 40
0.9248168817592176
 41
0.0
 42
6.283185307179586
  0
ELLIPSE
  5
FC
330
1F
100
AcDbEntity
  8
Hidden
370
    -3
100
AcDbEllipse
 10
27.8564564750191
 20
55.48094547923436
 30
0.0000000000000017
 11
0.62522454028121
 21
0.6473749101024481
 31
4.996003610813214E-17
210
-3.856326001004870E-17
220
-3.992947393113208E-17
230
1.0
 40
0.9248168817592177
 41
0.0
 42
6.283185307179586
  0
ELLIPSE
  5
FD
330
1F
100
AcDbEntity
  8
Hidden
370
    -3
100
AcDbEllipse
 10
29.69803938323986
 20
46.18764279747624
 30
0.0000000000000017
 11
0.62522454028121
 21
0.6473749101024481
 31
4.996003610813214E-17
210
-3.856326001004870E-17
220
-3.992947393113208E-17
230
1.0
 40
0.9248168817592177
 41
0.0
 42
6.283185307179586
  0
ELLIPSE
  5
FE
330
1F
100
AcDbEntity
  8
Hidden
370
    -3
100
AcDbEllipse
 10
25.82888830663281
 20
25.53792982793153
 30
0.0000000000000026
 11
0.62522454028121
 21
0.6473749101024481
 31
4.996003610813214E-17
210
-3.856326001004870E-17
220
-3.992947393113208E-17
230
1.0
 40
0.9248168817592177
 41
0.0
 42
6.283185307179586
  0
ELLIPSE
  5
FF
330
1F
100
AcDbEntity
  8
Hidden
370
    -3
100
AcDbEllipse
 10
23.98730539841206
 20
34.83123250968963
 30
0.0000000000000035
 11
0.62522454028121
 21
0.6473749101024481
 31
4.996003610813214E-17
210
-3.856326001004870E-17
220
-3.992947393113208E-17
230
1.0
 40
0.9248168817592177
 41
0.0
 42
6.283185307179586
  0
SPLINE
  5
100
330
1F
100
AcDbEntity
  8
Hidden
370
    -3
100
AcDbSpline
210
0.0
220
0.0
230
1.0
 70
     8
 71
     3
 72
    12
 73
     8
 74
     0
 42
0.000000001
 43
0.00000001
 40
0.5
 40
0.5
 40
0.5
 40
0.5
 40
0.625
 40
0.625
 40
0.75
 40
0.75
 40
0.8090056508320419
 40
0.8090056508320419
 40
0.8090056508320419
 40
0.8090056508320419
 10
90.54990899743032
 20
42.78845749109634
 30
0.0000000000000095
 10
90.60479544682514
 20
42.51148034004002
 30
0.0000000000000061
 10
90.69291642577241
 20
42.20378496296453
 30
0.0000000000000061
 10
90.88587151675341
 20
41.70069241792969
 30
0.0000000000000087
 10
90.98951744361533
 20
41.50839320970292
 30
0.0000000000000069
 10
91.10956774091622
 20
41.39245051441264
 30
0.0000000000000087
 10
91.14291802718769
 20
41.38078586049117
 30
0.0000000000000069
 10
91.16968989668788
 20
41.39250946556191
 30
0.0000000000000087
  0
SPLINE
  5
101
330
1F
100
AcDbEntity
  8
Hidden
370
    -3
100
AcDbSpline
210
0.0
220
0.0
230
1.0
 70
     8
 71
     3
 72
    10
 73
     6
 74
     0
 42
0.000000001
 43
0.00000001
 40
0.8090056508320419
 40
0.8090056508320419
 40
0.8090056508320419
 40
0.8090056508320419
 40
0.875
 40
0.875
 40
1.0
 40
1.0
 40
1.0
 40
1.0
 10
91.16968989668788
 20
41.39250946556191
 30
0.0000000000000087
 10
91.19898850796471
 20
41.40787857486376
 30
0.0000000000000078
 10
91.21998181378027
 20
41.45277162186611
 30
0.0000000000000052
 10
91.2487935166572
 20
41.66692758221388
 30
0.0000000000000069
 10
91.22781755996226
 20
41.90977534932676
 30
0.0000000000000017
 10
91.17293111056746
 20
42.18675250038309
 30
0.0000000000000078
  0
SPLINE
  5
102
330
1F
100
AcDbEntity
  8
Hidden
370
    -3
100
AcDbSpline
210
0.0
220
0.0
230
1.0
 70
     8
 71
     3
 72
    12
 73
     8
 74
     0
 42
0.000000001
 43
0.00000001
 40
0.0
 40
0.0
 40
0.0
 40
0.0
 40
0.125
 40
0.125
 40
0.25
 40
0.25
 40
0.3090056508320419
 40
0.3090056508320419
 40
0.3090056508320419
 40
0.3090056508320419
 10
91.17293111056746
 20
42.18675250038309
 30
0.0000000000000078
 10
91.11804466117263
 20
42.46372965143941
 30
0.0000000000000078
 10
91.02992368222534
 20
42.77142502851488
 30
0.0000000000000061
 10
90.83696859124436
 20
43.27451757354974
 30
0.0000000000000026
 10
90.73332266438244
 20
43.46681678177649
 30
0.0000000000000069
 10
90.61327236708154
 20
43.58275947706678
 30
0.0000000000000069
 10
90.57992208081009
 20
43.59442413098825
 30
0.0000000000000026
 10
90.55315021130988
 20
43.5827005259175
 30
0.0000000000000061
  0
SPLINE
  5
103
330
1F
100
AcDbEntity
  8
Hidden
370
    -3
100
AcDbSpline
210
0.0
220
0.0
230
1.0
 70
     8
 71
     3
 72
    10
 73
     6
 74
     0
 42
0.000000001
 43
0.00000001
 40
0.3090056508320419
 40
0.3090056508320419
 40
0.3090056508320419
 40
0.3090056508320419
 40
0.375
 40
0.375
 40
0.5
 40
0.5
 40
0.5
 40
0.5
 10
90.55315021130988
 20
43.5827005259175
 30
0.0000000000000061
 10
90.52385160003304
 20
43.56733141661567
 30
0.0000000000000069
 10
90.50285829421749
 20
43.52243836961331
 30
0.0000000000000078
 10
90.47404659134057
 20
43.30828240926554
 30
0.0000000000000104
 10
90.4950225480355
 20
43.06543464215267
 30
0.0000000000000069
 10
90.54990899743032
 20
42.78845749109634
 30
0.0000000000000095
  0
SPLINE
  5
104
330
1F
100
AcDbEntity
  8
Hidden
370
    -3
100
AcDbSpline
210
0.0
220
0.0
230
1.0
 70
     8
 71
     3
 72
    12
 73
     8
 74
     0
 42
0.000000001
 43
0.00000001
 40
-0.5
 40
-0.5
 40
-0.5
 40
-0.5
 40
-0.375
 40
-0.375
 40
-0.25
 40
-0.25
 40
-0.1909943491679589
 40
-0.1909943491679589
 40
-0.1909943491679589
 40
-0.1909943491679589
 10
87.71387131877034
 20
57.10014362100381
 30
0.0000000000000104
 10
87.76875776816517
 20
56.82316646994749
 30
0.0000000000000069
 10
87.85687874711246
 20
56.51547109287201
 30
0.0000000000000069
 10
88.04983383809346
 20
56.01237854783718
 30
0.0000000000000069
 10
88.15347976495535
 20
55.8200793396104
 30
0.0000000000000069
 10
88.27353006225627
 20
55.70413664432013
 30
0.0000000000000052
 10
88.30688034852771
 20
55.69247199039864
 30
0.0000000000000104
 10
88.33365221802792
 20
55.70419559546939
 30
0.0000000000000069
  0
SPLINE
  5
105
330
1F
100
AcDbEntity
  8
Hidden
370
    -3
100
AcDbSpline
210
0.0
220
0.0
230
1.0
 70
     8
 71
     3
 72
    10
 73
     6
 74
     0
 42
0.000000001
 43
0.00000001
 40
-0.1909943491679589
 40
-0.1909943491679589
 40
-0.1909943491679589
 40
-0.1909943491679589
 40
-0.125
 40
-0.125
 40
0.0
 40
0.0
 40
0.0
 40
0.0
 10
88.33365221802792
 20
55.70419559546939
 30
0.0000000000000069
 10
88.36295082930476
 20
55.71956470477124
 30
0.0000000000000052
 10
88.38394413512032
 20
55.76445775177361
 30
0.0000000000000069
 10
88.41275583799722
 20
55.97861371212136
 30
0.0000000000000087
 10
88.3917798813023
 20
56.22146147923423
 30
0.0000000000000069
 10
88.33689343190747
 20
56.49843863029056
 30
-0.0000000000000017
  0
SPLINE
  5
106
330
1F
100
AcDbEntity
  8
Hidden
370
    -3
100
AcDbSpline
210
0.0
220
0.0
230
1.0
 70
     8
 71
     3
 72
    12
 73
     8
 74
     0
 42
0.000000001
 43
0.00000001
 40
-1.0
 40
-1.0
 40
-1.0
 40
-1.0
 40
-0.875
 40
-0.875
 40
-0.75
 40
-0.75
 40
-0.6909943491679562
 40
-0.6909943491679562
 40
-0.6909943491679562
 40
-0.6909943491679562
 10
88.33689343190747
 20
56.49843863029056
 30
-0.0000000000000017
 10
88.28200698251268
 20
56.77541578134689
 30
0.0000000000000087
 10
88.19388600356538
 20
57.08311115842236
 30
0.0000000000000069
 10
88.00093091258438
 20
57.58620370345721
 30
0.0000000000000017
 10
87.89728498572248
 20
57.77850291168397
 30
0.0000000000000052
 10
87.77723468842157
 20
57.89444560697425
 30
0.0000000000000069
 10
87.74388440215012
 20
57.90611026089573
 30
0.0000000000000087
 10
87.7171125326499
 20
57.89438665582497
 30
0.0000000000000052
  0
SPLINE
  5
107
330
1F
100
AcDbEntity
  8
Hidden
370
    -3
100
AcDbSpline
210
0.0
220
0.0
230
1.0
 70
     8
 71
     3
 72
    10
 73
     6
 74
     0
 42
0.000000001
 43
0.00000001
 40
-0.6909943491679562
 40
-0.6909943491679562
 40
-0.6909943491679562
 40
-0.6909943491679562
 40
-0.625
 40
-0.625
 40
-0.5
 40
-0.5
 40
-0.5
 40
-0.5
 10
87.7171125326499
 20
57.89438665582497
 30
0.0000000000000052
 10
87.68781392137306
 20
57.87901754652314
 30
0.0000000000000052
 10
87.66682061555754
 20
57.83412449952078
 30
0.0000000000000052
 10
87.63800891268062
 20
57.61996853917302
 30
0.0000000000000104
 10
87.65898486937554
 20
57.37712077206014
 30
0.0000000000000069
 10
87.71387131877034
 20
57.10014362100381
 30
0.0000000000000104
  0
SPLINE
  5
108
330
1F
100
AcDbEntity
  8
Hidden
370
    -3
100
AcDbSpline
210
0.0
220
0.0
230
1.0
 70
     8
 71
     3
 72
    10
 73
     6
 74
     0
 42
0.000000001
 43
0.00000001
 40
0.0
 40
0.0
 40
0.0
 40
0.0
 40
0.125
 40
0.125
 40
0.2022985153227349
 40
0.2022985153227349
 40
0.2022985153227349
 40
0.2022985153227349
 10
76.57068096096462
 20
67.86206219400282
 30
0.0000000000000069
 10
76.62556741035947
 20
67.5850850429465
 30
0.0000000000000069
 10
76.64654336705438
 20
67.34223727583363
 30
0.0000000000000087
 10
76.61602641856186
 20
67.11540630929142
 30
0.0000000000000104
 10
76.58922261829457
 20
67.06866274468588
 30
0.0000000000000087
 10
76.55144813398118
 20
67.06327768941527
 30
0.0000000000000121
  0
SPLINE
  5
109
330
1F
100
AcDbEntity
  8
Hidden
370
    -3
100
AcDbSpline
210
0.0
220
0.0
230
1.0
 70
     8
 71
     3
 72
    12
 73
     8
 74
     0
 42
0.000000001
 43
0.00000001
 40
0.2022985153227349
 40
0.2022985153227349
 40
0.2022985153227349
 40
0.2022985153227349
 40
0.25
 40
0.25
 40
0.375
 40
0.375
 40
0.5
 40
0.5
 40
0.5
 40
0.5
 10
76.55144813398118
 20
67.06327768941527
 30
0.0000000000000121
 10
76.52770064529209
 20
67.06150138231435
 30
0.0000000000000069
 10
76.49994244548782
 20
67.07488300826198
 30
0.0000000000000139
 10
76.3872672940125
 20
67.18370290332268
 30
0.0000000000000052
 10
76.28362136715062
 20
67.37600211154943
 30
0.0000000000000087
 10
76.09066627616959
 20
67.87909465658429
 30
0.0000000000000104
 10
76.00254529722233
 20
68.18679003365975
 30
0.0000000000000069
 10
75.9476588478275
 20
68.46376718471609
 30
0.0000000000000104
  0
SPLINE
  5
10A
330
1F
100
AcDbEntity
  8
Hidden
370
    -3
100
AcDbSpline
210
0.0
220
0.0
230
1.0
 70
     8
 71
     3
 72
    10
 73
     6
 74
     0
 42
0.000000001
 43
0.00000001
 40
0.5
 40
0.5
 40
0.5
 40
0.5
 40
0.625
 40
0.625
 40
0.7022985153227371
 40
0.7022985153227371
 40
0.7022985153227371
 40
0.7022985153227371
 10
75.9476588478275
 20
68.46376718471609
 30
0.0000000000000104
 10
75.89277239843268
 20
68.7407443357724
 30
0.0000000000000104
 10
75.87179644173774
 20
68.98359210288528
 30
0.0000000000000069
 10
75.90231339023028
 20
69.21042306942749
 30
0.0000000000000104
 10
75.92911719049758
 20
69.25716663403303
 30
0.0000000000000104
 10
75.96689167481097
 20
69.2625516893036
 30
0.0000000000000069
  0
SPLINE
  5
10B
330
1F
100
AcDbEntity
  8
Hidden
370
    -3
100
AcDbSpline
210
0.0
220
0.0
230
1.0
 70
     8
 71
     3
 72
    12
 73
     8
 74
     0
 42
0.000000001
 43
0.00000001
 40
0.7022985153227371
 40
0.7022985153227371
 40
0.7022985153227371
 40
0.7022985153227371
 40
0.75
 40
0.75
 40
0.875
 40
0.875
 40
1.0
 40
1.0
 40
1.0
 40
1.0
 10
75.96689167481097
 20
69.2625516893036
 30
0.0000000000000069
 10
75.99063916350005
 20
69.26432799640455
 30
0.0000000000000069
 10
76.01839736330433
 20
69.25094637045692
 30
0.0000000000000035
 10
76.13107251477966
 20
69.14212647539624
 30
0.0000000000000104
 10
76.23471844164155
 20
68.94982726716947
 30
0.0000000000000104
 10
76.42767353262255
 20
68.44673472213461
 30
0.0000000000000035
 10
76.5157945115698
 20
68.13903934505916
 30
0.0000000000000139
 10
76.57068096096462
 20
67.86206219400282
 30
0.0000000000000069
  0
ELLIPSE
  5
10C
330
1F
100
AcDbEntity
  8
Hidden
370
    -3
100
AcDbEllipse
 10
73.01660179726069
 20
67.78565481025151
 30
0.0
 11
-0.2999980799476956
 21
1.098188267277324
 31
0.0
210
6.024268516411871E-17
220
1.645682294979871E-17
230
-1.0
 40
0.2056277185580505
 41
0.0
 42
6.283185307179586
  0
SPLINE
  5
10D
330
1F
100
AcDbEntity
  8
Hidden
370
    -3
100
AcDbSpline
210
0.0
220
0.0
230
1.0
 70
     8
 71
     3
 72
    12
 73
     8
 74
     0
 42
0.000000001
 43
0.00000001
 40
-0.5
 40
-0.5
 40
-0.5
 40
-0.5
 40
-0.375
 40
-0.375
 40
-0.25
 40
-0.25
 40
-0.2022985153227388
 40
-0.2022985153227388
 40
-0.2022985153227388
 40
-0.2022985153227388
 10
78.78369652648746
 20
54.1520810548086
 30
0.0000000000000104
 10
78.83858297588229
 20
53.87510390375227
 30
0.0000000000000087
 10
78.92670395482955
 20
53.56740852667679
 30
0.0000000000000052
 10
79.11965904581056
 20
53.06431598164195
 30
0.0000000000000069
 10
79.22330497267245
 20
52.87201677341519
 30
0.0000000000000104
 10
79.33598012414778
 20
52.7631968783545
 30
0.0000000000000052
 10
79.36373832395205
 20
52.74981525240688
 30
0.0000000000000052
 10
79.38748581264113
 20
52.7515915595078
 30
0.0000000000000087
  0
SPLINE
  5
10E
330
1F
100
AcDbEntity
  8
Hidden
370
    -3
100
AcDbSpline
210
0.0
220
0.0
230
1.0
 70
     8
 71
     3
 72
    10
 73
     6
 74
     0
 42
0.000000001
 43
0.00000001
 40
-0.2022985153227388
 40
-0.2022985153227388
 40
-0.2022985153227388
 40
-0.2022985153227388
 40
-0.125
 40
-0.125
 40
0.0
 40
0.0
 40
0.0
 40
0.0
 10
79.38748581264113
 20
52.7515915595078
 30
0.0000000000000087
 10
79.42526029695452
 20
52.7569766147784
 30
0.0000000000000087
 10
79.45206409722182
 20
52.80372017938394
 30
0.0000000000000035
 10
79.48258104571434
 20
53.03055114592613
 30
0.0000000000000017
 10
79.46160508901941
 20
53.27339891303902
 30
0.0000000000000121
 10
79.40671863962459
 20
53.55037606409535
 30
0.0000000000000069
  0
SPLINE
  5
10F
330
1F
100
AcDbEntity
  8
Hidden
370
    -3
100
AcDbSpline
210
0.0
220
0.0
230
1.0
 70
     8
 71
     3
 72
    12
 73
     8
 74
     0
 42
0.000000001
 43
0.00000001
 40
-1.0
 40
-1.0
 40
-1.0
 40
-1.0
 40
-0.875
 40
-0.875
 40
-0.75
 40
-0.75
 40
-0.702298515322741
 40
-0.702298515322741
 40
-0.702298515322741
 40
-0.702298515322741
 10
79.40671863962459
 20
53.55037606409535
 30
0.0000000000000069
 10
79.35183219022979
 20
53.82735321515167
 30
0.0000000000000069
 10
79.26371121128251
 20
54.13504859222715
 30
0.0000000000000069
 10
79.07075612030151
 20
54.63814113726198
 30
0.0000000000000052
 10
78.96711019343961
 20
54.83044034548875
 30
0.0000000000000104
 10
78.8544350419643
 20
54.93926024054943
 30
0.0000000000000087
 10
78.82667684216001
 20
54.95264186649707
 30
0.0000000000000069
 10
78.80292935347093
 20
54.95086555939614
 30
0.0000000000000087
  0
SPLINE
  5
110
330
1F
100
AcDbEntity
  8
Hidden
370
    -3
100
AcDbSpline
210
0.0
220
0.0
230
1.0
 70
     8
 71
     3
 72
    10
 73
     6
 74
     0
 42
0.000000001
 43
0.00000001
 40
-0.702298515322741
 40
-0.702298515322741
 40
-0.702298515322741
 40
-0.702298515322741
 40
-0.625
 40
-0.625
 40
-0.5
 40
-0.5
 40
-0.5
 40
-0.5
 10
78.80292935347093
 20
54.95086555939614
 30
0.0000000000000087
 10
78.76515486915753
 20
54.94548050412555
 30
0.0000000000000069
 10
78.73835106889025
 20
54.89873693952002
 30
0.0000000000000069
 10
78.7078341203977
 20
54.6719059729778
 30
0.0000000000000035
 10
78.72881007709266
 20
54.42905820586493
 30
0.0000000000000087
 10
78.78369652648746
 20
54.1520810548086
 30
0.0000000000000104
  0
ELLIPSE
  5
111
330
1F
100
AcDbEntity
  8
Hidden
370
    -3
100
AcDbEllipse
 10
75.85263947592064
 20
53.47396868034404
 30
0.0000000000000017
 11
-0.299998079947696
 21
1.098188267277325
 31
0.0
210
6.024268516411871E-17
220
1.645682294979871E-17
230
-1.0
 40
0.2056277185580505
 41
0.0
 42
6.283185307179586
  0
ELLIPSE
  5
112
330
1F
100
AcDbEntity
  8
Hidden
370
    -3
100
AcDbEllipse
 10
58.42021476551906
 20
34.94409399498403
 30
0.0000000000000009
 11
1.961851586268362
 21
0.3887651649213367
 31
1.110223024625157E-16
210
5.445232004931303E-17
220
1.079040093169660E-17
230
-1.0
 40
0.3200483972366809
 41
4.49360374954726
 42
6.064400076342182
  0
LINE
  5
113
330
1F
100
AcDbEntity
  8
Hidden
370
    -3
100
AcDbLine
 10
57.87294906919613
 20
35.47263462585436
 30
-0.0000000000000026
 11
57.48621665846978
 21
37.42422818902357
 31
-0.0000000000000002
  0
ELLIPSE
  5
114
330
1F
100
AcDbEntity
  8
Hidden
370
    -3
100
AcDbEllipse
 10
54.64405631899478
 20
33.91254019196977
 30
0.0000000000000026
 11
1.961851586268362
 21
0.3887651649213367
 31
1.110223024625157E-16
210
5.445232004931303E-17
220
1.079040093169660E-17
230
-1.0
 40
0.3200483972366809
 41
2.922807422752363
 42
2.956919612457107
  0
ELLIPSE
  5
115
330
1F
100
AcDbEntity
  8
Hidden
370
    -3
100
AcDbEllipse
 10
54.64405631899478
 20
33.91254019196977
 30
0.0000000000000026
 11
1.961851586268362
 21
0.3887651649213367
 31
1.110223024625157E-16
210
5.445232004931303E-17
220
1.079040093169660E-17
230
-1.0
 40
0.3200483972366809
 41
3.141691451858201
 42
4.49360374954728
  0
LINE
  5
116
330
1F
100
AcDbEntity
  8
Hidden
370
    -3
100
AcDbLine
 10
52.75597709573265
 20
33.39676329046266
 30
-0.0000000000000017
 11
52.75163208462411
 21
33.41868980987531
 31
0.0000000000000001
  0
ELLIPSE
  5
117
330
1F
100
AcDbEntity
  8
Hidden
370
    -3
100
AcDbEllipse
 10
-31.37211289477002
 20
10.41503400155889
 30
0.0000000000000009
 11
-1.961851586268362
 21
-0.3887651649213367
 31
-1.110223024625157E-16
210
-5.445232004931303E-17
220
-1.079040093169660E-17
230
1.0
 40
0.3200483972366809
 41
4.931174211222119
 42
6.28308650891119
  0
LINE
  5
118
330
1F
100
AcDbEntity
  8
Hidden
370
    -3
100
AcDbLine
 10
-32.3061110018193
 20
12.89516819559842
 30
0.0000000000000035
 11
-31.91937859109294
 21
10.94357463242921
 31
-0.0000000000000005
  0
ELLIPSE
  5
119
330
1F
100
AcDbEntity
  8
Hidden
370
    -3
100
AcDbEllipse
 10
-27.59595444824574
 20
11.44658780457314
 30
0.0000000000000009
 11
-1.961851586268361
 21
-0.3887651649213366
 31
-1.110223024625156E-16
210
-5.445232004931303E-17
220
-1.079040093169660E-17
230
1.0
 40
0.3200483972366809
 41
3.360377884427223
 42
4.931174211222126
  0
LINE
  5
11A
330
1F
100
AcDbEntity
  8
Hidden
370
    -3
100
AcDbLine
 10
-26.09460763570996
 20
13.91395826924947
 30
0.0000000000000009
 11
-25.70787522498361
 21
11.96236470608026
 31
0.0000000000000001
  0
LINE
  5
11B
330
1F
100
AcDbEntity
  8
Hidden
370
    -3
100
AcDbLine
 10
-28.14322014456867
 20
11.97512843544347
 30
0.0
 11
-28.52995255529502
 21
13.92672199861268
 31
0.0000000000000009
  0
ELLIPSE
  5
11C
330
1F
100
AcDbEntity
  8
Hidden
370
    -3
100
AcDbEllipse
 10
-14.46157773649557
 20
-1.238387336314975
 30
0.0000000000000001
 11
-1.961851586268362
 21
-0.3887651649213367
 31
-1.110223024625157E-16
210
-5.445232004931303E-17
220
-1.079040093169660E-17
230
1.0
 40
0.3200483972366809
 41
3.141493855321385
 42
3.360377884427223
  0
LINE
  5
11D
330
1F
100
AcDbEntity
  8
Hidden
370
    -3
100
AcDbLine
 10
-12.57349851323344
 20
-0.7226104348078428
 30
0.0
 11
-12.9602309239598
 21
1.228983128361362
 31
0.0000000000000004
  0
LINE
  5
11E
330
1F
100
AcDbEntity
  8
Hidden
370
    -3
100
AcDbLine
 10
-25.70787522498361
 20
11.96236470608026
 30
0.0000000000000017
 11
-24.06607813601484
 21
10.37674281346925
 31
0.0000000000000023
  0
LINE
  5
11F
330
1F
100
AcDbEntity
  8
Hidden
370
    -3
100
AcDbLine
 10
-25.95577391936981
 20
13.77987484228971
 30
0.0000000000000017
 11
-24.45281054674119
 21
12.32833637663846
 31
0.0000000000000007
  0
LINE
  5
120
330
1F
100
AcDbEntity
  8
Hidden
370
    -3
100
AcDbLine
 10
-24.06607813601484
 20
10.37674281346925
 30
0.0000000000000009
 11
-24.45281054674119
 21
12.32833637663846
 31
0.0
  0
LINE
  5
121
330
1F
100
AcDbEntity
  8
Hidden
370
    -3
100
AcDbLine
 10
-18.10997347027279
 20
11.34888303647278
 30
0.0
 11
-25.09586659634271
 21
9.440508500896417
 31
0.0000000000000017
  0
LINE
  5
122
330
1F
100
AcDbEntity
  8
Hidden
370
    -3
100
AcDbLine
 10
-18.10997347027279
 20
11.34888303647278
 30
0.0
 11
-15.37364498865817
 21
8.70617988212109
 31
0.0000000000000005
  0
LINE
  5
123
330
1F
100
AcDbEntity
  8
Hidden
370
    -3
100
AcDbLine
 10
-15.37364498865817
 20
8.706179882121091
 30
0.0000000000000009
 11
-12.63731650704356
 21
6.063476727769396
 31
0.0000000000000006
  0
LINE
  5
124
330
1F
100
AcDbEntity
  8
Hidden
370
    -3
100
AcDbLine
 10
81.67501347913114
 20
38.60769228112439
 30
0.0
 11
74.68912035306123
 21
36.69931774554802
 31
0.0000000000000009
  0
LINE
  5
125
330
1F
100
AcDbEntity
  8
Hidden
370
    -3
100
AcDbLine
 10
79.48595069383947
 20
40.72185480460575
 30
-0.0000000000000043
 11
81.67501347913114
 21
38.60769228112439
 31
0.0000000000000017
  0
LINE
  5
126
330
1F
100
AcDbEntity
  8
Hidden
370
    -3
100
AcDbLine
 10
74.17926721575334
 20
39.27219912920599
 30
0.0000000000000035
 11
79.48595069383947
 21
40.72185480460575
 31
-0.0000000000000044
  0
LINE
  5
127
330
1F
100
AcDbEntity
  8
Hidden
370
    -3
100
AcDbLine
 10
-24.45281054674119
 20
12.32833637663846
 30
0.0000000000000009
 11
-14.42180248762116
 21
15.0685615705723
 31
0.0000000000000009
  0
LINE
  5
128
330
1F
100
AcDbEntity
  8
Hidden
370
    -3
100
AcDbLine
 10
20.84102915859798
 20
24.70150166162968
 30
0.0000000000000035
 11
39.01083953069733
 21
29.66504788322396
 31
0.0000000000000009
  0
LINE
  5
129
330
1F
100
AcDbEntity
  8
Hidden
370
    -3
100
AcDbLine
 10
35.32266854804567
 20
25.94536934912444
 30
0.0
 11
21.35088229590587
 21
22.12862027797171
 31
0.0000000000000015
  0
LINE
  5
12A
330
1F
100
AcDbEntity
  8
Hidden
370
    -3
100
AcDbLine
 10
35.32266854804567
 20
25.94536934912444
 30
0.0
 11
38.05899702966028
 21
23.30266619477275
 31
0.0000000000000003
  0
LINE
  5
12B
330
1F
100
AcDbEntity
  8
Hidden
370
    -3
100
AcDbLine
 10
38.05899702966028
 20
23.30266619477275
 30
0.0
 11
40.7953255112749
 21
20.65996304042107
 31
-0.0000000000000004
  0
LINE
  5
12C
330
1F
100
AcDbEntity
  8
Hidden
370
    -3
100
AcDbLine
 10
54.39777418470141
 20
31.81114139785164
 30
0.0000000000000009
 11
52.75597709573265
 21
33.39676329046267
 31
0.0000000000000002
  0
LINE
  5
12D
330
1F
100
AcDbEntity
  8
Hidden
370
    -3
100
AcDbLine
 10
54.01104177397506
 20
33.76273496102084
 30
0.0000000000000009
 11
54.39777418470141
 21
31.81114139785164
 31
0.0
  0
LINE
  5
12E
330
1F
100
AcDbEntity
  8
Hidden
370
    -3
100
AcDbLine
 10
60.30829398878119
 20
35.45987089649115
 30
0.0000000000000009
 11
61.95009107774997
 21
33.87424900388014
 31
-0.0000000000000019
  0
LINE
  5
12F
330
1F
100
AcDbEntity
  8
Hidden
370
    -3
100
AcDbLine
 10
59.92156157805483
 20
37.41146445966037
 30
0.0
 11
60.30829398878119
 21
35.45987089649115
 31
-0.0000000000000008
  0
LINE
  5
130
330
1F
100
AcDbEntity
  8
Hidden
370
    -3
100
AcDbLine
 10
61.95009107774998
 20
33.87424900388014
 30
-0.0000000000000017
 11
61.56335866702364
 21
35.82584256704934
 31
-0.0000000000000006
  0
LINE
  5
131
330
1F
100
AcDbEntity
  8
Hidden
370
    -3
100
AcDbLine
 10
53.71005821194549
 20
36.39267438600932
 30
0.0000000000000026
 11
54.09679062267185
 21
34.44108082284012
 31
-0.0000000000000009
  0
LINE
  5
132
330
1F
100
AcDbEntity
  8
Hidden
370
    -3
100
AcDbLine
 10
54.09679062267185
 20
34.44108082284011
 30
-0.0000000000000009
 11
57.87294906919612
 21
35.47263462585436
 31
-0.0000000000000017
  0
LINE
  5
133
330
1F
100
AcDbEntity
  8
Hidden
370
    -3
100
AcDbLine
 10
71.6943532327921
 20
70.79104982559731
 30
0.0
 11
74.5264720676853
 21
71.564715177858
 31
-0.0000000000000012
  0
LINE
  5
134
330
1F
100
AcDbEntity
  8
Hidden
370
    -3
100
AcDbLine
 10
74.5264720676853
 20
71.56471517785799
 30
0.0
 11
78.20963788412682
 21
52.97810981434178
 31
0.0000000000000042
  0
LINE
  5
135
330
1F
100
AcDbEntity
  8
Hidden
370
    -3
100
AcDbLine
 10
78.20963788412682
 20
52.97810981434179
 30
0.0000000000000035
 11
75.37751904923361
 21
52.20444446208109
 31
0.0000000000000043
  0
LINE
  5
136
330
1F
100
AcDbEntity
  8
Hidden
370
    -3
100
AcDbLine
 10
71.6943532327921
 20
70.79104982559731
 30
0.0
 11
75.37751904923363
 21
52.2044444620811
 31
0.0000000000000032
  0
LINE
  5
137
330
1F
100
AcDbEntity
  8
Hidden
370
    -3
100
AcDbLine
 10
78.9823835893621
 20
67.2612656786594
 30
-0.0000000000000017
 11
74.52647206768529
 21
71.56471517785799
 31
-0.0000000000000007
  0
LINE
  5
138
330
1F
100
AcDbEntity
  8
Hidden
370
    -3
100
AcDbLine
 10
84.45504055259134
 20
61.97585936995601
 30
0.0000000000000052
 11
78.98238358936212
 21
67.2612656786594
 31
-0.0000000000000005
  0
LINE
  5
139
330
1F
100
AcDbEntity
  8
Hidden
370
    -3
100
AcDbLine
 10
88.13820636903284
 20
43.38925400643979
 30
-0.0000000000000043
 11
92.59411789070964
 21
39.08580450724119
 31
-0.0000000000000028
  0
LINE
  5
13A
330
1F
100
AcDbEntity
  8
Hidden
370
    -3
100
AcDbLine
 10
82.66554940580359
 20
48.6746603151432
 30
0.0000000000000017
 11
88.13820636903286
 21
43.38925400643981
 31
-0.000000000000001
  0
LINE
  5
13B
330
1F
100
AcDbEntity
  8
Hidden
370
    -3
100
AcDbLine
 10
78.20963788412682
 20
52.97810981434179
 30
0.0000000000000035
 11
82.6655494058036
 21
48.67466031514319
 31
0.0000000000000026
  0
LINE
  5
13C
330
1F
100
AcDbEntity
  8
Hidden
370
    -3
100
AcDbLine
 10
82.6655494058036
 20
48.67466031514319
 30
0.0000000000000017
 11
79.83343057091042
 21
47.90099496288249
 31
-0.0000000000000018
  0
LINE
  5
13D
330
1F
100
AcDbEntity
  8
Hidden
370
    -3
100
AcDbLine
 10
79.83343057091041
 20
47.90099496288249
 30
-0.0000000000000017
 11
75.37751904923361
 21
52.20444446208109
 31
0.0000000000000033
  0
LINE
  5
13E
330
1F
100
AcDbEntity
  8
Hidden
370
    -3
100
AcDbLine
 10
71.6943532327921
 20
70.79104982559731
 30
0.0
 11
76.1502647544689
 21
66.4876003263987
 31
-0.0000000000000019
  0
LINE
  5
13F
330
1F
100
AcDbEntity
  8
Hidden
370
    -3
100
AcDbLine
 10
76.15026475446889
 20
66.4876003263987
 30
0.0
 11
79.8334305709104
 21
47.9009949628825
 31
0.0000000000000011
  0
LINE
  5
140
330
1F
100
AcDbEntity
  8
Hidden
370
    -3
100
AcDbLine
 10
76.15026475446889
 20
66.4876003263987
 30
0.0
 11
78.9823835893621
 21
67.26126567865941
 31
-0.0000000000000002
  0
LINE
  5
141
330
1F
100
AcDbEntity
  8
Hidden
370
    -3
100
AcDbLine
 10
85.30608753413964
 20
42.61558865417911
 30
0.0
 11
88.13820636903286
 21
43.3892540064398
 31
-0.0000000000000024
  0
LINE
  5
142
330
1F
100
AcDbEntity
  8
Hidden
370
    -3
100
AcDbLine
 10
75.2294733003585
 20
71.13425166727777
 30
0.0
 11
74.30868184624812
 21
75.78090300815681
 31
0.000000000000005
  0
LINE
  5
143
330
1F
100
AcDbEntity
  8
Hidden
370
    -3
100
AcDbLine
 10
80.70213026358775
 20
65.84884535857437
 30
0.0000000000000052
 11
75.22947330035852
 21
71.13425166727775
 31
0.0000000000000012
  0
LINE
  5
144
330
1F
100
AcDbEntity
  8
Hidden
370
    -3
100
AcDbLine
 10
78.9823835893621
 20
67.26126567865941
 30
-0.0000000000000017
 11
75.2294733003585
 21
71.13425166727777
 31
-0.0000000000000005
  0
LINE
  5
145
330
1F
100
AcDbEntity
  8
Hidden
370
    -3
100
AcDbLine
 10
88.13820636903286
 20
43.38925400643981
 30
-0.0000000000000035
 11
87.21522097711562
 21
40.77176776225485
 31
-0.0000000000000035
  0
LINE
  5
146
330
1F
100
AcDbEntity
  8
Hidden
370
    -3
100
AcDbLine
 10
80.75422202502078
 20
43.25434362200343
 30
0.0000000000000035
 11
86.22687898825001
 21
37.96893731330005
 31
0.0000000000000026
  0
LINE
  5
147
330
1F
100
AcDbEntity
  8
Hidden
370
    -3
100
AcDbLine
 10
80.75422202502078
 20
43.25434362200343
 30
0.0000000000000035
 11
82.66554940580359
 21
48.67466031514319
 31
0.0000000000000032
  0
LINE
  5
148
330
1F
100
AcDbEntity
  8
Hidden
370
    -3
100
AcDbLine
 10
35.32266854804567
 20
25.94536934912444
 30
0.0
 11
27.95633691516266
 21
63.11858007615687
 31
0.0
  0
LINE
  5
149
330
1F
100
AcDbEntity
  8
Hidden
370
    -3
100
AcDbLine
 10
81.67501347913114
 20
38.60769228112439
 30
0.0
 11
80.75422202502078
 21
43.25434362200343
 31
0.0000000000000013
  0
LINE
  5
14A
330
1F
100
AcDbEntity
  8
Hidden
370
    -3
100
AcDbLine
 10
-18.10997347027279
 20
11.34888303647278
 30
0.0
 11
-25.47630510315582
 21
48.52209376350519
 31
0.0000000000000021
  0
LINE
  5
14B
330
1F
100
AcDbEntity
  8
Hidden
370
    -3
100
AcDbLine
 10
-24.06607813601484
 20
10.37674281346925
 30
0.0000000000000009
 11
54.39777418470141
 21
31.81114139785164
 31
-0.0000000000000014
  0
LINE
  5
14C
330
1F
100
AcDbEntity
  8
Hidden
370
    -3
100
AcDbLine
 10
-31.91937859109294
 20
10.94357463242921
 30
0.0
 11
-28.14322014456867
 21
11.97512843544347
 31
0.0000000000000014
  0
LINE
  5
14D
330
1F
100
AcDbEntity
  8
Hidden
370
    -3
100
AcDbLine
 10
-19.2720494926481
 20
2.237863770030406
 30
-0.0000000000000002
 11
-20.3321973878742
 21
3.261737988940017
 31
0.0000000000000001
  0
LINE
  5
14E
330
1F
100
AcDbEntity
  8
Hidden
370
    -3
100
AcDbLine
 10
-19.2720494926481
 20
2.237863770030406
 30
-0.0000000000000002
 11
-19.65878190337446
 21
4.189457333199607
 31
0.0000000000000009
  0
LINE
  5
14F
330
1F
100
AcDbEntity
  8
Hidden
370
    -3
100
AcDbLine
 10
-21.76761249525076
 20
-1.200096148225335
 30
0.000000000000001
 11
-19.2720494926481
 21
2.237863770030406
 31
0.0000000000000003
  0
LINE
  5
150
330
1F
100
AcDbEntity
  8
Hidden
370
    -3
100
AcDbLine
 10
-14.21529560220221
 20
0.8630114578031738
 30
0.0000000000000002
 11
-12.57349851323344
 21
-0.7226104348078424
 31
0.0000000000000002
  0
LINE
  5
151
330
1F
100
AcDbEntity
  8
Hidden
370
    -3
100
AcDbLine
 10
-14.60202801292857
 20
2.814605020972376
 30
0.0000000000000007
 11
-14.21529560220221
 21
0.8630114578031742
 31
0.0000000000000002
  0
LINE
  5
152
330
1F
100
AcDbEntity
  8
Hidden
370
    -3
100
AcDbLine
 10
-12.94265228335409
 20
1.210666375897731
 30
0.0000000000000002
 11
-14.21529560220221
 21
0.8630114578031732
 31
0.0000000000000002
  0
LINE
  5
153
330
1F
100
AcDbEntity
  8
Hidden
370
    -3
100
AcDbLine
 10
71.41414120083623
 20
26.31211121138326
 30
-0.000000000000003
 11
71.8008736115626
 21
24.36051764821406
 31
0.0000000000000002
  0
LINE
  5
154
330
1F
100
AcDbEntity
  8
Hidden
370
    -3
100
AcDbLine
 10
73.07351693041072
 20
24.70817256630861
 30
-0.0000000000000017
 11
71.80087361156261
 21
24.36051764821406
 31
0.0000000000000003
  0
LINE
  5
155
330
1F
100
AcDbEntity
  8
Hidden
370
    -3
100
AcDbLine
 10
79.87268310456582
 20
38.77026124143654
 30
0.0
 11
89.72346563837844
 21
29.25652988577045
 31
-0.000000000000003
  0
LINE
  5
156
330
1F
100
AcDbEntity
  8
Hidden
370
    -3
100
AcDbLine
 10
79.48595069383947
 20
40.72185480460575
 30
-0.0000000000000043
 11
79.87268310456582
 21
38.77026124143654
 31
-0.0000000000000001
  0
LINE
  5
157
330
1F
100
AcDbEntity
  8
Hidden
370
    -3
100
AcDbLine
 10
61.95009107774998
 20
33.87424900388014
 30
-0.0000000000000017
 11
79.87268310456584
 21
38.77026124143654
 31
0.0
  0
LINE
  5
158
330
1F
100
AcDbEntity
  8
Hidden
370
    -3
100
AcDbLine
 10
71.80087361156261
 20
24.36051764821406
 30
0.0000000000000004
 11
73.44267070053137
 21
22.77489575560305
 31
-0.0000000000000032
  0
LINE
  5
159
330
1F
100
AcDbEntity
  8
Hidden
370
    -3
100
AcDbLine
 10
67.26112547104599
 20
23.93190220335062
 30
-0.0000000000000009
 11
67.64785786798288
 21
21.98030870976813
 31
0.0000000000000034
  0
LINE
  5
15A
330
1F
100
AcDbEntity
  8
Hidden
370
    -3
100
AcDbLine
 10
70.59063524738544
 20
22.56345645715013
 30
-0.0000000000000022
 11
70.20390285044853
 21
24.51504995073263
 31
-0.0000000000000029
  0
LINE
  5
15B
330
1F
100
AcDbEntity
  8
Hidden
370
    -3
100
AcDbLine
 10
58.55078992828111
 20
34.19135033629757
 30
0.0000000000000017
 11
58.16405753134422
 21
36.14294382988007
 31
0.0000000000000017
  0
LINE
  5
15C
330
1F
100
AcDbEntity
  8
Hidden
370
    -3
100
AcDbLine
 10
55.22128015194168
 20
35.55979608249806
 30
0.0000000000000009
 11
55.60801254887857
 21
33.60820258891556
 31
0.0000000000000002
  0
LINE
  5
15D
330
1F
100
AcDbEntity
  8
Hidden
370
    -3
100
AcDbLine
 10
-27.46537928548369
 20
10.69384414588668
 30
0.0000000000000009
 11
-27.85211169621005
 21
12.64543770905588
 31
0.0000000000000029
  0
LINE
  5
15E
330
1F
100
AcDbEntity
  8
Hidden
370
    -3
100
AcDbLine
 10
-30.79488907561258
 20
12.06228996167388
 30
0.0000000000000017
 11
-30.40815666488622
 21
10.11069639850468
 31
0.0000000000000001
  0
LINE
  5
15F
330
1F
100
AcDbEntity
  8
Hidden
370
    -3
100
AcDbLine
 10
-15.42553396637937
 20
-0.93404973326076
 30
0.0000000000000001
 11
-15.81226637710572
 21
1.017543829908438
 31
0.0
  0
LINE
  5
160
330
1F
100
AcDbEntity
  8
Hidden
370
    -3
100
AcDbLine
 10
-18.75504375650826
 20
0.4343960825264437
 30
0.0000000000000002
 11
-18.3683113457819
 21
-1.517197480642763
 31
0.0000000000000005
  0
LINE
  5
161
330
1F
100
AcDbEntity
  8
Hidden
370
    -3
100
AcDbLine
 10
-23.8564294268872
 20
40.4747526377374
 30
0.0000000000000035
 11
-27.14002363336687
 21
43.64599645052497
 31
0.0000000000000055
  0
LINE
  5
162
330
1F
100
AcDbEntity
  8
Hidden
370
    -3
100
AcDbLine
 10
-28.39047271392928
 20
42.35124663032007
 30
0.0000000000000035
 11
-25.10687850744961
 21
39.18000281753249
 31
0.0000000000000032
  0
LINE
  5
163
330
1F
100
AcDbEntity
  8
Hidden
370
    -3
100
AcDbLine
 10
-22.01484651866645
 20
31.1814499559793
 30
0.0000000000000017
 11
-25.29844072514611
 21
34.35269376876687
 31
0.0000000000000022
  0
LINE
  5
164
330
1F
100
AcDbEntity
  8
Hidden
370
    -3
100
AcDbLine
 10
-26.54888980570853
 20
33.05794394856197
 30
0.0000000000000017
 11
-23.26529559922887
 21
29.88670013577441
 31
0.0000000000000041
  0
LINE
  5
165
330
1F
100
AcDbEntity
  8
Hidden
370
    -3
100
AcDbLine
 10
-16.14261806779879
 20
10.48068221468531
 30
0.0
 11
-19.42621278395936
 21
13.6519265197147
 31
0.0000000000000003
  0
LINE
  5
166
330
1F
100
AcDbEntity
  8
Hidden
370
    -3
100
AcDbLine
 10
-20.67666186452178
 20
12.3571766995098
 30
0.0
 11
-17.3930671483612
 21
9.185932394480414
 31
0.0000000000000004
  0
LINE
  5
167
330
1F
100
AcDbEntity
  8
Hidden
370
    -3
100
AcDbLine
 10
-17.98420097601954
 20
19.77398489644342
 30
0.0000000000000017
 11
-21.26779569218012
 21
22.94522920147281
 31
0.0000000000000012
  0
LINE
  5
168
330
1F
100
AcDbEntity
  8
Hidden
370
    -3
100
AcDbLine
 10
-22.51824477274253
 20
21.65047938126791
 30
-0.0000000000000009
 11
-19.23465005658196
 21
18.47923507623852
 31
-0.0000000000000011
  0
LINE
  5
169
330
1F
100
AcDbEntity
  8
Hidden
370
    -3
100
AcDbLine
 10
77.55119638996425
 20
65.4646664341591
 30
0.0
 11
74.26760167380365
 21
68.63591073918847
 31
0.0000000000000039
  0
LINE
  5
16A
330
1F
100
AcDbEntity
  8
Hidden
370
    -3
100
AcDbLine
 10
73.01715259324126
 20
67.34116091898359
 30
0.0000000000000035
 11
76.30074730940186
 21
64.16991661395421
 31
-0.0000000000000017
  0
LINE
  5
16B
330
1F
100
AcDbEntity
  8
Hidden
370
    -3
100
AcDbLine
 10
79.39277929818499
 20
56.17136375240099
 30
0.0
 11
76.10918458202444
 21
59.34260805743038
 31
-0.0000000000000001
  0
LINE
  5
16C
330
1F
100
AcDbEntity
  8
Hidden
370
    -3
100
AcDbLine
 10
74.85873550146202
 20
58.04785823722548
 30
0.0000000000000017
 11
78.14233021762261
 21
54.8766139321961
 31
0.0000000000000012
  0
LINE
  5
16D
330
1F
100
AcDbEntity
  8
Hidden
370
    -3
100
AcDbLine
 10
80.88688248020037
 20
39.69892076666255
 30
0.0000000000000009
 11
77.6032882737207
 21
42.87016457945011
 31
-0.0000000000000001
  0
LINE
  5
16E
330
1F
100
AcDbEntity
  8
Hidden
370
    -3
100
AcDbLine
 10
76.3528391931583
 20
41.57541475924523
 30
-0.0000000000000017
 11
79.63643339963795
 21
38.40417094645765
 31
0.0000000000000002
  0
LINE
  5
16F
330
1F
100
AcDbEntity
  8
Hidden
370
    -3
100
AcDbLine
 10
79.04529957197958
 20
48.99222344842065
 30
0.0
 11
75.76170536549994
 21
52.16346726120823
 31
0.0000000000000024
  0
LINE
  5
170
330
1F
100
AcDbEntity
  8
Hidden
370
    -3
100
AcDbLine
 10
74.51125628493753
 20
50.86871744100333
 30
-0.0000000000000017
 11
77.79485049141721
 21
47.69747362821577
 31
-0.0000000000000016
  0
LINE
  5
171
330
1F
100
AcDbEntity
  8
Hidden
370
    -3
100
AcDbLine
 10
33.25937840787278
 20
36.48463358687285
 30
0.0000000000000017
 11
29.97578420139311
 21
39.65587739966043
 31
0.0000000000000024
  0
LINE
  5
172
330
1F
100
AcDbEntity
  8
Hidden
370
    -3
100
AcDbLine
 10
28.72533512083068
 20
38.36112757945553
 30
0.0000000000000035
 11
32.00892932731036
 21
35.18988376666795
 31
0.0000000000000016
  0
LINE
  5
173
330
1F
100
AcDbEntity
  8
Hidden
370
    -3
100
AcDbLine
 10
35.10096131609354
 20
27.19133090511475
 30
0.0000000000000009
 11
31.81736710961386
 21
30.36257471790231
 31
0.0000000000000009
  0
LINE
  5
174
330
1F
100
AcDbEntity
  8
Hidden
370
    -3
100
AcDbLine
 10
30.56691802905145
 20
29.06782489769742
 30
0.0
 11
33.85051223553112
 21
25.89658108490985
 31
-0.0000000000000001
  0
LINE
  5
175
330
1F
100
AcDbEntity
  8
Hidden
370
    -3
100
AcDbLine
 10
22.02389569838273
 20
53.00813134436056
 30
0.0
 11
18.74030149190306
 21
56.17937515714812
 31
0.0000000000000022
  0
LINE
  5
176
330
1F
100
AcDbEntity
  8
Hidden
370
    -3
100
AcDbLine
 10
17.48985241134065
 20
54.88462533694323
 30
0.0000000000000017
 11
20.77344661782032
 21
51.71338152415567
 31
0.0000000000000026
  0
LINE
  5
177
330
1F
100
AcDbEntity
  8
Hidden
370
    -3
100
AcDbLine
 10
23.86547860660349
 20
43.71482866260244
 30
0.0
 11
20.58188440012383
 21
46.88607247539002
 31
0.0000000000000008
  0
LINE
  5
178
330
1F
100
AcDbEntity
  8
Hidden
370
    -3
100
AcDbLine
 10
19.3314353195614
 20
45.59132265518513
 30
0.0000000000000035
 11
22.61502952604107
 21
42.42007884239756
 31
0.0000000000000026
  0
LINE
  5
179
330
1F
100
AcDbEntity
  8
Hidden
370
    -3
100
AcDbLine
 10
31.76527522585743
 20
52.9570765726113
 30
0.0000000000000017
 11
28.48168050969687
 21
56.12832087764068
 31
0.0000000000000012
  0
LINE
  5
17A
330
1F
100
AcDbEntity
  8
Hidden
370
    -3
100
AcDbLine
 10
27.23123142913444
 20
54.83357105743578
 30
0.0000000000000017
 11
30.514826145295
 21
51.66232675240639
 31
0.0000000000000005
  0
LINE
  5
17B
330
1F
100
AcDbEntity
  8
Hidden
370
    -3
100
AcDbLine
 10
33.60685813407818
 20
43.66377389085319
 30
0.0000000000000017
 11
30.32326341791761
 21
46.83501819588258
 31
0.0000000000000027
  0
LINE
  5
17C
330
1F
100
AcDbEntity
  8
Hidden
370
    -3
100
AcDbLine
 10
29.07281433735519
 20
45.54026837567769
 30
0.0000000000000035
 11
32.35640905351575
 21
42.36902407064829
 31
0.0000000000000012
  0
LINE
  5
17D
330
1F
100
AcDbEntity
  8
Hidden
370
    -3
100
AcDbLine
 10
29.73770705747114
 20
23.01406092130848
 30
0.0000000000000017
 11
26.45411234131059
 21
26.18530522633786
 31
0.000000000000001
  0
LINE
  5
17E
330
1F
100
AcDbEntity
  8
Hidden
370
    -3
100
AcDbLine
 10
25.20366326074815
 20
24.89055540613296
 30
0.0000000000000009
 11
28.48725797690872
 21
21.71931110110357
 31
0.0000000000000007
  0
LINE
  5
17F
330
1F
100
AcDbEntity
  8
Hidden
370
    -3
100
AcDbLine
 10
27.89612414925039
 20
32.30736360306658
 30
0.0
 11
24.61252943308982
 21
35.47860790809597
 31
-0.0000000000000004
  0
LINE
  5
180
330
1F
100
AcDbEntity
  8
Hidden
370
    -3
100
AcDbLine
 10
23.3620803525274
 20
34.18385808789107
 30
0.0000000000000017
 11
26.64567506868796
 21
31.01261378286168
 31
0.0000000000000011
  0
LINE
  5
181
330
1F
100
AcDbEntity
  8
Hidden
370
    -3
100
AcDbLine
 10
88.74846416384142
 20
40.22265289595141
 30
0.0000000000000026
 11
91.16980774866134
 21
41.39256621963307
 31
0.0000000000000007
  0
LINE
  5
182
330
1F
100
AcDbEntity
  8
Hidden
370
    -3
100
AcDbLine
 10
90.55270711957797
 20
43.58248662672693
 30
-0.0000000000000009
 11
88.13136279668544
 21
42.41257294643292
 31
-0.0000000000000015
  0
LINE
  5
183
330
1F
100
AcDbEntity
  8
Hidden
370
    -3
100
AcDbLine
 10
88.33377007000138
 20
55.70425234954057
 30
0.0000000000000035
 11
85.91242648518147
 21
54.5343390258589
 31
-0.0000000000000043
  0
LINE
  5
184
330
1F
100
AcDbEntity
  8
Hidden
370
    -3
100
AcDbLine
 10
85.29532511802546
 20
56.72425907634039
 30
0.0000000000000035
 11
87.71666944091807
 21
57.89417275663443
 31
-0.0000000000000004
  0
LINE
  5
185
330
1F
100
AcDbEntity
  8
Hidden
370
    -3
100
AcDbLine
 10
76.55076984860034
 20
67.06319601934135
 30
0.0000000000000017
 11
73.30939893487776
 21
66.68607542891674
 31
-0.0000000000000014
  0
LINE
  5
186
330
1F
100
AcDbEntity
  8
Hidden
370
    -3
100
AcDbLine
 10
72.72500262872178
 20
68.88537357051521
 30
-0.0000000000000035
 11
75.966372766779
 21
69.26249407069427
 31
-0.000000000000002
  0
LINE
  5
187
330
1F
100
AcDbEntity
  8
Hidden
370
    -3
100
AcDbLine
 10
79.38680752726027
 20
52.75150988943385
 30
0.0000000000000052
 11
76.1454366135377
 21
52.37438929900924
 31
0.0000000000000039
  0
LINE
  5
188
330
1F
100
AcDbEntity
  8
Hidden
370
    -3
100
AcDbLine
 10
75.56104030738175
 20
54.57368744060773
 30
0.0
 11
78.80241044543895
 21
54.95080794078679
 31
0.0000000000000021
  0
LINE
  5
189
330
1F
100
AcDbEntity
  8
Hidden
370
    -3
100
AcDbLine
 10
24.08721077752049
 20
19.48591712362003
 30
0.0
 11
38.05899702966028
 21
23.30266619477275
 31
-0.0000000000000005
  0
LINE
  5
18A
330
1F
100
AcDbEntity
  8
Hidden
370
    -3
100
AcDbLine
 10
35.32266854804567
 20
25.94536934912444
 30
0.0
 11
38.05899702966028
 21
23.30266619477275
 31
0.0000000000000003
  0
LINE
  5
18B
330
1F
100
AcDbEntity
  8
Hidden
370
    -3
100
AcDbLine
 10
21.35088229590587
 20
22.12862027797172
 30
0.0000000000000009
 11
35.32266854804567
 21
25.94536934912444
 31
-0.0000000000000006
  0
LINE
  5
18C
330
1F
100
AcDbEntity
  8
Hidden
370
    -3
100
AcDbLine
 10
38.05899702966028
 20
23.30266619477275
 30
0.0
 11
40.7953255112749
 21
20.65996304042107
 31
-0.0000000000000004
  0
ENDSEC
  0
SECTION
  2
OBJECTS
  0
DICTIONARY
  5
C
330
0
100
AcDbDictionary
281
     1
  3
ACAD_DETAILVIEWSTYLE
350
191
  3
ACAD_GROUP
350
D
  3
ACAD_LAYOUT
350
1A
  3
ACAD_MATERIAL
350
43
  3
ACAD_MLEADERSTYLE
350
190
  3
ACAD_MLINESTYLE
350
17
  3
ACAD_PLOTSETTINGS
350
19
  3
ACAD_PLOTSTYLENAME
350
E
  3
ACAD_SCALELIST
350
47
  3
ACAD_SECTIONVIEWSTYLE
350
192
  3
ACAD_TABLESTYLE
350
18F
  3
ACAD_VISUALSTYLE
350
2A
  3
AcDbVariableDictionary
350
18D
  0
SUN
  5
69
330
29
100
AcDbSun
 90
        1
290
     0
 63
     7
421
 16777215
 40
1.0
291
     1
 91
  2455826
 92
 54000000
292
     0
 70
     2
 71
   256
280
     1
  0
DICTIONARY
  5
191
102
{ACAD_REACTORS
330
C
102
}
330
C
100
AcDbDictionary
281
     1
  0
DICTIONARY
  5
D
102
{ACAD_REACTORS
330
C
102
}
330
C
100
AcDbDictionary
281
     1
  0
DICTIONARY
  5
1A
102
{ACAD_REACTORS
330
C
102
}
330
C
100
AcDbDictionary
281
     1
  3
Layout1
350
1E
  3
Layout2
350
26
  3
Model
350
22
  0
DICTIONARY
  5
43
102
{ACAD_REACTORS
330
C
102
}
330
C
100
AcDbDictionary
281
     1
  3
ByBlock
350
45
  3
ByLayer
350
44
  3
Global
350
46
  0
DICTIONARY
  5
190
102
{ACAD_REACTORS
330
C
102
}
330
C
100
AcDbDictionary
281
     1
  0
DICTIONARY
  5
17
102
{ACAD_REACTORS
330
C
102
}
330
C
100
AcDbDictionary
281
     1
  3
Standard
350
18
  0
DICTIONARY
  5
19
102
{ACAD_REACTORS
330
C
102
}
330
C
100
AcDbDictionary
281
     1
  0
ACDBDICTIONARYWDFLT
  5
E
102
{ACAD_REACTORS
330
C
102
}
330
C
100
AcDbDictionary
281
     1
  3
Normal
350
F
100
AcDbDictionaryWithDefault
340
F
  0
DICTIONARY
  5
47
102
{ACAD_REACTORS
330
C
102
}
330
C
100
AcDbDictionary
281
     1
  3
A0
350
48
  3
A1
350
49
  3
A2
350
4A
  3
A3
350
4B
  3
A4
350
4C
  3
A5
350
4D
  3
A6
350
4E
  3
A7
350
4F
  3
A8
350
50
  3
A9
350
51
  3
B0
350
52
  3
B1
350
53
  3
B2
350
54
  3
B3
350
55
  3
B4
350
56
  3
B5
350
57
  3
B6
350
58
  3
B7
350
59
  3
B8
350
5A
  3
B9
350
5B
  3
C0
350
5C
  3
C1
350
5D
  3
C2
350
5E
  3
C3
350
5F
  3
C4
350
60
  3
C5
350
61
  3
C6
350
62
  3
C7
350
63
  3
C8
350
64
  3
C9
350
65
  3
D0
350
66
  3
D1
350
67
  3
D2
350
68
  0
DICTIONARY
  5
192
102
{ACAD_REACTORS
330
C
102
}
330
C
100
AcDbDictionary
281
     1
  0
DICTIONARY
  5
18F
102
{ACAD_REACTORS
330
C
102
}
330
C
100
AcDbDictionary
281
     1
  0
DICTIONARY
  5
2A
102
{ACAD_REACTORS
330
C
102
}
330
C
100
AcDbDictionary
281
     1
  3
2dWireframe
350
2F
  3
Basic
350
32
  3
Brighten
350
36
  3
ColorChange
350
3A
  3
Conceptual
350
34
  3
Dim
350
35
  3
EdgeColorOff
350
3D
  3
Facepattern
350
39
  3
Flat
350
2B
  3
FlatWithEdges
350
2C
  3
Gouraud
350
2D
  3
GouraudWithEdges
350
2E
  3
Hidden
350
31
  3
JitterOff
350
3B
  3
Linepattern
350
38
  3
OverhangOff
350
3C
  3
Realistic
350
33
  3
Shaded
350
42
  3
Shaded with edges
350
41
  3
Shades of Gray
350
3E
  3
Sketchy
350
3F
  3
Thicken
350
37
  3
Wireframe
350
30
  3
X-Ray
350
40
  0
DICTIONARY
  5
18D
102
{ACAD_REACTORS
330
C
102
}
330
C
100
AcDbDictionary
281
     1
  3
CANNOSCALE
350
18E
  0
LAYOUT
  5
1E
102
{ACAD_REACTORS
330
1A
102
}
330
1A
100
AcDbPlotSettings
  1

  2
none_device
  4

  6

 40
0.0
 41
0.0
 42
0.0
 43
0.0
 44
0.0
 45
0.0
 46
0.0
 47
0.0
 48
0.0
 49
0.0
140
0.0
141
0.0
142
1.0
143
1.0
 70
   688
 72
     1
 73
     0
 74
     5
  7

 75
    16
 76
     0
 77
     2
 78
   300
147
1.0
148
0.0
149
0.0
100
AcDbLayout
  1
Layout1
 70
     1
 71
     1
 10
0.0
 20
0.0
 11
420.0
 21
297.0
 12
0.0
 22
0.0
 32
0.0
 14
1.000000000000000E+20
 24
1.000000000000000E+20
 34
1.000000000000000E+20
 15
-1.000000000000000E+20
 25
-1.000000000000000E+20
 35
-1.000000000000000E+20
146
0.0
 13
0.0
 23
0.0
 33
0.0
 16
1.0
 26
0.0
 36
0.0
 17
0.0
 27
1.0
 37
0.0
 76
     0
330
1B
  0
LAYOUT
  5
26
102
{ACAD_REACTORS
330
1A
102
}
330
1A
100
AcDbPlotSettings
  1

  2
none_device
  4

  6

 40
0.0
 41
0.0
 42
0.0
 43
0.0
 44
0.0
 45
0.0
 46
0.0
 47
0.0
 48
0.0
 49
0.0
140
0.0
141
0.0
142
1.0
143
1.0
 70
   688
 72
     1
 73
     0
 74
     5
  7

 75
    16
 76
     0
 77
     2
 78
   300
147
1.0
148
0.0
149
0.0
100
AcDbLayout
  1
Layout2
 70
     1
 71
     2
 10
0.0
 20
0.0
 11
0.0
 21
0.0
 12
0.0
 22
0.0
 32
0.0
 14
0.0
 24
0.0
 34
0.0
 15
0.0
 25
0.0
 35
0.0
146
0.0
 13
0.0
 23
0.0
 33
0.0
 16
1.0
 26
0.0
 36
0.0
 17
0.0
 27
1.0
 37
0.0
 76
     0
330
23
  0
LAYOUT
  5
22
102
{ACAD_REACTORS
330
1A
102
}
330
1A
100
AcDbPlotSettings
  1

  2
none_device
  4
Letter_(8.50_x_11.00_Inches)
  6

 40
6.35
 41
6.35
 42
6.35000508
 43
6.35000508
 44
215.9
 45
279.4
 46
0.0
 47
0.0
 48
0.0
 49
0.0
140
0.0
141
0.0
142
1.0
143
1.0
 70
  1712
 72
     1
 73
     0
 74
     0
  7

 75
     0
 76
     0
 77
     2
 78
   300
147
1.0
148
0.0
149
0.0
100
AcDbLayout
  1
Model
 70
     1
 71
     0
 10
0.0
 20
0.0
 11
420.0
 21
297.0
 12
0.0
 22
0.0
 32
0.0
 14
-33.72463850308506
 24
-3.008440300201529
 34
-31.90300028899715
 15
92.59411789070964
 25
75.7809030081568
 35
-30.89890598044789
146
0.0
 13
0.0
 23
0.0
 33
0.0
 16
1.0
 26
0.0
 36
0.0
 17
0.0
 27
1.0
 37
0.0
 76
     0
330
1F
331
29
  0
MATERIAL
  5
45
102
{ACAD_REACTORS
330
43
102
}
330
43
100
AcDbMaterial
  1
ByBlock
 72
     1
 94
      127
  0
MATERIAL
  5
44
102
{ACAD_REACTORS
330
43
102
}
330
43
100
AcDbMaterial
  1
ByLayer
 72
     1
 94
      127
  0
MATERIAL
  5
46
102
{ACAD_REACTORS
330
43
102
}
330
43
100
AcDbMaterial
  1
Global
 72
     1
 94
      127
  0
MLINESTYLE
  5
18
102
{ACAD_REACTORS
330
17
102
}
330
17
100
AcDbMlineStyle
  2
Standard
 70
     0
  3

 62
   256
 51
90.0
 52
90.0
 71
     2
 49
0.5
 62
   256
  6
BYLAYER
 49
-0.5
 62
   256
  6
BYLAYER
  0
ACDBPLACEHOLDER
  5
F
102
{ACAD_REACTORS
330
E
102
}
330
E
  0
SCALE
  5
48
102
{ACAD_REACTORS
330
47
102
}
330
47
100
AcDbScale
 70
     0
300
1:1
140
1.0
141
1.0
290
     1
  0
SCALE
  5
49
102
{ACAD_REACTORS
330
47
102
}
330
47
100
AcDbScale
 70
     0
300
1:2
140
1.0
141
2.0
290
     0
  0
SCALE
  5
4A
102
{ACAD_REACTORS
330
47
102
}
330
47
100
AcDbScale
 70
     0
300
1:4
140
1.0
141
4.0
290
     0
  0
SCALE
  5
4B
102
{ACAD_REACTORS
330
47
102
}
330
47
100
AcDbScale
 70
     0
300
1:5
140
1.0
141
5.0
290
     0
  0
SCALE
  5
4C
102
{ACAD_REACTORS
330
47
102
}
330
47
100
AcDbScale
 70
     0
300
1:8
140
1.0
141
8.0
290
     0
  0
SCALE
  5
4D
102
{ACAD_REACTORS
330
47
102
}
330
47
100
AcDbScale
 70
     0
300
1:10
140
1.0
141
10.0
290
     0
  0
SCALE
  5
4E
102
{ACAD_REACTORS
330
47
102
}
330
47
100
AcDbScale
 70
     0
300
1:16
140
1.0
141
16.0
290
     0
  0
SCALE
  5
4F
102
{ACAD_REACTORS
330
47
102
}
330
47
100
AcDbScale
 70
     0
300
1:20
140
1.0
141
20.0
290
     0
  0
SCALE
  5
50
102
{ACAD_REACTORS
330
47
102
}
330
47
100
AcDbScale
 70
     0
300
1:30
140
1.0
141
30.0
290
     0
  0
SCALE
  5
51
102
{ACAD_REACTORS
330
47
102
}
330
47
100
AcDbScale
 70
     0
300
1:40
140
1.0
141
40.0
290
     0
  0
SCALE
  5
52
102
{ACAD_REACTORS
330
47
102
}
330
47
100
AcDbScale
 70
     0
300
1:50
140
1.0
141
50.0
290
     0
  0
SCALE
  5
53
102
{ACAD_REACTORS
330
47
102
}
330
47
100
AcDbScale
 70
     0
300
1:100
140
1.0
141
100.0
290
     0
  0
SCALE
  5
54
102
{ACAD_REACTORS
330
47
102
}
330
47
100
AcDbScale
 70
     0
300
2:1
140
2.0
141
1.0
290
     0
  0
SCALE
  5
55
102
{ACAD_REACTORS
330
47
102
}
330
47
100
AcDbScale
 70
     0
300
4:1
140
4.0
141
1.0
290
     0
  0
SCALE
  5
56
102
{ACAD_REACTORS
330
47
102
}
330
47
100
AcDbScale
 70
     0
300
8:1
140
8.0
141
1.0
290
     0
  0
SCALE
  5
57
102
{ACAD_REACTORS
330
47
102
}
330
47
100
AcDbScale
 70
     0
300
10:1
140
10.0
141
1.0
290
     0
  0
SCALE
  5
58
102
{ACAD_REACTORS
330
47
102
}
330
47
100
AcDbScale
 70
     0
300
100:1
140
100.0
141
1.0
290
     0
  0
SCALE
  5
59
102
{ACAD_REACTORS
330
47
102
}
330
47
100
AcDbScale
 70
     0
300
1/128" = 1'-0"
140
0.0078125
141
12.0
290
     0
  0
SCALE
  5
5A
102
{ACAD_REACTORS
330
47
102
}
330
47
100
AcDbScale
 70
     0
300
1/64" = 1'-0"
140
0.015625
141
12.0
290
     0
  0
SCALE
  5
5B
102
{ACAD_REACTORS
330
47
102
}
330
47
100
AcDbScale
 70
     0
300
1/32" = 1'-0"
140
0.03125
141
12.0
290
     0
  0
SCALE
  5
5C
102
{ACAD_REACTORS
330
47
102
}
330
47
100
AcDbScale
 70
     0
300
1/16" = 1'-0"
140
0.0625
141
12.0
290
     0
  0
SCALE
  5
5D
102
{ACAD_REACTORS
330
47
102
}
330
47
100
AcDbScale
 70
     0
300
3/32" = 1'-0"
140
0.09375
141
12.0
290
     0
  0
SCALE
  5
5E
102
{ACAD_REACTORS
330
47
102
}
330
47
100
AcDbScale
 70
     0
300
1/8" = 1'-0"
140
0.125
141
12.0
290
     0
  0
SCALE
  5
5F
102
{ACAD_REACTORS
330
47
102
}
330
47
100
AcDbScale
 70
     0
300
3/16" = 1'-0"
140
0.1875
141
12.0
290
     0
  0
SCALE
  5
60
102
{ACAD_REACTORS
330
47
102
}
330
47
100
AcDbScale
 70
     0
300
1/4" = 1'-0"
140
0.25
141
12.0
290
     0
  0
SCALE
  5
61
102
{ACAD_REACTORS
330
47
102
}
330
47
100
AcDbScale
 70
     0
300
3/8" = 1'-0"
140
0.375
141
12.0
290
     0
  0
SCALE
  5
62
102
{ACAD_REACTORS
330
47
102
}
330
47
100
AcDbScale
 70
     0
300
1/2" = 1'-0"
140
0.5
141
12.0
290
     0
  0
SCALE
  5
63
102
{ACAD_REACTORS
330
47
102
}
330
47
100
AcDbScale
 70
     0
300
3/4" = 1'-0"
140
0.75
141
12.0
290
     0
  0
SCALE
  5
64
102
{ACAD_REACTORS
330
47
102
}
330
47
100
AcDbScale
 70
     0
300
1" = 1'-0"
140
1.0
141
12.0
290
     0
  0
SCALE
  5
65
102
{ACAD_REACTORS
330
47
102
}
330
47
100
AcDbScale
 70
     0
300
1-1/2" = 1'-0"
140
1.5
141
12.0
290
     0
  0
SCALE
  5
66
102
{ACAD_REACTORS
330
47
102
}
330
47
100
AcDbScale
 70
     0
300
3" = 1'-0"
140
3.0
141
12.0
290
     0
  0
SCALE
  5
67
102
{ACAD_REACTORS
330
47
102
}
330
47
100
AcDbScale
 70
     0
300
6" = 1'-0"
140
6.0
141
12.0
290
     0
  0
SCALE
  5
68
102
{ACAD_REACTORS
330
47
102
}
330
47
100
AcDbScale
 70
     0
300
1'-0" = 1'-0"
140
12.0
141
12.0
290
     0
  0
VISUALSTYLE
  5
2F
102
{ACAD_REACTORS
330
2A
102
}
330
2A
100
AcDbVisualStyle
  2
2dWireframe
 70
     4
177
     3
291
     0
 70
    58
 90
        0
176
     1
 90
        2
176
     1
 90
        0
176
     1
 90
        0
176
     1
 40
0.6
176
     1
 40
30.0
176
     1
 62
     7
420
 16777215
176
     1
 90
        1
176
     1
 90
        4
176
     1
 62
     7
176
     1
 62
   257
176
     1
 90
        1
176
     1
 90
        1
176
     1
 40
1.0
176
     1
 90
        0
176
     1
 62
   257
176
     1
 40
1.0
176
     1
 90
        1
176
     1
 90
        6
176
     1
 90
        2
176
     1
 62
     7
176
     1
 90
        5
176
     1
 90
        0
176
     1
 90
        0
176
     1
290
     0
176
     1
 90
        1
176
     1
 40
0.0
176
     1
 90
        0
176
     1
290
     1
176
     1
290
     1
176
     1
290
     0
176
     1
290
     0
176
     1
290
     0
176
     1
290
     0
176
     1
290
     0
176
     1
290
     0
176
     1
290
     0
176
     1
 90
       50
176
     1
 40
0.0
176
     1
 40
1.0
176
     1
 90
        0
176
     1
 62
    18
420
        0
176
     1
 90
       50
176
     1
 90
        3
176
     1
 62
     5
420
      255
176
     1
290
     0
176
     1
 90
       50
176
     1
 90
       50
176
     1
 90
       50
176
     1
290
     0
176
     1
 90
       50
176
     1
 62
   256
176
     0
 40
1.0
176
     0
 90
        2
176
     1
  1
strokes_ogs.tif
176
     1
290
     0
176
     1
 40
1.0
176
     1
 40
1.0
176
     1
  0
VISUALSTYLE
  5
32
102
{ACAD_REACTORS
330
2A
102
}
330
2A
100
AcDbVisualStyle
  2
Basic
 70
     7
177
     3
291
     1
 70
    58
 90
        1
176
     1
 90
        0
176
     1
 90
        1
176
     1
 90
        0
176
     1
 40
0.6
176
     1
 40
30.0
176
     1
 62
     7
420
 16777215
176
     1
 90
        0
176
     1
 90
        4
176
     1
 62
     7
176
     1
 62
   257
176
     1
 90
        1
176
     1
 90
        1
176
     1
 40
1.0
176
     1
 90
        8
176
     1
 62
     7
176
     1
 40
1.0
176
     1
 90
        1
176
     1
 90
        6
176
     1
 90
        2
176
     1
 62
     7
176
     1
 90
        5
176
     1
 90
        0
176
     1
 90
        0
176
     1
290
     0
176
     1
 90
        1
176
     1
 40
0.0
176
     1
 90
        0
176
     1
290
     0
176
     1
290
     1
176
     1
290
     1
176
     1
290
     0
176
     1
290
     0
176
     1
290
     0
176
     1
290
     0
176
     1
290
     0
176
     1
290
     0
176
     1
 90
       50
176
     1
 40
0.0
176
     1
 40
1.0
176
     1
 90
        0
176
     1
 62
    18
420
        0
176
     1
 90
       50
176
     1
 90
        3
176
     1
 62
     5
420
      255
176
     1
290
     0
176
     1
 90
       50
176
     1
 90
       50
176
     1
 90
       50
176
     1
290
     0
176
     1
 90
       50
176
     1
 62
   256
176
     0
 40
1.0
176
     0
 90
        2
176
     1
  1
strokes_ogs.tif
176
     1
290
     0
176
     1
 40
1.0
176
     1
 40
1.0
176
     1
  0
VISUALSTYLE
  5
36
102
{ACAD_REACTORS
330
2A
102
}
330
2A
100
AcDbVisualStyle
  2
Brighten
 70
    12
177
     3
291
     1
 70
    58
 90
        2
176
     1
 90
        2
176
     1
 90
        0
176
     1
 90
        0
176
     1
 40
0.6
176
     1
 40
30.0
176
     1
 62
     7
420
 16777215
176
     1
 90
        1
176
     1
 90
        4
176
     1
 62
     7
176
     1
 62
   257
176
     1
 90
        1
176
     1
 90
        1
176
     1
 40
1.0
176
     1
 90
        8
176
     1
 62
     7
176
     1
 40
1.0
176
     1
 90
        1
176
     1
 90
        6
176
     1
 90
        2
176
     1
 62
     7
176
     1
 90
        5
176
     1
 90
        0
176
     1
 90
        0
176
     1
290
     0
176
     1
 90
        1
176
     1
 40
50.0
176
     1
 90
        0
176
     1
290
     0
176
     1
290
     1
176
     1
290
     1
176
     1
290
     0
176
     1
290
     0
176
     1
290
     0
176
     1
290
     0
176
     1
290
     0
176
     1
290
     0
176
     1
 90
       50
176
     1
 40
0.0
176
     1
 40
1.0
176
     1
 90
        0
176
     1
 62
    18
420
        0
176
     1
 90
       50
176
     1
 90
        3
176
     1
 62
     5
420
      255
176
     1
290
     0
176
     1
 90
       50
176
     1
 90
       50
176
     1
 90
       50
176
     1
290
     0
176
     1
 90
       50
176
     1
 62
   256
176
     0
 40
1.0
176
     0
 90
        2
176
     1
  1
strokes_ogs.tif
176
     1
290
     0
176
     1
 40
1.0
176
     1
 40
1.0
176
     1
  0
VISUALSTYLE
  5
3A
102
{ACAD_REACTORS
330
2A
102
}
330
2A
100
AcDbVisualStyle
  2
ColorChange
 70
    16
177
     3
291
     1
 70
    58
 90
        2
176
     1
 90
        2
176
     1
 90
        3
176
     1
 90
        0
176
     1
 40
0.6
176
     1
 40
30.0
176
     1
 62
     8
420
  8421504
176
     1
 90
        1
176
     1
 90
        4
176
     1
 62
     7
176
     1
 62
   257
176
     1
 90
        1
176
     1
 90
        1
176
     1
 40
1.0
176
     1
 90
        8
176
     1
 62
     8
420
  8421504
176
     1
 40
1.0
176
     1
 90
        1
176
     1
 90
        6
176
     1
 90
        2
176
     1
 62
     7
176
     1
 90
        5
176
     1
 90
        0
176
     1
 90
        0
176
     1
290
     0
176
     1
 90
        1
176
     1
 40
0.0
176
     1
 90
        0
176
     1
290
     0
176
     1
290
     1
176
     1
290
     1
176
     1
290
     0
176
     1
290
     0
176
     1
290
     0
176
     1
290
     0
176
     1
290
     0
176
     1
290
     0
176
     1
 90
       50
176
     1
 40
0.0
176
     1
 40
1.0
176
     1
 90
        0
176
     1
 62
    18
420
        0
176
     1
 90
       50
176
     1
 90
        3
176
     1
 62
     5
420
      255
176
     1
290
     0
176
     1
 90
       50
176
     1
 90
       50
176
     1
 90
       50
176
     1
290
     0
176
     1
 90
       50
176
     1
 62
   256
176
     0
 40
1.0
176
     0
 90
        2
176
     1
  1
strokes_ogs.tif
176
     1
290
     0
176
     1
 40
1.0
176
     1
 40
1.0
176
     1
  0
VISUALSTYLE
  5
34
102
{ACAD_REACTORS
330
2A
102
}
330
2A
100
AcDbVisualStyle
  2
Conceptual
 70
     9
177
     3
291
     0
 70
    58
 90
        3
176
     1
 90
        2
176
     1
 90
        0
176
     1
 90
        0
176
     1
 40
0.6
176
     1
 40
30.0
176
     1
 62
     7
420
 16777215
176
     1
 90
        2
176
     1
 90
        2
176
     1
 62
     7
176
     1
 62
   257
176
     1
 90
        1
176
     1
 90
        1
176
     1
 40
179.0
176
     1
 90
        8
176
     1
 62
     7
176
     1
 40
1.0
176
     1
 90
        1
176
     1
 90
        6
176
     1
 90
        2
176
     1
 62
     7
176
     1
 90
        3
176
     1
 90
        0
176
     1
 90
        0
176
     1
290
     0
176
     1
 90
        1
176
     1
 40
0.0
176
     1
 90
        0
176
     1
290
     0
176
     1
290
     1
176
     1
290
     1
176
     1
290
     0
176
     1
290
     0
176
     1
290
     0
176
     1
290
     0
176
     1
290
     0
176
     1
290
     0
176
     1
 90
       50
176
     1
 40
0.0
176
     1
 40
1.0
176
     1
 90
        0
176
     1
 62
    18
420
        0
176
     1
 90
       50
176
     1
 90
        3
176
     1
 62
     5
420
      255
176
     1
290
     0
176
     1
 90
       50
176
     1
 90
       50
176
     1
 90
       50
176
     1
290
     0
176
     1
 90
       50
176
     1
 62
   256
176
     0
 40
1.0
176
     0
 90
        2
176
     1
  1
strokes_ogs.tif
176
     1
290
     0
176
     1
 40
1.0
176
     1
 40
1.0
176
     1
  0
VISUALSTYLE
  5
35
102
{ACAD_REACTORS
330
2A
102
}
330
2A
100
AcDbVisualStyle
  2
Dim
 70
    11
177
     3
291
     1
 70
    58
 90
        2
176
     1
 90
        2
176
     1
 90
        0
176
     1
 90
        0
176
     1
 40
0.6
176
     1
 40
30.0
176
     1
 62
     7
420
 16777215
176
     1
 90
        1
176
     1
 90
        4
176
     1
 62
     7
176
     1
 62
   257
176
     1
 90
        1
176
     1
 90
        1
176
     1
 40
1.0
176
     1
 90
        8
176
     1
 62
     7
176
     1
 40
1.0
176
     1
 90
        1
176
     1
 90
        6
176
     1
 90
        2
176
     1
 62
     7
176
     1
 90
        5
176
     1
 90
        0
176
     1
 90
        0
176
     1
290
     0
176
     1
 90
        1
176
     1
 40
-50.0
176
     1
 90
        0
176
     1
290
     0
176
     1
290
     1
176
     1
290
     1
176
     1
290
     0
176
     1
290
     0
176
     1
290
     0
176
     1
290
     0
176
     1
290
     0
176
     1
290
     0
176
     1
 90
       50
176
     1
 40
0.0
176
     1
 40
1.0
176
     1
 90
        0
176
     1
 62
    18
420
        0
176
     1
 90
       50
176
     1
 90
        3
176
     1
 62
     5
420
      255
176
     1
290
     0
176
     1
 90
       50
176
     1
 90
       50
176
     1
 90
       50
176
     1
290
     0
176
     1
 90
       50
176
     1
 62
   256
176
     0
 40
1.0
176
     0
 90
        2
176
     1
  1
strokes_ogs.tif
176
     1
290
     0
176
     1
 40
1.0
176
     1
 40
1.0
176
     1
  0
VISUALSTYLE
  5
3D
102
{ACAD_REACTORS
330
2A
102
}
330
2A
100
AcDbVisualStyle
  2
EdgeColorOff
 70
    22
177
     3
291
     1
 70
    58
 90
        2
176
     0
 90
        2
176
     0
 90
        0
176
     0
 90
        0
176
     0
 40
0.6
176
     0
 40
30.0
176
     0
 62
     7
420
 16777215
176
     0
 90
        1
176
     0
 90
        4
176
     0
 62
     7
176
     0
 62
   257
176
     0
 90
        1
176
     0
 90
        1
176
     0
 40
1.0
176
     0
 90
        8
176
     2
 62
     7
176
     0
 40
1.0
176
     0
 90
        1
176
     0
 90
        6
176
     0
 90
        2
176
     0
 62
     7
176
     0
 90
        5
176
     0
 90
        0
176
     0
 90
        0
176
     0
290
     0
176
     0
 90
        1
176
     0
 40
0.0
176
     0
 90
        0
176
     0
290
     0
176
     0
290
     1
176
     0
290
     1
176
     0
290
     0
176
     0
290
     0
176
     0
290
     0
176
     0
290
     0
176
     0
290
     0
176
     0
290
     0
176
     0
 90
       50
176
     0
 40
0.0
176
     0
 40
1.0
176
     0
 90
        0
176
     0
 62
    18
420
        0
176
     0
 90
       50
176
     0
 90
        3
176
     0
 62
     5
420
      255
176
     0
290
     0
176
     0
 90
       50
176
     0
 90
       50
176
     0
 90
       50
176
     0
290
     0
176
     0
 90
       50
176
     0
 62
   256
176
     0
 40
1.0
176
     0
 90
        2
176
     0
  1
strokes_ogs.tif
176
     0
290
     0
176
     0
 40
1.0
176
     0
 40
1.0
176
     0
  0
VISUALSTYLE
  5
39
102
{ACAD_REACTORS
330
2A
102
}
330
2A
100
AcDbVisualStyle
  2
Facepattern
 70
    15
177
     3
291
     1
 70
    58
 90
        2
176
     1
 90
        2
176
     1
 90
        0
176
     1
 90
        0
176
     1
 40
0.6
176
     1
 40
30.0
176
     1
 62
     7
420
 16777215
176
     1
 90
        1
176
     1
 90
        4
176
     1
 62
     7
176
     1
 62
   257
176
     1
 90
        1
176
     1
 90
        1
176
     1
 40
1.0
176
     1
 90
        8
176
     1
 62
     7
176
     1
 40
1.0
176
     1
 90
        1
176
     1
 90
        6
176
     1
 90
        2
176
     1
 62
     7
176
     1
 90
        5
176
     1
 90
        0
176
     1
 90
        0
176
     1
290
     0
176
     1
 90
        1
176
     1
 40
0.0
176
     1
 90
        0
176
     1
290
     0
176
     1
290
     1
176
     1
290
     1
176
     1
290
     0
176
     1
290
     0
176
     1
290
     0
176
     1
290
     0
176
     1
290
     0
176
     1
290
     0
176
     1
 90
       50
176
     1
 40
0.0
176
     1
 40
1.0
176
     1
 90
        0
176
     1
 62
    18
420
        0
176
     1
 90
       50
176
     1
 90
        3
176
     1
 62
     5
420
      255
176
     1
290
     0
176
     1
 90
       50
176
     1
 90
       50
176
     1
 90
       50
176
     1
290
     0
176
     1
 90
       50
176
     1
 62
   256
176
     0
 40
1.0
176
     0
 90
        2
176
     1
  1
strokes_ogs.tif
176
     1
290
     0
176
     1
 40
1.0
176
     1
 40
1.0
176
     1
  0
VISUALSTYLE
  5
2B
102
{ACAD_REACTORS
330
2A
102
}
330
2A
100
AcDbVisualStyle
  2
Flat
 70
     0
177
     3
291
     1
 70
    58
 90
        2
176
     1
 90
        1
176
     1
 90
        1
176
     1
 90
        2
176
     1
 40
0.6
176
     1
 40
30.0
176
     1
 62
     7
420
 16777215
176
     1
 90
        0
176
     1
 90
        0
176
     1
 62
     7
176
     1
 62
   257
176
     1
 90
        1
176
     1
 90
        1
176
     1
 40
1.0
176
     1
 90
        8
176
     1
 62
     7
176
     1
 40
1.0
176
     1
 90
        1
176
     1
 90
        6
176
     1
 90
        2
176
     1
 62
     7
176
     1
 90
        5
176
     1
 90
        0
176
     1
 90
        0
176
     1
290
     0
176
     1
 90
       13
176
     1
 40
0.0
176
     1
 90
        0
176
     1
290
     0
176
     1
290
     1
176
     1
290
     1
176
     1
290
     0
176
     1
290
     0
176
     1
290
     0
176
     1
290
     0
176
     1
290
     0
176
     1
290
     0
176
     1
 90
       50
176
     1
 40
0.0
176
     1
 40
1.0
176
     1
 90
        0
176
     1
 62
    18
420
        0
176
     1
 90
       50
176
     1
 90
        3
176
     1
 62
     5
420
      255
176
     1
290
     0
176
     1
 90
       50
176
     1
 90
       50
176
     1
 90
       50
176
     1
290
     0
176
     1
 90
       50
176
     1
 62
   256
176
     0
 40
1.0
176
     0
 90
        2
176
     1
  1
strokes_ogs.tif
176
     1
290
     0
176
     1
 40
1.0
176
     1
 40
1.0
176
     1
  0
VISUALSTYLE
  5
2C
102
{ACAD_REACTORS
330
2A
102
}
330
2A
100
AcDbVisualStyle
  2
FlatWithEdges
 70
     1
177
     3
291
     1
 70
    58
 90
        2
176
     1
 90
        1
176
     1
 90
        1
176
     1
 90
        2
176
     1
 40
0.6
176
     1
 40
30.0
176
     1
 62
     7
420
 16777215
176
     1
 90
        1
176
     1
 90
        0
176
     1
 62
     7
176
     1
 62
   257
176
     1
 90
        1
176
     1
 90
        1
176
     1
 40
1.0
176
     1
 90
        0
176
     1
 62
   257
176
     1
 40
1.0
176
     1
 90
        1
176
     1
 90
        6
176
     1
 90
        2
176
     1
 62
     7
176
     1
 90
        5
176
     1
 90
        0
176
     1
 90
        0
176
     1
290
     0
176
     1
 90
       13
176
     1
 40
0.0
176
     1
 90
        0
176
     1
290
     0
176
     1
290
     1
176
     1
290
     1
176
     1
290
     0
176
     1
290
     0
176
     1
290
     0
176
     1
290
     0
176
     1
290
     0
176
     1
290
     0
176
     1
 90
       50
176
     1
 40
0.0
176
     1
 40
1.0
176
     1
 90
        0
176
     1
 62
    18
420
        0
176
     1
 90
       50
176
     1
 90
        3
176
     1
 62
     5
420
      255
176
     1
290
     0
176
     1
 90
       50
176
     1
 90
       50
176
     1
 90
       50
176
     1
290
     0
176
     1
 90
       50
176
     1
 62
   256
176
     0
 40
1.0
176
     0
 90
        2
176
     1
  1
strokes_ogs.tif
176
     1
290
     0
176
     1
 40
1.0
176
     1
 40
1.0
176
     1
  0
VISUALSTYLE
  5
2D
102
{ACAD_REACTORS
330
2A
102
}
330
2A
100
AcDbVisualStyle
  2
Gouraud
 70
     2
177
     3
291
     1
 70
    58
 90
        2
176
     1
 90
        2
176
     1
 90
        1
176
     1
 90
        2
176
     1
 40
0.6
176
     1
 40
30.0
176
     1
 62
     7
420
 16777215
176
     1
 90
        0
176
     1
 90
        0
176
     1
 62
     7
176
     1
 62
   257
176
     1
 90
        1
176
     1
 90
        1
176
     1
 40
1.0
176
     1
 90
        0
176
     1
 62
     7
176
     1
 40
1.0
176
     1
 90
        1
176
     1
 90
        6
176
     1
 90
        2
176
     1
 62
     7
176
     1
 90
        5
176
     1
 90
        0
176
     1
 90
        0
176
     1
290
     0
176
     1
 90
       13
176
     1
 40
0.0
176
     1
 90
        0
176
     1
290
     0
176
     1
290
     1
176
     1
290
     1
176
     1
290
     0
176
     1
290
     0
176
     1
290
     0
176
     1
290
     0
176
     1
290
     0
176
     1
290
     0
176
     1
 90
       50
176
     1
 40
0.0
176
     1
 40
1.0
176
     1
 90
        0
176
     1
 62
    18
420
        0
176
     1
 90
       50
176
     1
 90
        3
176
     1
 62
     5
420
      255
176
     1
290
     0
176
     1
 90
       50
176
     1
 90
       50
176
     1
 90
       50
176
     1
290
     0
176
     1
 90
       50
176
     1
 62
   256
176
     0
 40
1.0
176
     0
 90
        2
176
     1
  1
strokes_ogs.tif
176
     1
290
     0
176
     1
 40
1.0
176
     1
 40
1.0
176
     1
  0
VISUALSTYLE
  5
2E
102
{ACAD_REACTORS
330
2A
102
}
330
2A
100
AcDbVisualStyle
  2
GouraudWithEdges
 70
     3
177
     3
291
     1
 70
    58
 90
        2
176
     1
 90
        2
176
     1
 90
        1
176
     1
 90
        2
176
     1
 40
0.6
176
     1
 40
30.0
176
     1
 62
     7
420
 16777215
176
     1
 90
        1
176
     1
 90
        0
176
     1
 62
     7
176
     1
 62
   257
176
     1
 90
        1
176
     1
 90
        1
176
     1
 40
1.0
176
     1
 90
        0
176
     1
 62
   257
176
     1
 40
1.0
176
     1
 90
        1
176
     1
 90
        6
176
     1
 90
        2
176
     1
 62
     7
176
     1
 90
        5
176
     1
 90
        0
176
     1
 90
        0
176
     1
290
     0
176
     1
 90
       13
176
     1
 40
0.0
176
     1
 90
        0
176
     1
290
     0
176
     1
290
     1
176
     1
290
     1
176
     1
290
     0
176
     1
290
     0
176
     1
290
     0
176
     1
290
     0
176
     1
290
     0
176
     1
290
     0
176
     1
 90
       50
176
     1
 40
0.0
176
     1
 40
1.0
176
     1
 90
        0
176
     1
 62
    18
420
        0
176
     1
 90
       50
176
     1
 90
        3
176
     1
 62
     5
420
      255
176
     1
290
     0
176
     1
 90
       50
176
     1
 90
       50
176
     1
 90
       50
176
     1
290
     0
176
     1
 90
       50
176
     1
 62
   256
176
     0
 40
1.0
176
     0
 90
        2
176
     1
  1
strokes_ogs.tif
176
     1
290
     0
176
     1
 40
1.0
176
     1
 40
1.0
176
     1
  0
VISUALSTYLE
  5
31
102
{ACAD_REACTORS
330
2A
102
}
330
2A
100
AcDbVisualStyle
  2
Hidden
 70
     6
177
     3
291
     0
 70
    58
 90
        1
176
     1
 90
        2
176
     1
 90
        2
176
     1
 90
        0
176
     1
 40
0.6
176
     1
 40
30.0
176
     1
 62
     7
420
 16777215
176
     1
 90
        2
176
     1
 90
        2
176
     1
 62
     7
176
     1
 62
   257
176
     1
 90
        2
176
     1
 90
        1
176
     1
 40
40.0
176
     1
 90
        0
176
     1
 62
   257
176
     1
 40
1.0
176
     1
 90
        1
176
     1
 90
        6
176
     1
 90
        2
176
     1
 62
     7
176
     1
 90
        3
176
     1
 90
        0
176
     1
 90
        0
176
     1
290
     0
176
     1
 90
        1
176
     1
 40
0.0
176
     1
 90
        0
176
     1
290
     0
176
     1
290
     1
176
     1
290
     1
176
     1
290
     0
176
     1
290
     0
176
     1
290
     0
176
     1
290
     0
176
     1
290
     0
176
     1
290
     0
176
     1
 90
       50
176
     1
 40
0.0
176
     1
 40
1.0
176
     1
 90
        0
176
     1
 62
    18
420
        0
176
     1
 90
       50
176
     1
 90
        3
176
     1
 62
     5
420
      255
176
     1
290
     0
176
     1
 90
       50
176
     1
 90
       50
176
     1
 90
       50
176
     1
290
     0
176
     1
 90
       50
176
     1
 62
   256
176
     0
 40
1.0
176
     0
 90
        2
176
     1
  1
strokes_ogs.tif
176
     1
290
     0
176
     1
 40
1.0
176
     1
 40
1.0
176
     1
  0
VISUALSTYLE
  5
3B
102
{ACAD_REACTORS
330
2A
102
}
330
2A
100
AcDbVisualStyle
  2
JitterOff
 70
    20
177
     3
291
     1
 70
    58
 90
        2
176
     0
 90
        2
176
     0
 90
        0
176
     0
 90
        0
176
     0
 40
0.6
176
     0
 40
30.0
176
     0
 62
     7
420
 16777215
176
     0
 90
        1
176
     0
 90
        4
176
     0
 62
     7
176
     0
 62
   257
176
     0
 90
        1
176
     0
 90
        1
176
     0
 40
1.0
176
     0
 90
       10
176
     2
 62
     7
176
     0
 40
1.0
176
     0
 90
        1
176
     0
 90
        6
176
     0
 90
        2
176
     0
 62
     7
176
     0
 90
        5
176
     0
 90
        0
176
     0
 90
        0
176
     0
290
     0
176
     0
 90
        1
176
     0
 40
0.0
176
     0
 90
        0
176
     0
290
     0
176
     0
290
     1
176
     0
290
     1
176
     0
290
     0
176
     0
290
     0
176
     0
290
     0
176
     0
290
     0
176
     0
290
     0
176
     0
290
     0
176
     0
 90
       50
176
     0
 40
0.0
176
     0
 40
1.0
176
     0
 90
        0
176
     0
 62
    18
420
        0
176
     0
 90
       50
176
     0
 90
        3
176
     0
 62
     5
420
      255
176
     0
290
     0
176
     0
 90
       50
176
     0
 90
       50
176
     0
 90
       50
176
     0
290
     0
176
     0
 90
       50
176
     0
 62
   256
176
     0
 40
1.0
176
     0
 90
        2
176
     0
  1
strokes_ogs.tif
176
     0
290
     0
176
     0
 40
1.0
176
     0
 40
1.0
176
     0
  0
VISUALSTYLE
  5
38
102
{ACAD_REACTORS
330
2A
102
}
330
2A
100
AcDbVisualStyle
  2
Linepattern
 70
    14
177
     3
291
     1
 70
    58
 90
        2
176
     1
 90
        2
176
     1
 90
        0
176
     1
 90
        0
176
     1
 40
0.6
176
     1
 40
30.0
176
     1
 62
     7
420
 16777215
176
     1
 90
        1
176
     1
 90
        4
176
     1
 62
     7
176
     1
 62
   257
176
     1
 90
        7
176
     1
 90
        7
176
     1
 40
1.0
176
     1
 90
        8
176
     1
 62
     7
176
     1
 40
1.0
176
     1
 90
        1
176
     1
 90
        6
176
     1
 90
        2
176
     1
 62
     7
176
     1
 90
        5
176
     1
 90
        0
176
     1
 90
        0
176
     1
290
     0
176
     1
 90
        1
176
     1
 40
0.0
176
     1
 90
        0
176
     1
290
     0
176
     1
290
     1
176
     1
290
     1
176
     1
290
     0
176
     1
290
     0
176
     1
290
     0
176
     1
290
     0
176
     1
290
     0
176
     1
290
     0
176
     1
 90
       50
176
     1
 40
0.0
176
     1
 40
1.0
176
     1
 90
        0
176
     1
 62
    18
420
        0
176
     1
 90
       50
176
     1
 90
        3
176
     1
 62
     5
420
      255
176
     1
290
     0
176
     1
 90
       50
176
     1
 90
       50
176
     1
 90
       50
176
     1
290
     0
176
     1
 90
       50
176
     1
 62
   256
176
     0
 40
1.0
176
     0
 90
        2
176
     1
  1
strokes_ogs.tif
176
     1
290
     0
176
     1
 40
1.0
176
     1
 40
1.0
176
     1
  0
VISUALSTYLE
  5
3C
102
{ACAD_REACTORS
330
2A
102
}
330
2A
100
AcDbVisualStyle
  2
OverhangOff
 70
    21
177
     3
291
     1
 70
    58
 90
        2
176
     0
 90
        2
176
     0
 90
        0
176
     0
 90
        0
176
     0
 40
0.6
176
     0
 40
30.0
176
     0
 62
     7
420
 16777215
176
     0
 90
        1
176
     0
 90
        4
176
     0
 62
     7
176
     0
 62
   257
176
     0
 90
        1
176
     0
 90
        1
176
     0
 40
1.0
176
     0
 90
        9
176
     2
 62
     7
176
     0
 40
1.0
176
     0
 90
        1
176
     0
 90
        6
176
     0
 90
        2
176
     0
 62
     7
176
     0
 90
        5
176
     0
 90
        0
176
     0
 90
        0
176
     0
290
     0
176
     0
 90
        1
176
     0
 40
0.0
176
     0
 90
        0
176
     0
290
     0
176
     0
290
     1
176
     0
290
     1
176
     0
290
     0
176
     0
290
     0
176
     0
290
     0
176
     0
290
     0
176
     0
290
     0
176
     0
290
     0
176
     0
 90
       50
176
     0
 40
0.0
176
     0
 40
1.0
176
     0
 90
        0
176
     0
 62
    18
420
        0
176
     0
 90
       50
176
     0
 90
        3
176
     0
 62
     5
420
      255
176
     0
290
     0
176
     0
 90
       50
176
     0
 90
       50
176
     0
 90
       50
176
     0
290
     0
176
     0
 90
       50
176
     0
 62
   256
176
     0
 40
1.0
176
     0
 90
        2
176
     0
  1
strokes_ogs.tif
176
     0
290
     0
176
     0
 40
1.0
176
     0
 40
1.0
176
     0
  0
VISUALSTYLE
  5
33
102
{ACAD_REACTORS
330
2A
102
}
330
2A
100
AcDbVisualStyle
  2
Realistic
 70
     8
177
     3
291
     0
 70
    58
 90
        2
176
     1
 90
        3
176
     1
 90
        0
176
     1
 90
        2
176
     1
 40
0.6
176
     1
 40
30.0
176
     1
 62
     7
420
 16777215
176
     1
 90
        0
176
     1
 90
        0
176
     1
 62
     7
176
     1
 62
   257
176
     1
 90
        1
176
     1
 90
        1
176
     1
 40
1.0
176
     1
 90
        8
176
     1
 62
   257
176
     1
 40
1.0
176
     1
 90
        1
176
     1
 90
        6
176
     1
 90
        2
176
     1
 62
     7
176
     1
 90
        3
176
     1
 90
        0
176
     1
 90
        0
176
     1
290
     0
176
     1
 90
       13
176
     1
 40
0.0
176
     1
 90
        0
176
     1
290
     0
176
     1
290
     1
176
     1
290
     1
176
     1
290
     0
176
     1
290
     0
176
     1
290
     0
176
     1
290
     0
176
     1
290
     0
176
     1
290
     0
176
     1
 90
       50
176
     1
 40
0.0
176
     1
 40
1.0
176
     1
 90
        0
176
     1
 62
    18
420
        0
176
     1
 90
       50
176
     1
 90
        3
176
     1
 62
     5
420
      255
176
     1
290
     0
176
     1
 90
       50
176
     1
 90
       50
176
     1
 90
       50
176
     1
290
     0
176
     1
 90
       50
176
     1
 62
   256
176
     0
 40
1.0
176
     0
 90
        2
176
     1
  1
strokes_ogs.tif
176
     1
290
     0
176
     1
 40
1.0
176
     1
 40
1.0
176
     1
  0
VISUALSTYLE
  5
42
102
{ACAD_REACTORS
330
2A
102
}
330
2A
100
AcDbVisualStyle
  2
Shaded
 70
    27
177
     3
291
     0
 70
    58
 90
        2
176
     1
 90
        2
176
     1
 90
        1
176
     1
 90
        2
176
     1
 40
0.6
176
     1
 40
30.0
176
     1
 62
     7
420
 16777215
176
     1
 90
        0
176
     1
 90
        4
176
     1
 62
     7
176
     1
 62
   257
176
     1
 90
        1
176
     1
 90
        1
176
     1
 40
1.0
176
     1
 90
        8
176
     1
 62
   257
176
     1
 40
1.0
176
     1
 90
        1
176
     1
 90
        6
176
     1
 90
        2
176
     1
 62
     8
420
  7895160
176
     1
 90
        3
176
     1
 90
        0
176
     1
 90
        0
176
     1
290
     0
176
     1
 90
        5
176
     1
 40
0.0
176
     1
 90
        0
176
     1
290
     0
176
     1
290
     1
176
     1
290
     1
176
     1
290
     0
176
     1
290
     0
176
     1
290
     0
176
     1
290
     0
176
     1
290
     0
176
     1
290
     0
176
     1
 90
       50
176
     1
 40
0.0
176
     1
 40
1.0
176
     1
 90
        0
176
     1
 62
    18
420
        0
176
     1
 90
       50
176
     1
 90
        3
176
     1
 62
     5
420
      255
176
     1
290
     0
176
     1
 90
       50
176
     1
 90
       50
176
     1
 90
       50
176
     1
290
     0
176
     1
 90
       50
176
     1
 62
   256
176
     0
 40
1.0
176
     0
 90
        2
176
     1
  1
strokes_ogs.tif
176
     1
290
     0
176
     1
 40
1.0
176
     1
 40
1.0
176
     1
  0
VISUALSTYLE
  5
41
102
{ACAD_REACTORS
330
2A
102
}
330
2A
100
AcDbVisualStyle
  2
Shaded with edges
 70
    26
177
     3
291
     0
 70
    58
 90
        2
176
     1
 90
        2
176
     1
 90
        1
176
     1
 90
        2
176
     1
 40
0.6
176
     1
 40
30.0
176
     1
 62
     7
420
 16777215
176
     1
 90
        1
176
     1
 90
       10
176
     1
 62
     7
176
     1
 62
   257
176
     1
 90
        2
176
     1
 90
        1
176
     1
 40
1.0
176
     1
 90
        8
176
     1
 62
   257
176
     1
 40
1.0
176
     1
 90
        1
176
     1
 90
        6
176
     1
 90
        2
176
     1
 62
     7
176
     1
 90
        3
176
     1
 90
        0
176
     1
 90
        0
176
     1
290
     0
176
     1
 90
        5
176
     1
 40
0.0
176
     1
 90
        0
176
     1
290
     0
176
     1
290
     1
176
     1
290
     1
176
     1
290
     0
176
     1
290
     0
176
     1
290
     0
176
     1
290
     0
176
     1
290
     0
176
     1
290
     0
176
     1
 90
       50
176
     1
 40
0.0
176
     1
 40
1.0
176
     1
 90
        0
176
     1
 62
    18
420
        0
176
     1
 90
       50
176
     1
 90
        3
176
     1
 62
     5
420
      255
176
     1
290
     0
176
     1
 90
       50
176
     1
 90
       50
176
     1
 90
       50
176
     1
290
     0
176
     1
 90
       50
176
     1
 62
   256
176
     0
 40
1.0
176
     0
 90
        2
176
     1
  1
strokes_ogs.tif
176
     1
290
     0
176
     1
 40
1.0
176
     1
 40
1.0
176
     1
  0
VISUALSTYLE
  5
3E
102
{ACAD_REACTORS
330
2A
102
}
330
2A
100
AcDbVisualStyle
  2
Shades of Gray
 70
    23
177
     3
291
     0
 70
    58
 90
        2
176
     1
 90
        2
176
     1
 90
        3
176
     1
 90
        0
176
     1
 40
0.6
176
     1
 40
30.0
176
     1
 62
     7
420
 16777215
176
     1
 90
        2
176
     1
 90
        2
176
     1
 62
     7
176
     1
 62
     7
176
     1
 90
        1
176
     1
 90
        1
176
     1
 40
40.0
176
     1
 90
        8
176
     1
 62
     7
176
     1
 40
1.0
176
     1
 90
        1
176
     1
 90
        6
176
     1
 90
        2
176
     1
 62
     7
176
     1
 90
        3
176
     1
 90
        0
176
     1
 90
        0
176
     1
290
     0
176
     1
 90
        1
176
     1
 40
0.0
176
     1
 90
        0
176
     1
290
     0
176
     1
290
     1
176
     1
290
     1
176
     1
290
     0
176
     1
290
     0
176
     1
290
     0
176
     1
290
     0
176
     1
290
     0
176
     1
290
     0
176
     1
 90
       50
176
     1
 40
0.0
176
     1
 40
1.0
176
     1
 90
        0
176
     1
 62
    18
420
        0
176
     1
 90
       50
176
     1
 90
        3
176
     1
 62
     5
420
      255
176
     1
290
     0
176
     1
 90
       50
176
     1
 90
       50
176
     1
 90
       50
176
     1
290
     0
176
     1
 90
       50
176
     1
 62
   256
176
     0
 40
1.0
176
     0
 90
        2
176
     1
  1
strokes_ogs.tif
176
     1
290
     0
176
     1
 40
1.0
176
     1
 40
1.0
176
     1
  0
VISUALSTYLE
  5
3F
102
{ACAD_REACTORS
330
2A
102
}
330
2A
100
AcDbVisualStyle
  2
Sketchy
 70
    24
177
     3
291
     0
 70
    58
 90
        1
176
     1
 90
        2
176
     1
 90
        2
176
     1
 90
        0
176
     1
 40
0.6
176
     1
 40
30.0
176
     1
 62
     7
420
 16777215
176
     1
 90
        2
176
     1
 90
        2
176
     1
 62
     7
176
     1
 62
     7
176
     1
 90
        1
176
     1
 90
        1
176
     1
 40
40.0
176
     1
 90
       11
176
     1
 62
     7
176
     1
 40
1.0
176
     1
 90
        1
176
     1
 90
        6
176
     1
 90
        2
176
     1
 62
     7
176
     1
 90
        6
176
     1
 90
        0
176
     1
 90
        0
176
     1
290
     0
176
     1
 90
        1
176
     1
 40
0.0
176
     1
 90
        0
176
     1
290
     0
176
     1
290
     1
176
     1
290
     1
176
     1
290
     0
176
     1
290
     0
176
     1
290
     0
176
     1
290
     0
176
     1
290
     0
176
     1
290
     0
176
     1
 90
       50
176
     1
 40
0.0
176
     1
 40
1.0
176
     1
 90
        0
176
     1
 62
    18
420
        0
176
     1
 90
       50
176
     1
 90
        3
176
     1
 62
     5
420
      255
176
     1
290
     0
176
     1
 90
       50
176
     1
 90
       50
176
     1
 90
       50
176
     1
290
     0
176
     1
 90
       50
176
     1
 62
   256
176
     0
 40
1.0
176
     0
 90
        2
176
     1
  1
strokes_ogs.tif
176
     1
290
     0
176
     1
 40
1.0
176
     1
 40
1.0
176
     1
  0
VISUALSTYLE
  5
37
102
{ACAD_REACTORS
330
2A
102
}
330
2A
100
AcDbVisualStyle
  2
Thicken
 70
    13
177
     3
291
     1
 70
    58
 90
        2
176
     1
 90
        2
176
     1
 90
        0
176
     1
 90
        0
176
     1
 40
0.6
176
     1
 40
30.0
176
     1
 62
     7
420
 16777215
176
     1
 90
        1
176
     1
 90
        4
176
     1
 62
     7
176
     1
 62
   257
176
     1
 90
        1
176
     1
 90
        1
176
     1
 40
1.0
176
     1
 90
       12
176
     1
 62
     7
176
     1
 40
1.0
176
     1
 90
        1
176
     1
 90
        6
176
     1
 90
        2
176
     1
 62
     7
176
     1
 90
        5
176
     1
 90
        0
176
     1
 90
        0
176
     1
290
     0
176
     1
 90
        1
176
     1
 40
0.0
176
     1
 90
        0
176
     1
290
     0
176
     1
290
     1
176
     1
290
     1
176
     1
290
     0
176
     1
290
     0
176
     1
290
     0
176
     1
290
     0
176
     1
290
     0
176
     1
290
     0
176
     1
 90
       50
176
     1
 40
0.0
176
     1
 40
1.0
176
     1
 90
        0
176
     1
 62
    18
420
        0
176
     1
 90
       50
176
     1
 90
        3
176
     1
 62
     5
420
      255
176
     1
290
     0
176
     1
 90
       50
176
     1
 90
       50
176
     1
 90
       50
176
     1
290
     0
176
     1
 90
       50
176
     1
 62
   256
176
     0
 40
1.0
176
     0
 90
        2
176
     1
  1
strokes_ogs.tif
176
     1
290
     0
176
     1
 40
1.0
176
     1
 40
1.0
176
     1
  0
VISUALSTYLE
  5
30
102
{ACAD_REACTORS
330
2A
102
}
330
2A
100
AcDbVisualStyle
  2
Wireframe
 70
     5
177
     3
291
     0
 70
    58
 90
        0
176
     1
 90
        2
176
     1
 90
        0
176
     1
 90
        0
176
     1
 40
0.6
176
     1
 40
30.0
176
     1
 62
     7
420
 16777215
176
     1
 90
        1
176
     1
 90
        4
176
     1
 62
     7
176
     1
 62
   257
176
     1
 90
        1
176
     1
 90
        1
176
     1
 40
1.0
176
     1
 90
        0
176
     1
 62
   257
176
     1
 40
1.0
176
     1
 90
        1
176
     1
 90
        6
176
     1
 90
        2
176
     1
 62
     7
176
     1
 90
        3
176
     1
 90
        0
176
     1
 90
        0
176
     1
290
     0
176
     1
 90
        1
176
     1
 40
0.0
176
     1
 90
        0
176
     1
290
     0
176
     1
290
     1
176
     1
290
     1
176
     1
290
     0
176
     1
290
     0
176
     1
290
     0
176
     1
290
     0
176
     1
290
     0
176
     1
290
     0
176
     1
 90
       50
176
     1
 40
0.0
176
     1
 40
1.0
176
     1
 90
        0
176
     1
 62
    18
420
        0
176
     1
 90
       50
176
     1
 90
        3
176
     1
 62
     5
420
      255
176
     1
290
     0
176
     1
 90
       50
176
     1
 90
       50
176
     1
 90
       50
176
     1
290
     0
176
     1
 90
       50
176
     1
 62
   256
176
     0
 40
1.0
176
     0
 90
        2
176
     1
  1
strokes_ogs.tif
176
     1
290
     0
176
     1
 40
1.0
176
     1
 40
1.0
176
     1
  0
VISUALSTYLE
  5
40
102
{ACAD_REACTORS
330
2A
102
}
330
2A
100
AcDbVisualStyle
  2
X-Ray
 70
    25
177
     3
291
     0
 70
    58
 90
        2
176
     1
 90
        2
176
     1
 90
        1
176
     1
 90
        1
176
     1
 40
0.5
176
     1
 40
30.0
176
     1
 62
     7
420
 16777215
176
     1
 90
        1
176
     1
 90
        0
176
     1
 62
     7
176
     1
 62
   257
176
     1
 90
        1
176
     1
 90
        1
176
     1
 40
1.0
176
     1
 90
        8
176
     1
 62
     7
176
     1
 40
1.0
176
     1
 90
        1
176
     1
 90
        6
176
     1
 90
        2
176
     1
 62
     7
176
     1
 90
        3
176
     1
 90
        0
176
     1
 90
        0
176
     1
290
     0
176
     1
 90
       13
176
     1
 40
0.0
176
     1
 90
        0
176
     1
290
     0
176
     1
290
     1
176
     1
290
     1
176
     1
290
     0
176
     1
290
     0
176
     1
290
     0
176
     1
290
     0
176
     1
290
     0
176
     1
290
     0
176
     1
 90
       50
176
     1
 40
0.0
176
     1
 40
1.0
176
     1
 90
        0
176
     1
 62
    18
420
        0
176
     1
 90
       50
176
     1
 90
        3
176
     1
 62
     5
420
      255
176
     1
290
     0
176
     1
 90
       50
176
     1
 90
       50
176
     1
 90
       50
176
     1
290
     0
176
     1
 90
       50
176
     1
 62
   256
176
     0
 40
1.0
176
     0
 90
        2
176
     1
  1
strokes_ogs.tif
176
     1
290
     0
176
     1
 40
1.0
176
     1
 40
1.0
176
     1
  0
DICTIONARYVAR
  5
18E
102
{ACAD_REACTORS
330
18D
102
}
330
18D
100
DictionaryVariables
280
     0
  1
1:1
  0
ENDSEC
  0
EOF
